<svg width="287" height="292" viewBox="0 0 287 292" fill="none" xmlns="http://www.w3.org/2000/svg">
<g clip-path="url(#clip0_196_7301)">
<path d="M143.152 252.142C122.81 242.828 102.807 228.811 84.8436 211.115C104.118 215.334 123.784 217.427 143.5 217.358C163.027 217.412 182.504 215.359 201.604 211.233C183.213 229.237 163.058 243.063 143.152 252.142ZM181.975 263.985C190.938 250.874 198.343 233.332 203.475 212.864C185.441 230.56 165.731 244.232 146.129 253.456C154.12 256.975 162.396 259.785 170.863 261.855C174.641 262.755 178.345 263.465 181.975 263.985ZM140.159 253.483C120.44 244.142 101.105 230.487 83.6586 213.426C88.7642 233.559 96.0706 250.837 104.892 263.803C117.038 261.934 128.893 258.465 140.159 253.483ZM211.334 145.923C211.402 125.495 209.257 105.121 204.936 85.1709L145.237 145.878L204.936 206.585C209.25 186.664 211.396 166.321 211.334 145.923ZM261.82 183.407C269.768 177.427 275.933 170.777 279.836 163.601C282.876 158.218 284.502 152.13 284.559 145.923C284.559 132.051 276.138 119.131 261.668 108.303C261.169 111.637 260.519 115.035 259.717 118.496C257.5 127.791 254.458 136.862 250.628 145.597C254.546 154.482 257.642 163.719 259.877 173.187C260.673 176.648 261.321 180.055 261.82 183.407ZM257.507 173.749C255.484 165.164 252.735 156.773 249.292 148.669C240.034 168.992 226.383 188.925 209.329 206.893C229.333 201.71 246.636 194.208 259.601 185.038C259.09 181.354 258.392 177.59 257.507 173.749ZM83.5249 78.9734C101.577 61.2868 121.269 47.6142 140.863 38.3994C129.416 33.303 117.357 29.7688 104.999 27.889C96.0439 40.9908 88.6483 58.5233 83.5249 78.9734ZM207.609 86.2764C211.758 105.876 213.816 125.874 213.749 145.923C213.813 165.765 211.797 185.556 207.734 204.963C225.091 186.651 238.831 166.292 247.955 145.597C238.795 124.902 225.02 104.552 207.609 86.2764ZM73.2246 145.923C73.1627 126.066 75.1819 106.26 79.248 86.8381C61.5344 105.53 47.9729 126.026 39.0359 146.277C48.2046 166.962 61.9888 187.295 79.3727 205.57C75.2211 185.97 73.1599 165.972 73.2246 145.923ZM262.042 105.694C272.325 113.187 279.863 121.704 283.783 130.864C281.173 105.596 271.976 81.4953 257.142 61.0513C262.541 73.6729 264.225 88.8405 262.042 105.694ZM27.3991 106.79C27.9099 110.481 28.6079 114.247 29.493 118.089C31.5274 126.708 34.2909 135.133 37.7528 143.268C46.8146 123.335 60.2602 103.265 77.662 84.9354C57.5336 90.1453 40.2833 97.6748 27.3991 106.79ZM141.771 145.923L82.0725 85.2163C77.754 105.151 75.6115 125.51 75.6839 145.923C75.6108 166.336 77.7533 186.695 82.0725 206.63L141.771 145.923ZM182.099 28.0883C169.926 29.947 158.043 33.4133 146.752 38.3994C166.088 47.5326 185.539 60.9969 203.324 78.3845C198.227 58.2606 190.92 40.9999 182.099 28.0883ZM77.1184 206.766C60.3404 189.025 46.9126 169.372 37.7261 149.321C32.8244 160.773 29.4099 172.826 27.5684 185.174C40.319 194.144 57.3109 201.583 77.1184 206.766ZM85.3961 80.5862C104.495 76.4514 123.973 74.3981 143.5 74.4612C163.228 74.3953 182.906 76.4914 202.192 80.7131C183.846 62.6731 163.717 48.8374 143.812 39.7042C123.915 48.7921 103.769 62.5825 85.3961 80.5862ZM143.5 214.903C163.575 214.965 183.595 212.778 203.199 208.379L143.5 147.672L83.7566 208.397C103.376 212.79 123.411 214.972 143.5 214.903ZM143.5 76.9438C123.426 76.869 103.405 79.0477 83.8011 83.4403L143.5 144.147L203.199 83.4403C183.595 79.0487 163.574 76.87 143.5 76.9438ZM257.338 117.926C258.229 114.102 258.933 110.357 259.449 106.69C246.699 97.7019 229.698 90.2631 209.882 85.0713C226.66 102.821 240.096 122.492 249.283 142.553C252.648 134.59 255.342 126.351 257.338 117.926ZM103.885 266.386C99.3736 266.986 94.8287 267.289 90.2789 267.292C79.1945 267.292 68.8942 265.326 59.8325 261.312C79.9781 276.489 103.756 285.897 128.691 288.557C119.656 284.507 111.263 276.878 103.885 266.386ZM102.352 264.148C93.2728 250.484 85.8238 232.435 80.736 211.505L44.6761 248.165C45.1662 248.654 45.6562 249.152 46.1463 249.632C57.6227 259.953 72.9752 264.891 90.3413 264.891C94.356 264.878 98.3665 264.627 102.352 264.139V264.148ZM27.2387 187.766C24.5656 210.417 29.092 230.714 41.5932 245.011L42.9475 246.452L79.0074 209.783C58.4247 204.564 40.6754 196.989 27.2387 187.757V187.766ZM180.38 266.259C177.083 265.751 173.727 265.09 170.311 264.275C160.972 261.992 151.862 258.831 143.099 254.833C131.413 260.173 119.089 263.932 106.442 266.014C117.134 280.774 129.832 289.373 143.5 289.373C157.168 289.373 169.759 280.883 180.38 266.25V266.259ZM182.955 266.621C175.604 277.005 167.273 284.571 158.3 288.584C183.103 285.935 206.764 276.612 226.847 261.574C217.936 265.534 207.672 267.545 196.463 267.545C191.945 267.528 187.433 267.216 182.955 266.612V266.621ZM262.203 186.171C264.323 202.961 262.613 218.083 257.222 230.686C271.99 210.293 281.152 186.268 283.766 161.082C283.231 162.332 282.643 163.583 281.984 164.815C277.733 172.58 270.97 179.756 262.203 186.162V186.171ZM259.94 187.748C246.414 197.062 228.54 204.61 207.984 209.756L244.044 246.452C244.507 245.972 244.935 245.546 245.425 245.02C257.632 231.049 262.639 211.115 259.94 187.738V187.748ZM184.523 264.329C207.565 267.047 227.167 262.009 240.916 249.578L242.324 248.174L206.264 211.505C201.149 232.517 193.656 250.638 184.523 264.32V264.329ZM259.779 104.108C262.55 80.6949 257.596 60.7976 245.407 46.8531C244.961 46.3819 244.516 45.947 244.044 45.4396L207.984 82.0994C228.584 87.2821 246.342 94.8659 259.779 104.099V104.108ZM25.0468 186.207C14.7109 178.696 7.22622 170.161 3.2166 160.973C5.83023 186.324 15.0759 210.5 29.992 230.985C24.4765 218.101 22.9261 202.743 25.0468 186.207ZM183.115 25.4698C199.376 23.3133 214.479 24.8899 227.15 30.5075C207.008 15.3317 183.232 5.92618 158.3 3.27095C167.335 7.31204 175.728 14.9593 183.115 25.4698ZM106.549 25.6782C119.412 27.7675 131.943 31.5916 143.812 37.0494C155.523 31.6936 167.874 27.9224 180.549 25.8322C169.857 11.0813 157.159 2.48267 143.5 2.48267C129.841 2.48267 117.188 11.0179 106.549 25.6782ZM103.983 25.3157C111.378 14.8868 119.701 7.29392 128.691 3.27095C103.803 5.93341 80.0676 15.3186 59.9483 30.4532C72.6366 24.8083 87.7306 23.2046 103.983 25.3157ZM184.648 27.7078C193.718 41.3713 201.167 59.4203 206.264 80.3416L242.36 43.6728C241.869 43.1835 241.388 42.6942 240.889 42.214C229.413 31.8938 214.052 26.9467 196.694 26.9467C192.667 26.9561 188.645 27.2102 184.648 27.7078ZM102.468 27.5628C98.5442 27.0846 94.5962 26.8395 90.6442 26.8289C73.1801 26.8289 57.7297 31.8032 46.173 42.2321L44.6761 43.6728L80.736 80.3416C85.8416 59.3388 93.3262 41.2354 102.468 27.5628ZM25.4032 183.607C27.4521 170.744 31.1487 158.209 36.3985 146.322C32.4718 137.425 29.3666 128.177 27.1229 118.696C26.3209 115.216 25.6705 111.8 25.1715 108.448C10.7992 119.257 2.44141 132.133 2.44141 145.959C2.44141 159.786 10.8973 172.761 25.4032 183.607ZM24.8062 105.802C22.6588 88.9583 24.3696 73.7907 29.7781 61.16C14.9835 81.5779 5.81432 105.64 3.2166 130.864C7.12821 121.749 14.595 113.259 24.8062 105.802ZM27.0694 104.198C40.5239 94.9112 58.3356 87.3002 79.0074 82.0994L42.9475 45.4306C42.4842 45.9017 42.0565 46.3366 41.5753 46.8622C29.3415 60.8429 24.3429 80.7765 27.0694 104.198Z" fill="url(#paint0_radial_196_7301)"/>
<path d="M244.106 248.229C299.67 191.727 299.67 100.119 244.106 43.6176C188.543 -12.8842 98.4563 -12.8842 42.8928 43.6176C-12.6707 100.119 -12.6707 191.727 42.8928 248.229C98.4563 304.73 188.543 304.73 244.106 248.229Z" stroke="#FCEA00" stroke-width="2.74" stroke-miterlimit="10"/>
<path d="M205.572 209.044C261.136 152.542 278.388 78.4784 244.106 43.6177C209.825 8.75702 136.991 26.3006 81.427 82.8024C25.8635 139.304 8.6112 213.368 42.893 248.229C77.1748 283.089 150.009 265.546 205.572 209.044Z" stroke="#FCEA00" stroke-width="2.74" stroke-miterlimit="10"/>
<path d="M143.5 216.144C64.9203 216.144 1.2207 184.703 1.2207 145.923C1.2207 107.143 64.9203 75.7024 143.5 75.7024C222.08 75.7024 285.779 107.143 285.779 145.923C285.72 152.342 284.042 158.637 280.905 164.208C264.635 194.117 209.258 216.144 143.5 216.144Z" stroke="#FCEA00" stroke-width="2.74" stroke-miterlimit="10"/>
<path d="M143.5 290.605C181.638 290.605 212.555 225.829 212.555 145.923C212.555 66.0175 181.638 1.24121 143.5 1.24121C105.362 1.24121 74.4453 66.0175 74.4453 145.923C74.4453 225.829 105.362 290.605 143.5 290.605Z" stroke="#FCEA00" stroke-width="2.74" stroke-miterlimit="10"/>
<path d="M244.106 248.228L42.8945 43.6184" stroke="#FCEA00" stroke-width="2.74" stroke-miterlimit="10"/>
<path d="M244.106 43.6184L42.8945 248.228" stroke="#FCEA00" stroke-width="2.74" stroke-miterlimit="10"/>
<path d="M244.106 248.229C278.513 213.241 261.362 139.074 205.798 82.5718C150.235 26.07 77.2993 8.62966 42.8923 43.6177C8.48521 78.6058 25.6359 152.773 81.1994 209.275C136.763 265.777 209.699 283.217 244.106 248.229Z" stroke="#FCEA00" stroke-width="2.74" stroke-miterlimit="10"/>
</g>
<defs>
<radialGradient id="paint0_radial_196_7301" cx="0" cy="0" r="1" gradientUnits="userSpaceOnUse" gradientTransform="translate(105.845 87.1553) scale(227.987 231.837)">
<stop offset="0.06" stop-color="white"/>
<stop offset="0.09" stop-color="#EEFAFA"/>
<stop offset="0.17" stop-color="#C1EEEB"/>
<stop offset="0.27" stop-color="#78DAD4"/>
<stop offset="0.4" stop-color="#16BEB5"/>
<stop offset="0.43" stop-color="#00B8AE"/>
<stop offset="0.62" stop-color="#00B8AE"/>
<stop offset="1" stop-color="#FCEA00"/>
</radialGradient>
<clipPath id="clip0_196_7301">
<rect width="287" height="291.837" fill="white"/>
</clipPath>
</defs>
</svg>
