<svg width="1476" height="860" viewBox="0 0 1476 860" fill="none" xmlns="http://www.w3.org/2000/svg">
<g clip-path="url(#clip0_32_417)">
<path d="M1468.95 99.0539C1469.09 99.1615 1469.21 99.301 1469.3 99.4617C1469.38 99.6224 1469.43 99.8003 1469.44 99.9819C1469.44 100.163 1469.41 100.344 1469.33 100.51C1469.26 100.676 1469.15 100.823 1469.01 100.941L1451.94 118.01C1451.82 118.149 1451.68 118.259 1451.51 118.333C1451.34 118.407 1451.16 118.442 1450.98 118.436C1450.8 118.43 1450.62 118.382 1450.46 118.298C1450.3 118.213 1450.16 118.093 1450.05 117.946C1449.91 117.838 1449.79 117.698 1449.7 117.537C1449.62 117.376 1449.57 117.198 1449.57 117.016C1449.56 116.835 1449.6 116.654 1449.67 116.489C1449.75 116.323 1449.86 116.176 1450 116.059L1467.06 98.9982C1467.18 98.8589 1467.32 98.7479 1467.49 98.6735C1467.65 98.5991 1467.83 98.5633 1468.02 98.5686C1468.2 98.574 1468.38 98.6205 1468.54 98.7045C1468.7 98.7886 1468.84 98.908 1468.95 99.0539Z" fill="#00B9AF"/>
<path d="M1468.95 117.946C1468.84 118.093 1468.7 118.213 1468.54 118.298C1468.38 118.382 1468.2 118.43 1468.02 118.436C1467.84 118.442 1467.66 118.407 1467.49 118.333C1467.32 118.259 1467.18 118.149 1467.06 118.01L1450 100.941C1449.86 100.824 1449.75 100.677 1449.67 100.512C1449.6 100.346 1449.56 100.165 1449.57 99.9838C1449.57 99.8022 1449.62 99.6242 1449.7 99.4631C1449.79 99.3021 1449.91 99.1622 1450.05 99.0539C1450.16 98.908 1450.3 98.7886 1450.46 98.7045C1450.62 98.6205 1450.8 98.574 1450.98 98.5686C1451.17 98.5633 1451.35 98.5991 1451.51 98.6735C1451.68 98.7479 1451.82 98.8589 1451.94 98.9982L1469.01 116.059C1469.15 116.177 1469.26 116.324 1469.33 116.49C1469.41 116.656 1469.44 116.837 1469.44 117.018C1469.43 117.2 1469.38 117.378 1469.3 117.539C1469.21 117.699 1469.09 117.839 1468.95 117.946Z" fill="#00B9AF"/>
<path d="M1463.52 96.9281C1463.52 99.6429 1461.73 106.617 1459.5 106.617C1457.28 106.617 1455.48 99.6429 1455.48 96.9281C1455.48 94.2133 1457.28 92 1459.5 92C1461.73 92 1463.52 94.2053 1463.52 96.9281Z" fill="#00B9AF"/>
<path d="M1455.48 120.08C1455.48 117.357 1457.28 110.383 1459.5 110.383C1461.73 110.383 1463.52 117.357 1463.52 120.08C1463.52 122.803 1461.73 125 1459.5 125C1457.28 125 1455.48 122.795 1455.48 120.08Z" fill="#00B9AF"/>
<path d="M1471.08 112.525C1468.36 112.525 1461.38 110.725 1461.38 108.504C1461.38 106.283 1468.36 104.476 1471.08 104.476C1473.8 104.476 1476 106.283 1476 108.504C1476 110.725 1473.79 112.525 1471.08 112.525Z" fill="#00B9AF"/>
<path d="M1447.93 104.476C1450.64 104.476 1457.62 106.283 1457.62 108.504C1457.62 110.725 1450.64 112.525 1447.93 112.525C1445.21 112.525 1443 110.725 1443 108.504C1443 106.283 1445.21 104.476 1447.93 104.476Z" fill="#00B9AF"/>
</g>
<g clip-path="url(#clip1_32_417)">
<path d="M44.5112 96.4888C44.6044 96.5573 44.6808 96.646 44.7347 96.7483C44.7887 96.8506 44.8187 96.9638 44.8226 97.0794C44.8265 97.1949 44.8042 97.3099 44.7572 97.4156C44.7103 97.5212 44.6401 97.6149 44.5517 97.6895L33.6895 108.552C33.6149 108.64 33.5212 108.71 33.4155 108.757C33.3098 108.804 33.1949 108.827 33.0793 108.823C32.9637 108.819 32.8506 108.789 32.7483 108.735C32.646 108.681 32.5573 108.604 32.4888 108.511C32.3959 108.442 32.3199 108.353 32.2664 108.251C32.2129 108.148 32.1834 108.035 32.18 107.919C32.1765 107.804 32.1994 107.689 32.2467 107.584C32.2941 107.478 32.3647 107.385 32.4533 107.311L43.3105 96.4534C43.3847 96.3647 43.4781 96.2941 43.5836 96.2468C43.689 96.1994 43.8039 96.1766 43.9194 96.18C44.035 96.1834 44.1483 96.213 44.2508 96.2665C44.3533 96.32 44.4423 96.396 44.5112 96.4888Z" fill="#FF50C8"/>
<path d="M44.5112 108.511C44.4427 108.604 44.354 108.681 44.2517 108.735C44.1494 108.789 44.0362 108.819 43.9207 108.823C43.8051 108.827 43.6902 108.804 43.5845 108.757C43.4788 108.71 43.3851 108.64 43.3105 108.552L32.4533 97.6895C32.3647 97.6153 32.2941 97.5219 32.2467 97.4165C32.1994 97.311 32.1765 97.1962 32.18 97.0806C32.1834 96.965 32.2129 96.8517 32.2664 96.7493C32.3199 96.6468 32.3959 96.5577 32.4888 96.4888C32.5577 96.396 32.6467 96.32 32.7492 96.2665C32.8517 96.213 32.965 96.1834 33.0805 96.18C33.1961 96.1766 33.3109 96.1994 33.4164 96.2468C33.5219 96.2941 33.6152 96.3647 33.6895 96.4534L44.5517 107.311C44.6401 107.385 44.7103 107.479 44.7572 107.585C44.8042 107.69 44.8265 107.805 44.8226 107.921C44.8187 108.036 44.7887 108.149 44.7347 108.252C44.6808 108.354 44.6044 108.443 44.5112 108.511Z" fill="#FF50C8"/>
<path d="M41.061 95.1361C41.061 96.8637 39.916 101.302 38.5025 101.302C37.089 101.302 35.939 96.8637 35.939 95.1361C35.939 93.4084 37.089 92 38.5025 92C39.916 92 41.061 93.4034 41.061 95.1361Z" fill="#FF50C8"/>
<path d="M35.939 109.869C35.939 108.136 37.089 103.698 38.5025 103.698C39.916 103.698 41.061 108.136 41.061 109.869C41.061 111.602 39.916 113 38.5025 113C37.089 113 35.939 111.597 35.939 109.869Z" fill="#FF50C8"/>
<path d="M45.869 105.061C44.1363 105.061 39.6982 103.916 39.6982 102.503C39.6982 101.089 44.1363 99.939 45.869 99.939C47.6017 99.939 49 101.089 49 102.503C49 103.916 47.5966 105.061 45.869 105.061Z" fill="#FF50C8"/>
<path d="M31.1361 99.939C32.8637 99.939 37.3018 101.089 37.3018 102.503C37.3018 103.916 32.8637 105.061 31.1361 105.061C29.4084 105.061 28 103.916 28 102.503C28 101.089 29.4034 99.939 31.1361 99.939Z" fill="#FF50C8"/>
</g>
<g clip-path="url(#clip2_32_417)">
<path d="M1399.44 353.558C1399.56 353.642 1399.65 353.752 1399.72 353.879C1399.79 354.005 1399.82 354.146 1399.83 354.289C1399.83 354.432 1399.81 354.574 1399.75 354.705C1399.69 354.836 1399.6 354.952 1399.49 355.044L1386.04 368.493C1385.95 368.602 1385.84 368.689 1385.7 368.747C1385.57 368.805 1385.43 368.833 1385.29 368.828C1385.15 368.823 1385.01 368.786 1384.88 368.719C1384.75 368.652 1384.64 368.558 1384.56 368.442C1384.44 368.357 1384.35 368.247 1384.28 368.12C1384.22 367.993 1384.18 367.853 1384.18 367.71C1384.17 367.567 1384.2 367.425 1384.26 367.294C1384.32 367.163 1384.4 367.048 1384.51 366.956L1397.96 353.514C1398.05 353.404 1398.16 353.316 1398.29 353.258C1398.42 353.199 1398.57 353.171 1398.71 353.175C1398.85 353.179 1398.99 353.216 1399.12 353.282C1399.25 353.348 1399.36 353.443 1399.44 353.558Z" fill="#00B9AF"/>
<path d="M1399.44 368.442C1399.36 368.558 1399.25 368.652 1399.12 368.719C1398.99 368.786 1398.85 368.823 1398.71 368.828C1398.57 368.833 1398.43 368.805 1398.3 368.747C1398.16 368.689 1398.05 368.602 1397.96 368.493L1384.51 355.044C1384.4 354.952 1384.32 354.837 1384.26 354.706C1384.2 354.575 1384.17 354.433 1384.18 354.29C1384.18 354.147 1384.22 354.007 1384.28 353.88C1384.35 353.753 1384.44 353.643 1384.56 353.558C1384.64 353.443 1384.75 353.348 1384.88 353.282C1385.01 353.216 1385.15 353.179 1385.29 353.175C1385.43 353.171 1385.58 353.199 1385.71 353.258C1385.84 353.316 1385.95 353.404 1386.04 353.514L1399.49 366.956C1399.6 367.048 1399.69 367.164 1399.75 367.295C1399.81 367.426 1399.83 367.568 1399.83 367.711C1399.82 367.854 1399.79 367.995 1399.72 368.121C1399.65 368.248 1399.56 368.358 1399.44 368.442Z" fill="#00B9AF"/>
<path d="M1395.17 351.883C1395.17 354.022 1393.75 359.517 1392 359.517C1390.25 359.517 1388.83 354.022 1388.83 351.883C1388.83 349.744 1390.25 348 1392 348C1393.75 348 1395.17 349.738 1395.17 351.883Z" fill="#00B9AF"/>
<path d="M1388.83 370.123C1388.83 367.978 1390.25 362.483 1392 362.483C1393.75 362.483 1395.17 367.978 1395.17 370.123C1395.17 372.269 1393.75 374 1392 374C1390.25 374 1388.83 372.262 1388.83 370.123Z" fill="#00B9AF"/>
<path d="M1401.12 364.171C1398.98 364.171 1393.48 362.753 1393.48 361.003C1393.48 359.253 1398.98 357.829 1401.12 357.829C1403.27 357.829 1405 359.253 1405 361.003C1405 362.753 1403.26 364.171 1401.12 364.171Z" fill="#00B9AF"/>
<path d="M1382.88 357.829C1385.02 357.829 1390.52 359.253 1390.52 361.003C1390.52 362.753 1385.02 364.171 1382.88 364.171C1380.74 364.171 1379 362.753 1379 361.003C1379 359.253 1380.74 357.829 1382.88 357.829Z" fill="#00B9AF"/>
</g>
<g clip-path="url(#clip3_32_417)">
<path d="M1187.02 346.978C1187.21 347.115 1187.36 347.292 1187.47 347.497C1187.58 347.701 1187.64 347.928 1187.65 348.159C1187.65 348.39 1187.61 348.62 1187.51 348.831C1187.42 349.042 1187.28 349.23 1187.1 349.379L1165.38 371.104C1165.23 371.28 1165.04 371.421 1164.83 371.515C1164.62 371.608 1164.39 371.653 1164.16 371.645C1163.93 371.638 1163.7 371.577 1163.5 371.47C1163.29 371.362 1163.11 371.209 1162.98 371.023C1162.79 370.885 1162.64 370.707 1162.53 370.502C1162.43 370.297 1162.37 370.07 1162.36 369.839C1162.35 369.608 1162.4 369.378 1162.49 369.167C1162.59 368.956 1162.73 368.77 1162.91 368.621L1184.62 346.907C1184.77 346.729 1184.96 346.588 1185.17 346.494C1185.38 346.399 1185.61 346.353 1185.84 346.36C1186.07 346.367 1186.3 346.426 1186.5 346.533C1186.71 346.64 1186.88 346.792 1187.02 346.978Z" fill="#FFEB00"/>
<path d="M1187.02 371.023C1186.89 371.209 1186.71 371.362 1186.5 371.47C1186.3 371.577 1186.07 371.638 1185.84 371.645C1185.61 371.653 1185.38 371.608 1185.17 371.515C1184.96 371.421 1184.77 371.28 1184.62 371.104L1162.91 349.379C1162.73 349.231 1162.59 349.044 1162.49 348.833C1162.4 348.622 1162.35 348.392 1162.36 348.161C1162.37 347.93 1162.43 347.703 1162.53 347.499C1162.64 347.294 1162.79 347.115 1162.98 346.978C1163.12 346.792 1163.29 346.64 1163.5 346.533C1163.7 346.426 1163.93 346.367 1164.16 346.36C1164.39 346.353 1164.62 346.399 1164.83 346.494C1165.04 346.588 1165.23 346.729 1165.38 346.907L1187.1 368.621C1187.28 368.77 1187.42 368.958 1187.51 369.169C1187.61 369.38 1187.65 369.61 1187.65 369.841C1187.64 370.073 1187.58 370.299 1187.47 370.504C1187.36 370.708 1187.21 370.886 1187.02 371.023Z" fill="#FFEB00"/>
<path d="M1180.12 344.272C1180.12 347.727 1177.83 356.604 1175.01 356.604C1172.18 356.604 1169.88 347.727 1169.88 344.272C1169.88 340.817 1172.18 338 1175.01 338C1177.83 338 1180.12 340.807 1180.12 344.272Z" fill="#FFEB00"/>
<path d="M1169.88 373.738C1169.88 370.273 1172.18 361.396 1175.01 361.396C1177.83 361.396 1180.12 370.273 1180.12 373.738C1180.12 377.203 1177.83 380 1175.01 380C1172.18 380 1169.88 377.193 1169.88 373.738Z" fill="#FFEB00"/>
<path d="M1189.74 364.122C1186.27 364.122 1177.4 361.832 1177.4 359.005C1177.4 356.178 1186.27 353.878 1189.74 353.878C1193.2 353.878 1196 356.178 1196 359.005C1196 361.832 1193.19 364.122 1189.74 364.122Z" fill="#FFEB00"/>
<path d="M1160.27 353.878C1163.73 353.878 1172.6 356.178 1172.6 359.005C1172.6 361.832 1163.73 364.122 1160.27 364.122C1156.82 364.122 1154 361.832 1154 359.005C1154 356.178 1156.81 353.878 1160.27 353.878Z" fill="#FFEB00"/>
</g>
<g clip-path="url(#clip4_32_417)">
<path d="M424.725 401.275C424.814 401.34 424.886 401.425 424.938 401.522C424.989 401.62 425.018 401.727 425.022 401.838C425.025 401.948 425.004 402.057 424.959 402.158C424.915 402.258 424.848 402.348 424.764 402.419L414.419 412.764C414.347 412.848 414.258 412.915 414.158 412.959C414.057 413.004 413.948 413.025 413.837 413.022C413.727 413.018 413.62 412.989 413.522 412.938C413.425 412.887 413.34 412.814 413.275 412.725C413.187 412.659 413.114 412.575 413.063 412.477C413.012 412.379 412.984 412.272 412.981 412.161C412.978 412.051 412.999 411.942 413.044 411.842C413.09 411.741 413.157 411.652 413.241 411.582L423.581 401.241C423.652 401.157 423.741 401.09 423.842 401.045C423.942 401 424.051 400.978 424.161 400.981C424.271 400.984 424.379 401.012 424.477 401.063C424.575 401.114 424.659 401.187 424.725 401.275Z" fill="#007EC6"/>
<path d="M424.725 412.725C424.66 412.814 424.575 412.887 424.478 412.938C424.38 412.989 424.273 413.018 424.163 413.022C424.052 413.025 423.943 413.004 423.842 412.959C423.742 412.915 423.652 412.848 423.581 412.764L413.241 402.419C413.157 402.348 413.09 402.259 413.044 402.159C412.999 402.058 412.978 401.949 412.981 401.839C412.984 401.729 413.012 401.621 413.063 401.523C413.114 401.426 413.187 401.341 413.275 401.275C413.341 401.187 413.425 401.114 413.523 401.063C413.621 401.012 413.729 400.984 413.839 400.981C413.949 400.978 414.058 401 414.158 401.045C414.259 401.09 414.348 401.157 414.419 401.241L424.764 411.582C424.848 411.653 424.915 411.742 424.959 411.842C425.004 411.943 425.025 412.053 425.022 412.163C425.018 412.273 424.989 412.381 424.938 412.478C424.886 412.575 424.814 412.66 424.725 412.725Z" fill="#007EC6"/>
<path d="M421.439 399.987C421.439 401.632 420.349 405.859 419.002 405.859C417.656 405.859 416.561 401.632 416.561 399.987C416.561 398.341 417.656 397 419.002 397C420.349 397 421.439 398.337 421.439 399.987Z" fill="#007EC6"/>
<path d="M416.561 414.018C416.561 412.368 417.656 408.141 419.002 408.141C420.349 408.141 421.439 412.368 421.439 414.018C421.439 415.668 420.349 417 419.002 417C417.656 417 416.561 415.663 416.561 414.018Z" fill="#007EC6"/>
<path d="M426.018 409.439C424.368 409.439 420.141 408.349 420.141 407.003C420.141 405.656 424.368 404.561 426.018 404.561C427.668 404.561 429 405.656 429 407.003C429 408.349 427.663 409.439 426.018 409.439Z" fill="#007EC6"/>
<path d="M411.987 404.561C413.632 404.561 417.859 405.656 417.859 407.003C417.859 408.349 413.632 409.439 411.987 409.439C410.341 409.439 409 408.349 409 407.003C409 405.656 410.337 404.561 411.987 404.561Z" fill="#007EC6"/>
</g>
<g clip-path="url(#clip5_32_417)">
<path d="M1161.58 592.42C1161.65 592.472 1161.71 592.54 1161.75 592.618C1161.79 592.696 1161.81 592.782 1161.82 592.87C1161.82 592.958 1161.8 593.046 1161.77 593.126C1161.73 593.207 1161.68 593.278 1161.61 593.335L1153.33 601.611C1153.28 601.678 1153.21 601.732 1153.13 601.768C1153.05 601.803 1152.96 601.82 1152.87 601.817C1152.78 601.814 1152.7 601.791 1152.62 601.75C1152.54 601.709 1152.47 601.651 1152.42 601.58C1152.35 601.528 1152.29 601.46 1152.25 601.382C1152.21 601.304 1152.19 601.217 1152.18 601.129C1152.18 601.041 1152.2 600.954 1152.24 600.873C1152.27 600.793 1152.33 600.722 1152.39 600.665L1160.67 592.393C1160.72 592.326 1160.79 592.272 1160.87 592.236C1160.95 592.2 1161.04 592.182 1161.13 592.185C1161.22 592.187 1161.3 592.21 1161.38 592.251C1161.46 592.291 1161.53 592.349 1161.58 592.42Z" fill="#6B61C4"/>
<path d="M1161.58 601.58C1161.53 601.651 1161.46 601.709 1161.38 601.75C1161.3 601.791 1161.22 601.814 1161.13 601.817C1161.04 601.82 1160.95 601.803 1160.87 601.768C1160.79 601.732 1160.72 601.678 1160.67 601.611L1152.39 593.335C1152.33 593.278 1152.27 593.207 1152.24 593.127C1152.2 593.047 1152.18 592.959 1152.18 592.871C1152.19 592.783 1152.21 592.697 1152.25 592.619C1152.29 592.54 1152.35 592.473 1152.42 592.42C1152.47 592.349 1152.54 592.291 1152.62 592.251C1152.7 592.21 1152.78 592.187 1152.87 592.185C1152.96 592.182 1153.05 592.2 1153.13 592.236C1153.21 592.272 1153.28 592.326 1153.33 592.393L1161.61 600.665C1161.68 600.722 1161.73 600.793 1161.77 600.874C1161.8 600.954 1161.82 601.042 1161.82 601.13C1161.81 601.218 1161.79 601.304 1161.75 601.382C1161.71 601.46 1161.65 601.528 1161.58 601.58Z" fill="#6B61C4"/>
<path d="M1158.95 591.389C1158.95 592.706 1158.08 596.087 1157 596.087C1155.92 596.087 1155.05 592.706 1155.05 591.389C1155.05 590.073 1155.92 589 1157 589C1158.08 589 1158.95 590.069 1158.95 591.389Z" fill="#6B61C4"/>
<path d="M1155.05 602.614C1155.05 601.294 1155.92 597.913 1157 597.913C1158.08 597.913 1158.95 601.294 1158.95 602.614C1158.95 603.935 1158.08 605 1157 605C1155.92 605 1155.05 603.931 1155.05 602.614Z" fill="#6B61C4"/>
<path d="M1162.61 598.951C1161.29 598.951 1157.91 598.079 1157.91 597.002C1157.91 595.925 1161.29 595.049 1162.61 595.049C1163.93 595.049 1165 595.925 1165 597.002C1165 598.079 1163.93 598.951 1162.61 598.951Z" fill="#6B61C4"/>
<path d="M1151.39 595.049C1152.71 595.049 1156.09 595.925 1156.09 597.002C1156.09 598.079 1152.71 598.951 1151.39 598.951C1150.07 598.951 1149 598.079 1149 597.002C1149 595.925 1150.07 595.049 1151.39 595.049Z" fill="#6B61C4"/>
</g>
<g clip-path="url(#clip6_32_417)">
<path d="M449.939 343.061C450.023 343.123 450.092 343.203 450.141 343.296C450.19 343.389 450.217 343.491 450.22 343.595C450.224 343.7 450.204 343.804 450.161 343.9C450.119 343.995 450.055 344.08 449.975 344.148L440.148 353.975C440.08 354.055 439.995 354.119 439.9 354.161C439.804 354.204 439.7 354.224 439.596 354.22C439.491 354.217 439.389 354.19 439.296 354.141C439.204 354.092 439.123 354.023 439.061 353.939C438.977 353.876 438.909 353.796 438.86 353.703C438.812 353.61 438.785 353.508 438.782 353.403C438.779 353.299 438.799 353.195 438.842 353.099C438.885 353.004 438.949 352.919 439.029 352.852L448.852 343.029C448.92 342.949 449.004 342.885 449.099 342.842C449.195 342.799 449.299 342.779 449.403 342.782C449.508 342.785 449.61 342.812 449.703 342.86C449.796 342.908 449.876 342.977 449.939 343.061Z" fill="#F753C3"/>
<path d="M449.939 353.939C449.877 354.023 449.796 354.092 449.704 354.141C449.611 354.19 449.509 354.217 449.404 354.22C449.3 354.224 449.196 354.204 449.1 354.161C449.005 354.119 448.92 354.055 448.852 353.975L439.029 344.148C438.949 344.08 438.885 343.996 438.842 343.9C438.799 343.805 438.779 343.701 438.782 343.597C438.785 343.492 438.812 343.39 438.86 343.297C438.909 343.204 438.977 343.124 439.061 343.061C439.124 342.977 439.204 342.908 439.297 342.86C439.39 342.812 439.492 342.785 439.597 342.782C439.701 342.779 439.805 342.799 439.901 342.842C439.996 342.885 440.08 342.949 440.148 343.029L449.975 352.852C450.055 352.92 450.119 353.005 450.161 353.1C450.204 353.196 450.224 353.3 450.22 353.404C450.217 353.509 450.19 353.611 450.141 353.704C450.092 353.796 450.023 353.877 449.939 353.939Z" fill="#F753C3"/>
<path d="M446.817 341.837C446.817 343.4 445.781 347.416 444.502 347.416C443.223 347.416 442.183 343.4 442.183 341.837C442.183 340.274 443.223 339 444.502 339C445.781 339 446.817 340.27 446.817 341.837Z" fill="#F753C3"/>
<path d="M442.183 355.167C442.183 353.599 443.223 349.584 444.502 349.584C445.781 349.584 446.817 353.599 446.817 355.167C446.817 356.735 445.781 358 444.502 358C443.223 358 442.183 356.73 442.183 355.167Z" fill="#F753C3"/>
<path d="M451.167 350.817C449.6 350.817 445.584 349.781 445.584 348.502C445.584 347.223 449.6 346.183 451.167 346.183C452.735 346.183 454 347.223 454 348.502C454 349.781 452.73 350.817 451.167 350.817Z" fill="#F753C3"/>
<path d="M437.837 346.183C439.4 346.183 443.416 347.223 443.416 348.502C443.416 349.781 439.4 350.817 437.837 350.817C436.274 350.817 435 349.781 435 348.502C435 347.223 436.27 346.183 437.837 346.183Z" fill="#F753C3"/>
</g>
<g clip-path="url(#clip7_32_417)">
<path d="M285.022 330.978C285.209 331.115 285.362 331.292 285.469 331.497C285.577 331.701 285.637 331.928 285.645 332.159C285.653 332.39 285.608 332.62 285.515 332.831C285.421 333.042 285.28 333.23 285.103 333.379L263.379 355.104C263.23 355.28 263.042 355.421 262.831 355.515C262.62 355.608 262.39 355.653 262.159 355.645C261.927 355.638 261.701 355.577 261.497 355.47C261.292 355.362 261.115 355.209 260.978 355.023C260.792 354.885 260.64 354.707 260.533 354.502C260.426 354.297 260.367 354.07 260.36 353.839C260.353 353.608 260.399 353.378 260.493 353.167C260.588 352.956 260.729 352.77 260.907 352.621L282.621 330.907C282.769 330.729 282.956 330.588 283.167 330.494C283.378 330.399 283.608 330.353 283.839 330.36C284.07 330.367 284.297 330.426 284.502 330.533C284.707 330.64 284.885 330.792 285.022 330.978Z" fill="#6B61C4"/>
<path d="M285.022 355.023C284.885 355.209 284.708 355.362 284.503 355.47C284.299 355.577 284.072 355.638 283.841 355.645C283.61 355.653 283.38 355.608 283.169 355.515C282.958 355.421 282.77 355.28 282.621 355.104L260.907 333.379C260.729 333.231 260.588 333.044 260.493 332.833C260.399 332.622 260.353 332.392 260.36 332.161C260.367 331.93 260.426 331.703 260.533 331.499C260.64 331.294 260.792 331.115 260.978 330.978C261.115 330.792 261.293 330.64 261.498 330.533C261.703 330.426 261.93 330.367 262.161 330.36C262.392 330.353 262.622 330.399 262.833 330.494C263.044 330.588 263.231 330.729 263.379 330.907L285.103 352.621C285.28 352.77 285.421 352.958 285.515 353.169C285.608 353.38 285.653 353.61 285.645 353.841C285.637 354.073 285.577 354.299 285.469 354.504C285.362 354.708 285.209 354.886 285.022 355.023Z" fill="#6B61C4"/>
<path d="M278.122 328.272C278.122 331.727 275.832 340.604 273.005 340.604C270.178 340.604 267.878 331.727 267.878 328.272C267.878 324.817 270.178 322 273.005 322C275.832 322 278.122 324.807 278.122 328.272Z" fill="#6B61C4"/>
<path d="M267.878 357.738C267.878 354.273 270.178 345.396 273.005 345.396C275.832 345.396 278.122 354.273 278.122 357.738C278.122 361.203 275.832 364 273.005 364C270.178 364 267.878 361.193 267.878 357.738Z" fill="#6B61C4"/>
<path d="M287.738 348.122C284.273 348.122 275.396 345.832 275.396 343.005C275.396 340.178 284.273 337.878 287.738 337.878C291.203 337.878 294 340.178 294 343.005C294 345.832 291.193 348.122 287.738 348.122Z" fill="#6B61C4"/>
<path d="M258.272 337.878C261.727 337.878 270.604 340.178 270.604 343.005C270.604 345.832 261.727 348.122 258.272 348.122C254.817 348.122 252 345.832 252 343.005C252 340.178 254.807 337.878 258.272 337.878Z" fill="#6B61C4"/>
</g>
<g clip-path="url(#clip8_32_417)">
<path d="M1186.51 669.489C1186.6 669.557 1186.68 669.646 1186.73 669.748C1186.79 669.851 1186.82 669.964 1186.82 670.079C1186.83 670.195 1186.8 670.31 1186.76 670.416C1186.71 670.521 1186.64 670.615 1186.55 670.69L1175.69 681.552C1175.61 681.64 1175.52 681.71 1175.42 681.757C1175.31 681.804 1175.19 681.827 1175.08 681.823C1174.96 681.819 1174.85 681.789 1174.75 681.735C1174.65 681.681 1174.56 681.604 1174.49 681.511C1174.4 681.442 1174.32 681.353 1174.27 681.251C1174.21 681.148 1174.18 681.035 1174.18 680.919C1174.18 680.804 1174.2 680.689 1174.25 680.584C1174.29 680.478 1174.36 680.385 1174.45 680.311L1185.31 669.453C1185.38 669.365 1185.48 669.294 1185.58 669.247C1185.69 669.199 1185.8 669.177 1185.92 669.18C1186.03 669.183 1186.15 669.213 1186.25 669.266C1186.35 669.32 1186.44 669.396 1186.51 669.489Z" fill="#6B61C4"/>
<path d="M1186.51 681.511C1186.44 681.604 1186.35 681.681 1186.25 681.735C1186.15 681.789 1186.04 681.819 1185.92 681.823C1185.81 681.827 1185.69 681.804 1185.58 681.757C1185.48 681.71 1185.39 681.64 1185.31 681.552L1174.45 670.69C1174.36 670.615 1174.29 670.522 1174.25 670.416C1174.2 670.311 1174.18 670.196 1174.18 670.081C1174.18 669.965 1174.21 669.852 1174.27 669.749C1174.32 669.647 1174.4 669.558 1174.49 669.489C1174.56 669.396 1174.65 669.32 1174.75 669.266C1174.85 669.213 1174.96 669.183 1175.08 669.18C1175.2 669.177 1175.31 669.199 1175.42 669.247C1175.52 669.294 1175.62 669.365 1175.69 669.453L1186.55 680.311C1186.64 680.385 1186.71 680.479 1186.76 680.585C1186.8 680.69 1186.83 680.805 1186.82 680.921C1186.82 681.036 1186.79 681.149 1186.73 681.252C1186.68 681.354 1186.6 681.443 1186.51 681.511Z" fill="#6B61C4"/>
<path d="M1183.06 668.136C1183.06 669.864 1181.92 674.302 1180.5 674.302C1179.09 674.302 1177.94 669.864 1177.94 668.136C1177.94 666.408 1179.09 665 1180.5 665C1181.92 665 1183.06 666.403 1183.06 668.136Z" fill="#6B61C4"/>
<path d="M1177.94 682.869C1177.94 681.136 1179.09 676.698 1180.5 676.698C1181.92 676.698 1183.06 681.136 1183.06 682.869C1183.06 684.602 1181.92 686 1180.5 686C1179.09 686 1177.94 684.597 1177.94 682.869Z" fill="#6B61C4"/>
<path d="M1187.87 678.061C1186.14 678.061 1181.7 676.916 1181.7 675.503C1181.7 674.089 1186.14 672.939 1187.87 672.939C1189.6 672.939 1191 674.089 1191 675.503C1191 676.916 1189.6 678.061 1187.87 678.061Z" fill="#6B61C4"/>
<path d="M1173.14 672.939C1174.86 672.939 1179.3 674.089 1179.3 675.503C1179.3 676.916 1174.86 678.061 1173.14 678.061C1171.41 678.061 1170 676.916 1170 675.503C1170 674.089 1171.4 672.939 1173.14 672.939Z" fill="#6B61C4"/>
</g>
<g clip-path="url(#clip9_32_417)">
<path d="M413.244 594.756C413.488 594.936 413.688 595.168 413.829 595.436C413.97 595.704 414.049 596 414.059 596.303C414.069 596.606 414.011 596.907 413.888 597.184C413.765 597.46 413.581 597.706 413.35 597.901L384.901 626.35C384.706 626.581 384.46 626.765 384.183 626.888C383.907 627.011 383.606 627.07 383.303 627.059C383 627.049 382.704 626.97 382.436 626.829C382.168 626.688 381.936 626.488 381.756 626.244C381.513 626.063 381.314 625.83 381.174 625.562C381.034 625.293 380.956 624.997 380.948 624.694C380.939 624.391 380.998 624.09 381.122 623.814C381.246 623.538 381.431 623.293 381.663 623.099L410.099 594.664C410.293 594.431 410.538 594.246 410.814 594.122C411.09 593.998 411.391 593.939 411.694 593.948C411.996 593.957 412.293 594.034 412.562 594.174C412.83 594.314 413.063 594.513 413.244 594.756Z" fill="#D50400"/>
<path d="M413.244 626.244C413.064 626.488 412.832 626.688 412.564 626.829C412.296 626.97 412 627.049 411.697 627.059C411.394 627.07 411.093 627.011 410.817 626.888C410.54 626.765 410.294 626.581 410.099 626.35L381.663 597.901C381.431 597.707 381.246 597.462 381.122 597.186C380.998 596.91 380.939 596.609 380.948 596.306C380.956 596.004 381.034 595.707 381.174 595.438C381.314 595.17 381.513 594.937 381.756 594.756C381.937 594.513 382.17 594.314 382.438 594.174C382.707 594.034 383.004 593.957 383.306 593.948C383.609 593.939 383.91 593.998 384.186 594.122C384.462 594.246 384.707 594.431 384.901 594.664L413.35 623.099C413.581 623.294 413.765 623.54 413.888 623.817C414.011 624.093 414.069 624.394 414.059 624.697C414.049 625 413.97 625.296 413.829 625.564C413.688 625.832 413.488 626.064 413.244 626.244Z" fill="#D50400"/>
<path d="M404.207 591.214C404.207 595.738 401.209 607.362 397.507 607.362C393.805 607.362 390.793 595.738 390.793 591.214C390.793 586.689 393.805 583 397.507 583C401.209 583 404.207 586.676 404.207 591.214Z" fill="#D50400"/>
<path d="M390.793 629.8C390.793 625.262 393.805 613.638 397.507 613.638C401.209 613.638 404.207 625.262 404.207 629.8C404.207 634.338 401.209 638 397.507 638C393.805 638 390.793 634.325 390.793 629.8Z" fill="#D50400"/>
<path d="M416.8 617.207C412.262 617.207 400.638 614.209 400.638 610.507C400.638 606.805 412.262 603.792 416.8 603.792C421.338 603.792 425 606.805 425 610.507C425 614.209 421.324 617.207 416.8 617.207Z" fill="#D50400"/>
<path d="M378.214 603.792C382.738 603.792 394.362 606.805 394.362 610.507C394.362 614.209 382.738 617.207 378.214 617.207C373.689 617.207 370 614.209 370 610.507C370 606.805 373.676 603.792 378.214 603.792Z" fill="#D50400"/>
</g>
<g clip-path="url(#clip10_32_417)">
<path d="M1104.01 596.985C1104.14 597.076 1104.24 597.195 1104.31 597.331C1104.38 597.467 1104.42 597.618 1104.43 597.772C1104.44 597.926 1104.41 598.08 1104.34 598.221C1104.28 598.362 1104.19 598.486 1104.07 598.586L1089.59 613.069C1089.49 613.187 1089.36 613.28 1089.22 613.343C1089.08 613.405 1088.93 613.435 1088.77 613.43C1088.62 613.425 1088.47 613.385 1088.33 613.313C1088.19 613.241 1088.08 613.139 1087.99 613.015C1087.86 612.923 1087.76 612.804 1087.69 612.668C1087.62 612.531 1087.58 612.38 1087.57 612.226C1087.57 612.072 1087.6 611.919 1087.66 611.778C1087.73 611.637 1087.82 611.513 1087.94 611.414L1102.41 596.938C1102.51 596.82 1102.64 596.725 1102.78 596.662C1102.92 596.599 1103.07 596.569 1103.23 596.573C1103.38 596.578 1103.53 596.617 1103.67 596.688C1103.8 596.76 1103.92 596.861 1104.01 596.985Z" fill="#FF7D00"/>
<path d="M1104.01 613.015C1103.92 613.139 1103.81 613.241 1103.67 613.313C1103.53 613.385 1103.38 613.425 1103.23 613.43C1103.07 613.435 1102.92 613.405 1102.78 613.343C1102.64 613.28 1102.51 613.187 1102.41 613.069L1087.94 598.586C1087.82 598.487 1087.73 598.362 1087.66 598.222C1087.6 598.081 1087.57 597.928 1087.57 597.774C1087.58 597.62 1087.62 597.469 1087.69 597.332C1087.76 597.196 1087.86 597.077 1087.99 596.985C1088.08 596.861 1088.2 596.76 1088.33 596.688C1088.47 596.617 1088.62 596.578 1088.77 596.573C1088.93 596.569 1089.08 596.599 1089.22 596.662C1089.36 596.725 1089.49 596.82 1089.59 596.938L1104.07 611.414C1104.19 611.513 1104.28 611.638 1104.34 611.779C1104.41 611.92 1104.44 612.073 1104.43 612.227C1104.42 612.382 1104.38 612.532 1104.31 612.669C1104.24 612.805 1104.14 612.924 1104.01 613.015Z" fill="#FF7D00"/>
<path d="M1099.41 595.181C1099.41 597.485 1097.89 603.402 1096 603.402C1094.12 603.402 1092.59 597.485 1092.59 595.181C1092.59 592.878 1094.12 591 1096 591C1097.89 591 1099.41 592.871 1099.41 595.181Z" fill="#FF7D00"/>
<path d="M1092.59 614.825C1092.59 612.515 1094.12 606.598 1096 606.598C1097.89 606.598 1099.41 612.515 1099.41 614.825C1099.41 617.136 1097.89 619 1096 619C1094.12 619 1092.59 617.129 1092.59 614.825Z" fill="#FF7D00"/>
<path d="M1105.83 608.415C1103.52 608.415 1097.6 606.888 1097.6 605.003C1097.6 603.119 1103.52 601.585 1105.83 601.585C1108.14 601.585 1110 603.119 1110 605.003C1110 606.888 1108.13 608.415 1105.83 608.415Z" fill="#FF7D00"/>
<path d="M1086.18 601.585C1088.48 601.585 1094.4 603.119 1094.4 605.003C1094.4 606.888 1088.48 608.415 1086.18 608.415C1083.88 608.415 1082 606.888 1082 605.003C1082 603.119 1083.87 601.585 1086.18 601.585Z" fill="#FF7D00"/>
</g>
<g clip-path="url(#clip11_32_417)">
<path d="M1071.3 410.695C1071.46 410.812 1071.6 410.965 1071.69 411.14C1071.78 411.315 1071.83 411.509 1071.84 411.707C1071.85 411.905 1071.81 412.103 1071.73 412.284C1071.65 412.465 1071.53 412.625 1071.37 412.753L1052.75 431.374C1052.63 431.526 1052.46 431.646 1052.28 431.727C1052.1 431.807 1051.91 431.845 1051.71 431.839C1051.51 431.832 1051.32 431.781 1051.14 431.688C1050.96 431.596 1050.81 431.465 1050.7 431.305C1050.54 431.187 1050.41 431.034 1050.31 430.858C1050.22 430.683 1050.17 430.489 1050.17 430.29C1050.16 430.092 1050.2 429.895 1050.28 429.715C1050.36 429.534 1050.48 429.374 1050.63 429.246L1069.25 410.634C1069.37 410.482 1069.53 410.361 1069.71 410.28C1069.9 410.199 1070.09 410.16 1070.29 410.166C1070.49 410.171 1070.68 410.222 1070.86 410.314C1071.03 410.406 1071.19 410.536 1071.3 410.695Z" fill="#6B61C4"/>
<path d="M1071.3 431.305C1071.19 431.465 1071.04 431.596 1070.86 431.688C1070.68 431.781 1070.49 431.832 1070.29 431.839C1070.09 431.845 1069.9 431.807 1069.72 431.727C1069.54 431.646 1069.37 431.526 1069.25 431.374L1050.63 412.753C1050.48 412.626 1050.36 412.466 1050.28 412.285C1050.2 412.104 1050.16 411.908 1050.17 411.709C1050.17 411.511 1050.22 411.317 1050.31 411.141C1050.41 410.966 1050.54 410.813 1050.7 410.695C1050.81 410.536 1050.97 410.406 1051.14 410.314C1051.32 410.222 1051.51 410.171 1051.71 410.166C1051.91 410.16 1052.1 410.199 1052.29 410.28C1052.47 410.361 1052.63 410.482 1052.75 410.634L1071.37 429.246C1071.53 429.374 1071.65 429.535 1071.73 429.716C1071.81 429.897 1071.85 430.094 1071.84 430.293C1071.83 430.491 1071.78 430.685 1071.69 430.86C1071.6 431.035 1071.46 431.187 1071.3 431.305Z" fill="#6B61C4"/>
<path d="M1065.39 408.376C1065.39 411.338 1063.43 418.946 1061 418.946C1058.58 418.946 1056.61 411.338 1056.61 408.376C1056.61 405.414 1058.58 403 1061 403C1063.43 403 1065.39 405.406 1065.39 408.376Z" fill="#6B61C4"/>
<path d="M1056.61 433.632C1056.61 430.662 1058.58 423.054 1061 423.054C1063.43 423.054 1065.39 430.662 1065.39 433.632C1065.39 436.603 1063.43 439 1061 439C1058.58 439 1056.61 436.594 1056.61 433.632Z" fill="#6B61C4"/>
<path d="M1073.63 425.39C1070.66 425.39 1063.05 423.427 1063.05 421.004C1063.05 418.581 1070.66 416.61 1073.63 416.61C1076.6 416.61 1079 418.581 1079 421.004C1079 423.427 1076.59 425.39 1073.63 425.39Z" fill="#6B61C4"/>
<path d="M1048.38 416.61C1051.34 416.61 1058.95 418.581 1058.95 421.004C1058.95 423.427 1051.34 425.39 1048.38 425.39C1045.41 425.39 1043 423.427 1043 421.004C1043 418.581 1045.41 416.61 1048.38 416.61Z" fill="#6B61C4"/>
</g>
<g clip-path="url(#clip12_32_417)">
<path d="M602.656 109.344C602.767 109.425 602.858 109.531 602.922 109.653C602.987 109.775 603.022 109.909 603.027 110.047C603.032 110.184 603.005 110.321 602.949 110.447C602.893 110.573 602.81 110.684 602.704 110.773L589.773 123.705C589.684 123.81 589.573 123.893 589.447 123.949C589.321 124.005 589.184 124.032 589.047 124.027C588.909 124.022 588.774 123.987 588.653 123.922C588.531 123.858 588.425 123.767 588.344 123.656C588.233 123.574 588.143 123.468 588.079 123.346C588.015 123.224 587.98 123.089 587.976 122.952C587.972 122.814 587.999 122.678 588.056 122.552C588.112 122.426 588.196 122.315 588.302 122.227L601.227 109.302C601.315 109.196 601.426 109.112 601.552 109.056C601.677 108.999 601.814 108.972 601.952 108.976C602.089 108.98 602.224 109.015 602.346 109.079C602.468 109.143 602.574 109.233 602.656 109.344Z" fill="#FF50C8"/>
<path d="M602.656 123.656C602.575 123.767 602.469 123.858 602.347 123.922C602.226 123.987 602.091 124.022 601.953 124.027C601.816 124.032 601.679 124.005 601.553 123.949C601.427 123.893 601.316 123.81 601.227 123.705L588.302 110.773C588.196 110.685 588.112 110.574 588.056 110.448C587.999 110.323 587.972 110.186 587.976 110.048C587.98 109.911 588.015 109.776 588.079 109.654C588.143 109.532 588.233 109.426 588.344 109.344C588.426 109.233 588.532 109.143 588.654 109.079C588.776 109.015 588.911 108.98 589.048 108.976C589.186 108.972 589.323 108.999 589.448 109.056C589.574 109.112 589.685 109.196 589.773 109.302L602.704 122.227C602.81 122.316 602.893 122.427 602.949 122.553C603.005 122.679 603.032 122.816 603.027 122.953C603.022 123.091 602.987 123.226 602.922 123.347C602.858 123.469 602.767 123.575 602.656 123.656Z" fill="#FF50C8"/>
<path d="M598.549 107.733C598.549 109.79 597.186 115.074 595.503 115.074C593.82 115.074 592.451 109.79 592.451 107.733C592.451 105.677 593.82 104 595.503 104C597.186 104 598.549 105.671 598.549 107.733Z" fill="#FF50C8"/>
<path d="M592.451 125.273C592.451 123.21 593.82 117.927 595.503 117.927C597.186 117.927 598.549 123.21 598.549 125.273C598.549 127.335 597.186 129 595.503 129C593.82 129 592.451 127.329 592.451 125.273Z" fill="#FF50C8"/>
<path d="M604.273 119.549C602.21 119.549 596.926 118.186 596.926 116.503C596.926 114.82 602.21 113.451 604.273 113.451C606.335 113.451 608 114.82 608 116.503C608 118.186 606.329 119.549 604.273 119.549Z" fill="#FF50C8"/>
<path d="M586.733 113.451C588.79 113.451 594.074 114.82 594.074 116.503C594.074 118.186 588.79 119.549 586.733 119.549C584.677 119.549 583 118.186 583 116.503C583 114.82 584.671 113.451 586.733 113.451Z" fill="#FF50C8"/>
</g>
<g clip-path="url(#clip13_32_417)">
<path d="M1077.81 140.186C1078 140.328 1078.16 140.51 1078.27 140.72C1078.38 140.931 1078.44 141.163 1078.45 141.4C1078.45 141.637 1078.41 141.872 1078.31 142.088C1078.21 142.304 1078.07 142.495 1077.88 142.647L1055.65 164.884C1055.5 165.065 1055.3 165.208 1055.09 165.305C1054.87 165.401 1054.64 165.448 1054.4 165.441C1054.17 165.434 1053.94 165.374 1053.73 165.266C1053.52 165.157 1053.34 165.003 1053.19 164.814C1053 164.673 1052.85 164.491 1052.74 164.281C1052.63 164.071 1052.57 163.839 1052.56 163.602C1052.55 163.365 1052.6 163.13 1052.69 162.913C1052.79 162.697 1052.93 162.505 1053.12 162.353L1075.35 140.116C1075.5 139.934 1075.7 139.789 1075.91 139.692C1076.13 139.594 1076.36 139.547 1076.6 139.554C1076.84 139.561 1077.07 139.621 1077.28 139.731C1077.49 139.84 1077.67 139.996 1077.81 140.186V140.186Z" fill="#FF50C8"/>
<path d="M1077.81 164.814C1077.67 165.004 1077.49 165.16 1077.28 165.269C1077.07 165.379 1076.84 165.439 1076.6 165.446C1076.36 165.453 1076.13 165.406 1075.91 165.308C1075.7 165.211 1075.5 165.066 1075.35 164.884L1053.12 142.647C1052.93 142.495 1052.79 142.303 1052.69 142.087C1052.6 141.87 1052.55 141.635 1052.56 141.398C1052.57 141.161 1052.63 140.929 1052.74 140.719C1052.85 140.509 1053 140.327 1053.19 140.186C1053.34 139.997 1053.52 139.843 1053.73 139.734C1053.94 139.626 1054.17 139.566 1054.4 139.559C1054.64 139.552 1054.87 139.599 1055.09 139.695C1055.3 139.792 1055.5 139.935 1055.65 140.116L1077.88 162.352C1078.07 162.504 1078.21 162.696 1078.31 162.912C1078.41 163.128 1078.45 163.363 1078.45 163.6C1078.44 163.837 1078.38 164.069 1078.27 164.279C1078.16 164.49 1078 164.672 1077.81 164.814V164.814Z" fill="#FF50C8"/>
<path d="M1070.74 137.419C1070.74 140.962 1068.39 150.047 1065.5 150.047C1062.61 150.047 1060.26 140.962 1060.26 137.419C1060.26 133.877 1062.61 131 1065.5 131C1068.39 131 1070.74 133.877 1070.74 137.419Z" fill="#FF50C8"/>
<path d="M1060.26 167.581C1060.26 164.038 1062.61 154.953 1065.5 154.953C1068.39 154.953 1070.74 164.038 1070.74 167.581C1070.74 171.123 1068.39 174 1065.5 174C1062.61 174 1060.26 171.123 1060.26 167.581Z" fill="#FF50C8"/>
<path d="M1080.58 157.744C1077.04 157.744 1067.95 155.392 1067.95 152.5C1067.95 149.608 1077.04 147.256 1080.58 147.256C1084.12 147.256 1087 149.608 1087 152.5C1087 155.392 1084.12 157.744 1080.58 157.744Z" fill="#FF50C8"/>
<path d="M1050.42 147.256C1053.96 147.256 1063.05 149.608 1063.05 152.5C1063.05 155.392 1053.96 157.744 1050.42 157.744C1046.88 157.744 1044 155.392 1044 152.5C1044 149.608 1046.88 147.256 1050.42 147.256Z" fill="#FF50C8"/>
</g>
<g clip-path="url(#clip14_32_417)">
<path d="M1120.51 634.486C1120.61 634.555 1120.68 634.644 1120.74 634.747C1120.79 634.85 1120.82 634.963 1120.82 635.079C1120.83 635.195 1120.8 635.31 1120.76 635.415C1120.71 635.521 1120.64 635.614 1120.55 635.688L1109.69 646.548C1109.61 646.636 1109.52 646.706 1109.42 646.753C1109.31 646.801 1109.2 646.823 1109.08 646.82C1108.97 646.817 1108.85 646.787 1108.75 646.734C1108.65 646.681 1108.56 646.606 1108.49 646.514C1108.4 646.445 1108.32 646.356 1108.27 646.253C1108.21 646.151 1108.18 646.038 1108.18 645.922C1108.18 645.806 1108.2 645.691 1108.25 645.586C1108.29 645.48 1108.36 645.386 1108.45 645.312L1119.31 634.452C1119.39 634.363 1119.48 634.292 1119.58 634.245C1119.69 634.197 1119.81 634.174 1119.92 634.178C1120.04 634.181 1120.15 634.21 1120.25 634.264C1120.36 634.317 1120.44 634.393 1120.51 634.486V634.486Z" fill="#FCEA00"/>
<path d="M1120.51 646.514C1120.44 646.607 1120.36 646.683 1120.25 646.736C1120.15 646.79 1120.04 646.819 1119.92 646.822C1119.81 646.826 1119.69 646.803 1119.58 646.755C1119.48 646.708 1119.39 646.637 1119.31 646.548L1108.45 635.688C1108.36 635.614 1108.29 635.52 1108.25 635.414C1108.2 635.309 1108.18 635.194 1108.18 635.078C1108.18 634.962 1108.21 634.849 1108.27 634.746C1108.32 634.644 1108.4 634.555 1108.49 634.486C1108.56 634.394 1108.65 634.319 1108.75 634.266C1108.85 634.213 1108.97 634.183 1109.08 634.18C1109.2 634.177 1109.31 634.199 1109.42 634.246C1109.52 634.294 1109.61 634.364 1109.69 634.452L1120.55 645.312C1120.64 645.386 1120.71 645.479 1120.76 645.585C1120.8 645.69 1120.83 645.805 1120.82 645.921C1120.82 646.037 1120.79 646.15 1120.74 646.253C1120.68 646.355 1120.61 646.445 1120.51 646.514V646.514Z" fill="#FCEA00"/>
<path d="M1117.06 633.135C1117.06 634.865 1115.91 639.302 1114.5 639.302C1113.09 639.302 1111.94 634.865 1111.94 633.135C1111.94 631.405 1113.09 630 1114.5 630C1115.91 630 1117.06 631.405 1117.06 633.135Z" fill="#FCEA00"/>
<path d="M1111.94 647.865C1111.94 646.135 1113.09 641.698 1114.5 641.698C1115.91 641.698 1117.06 646.135 1117.06 647.865C1117.06 649.595 1115.91 651 1114.5 651C1113.09 651 1111.94 649.595 1111.94 647.865Z" fill="#FCEA00"/>
<path d="M1121.86 643.061C1120.13 643.061 1115.7 641.913 1115.7 640.5C1115.7 639.088 1120.13 637.939 1121.86 637.939C1123.6 637.939 1125 639.088 1125 640.5C1125 641.913 1123.6 643.061 1121.86 643.061Z" fill="#FCEA00"/>
<path d="M1107.14 637.939C1108.87 637.939 1113.3 639.088 1113.3 640.5C1113.3 641.913 1108.87 643.061 1107.14 643.061C1105.4 643.061 1104 641.913 1104 640.5C1104 639.088 1105.4 637.939 1107.14 637.939Z" fill="#FCEA00"/>
</g>
<g clip-path="url(#clip15_32_417)">
<path d="M310.514 354.486C310.607 354.555 310.683 354.644 310.736 354.747C310.79 354.85 310.819 354.963 310.822 355.079C310.826 355.195 310.803 355.31 310.755 355.415C310.708 355.521 310.637 355.614 310.548 355.688L299.688 366.548C299.614 366.636 299.521 366.706 299.416 366.753C299.311 366.801 299.196 366.823 299.081 366.82C298.966 366.817 298.853 366.787 298.751 366.734C298.648 366.681 298.559 366.606 298.49 366.514C298.397 366.445 298.321 366.356 298.267 366.253C298.213 366.151 298.183 366.038 298.179 365.922C298.176 365.806 298.198 365.691 298.246 365.586C298.293 365.48 298.363 365.386 298.452 365.312L309.312 354.452C309.386 354.363 309.479 354.292 309.585 354.245C309.69 354.197 309.805 354.174 309.921 354.178C310.037 354.181 310.15 354.21 310.253 354.264C310.355 354.317 310.445 354.393 310.514 354.486V354.486Z" fill="#FF50C8"/>
<path d="M310.514 366.514C310.445 366.607 310.355 366.683 310.253 366.736C310.15 366.79 310.037 366.819 309.921 366.822C309.805 366.826 309.69 366.803 309.585 366.755C309.479 366.708 309.386 366.637 309.312 366.548L298.452 355.688C298.363 355.614 298.293 355.52 298.246 355.414C298.198 355.309 298.176 355.194 298.179 355.078C298.183 354.962 298.213 354.849 298.267 354.746C298.321 354.644 298.397 354.555 298.49 354.486C298.559 354.394 298.648 354.319 298.751 354.266C298.853 354.213 298.966 354.183 299.081 354.18C299.196 354.177 299.311 354.199 299.416 354.246C299.521 354.294 299.614 354.364 299.688 354.452L310.548 365.312C310.637 365.386 310.708 365.479 310.755 365.585C310.803 365.69 310.826 365.805 310.822 365.921C310.819 366.037 310.79 366.15 310.736 366.253C310.683 366.355 310.607 366.445 310.514 366.514V366.514Z" fill="#FF50C8"/>
<path d="M307.061 353.135C307.061 354.865 305.913 359.302 304.5 359.302C303.087 359.302 301.939 354.865 301.939 353.135C301.939 351.405 303.087 350 304.5 350C305.913 350 307.061 351.405 307.061 353.135Z" fill="#FF50C8"/>
<path d="M301.939 367.865C301.939 366.135 303.087 361.698 304.5 361.698C305.913 361.698 307.061 366.135 307.061 367.865C307.061 369.595 305.913 371 304.5 371C303.087 371 301.939 369.595 301.939 367.865Z" fill="#FF50C8"/>
<path d="M311.865 363.061C310.135 363.061 305.698 361.913 305.698 360.5C305.698 359.088 310.135 357.939 311.865 357.939C313.595 357.939 315 359.088 315 360.5C315 361.913 313.595 363.061 311.865 363.061Z" fill="#FF50C8"/>
<path d="M297.135 357.939C298.865 357.939 303.302 359.088 303.302 360.5C303.302 361.913 298.865 363.061 297.135 363.061C295.405 363.061 294 361.913 294 360.5C294 359.088 295.405 357.939 297.135 357.939Z" fill="#FF50C8"/>
</g>
<g clip-path="url(#clip16_32_417)">
<path d="M495.086 505.914C495.188 505.989 495.271 506.087 495.33 506.199C495.389 506.312 495.421 506.436 495.425 506.563C495.428 506.689 495.403 506.815 495.351 506.931C495.299 507.047 495.221 507.149 495.124 507.23L483.23 519.124C483.149 519.221 483.047 519.298 482.931 519.349C482.816 519.401 482.691 519.426 482.565 519.422C482.439 519.418 482.315 519.386 482.203 519.328C482.091 519.27 481.993 519.187 481.918 519.086C481.816 519.011 481.732 518.914 481.673 518.802C481.614 518.689 481.582 518.565 481.578 518.438C481.573 518.312 481.598 518.186 481.65 518.07C481.702 517.954 481.779 517.852 481.876 517.77L493.77 505.876C493.851 505.779 493.954 505.701 494.069 505.649C494.185 505.597 494.311 505.572 494.437 505.576C494.564 505.579 494.688 505.611 494.801 505.67C494.913 505.729 495.011 505.812 495.086 505.914V505.914Z" fill="#FF50C8"/>
<path d="M495.086 519.087C495.011 519.188 494.913 519.272 494.801 519.33C494.688 519.389 494.564 519.421 494.437 519.425C494.311 519.428 494.185 519.403 494.069 519.351C493.954 519.299 493.851 519.222 493.77 519.124L481.876 507.23C481.779 507.149 481.702 507.046 481.65 506.93C481.598 506.814 481.573 506.688 481.578 506.562C481.582 506.435 481.614 506.311 481.673 506.199C481.732 506.086 481.816 505.989 481.918 505.914C481.993 505.813 482.091 505.73 482.203 505.672C482.315 505.614 482.439 505.582 482.565 505.578C482.691 505.575 482.816 505.599 482.931 505.651C483.047 505.703 483.149 505.779 483.23 505.876L495.124 517.77C495.221 517.851 495.299 517.954 495.351 518.069C495.403 518.185 495.428 518.311 495.425 518.437C495.421 518.564 495.389 518.688 495.33 518.801C495.271 518.913 495.188 519.011 495.086 519.087V519.087Z" fill="#FF50C8"/>
<path d="M491.305 504.434C491.305 506.329 490.047 511.188 488.5 511.188C486.953 511.188 485.695 506.329 485.695 504.434C485.695 502.539 486.953 501 488.5 501C490.047 501 491.305 502.539 491.305 504.434Z" fill="#FF50C8"/>
<path d="M485.695 520.566C485.695 518.671 486.953 513.812 488.5 513.812C490.047 513.812 491.305 518.671 491.305 520.566C491.305 522.461 490.047 524 488.5 524C486.953 524 485.695 522.461 485.695 520.566Z" fill="#FF50C8"/>
<path d="M496.566 515.305C494.671 515.305 489.812 514.047 489.812 512.5C489.812 510.953 494.671 509.695 496.566 509.695C498.461 509.695 500 510.953 500 512.5C500 514.047 498.461 515.305 496.566 515.305Z" fill="#FF50C8"/>
<path d="M480.434 509.695C482.329 509.695 487.188 510.953 487.188 512.5C487.188 514.047 482.329 515.305 480.434 515.305C478.539 515.305 477 514.047 477 512.5C477 510.953 478.539 509.695 480.434 509.695Z" fill="#FF50C8"/>
</g>
<g clip-path="url(#clip17_32_417)">
<path d="M164.009 316.991C164.071 317.037 164.122 317.096 164.157 317.165C164.193 317.233 164.213 317.309 164.215 317.386C164.217 317.463 164.202 317.54 164.17 317.61C164.138 317.681 164.091 317.743 164.032 317.792L156.792 325.032C156.743 325.091 156.681 325.138 156.61 325.169C156.54 325.2 156.464 325.216 156.387 325.213C156.31 325.211 156.235 325.192 156.167 325.156C156.099 325.121 156.039 325.071 155.993 325.009C155.931 324.963 155.88 324.904 155.845 324.836C155.809 324.767 155.789 324.692 155.786 324.615C155.784 324.538 155.799 324.461 155.83 324.39C155.862 324.32 155.909 324.258 155.968 324.208L163.208 316.968C163.257 316.909 163.32 316.862 163.39 316.83C163.46 316.798 163.537 316.783 163.614 316.785C163.691 316.787 163.767 316.807 163.835 316.843C163.904 316.878 163.963 316.929 164.009 316.991V316.991Z" fill="#FCEA00"/>
<path d="M164.009 325.009C163.963 325.071 163.904 325.122 163.835 325.157C163.767 325.193 163.691 325.213 163.614 325.215C163.537 325.217 163.46 325.202 163.39 325.17C163.32 325.138 163.257 325.091 163.208 325.032L155.968 317.792C155.909 317.742 155.862 317.68 155.83 317.61C155.799 317.539 155.784 317.462 155.786 317.385C155.789 317.308 155.809 317.233 155.845 317.164C155.88 317.096 155.931 317.037 155.993 316.991C156.039 316.929 156.099 316.879 156.167 316.844C156.235 316.808 156.31 316.789 156.387 316.787C156.464 316.784 156.54 316.8 156.61 316.831C156.681 316.862 156.743 316.909 156.792 316.968L164.032 324.208C164.091 324.257 164.138 324.319 164.17 324.39C164.202 324.46 164.217 324.537 164.215 324.614C164.213 324.691 164.193 324.767 164.157 324.835C164.122 324.904 164.071 324.963 164.009 325.009V325.009Z" fill="#FCEA00"/>
<path d="M161.707 316.09C161.707 317.244 160.942 320.201 160 320.201C159.058 320.201 158.293 317.244 158.293 316.09C158.293 314.937 159.058 314 160 314C160.942 314 161.707 314.937 161.707 316.09Z" fill="#FCEA00"/>
<path d="M158.293 325.91C158.293 324.757 159.058 321.799 160 321.799C160.942 321.799 161.707 324.757 161.707 325.91C161.707 327.064 160.942 328 160 328C159.058 328 158.293 327.064 158.293 325.91Z" fill="#FCEA00"/>
<path d="M164.91 322.707C163.756 322.707 160.799 321.942 160.799 321C160.799 320.058 163.756 319.293 164.91 319.293C166.063 319.293 167 320.058 167 321C167 321.942 166.063 322.707 164.91 322.707Z" fill="#FCEA00"/>
<path d="M155.09 319.293C156.244 319.293 159.201 320.058 159.201 321C159.201 321.942 156.244 322.707 155.09 322.707C153.937 322.707 153 321.942 153 321C153 320.058 153.937 319.293 155.09 319.293Z" fill="#FCEA00"/>
</g>
<g clip-path="url(#clip18_32_417)">
<path d="M1100.44 189.557C1100.56 189.643 1100.65 189.753 1100.72 189.88C1100.78 190.007 1100.82 190.147 1100.83 190.29C1100.83 190.433 1100.8 190.575 1100.74 190.706C1100.68 190.836 1100.6 190.952 1100.49 191.043L1087.04 204.486C1086.95 204.596 1086.84 204.684 1086.71 204.742C1086.58 204.801 1086.43 204.83 1086.29 204.826C1086.15 204.822 1086.01 204.785 1085.88 204.719C1085.75 204.652 1085.64 204.558 1085.56 204.443C1085.44 204.357 1085.35 204.247 1085.28 204.121C1085.22 203.994 1085.18 203.855 1085.18 203.712C1085.17 203.57 1085.2 203.428 1085.25 203.297C1085.31 203.166 1085.4 203.05 1085.51 202.957L1098.96 189.506C1099.05 189.398 1099.17 189.312 1099.3 189.255C1099.43 189.198 1099.57 189.17 1099.71 189.175C1099.85 189.18 1099.99 189.217 1100.12 189.283C1100.25 189.349 1100.36 189.443 1100.44 189.557V189.557Z" fill="#D50400"/>
<path d="M1100.44 204.443C1100.36 204.557 1100.25 204.65 1100.12 204.715C1099.99 204.78 1099.85 204.816 1099.71 204.82C1099.57 204.825 1099.43 204.797 1099.3 204.739C1099.16 204.681 1099.05 204.594 1098.96 204.486L1085.51 191.043C1085.4 190.95 1085.31 190.834 1085.25 190.703C1085.2 190.573 1085.17 190.431 1085.18 190.288C1085.18 190.145 1085.22 190.006 1085.28 189.879C1085.35 189.753 1085.44 189.643 1085.56 189.557C1085.64 189.443 1085.75 189.349 1085.88 189.283C1086.01 189.217 1086.15 189.18 1086.29 189.175C1086.43 189.17 1086.57 189.198 1086.7 189.255C1086.83 189.312 1086.95 189.398 1087.04 189.506L1100.49 202.957C1100.59 203.049 1100.68 203.165 1100.74 203.295C1100.8 203.426 1100.82 203.568 1100.82 203.71C1100.82 203.853 1100.78 203.993 1100.71 204.119C1100.65 204.246 1100.56 204.357 1100.44 204.443V204.443Z" fill="#D50400"/>
<path d="M1096.17 187.882C1096.17 190.021 1094.75 195.518 1093 195.518C1091.24 195.518 1089.83 190.013 1089.83 187.882C1089.83 185.752 1091.25 184 1093 184C1094.74 184 1096.17 185.718 1096.17 187.882Z" fill="#D50400"/>
<path d="M1089.83 206.118C1089.83 203.979 1091.25 198.482 1093 198.482C1094.74 198.482 1096.17 203.979 1096.17 206.118C1096.17 208.256 1094.75 210 1093 210C1091.24 210 1089.83 208.256 1089.83 206.118Z" fill="#D50400"/>
<path d="M1102.12 200.165C1099.98 200.165 1094.48 198.748 1094.48 196.996C1094.48 195.243 1099.98 193.826 1102.12 193.826C1104.26 193.826 1106 195.252 1106 196.996C1106 198.739 1104.26 200.165 1102.12 200.165Z" fill="#D50400"/>
<path d="M1083.88 193.826C1086.02 193.826 1091.52 195.252 1091.52 196.996C1091.52 198.739 1086.01 200.165 1083.88 200.165C1081.75 200.165 1080 198.748 1080 196.996C1080 195.243 1081.72 193.826 1083.88 193.826Z" fill="#D50400"/>
</g>
<g clip-path="url(#clip19_32_417)">
<path d="M1130.58 373.42C1130.65 373.472 1130.71 373.54 1130.75 373.618C1130.79 373.696 1130.81 373.782 1130.82 373.871C1130.82 373.959 1130.8 374.046 1130.76 374.126C1130.73 374.207 1130.67 374.278 1130.61 374.334L1122.33 382.606C1122.28 382.674 1122.21 382.728 1122.13 382.764C1122.05 382.801 1121.96 382.818 1121.87 382.816C1121.78 382.813 1121.7 382.791 1121.62 382.75C1121.54 382.709 1121.47 382.651 1121.42 382.58C1121.35 382.527 1121.29 382.46 1121.25 382.382C1121.21 382.304 1121.19 382.218 1121.18 382.13C1121.18 382.043 1121.2 381.955 1121.23 381.875C1121.27 381.794 1121.32 381.723 1121.39 381.666L1129.67 373.388C1129.72 373.322 1129.79 373.269 1129.87 373.234C1129.96 373.198 1130.04 373.182 1130.13 373.185C1130.22 373.188 1130.3 373.21 1130.38 373.251C1130.46 373.292 1130.53 373.349 1130.58 373.42V373.42Z" fill="#D50400"/>
<path d="M1130.58 382.58C1130.53 382.65 1130.46 382.707 1130.38 382.747C1130.3 382.788 1130.22 382.81 1130.13 382.812C1130.04 382.815 1129.95 382.798 1129.87 382.762C1129.79 382.726 1129.72 382.673 1129.67 382.606L1121.39 374.334C1121.32 374.277 1121.27 374.205 1121.23 374.125C1121.2 374.044 1121.18 373.957 1121.18 373.869C1121.19 373.782 1121.21 373.696 1121.25 373.618C1121.29 373.54 1121.35 373.472 1121.42 373.42C1121.47 373.349 1121.54 373.292 1121.62 373.251C1121.7 373.21 1121.78 373.188 1121.87 373.185C1121.96 373.182 1122.04 373.198 1122.13 373.234C1122.21 373.269 1122.28 373.322 1122.33 373.388L1130.61 381.666C1130.67 381.723 1130.73 381.794 1130.76 381.874C1130.8 381.954 1130.82 382.041 1130.81 382.129C1130.81 382.217 1130.79 382.303 1130.75 382.381C1130.71 382.459 1130.65 382.527 1130.58 382.58V382.58Z" fill="#D50400"/>
<path d="M1127.95 372.389C1127.95 373.705 1127.08 377.088 1126 377.088C1124.92 377.088 1124.05 373.7 1124.05 372.389C1124.05 371.078 1124.92 370 1126 370C1127.07 370 1127.95 371.057 1127.95 372.389Z" fill="#D50400"/>
<path d="M1124.05 383.611C1124.05 382.295 1124.92 378.912 1126 378.912C1127.07 378.912 1127.95 382.295 1127.95 383.611C1127.95 384.927 1127.08 386 1126 386C1124.92 386 1124.05 384.927 1124.05 383.611Z" fill="#D50400"/>
<path d="M1131.61 379.948C1130.29 379.948 1126.91 379.076 1126.91 377.997C1126.91 376.919 1130.29 376.047 1131.61 376.047C1132.93 376.047 1134 376.924 1134 377.997C1134 379.07 1132.93 379.948 1131.61 379.948Z" fill="#D50400"/>
<path d="M1120.39 376.047C1121.71 376.047 1125.09 376.924 1125.09 377.997C1125.09 379.07 1121.7 379.948 1120.39 379.948C1119.08 379.948 1118 379.076 1118 377.997C1118 376.919 1119.06 376.047 1120.39 376.047Z" fill="#D50400"/>
</g>
<g clip-path="url(#clip20_32_417)">
<path d="M986.656 471.343C986.767 471.425 986.858 471.531 986.922 471.653C986.985 471.775 987.021 471.91 987.025 472.048C987.029 472.185 987.001 472.322 986.945 472.448C986.888 472.573 986.804 472.684 986.698 472.772L973.772 485.698C973.684 485.803 973.573 485.888 973.448 485.944C973.322 486.001 973.186 486.028 973.048 486.024C972.91 486.021 972.775 485.985 972.653 485.922C972.531 485.858 972.425 485.767 972.344 485.656C972.234 485.574 972.144 485.468 972.08 485.347C972.016 485.225 971.981 485.091 971.976 484.954C971.971 484.817 971.998 484.68 972.053 484.555C972.108 484.429 972.19 484.317 972.294 484.228L985.228 471.294C985.317 471.19 985.429 471.107 985.555 471.052C985.68 470.997 985.817 470.971 985.954 470.976C986.091 470.981 986.225 471.016 986.347 471.08C986.469 471.144 986.574 471.234 986.656 471.343V471.343Z" fill="#D50400"/>
<path d="M986.656 485.656C986.574 485.766 986.467 485.855 986.345 485.918C986.224 485.981 986.089 486.015 985.952 486.019C985.815 486.023 985.679 485.997 985.553 485.941C985.428 485.885 985.317 485.802 985.228 485.698L972.294 472.772C972.19 472.683 972.108 472.571 972.053 472.445C971.998 472.32 971.971 472.183 971.976 472.046C971.981 471.909 972.016 471.775 972.08 471.653C972.144 471.531 972.234 471.426 972.344 471.343C972.426 471.234 972.531 471.144 972.653 471.08C972.775 471.016 972.909 470.981 973.046 470.976C973.183 470.971 973.32 470.997 973.445 471.052C973.571 471.107 973.683 471.19 973.772 471.294L986.698 484.228C986.802 484.316 986.885 484.428 986.941 484.553C986.997 484.678 987.024 484.815 987.02 484.952C987.016 485.089 986.981 485.223 986.918 485.345C986.855 485.467 986.766 485.574 986.656 485.656V485.656Z" fill="#D50400"/>
<path d="M982.543 469.733C982.543 471.79 981.181 477.075 979.496 477.075C977.811 477.075 976.448 471.781 976.448 469.733C976.448 467.685 977.819 466 979.496 466C981.172 466 982.543 467.652 982.543 469.733Z" fill="#D50400"/>
<path d="M976.448 487.267C976.448 485.21 977.819 479.925 979.496 479.925C981.172 479.925 982.543 485.21 982.543 487.267C982.543 489.323 981.181 491 979.496 491C977.811 491 976.448 489.323 976.448 487.267Z" fill="#D50400"/>
<path d="M988.267 481.543C986.21 481.543 980.925 480.181 980.925 478.496C980.925 476.811 986.21 475.448 988.267 475.448C990.323 475.448 992 476.819 992 478.496C992 480.172 990.323 481.543 988.267 481.543Z" fill="#D50400"/>
<path d="M970.733 475.448C972.79 475.448 978.075 476.819 978.075 478.496C978.075 480.172 972.781 481.543 970.733 481.543C968.685 481.543 967 480.181 967 478.496C967 476.811 968.652 475.448 970.733 475.448Z" fill="#D50400"/>
</g>
<g clip-path="url(#clip21_32_417)">
<path d="M1029.66 470.343C1029.77 470.425 1029.86 470.531 1029.92 470.653C1029.99 470.775 1030.02 470.91 1030.02 471.048C1030.03 471.185 1030 471.322 1029.94 471.448C1029.89 471.573 1029.8 471.684 1029.7 471.772L1016.77 484.698C1016.68 484.803 1016.57 484.888 1016.45 484.944C1016.32 485.001 1016.19 485.028 1016.05 485.024C1015.91 485.021 1015.78 484.985 1015.65 484.922C1015.53 484.858 1015.43 484.767 1015.34 484.656C1015.23 484.574 1015.14 484.468 1015.08 484.347C1015.02 484.225 1014.98 484.091 1014.98 483.954C1014.97 483.817 1015 483.68 1015.05 483.555C1015.11 483.429 1015.19 483.317 1015.29 483.228L1028.23 470.294C1028.32 470.19 1028.43 470.107 1028.55 470.052C1028.68 469.997 1028.82 469.971 1028.95 469.976C1029.09 469.981 1029.23 470.016 1029.35 470.08C1029.47 470.144 1029.57 470.234 1029.66 470.343V470.343Z" fill="#8F41C6"/>
<path d="M1029.66 484.656C1029.57 484.766 1029.47 484.855 1029.35 484.918C1029.22 484.981 1029.09 485.015 1028.95 485.019C1028.81 485.023 1028.68 484.997 1028.55 484.941C1028.43 484.885 1028.32 484.802 1028.23 484.698L1015.29 471.772C1015.19 471.683 1015.11 471.571 1015.05 471.445C1015 471.32 1014.97 471.183 1014.98 471.046C1014.98 470.909 1015.02 470.775 1015.08 470.653C1015.14 470.531 1015.23 470.426 1015.34 470.343C1015.43 470.234 1015.53 470.144 1015.65 470.08C1015.77 470.016 1015.91 469.981 1016.05 469.976C1016.18 469.971 1016.32 469.997 1016.45 470.052C1016.57 470.107 1016.68 470.19 1016.77 470.294L1029.7 483.228C1029.8 483.316 1029.89 483.428 1029.94 483.553C1030 483.678 1030.02 483.815 1030.02 483.952C1030.02 484.089 1029.98 484.223 1029.92 484.345C1029.86 484.467 1029.77 484.574 1029.66 484.656V484.656Z" fill="#8F41C6"/>
<path d="M1025.54 468.733C1025.54 470.79 1024.18 476.075 1022.5 476.075C1020.81 476.075 1019.45 470.781 1019.45 468.733C1019.45 466.685 1020.82 465 1022.5 465C1024.17 465 1025.54 466.652 1025.54 468.733Z" fill="#8F41C6"/>
<path d="M1019.45 486.267C1019.45 484.21 1020.82 478.925 1022.5 478.925C1024.17 478.925 1025.54 484.21 1025.54 486.267C1025.54 488.323 1024.18 490 1022.5 490C1020.81 490 1019.45 488.323 1019.45 486.267Z" fill="#8F41C6"/>
<path d="M1031.27 480.543C1029.21 480.543 1023.92 479.181 1023.92 477.496C1023.92 475.811 1029.21 474.448 1031.27 474.448C1033.32 474.448 1035 475.819 1035 477.496C1035 479.172 1033.32 480.543 1031.27 480.543Z" fill="#8F41C6"/>
<path d="M1013.73 474.448C1015.79 474.448 1021.08 475.819 1021.08 477.496C1021.08 479.172 1015.78 480.543 1013.73 480.543C1011.68 480.543 1010 479.181 1010 477.496C1010 475.811 1011.65 474.448 1013.73 474.448Z" fill="#8F41C6"/>
</g>
<g clip-path="url(#clip22_32_417)">
<path d="M491.244 441.756C491.488 441.936 491.687 442.169 491.828 442.437C491.968 442.706 492.045 443.003 492.054 443.306C492.063 443.608 492.003 443.909 491.878 444.185C491.753 444.461 491.568 444.705 491.335 444.899L462.899 473.335C462.705 473.568 462.461 473.754 462.185 473.878C461.909 474.003 461.608 474.063 461.305 474.054C461.003 474.045 460.706 473.968 460.437 473.828C460.169 473.687 459.936 473.488 459.756 473.244C459.514 473.063 459.316 472.831 459.176 472.563C459.036 472.296 458.958 472 458.948 471.699C458.937 471.397 458.995 471.097 459.116 470.82C459.237 470.544 459.418 470.298 459.647 470.101L488.101 441.647C488.298 441.418 488.544 441.237 488.82 441.116C489.097 440.995 489.397 440.937 489.699 440.948C490 440.958 490.296 441.036 490.563 441.176C490.831 441.316 491.063 441.514 491.244 441.756V441.756Z" fill="#D50400"/>
<path d="M491.244 473.244C491.062 473.485 490.828 473.682 490.56 473.82C490.292 473.958 489.996 474.034 489.694 474.043C489.393 474.052 489.093 473.993 488.817 473.87C488.541 473.748 488.296 473.565 488.101 473.335L459.647 444.899C459.418 444.702 459.237 444.456 459.116 444.18C458.995 443.903 458.937 443.603 458.948 443.301C458.958 443 459.036 442.704 459.176 442.437C459.316 442.169 459.514 441.937 459.756 441.756C459.937 441.514 460.169 441.316 460.437 441.176C460.704 441.036 461 440.958 461.301 440.948C461.603 440.937 461.903 440.995 462.18 441.116C462.456 441.237 462.702 441.418 462.899 441.647L491.335 470.101C491.565 470.297 491.748 470.541 491.87 470.817C491.993 471.093 492.052 471.393 492.043 471.694C492.034 471.996 491.958 472.292 491.82 472.56C491.681 472.828 491.485 473.062 491.244 473.244V473.244Z" fill="#D50400"/>
<path d="M482.196 438.213C482.196 442.737 479.198 454.366 475.491 454.366C471.784 454.366 468.786 442.719 468.786 438.213C468.786 433.707 471.802 430 475.491 430C479.179 430 482.196 433.634 482.196 438.213Z" fill="#D50400"/>
<path d="M468.786 476.787C468.786 472.263 471.802 460.634 475.491 460.634C479.179 460.634 482.196 472.263 482.196 476.787C482.196 481.312 479.198 485 475.491 485C471.784 485 468.786 481.312 468.786 476.787Z" fill="#D50400"/>
<path d="M494.787 464.196C490.263 464.196 478.634 461.198 478.634 457.491C478.634 453.784 490.263 450.786 494.787 450.786C499.312 450.786 503 453.803 503 457.491C503 461.18 499.312 464.196 494.787 464.196Z" fill="#D50400"/>
<path d="M456.213 450.786C460.737 450.786 472.366 453.803 472.366 457.491C472.366 461.18 460.719 464.196 456.213 464.196C451.707 464.196 448 461.198 448 457.491C448 453.784 451.634 450.786 456.213 450.786Z" fill="#D50400"/>
</g>
<g clip-path="url(#clip23_32_417)">
<path d="M536.794 469.206C536.86 469.255 536.915 469.319 536.953 469.392C536.991 469.465 537.012 469.546 537.015 469.629C537.017 469.711 537.001 469.793 536.967 469.869C536.933 469.944 536.882 470.011 536.819 470.063L529.063 477.819C529.011 477.882 528.944 477.933 528.869 477.967C528.793 478.001 528.711 478.017 528.629 478.015C528.546 478.012 528.465 477.991 528.392 477.953C528.319 477.915 528.255 477.86 528.206 477.794C528.14 477.745 528.086 477.681 528.048 477.608C528.01 477.535 527.989 477.455 527.986 477.372C527.983 477.29 527.999 477.208 528.032 477.133C528.065 477.057 528.114 476.99 528.176 476.937L535.937 469.176C535.99 469.114 536.057 469.064 536.133 469.031C536.208 468.998 536.29 468.983 536.372 468.986C536.455 468.989 536.535 469.01 536.608 469.048C536.681 469.086 536.745 469.14 536.794 469.206V469.206Z" fill="#D50400"/>
<path d="M536.794 477.794C536.744 477.859 536.68 477.913 536.607 477.951C536.534 477.988 536.453 478.009 536.371 478.012C536.289 478.014 536.207 477.998 536.132 477.965C536.057 477.931 535.99 477.881 535.937 477.819L528.176 470.063C528.114 470.01 528.065 469.943 528.032 469.867C527.999 469.792 527.983 469.71 527.986 469.628C527.989 469.545 528.01 469.465 528.048 469.392C528.086 469.319 528.14 469.255 528.206 469.206C528.255 469.14 528.319 469.086 528.392 469.048C528.465 469.01 528.545 468.989 528.628 468.986C528.71 468.983 528.792 468.998 528.867 469.031C528.943 469.064 529.01 469.114 529.063 469.176L536.819 476.937C536.881 476.99 536.931 477.057 536.965 477.132C536.998 477.207 537.014 477.289 537.012 477.371C537.009 477.453 536.989 477.534 536.951 477.607C536.913 477.68 536.859 477.744 536.794 477.794V477.794Z" fill="#D50400"/>
<path d="M534.326 468.24C534.326 469.474 533.508 472.645 532.498 472.645C531.487 472.645 530.669 469.469 530.669 468.24C530.669 467.011 531.492 466 532.498 466C533.503 466 534.326 466.991 534.326 468.24Z" fill="#D50400"/>
<path d="M530.669 478.76C530.669 477.526 531.492 474.355 532.498 474.355C533.503 474.355 534.326 477.526 534.326 478.76C534.326 479.994 533.508 481 532.498 481C531.487 481 530.669 479.994 530.669 478.76Z" fill="#D50400"/>
<path d="M537.76 475.326C536.526 475.326 533.355 474.508 533.355 473.497C533.355 472.487 536.526 471.669 537.76 471.669C538.994 471.669 540 472.492 540 473.497C540 474.503 538.994 475.326 537.76 475.326Z" fill="#D50400"/>
<path d="M527.24 471.669C528.474 471.669 531.645 472.492 531.645 473.497C531.645 474.503 528.469 475.326 527.24 475.326C526.011 475.326 525 474.508 525 473.497C525 472.487 525.991 471.669 527.24 471.669Z" fill="#D50400"/>
</g>
<g clip-path="url(#clip24_32_417)">
<path d="M48.8015 350.198C48.9299 350.293 49.0351 350.416 49.1091 350.558C49.183 350.699 49.2239 350.856 49.2285 351.016C49.2331 351.175 49.2014 351.334 49.1357 351.479C49.07 351.625 48.9721 351.754 48.8494 351.856L33.856 366.849C33.7538 366.972 33.625 367.07 33.4795 367.136C33.3339 367.201 33.1753 367.233 33.0156 367.228C32.856 367.224 32.6995 367.183 32.5579 367.109C32.4164 367.035 32.2935 366.93 32.1986 366.801C32.0711 366.706 31.9666 366.583 31.8928 366.442C31.8191 366.301 31.7779 366.146 31.7724 365.986C31.7669 365.827 31.7972 365.669 31.861 365.523C31.9248 365.378 32.0205 365.248 32.1411 365.144L47.144 350.141C47.2479 350.02 47.3776 349.925 47.5234 349.861C47.6692 349.797 47.8275 349.767 47.9865 349.772C48.1456 349.778 48.3014 349.819 48.4424 349.893C48.5835 349.967 48.7062 350.071 48.8015 350.198V350.198Z" fill="#6B61C4"/>
<path d="M48.8015 366.801C48.7054 366.928 48.5822 367.032 48.4407 367.105C48.2993 367.178 48.1433 367.218 47.9842 367.223C47.8252 367.227 47.6671 367.196 47.5217 367.131C47.3763 367.067 47.2472 366.97 47.144 366.849L32.1411 351.856C32.0205 351.752 31.9248 351.622 31.861 351.477C31.7972 351.331 31.7669 351.172 31.7724 351.013C31.7779 350.854 31.8191 350.699 31.8928 350.558C31.9666 350.416 32.0711 350.294 32.1986 350.198C32.2938 350.071 32.4165 349.967 32.5576 349.893C32.6986 349.819 32.8544 349.778 33.0135 349.772C33.1725 349.767 33.3308 349.797 33.4766 349.861C33.6224 349.925 33.7521 350.02 33.856 350.141L48.8494 365.144C48.9705 365.247 49.0669 365.376 49.1315 365.522C49.1961 365.667 49.2273 365.825 49.2227 365.984C49.2181 366.143 49.1779 366.299 49.105 366.441C49.032 366.582 48.9283 366.705 48.8015 366.801V366.801Z" fill="#6B61C4"/>
<path d="M44.0304 348.33C44.0304 350.716 42.4496 356.847 40.4952 356.847C38.5408 356.847 36.96 350.706 36.96 348.33C36.96 345.954 38.5504 344 40.4952 344C42.44 344 44.0304 345.916 44.0304 348.33Z" fill="#6B61C4"/>
<path d="M36.96 368.67C36.96 366.284 38.5504 360.153 40.4952 360.153C42.44 360.153 44.0304 366.284 44.0304 368.67C44.0304 371.055 42.4496 373 40.4952 373C38.5408 373 36.96 371.055 36.96 368.67Z" fill="#6B61C4"/>
<path d="M50.6697 362.03C48.2841 362.03 42.1526 360.45 42.1526 358.495C42.1526 356.541 48.2841 354.96 50.6697 354.96C53.0552 354.96 55 356.55 55 358.495C55 360.44 53.0552 362.03 50.6697 362.03Z" fill="#6B61C4"/>
<path d="M30.3304 354.96C32.7159 354.96 38.8474 356.55 38.8474 358.495C38.8474 360.44 32.7063 362.03 30.3304 362.03C27.9544 362.03 26 360.45 26 358.495C26 356.541 27.9161 354.96 30.3304 354.96Z" fill="#6B61C4"/>
</g>
<g clip-path="url(#clip25_32_417)">
<path d="M1115.94 456.06C1116.02 456.123 1116.09 456.203 1116.13 456.293C1116.18 456.384 1116.2 456.484 1116.21 456.586C1116.21 456.688 1116.19 456.789 1116.15 456.883C1116.11 456.977 1116.05 457.06 1115.97 457.128L1106.13 466.973C1106.06 467.052 1105.98 467.116 1105.88 467.158C1105.78 467.201 1105.68 467.221 1105.58 467.218C1105.47 467.215 1105.37 467.188 1105.28 467.14C1105.18 467.092 1105.1 467.023 1105.04 466.94C1104.96 466.877 1104.89 466.797 1104.84 466.704C1104.79 466.611 1104.77 466.509 1104.76 466.405C1104.76 466.3 1104.78 466.197 1104.82 466.101C1104.87 466.006 1104.93 465.921 1105.01 465.854L1114.85 456.027C1114.92 455.948 1115.01 455.884 1115.1 455.842C1115.2 455.799 1115.3 455.779 1115.4 455.782C1115.51 455.785 1115.61 455.812 1115.7 455.86C1115.8 455.908 1115.88 455.977 1115.94 456.06V456.06Z" fill="#00B8AE"/>
<path d="M1115.94 466.94C1115.88 467.023 1115.8 467.092 1115.7 467.14C1115.61 467.188 1115.51 467.215 1115.4 467.218C1115.3 467.221 1115.2 467.201 1115.1 467.158C1115.01 467.116 1114.92 467.052 1114.85 466.972L1105.03 457.127C1104.95 457.06 1104.88 456.975 1104.84 456.88C1104.8 456.785 1104.78 456.681 1104.78 456.577C1104.79 456.472 1104.81 456.37 1104.86 456.277C1104.91 456.185 1104.98 456.104 1105.06 456.041C1105.12 455.962 1105.21 455.898 1105.3 455.854C1105.39 455.809 1105.49 455.786 1105.59 455.784C1105.69 455.783 1105.79 455.804 1105.89 455.846C1105.98 455.888 1106.06 455.95 1106.13 456.027L1115.97 465.854C1116.05 465.921 1116.12 466.006 1116.16 466.101C1116.2 466.197 1116.22 466.3 1116.22 466.405C1116.21 466.509 1116.19 466.611 1116.14 466.704C1116.09 466.797 1116.02 466.877 1115.94 466.94V466.94Z" fill="#00B8AE"/>
<path d="M1112.82 454.834C1112.82 456.4 1111.78 460.428 1110.49 460.428C1109.19 460.428 1108.16 456.41 1108.16 454.834C1108.16 453.259 1109.22 452 1110.5 452C1111.78 452 1112.82 453.268 1112.82 454.834Z" fill="#00B8AE"/>
<path d="M1108.18 468.166C1108.18 466.599 1109.22 462.572 1110.51 462.572C1111.81 462.572 1112.84 466.59 1112.84 468.166C1112.84 469.741 1111.81 471 1110.51 471C1109.22 471 1108.18 469.713 1108.18 468.166Z" fill="#00B8AE"/>
<path d="M1117.17 463.817C1115.6 463.817 1111.57 462.782 1111.57 461.486C1111.57 460.19 1115.59 459.155 1117.17 459.155C1118.74 459.155 1120 460.195 1120 461.486C1120 462.777 1118.71 463.817 1117.17 463.817Z" fill="#00B8AE"/>
<path d="M1103.83 459.183C1105.4 459.183 1109.43 460.223 1109.43 461.514C1109.43 462.805 1105.41 463.845 1103.83 463.845C1102.26 463.845 1101 462.782 1101 461.5C1101 460.218 1102.27 459.183 1103.83 459.183Z" fill="#00B8AE"/>
</g>
<g clip-path="url(#clip26_32_417)">
<path d="M1238.32 618.684C1238.53 618.85 1238.7 619.059 1238.82 619.298C1238.94 619.538 1239.01 619.801 1239.02 620.069C1239.03 620.337 1238.97 620.604 1238.87 620.85C1238.76 621.096 1238.6 621.316 1238.4 621.494L1212.49 647.401C1212.32 647.611 1212.09 647.778 1211.84 647.89C1211.59 648.002 1211.32 648.055 1211.04 648.047C1210.77 648.039 1210.5 647.969 1210.26 647.842C1210.01 647.715 1209.8 647.535 1209.64 647.315C1209.42 647.151 1209.24 646.939 1209.11 646.695C1208.98 646.451 1208.91 646.182 1208.9 645.907C1208.9 645.632 1208.95 645.359 1209.06 645.108C1209.17 644.857 1209.34 644.635 1209.55 644.457L1235.46 618.599C1235.63 618.389 1235.86 618.222 1236.11 618.11C1236.36 617.998 1236.63 617.944 1236.91 617.953C1237.18 617.961 1237.45 618.031 1237.69 618.158C1237.94 618.284 1238.15 618.464 1238.32 618.684V618.684Z" fill="#00B8AE"/>
<path d="M1238.32 647.315C1238.15 647.535 1237.94 647.715 1237.69 647.842C1237.45 647.969 1237.18 648.039 1236.91 648.047C1236.63 648.055 1236.36 648.002 1236.11 647.89C1235.86 647.778 1235.63 647.611 1235.46 647.401L1209.6 621.494C1209.39 621.316 1209.22 621.093 1209.11 620.842C1209 620.591 1208.94 620.318 1208.95 620.044C1208.96 619.769 1209.03 619.5 1209.16 619.256C1209.28 619.012 1209.46 618.8 1209.68 618.635C1209.85 618.427 1210.07 618.258 1210.31 618.142C1210.55 618.025 1210.81 617.962 1211.08 617.959C1211.35 617.955 1211.61 618.011 1211.86 618.121C1212.1 618.232 1212.32 618.395 1212.49 618.599L1238.4 644.457C1238.61 644.635 1238.78 644.857 1238.89 645.108C1239 645.359 1239.06 645.632 1239.05 645.907C1239.04 646.182 1238.97 646.451 1238.84 646.695C1238.72 646.939 1238.54 647.151 1238.32 647.315V647.315Z" fill="#00B8AE"/>
<path d="M1230.1 615.458C1230.1 619.58 1227.36 630.179 1223.96 630.179C1220.57 630.179 1217.83 619.605 1217.83 615.458C1217.83 611.312 1220.64 608 1224 608C1227.36 608 1230.1 611.337 1230.1 615.458Z" fill="#00B8AE"/>
<path d="M1217.9 650.542C1217.9 646.42 1220.64 635.821 1224.04 635.821C1227.43 635.821 1230.17 646.395 1230.17 650.542C1230.17 654.688 1227.43 658 1224.04 658C1220.64 658 1217.9 654.614 1217.9 650.542Z" fill="#00B8AE"/>
<path d="M1241.54 639.097C1237.42 639.097 1226.82 636.374 1226.82 632.963C1226.82 629.553 1237.4 626.83 1241.54 626.83C1245.69 626.83 1249 629.565 1249 632.963C1249 636.361 1245.61 639.097 1241.54 639.097Z" fill="#00B8AE"/>
<path d="M1206.46 626.903C1210.58 626.903 1221.18 629.639 1221.18 633.037C1221.18 636.435 1210.6 639.17 1206.46 639.17C1202.31 639.17 1199 636.373 1199 633C1199 629.627 1202.34 626.903 1206.46 626.903Z" fill="#00B8AE"/>
</g>
<g clip-path="url(#clip27_32_417)">
<path d="M447.94 577.06C448.02 577.123 448.086 577.203 448.132 577.293C448.178 577.384 448.203 577.484 448.206 577.586C448.21 577.688 448.19 577.789 448.15 577.883C448.109 577.977 448.049 578.06 447.973 578.128L438.128 587.973C438.06 588.052 437.976 588.116 437.88 588.158C437.785 588.201 437.681 588.221 437.577 588.218C437.472 588.215 437.37 588.188 437.277 588.14C437.185 588.092 437.104 588.023 437.041 587.94C436.958 587.877 436.889 587.797 436.841 587.704C436.793 587.611 436.767 587.509 436.763 587.405C436.76 587.3 436.781 587.197 436.823 587.101C436.866 587.006 436.929 586.921 437.009 586.854L446.854 577.027C446.921 576.948 447.006 576.884 447.101 576.842C447.197 576.799 447.3 576.779 447.405 576.782C447.509 576.785 447.611 576.812 447.704 576.86C447.797 576.908 447.877 576.977 447.94 577.06V577.06Z" fill="#00B8AE"/>
<path d="M447.94 587.94C447.877 588.023 447.797 588.092 447.704 588.14C447.611 588.188 447.509 588.215 447.405 588.218C447.3 588.221 447.197 588.201 447.101 588.158C447.006 588.116 446.921 588.052 446.854 587.972L437.027 578.127C436.948 578.06 436.884 577.975 436.842 577.88C436.799 577.785 436.779 577.681 436.782 577.577C436.785 577.472 436.812 577.37 436.86 577.277C436.908 577.185 436.977 577.104 437.06 577.041C437.124 576.962 437.205 576.898 437.297 576.854C437.388 576.809 437.489 576.786 437.591 576.784C437.692 576.783 437.793 576.804 437.886 576.846C437.979 576.888 438.061 576.95 438.128 577.027L447.973 586.854C448.052 586.921 448.116 587.006 448.158 587.101C448.201 587.197 448.221 587.3 448.218 587.405C448.215 587.509 448.188 587.611 448.14 587.704C448.092 587.797 448.023 587.877 447.94 587.94V587.94Z" fill="#00B8AE"/>
<path d="M444.817 575.834C444.817 577.4 443.777 581.428 442.486 581.428C441.195 581.428 440.155 577.41 440.155 575.834C440.155 574.259 441.223 573 442.5 573C443.777 573 444.817 574.268 444.817 575.834Z" fill="#00B8AE"/>
<path d="M440.183 589.166C440.183 587.599 441.223 583.572 442.514 583.572C443.805 583.572 444.845 587.59 444.845 589.166C444.845 590.741 443.805 592 442.514 592C441.223 592 440.183 590.713 440.183 589.166Z" fill="#00B8AE"/>
<path d="M449.166 584.817C447.6 584.817 443.572 583.782 443.572 582.486C443.572 581.19 447.59 580.155 449.166 580.155C450.741 580.155 452 581.195 452 582.486C452 583.777 450.713 584.817 449.166 584.817Z" fill="#00B8AE"/>
<path d="M435.834 580.183C437.4 580.183 441.428 581.223 441.428 582.514C441.428 583.805 437.41 584.845 435.834 584.845C434.259 584.845 433 583.782 433 582.5C433 581.218 434.268 580.183 435.834 580.183Z" fill="#00B8AE"/>
</g>
<g clip-path="url(#clip28_32_417)">
<path d="M342.94 338.06C343.02 338.123 343.086 338.203 343.132 338.293C343.178 338.384 343.203 338.484 343.206 338.586C343.21 338.688 343.19 338.789 343.15 338.883C343.109 338.977 343.049 339.06 342.973 339.128L333.128 348.973C333.06 349.052 332.976 349.116 332.88 349.158C332.785 349.201 332.681 349.221 332.577 349.218C332.472 349.215 332.37 349.188 332.277 349.14C332.185 349.092 332.104 349.023 332.041 348.94C331.958 348.877 331.889 348.797 331.841 348.704C331.793 348.611 331.767 348.509 331.763 348.405C331.76 348.3 331.781 348.197 331.823 348.101C331.866 348.006 331.929 347.921 332.009 347.854L341.854 338.027C341.921 337.948 342.006 337.884 342.101 337.842C342.197 337.799 342.3 337.779 342.405 337.782C342.509 337.785 342.611 337.812 342.704 337.86C342.797 337.908 342.877 337.977 342.94 338.06V338.06Z" fill="#00B8AE"/>
<path d="M342.94 348.94C342.877 349.023 342.797 349.092 342.704 349.14C342.611 349.188 342.509 349.215 342.405 349.218C342.3 349.221 342.197 349.201 342.101 349.158C342.006 349.116 341.921 349.052 341.854 348.972L332.027 339.127C331.948 339.06 331.884 338.975 331.842 338.88C331.799 338.785 331.779 338.681 331.782 338.577C331.785 338.472 331.812 338.37 331.86 338.277C331.908 338.185 331.977 338.104 332.06 338.041C332.124 337.962 332.205 337.898 332.297 337.854C332.388 337.809 332.489 337.786 332.591 337.784C332.692 337.783 332.793 337.804 332.886 337.846C332.979 337.888 333.061 337.95 333.128 338.027L342.973 347.854C343.052 347.921 343.116 348.006 343.158 348.101C343.201 348.197 343.221 348.3 343.218 348.405C343.215 348.509 343.188 348.611 343.14 348.704C343.092 348.797 343.023 348.877 342.94 348.94V348.94Z" fill="#00B8AE"/>
<path d="M339.817 336.834C339.817 338.4 338.777 342.428 337.486 342.428C336.195 342.428 335.155 338.41 335.155 336.834C335.155 335.259 336.223 334 337.5 334C338.777 334 339.817 335.268 339.817 336.834Z" fill="#00B8AE"/>
<path d="M335.183 350.166C335.183 348.599 336.223 344.572 337.514 344.572C338.805 344.572 339.845 348.59 339.845 350.166C339.845 351.741 338.805 353 337.514 353C336.223 353 335.183 351.713 335.183 350.166Z" fill="#00B8AE"/>
<path d="M344.166 345.817C342.6 345.817 338.572 344.782 338.572 343.486C338.572 342.19 342.59 341.155 344.166 341.155C345.741 341.155 347 342.195 347 343.486C347 344.777 345.713 345.817 344.166 345.817Z" fill="#00B8AE"/>
<path d="M330.834 341.183C332.4 341.183 336.428 342.223 336.428 343.514C336.428 344.805 332.41 345.845 330.834 345.845C329.259 345.845 328 344.782 328 343.5C328 342.218 329.268 341.183 330.834 341.183Z" fill="#00B8AE"/>
</g>
<g clip-path="url(#clip29_32_417)">
<path d="M211.376 349.624C211.507 349.727 211.614 349.857 211.689 350.005C211.764 350.153 211.806 350.316 211.811 350.483C211.816 350.649 211.784 350.814 211.718 350.967C211.652 351.12 211.553 351.256 211.429 351.366L195.366 367.429C195.256 367.559 195.118 367.662 194.962 367.732C194.807 367.801 194.637 367.834 194.467 367.829C194.297 367.824 194.13 367.781 193.979 367.702C193.828 367.624 193.696 367.512 193.594 367.376C193.458 367.273 193.346 367.142 193.267 366.991C193.189 366.84 193.145 366.673 193.14 366.502C193.135 366.332 193.169 366.163 193.238 366.007C193.307 365.852 193.411 365.714 193.541 365.603L209.604 349.571C209.714 349.441 209.852 349.338 210.007 349.268C210.163 349.199 210.332 349.166 210.502 349.171C210.673 349.176 210.84 349.219 210.991 349.298C211.142 349.376 211.274 349.488 211.376 349.624V349.624Z" fill="#00B8AE"/>
<path d="M211.376 367.376C211.274 367.512 211.142 367.624 210.991 367.702C210.84 367.781 210.673 367.824 210.502 367.829C210.332 367.834 210.163 367.801 210.007 367.732C209.852 367.662 209.714 367.559 209.604 367.429L193.571 351.366C193.441 351.256 193.338 351.118 193.268 350.962C193.199 350.807 193.166 350.637 193.171 350.467C193.176 350.297 193.219 350.13 193.298 349.979C193.376 349.828 193.488 349.696 193.624 349.594C193.729 349.465 193.861 349.36 194.01 349.288C194.16 349.215 194.324 349.177 194.49 349.174C194.656 349.172 194.821 349.207 194.972 349.275C195.124 349.344 195.258 349.445 195.366 349.571L211.429 365.604C211.559 365.714 211.662 365.852 211.732 366.007C211.801 366.163 211.834 366.332 211.829 366.502C211.824 366.673 211.781 366.84 211.702 366.991C211.624 367.142 211.512 367.274 211.376 367.376V367.376Z" fill="#00B8AE"/>
<path d="M206.28 347.624C206.28 350.18 204.584 356.751 202.477 356.751C200.37 356.751 198.674 350.195 198.674 347.624C198.674 345.053 200.416 343 202.5 343C204.584 343 206.28 345.069 206.28 347.624Z" fill="#00B8AE"/>
<path d="M198.72 369.376C198.72 366.82 200.416 360.249 202.523 360.249C204.63 360.249 206.326 366.805 206.326 369.376C206.326 371.947 204.63 374 202.523 374C200.416 374 198.72 371.901 198.72 369.376Z" fill="#00B8AE"/>
<path d="M213.376 362.28C210.82 362.28 204.249 360.591 204.249 358.477C204.249 356.363 210.805 354.674 213.376 354.674C215.947 354.674 218 356.37 218 358.477C218 360.584 215.901 362.28 213.376 362.28Z" fill="#00B8AE"/>
<path d="M191.624 354.72C194.18 354.72 200.751 356.416 200.751 358.523C200.751 360.629 194.195 362.325 191.624 362.325C189.053 362.325 187 360.591 187 358.5C187 356.408 189.069 354.72 191.624 354.72Z" fill="#00B8AE"/>
</g>
<g clip-path="url(#clip30_32_417)">
<path d="M1057.16 6.83797C1057.3 6.94366 1057.41 7.07783 1057.49 7.23096C1057.56 7.38408 1057.61 7.55241 1057.61 7.724C1057.62 7.89559 1057.58 8.06623 1057.52 8.22381C1057.45 8.38139 1057.35 8.52205 1057.22 8.63581L1040.64 25.2168C1040.52 25.351 1040.38 25.4578 1040.22 25.5294C1040.06 25.601 1039.88 25.6354 1039.71 25.6301C1039.53 25.6248 1039.36 25.58 1039.2 25.4989C1039.05 25.4178 1038.91 25.3026 1038.81 25.1618C1038.67 25.0564 1038.55 24.9207 1038.47 24.7646C1038.39 24.6085 1038.34 24.4362 1038.34 24.2604C1038.33 24.0847 1038.37 23.9099 1038.44 23.7493C1038.51 23.5887 1038.62 23.4462 1038.75 23.3326L1055.33 6.78301C1055.45 6.6488 1055.59 6.54193 1055.75 6.47037C1055.91 6.39881 1056.08 6.36439 1056.26 6.36967C1056.44 6.37495 1056.61 6.4198 1056.76 6.50087C1056.92 6.58195 1057.06 6.69717 1057.16 6.83797V6.83797Z" fill="#00B8AE"/>
<path d="M1057.16 25.162C1057.06 25.3027 1056.92 25.418 1056.76 25.499C1056.61 25.5801 1056.44 25.625 1056.26 25.6303C1056.08 25.6355 1055.91 25.6011 1055.75 25.5295C1055.59 25.458 1055.45 25.3511 1055.33 25.2169L1038.78 8.63595C1038.65 8.5223 1038.54 8.37986 1038.47 8.21922C1038.4 8.05858 1038.36 7.88386 1038.37 7.70808C1038.38 7.5323 1038.42 7.35997 1038.5 7.20391C1038.58 7.04785 1038.7 6.91208 1038.84 6.8067C1038.95 6.67341 1039.08 6.56553 1039.24 6.49068C1039.39 6.41584 1039.56 6.37588 1039.73 6.37364C1039.9 6.37139 1040.07 6.40691 1040.23 6.47768C1040.39 6.54845 1040.52 6.65274 1040.64 6.78315L1057.22 23.3327C1057.35 23.4464 1057.46 23.5888 1057.53 23.7494C1057.6 23.9101 1057.64 24.0848 1057.63 24.2606C1057.62 24.4364 1057.58 24.6087 1057.5 24.7647C1057.42 24.9208 1057.3 25.0566 1057.16 25.162V25.162Z" fill="#00B8AE"/>
<path d="M1051.9 4.77331C1051.9 7.41119 1050.15 14.1943 1047.98 14.1943C1045.8 14.1943 1044.05 7.42689 1044.05 4.77331C1044.05 2.11973 1045.85 0 1048 0C1050.15 0 1051.9 2.13543 1051.9 4.77331Z" fill="#00B8AE"/>
<path d="M1044.1 27.2267C1044.1 24.5888 1045.85 17.8057 1048.02 17.8057C1050.2 17.8057 1051.95 24.5731 1051.95 27.2267C1051.95 29.8802 1050.2 32 1048.02 32C1045.85 32 1044.1 29.8331 1044.1 27.2267Z" fill="#00B8AE"/>
<path d="M1059.23 19.9019C1056.59 19.9019 1049.81 18.159 1049.81 15.9764C1049.81 13.7939 1056.57 12.051 1059.23 12.051C1061.88 12.051 1064 13.8018 1064 15.9764C1064 18.1511 1061.83 19.9019 1059.23 19.9019Z" fill="#00B8AE"/>
<path d="M1036.77 12.0981C1039.41 12.0981 1046.19 13.8489 1046.19 16.0236C1046.19 18.1982 1039.43 19.949 1036.77 19.949C1034.12 19.949 1032 18.159 1032 16C1032 13.841 1034.14 12.0981 1036.77 12.0981Z" fill="#00B8AE"/>
</g>
<g clip-path="url(#clip31_32_417)">
<path d="M3.42 638.58C3.34903 638.528 3.2908 638.46 3.24971 638.382C3.20861 638.304 3.18572 638.218 3.18275 638.13C3.17977 638.042 3.1968 637.954 3.23255 637.874C3.26829 637.793 3.32183 637.722 3.38912 637.665L11.6651 629.389C11.722 629.322 11.7933 629.268 11.8739 629.232C11.9544 629.197 12.042 629.18 12.13 629.183C12.2181 629.186 12.3043 629.209 12.3822 629.25C12.4602 629.291 12.5278 629.349 12.58 629.42C12.6507 629.472 12.7086 629.54 12.7494 629.618C12.7901 629.696 12.8126 629.783 12.8152 629.871C12.8178 629.959 12.8004 630.046 12.7644 630.127C12.7283 630.207 12.6745 630.278 12.607 630.335L4.33484 638.607C4.27827 638.674 4.20713 638.728 4.12677 638.764C4.04641 638.8 3.95892 638.818 3.87087 638.815C3.78283 638.813 3.69652 638.79 3.61843 638.749C3.54033 638.709 3.47249 638.651 3.42 638.58Z" fill="#6B61C4"/>
<path d="M3.42001 629.42C3.47219 629.349 3.5398 629.291 3.61773 629.25C3.69565 629.209 3.78189 629.186 3.86994 629.183C3.95799 629.18 4.04557 629.197 4.12609 629.232C4.20661 629.268 4.27799 629.322 4.33484 629.389L12.607 637.665C12.6745 637.722 12.7283 637.793 12.7644 637.873C12.8004 637.953 12.8178 638.041 12.8152 638.129C12.8126 638.217 12.7901 638.303 12.7494 638.381C12.7086 638.46 12.6507 638.527 12.58 638.58C12.5275 638.651 12.4596 638.709 12.3815 638.749C12.3034 638.79 12.2171 638.813 12.1291 638.815C12.041 638.818 11.9536 638.8 11.8732 638.764C11.7928 638.728 11.7217 638.674 11.6651 638.607L3.38913 630.335C3.32183 630.278 3.26829 630.207 3.23255 630.126C3.1968 630.046 3.17977 629.958 3.18275 629.87C3.18572 629.782 3.20861 629.696 3.24971 629.618C3.2908 629.54 3.34903 629.472 3.42001 629.42Z" fill="#6B61C4"/>
<path d="M6.04876 639.611C6.04876 638.294 6.92114 634.913 7.9981 634.913C9.07506 634.913 9.95129 638.294 9.95129 639.611C9.95129 640.927 9.07506 642 7.9981 642C6.92114 642 6.04876 640.931 6.04876 639.611Z" fill="#6B61C4"/>
<path d="M9.95129 628.386C9.95129 629.706 9.07506 633.087 7.9981 633.087C6.92114 633.087 6.04876 629.706 6.04876 628.386C6.04876 627.065 6.92114 626 7.9981 626C9.07506 626 9.95129 627.069 9.95129 628.386Z" fill="#6B61C4"/>
<path d="M2.38553 632.049C3.70567 632.049 7.0871 632.921 7.0871 633.998C7.0871 635.075 3.70567 635.951 2.38553 635.951C1.06538 635.951 4.45798e-06 635.075 4.55213e-06 633.998C4.64628e-06 632.921 1.06924 632.049 2.38553 632.049Z" fill="#6B61C4"/>
<path d="M13.6106 635.951C12.2943 635.951 8.91291 635.075 8.91291 633.998C8.91291 632.921 12.2943 632.049 13.6106 632.049C14.9269 632.049 16 632.921 16 633.998C16 635.075 14.9308 635.951 13.6106 635.951Z" fill="#6B61C4"/>
</g>
<defs>
<clipPath id="clip0_32_417">
<rect width="33" height="33" fill="white" transform="translate(1443 92)"/>
</clipPath>
<clipPath id="clip1_32_417">
<rect width="21" height="21" fill="white" transform="translate(28 92)"/>
</clipPath>
<clipPath id="clip2_32_417">
<rect width="26" height="26" fill="white" transform="translate(1379 348)"/>
</clipPath>
<clipPath id="clip3_32_417">
<rect width="42" height="42" fill="white" transform="translate(1154 338)"/>
</clipPath>
<clipPath id="clip4_32_417">
<rect width="20" height="20" fill="white" transform="translate(409 397)"/>
</clipPath>
<clipPath id="clip5_32_417">
<rect width="16" height="16" fill="white" transform="translate(1149 589)"/>
</clipPath>
<clipPath id="clip6_32_417">
<rect width="19" height="19" fill="white" transform="translate(435 339)"/>
</clipPath>
<clipPath id="clip7_32_417">
<rect width="42" height="42" fill="white" transform="translate(252 322)"/>
</clipPath>
<clipPath id="clip8_32_417">
<rect width="21" height="21" fill="white" transform="translate(1170 665)"/>
</clipPath>
<clipPath id="clip9_32_417">
<rect width="55" height="55" fill="white" transform="translate(370 583)"/>
</clipPath>
<clipPath id="clip10_32_417">
<rect width="28" height="28" fill="white" transform="translate(1082 591)"/>
</clipPath>
<clipPath id="clip11_32_417">
<rect width="36" height="36" fill="white" transform="translate(1043 403)"/>
</clipPath>
<clipPath id="clip12_32_417">
<rect width="25" height="25" fill="white" transform="translate(583 104)"/>
</clipPath>
<clipPath id="clip13_32_417">
<rect width="43" height="43" fill="white" transform="translate(1044 131)"/>
</clipPath>
<clipPath id="clip14_32_417">
<rect width="21" height="21" fill="white" transform="translate(1104 630)"/>
</clipPath>
<clipPath id="clip15_32_417">
<rect width="21" height="21" fill="white" transform="translate(294 350)"/>
</clipPath>
<clipPath id="clip16_32_417">
<rect width="23" height="23" fill="white" transform="translate(477 501)"/>
</clipPath>
<clipPath id="clip17_32_417">
<rect width="14" height="14" fill="white" transform="translate(153 314)"/>
</clipPath>
<clipPath id="clip18_32_417">
<rect width="26" height="26" fill="white" transform="translate(1080 184)"/>
</clipPath>
<clipPath id="clip19_32_417">
<rect width="16" height="16" fill="white" transform="translate(1118 370)"/>
</clipPath>
<clipPath id="clip20_32_417">
<rect width="25" height="25" fill="white" transform="translate(967 466)"/>
</clipPath>
<clipPath id="clip21_32_417">
<rect width="25" height="25" fill="white" transform="translate(1010 465)"/>
</clipPath>
<clipPath id="clip22_32_417">
<rect width="55" height="55" fill="white" transform="translate(448 430)"/>
</clipPath>
<clipPath id="clip23_32_417">
<rect width="15" height="15" fill="white" transform="translate(525 466)"/>
</clipPath>
<clipPath id="clip24_32_417">
<rect width="29" height="29" fill="white" transform="translate(26 344)"/>
</clipPath>
<clipPath id="clip25_32_417">
<rect width="19" height="19" fill="white" transform="translate(1101 452)"/>
</clipPath>
<clipPath id="clip26_32_417">
<rect width="50" height="50" fill="white" transform="translate(1199 608)"/>
</clipPath>
<clipPath id="clip27_32_417">
<rect width="19" height="19" fill="white" transform="translate(433 573)"/>
</clipPath>
<clipPath id="clip28_32_417">
<rect width="19" height="19" fill="white" transform="translate(328 334)"/>
</clipPath>
<clipPath id="clip29_32_417">
<rect width="31" height="31" fill="white" transform="translate(187 343)"/>
</clipPath>
<clipPath id="clip30_32_417">
<rect width="32" height="32" fill="white" transform="translate(1032)"/>
</clipPath>
<clipPath id="clip31_32_417">
<rect width="16" height="16" fill="white" transform="translate(16 642) rotate(-180)"/>
</clipPath>
</defs>
</svg>
