<svg width="503" height="482" viewBox="0 0 503 482" fill="none" xmlns="http://www.w3.org/2000/svg">
<g clip-path="url(#clip0_196_7838)">
<g clip-path="url(#clip1_196_7838)">
<path d="M-174.206 289.374L681.759 477.556L681.759 159.686L-216.857 -28.496L-174.206 289.374Z" fill="url(#paint0_linear_196_7838)" stroke="#FCEA00" stroke-width="2.37" stroke-miterlimit="10"/>
<path d="M-151.376 459.78L601.614 459.78L-174.206 289.374L-151.376 459.78Z" fill="#FCEA00" stroke="#FCEA00" stroke-width="2.37" stroke-miterlimit="10"/>
<path d="M-82.3476 224.545L-82.3476 -0.3302L2.68555 17.4761L2.68555 224.545H-82.3476Z" fill="#FCEA00"/>
<path d="M87.6889 224.545L87.6889 35.2823L172.722 53.0886L172.722 224.545H87.6889Z" fill="#0080C8"/>
<path d="M172.722 224.545V53.0889L257.726 70.8951V224.545H172.722Z" fill="url(#paint1_linear_196_7838)"/>
<path d="M2.68555 224.545L2.68555 17.4756L87.689 35.2818L87.689 224.545H2.68555Z" fill="url(#paint2_linear_196_7838)"/>
<path d="M87.6889 346.907L87.6889 224.545H172.722L172.722 365.584L87.6889 346.907Z" fill="url(#paint3_linear_196_7838)"/>
<path d="M2.68555 328.23L2.68555 224.545H87.689L87.689 346.907L2.68555 328.23Z" fill="url(#paint4_linear_196_7838)"/>
<path d="M257.726 224.545V70.8945L342.759 88.7008V224.545H257.726Z" fill="url(#paint5_linear_196_7838)"/>
<path d="M427.792 421.585V224.545H512.795V440.262L427.792 421.585Z" fill="#00B8AE"/>
<path d="M342.759 402.908V224.545H427.792V421.585L342.759 402.908Z" fill="url(#paint6_linear_196_7838)"/>
<path d="M172.722 365.584V224.545H257.726V384.261L172.722 365.584Z" fill="url(#paint7_linear_196_7838)"/>
<path d="M257.726 384.261V224.545H342.759V402.908L257.726 384.261Z" fill="#8F41C6"/>
<path d="M-82.3476 309.553L-82.3476 224.545H2.68555L2.68555 328.23L-82.3476 309.553Z" fill="url(#paint8_linear_196_7838)"/>
<path d="M342.759 224.545V88.701L427.792 106.507V224.545H342.759Z" fill="#F753C3"/>
<path d="M427.792 224.546V106.508L512.795 124.314V224.546H427.792Z" fill="url(#paint9_linear_196_7838)"/>
<path d="M427.792 421.736V459.78H342.759V403.059L427.792 421.736Z" fill="#FCEA00"/>
<path d="M257.726 384.351V459.779H172.722V365.644L257.726 384.351Z" fill="#00B8AE"/>
<path d="M512.795 440.412V459.78H427.792V421.735L512.795 440.412Z" fill="#8F41C6"/>
<path d="M172.722 365.644V459.78H87.6889L87.6889 346.967L172.722 365.644Z" fill="#FCEA00"/>
<path d="M342.759 403.058V459.779H257.726V384.351L342.759 403.058Z" fill="#FCEA00"/>
<path d="M87.689 346.967L87.689 459.78H2.68555L2.68555 328.26L87.689 346.967Z" fill="#F753C3"/>
<path d="M2.68555 328.26L2.68555 459.78H-82.3476L-82.3476 309.583L2.68555 328.26Z" fill="#0080C8"/>
<path d="M87.689 346.907V346.967L2.68555 328.26V328.229L87.689 346.907Z" fill="#FCEA00"/>
<path d="M2.68555 328.23V328.26L-82.3476 309.583V309.552L2.68555 328.23Z" fill="#FCEA00"/>
<path d="M427.792 421.585V421.735L342.759 403.058V402.908L427.792 421.585Z" fill="#FCEA00"/>
<path d="M512.795 440.262V440.412L427.792 421.735V421.585L512.795 440.262Z" fill="#FCEA00"/>
<path d="M172.722 365.583V365.643L87.6889 346.966V346.906L172.722 365.583Z" fill="#FCEA00"/>
<path d="M257.726 384.261V384.351L172.722 365.644V365.584L257.726 384.261Z" fill="#FCEA00"/>
<path d="M342.759 402.908V403.058L257.726 384.351V384.261L342.759 402.908Z" fill="#FCEA00"/>
<path d="M-174.206 289.374L681.759 477.556L681.759 159.686L-216.857 -28.496L-174.206 289.374Z" stroke="#FCEA00" stroke-width="2.37" stroke-miterlimit="10"/>
<path d="M-151.376 459.78L601.614 459.78L-174.206 289.374L-151.376 459.78Z" stroke="#FCEA00" stroke-width="2.37" stroke-miterlimit="10"/>
</g>
</g>
<defs>
<linearGradient id="paint0_linear_196_7838" x1="681.759" y1="224.545" x2="-216.827" y2="224.545" gradientUnits="userSpaceOnUse">
<stop offset="0.02" stop-color="#00B8AE" stop-opacity="0"/>
<stop offset="0.14" stop-color="#00B8AE"/>
<stop offset="0.19" stop-color="#00B8AE"/>
<stop offset="0.35" stop-color="#F753C3"/>
<stop offset="0.41" stop-color="#F753C3"/>
<stop offset="0.57" stop-color="#0080C8"/>
<stop offset="0.63" stop-color="#0080C8"/>
<stop offset="0.81" stop-color="#FCEA00"/>
<stop offset="0.88" stop-color="#FCEA00" stop-opacity="0.59"/>
<stop offset="0.96" stop-color="#FCEA00" stop-opacity="0.17"/>
<stop offset="0.99" stop-color="#FCEA00" stop-opacity="0"/>
</linearGradient>
<linearGradient id="paint1_linear_196_7838" x1="681.759" y1="138.817" x2="-216.827" y2="138.817" gradientUnits="userSpaceOnUse">
<stop offset="0.02" stop-color="#00B8AE" stop-opacity="0"/>
<stop offset="0.14" stop-color="#00B8AE"/>
<stop offset="0.19" stop-color="#00B8AE"/>
<stop offset="0.35" stop-color="#F753C3"/>
<stop offset="0.41" stop-color="#F753C3"/>
<stop offset="0.57" stop-color="#0080C8"/>
<stop offset="0.63" stop-color="#0080C8"/>
<stop offset="0.81" stop-color="#FCEA00"/>
<stop offset="0.88" stop-color="#FCEA00" stop-opacity="0.59"/>
<stop offset="0.96" stop-color="#FCEA00" stop-opacity="0.17"/>
<stop offset="0.99" stop-color="#FCEA00" stop-opacity="0"/>
</linearGradient>
<linearGradient id="paint2_linear_196_7838" x1="681.759" y1="121.01" x2="-216.827" y2="121.01" gradientUnits="userSpaceOnUse">
<stop offset="0.02" stop-color="#00B8AE" stop-opacity="0"/>
<stop offset="0.14" stop-color="#00B8AE"/>
<stop offset="0.19" stop-color="#00B8AE"/>
<stop offset="0.35" stop-color="#F753C3"/>
<stop offset="0.41" stop-color="#F753C3"/>
<stop offset="0.57" stop-color="#0080C8"/>
<stop offset="0.63" stop-color="#0080C8"/>
<stop offset="0.81" stop-color="#FCEA00"/>
<stop offset="0.88" stop-color="#FCEA00" stop-opacity="0.59"/>
<stop offset="0.96" stop-color="#FCEA00" stop-opacity="0.17"/>
<stop offset="0.99" stop-color="#FCEA00" stop-opacity="0"/>
</linearGradient>
<linearGradient id="paint3_linear_196_7838" x1="681.759" y1="295.049" x2="-216.827" y2="295.049" gradientUnits="userSpaceOnUse">
<stop offset="0.02" stop-color="#00B8AE" stop-opacity="0"/>
<stop offset="0.14" stop-color="#00B8AE"/>
<stop offset="0.19" stop-color="#00B8AE"/>
<stop offset="0.35" stop-color="#F753C3"/>
<stop offset="0.41" stop-color="#F753C3"/>
<stop offset="0.57" stop-color="#0080C8"/>
<stop offset="0.63" stop-color="#0080C8"/>
<stop offset="0.81" stop-color="#FCEA00"/>
<stop offset="0.88" stop-color="#FCEA00" stop-opacity="0.59"/>
<stop offset="0.96" stop-color="#FCEA00" stop-opacity="0.17"/>
<stop offset="0.99" stop-color="#FCEA00" stop-opacity="0"/>
</linearGradient>
<linearGradient id="paint4_linear_196_7838" x1="681.759" y1="285.711" x2="-216.827" y2="285.711" gradientUnits="userSpaceOnUse">
<stop offset="0.02" stop-color="#00B8AE" stop-opacity="0"/>
<stop offset="0.14" stop-color="#00B8AE"/>
<stop offset="0.19" stop-color="#00B8AE"/>
<stop offset="0.35" stop-color="#F753C3"/>
<stop offset="0.41" stop-color="#F753C3"/>
<stop offset="0.57" stop-color="#0080C8"/>
<stop offset="0.63" stop-color="#0080C8"/>
<stop offset="0.81" stop-color="#FCEA00"/>
<stop offset="0.88" stop-color="#FCEA00" stop-opacity="0.59"/>
<stop offset="0.96" stop-color="#FCEA00" stop-opacity="0.17"/>
<stop offset="0.99" stop-color="#FCEA00" stop-opacity="0"/>
</linearGradient>
<linearGradient id="paint5_linear_196_7838" x1="681.759" y1="147.705" x2="-216.827" y2="147.705" gradientUnits="userSpaceOnUse">
<stop offset="0.02" stop-color="#00B8AE" stop-opacity="0"/>
<stop offset="0.14" stop-color="#00B8AE"/>
<stop offset="0.19" stop-color="#00B8AE"/>
<stop offset="0.35" stop-color="#F753C3"/>
<stop offset="0.41" stop-color="#F753C3"/>
<stop offset="0.57" stop-color="#0080C8"/>
<stop offset="0.63" stop-color="#0080C8"/>
<stop offset="0.81" stop-color="#FCEA00"/>
<stop offset="0.88" stop-color="#FCEA00" stop-opacity="0.59"/>
<stop offset="0.96" stop-color="#FCEA00" stop-opacity="0.17"/>
<stop offset="0.99" stop-color="#FCEA00" stop-opacity="0"/>
</linearGradient>
<linearGradient id="paint6_linear_196_7838" x1="681.759" y1="323.065" x2="-216.827" y2="323.065" gradientUnits="userSpaceOnUse">
<stop offset="0.02" stop-color="#00B8AE" stop-opacity="0"/>
<stop offset="0.14" stop-color="#00B8AE"/>
<stop offset="0.19" stop-color="#00B8AE"/>
<stop offset="0.35" stop-color="#F753C3"/>
<stop offset="0.41" stop-color="#F753C3"/>
<stop offset="0.57" stop-color="#0080C8"/>
<stop offset="0.63" stop-color="#0080C8"/>
<stop offset="0.81" stop-color="#FCEA00"/>
<stop offset="0.88" stop-color="#FCEA00" stop-opacity="0.59"/>
<stop offset="0.96" stop-color="#FCEA00" stop-opacity="0.17"/>
<stop offset="0.99" stop-color="#FCEA00" stop-opacity="0"/>
</linearGradient>
<linearGradient id="paint7_linear_196_7838" x1="681.759" y1="304.388" x2="-216.827" y2="304.388" gradientUnits="userSpaceOnUse">
<stop offset="0.02" stop-color="#00B8AE" stop-opacity="0"/>
<stop offset="0.14" stop-color="#00B8AE"/>
<stop offset="0.19" stop-color="#00B8AE"/>
<stop offset="0.35" stop-color="#F753C3"/>
<stop offset="0.41" stop-color="#F753C3"/>
<stop offset="0.57" stop-color="#0080C8"/>
<stop offset="0.63" stop-color="#0080C8"/>
<stop offset="0.81" stop-color="#FCEA00"/>
<stop offset="0.88" stop-color="#FCEA00" stop-opacity="0.59"/>
<stop offset="0.96" stop-color="#FCEA00" stop-opacity="0.17"/>
<stop offset="0.99" stop-color="#FCEA00" stop-opacity="0"/>
</linearGradient>
<linearGradient id="paint8_linear_196_7838" x1="681.729" y1="276.372" x2="-216.827" y2="276.372" gradientUnits="userSpaceOnUse">
<stop offset="0.02" stop-color="#00B8AE" stop-opacity="0"/>
<stop offset="0.14" stop-color="#00B8AE"/>
<stop offset="0.19" stop-color="#00B8AE"/>
<stop offset="0.35" stop-color="#F753C3"/>
<stop offset="0.41" stop-color="#F753C3"/>
<stop offset="0.57" stop-color="#0080C8"/>
<stop offset="0.63" stop-color="#0080C8"/>
<stop offset="0.81" stop-color="#FCEA00"/>
<stop offset="0.88" stop-color="#FCEA00" stop-opacity="0.59"/>
<stop offset="0.96" stop-color="#FCEA00" stop-opacity="0.17"/>
<stop offset="0.99" stop-color="#FCEA00" stop-opacity="0"/>
</linearGradient>
<linearGradient id="paint9_linear_196_7838" x1="681.759" y1="165.512" x2="-216.827" y2="165.512" gradientUnits="userSpaceOnUse">
<stop offset="0.02" stop-color="#00B8AE" stop-opacity="0"/>
<stop offset="0.14" stop-color="#00B8AE"/>
<stop offset="0.19" stop-color="#00B8AE"/>
<stop offset="0.35" stop-color="#F753C3"/>
<stop offset="0.41" stop-color="#F753C3"/>
<stop offset="0.57" stop-color="#0080C8"/>
<stop offset="0.63" stop-color="#0080C8"/>
<stop offset="0.81" stop-color="#FCEA00"/>
<stop offset="0.88" stop-color="#FCEA00" stop-opacity="0.59"/>
<stop offset="0.96" stop-color="#FCEA00" stop-opacity="0.17"/>
<stop offset="0.99" stop-color="#FCEA00" stop-opacity="0"/>
</linearGradient>
<clipPath id="clip0_196_7838">
<rect width="503" height="482" fill="white"/>
</clipPath>
<clipPath id="clip1_196_7838">
<rect width="724" height="515" fill="white" transform="matrix(-1 0 0 1 503 -33)"/>
</clipPath>
</defs>
</svg>
