<svg width="393" height="97" viewBox="0 0 393 97" fill="none" xmlns="http://www.w3.org/2000/svg">
<g clip-path="url(#clip0_194_1480)">
<path d="M270.896 227.201H-60.1641L12.5815 26.3668H270.896V227.201Z" fill="url(#paint0_linear_194_1480)" stroke="#FCEA00" stroke-width="2.37" stroke-miterlimit="10"/>
<path d="M123.548 227.201L-23.7832 126.784L123.548 26.3668L270.896 126.784L123.548 227.201Z" fill="#F753C3"/>
<path d="M160.386 26.3668H123.549L160.386 51.4628V26.3668Z" fill="#0080C8"/>
<path d="M270.898 126.784V26.3668H234.061V101.671L270.898 126.784Z" fill="#FF7D00"/>
<path d="M86.712 51.4628V26.3668H49.875V76.5754L86.712 51.4628Z" fill="#F753C3"/>
<path d="M197.222 76.5754L160.385 51.4628V126.784H197.222V76.5754Z" fill="#F753C3"/>
<path d="M234.06 126.784V101.671L197.223 76.5754V126.784H234.06Z" fill="#FF7D00"/>
<path d="M86.7109 126.784H123.548V26.3668L86.7109 51.4628V126.784Z" fill="#F753C3"/>
<path d="M49.875 76.5754V126.784H86.712V51.4628L49.875 76.5754Z" fill="#FCEA00"/>
<path d="M160.386 126.784V51.4628L123.549 26.3668V126.784H160.386Z" fill="#F753C3"/>
<path d="M49.8741 126.784V76.5754L13.0371 101.671V126.784H49.8741Z" fill="#F753C3"/>
<path d="M270.896 227.201H-60.1641L12.5815 26.3668H270.896V227.201Z" stroke="#FCEA00" stroke-width="2.37" stroke-miterlimit="10"/>
<path d="M123.548 227.201L-23.7832 126.784L123.548 26.3668L270.896 126.784L123.548 227.201Z" stroke="#FCEA00" stroke-width="2.37" stroke-miterlimit="10"/>
<g clip-path="url(#clip1_194_1480)">
<path d="M193.077 37.8146C193.005 37.8674 192.945 37.9357 192.903 38.0145C192.861 38.0933 192.838 38.1805 192.835 38.2695C192.832 38.3585 192.849 38.447 192.886 38.5284C192.922 38.6098 192.977 38.682 193.046 38.7395L201.501 47.1058C201.559 47.1739 201.632 47.228 201.714 47.2641C201.796 47.3002 201.886 47.3175 201.975 47.3145C202.065 47.3115 202.154 47.2883 202.233 47.2468C202.313 47.2052 202.382 47.1464 202.435 47.0746C202.507 47.0215 202.567 46.953 202.608 46.874C202.65 46.7951 202.673 46.7078 202.676 46.6188C202.678 46.5298 202.66 46.4414 202.624 46.3601C202.587 46.2789 202.532 46.207 202.463 46.1498L194.012 37.7873C193.954 37.7191 193.881 37.6647 193.799 37.6282C193.717 37.5917 193.628 37.5742 193.538 37.5768C193.448 37.5794 193.36 37.6022 193.28 37.6434C193.2 37.6846 193.131 37.7431 193.077 37.8146Z" fill="#007EC6"/>
<path d="M193.077 47.0746C193.131 47.1464 193.2 47.2052 193.279 47.2468C193.359 47.2883 193.447 47.3115 193.537 47.3145C193.627 47.3175 193.716 47.3002 193.799 47.2641C193.881 47.228 193.954 47.1739 194.012 47.1058L202.463 38.7395C202.532 38.6823 202.587 38.6104 202.624 38.5291C202.66 38.4479 202.678 38.3594 202.676 38.2704C202.673 38.1814 202.65 38.0942 202.608 38.0152C202.567 37.9363 202.507 37.8677 202.435 37.8146C202.382 37.7431 202.312 37.6846 202.232 37.6434C202.153 37.6022 202.064 37.5794 201.975 37.5768C201.885 37.5742 201.795 37.5917 201.713 37.6282C201.631 37.6647 201.558 37.7191 201.501 37.7873L193.046 46.1498C192.977 46.2073 192.922 46.2794 192.886 46.3608C192.849 46.4422 192.832 46.5308 192.835 46.6198C192.838 46.7088 192.861 46.7959 192.903 46.8747C192.945 46.9535 193.005 47.0218 193.077 47.0746Z" fill="#007EC6"/>
<path d="M195.763 36.7728C195.763 38.1034 196.654 41.5218 197.755 41.5218C198.855 41.5218 199.75 38.1034 199.75 36.7728C199.75 35.4421 198.855 34.3573 197.755 34.3573C196.654 34.3573 195.763 35.4382 195.763 36.7728Z" fill="#007EC6"/>
<path d="M199.75 48.1205C199.75 46.7859 198.855 43.3676 197.755 43.3676C196.654 43.3676 195.763 46.7859 195.763 48.1205C195.763 49.455 196.654 50.532 197.755 50.532C198.855 50.532 199.75 49.4511 199.75 48.1205Z" fill="#007EC6"/>
<path d="M192.021 44.4172C193.37 44.4172 196.824 43.5353 196.824 42.4466C196.824 41.3578 193.37 40.472 192.021 40.472C190.672 40.472 189.584 41.3578 189.584 42.4466C189.584 43.5353 190.676 44.4172 192.021 44.4172Z" fill="#007EC6"/>
<path d="M203.489 40.472C202.144 40.472 198.689 41.3578 198.689 42.4466C198.689 43.5353 202.144 44.4172 203.489 44.4172C204.833 44.4172 205.93 43.5353 205.93 42.4466C205.93 41.3578 204.837 40.472 203.489 40.472Z" fill="#007EC6"/>
</g>
<g clip-path="url(#clip2_194_1480)">
<path d="M238.112 62.353C238.05 62.3982 237.999 62.4568 237.963 62.5243C237.927 62.5919 237.907 62.6666 237.905 62.7429C237.902 62.8192 237.917 62.8951 237.948 62.9648C237.98 63.0346 238.027 63.0965 238.085 63.1457L245.332 70.3169C245.382 70.3752 245.445 70.4216 245.515 70.4526C245.586 70.4835 245.662 70.4983 245.74 70.4957C245.817 70.4931 245.892 70.4733 245.96 70.4377C246.029 70.4021 246.088 70.3516 246.134 70.2901C246.196 70.2446 246.246 70.1859 246.282 70.1182C246.318 70.0505 246.337 69.9757 246.34 69.8994C246.342 69.8232 246.327 69.7473 246.295 69.6777C246.263 69.6081 246.216 69.5464 246.157 69.4974L238.914 62.3296C238.864 62.2711 238.802 62.2245 238.731 62.1932C238.661 62.162 238.584 62.1469 238.507 62.1491C238.43 62.1514 238.355 62.1709 238.286 62.2062C238.218 62.2415 238.158 62.2917 238.112 62.353Z" fill="#FF7D00"/>
<path d="M238.112 70.2901C238.158 70.3516 238.217 70.4021 238.286 70.4377C238.354 70.4733 238.429 70.4931 238.506 70.4957C238.584 70.4983 238.66 70.4835 238.731 70.4526C238.801 70.4216 238.864 70.3752 238.914 70.3169L246.157 63.1457C246.216 63.0967 246.263 63.0351 246.295 62.9654C246.327 62.8958 246.342 62.82 246.34 62.7437C246.337 62.6674 246.318 62.5926 246.282 62.5249C246.246 62.4573 246.196 62.3985 246.134 62.353C246.088 62.2917 246.028 62.2415 245.96 62.2062C245.891 62.1709 245.816 62.1514 245.739 62.1491C245.662 62.1469 245.585 62.162 245.515 62.1932C245.444 62.2245 245.382 62.2711 245.332 62.3296L238.085 69.4974C238.027 69.5467 237.98 69.6085 237.948 69.6783C237.917 69.7481 237.902 69.824 237.905 69.9003C237.907 69.9766 237.927 70.0513 237.963 70.1188C237.999 70.1863 238.05 70.2449 238.112 70.2901Z" fill="#FF7D00"/>
<path d="M240.415 61.4599C240.415 62.6005 241.179 65.5305 242.122 65.5305C243.065 65.5305 243.832 62.6005 243.832 61.4599C243.832 60.3194 243.065 59.3895 242.122 59.3895C241.179 59.3895 240.415 60.316 240.415 61.4599Z" fill="#FF7D00"/>
<path d="M243.832 71.1865C243.832 70.0426 243.065 67.1125 242.122 67.1125C241.179 67.1125 240.415 70.0426 240.415 71.1865C240.415 72.3304 241.179 73.2535 242.122 73.2535C243.065 73.2535 243.832 72.327 243.832 71.1865Z" fill="#FF7D00"/>
<path d="M237.207 68.0123C238.363 68.0123 241.324 67.2564 241.324 66.3232C241.324 65.39 238.363 64.6307 237.207 64.6307C236.051 64.6307 235.118 65.39 235.118 66.3232C235.118 67.2564 236.055 68.0123 237.207 68.0123Z" fill="#FF7D00"/>
<path d="M247.037 64.6307C245.884 64.6307 242.923 65.39 242.923 66.3232C242.923 67.2564 245.884 68.0123 247.037 68.0123C248.189 68.0123 249.129 67.2564 249.129 66.3232C249.129 65.39 248.193 64.6307 247.037 64.6307Z" fill="#FF7D00"/>
</g>
<g clip-path="url(#clip3_194_1480)">
<path d="M215.043 47.9979C215.015 48.0181 214.992 48.0442 214.976 48.0743C214.961 48.1043 214.952 48.1376 214.951 48.1715C214.95 48.2054 214.957 48.2391 214.971 48.2701C214.985 48.301 215.006 48.3284 215.032 48.3501L218.252 51.5358C218.274 51.5619 218.301 51.5827 218.333 51.5966C218.364 51.6106 218.398 51.6173 218.432 51.6163C218.466 51.6154 218.5 51.6067 218.53 51.591C218.561 51.5753 218.587 51.5529 218.608 51.5256C218.635 51.5054 218.657 51.4793 218.673 51.4493C218.689 51.4194 218.698 51.3863 218.699 51.3525C218.7 51.3187 218.694 51.285 218.68 51.2541C218.666 51.2231 218.646 51.1955 218.62 51.1735L215.398 47.9857C215.376 47.9601 215.348 47.9397 215.317 47.9262C215.286 47.9126 215.252 47.9062 215.218 47.9074C215.183 47.9085 215.15 47.9173 215.12 47.9329C215.089 47.9486 215.063 47.9708 215.043 47.9979Z" fill="#D50400"/>
<path d="M215.043 51.5256C215.063 51.5526 215.09 51.5746 215.12 51.5901C215.15 51.6056 215.184 51.6141 215.218 51.6151C215.252 51.6161 215.286 51.6095 215.317 51.5957C215.349 51.582 215.376 51.5615 215.398 51.5358L218.62 48.3501C218.646 48.328 218.666 48.3004 218.68 48.2695C218.694 48.2385 218.7 48.2049 218.699 48.1711C218.698 48.1373 218.689 48.1042 218.673 48.0742C218.657 48.0442 218.635 48.0181 218.608 47.9979C218.587 47.9708 218.561 47.9486 218.53 47.9329C218.5 47.9173 218.467 47.9085 218.433 47.9074C218.398 47.9062 218.364 47.9126 218.333 47.9262C218.302 47.9397 218.274 47.9601 218.252 47.9857L215.032 51.1735C215.006 51.1954 214.986 51.2228 214.972 51.2537C214.958 51.2846 214.951 51.3182 214.952 51.352C214.953 51.3858 214.962 51.4189 214.977 51.449C214.993 51.479 215.015 51.5052 215.043 51.5256Z" fill="#D50400"/>
<path d="M216.068 47.601C216.068 48.1079 216.407 49.4107 216.827 49.4107C217.247 49.4107 217.586 48.1058 217.586 47.601C217.586 47.0962 217.244 46.6809 216.827 46.6809C216.409 46.6809 216.068 47.088 216.068 47.601Z" fill="#D50400"/>
<path d="M217.586 51.9226C217.586 51.4157 217.244 50.1129 216.827 50.1129C216.409 50.1129 216.068 51.4157 216.068 51.9226C216.068 52.4294 216.407 52.8427 216.827 52.8427C217.247 52.8427 217.586 52.4294 217.586 51.9226Z" fill="#D50400"/>
<path d="M214.642 50.5119C215.154 50.5119 216.471 50.176 216.471 49.7608C216.471 49.3455 215.154 49.0096 214.642 49.0096C214.13 49.0096 213.712 49.3476 213.712 49.7608C213.712 50.174 214.13 50.5119 214.642 50.5119Z" fill="#D50400"/>
<path d="M219.01 49.0096C218.497 49.0096 217.181 49.3476 217.181 49.7608C217.181 50.174 218.499 50.5119 219.01 50.5119C219.52 50.5119 219.939 50.176 219.939 49.7608C219.939 49.3455 219.528 49.0096 219.01 49.0096Z" fill="#D50400"/>
</g>
<g clip-path="url(#clip4_194_1480)">
<path d="M271.058 85.7094C271.015 85.7409 270.98 85.7817 270.955 85.8287C270.93 85.8757 270.916 85.9277 270.915 85.9807C270.913 86.0337 270.924 86.0863 270.946 86.1347C270.968 86.183 271.001 86.2258 271.042 86.2597L276.072 91.2374C276.107 91.2781 276.15 91.3106 276.199 91.3324C276.247 91.3542 276.301 91.3648 276.354 91.3633C276.408 91.3617 276.46 91.3482 276.508 91.3236C276.555 91.299 276.596 91.2641 276.628 91.2215C276.671 91.1898 276.706 91.1491 276.731 91.1023C276.756 91.0555 276.769 91.0037 276.771 90.9509C276.773 90.8981 276.763 90.8456 276.742 90.7972C276.72 90.7488 276.688 90.7057 276.648 90.6712L271.614 85.6903C271.579 85.6503 271.536 85.6185 271.487 85.5974C271.438 85.5762 271.385 85.5661 271.331 85.568C271.278 85.5698 271.226 85.5835 271.178 85.6079C271.131 85.6324 271.09 85.6671 271.058 85.7094Z" fill="#D50400"/>
<path d="M271.058 91.2215C271.09 91.2636 271.132 91.298 271.179 91.3222C271.226 91.3464 271.279 91.3598 271.332 91.3613C271.385 91.3628 271.439 91.3525 271.487 91.3311C271.536 91.3096 271.579 91.2776 271.614 91.2374L276.648 86.2597C276.688 86.2252 276.72 86.1822 276.742 86.1337C276.763 86.0853 276.773 86.0328 276.771 85.98C276.769 85.9272 276.756 85.8754 276.731 85.8286C276.706 85.7818 276.671 85.7411 276.628 85.7094C276.596 85.6671 276.555 85.6324 276.508 85.6079C276.461 85.5835 276.408 85.5698 276.355 85.568C276.302 85.5661 276.248 85.5762 276.199 85.5974C276.151 85.6185 276.107 85.6503 276.072 85.6903L271.042 90.6712C271.001 90.7055 270.969 90.7483 270.947 90.7966C270.926 90.8449 270.915 90.8974 270.917 90.9502C270.918 91.003 270.932 91.0548 270.956 91.1017C270.981 91.1487 271.015 91.1896 271.058 91.2215Z" fill="#D50400"/>
<path d="M272.657 85.0893C272.657 85.8812 273.188 87.9168 273.843 87.9168C274.499 87.9168 275.029 85.8781 275.029 85.0893C275.029 84.3005 274.496 83.6516 273.843 83.6516C273.191 83.6516 272.657 84.2877 272.657 85.0893Z" fill="#D50400"/>
<path d="M275.029 91.8417C275.029 91.0498 274.496 89.0142 273.843 89.0142C273.191 89.0142 272.657 91.0498 272.657 91.8417C272.657 92.6337 273.188 93.2794 273.843 93.2794C274.499 93.2794 275.029 92.6337 275.029 91.8417Z" fill="#D50400"/>
<path d="M270.43 89.6376C271.23 89.6376 273.287 89.1128 273.287 88.4639C273.287 87.8151 271.23 87.2903 270.43 87.2903C269.629 87.2903 268.977 87.8183 268.977 88.4639C268.977 89.1096 269.629 89.6376 270.43 89.6376Z" fill="#D50400"/>
<path d="M277.254 87.2903C276.454 87.2903 274.397 87.8183 274.397 88.4639C274.397 89.1096 276.457 89.6376 277.254 89.6376C278.051 89.6376 278.707 89.1128 278.707 88.4639C278.707 87.8151 278.064 87.2903 277.254 87.2903Z" fill="#D50400"/>
</g>
<g clip-path="url(#clip5_194_1480)">
<path d="M254.324 85.3243C254.28 85.3558 254.245 85.3966 254.22 85.4436C254.196 85.4906 254.182 85.5426 254.18 85.5956C254.179 85.6486 254.189 85.7012 254.211 85.7495C254.233 85.7979 254.266 85.8406 254.307 85.8746L259.338 90.8522C259.372 90.893 259.415 90.9255 259.464 90.9473C259.513 90.9691 259.566 90.9797 259.62 90.9781C259.673 90.9766 259.726 90.963 259.773 90.9385C259.821 90.9139 259.862 90.879 259.894 90.8363C259.937 90.8047 259.972 90.764 259.996 90.7172C260.021 90.6703 260.035 90.6186 260.037 90.5658C260.039 90.513 260.029 90.4604 260.007 90.412C259.986 90.3636 259.954 90.3206 259.913 90.2861L254.88 85.3052C254.845 85.2652 254.801 85.2334 254.752 85.2122C254.703 85.191 254.65 85.181 254.597 85.1828C254.544 85.1847 254.491 85.1983 254.444 85.2228C254.397 85.2473 254.356 85.282 254.324 85.3243Z" fill="#8F41C6"/>
<path d="M254.324 90.8363C254.356 90.8785 254.397 90.9129 254.445 90.9371C254.492 90.9613 254.544 90.9747 254.598 90.9762C254.651 90.9777 254.704 90.9674 254.753 90.9459C254.802 90.9245 254.845 90.8925 254.88 90.8522L259.913 85.8746C259.954 85.8401 259.986 85.797 260.007 85.7486C260.029 85.7002 260.039 85.6477 260.037 85.5948C260.035 85.542 260.021 85.4903 259.996 85.4435C259.972 85.3967 259.937 85.3559 259.894 85.3243C259.862 85.282 259.821 85.2473 259.773 85.2228C259.726 85.1983 259.674 85.1847 259.621 85.1828C259.567 85.181 259.514 85.191 259.465 85.2122C259.416 85.2334 259.373 85.2652 259.338 85.3052L254.307 90.2861C254.267 90.3204 254.234 90.3632 254.213 90.4115C254.191 90.4598 254.181 90.5122 254.182 90.565C254.184 90.6178 254.197 90.6696 254.222 90.7166C254.246 90.7635 254.281 90.8045 254.324 90.8363Z" fill="#8F41C6"/>
<path d="M255.923 84.7041C255.923 85.4961 256.453 87.5317 257.109 87.5317C257.765 87.5317 258.295 85.4929 258.295 84.7041C258.295 83.9153 257.761 83.2665 257.109 83.2665C256.456 83.2665 255.923 83.9026 255.923 84.7041Z" fill="#8F41C6"/>
<path d="M258.295 91.4566C258.295 90.6646 257.761 88.629 257.109 88.629C256.456 88.629 255.923 90.6646 255.923 91.4566C255.923 92.2486 256.453 92.8943 257.109 92.8943C257.765 92.8943 258.295 92.2486 258.295 91.4566Z" fill="#8F41C6"/>
<path d="M253.695 89.2525C254.496 89.2525 256.553 88.7277 256.553 88.0788C256.553 87.43 254.496 86.9052 253.695 86.9052C252.895 86.9052 252.242 87.4331 252.242 88.0788C252.242 88.7245 252.895 89.2525 253.695 89.2525Z" fill="#8F41C6"/>
<path d="M260.52 86.9052C259.719 86.9052 257.662 87.4331 257.662 88.0788C257.662 88.7245 259.723 89.2525 260.52 89.2525C261.317 89.2525 261.973 88.7277 261.973 88.0788C261.973 87.43 261.33 86.9052 260.52 86.9052Z" fill="#8F41C6"/>
</g>
<g clip-path="url(#clip6_194_1480)">
<path d="M220.742 79.8236C220.711 79.8478 220.685 79.8785 220.667 79.9135C220.649 79.9485 220.639 79.987 220.638 80.0262C220.637 80.0655 220.644 80.1045 220.66 80.1405C220.676 80.1766 220.7 80.2087 220.729 80.2347L224.561 84.0261C224.587 84.0568 224.62 84.0813 224.657 84.0976C224.694 84.114 224.735 84.1219 224.775 84.1206C224.816 84.1194 224.856 84.1092 224.892 84.0906C224.928 84.0721 224.959 84.0458 224.983 84.0136C225.016 83.9895 225.043 83.9584 225.061 83.9227C225.08 83.8871 225.09 83.8477 225.092 83.8075C225.093 83.7673 225.085 83.7273 225.068 83.6906C225.052 83.6538 225.027 83.6213 224.996 83.5953L221.165 79.8111C221.138 79.7804 221.105 79.7559 221.068 79.7396C221.031 79.7232 220.991 79.7153 220.95 79.7166C220.91 79.7178 220.87 79.728 220.834 79.7466C220.798 79.7651 220.766 79.7914 220.742 79.8236Z" fill="#00B8AE"/>
<path d="M220.741 84.0136C220.766 84.0458 220.797 84.0721 220.833 84.0906C220.869 84.1092 220.909 84.1194 220.95 84.1206C220.99 84.1219 221.031 84.114 221.068 84.0976C221.105 84.0813 221.138 84.0568 221.164 84.0261L224.988 80.2347C225.019 80.2087 225.044 80.1762 225.061 80.1394C225.077 80.1027 225.085 80.0628 225.084 80.0226C225.083 79.9824 225.072 79.943 225.054 79.9073C225.035 79.8716 225.008 79.8406 224.976 79.8165C224.951 79.786 224.919 79.7613 224.884 79.7442C224.848 79.7271 224.809 79.7179 224.769 79.7174C224.73 79.7169 224.69 79.725 224.654 79.7412C224.618 79.7574 224.586 79.7812 224.56 79.8111L220.729 83.5953C220.698 83.6213 220.673 83.6538 220.656 83.6906C220.64 83.7273 220.632 83.7673 220.633 83.8075C220.634 83.8477 220.645 83.8871 220.663 83.9227C220.682 83.9584 220.709 83.9895 220.741 84.0136Z" fill="#00B8AE"/>
<path d="M221.957 79.3515C221.957 79.9547 222.362 81.5057 222.864 81.5057C223.367 81.5057 223.771 79.9582 223.771 79.3515C223.771 78.7447 223.356 78.26 222.859 78.26C222.362 78.26 221.957 78.7483 221.957 79.3515Z" fill="#00B8AE"/>
<path d="M223.762 84.4856C223.762 83.8825 223.357 82.3314 222.855 82.3314C222.352 82.3314 221.948 83.8789 221.948 84.4856C221.948 85.0924 222.352 85.5771 222.855 85.5771C223.357 85.5771 223.762 85.0816 223.762 84.4856Z" fill="#00B8AE"/>
<path d="M220.264 82.8108C220.874 82.8108 222.441 82.4123 222.441 81.9132C222.441 81.4142 220.878 81.0156 220.264 81.0156C219.651 81.0156 219.161 81.4159 219.161 81.9132C219.161 82.4105 219.662 82.8108 220.264 82.8108Z" fill="#00B8AE"/>
<path d="M225.454 81.0264C224.844 81.0264 223.277 81.4267 223.277 81.924C223.277 82.4212 224.84 82.8215 225.454 82.8215C226.067 82.8215 226.557 82.4122 226.557 81.9186C226.557 81.4249 226.063 81.0264 225.454 81.0264Z" fill="#00B8AE"/>
</g>
</g>
<g clip-path="url(#clip7_194_1480)">
<path d="M499.61 167.474L53.4707 265.235L53.4707 100.101L521.84 2.33984L499.61 167.474Z" fill="url(#paint1_linear_194_1480)" stroke="#FCEA00" stroke-width="2.37" stroke-miterlimit="10"/>
<path d="M363.107 133.796V35.4729L318.787 44.7233V133.796H363.107Z" fill="#0080C8"/>
<path d="M318.787 133.795V44.7233L274.482 53.9737V133.795H318.787Z" fill="url(#paint2_linear_194_1480)"/>
<path d="M407.412 133.796V26.2225L363.107 35.4729V133.796H407.412Z" fill="url(#paint3_linear_194_1480)"/>
<path d="M274.482 133.796V53.9738L230.162 63.2242V133.796H274.482Z" fill="url(#paint4_linear_194_1480)"/>
<path d="M230.162 133.796V63.2241L185.842 72.4745V133.796H230.162Z" fill="#F753C3"/>
<path d="M185.842 133.795V72.4745L141.537 81.7249V133.795H185.842Z" fill="url(#paint5_linear_194_1480)"/>
<path d="M499.61 167.474L53.4707 265.235L53.4707 100.101L521.84 2.33984L499.61 167.474Z" stroke="#FCEA00" stroke-width="2.37" stroke-miterlimit="10"/>
</g>
<defs>
<linearGradient id="paint0_linear_194_1480" x1="-60.1641" y1="126.784" x2="270.896" y2="126.784" gradientUnits="userSpaceOnUse">
<stop offset="0.02" stop-color="#00B8AE" stop-opacity="0"/>
<stop offset="0.14" stop-color="#00B8AE"/>
<stop offset="0.19" stop-color="#00B8AE"/>
<stop offset="0.35" stop-color="#F753C3"/>
<stop offset="0.41" stop-color="#F753C3"/>
<stop offset="0.57" stop-color="#0080C8"/>
<stop offset="0.63" stop-color="#0080C8"/>
<stop offset="0.81" stop-color="#FCEA00"/>
<stop offset="0.88" stop-color="#FCEA00" stop-opacity="0.59"/>
<stop offset="0.96" stop-color="#FCEA00" stop-opacity="0.17"/>
<stop offset="0.99" stop-color="#FCEA00" stop-opacity="0"/>
</linearGradient>
<linearGradient id="paint1_linear_194_1480" x1="53.4707" y1="133.795" x2="521.824" y2="133.795" gradientUnits="userSpaceOnUse">
<stop offset="0.02" stop-color="#00B8AE" stop-opacity="0"/>
<stop offset="0.14" stop-color="#00B8AE"/>
<stop offset="0.19" stop-color="#00B8AE"/>
<stop offset="0.35" stop-color="#F753C3"/>
<stop offset="0.41" stop-color="#F753C3"/>
<stop offset="0.57" stop-color="#0080C8"/>
<stop offset="0.63" stop-color="#0080C8"/>
<stop offset="0.81" stop-color="#FCEA00"/>
<stop offset="0.88" stop-color="#FCEA00" stop-opacity="0.59"/>
<stop offset="0.96" stop-color="#FCEA00" stop-opacity="0.17"/>
<stop offset="0.99" stop-color="#FCEA00" stop-opacity="0"/>
</linearGradient>
<linearGradient id="paint2_linear_194_1480" x1="53.4712" y1="89.2594" x2="521.825" y2="89.2594" gradientUnits="userSpaceOnUse">
<stop offset="0.02" stop-color="#00B8AE" stop-opacity="0"/>
<stop offset="0.14" stop-color="#00B8AE"/>
<stop offset="0.19" stop-color="#00B8AE"/>
<stop offset="0.35" stop-color="#F753C3"/>
<stop offset="0.41" stop-color="#F753C3"/>
<stop offset="0.57" stop-color="#0080C8"/>
<stop offset="0.63" stop-color="#0080C8"/>
<stop offset="0.81" stop-color="#FCEA00"/>
<stop offset="0.88" stop-color="#FCEA00" stop-opacity="0.59"/>
<stop offset="0.96" stop-color="#FCEA00" stop-opacity="0.17"/>
<stop offset="0.99" stop-color="#FCEA00" stop-opacity="0"/>
</linearGradient>
<linearGradient id="paint3_linear_194_1480" x1="53.4712" y1="80.009" x2="521.825" y2="80.009" gradientUnits="userSpaceOnUse">
<stop offset="0.02" stop-color="#00B8AE" stop-opacity="0"/>
<stop offset="0.14" stop-color="#00B8AE"/>
<stop offset="0.19" stop-color="#00B8AE"/>
<stop offset="0.35" stop-color="#F753C3"/>
<stop offset="0.41" stop-color="#F753C3"/>
<stop offset="0.57" stop-color="#0080C8"/>
<stop offset="0.63" stop-color="#0080C8"/>
<stop offset="0.81" stop-color="#FCEA00"/>
<stop offset="0.88" stop-color="#FCEA00" stop-opacity="0.59"/>
<stop offset="0.96" stop-color="#FCEA00" stop-opacity="0.17"/>
<stop offset="0.99" stop-color="#FCEA00" stop-opacity="0"/>
</linearGradient>
<linearGradient id="paint4_linear_194_1480" x1="53.4712" y1="93.8769" x2="521.825" y2="93.8769" gradientUnits="userSpaceOnUse">
<stop offset="0.02" stop-color="#00B8AE" stop-opacity="0"/>
<stop offset="0.14" stop-color="#00B8AE"/>
<stop offset="0.19" stop-color="#00B8AE"/>
<stop offset="0.35" stop-color="#F753C3"/>
<stop offset="0.41" stop-color="#F753C3"/>
<stop offset="0.57" stop-color="#0080C8"/>
<stop offset="0.63" stop-color="#0080C8"/>
<stop offset="0.81" stop-color="#FCEA00"/>
<stop offset="0.88" stop-color="#FCEA00" stop-opacity="0.59"/>
<stop offset="0.96" stop-color="#FCEA00" stop-opacity="0.17"/>
<stop offset="0.99" stop-color="#FCEA00" stop-opacity="0"/>
</linearGradient>
<linearGradient id="paint5_linear_194_1480" x1="53.4713" y1="103.127" x2="521.825" y2="103.127" gradientUnits="userSpaceOnUse">
<stop offset="0.02" stop-color="#00B8AE" stop-opacity="0"/>
<stop offset="0.14" stop-color="#00B8AE"/>
<stop offset="0.19" stop-color="#00B8AE"/>
<stop offset="0.35" stop-color="#F753C3"/>
<stop offset="0.41" stop-color="#F753C3"/>
<stop offset="0.57" stop-color="#0080C8"/>
<stop offset="0.63" stop-color="#0080C8"/>
<stop offset="0.81" stop-color="#FCEA00"/>
<stop offset="0.88" stop-color="#FCEA00" stop-opacity="0.59"/>
<stop offset="0.96" stop-color="#FCEA00" stop-opacity="0.17"/>
<stop offset="0.99" stop-color="#FCEA00" stop-opacity="0"/>
</linearGradient>
<clipPath id="clip0_194_1480">
<rect width="337.425" height="205.65" fill="white" transform="translate(-63 23.9592)"/>
</clipPath>
<clipPath id="clip1_194_1480">
<rect width="16.3459" height="16.1747" fill="white" transform="matrix(-1 0 0 1 205.93 34.3573)"/>
</clipPath>
<clipPath id="clip2_194_1480">
<rect width="14.0107" height="13.864" fill="white" transform="matrix(-1 0 0 1 249.129 59.3895)"/>
</clipPath>
<clipPath id="clip3_194_1480">
<rect width="6.22699" height="6.16179" fill="white" transform="matrix(-1 0 0 1 219.939 46.6809)"/>
</clipPath>
<clipPath id="clip4_194_1480">
<rect width="9.72968" height="9.62779" fill="white" transform="matrix(-1 0 0 1 278.707 83.6516)"/>
</clipPath>
<clipPath id="clip5_194_1480">
<rect width="9.72968" height="9.62779" fill="white" transform="matrix(-1 0 0 1 261.973 83.2665)"/>
</clipPath>
<clipPath id="clip6_194_1480">
<rect width="7.39455" height="7.31712" fill="white" transform="matrix(-1 0 0 1 226.557 78.26)"/>
</clipPath>
<clipPath id="clip7_194_1480">
<rect width="377.357" height="267.544" fill="white" transform="translate(146.643)"/>
</clipPath>
</defs>
</svg>
