<svg width="248" height="93" viewBox="0 0 248 93" fill="none" xmlns="http://www.w3.org/2000/svg">
<g clip-path="url(#clip0_34_100)">
<rect width="248" height="59" fill="#FF50C8"/>
<path d="M17.544 3.72V15.56H24.52V9.928H50.952V15.56H58.248V3.72H17.544ZM33.48 -1.336V8.776H41.288V-1.336H33.48ZM33.672 17.736V42.824H41.032V17.736H33.672ZM39.88 49.544C44.296 52.232 50.248 56.264 53 58.824L59.272 54.472C56.136 51.912 50.12 48.136 45.832 45.64L39.88 49.544ZM28.168 46.344C25.032 49.16 19.528 51.976 14.472 53.576C16.136 54.856 19.016 57.672 20.296 59.144C25.416 56.84 31.624 52.936 35.528 49.096L28.168 46.344ZM27.016 37.384H48.264V40.776H27.016V37.384ZM27.016 28.68H48.264V32.072H27.016V28.68ZM20.232 23.048V46.408H55.368V23.048H20.232ZM22.6 13.832V19.912H53V13.832H22.6ZM2.056 4.616C5.896 6.28 10.824 9.16 13.128 11.4L17.608 5C15.112 2.952 10.12 0.327999 6.28 -1.144L2.056 4.616ZM-1.272 21.96C2.632 23.56 7.432 26.312 9.736 28.36L14.216 21.96C11.72 19.976 6.728 17.48 2.952 16.136L-1.272 21.96ZM0.392 53.448L7.24 58.056C10.568 51.784 14.088 44.296 16.968 37.384L10.888 32.84C7.624 40.392 3.4 48.52 0.392 53.448ZM71.176 47.496V55.048H114.952V47.496H71.176ZM88.584 -0.696003V52.104H96.584V-0.696003H88.584ZM67.4 31.496V58.76H75.208V31.496H67.4ZM110.856 31.496V58.696H118.856V31.496H110.856ZM69.96 4.68V28.04H116.296V4.68H108.168V20.616H77.64V4.68H69.96ZM127.88 21.256V28.872H186.184V21.256H127.88ZM156.488 6.472V13.832H179.272V6.472H156.488ZM151.496 -1.336V24.904H159.624V-1.336H151.496ZM151.496 26.184V58.696H159.624V26.184H151.496ZM157.32 38.408C164.04 40.584 173.576 44.36 178.248 46.792L182.344 39.88C177.352 37.448 167.56 34.056 161.16 32.2L157.32 38.408ZM194.056 2.504V9.8H241.672V2.504H194.056ZM194.632 14.408V21.064H232.52V14.408H194.632ZM238.984 2.504V48.904C238.984 50.12 238.536 50.44 237.384 50.44C236.104 50.504 231.944 50.504 228.296 50.312C229.384 52.488 230.536 56.328 230.792 58.632C236.616 58.632 240.648 58.44 243.336 57.16C246.088 55.816 246.856 53.448 246.856 49.032V2.504H238.984ZM197.96 25.8V52.232H205.448V25.8H197.96ZM204.616 25.8V32.456H221.64V40.968H204.616V47.56H229.192V25.8H204.616Z" fill="#111111"/>
</g>
<g clip-path="url(#clip1_34_100)">
<rect width="53" height="26" transform="translate(97 67)" fill="#FF7E00"/>
<path d="M111.016 88.7109C109.727 89.8906 108.078 90.4805 106.07 90.4805C103.586 90.4805 101.633 89.6836 100.211 88.0898C98.7891 86.4883 98.0781 84.293 98.0781 81.5039C98.0781 78.4883 98.8867 76.1641 100.504 74.5312C101.91 73.1094 103.699 72.3984 105.871 72.3984C108.777 72.3984 110.902 73.3516 112.246 75.2578C112.988 76.3281 113.387 77.4023 113.441 78.4805H109.832C109.598 77.6523 109.297 77.0273 108.93 76.6055C108.273 75.8555 107.301 75.4805 106.012 75.4805C104.699 75.4805 103.664 76.0117 102.906 77.0742C102.148 78.1289 101.77 79.625 101.77 81.5625C101.77 83.5 102.168 84.9531 102.965 85.9219C103.77 86.8828 104.789 87.3633 106.023 87.3633C107.289 87.3633 108.254 86.9492 108.918 86.1211C109.285 85.6758 109.59 85.0078 109.832 84.1172H113.406C113.094 86 112.297 87.5312 111.016 88.7109ZM116.383 78.6094C117.266 77.4844 118.781 76.9219 120.93 76.9219C122.328 76.9219 123.57 77.1992 124.656 77.7539C125.742 78.3086 126.285 79.3555 126.285 80.8945V86.7539C126.285 87.1602 126.293 87.6523 126.309 88.2305C126.332 88.668 126.398 88.9648 126.508 89.1211C126.617 89.2773 126.781 89.4062 127 89.5078V90H123.367C123.266 89.7422 123.195 89.5 123.156 89.2734C123.117 89.0469 123.086 88.7891 123.062 88.5C122.602 89 122.07 89.4258 121.469 89.7773C120.75 90.1914 119.938 90.3984 119.031 90.3984C117.875 90.3984 116.918 90.0703 116.16 89.4141C115.41 88.75 115.035 87.8125 115.035 86.6016C115.035 85.0312 115.641 83.8945 116.852 83.1914C117.516 82.8086 118.492 82.5352 119.781 82.3711L120.918 82.2305C121.535 82.1523 121.977 82.0547 122.242 81.9375C122.719 81.7344 122.957 81.418 122.957 80.9883C122.957 80.4648 122.773 80.1055 122.406 79.9102C122.047 79.707 121.516 79.6055 120.812 79.6055C120.023 79.6055 119.465 79.8008 119.137 80.1914C118.902 80.4805 118.746 80.8711 118.668 81.3633H115.445C115.516 80.2461 115.828 79.3281 116.383 78.6094ZM118.867 87.5859C119.18 87.8438 119.562 87.9727 120.016 87.9727C120.734 87.9727 121.395 87.7617 121.996 87.3398C122.605 86.918 122.922 86.1484 122.945 85.0312V83.7891C122.734 83.9219 122.52 84.0312 122.301 84.1172C122.09 84.1953 121.797 84.2695 121.422 84.3398L120.672 84.4805C119.969 84.6055 119.465 84.7578 119.16 84.9375C118.645 85.2422 118.387 85.7148 118.387 86.3555C118.387 86.9258 118.547 87.3359 118.867 87.5859ZM138.062 77.8125C139.062 78.4531 139.637 79.5547 139.785 81.1172H136.445C136.398 80.6875 136.277 80.3477 136.082 80.0977C135.715 79.6445 135.09 79.418 134.207 79.418C133.48 79.418 132.961 79.5312 132.648 79.7578C132.344 79.9844 132.191 80.25 132.191 80.5547C132.191 80.9375 132.355 81.2148 132.684 81.3867C133.012 81.5664 134.172 81.875 136.164 82.3125C137.492 82.625 138.488 83.0977 139.152 83.7305C139.809 84.3711 140.137 85.1719 140.137 86.1328C140.137 87.3984 139.664 88.4336 138.719 89.2383C137.781 90.0352 136.328 90.4336 134.359 90.4336C132.352 90.4336 130.867 90.0117 129.906 89.168C128.953 88.3164 128.477 87.2344 128.477 85.9219H131.863C131.934 86.5156 132.086 86.9375 132.32 87.1875C132.734 87.6328 133.5 87.8555 134.617 87.8555C135.273 87.8555 135.793 87.7578 136.176 87.5625C136.566 87.3672 136.762 87.0742 136.762 86.6836C136.762 86.3086 136.605 86.0234 136.293 85.8281C135.98 85.6328 134.82 85.2969 132.812 84.8203C131.367 84.4609 130.348 84.0117 129.754 83.4727C129.16 82.9414 128.863 82.1758 128.863 81.1758C128.863 79.9961 129.324 78.9844 130.246 78.1406C131.176 77.2891 132.48 76.8633 134.16 76.8633C135.754 76.8633 137.055 77.1797 138.062 77.8125ZM148.469 87.6211V90.1172L146.887 90.1758C145.309 90.2305 144.23 89.957 143.652 89.3555C143.277 88.9727 143.09 88.3828 143.09 87.5859V79.7227H141.309V77.3438H143.09V73.7812H146.395V77.3438H148.469V79.7227H146.395V86.4727C146.395 86.9961 146.461 87.3242 146.594 87.457C146.727 87.582 147.133 87.6445 147.812 87.6445C147.914 87.6445 148.02 87.6445 148.129 87.6445C148.246 87.6367 148.359 87.6289 148.469 87.6211Z" fill="#111111"/>
</g>
<rect x="97" y="59" width="53" height="8" fill="#6B61C4"/>
<defs>
<clipPath id="clip0_34_100">
<rect width="248" height="59" fill="white"/>
</clipPath>
<clipPath id="clip1_34_100">
<rect width="53" height="26" fill="white" transform="translate(97 67)"/>
</clipPath>
</defs>
</svg>
