<svg width="142" height="51" viewBox="0 0 142 51" fill="none" xmlns="http://www.w3.org/2000/svg">
<rect width="142" height="51" fill="#E7D71D"/>
<g clip-path="url(#clip0_38_702)">
<path d="M18.9786 35.5342C21.39 35.5375 23.74 34.7737 25.6887 33.3532L30.3439 38.9315C28.8508 40.3904 27.0668 41.5181 25.1085 42.2408C23.1501 42.9635 21.0614 43.265 18.9786 43.1258C9.24884 43 3 38.0507 3 29.4106C3 20.7704 9.24884 15.8212 18.9786 15.8212C21.0614 15.6819 23.1501 15.9835 25.1085 16.7062C27.0668 17.4289 28.8508 18.5565 30.3439 20.0154L25.6887 25.468C23.7451 24.0325 21.3947 23.2538 18.9786 23.245C18.158 23.1877 17.3347 23.3086 16.5653 23.5994C15.7958 23.8901 15.0983 24.3439 14.5207 24.9296C13.943 25.5153 13.4989 26.219 13.2187 26.9924C12.9385 27.7659 12.829 28.5908 12.8975 29.4106C12.8281 30.2286 12.9375 31.052 13.2179 31.8236C13.4984 32.5952 13.9433 33.2965 14.5218 33.8791C15.1003 34.4616 15.7985 34.9113 16.568 35.1971C17.3376 35.4829 18.1601 35.5979 18.9786 35.5342V35.5342Z" fill="black"/>
<path d="M33.2796 5H43.219V31.4238C43.219 33.3113 43.219 34.8212 45.0224 34.8212H45.8192V42.245H42.548C33.699 42.245 33.2796 36.9603 33.2796 32.053V5Z" fill="black"/>
<path d="M48.2516 29.4107C48.2516 20.7705 54.5005 15.8213 64.2302 15.8213C73.9599 15.8213 80.2088 20.7705 80.2088 29.4107C80.2088 38.0509 73.9599 43.0001 64.2302 43.0001C54.5005 43.0001 48.2516 38.0509 48.2516 29.4107ZM70.3113 29.4107C70.3798 28.5909 70.2702 27.766 69.99 26.9925C69.7099 26.2191 69.2657 25.5154 68.6881 24.9297C68.1104 24.344 67.413 23.8903 66.6435 23.5995C65.874 23.3087 65.0508 23.1878 64.2302 23.2451C63.4096 23.1878 62.5864 23.3087 61.8169 23.5995C61.0474 23.8903 60.35 24.344 59.7723 24.9297C59.1947 25.5154 58.7505 26.2191 58.4703 26.9925C58.1902 27.766 58.0806 28.5909 58.1491 29.4107C58.087 30.2271 58.2013 31.0474 58.4843 31.8157C58.7673 32.584 59.2125 33.2824 59.7894 33.8633C60.3663 34.4443 61.0615 34.8942 61.8278 35.1826C62.5941 35.4709 63.4134 35.5909 64.2302 35.5343C65.0486 35.5981 65.8711 35.4831 66.6407 35.1973C67.4103 34.9115 68.1085 34.4617 68.687 33.8792C69.2655 33.2967 69.7104 32.5953 69.9908 31.8237C70.2713 31.0521 70.3806 30.2288 70.3113 29.4107V29.4107Z" fill="black"/>
<path d="M102.981 24.7551C100.625 23.7865 98.1059 23.2741 95.5583 23.2451C94.0065 23.2451 93.1258 23.2451 93.1258 24.3357C93.1258 25.4262 94.8872 25.51 96.1454 25.8036C102.897 27.1039 107.595 28.9913 107.595 34.7794C107.595 41.2385 101.178 43.1679 94.3001 43.1679C90.043 43.2466 85.8475 42.1431 82.1799 39.9802L85.7866 33.7308C88.3861 35.0452 91.2615 35.721 94.1743 35.7021C96.9842 35.7021 97.8229 35.031 97.8229 34.2341C97.8229 33.4372 96.6067 33.1017 94.5517 32.6822C87.3383 31.2142 83.3542 28.9913 83.3542 24.2937C83.3542 19.5961 87.548 16.1568 94.6775 16.1568C98.8561 15.9755 103.008 16.9015 106.714 18.8412L102.981 24.7551Z" fill="black"/>
<path d="M109.566 29.4106C109.517 27.5366 109.865 25.6736 110.587 23.9436C111.309 22.2137 112.388 20.656 113.755 19.3727C115.121 18.0894 116.743 17.1096 118.515 16.4975C120.286 15.8855 122.168 15.655 124.034 15.8212C133.596 15.8212 138.419 22.2803 137.958 33.0176H119.463C119.463 34.1501 121.141 35.7858 125.251 35.7858C127.649 35.8192 130.015 35.2419 132.129 34.1081L136.742 39.3929C133.07 41.9692 128.64 43.2392 124.16 43C122.276 43.2208 120.367 43.0294 118.564 42.4389C116.762 41.8485 115.109 40.8731 113.721 39.5805C112.333 38.2878 111.242 36.7088 110.524 34.9527C109.807 33.1967 109.48 31.3056 109.566 29.4106V29.4106ZM128.815 26.7682C128.611 25.7056 128.043 24.7474 127.209 24.0584C126.374 23.3693 125.326 22.9924 124.244 22.9924C123.162 22.9924 122.114 23.3693 121.28 24.0584C120.446 24.7474 119.877 25.7056 119.673 26.7682H128.815Z" fill="black"/>
</g>
<defs>
<clipPath id="clip0_38_702">
<rect width="135" height="38" fill="white" transform="translate(3 5)"/>
</clipPath>
</defs>
</svg>
