<svg width="142" height="51" viewBox="0 0 142 51" fill="none" xmlns="http://www.w3.org/2000/svg">
<rect width="142" height="51" fill="#FFEB00"/>
<g clip-path="url(#clip0_196_7842)">
<path d="M18.9786 35.5342C21.39 35.5375 23.74 34.7737 25.6887 33.3532L30.3439 38.9315C28.8508 40.3904 27.0668 41.5181 25.1085 42.2408C23.1501 42.9635 21.0614 43.265 18.9786 43.1258C9.24884 43 3 38.0507 3 29.4106C3 20.7704 9.24884 15.8212 18.9786 15.8212C21.0614 15.6819 23.1501 15.9835 25.1085 16.7062C27.0668 17.4289 28.8508 18.5565 30.3439 20.0154L25.6887 25.468C23.7451 24.0325 21.3947 23.2538 18.9786 23.245C18.158 23.1877 17.3347 23.3086 16.5653 23.5994C15.7958 23.8901 15.0983 24.3439 14.5207 24.9296C13.943 25.5153 13.4989 26.219 13.2187 26.9924C12.9385 27.7659 12.829 28.5908 12.8975 29.4106C12.8281 30.2286 12.9375 31.052 13.2179 31.8236C13.4984 32.5952 13.9433 33.2965 14.5218 33.8791C15.1003 34.4616 15.7985 34.9113 16.568 35.1971C17.3376 35.4829 18.1601 35.5979 18.9786 35.5342Z" fill="black"/>
<path d="M33.2793 5H43.2187V31.4238C43.2187 33.3113 43.2187 34.8212 45.0221 34.8212H45.8189V42.245H42.5477C33.6987 42.245 33.2793 36.9603 33.2793 32.053V5Z" fill="black"/>
<path d="M48.252 29.4107C48.252 20.7705 54.5008 15.8213 64.2305 15.8213C73.9602 15.8213 80.2091 20.7705 80.2091 29.4107C80.2091 38.0509 73.9602 43.0001 64.2305 43.0001C54.5008 43.0001 48.252 38.0509 48.252 29.4107ZM70.3116 29.4107C70.3801 28.5909 70.2705 27.766 69.9904 26.9925C69.7102 26.2191 69.266 25.5154 68.6884 24.9297C68.1108 24.344 67.4133 23.8903 66.6438 23.5995C65.8743 23.3087 65.0511 23.1878 64.2305 23.2451C63.41 23.1878 62.5867 23.3087 61.8172 23.5995C61.0478 23.8903 60.3503 24.344 59.7726 24.9297C59.195 25.5154 58.7508 26.2191 58.4707 26.9925C58.1905 27.766 58.0809 28.5909 58.1494 29.4107C58.0873 30.2271 58.2016 31.0474 58.4846 31.8157C58.7677 32.584 59.2128 33.2824 59.7897 33.8633C60.3666 34.4443 61.0619 34.8942 61.8281 35.1826C62.5944 35.4709 63.4138 35.5909 64.2305 35.5343C65.049 35.5981 65.8715 35.4831 66.641 35.1973C67.4106 34.9115 68.1088 34.4617 68.6873 33.8792C69.2658 33.2967 69.7107 32.5953 69.9912 31.8237C70.2716 31.0521 70.381 30.2288 70.3116 29.4107Z" fill="black"/>
<path d="M102.981 24.7551C100.625 23.7865 98.1057 23.2741 95.5581 23.2451C94.0063 23.2451 93.1256 23.2451 93.1256 24.3357C93.1256 25.4262 94.887 25.51 96.1452 25.8036C102.897 27.1039 107.594 28.9913 107.594 34.7794C107.594 41.2385 101.178 43.1679 94.2999 43.1679C90.0428 43.2466 85.8473 42.1431 82.1797 39.9802L85.7864 33.7308C88.3859 35.0452 91.2613 35.721 94.1741 35.7021C96.984 35.7021 97.8228 35.031 97.8228 34.2341C97.8228 33.4372 96.6065 33.1017 94.5515 32.6822C87.3381 31.2142 83.354 28.9913 83.354 24.2937C83.354 19.5961 87.5478 16.1568 94.6774 16.1568C98.8559 15.9755 103.008 16.9015 106.714 18.8412L102.981 24.7551Z" fill="black"/>
<path d="M109.566 29.4106C109.517 27.5366 109.865 25.6736 110.587 23.9436C111.309 22.2137 112.389 20.656 113.755 19.3727C115.121 18.0894 116.744 17.1096 118.515 16.4975C120.287 15.8855 122.168 15.655 124.035 15.8212C133.597 15.8212 138.42 22.2803 137.959 33.0176H119.464C119.464 34.1501 121.141 35.7858 125.251 35.7858C127.649 35.8192 130.016 35.2419 132.129 34.1081L136.742 39.3929C133.07 41.9692 128.64 43.2393 124.161 43C122.277 43.2208 120.367 43.0294 118.565 42.4389C116.762 41.8485 115.11 40.8731 113.721 39.5805C112.333 38.2878 111.242 36.7088 110.525 34.9527C109.807 33.1967 109.48 31.3056 109.566 29.4106ZM128.816 26.7682C128.611 25.7056 128.043 24.7474 127.209 24.0584C126.375 23.3693 125.327 22.9924 124.245 22.9924C123.163 22.9924 122.114 23.3693 121.28 24.0584C120.446 24.7474 119.878 25.7056 119.673 26.7682H128.816Z" fill="black"/>
</g>
<defs>
<clipPath id="clip0_196_7842">
<rect width="135" height="38" fill="white" transform="translate(3 5)"/>
</clipPath>
</defs>
</svg>
