<svg width="251" height="93" viewBox="0 0 251 93" fill="none" xmlns="http://www.w3.org/2000/svg">
<g clip-path="url(#clip0_34_123)">
<rect width="251" height="59" fill="#FFEB00"/>
<path d="M23.688 4.488V11.336H58.696V4.488H23.688ZM32.136 19.08V25.288H49.032V19.08H32.136ZM25.224 28.616V34.76H56.52V28.616H25.224ZM31.816 37.768V43.912H49.736V37.768H31.816ZM47.752 6.408L41.224 8.328C44.04 16.264 48.776 23.688 54.856 27.784C56.008 25.928 58.248 23.304 59.912 21.896C54.6 18.76 50.056 12.68 47.752 6.408ZM47.112 37.768L47.048 38.664C46.344 46.856 45.384 50.568 44.168 51.592C43.528 52.168 42.76 52.232 41.672 52.232C40.264 52.232 37 52.168 33.8 51.912C35.016 53.704 35.912 56.456 36.04 58.568C39.496 58.632 42.76 58.632 44.68 58.504C47.048 58.312 48.712 57.8 50.184 56.264C52.168 54.408 53.32 49.992 54.28 40.648C54.472 39.624 54.6 37.768 54.6 37.768H47.112ZM31.944 31.816C30.856 36.168 29.256 41.48 27.848 45.128L34.888 46.28C36.296 42.44 37.96 36.68 39.304 31.816H31.944ZM8.2 7.432H15.56V16.072H8.2V7.432ZM1.8 1.096V22.408H22.28V1.096H1.8ZM9.928 19.592V48.904H16.392V19.592H9.928ZM1.416 26.888V50.632H7.368V26.888H1.416ZM-1.336 49.096L0.136 56.136C7.24 54.408 16.584 52.168 25.288 49.928L24.52 43.464C15.176 45.576 5.192 47.816 -1.336 49.096ZM12.744 29.128V35.656H22.984V29.128H12.744ZM35.784 -1.4C34.568 7.432 30.664 16.456 20.808 22.28C22.344 23.368 24.648 26.184 25.544 27.976C36.616 20.872 41.352 10.44 43.208 -0.632004L35.784 -1.4ZM76.872 -1.592C74.12 6.728 69.128 14.92 63.368 19.912C65.224 21 68.488 23.56 69.96 24.904C75.656 19.144 81.288 9.928 84.68 0.391998L76.872 -1.592ZM78.216 5.704L74.504 13.128H118.92V5.704H78.216ZM73.672 20.808V41.416H81.416V27.976H117.448V20.808H73.672ZM63.56 37.64V45.064H122.44V37.64H63.56ZM92.488 9.544V58.76H100.424V9.544H92.488ZM159.112 -1.272C156.936 4.552 152.904 11.336 146.44 16.392C148.104 17.416 150.536 19.848 151.624 21.512C158.92 15.24 163.528 7.624 166.536 -0.0560036L159.112 -1.272ZM160.712 4.232L156.872 10.568H174.024V4.232H160.712ZM164.808 17.224C164.04 33.8 163.144 46.408 143.112 52.68C144.776 54.216 146.76 57.032 147.592 59.016C169.224 51.4 171.144 36.36 172.04 17.224H164.808ZM167.304 32.648V48.968C167.304 55.56 168.712 57.736 174.792 57.736C175.944 57.736 178.952 57.736 180.232 57.736C185.096 57.736 186.952 55.304 187.656 46.216C185.736 45.704 182.664 44.552 181.256 43.336C181.064 50.056 180.808 50.952 179.464 50.952C178.76 50.952 176.52 50.952 176.008 50.952C174.728 50.952 174.536 50.76 174.536 48.84V32.648H167.304ZM133 3.464V10.184H141.32V39.944H133V46.664H148.232V3.464H133ZM133.192 21.512V28.168H144.2V21.512H133.192ZM129.16 3.464V51.592H135.944V3.464H129.16ZM158.408 21.512H178.056V29.96H158.408V21.512ZM151.752 15.176V36.232H185.16V15.176H151.752ZM171.592 4.232V5.512C170.504 8.328 168.136 12.872 166.024 15.752C167.496 16.52 169.736 17.864 171.08 18.888C173.64 15.816 177.032 10.888 178.888 6.984L174.216 3.976L173.128 4.232H171.592ZM205.064 21.96H236.68V30.024H205.064V21.96ZM198.664 17.224V34.76H243.464V17.224H198.664ZM209.672 9.928V14.92H232.264V9.928H209.672ZM217.544 18.76V32.264H223.752V18.76H217.544ZM220.616 4.616C226.824 10.376 238.152 16.328 247.048 19.336C248.2 17.352 249.864 14.728 251.528 13C241.608 10.504 231.24 5.448 223.944 -1.336H216.648C211.4 4.36 200.904 10.376 190.408 13.512C191.752 15.112 193.544 17.864 194.376 19.592C204.488 16.072 214.92 10.12 220.616 4.616ZM207.304 23.368C208.392 25.608 209.288 28.552 209.544 30.472L215.176 28.808C214.792 26.888 213.768 24.072 212.616 21.896L207.304 23.368ZM228.488 21.64C227.976 23.752 226.76 26.888 225.864 29L231.112 30.408C232.136 28.616 233.416 25.928 234.824 23.176L228.488 21.64ZM202.184 36.808V58.76H209.736V41.8H232.2V58.568H240.072V36.808H202.184ZM206.536 44.36V49.416H235.464V44.36H206.536ZM206.536 52.04V57.032H235.464V52.04H206.536Z" fill="#111111"/>
</g>
<g clip-path="url(#clip1_34_123)">
<rect width="240" height="26" transform="translate(6 67)" fill="#FF50C8"/>
<path d="M21.7969 90H18.1875L11.1328 77.7305V90H7.76953V72.7266H11.5547L18.4336 84.7852V72.7266H21.7969V90ZM35.8359 86.25C35.75 87.0078 35.3555 87.7773 34.6523 88.5586C33.5586 89.8008 32.0273 90.4219 30.0586 90.4219C28.4336 90.4219 27 89.8984 25.7578 88.8516C24.5156 87.8047 23.8945 86.1016 23.8945 83.7422C23.8945 81.5312 24.4531 79.8359 25.5703 78.6562C26.6953 77.4766 28.1523 76.8867 29.9414 76.8867C31.0039 76.8867 31.9609 77.0859 32.8125 77.4844C33.6641 77.8828 34.3672 78.5117 34.9219 79.3711C35.4219 80.1289 35.7461 81.0078 35.8945 82.0078C35.9805 82.5938 36.0156 83.4375 36 84.5391H27.2578C27.3047 85.8203 27.707 86.7188 28.4648 87.2344C28.9258 87.5547 29.4805 87.7148 30.1289 87.7148C30.8164 87.7148 31.375 87.5195 31.8047 87.1289C32.0391 86.918 32.2461 86.625 32.4258 86.25H35.8359ZM32.5312 82.3359C32.4766 81.4531 32.207 80.7852 31.7227 80.332C31.2461 79.8711 30.6523 79.6406 29.9414 79.6406C29.168 79.6406 28.5664 79.8828 28.1367 80.3672C27.7148 80.8516 27.4492 81.5078 27.3398 82.3359H32.5312ZM47.9531 90L45.9492 80.6953L43.9219 90H40.4531L36.8672 77.2266H40.4531L42.4453 86.3906L44.2852 77.2266H47.6719L49.6172 86.4258L51.6094 77.2266H55.0898L51.3867 90H47.9531ZM77.4141 72.7266L71.6367 83.5078V90H68.0273V83.5078L62.0508 72.7266H66.3047L69.8906 80.25L73.3242 72.7266H77.4141ZM88.8281 86.25C88.7422 87.0078 88.3477 87.7773 87.6445 88.5586C86.5508 89.8008 85.0195 90.4219 83.0508 90.4219C81.4258 90.4219 79.9922 89.8984 78.75 88.8516C77.5078 87.8047 76.8867 86.1016 76.8867 83.7422C76.8867 81.5312 77.4453 79.8359 78.5625 78.6562C79.6875 77.4766 81.1445 76.8867 82.9336 76.8867C83.9961 76.8867 84.9531 77.0859 85.8047 77.4844C86.6562 77.8828 87.3594 78.5117 87.9141 79.3711C88.4141 80.1289 88.7383 81.0078 88.8867 82.0078C88.9727 82.5938 89.0078 83.4375 88.9922 84.5391H80.25C80.2969 85.8203 80.6992 86.7188 81.457 87.2344C81.918 87.5547 82.4727 87.7148 83.1211 87.7148C83.8086 87.7148 84.3672 87.5195 84.7969 87.1289C85.0312 86.918 85.2383 86.625 85.418 86.25H88.8281ZM85.5234 82.3359C85.4688 81.4531 85.1992 80.7852 84.7148 80.332C84.2383 79.8711 83.6445 79.6406 82.9336 79.6406C82.1602 79.6406 81.5586 79.8828 81.1289 80.3672C80.707 80.8516 80.4414 81.5078 80.332 82.3359H85.5234ZM91.7344 78.6094C92.6172 77.4844 94.1328 76.9219 96.2812 76.9219C97.6797 76.9219 98.9219 77.1992 100.008 77.7539C101.094 78.3086 101.637 79.3555 101.637 80.8945V86.7539C101.637 87.1602 101.645 87.6523 101.66 88.2305C101.684 88.668 101.75 88.9648 101.859 89.1211C101.969 89.2773 102.133 89.4062 102.352 89.5078V90H98.7188C98.6172 89.7422 98.5469 89.5 98.5078 89.2734C98.4688 89.0469 98.4375 88.7891 98.4141 88.5C97.9531 89 97.4219 89.4258 96.8203 89.7773C96.1016 90.1914 95.2891 90.3984 94.3828 90.3984C93.2266 90.3984 92.2695 90.0703 91.5117 89.4141C90.7617 88.75 90.3867 87.8125 90.3867 86.6016C90.3867 85.0312 90.9922 83.8945 92.2031 83.1914C92.8672 82.8086 93.8438 82.5352 95.1328 82.3711L96.2695 82.2305C96.8867 82.1523 97.3281 82.0547 97.5938 81.9375C98.0703 81.7344 98.3086 81.418 98.3086 80.9883C98.3086 80.4648 98.125 80.1055 97.7578 79.9102C97.3984 79.707 96.8672 79.6055 96.1641 79.6055C95.375 79.6055 94.8164 79.8008 94.4883 80.1914C94.2539 80.4805 94.0977 80.8711 94.0195 81.3633H90.7969C90.8672 80.2461 91.1797 79.3281 91.7344 78.6094ZM94.2188 87.5859C94.5312 87.8438 94.9141 87.9727 95.3672 87.9727C96.0859 87.9727 96.7461 87.7617 97.3477 87.3398C97.957 86.918 98.2734 86.1484 98.2969 85.0312V83.7891C98.0859 83.9219 97.8711 84.0312 97.6523 84.1172C97.4414 84.1953 97.1484 84.2695 96.7734 84.3398L96.0234 84.4805C95.3203 84.6055 94.8164 84.7578 94.5117 84.9375C93.9961 85.2422 93.7383 85.7148 93.7383 86.3555C93.7383 86.9258 93.8984 87.3359 94.2188 87.5859ZM111.035 80.3086C109.691 80.3086 108.789 80.7461 108.328 81.6211C108.07 82.1133 107.941 82.8711 107.941 83.8945V90H104.578V77.2266H107.766V79.4531C108.281 78.6016 108.73 78.0195 109.113 77.707C109.738 77.1836 110.551 76.9219 111.551 76.9219C111.613 76.9219 111.664 76.9258 111.703 76.9336C111.75 76.9336 111.848 76.9375 111.996 76.9453V80.3672C111.785 80.3438 111.598 80.3281 111.434 80.3203C111.27 80.3125 111.137 80.3086 111.035 80.3086ZM118.184 75.2578C118.184 76.4375 117.895 77.3672 117.316 78.0469C116.746 78.7266 115.941 79.168 114.902 79.3711V78.1406C115.668 77.8984 116.195 77.4883 116.484 76.9102C116.641 76.5664 116.707 76.2188 116.684 75.8672H114.844V72.7852H118.184V75.2578ZM129.445 77.8125C130.445 78.4531 131.02 79.5547 131.168 81.1172H127.828C127.781 80.6875 127.66 80.3477 127.465 80.0977C127.098 79.6445 126.473 79.418 125.59 79.418C124.863 79.418 124.344 79.5312 124.031 79.7578C123.727 79.9844 123.574 80.25 123.574 80.5547C123.574 80.9375 123.738 81.2148 124.066 81.3867C124.395 81.5664 125.555 81.875 127.547 82.3125C128.875 82.625 129.871 83.0977 130.535 83.7305C131.191 84.3711 131.52 85.1719 131.52 86.1328C131.52 87.3984 131.047 88.4336 130.102 89.2383C129.164 90.0352 127.711 90.4336 125.742 90.4336C123.734 90.4336 122.25 90.0117 121.289 89.168C120.336 88.3164 119.859 87.2344 119.859 85.9219H123.246C123.316 86.5156 123.469 86.9375 123.703 87.1875C124.117 87.6328 124.883 87.8555 126 87.8555C126.656 87.8555 127.176 87.7578 127.559 87.5625C127.949 87.3672 128.145 87.0742 128.145 86.6836C128.145 86.3086 127.988 86.0234 127.676 85.8281C127.363 85.6328 126.203 85.2969 124.195 84.8203C122.75 84.4609 121.73 84.0117 121.137 83.4727C120.543 82.9414 120.246 82.1758 120.246 81.1758C120.246 79.9961 120.707 78.9844 121.629 78.1406C122.559 77.2891 123.863 76.8633 125.543 76.8633C127.137 76.8633 128.438 77.1797 129.445 77.8125ZM152.977 82.4531H144.586V86.8945H154.148V90H141.059V72.7266H153.727V75.7852H144.586V79.4531H152.977V82.4531ZM155.438 77.2266H159.188L161.848 86.6484L164.566 77.2266H168.152L163.547 90H160.02L155.438 77.2266ZM180.984 86.25C180.898 87.0078 180.504 87.7773 179.801 88.5586C178.707 89.8008 177.176 90.4219 175.207 90.4219C173.582 90.4219 172.148 89.8984 170.906 88.8516C169.664 87.8047 169.043 86.1016 169.043 83.7422C169.043 81.5312 169.602 79.8359 170.719 78.6562C171.844 77.4766 173.301 76.8867 175.09 76.8867C176.152 76.8867 177.109 77.0859 177.961 77.4844C178.812 77.8828 179.516 78.5117 180.07 79.3711C180.57 80.1289 180.895 81.0078 181.043 82.0078C181.129 82.5938 181.164 83.4375 181.148 84.5391H172.406C172.453 85.8203 172.855 86.7188 173.613 87.2344C174.074 87.5547 174.629 87.7148 175.277 87.7148C175.965 87.7148 176.523 87.5195 176.953 87.1289C177.188 86.918 177.395 86.625 177.574 86.25H180.984ZM177.68 82.3359C177.625 81.4531 177.355 80.7852 176.871 80.332C176.395 79.8711 175.801 79.6406 175.09 79.6406C174.316 79.6406 173.715 79.8828 173.285 80.3672C172.863 80.8516 172.598 81.5078 172.488 82.3359H177.68ZM197.695 83.7891H194.027V90H190.441V72.7266H197.965C199.699 72.7266 201.082 73.1719 202.113 74.0625C203.145 74.9531 203.66 76.332 203.66 78.1992C203.66 80.2383 203.145 81.6797 202.113 82.5234C201.082 83.3672 199.609 83.7891 197.695 83.7891ZM199.383 80.1914C199.852 79.7773 200.086 79.1211 200.086 78.2227C200.086 77.3242 199.848 76.6836 199.371 76.3008C198.902 75.918 198.242 75.7266 197.391 75.7266H194.027V80.8125H197.391C198.242 80.8125 198.906 80.6055 199.383 80.1914ZM206.578 78.6094C207.461 77.4844 208.977 76.9219 211.125 76.9219C212.523 76.9219 213.766 77.1992 214.852 77.7539C215.938 78.3086 216.48 79.3555 216.48 80.8945V86.7539C216.48 87.1602 216.488 87.6523 216.504 88.2305C216.527 88.668 216.594 88.9648 216.703 89.1211C216.812 89.2773 216.977 89.4062 217.195 89.5078V90H213.562C213.461 89.7422 213.391 89.5 213.352 89.2734C213.312 89.0469 213.281 88.7891 213.258 88.5C212.797 89 212.266 89.4258 211.664 89.7773C210.945 90.1914 210.133 90.3984 209.227 90.3984C208.07 90.3984 207.113 90.0703 206.355 89.4141C205.605 88.75 205.23 87.8125 205.23 86.6016C205.23 85.0312 205.836 83.8945 207.047 83.1914C207.711 82.8086 208.688 82.5352 209.977 82.3711L211.113 82.2305C211.73 82.1523 212.172 82.0547 212.438 81.9375C212.914 81.7344 213.152 81.418 213.152 80.9883C213.152 80.4648 212.969 80.1055 212.602 79.9102C212.242 79.707 211.711 79.6055 211.008 79.6055C210.219 79.6055 209.66 79.8008 209.332 80.1914C209.098 80.4805 208.941 80.8711 208.863 81.3633H205.641C205.711 80.2461 206.023 79.3281 206.578 78.6094ZM209.062 87.5859C209.375 87.8438 209.758 87.9727 210.211 87.9727C210.93 87.9727 211.59 87.7617 212.191 87.3398C212.801 86.918 213.117 86.1484 213.141 85.0312V83.7891C212.93 83.9219 212.715 84.0312 212.496 84.1172C212.285 84.1953 211.992 84.2695 211.617 84.3398L210.867 84.4805C210.164 84.6055 209.66 84.7578 209.355 84.9375C208.84 85.2422 208.582 85.7148 208.582 86.3555C208.582 86.9258 208.742 87.3359 209.062 87.5859ZM225.879 80.3086C224.535 80.3086 223.633 80.7461 223.172 81.6211C222.914 82.1133 222.785 82.8711 222.785 83.8945V90H219.422V77.2266H222.609V79.4531C223.125 78.6016 223.574 78.0195 223.957 77.707C224.582 77.1836 225.395 76.9219 226.395 76.9219C226.457 76.9219 226.508 76.9258 226.547 76.9336C226.594 76.9336 226.691 76.9375 226.84 76.9453V80.3672C226.629 80.3438 226.441 80.3281 226.277 80.3203C226.113 80.3125 225.98 80.3086 225.879 80.3086ZM234.656 87.6211V90.1172L233.074 90.1758C231.496 90.2305 230.418 89.957 229.84 89.3555C229.465 88.9727 229.277 88.3828 229.277 87.5859V79.7227H227.496V77.3438H229.277V73.7812H232.582V77.3438H234.656V79.7227H232.582V86.4727C232.582 86.9961 232.648 87.3242 232.781 87.457C232.914 87.582 233.32 87.6445 234 87.6445C234.102 87.6445 234.207 87.6445 234.316 87.6445C234.434 87.6367 234.547 87.6289 234.656 87.6211ZM241.992 86.6484L244.629 77.2266H248.18L243.797 89.7891C242.953 92.2109 242.285 93.7109 241.793 94.2891C241.301 94.875 240.316 95.168 238.84 95.168C238.543 95.168 238.305 95.1641 238.125 95.1562C237.945 95.1562 237.676 95.1445 237.316 95.1211V92.4492L237.738 92.4727C238.066 92.4883 238.379 92.4766 238.676 92.4375C238.973 92.3984 239.223 92.3086 239.426 92.168C239.621 92.0352 239.801 91.7578 239.965 91.3359C240.137 90.9141 240.207 90.6562 240.176 90.5625L235.488 77.2266H239.203L241.992 86.6484Z" fill="#111111"/>
</g>
<rect x="6" y="59" width="240" height="8" fill="#D50400"/>
<defs>
<clipPath id="clip0_34_123">
<rect width="251" height="59" fill="white"/>
</clipPath>
<clipPath id="clip1_34_123">
<rect width="240" height="26" fill="white" transform="translate(6 67)"/>
</clipPath>
</defs>
</svg>
