<svg width="253" height="182" viewBox="0 0 253 182" fill="none" xmlns="http://www.w3.org/2000/svg">
<g clip-path="url(#clip0_36_488)">
<path d="M245.708 62.0546C245.859 62.1677 245.984 62.3143 246.071 62.4833C246.159 62.6522 246.208 62.8392 246.214 63.0301C246.22 63.221 246.184 63.4108 246.108 63.5854C246.032 63.76 245.917 63.9147 245.774 64.038L228.129 81.9806C228.007 82.1265 227.855 82.2426 227.684 82.3201C227.512 82.3976 227.325 82.4345 227.137 82.428C226.95 82.4216 226.766 82.372 226.6 82.2829C226.434 82.1938 226.289 82.0675 226.178 81.9137C226.027 81.7999 225.904 81.6528 225.817 81.4835C225.73 81.3142 225.682 81.127 225.677 80.9362C225.671 80.7453 225.708 80.5556 225.785 80.3814C225.862 80.2071 225.977 80.0529 226.121 79.9303L243.758 61.996C243.878 61.8496 244.03 61.733 244.201 61.6548C244.372 61.5766 244.559 61.5389 244.747 61.5445C244.934 61.5501 245.118 61.599 245.285 61.6873C245.451 61.7757 245.596 61.9012 245.708 62.0546Z" fill="#007EC6"/>
<path d="M245.708 81.9137C245.597 82.0675 245.453 82.1938 245.286 82.2829C245.12 82.372 244.936 82.4216 244.749 82.428C244.561 82.4345 244.374 82.3976 244.203 82.3201C244.031 82.2426 243.879 82.1265 243.758 81.9806L226.121 64.038C225.977 63.9153 225.862 63.7611 225.785 63.5869C225.708 63.4127 225.671 63.223 225.677 63.0321C225.682 62.8412 225.73 62.6541 225.817 62.4848C225.904 62.3155 226.027 62.1684 226.178 62.0546C226.29 61.9012 226.435 61.7757 226.601 61.6873C226.768 61.599 226.952 61.5501 227.139 61.5445C227.327 61.5389 227.514 61.5766 227.685 61.6548C227.856 61.733 228.008 61.8496 228.129 61.996L245.774 79.9303C245.917 80.0535 246.032 80.2083 246.108 80.3828C246.184 80.5574 246.22 80.7473 246.214 80.9382C246.208 81.1291 246.159 81.316 246.071 81.485C245.984 81.654 245.859 81.8005 245.708 81.9137Z" fill="#007EC6"/>
<path d="M240.103 59.8199C240.103 62.6737 238.243 70.0047 235.947 70.0047C233.651 70.0047 231.783 62.6737 231.783 59.8199C231.783 56.9662 233.651 54.6396 235.947 54.6396C238.243 54.6396 240.103 56.9578 240.103 59.8199Z" fill="#007EC6"/>
<path d="M231.783 84.156C231.783 81.2939 233.651 73.9629 235.947 73.9629C238.243 73.9629 240.103 81.2939 240.103 84.156C240.103 87.0182 238.243 89.3279 235.947 89.3279C233.651 89.3279 231.783 87.0098 231.783 84.156Z" fill="#007EC6"/>
<path d="M247.914 76.2142C245.099 76.2142 237.89 74.3229 237.89 71.988C237.89 69.6531 245.099 67.7534 247.914 67.7534C250.728 67.7534 253 69.6531 253 71.988C253 74.3229 250.72 76.2142 247.914 76.2142Z" fill="#007EC6"/>
<path d="M223.981 67.7534C226.787 67.7534 233.997 69.6531 233.997 71.988C233.997 74.3229 226.787 76.2142 223.981 76.2142C221.174 76.2142 218.886 74.3229 218.886 71.988C218.886 69.6531 221.166 67.7534 223.981 67.7534Z" fill="#007EC6"/>
</g>
<g clip-path="url(#clip1_36_488)">
<path d="M151.719 114.68C151.849 114.777 151.955 114.902 152.03 115.047C152.106 115.192 152.147 115.352 152.153 115.516C152.158 115.68 152.127 115.842 152.062 115.992C151.996 116.142 151.899 116.274 151.776 116.38L136.651 131.759C136.547 131.884 136.417 131.984 136.27 132.05C136.122 132.117 135.962 132.148 135.802 132.143C135.641 132.137 135.483 132.095 135.341 132.018C135.198 131.942 135.075 131.834 134.979 131.702C134.85 131.604 134.744 131.478 134.67 131.333C134.595 131.188 134.554 131.028 134.549 130.864C134.545 130.7 134.576 130.538 134.642 130.389C134.708 130.239 134.807 130.107 134.93 130.002L150.047 114.63C150.151 114.504 150.281 114.404 150.428 114.337C150.574 114.27 150.734 114.238 150.895 114.243C151.056 114.247 151.214 114.289 151.357 114.365C151.499 114.441 151.623 114.548 151.719 114.68Z" fill="#FF7D00"/>
<path d="M151.719 131.702C151.624 131.834 151.5 131.942 151.358 132.018C151.215 132.095 151.058 132.137 150.897 132.143C150.736 132.148 150.576 132.117 150.429 132.05C150.282 131.984 150.151 131.884 150.047 131.759L134.93 116.38C134.807 116.275 134.708 116.143 134.642 115.993C134.576 115.844 134.545 115.681 134.549 115.518C134.554 115.354 134.595 115.194 134.67 115.049C134.744 114.903 134.85 114.777 134.979 114.68C135.075 114.548 135.199 114.441 135.342 114.365C135.485 114.289 135.642 114.247 135.803 114.243C135.964 114.238 136.124 114.27 136.271 114.337C136.418 114.404 136.548 114.504 136.651 114.63L151.776 130.002C151.899 130.108 151.996 130.24 152.062 130.39C152.127 130.539 152.158 130.702 152.153 130.866C152.147 131.029 152.106 131.19 152.03 131.335C151.955 131.479 151.849 131.605 151.719 131.702Z" fill="#FF7D00"/>
<path d="M146.915 112.764C146.915 115.211 145.321 121.494 143.353 121.494C141.385 121.494 139.783 115.211 139.783 112.764C139.783 110.318 141.385 108.324 143.353 108.324C145.321 108.324 146.915 110.311 146.915 112.764Z" fill="#FF7D00"/>
<path d="M139.783 133.624C139.783 131.171 141.385 124.887 143.353 124.887C145.321 124.887 146.915 131.171 146.915 133.624C146.915 136.077 145.321 138.057 143.353 138.057C141.385 138.057 139.783 136.07 139.783 133.624Z" fill="#FF7D00"/>
<path d="M153.61 126.817C151.197 126.817 145.018 125.195 145.018 123.194C145.018 121.193 151.197 119.564 153.61 119.564C156.022 119.564 157.969 121.193 157.969 123.194C157.969 125.195 156.015 126.817 153.61 126.817Z" fill="#FF7D00"/>
<path d="M133.096 119.564C135.501 119.564 141.681 121.193 141.681 123.194C141.681 125.195 135.501 126.817 133.096 126.817C130.69 126.817 128.729 125.195 128.729 123.194C128.729 121.193 130.683 119.564 133.096 119.564Z" fill="#FF7D00"/>
</g>
<g clip-path="url(#clip2_36_488)">
<path d="M199.864 83.8932C199.922 83.9365 199.969 83.9924 200.002 84.0569C200.035 84.1214 200.053 84.1928 200.056 84.2655C200.058 84.3383 200.043 84.4105 200.014 84.4769C199.985 84.5432 199.941 84.6019 199.886 84.6484L193.167 91.4806C193.121 91.5365 193.063 91.5812 192.998 91.6111C192.933 91.641 192.862 91.6555 192.79 91.6534C192.719 91.6513 192.648 91.6327 192.585 91.599C192.522 91.5652 192.467 91.5173 192.424 91.4588C192.367 91.4154 192.32 91.3595 192.287 91.2952C192.254 91.2309 192.235 91.1599 192.233 91.0874C192.231 91.015 192.244 90.9428 192.273 90.8764C192.301 90.8099 192.344 90.7509 192.398 90.7035L199.121 83.867C199.168 83.8121 199.226 83.7684 199.291 83.7394C199.357 83.7103 199.428 83.6965 199.499 83.699C199.57 83.7015 199.64 83.7203 199.703 83.7539C199.766 83.7875 199.821 83.8351 199.864 83.8932V83.8932Z" fill="#D50400"/>
<path d="M199.864 91.4588C199.821 91.5166 199.766 91.5639 199.702 91.5971C199.639 91.6303 199.569 91.6486 199.498 91.6507C199.427 91.6528 199.356 91.6386 199.291 91.6092C199.226 91.5797 199.168 91.5358 199.121 91.4806L192.398 84.6484C192.344 84.6011 192.301 84.542 192.273 84.4756C192.244 84.4091 192.231 84.337 192.233 84.2645C192.235 84.1921 192.254 84.1211 192.287 84.0568C192.32 83.9925 192.367 83.9366 192.424 83.8932C192.467 83.8351 192.522 83.7875 192.585 83.7539C192.648 83.7203 192.718 83.7015 192.789 83.699C192.86 83.6965 192.931 83.7103 192.997 83.7394C193.062 83.7684 193.12 83.8121 193.167 83.867L199.886 90.7035C199.94 90.7506 199.983 90.8094 200.012 90.8756C200.041 90.9419 200.055 91.0139 200.053 91.0864C200.051 91.1589 200.033 91.23 200 91.2944C199.967 91.3589 199.921 91.415 199.864 91.4588V91.4588Z" fill="#D50400"/>
<path d="M197.726 83.0421C197.726 84.1291 197.018 86.9231 196.142 86.9231C195.266 86.9231 194.558 84.1248 194.558 83.0421C194.558 81.9594 195.27 81.0688 196.142 81.0688C197.013 81.0688 197.726 81.942 197.726 83.0421Z" fill="#D50400"/>
<path d="M194.558 92.3102C194.558 91.2232 195.27 88.4292 196.142 88.4292C197.013 88.4292 197.726 91.2232 197.726 92.3102C197.726 93.3973 197.018 94.2835 196.142 94.2835C195.266 94.2835 194.558 93.3973 194.558 92.3102Z" fill="#D50400"/>
<path d="M200.701 89.2848C199.632 89.2848 196.885 88.5645 196.885 87.6739C196.885 86.7833 199.632 86.063 200.701 86.063C201.77 86.063 202.642 86.7877 202.642 87.6739C202.642 88.5601 201.77 89.2848 200.701 89.2848Z" fill="#D50400"/>
<path d="M191.587 86.063C192.656 86.063 195.403 86.7877 195.403 87.6739C195.403 88.5601 192.652 89.2848 191.587 89.2848C190.522 89.2848 189.646 88.5645 189.646 87.6739C189.646 86.7833 190.505 86.063 191.587 86.063Z" fill="#D50400"/>
</g>
<g clip-path="url(#clip3_36_488)">
<path d="M82.9655 164.77C83.0554 164.838 83.1291 164.925 83.1809 165.026C83.2327 165.127 83.2613 165.238 83.2645 165.352C83.2677 165.466 83.2455 165.579 83.1995 165.682C83.1535 165.786 83.085 165.877 82.999 165.95L72.5007 176.625C72.4292 176.713 72.339 176.783 72.2371 176.829C72.1351 176.876 72.0241 176.899 71.9123 176.895C71.8005 176.892 71.6909 176.863 71.5918 176.81C71.4927 176.758 71.4067 176.683 71.3402 176.591C71.2509 176.524 71.1778 176.436 71.1261 176.336C71.0745 176.235 71.0457 176.124 71.0418 176.011C71.038 175.898 71.0592 175.785 71.1038 175.681C71.1485 175.578 71.2155 175.485 71.3 175.411L81.805 164.729C81.8777 164.643 81.9685 164.575 82.0706 164.53C82.1727 164.484 82.2835 164.463 82.3949 164.467C82.5063 164.471 82.6153 164.5 82.7141 164.553C82.8129 164.605 82.8988 164.679 82.9655 164.77V164.77Z" fill="#D50400"/>
<path d="M82.9655 176.591C82.8982 176.682 82.8119 176.756 82.7129 176.807C82.6139 176.859 82.5046 176.888 82.3933 176.891C82.2819 176.895 82.1712 176.872 82.0694 176.826C81.9676 176.78 81.8772 176.712 81.805 176.625L71.3 165.95C71.2155 165.876 71.1485 165.784 71.1038 165.68C71.0592 165.576 71.038 165.464 71.0418 165.35C71.0457 165.237 71.0745 165.126 71.1261 165.026C71.1778 164.925 71.2509 164.838 71.3402 164.77C71.4069 164.679 71.4928 164.605 71.5916 164.553C71.6903 164.5 71.7994 164.471 71.9108 164.467C72.0222 164.463 72.133 164.484 72.2351 164.53C72.3372 164.575 72.428 164.643 72.5007 164.729L82.999 175.411C83.0838 175.485 83.1513 175.577 83.1966 175.68C83.2418 175.784 83.2636 175.896 83.2604 176.01C83.2572 176.123 83.229 176.234 83.178 176.335C83.1269 176.435 83.0543 176.523 82.9655 176.591V176.591Z" fill="#D50400"/>
<path d="M79.6248 163.44C79.6248 165.139 78.518 169.504 77.1495 169.504C75.781 169.504 74.6742 165.132 74.6742 163.44C74.6742 161.748 75.7878 160.357 77.1495 160.357C78.5113 160.357 79.6248 161.721 79.6248 163.44Z" fill="#D50400"/>
<path d="M74.6741 177.922C74.6741 176.223 75.7877 171.857 77.1495 171.857C78.5112 171.857 79.6248 176.223 79.6248 177.922C79.6248 179.62 78.5179 181.005 77.1495 181.005C75.781 181.005 74.6741 179.62 74.6741 177.922Z" fill="#D50400"/>
<path d="M84.2736 173.195C82.6032 173.195 78.31 172.069 78.31 170.678C78.31 169.286 82.6032 168.161 84.2736 168.161C85.9439 168.161 87.3057 169.293 87.3057 170.678C87.3057 172.062 85.9439 173.195 84.2736 173.195Z" fill="#D50400"/>
<path d="M70.0321 168.161C71.7024 168.161 75.9957 169.293 75.9957 170.678C75.9957 172.062 71.6957 173.195 70.0321 173.195C68.3685 173.195 67 172.069 67 170.678C67 169.286 68.3416 168.161 70.0321 168.161Z" fill="#D50400"/>
</g>
<g clip-path="url(#clip4_36_488)">
<path d="M187.973 152.148C188.038 152.2 188.091 152.266 188.129 152.341C188.166 152.416 188.187 152.498 188.19 152.582C188.192 152.667 188.176 152.75 188.144 152.827C188.111 152.905 188.061 152.974 187.999 153.03L180.003 161.161C179.948 161.226 179.88 161.279 179.802 161.314C179.725 161.349 179.64 161.366 179.556 161.363C179.471 161.361 179.388 161.339 179.313 161.299C179.237 161.259 179.172 161.203 179.121 161.134C179.053 161.082 178.998 161.015 178.958 160.939C178.919 160.862 178.898 160.778 178.895 160.692C178.893 160.605 178.909 160.52 178.944 160.441C178.978 160.362 179.03 160.292 179.094 160.237L187.091 152.121C187.146 152.055 187.214 152.003 187.292 151.968C187.369 151.933 187.454 151.916 187.538 151.918C187.623 151.921 187.706 151.943 187.781 151.983C187.857 152.022 187.922 152.079 187.973 152.148V152.148Z" fill="#00B8AE"/>
<path d="M187.973 161.134C187.922 161.203 187.857 161.259 187.781 161.299C187.706 161.339 187.623 161.361 187.538 161.363C187.454 161.366 187.369 161.349 187.292 161.314C187.214 161.279 187.146 161.226 187.091 161.16L179.11 153.029C179.045 152.974 178.993 152.904 178.959 152.825C178.924 152.746 178.908 152.661 178.91 152.574C178.913 152.488 178.934 152.404 178.974 152.327C179.013 152.251 179.068 152.184 179.136 152.132C179.188 152.067 179.254 152.014 179.328 151.977C179.403 151.941 179.484 151.921 179.567 151.92C179.65 151.919 179.732 151.936 179.807 151.971C179.882 152.006 179.949 152.057 180.003 152.121L187.999 160.236C188.064 160.292 188.116 160.362 188.15 160.441C188.185 160.52 188.201 160.605 188.199 160.692C188.196 160.778 188.175 160.862 188.136 160.939C188.096 161.015 188.041 161.082 187.973 161.134V161.134Z" fill="#00B8AE"/>
<path d="M185.436 151.135C185.436 152.429 184.592 155.755 183.543 155.755C182.494 155.755 181.65 152.436 181.65 151.135C181.65 149.834 182.517 148.794 183.555 148.794C184.592 148.794 185.436 149.842 185.436 151.135Z" fill="#00B8AE"/>
<path d="M181.673 162.146C181.673 160.853 182.517 157.526 183.566 157.526C184.615 157.526 185.459 160.845 185.459 162.146C185.459 163.448 184.615 164.487 183.566 164.487C182.517 164.487 181.673 163.424 181.673 162.146Z" fill="#00B8AE"/>
<path d="M188.969 158.554C187.697 158.554 184.425 157.699 184.425 156.629C184.425 155.559 187.689 154.704 188.969 154.704C190.248 154.704 191.271 155.563 191.271 156.629C191.271 157.696 190.226 158.554 188.969 158.554Z" fill="#00B8AE"/>
<path d="M178.14 154.727C179.412 154.727 182.684 155.586 182.684 156.652C182.684 157.718 179.42 158.577 178.14 158.577C176.861 158.577 175.838 157.699 175.838 156.64C175.838 155.582 176.868 154.727 178.14 154.727Z" fill="#00B8AE"/>
</g>
<g clip-path="url(#clip5_36_488)">
<path d="M33.8137 9.18651C34.004 9.32784 34.1597 9.51046 34.2692 9.72064C34.3787 9.93082 34.4391 10.1631 34.4459 10.4C34.4527 10.6369 34.4057 10.8722 34.3084 11.0883C34.2111 11.3045 34.0661 11.4957 33.8843 11.6477L11.6475 33.8845C11.4954 34.0649 11.3046 34.2086 11.0893 34.305C10.8739 34.4014 10.6396 34.4479 10.4038 34.4411C10.168 34.4344 9.93671 34.3744 9.72727 34.2658C9.51782 34.1572 9.33559 34.0028 9.19415 33.8139C9.00342 33.6732 8.84708 33.4911 8.73689 33.2812C8.6267 33.0714 8.56553 32.8393 8.55798 32.6024C8.55044 32.3655 8.59671 32.1299 8.69333 31.9135C8.78994 31.697 8.93438 31.5053 9.11577 31.3528L31.3526 9.11597C31.5045 8.93413 31.6958 8.78912 31.9119 8.69185C32.128 8.59457 32.3634 8.54756 32.6002 8.55435C32.8371 8.56114 33.0694 8.62156 33.2796 8.73105C33.4898 8.84054 33.6724 8.99627 33.8137 9.18651V9.18651Z" fill="#FF50C8"/>
<path d="M33.8137 33.8139C33.6724 34.0041 33.4898 34.1598 33.2796 34.2693C33.0694 34.3788 32.8371 34.4392 32.6002 34.446C32.3634 34.4528 32.128 34.4058 31.9119 34.3085C31.6958 34.2113 31.5045 34.0662 31.3526 33.8844L9.11577 11.6476C8.93438 11.4951 8.78994 11.3033 8.69333 11.0869C8.59671 10.8705 8.55044 10.6349 8.55798 10.398C8.56553 10.1611 8.6267 9.92901 8.73689 9.71916C8.84708 9.5093 9.00342 9.32717 9.19415 9.18645C9.33559 8.99762 9.51782 8.84314 9.72727 8.73455C9.93671 8.62595 10.168 8.56602 10.4038 8.55924C10.6396 8.55246 10.8739 8.599 11.0893 8.69538C11.3046 8.79177 11.4954 8.93551 11.6475 9.11591L33.8843 31.3527C34.0661 31.5047 34.2111 31.6959 34.3084 31.912C34.4057 32.1281 34.4527 32.3635 34.4459 32.6004C34.4391 32.8373 34.3787 33.0696 34.2692 33.2797C34.1597 33.4899 34.004 33.6725 33.8137 33.8139V33.8139Z" fill="#FF50C8"/>
<path d="M26.7437 6.41943C26.7437 9.96227 24.3923 19.0467 21.5 19.0467C18.6077 19.0467 16.2563 9.96227 16.2563 6.41943C16.2563 2.87659 18.6077 0 21.5 0C24.3923 0 26.7437 2.87659 26.7437 6.41943Z" fill="#FF50C8"/>
<path d="M16.2563 36.5804C16.2563 33.0375 18.6077 23.9531 21.5 23.9531C24.3923 23.9531 26.7437 33.0375 26.7437 36.5804C26.7437 40.1232 24.3923 42.9998 21.5 42.9998C18.6077 42.9998 16.2563 40.1232 16.2563 36.5804Z" fill="#FF50C8"/>
<path d="M36.5805 26.7438C33.0377 26.7438 23.9533 24.3923 23.9533 21.5001C23.9533 18.6078 33.0377 16.2563 36.5805 16.2563C40.1234 16.2563 43 18.6078 43 21.5001C43 24.3923 40.1234 26.7438 36.5805 26.7438Z" fill="#FF50C8"/>
<path d="M6.41943 16.2563C9.96227 16.2563 19.0467 18.6078 19.0467 21.5001C19.0467 24.3923 9.96227 26.7438 6.41943 26.7438C2.87659 26.7438 0 24.3923 0 21.5001C0 18.6078 2.87659 16.2563 6.41943 16.2563Z" fill="#FF50C8"/>
</g>
<defs>
<clipPath id="clip0_36_488">
<rect width="34.1135" height="34.6885" fill="white" transform="translate(218.886 54.6396)"/>
</clipPath>
<clipPath id="clip1_36_488">
<rect width="29.2402" height="29.733" fill="white" transform="translate(128.729 108.324)"/>
</clipPath>
<clipPath id="clip2_36_488">
<rect width="12.9956" height="13.2147" fill="white" transform="translate(189.646 81.0688)"/>
</clipPath>
<clipPath id="clip3_36_488">
<rect width="20.3057" height="20.6479" fill="white" transform="translate(67 160.357)"/>
</clipPath>
<clipPath id="clip4_36_488">
<rect width="15.4323" height="15.6924" fill="white" transform="translate(175.838 148.794)"/>
</clipPath>
<clipPath id="clip5_36_488">
<rect width="43" height="43" fill="white"/>
</clipPath>
</defs>
</svg>
