<svg width="251" height="93" viewBox="0 0 251 93" fill="none" xmlns="http://www.w3.org/2000/svg">
<g clip-path="url(#clip0_204_1952)">
<rect width="251" height="59" fill="#FF7E00"/>
<path d="M9.736 1.736V8.84H49.992V1.736H9.736ZM16.136 14.024V19.912H43.08V14.024H16.136ZM14.792 23.88V29.96H44.36V23.88H14.792ZM5.064 1.736V24.008C5.064 33.416 4.552 45.768 -1.592 54.152C0.136 55.112 3.4 57.608 4.616 59.08C11.656 49.736 12.68 34.568 12.68 24.008V1.736H5.064ZM46.984 1.736V50.248C46.984 51.272 46.6 51.656 45.512 51.656C44.424 51.72 40.584 51.784 37.32 51.592C38.344 53.448 39.432 56.712 39.688 58.696C45.256 58.696 48.904 58.568 51.4 57.416C53.896 56.2 54.728 54.28 54.728 50.248V1.736H46.984ZM25.736 9.8V27.144H32.968V9.8H25.736ZM21 33.608V39.432H34.824V45.32H21V51.08H41.928V33.608H21ZM17.096 33.608V54.6H24.072V33.608H17.096ZM77.896 27.784H63.368V34.824H70.472V48.072H77.896V27.784ZM77.896 44.296H71.24C68.424 46.664 65.224 48.904 62.408 50.696L66.056 58.248C69.32 55.496 72.072 53.064 74.696 50.504C78.792 55.496 84.168 57.352 92.168 57.672C99.848 57.992 113.16 57.864 120.968 57.48C121.288 55.304 122.44 51.848 123.336 50.12C114.632 50.824 99.784 51.016 92.168 50.632C85.384 50.376 80.52 48.52 77.896 44.296ZM65.8 3.72C69.32 5.96 73.544 9.352 75.4 11.784L80.84 6.728C78.792 4.36 74.44 1.16 70.92 -0.888004L65.8 3.72ZM63.496 16.712C67.144 18.824 71.56 22.216 73.544 24.52L78.792 19.336C76.616 16.904 72.072 13.896 68.488 11.976L63.496 16.712ZM97.032 18.888V23.624H104.072V18.888H97.032ZM92.36 9.544H109.448V11.464H92.36V9.544ZM92.36 14.408H109.448V16.392H92.36V14.408ZM92.36 4.68H109.448V6.6H92.36V4.68ZM85.256 1.608V19.464H116.936V1.608H85.256ZM97.544 -1.4C97.352 -0.120003 96.776 1.608 96.2 3.272L102.024 4.168C102.984 2.952 104.264 1.288 105.416 -0.824001L97.544 -1.4ZM80.52 21.384V28.104H87.176V25.032H114.888V28.104H121.736V21.384H80.52ZM97.16 29.704V34.696H104.136V29.704H97.16ZM80.392 33.416V37.512H121.992V33.416H80.392ZM93.32 39.304V43.272H110.92V39.304H93.32ZM109.192 39.304V39.944C108.616 43.4 108.04 45.064 107.336 45.704C106.824 46.088 106.376 46.088 105.416 46.088C104.392 46.152 102.024 46.088 99.528 45.832C100.168 46.984 100.744 48.776 100.808 49.928C103.816 50.184 106.632 50.184 108.104 50.056C109.768 49.992 111.24 49.736 112.456 48.776C113.8 47.688 114.632 45.576 115.272 41.352C115.464 40.648 115.528 39.304 115.528 39.304H109.192ZM92.936 35.528C92.104 40.456 89.928 43.4 80.776 45.064C82.056 46.152 83.592 48.584 84.168 50.056C95.176 47.432 98.184 42.952 99.272 35.528H92.936ZM92.68 24.456C91.848 27.592 89.48 28.936 82.056 29.768C83.016 30.664 84.296 32.584 84.744 33.8C93.768 32.264 96.84 29.64 97.864 24.456H92.68ZM101.448 23.112V26.376C101.448 30.472 102.408 31.624 107.08 31.624C107.976 31.624 110.472 31.624 111.368 31.624C114.44 31.624 115.784 30.6 116.232 27.208C114.824 26.888 112.776 26.312 111.816 25.672C111.688 27.4 111.368 27.656 110.6 27.656C110.088 27.656 108.36 27.656 107.976 27.656C107.016 27.656 106.952 27.592 106.952 26.376V23.112H101.448ZM150.088 32.776V58.696H157.064V39.752H176.328V58.44H183.624V32.776H150.088ZM178.568 -1.336C171.464 1.48 159.432 3.592 148.552 4.68C149.384 6.408 150.408 9.416 150.728 11.272C162.056 10.248 175.048 8.264 184.456 4.68L178.568 -1.336ZM163.208 5.832V36.808H170.504V5.832H163.208ZM146.056 17.288V24.648H186.888V17.288H146.056ZM155.08 49.16V56.072H179.336V49.16H155.08ZM130.312 5C133.96 7.112 139.4 10.184 141.96 12.104L146.504 5.896C143.752 4.104 138.184 1.288 134.6 -0.504002L130.312 5ZM127.176 22.728C131.016 24.776 136.584 27.848 139.208 29.64L143.496 23.304C140.68 21.512 134.984 18.76 131.336 17.032L127.176 22.728ZM128.136 52.808L134.664 57.992C138.504 51.784 142.6 44.488 145.992 37.704L140.36 32.648C136.52 40.008 131.592 48.008 128.136 52.808ZM192.712 40.072V45.512H222.6V40.072H192.712ZM191.24 9.608V15.176H223.24V9.608H191.24ZM203.976 5.064V50.952H210.888V5.064H203.976ZM190.92 50.248L191.816 56.648C200.136 55.88 211.784 54.728 222.664 53.576L222.6 47.752C211.08 48.776 198.856 49.672 190.92 50.248ZM199.048 29.832H215.944V32.776H199.048V29.832ZM199.048 22.472H215.944V25.352H199.048V22.472ZM192.904 17.672V37.576H222.28V17.672H192.904ZM219.144 -1.016C212.104 0.519997 200.968 1.672 191.432 2.12C192.136 3.592 192.84 6.024 193.096 7.56C202.696 7.368 214.344 6.408 222.536 4.744L219.144 -1.016ZM223.24 13.128V20.168H245.384V13.128H223.24ZM242.312 13.128V14.792C241.8 39.56 241.288 48.584 239.816 50.504C239.24 51.4 238.6 51.592 237.64 51.592C236.36 51.592 233.928 51.592 231.176 51.336C232.392 53.384 233.224 56.52 233.416 58.632C236.424 58.76 239.432 58.76 241.416 58.376C243.528 57.992 245 57.288 246.408 55.112C248.52 52.232 249.032 42.888 249.608 16.52C249.608 15.624 249.672 13.128 249.672 13.128H242.312ZM229.384 -0.248001C229.32 25.288 230.024 43.208 216.52 53.512C218.248 54.792 220.744 57.416 221.832 59.272C236.616 47.624 236.68 27.08 236.744 -0.248001H229.384Z" fill="#111111"/>
</g>
<g clip-path="url(#clip1_204_1952)">
<rect width="137" height="26" transform="translate(55 67)" fill="#FF50C8"/>
<path d="M63.0977 87.5039C63.9492 87.5039 64.6406 87.4102 65.1719 87.2227C66.1797 86.8633 66.6836 86.1953 66.6836 85.2188C66.6836 84.6484 66.4336 84.207 65.9336 83.8945C65.4336 83.5898 64.6484 83.3203 63.5781 83.0859L61.75 82.6758C59.9531 82.2695 58.7109 81.8281 58.0234 81.3516C56.8594 80.5547 56.2773 79.3086 56.2773 77.6133C56.2773 76.0664 56.8398 74.7812 57.9648 73.7578C59.0898 72.7344 60.7422 72.2227 62.9219 72.2227C64.7422 72.2227 66.293 72.707 67.5742 73.6758C68.8633 74.6367 69.5391 76.0352 69.6016 77.8711H66.1328C66.0703 76.832 65.6172 76.0938 64.7734 75.6562C64.2109 75.3672 63.5117 75.2227 62.6758 75.2227C61.7461 75.2227 61.0039 75.4102 60.4492 75.7852C59.8945 76.1602 59.6172 76.6836 59.6172 77.3555C59.6172 77.9727 59.8906 78.4336 60.4375 78.7383C60.7891 78.9414 61.5391 79.1797 62.6875 79.4531L65.6641 80.168C66.9688 80.4805 67.9531 80.8984 68.6172 81.4219C69.6484 82.2344 70.1641 83.4102 70.1641 84.9492C70.1641 86.5273 69.5586 87.8398 68.3477 88.8867C67.1445 89.9258 65.4414 90.4453 63.2383 90.4453C60.9883 90.4453 59.2188 89.9336 57.9297 88.9102C56.6406 87.8789 55.9961 86.4648 55.9961 84.668H59.4414C59.5508 85.457 59.7656 86.0469 60.0859 86.4375C60.6719 87.1484 61.6758 87.5039 63.0977 87.5039ZM76 77.2266V90H72.6133V77.2266H76ZM76 72.6211V75.7031H72.6133V72.6211H76ZM90.8711 72.75V90H87.625V88.2305C87.1484 88.9883 86.6055 89.5391 85.9961 89.8828C85.3867 90.2266 84.6289 90.3984 83.7227 90.3984C82.2305 90.3984 80.9727 89.7969 79.9492 88.5938C78.9336 87.3828 78.4258 85.832 78.4258 83.9414C78.4258 81.7617 78.9258 80.0469 79.9258 78.7969C80.9336 77.5469 82.2773 76.9219 83.957 76.9219C84.7305 76.9219 85.418 77.0938 86.0195 77.4375C86.6211 77.7734 87.1094 78.2422 87.4844 78.8438V72.75H90.8711ZM81.8711 83.6953C81.8711 84.875 82.1055 85.8164 82.5742 86.5195C83.0352 87.2305 83.7383 87.5859 84.6836 87.5859C85.6289 87.5859 86.3477 87.2344 86.8398 86.5312C87.332 85.8281 87.5781 84.918 87.5781 83.8008C87.5781 82.2383 87.1836 81.1211 86.3945 80.4492C85.9102 80.043 85.3477 79.8398 84.707 79.8398C83.7305 79.8398 83.0117 80.2109 82.5508 80.9531C82.0977 81.6875 81.8711 82.6016 81.8711 83.6953ZM104.852 86.25C104.766 87.0078 104.371 87.7773 103.668 88.5586C102.574 89.8008 101.043 90.4219 99.0742 90.4219C97.4492 90.4219 96.0156 89.8984 94.7734 88.8516C93.5312 87.8047 92.9102 86.1016 92.9102 83.7422C92.9102 81.5312 93.4688 79.8359 94.5859 78.6562C95.7109 77.4766 97.168 76.8867 98.957 76.8867C100.02 76.8867 100.977 77.0859 101.828 77.4844C102.68 77.8828 103.383 78.5117 103.938 79.3711C104.438 80.1289 104.762 81.0078 104.91 82.0078C104.996 82.5938 105.031 83.4375 105.016 84.5391H96.2734C96.3203 85.8203 96.7227 86.7188 97.4805 87.2344C97.9414 87.5547 98.4961 87.7148 99.1445 87.7148C99.832 87.7148 100.391 87.5195 100.82 87.1289C101.055 86.918 101.262 86.625 101.441 86.25H104.852ZM101.547 82.3359C101.492 81.4531 101.223 80.7852 100.738 80.332C100.262 79.8711 99.668 79.6406 98.957 79.6406C98.1836 79.6406 97.582 79.8828 97.1523 80.3672C96.7305 80.8516 96.4648 81.5078 96.3555 82.3359H101.547ZM126.25 82.4531H117.859V86.8945H127.422V90H114.332V72.7266H127V75.7852H117.859V79.4531H126.25V82.4531ZM128.711 77.2266H132.461L135.121 86.6484L137.84 77.2266H141.426L136.82 90H133.293L128.711 77.2266ZM154.258 86.25C154.172 87.0078 153.777 87.7773 153.074 88.5586C151.98 89.8008 150.449 90.4219 148.48 90.4219C146.855 90.4219 145.422 89.8984 144.18 88.8516C142.938 87.8047 142.316 86.1016 142.316 83.7422C142.316 81.5312 142.875 79.8359 143.992 78.6562C145.117 77.4766 146.574 76.8867 148.363 76.8867C149.426 76.8867 150.383 77.0859 151.234 77.4844C152.086 77.8828 152.789 78.5117 153.344 79.3711C153.844 80.1289 154.168 81.0078 154.316 82.0078C154.402 82.5938 154.438 83.4375 154.422 84.5391H145.68C145.727 85.8203 146.129 86.7188 146.887 87.2344C147.348 87.5547 147.902 87.7148 148.551 87.7148C149.238 87.7148 149.797 87.5195 150.227 87.1289C150.461 86.918 150.668 86.625 150.848 86.25H154.258ZM150.953 82.3359C150.898 81.4531 150.629 80.7852 150.145 80.332C149.668 79.8711 149.074 79.6406 148.363 79.6406C147.59 79.6406 146.988 79.8828 146.559 80.3672C146.137 80.8516 145.871 81.5078 145.762 82.3359H150.953ZM162.695 79.6992C161.562 79.6992 160.785 80.1797 160.363 81.1406C160.145 81.6484 160.035 82.2969 160.035 83.0859V90H156.707V77.25H159.93V79.1133C160.359 78.457 160.766 77.9844 161.148 77.6953C161.836 77.1797 162.707 76.9219 163.762 76.9219C165.082 76.9219 166.16 77.2695 166.996 77.9648C167.84 78.6523 168.262 79.7969 168.262 81.3984V90H164.84V82.2305C164.84 81.5586 164.75 81.043 164.57 80.6836C164.242 80.0273 163.617 79.6992 162.695 79.6992ZM177.203 87.6211V90.1172L175.621 90.1758C174.043 90.2305 172.965 89.957 172.387 89.3555C172.012 88.9727 171.824 88.3828 171.824 87.5859V79.7227H170.043V77.3438H171.824V73.7812H175.129V77.3438H177.203V79.7227H175.129V86.4727C175.129 86.9961 175.195 87.3242 175.328 87.457C175.461 87.582 175.867 87.6445 176.547 87.6445C176.648 87.6445 176.754 87.6445 176.863 87.6445C176.98 87.6367 177.094 87.6289 177.203 87.6211ZM188.148 77.8125C189.148 78.4531 189.723 79.5547 189.871 81.1172H186.531C186.484 80.6875 186.363 80.3477 186.168 80.0977C185.801 79.6445 185.176 79.418 184.293 79.418C183.566 79.418 183.047 79.5312 182.734 79.7578C182.43 79.9844 182.277 80.25 182.277 80.5547C182.277 80.9375 182.441 81.2148 182.77 81.3867C183.098 81.5664 184.258 81.875 186.25 82.3125C187.578 82.625 188.574 83.0977 189.238 83.7305C189.895 84.3711 190.223 85.1719 190.223 86.1328C190.223 87.3984 189.75 88.4336 188.805 89.2383C187.867 90.0352 186.414 90.4336 184.445 90.4336C182.438 90.4336 180.953 90.0117 179.992 89.168C179.039 88.3164 178.562 87.2344 178.562 85.9219H181.949C182.02 86.5156 182.172 86.9375 182.406 87.1875C182.82 87.6328 183.586 87.8555 184.703 87.8555C185.359 87.8555 185.879 87.7578 186.262 87.5625C186.652 87.3672 186.848 87.0742 186.848 86.6836C186.848 86.3086 186.691 86.0234 186.379 85.8281C186.066 85.6328 184.906 85.2969 182.898 84.8203C181.453 84.4609 180.434 84.0117 179.84 83.4727C179.246 82.9414 178.949 82.1758 178.949 81.1758C178.949 79.9961 179.41 78.9844 180.332 78.1406C181.262 77.2891 182.566 76.8633 184.246 76.8633C185.84 76.8633 187.141 77.1797 188.148 77.8125Z" fill="#111111"/>
</g>
<rect x="59" y="59" width="134" height="8" fill="#00B9AF"/>
<defs>
<clipPath id="clip0_204_1952">
<rect width="251" height="59" fill="white"/>
</clipPath>
<clipPath id="clip1_204_1952">
<rect width="137" height="26" fill="white" transform="translate(55 67)"/>
</clipPath>
</defs>
</svg>
