<svg width="155" height="49" viewBox="0 0 155 49" fill="none" xmlns="http://www.w3.org/2000/svg">
<g clip-path="url(#clip0_197_9720)">
<path d="M39.2986 5.86011C41.5553 5.91193 43.813 5.81079 46.0557 5.55737V13.6015C43.8441 13.3722 41.6198 13.2855 39.3968 13.342H28.9172V18.5318H42.0167C44.2916 18.5615 46.5662 18.4568 48.8285 18.2182V26.3705C46.5661 26.1334 44.2916 26.0287 42.0167 26.0569H32.4322C34.0951 28.2746 35.9946 30.3082 38.0978 32.1225C41.7757 35.2975 45.9977 37.7948 50.5642 39.4963C48.6764 41.9485 47.0931 44.6166 45.8483 47.4431C38.0432 43.1831 33.0108 38.9232 28.7207 32.8577C28.819 35.4958 28.8735 36.9014 28.8735 37.1825V42.8912C28.865 44.9225 28.9889 46.9522 29.2447 48.9676H20.2824C20.5523 46.9898 20.6727 44.9949 20.6427 42.9993V37.3663C20.6427 36.3824 20.7518 34.2524 20.8064 33.0415C18.809 36.0627 16.3699 38.7736 13.5689 41.0856C10.8701 43.4105 7.94474 45.464 4.83594 47.216C3.58784 44.4751 1.94817 41.9262 -0.0327148 39.6476C4.62295 37.6565 8.87612 34.847 12.521 31.3548C14.3019 29.7666 15.885 27.9735 17.2368 26.0137H8.64571C6.37057 25.964 4.09466 26.0688 1.83397 26.3272V18.2182C4.0783 18.4526 6.33451 18.5573 8.59113 18.5318H20.599V13.342H11.4294C9.13736 13.2873 6.84415 13.374 4.56303 13.6015V5.55737C6.82208 5.83505 9.09969 5.93628 11.3748 5.86011H20.599V4.98434C20.6256 3.35606 20.5527 1.72768 20.3807 0.108124H29.1137C28.9387 1.74583 28.8513 3.39155 28.8517 5.0384V5.86011H39.2986Z" fill="black"/>
<path d="M72.9424 11.8932H60.6835C58.3906 11.8719 56.0983 11.9766 53.8171 12.2068V4.3248C56.0984 4.55356 58.3906 4.65824 60.6835 4.63835H72.9424V4.04369C72.9568 2.68921 72.8509 1.33609 72.6259 0L81.6427 0C81.4033 1.33433 81.2973 2.68877 81.3261 4.04369V4.67079H94.4256C96.7704 4.70175 99.1147 4.5862 101.445 4.3248V12.1635C99.1483 11.9471 96.8414 11.8569 94.5348 11.8932H81.3261V25.592C83.6721 29.2258 86.7399 32.349 90.3429 34.7714C94.0989 37.4523 98.2734 39.505 102.7 40.8477C100.788 43.1639 99.3087 45.8003 98.3337 48.6324C95.0191 47.1729 91.8748 45.3603 88.9566 43.2264C86.0467 41.1877 83.4349 38.7609 81.1951 36.0148C81.3043 38.8151 81.3043 38.8151 81.3043 39.5936V44.113C81.2746 45.7622 81.3805 47.4111 81.6208 49.0432H72.6259C72.8807 47.4126 72.9866 45.7625 72.9424 44.113V39.6044C72.9424 38.7718 72.997 37.5285 73.0407 36.1229C70.7774 38.8975 68.1316 41.3433 65.181 43.3886C62.6172 45.2817 59.8798 46.9323 57.0047 48.3188C55.9168 45.6514 54.4462 43.1534 52.6382 40.9018C56.6077 39.555 60.3529 37.6311 63.7509 35.1931C67.4776 32.6394 70.6051 29.3205 72.9206 25.4623V24.2729C72.1346 24.9974 71.9272 25.2028 70.6609 26.5543C70.0487 27.1772 69.4729 27.8342 68.9362 28.5221C68.4668 29.0951 68.3576 29.2032 67.9428 29.7222C66.5592 28.3708 65.3293 26.8735 64.2749 25.2568C62.8414 28.2159 60.9685 30.9455 58.7185 33.355C57.0791 31.2604 55.1153 29.4358 52.9002 27.949C57.2667 24.1 60.7599 17.4073 61.0219 12.1203L68.6633 13.6231C68.4269 14.1068 68.2439 14.6143 68.1174 15.1368C67.648 16.7478 67.5389 17.1586 67.1786 18.2507C68.6203 20.5299 70.598 22.4293 72.9424 23.7864V11.8932ZM95.1024 13.6123C94.9496 13.9691 94.4802 15.3747 93.7925 17.7101C94.6501 19.1686 95.6919 20.5129 96.8927 21.7105C98.4406 23.4096 100.263 24.8419 102.285 25.9488C100.531 27.9701 99.1327 30.2691 98.1481 32.7496C95.3207 30.6038 92.95 27.925 91.1726 24.8676C90.3602 26.9311 89.2893 28.8854 87.985 30.6845C86.2296 28.8491 84.2146 27.2758 82.0029 26.0137C83.2933 24.6613 84.3088 23.0755 84.994 21.3429C86.3609 18.4581 87.2457 15.3725 87.6139 12.2068L95.1024 13.6123Z" fill="black"/>
<path d="M141.213 34.047C140.579 30.671 139.718 27.3407 138.637 24.0783V28.5977C138.589 29.5505 138.626 30.5056 138.746 31.4521C137.283 31.3548 136.235 31.3548 135.362 31.3548H124.882C123.639 31.3422 122.397 31.3927 121.16 31.5062C121.16 30.7818 121.258 29.7979 121.258 28.3923V21.9051C120.494 24.1541 119.917 26.4611 119.533 28.8032C118.701 27.5724 118.012 26.2521 117.481 24.8676V25.7001C117.481 26.9976 117.579 27.9815 117.579 29.7546V42.2533C117.561 44.4883 117.666 46.7225 117.896 48.9459H110.134C110.366 46.7227 110.472 44.4883 110.451 42.2533V35.3444C110.451 34.047 110.451 32.0252 110.615 30.1547C109.984 32.7558 108.874 35.2191 107.34 37.4203C105.713 32.2306 105.451 31.5602 104.305 29.4303C105.645 27.5049 106.786 25.4511 107.711 23.2999C108.765 20.8579 109.587 18.3242 110.167 15.7315H109.588C108.312 15.7218 107.036 15.7904 105.768 15.9369V8.6496C107.07 8.82356 108.383 8.91026 109.698 8.90909H110.385V5.55737C110.413 3.75014 110.307 1.94336 110.069 0.151367H117.874C117.64 1.9437 117.534 3.75022 117.557 5.55737V8.87665H117.983C118.752 8.89812 119.522 8.86197 120.286 8.76853V3.89232C121.695 4.06262 123.113 4.14927 124.533 4.15181H126.312C126.349 2.83115 126.261 1.50999 126.05 0.205427H133.692C133.475 1.50937 133.388 2.83105 133.43 4.15181H135.362C136.821 4.14116 138.278 4.05454 139.728 3.89232V9.02802C140.81 9.20494 141.907 9.27376 143.003 9.23345H144.881V6.74669C144.918 4.54408 144.816 2.34132 144.575 0.151367H152.533C152.289 2.34113 152.183 4.54386 152.216 6.74669V9.23345C153.154 9.19486 154.087 9.09372 155.011 8.93071V16.6613C154.091 16.504 153.161 16.4172 152.227 16.4018V42.1668C152.227 44.9131 151.758 46.3727 150.448 47.3566C149.356 48.2323 147.468 48.6 143.953 48.6C142.796 48.6 141.857 48.6 139.859 48.4486C139.706 46.6322 139.597 45.951 139.346 44.34C133.813 45.7161 128.208 46.7953 122.557 47.5728C122.088 47.6269 120.985 47.8323 120.461 47.9404L119.151 40.7288C119.369 40.7288 119.577 40.7288 119.675 40.7288H119.992C122.993 40.6334 125.986 40.359 128.954 39.9071C130.185 37.1781 131.1 34.32 131.683 31.3872L138.637 33.6361C136.966 37.4744 136.857 37.5717 136.333 38.6637C137.851 38.361 138.516 38.2529 140.7 37.7339V40.9775C141.656 41.101 142.618 41.1696 143.582 41.1829C144.673 41.1829 144.935 40.9775 144.935 39.9395V30.8791L141.213 34.047ZM144.881 16.4018H143.003C141.807 16.3697 140.612 16.4566 139.433 16.6613V10.2282C138.342 10.12 136.814 10.066 135.394 10.066H133.517V12.0446H134.925C136.063 12.0552 137.2 12.001 138.331 11.8824V17.6452C137.13 17.5479 135.973 17.4938 134.827 17.4938H125.537C124.173 17.4938 122.972 17.5479 121.662 17.6452V11.8932C122.753 12.0013 123.965 12.0554 125.275 12.0554H126.432V10.066H124.697C123.352 10.0463 122.007 10.1004 120.668 10.2282V15.8288C119.887 15.7267 119.099 15.6762 118.31 15.6774H117.787C118.615 17.7948 119.8 19.7579 121.291 21.4835C121.291 20.2401 121.291 19.5157 121.192 18.8453C122.444 18.9603 123.701 19.0109 124.958 18.9967H135.34C136.497 19.0066 137.653 18.938 138.8 18.7913C138.668 19.7295 138.613 20.6769 138.637 21.624V21.8835L142.414 19.2346C143.352 21.3506 144.172 23.5163 144.87 25.7218L144.881 16.4018ZM122.513 40.3288C121.969 38.0942 121.152 35.9339 120.079 33.8956L126.629 31.4521C127.589 33.5175 128.384 35.654 129.008 37.842L122.513 40.3288ZM127.851 26.2732H132.152V23.8729H127.851V26.2732Z" fill="black"/>
</g>
<defs>
<clipPath id="clip0_197_9720">
<rect width="155" height="49" fill="white"/>
</clipPath>
</defs>
</svg>
