<svg width="24" height="24" viewBox="0 0 24 24" fill="none" xmlns="http://www.w3.org/2000/svg">
<path d="M18.8728 5.12724C18.979 5.20612 19.0659 5.30805 19.127 5.42536C19.1881 5.54267 19.2218 5.67231 19.2256 5.80453C19.2294 5.93675 19.2032 6.06811 19.1489 6.18873C19.0946 6.30935 19.0137 6.41608 18.9122 6.50092L6.50094 18.9121C6.41607 19.0128 6.30958 19.0931 6.18939 19.1469C6.0692 19.2007 5.93841 19.2266 5.80679 19.2228C5.67516 19.2191 5.54609 19.1856 5.42919 19.125C5.31229 19.0644 5.21058 18.9782 5.13164 18.8728C5.02518 18.7942 4.93792 18.6926 4.87642 18.5754C4.81492 18.4583 4.78078 18.3288 4.77657 18.1965C4.77236 18.0643 4.79818 17.9329 4.85211 17.8121C4.90603 17.6913 4.98665 17.5842 5.08789 17.4991L17.4991 5.08787C17.5839 4.98638 17.6907 4.90544 17.8113 4.85115C17.9319 4.79686 18.0633 4.77062 18.1955 4.77441C18.3277 4.7782 18.4574 4.81192 18.5747 4.87303C18.692 4.93414 18.7939 5.02106 18.8728 5.12724Z" fill="#00B9AF"/>
<path d="M18.8728 18.8728C18.7939 18.979 18.692 19.0659 18.5747 19.127C18.4574 19.1881 18.3277 19.2219 18.1955 19.2257C18.0633 19.2294 17.9319 19.2032 17.8113 19.1489C17.6907 19.0946 17.5839 19.0137 17.4991 18.9122L5.08789 6.50096C4.98665 6.41581 4.90603 6.30881 4.85211 6.188C4.79818 6.0672 4.77236 5.93574 4.77657 5.80351C4.78078 5.67129 4.81492 5.54174 4.87642 5.42461C4.93792 5.30748 5.02518 5.20583 5.13164 5.12729C5.21058 5.02189 5.31229 4.93567 5.42919 4.87506C5.54609 4.81445 5.67516 4.781 5.80679 4.77722C5.93841 4.77343 6.0692 4.79941 6.18939 4.8532C6.30958 4.907 6.41607 4.98723 6.50094 5.08791L18.9122 17.4991C19.0137 17.584 19.0946 17.6907 19.1489 17.8113C19.2032 17.932 19.2294 18.0633 19.2256 18.1955C19.2218 18.3278 19.1881 18.4574 19.127 18.5747C19.0659 18.692 18.979 18.7939 18.8728 18.8728Z" fill="#00B9AF"/>
<path d="M14.9267 3.58294C14.9267 5.56034 13.6143 10.6307 12 10.6307C10.3857 10.6307 9.07324 5.56034 9.07324 3.58294C9.07324 1.60554 10.3857 0 12 0C13.6143 0 14.9267 1.60554 14.9267 3.58294Z" fill="#00B9AF"/>
<path d="M9.07324 20.417C9.07324 18.4396 10.3857 13.3693 12 13.3693C13.6143 13.3693 14.9267 18.4396 14.9267 20.417C14.9267 22.3944 13.6143 24 12 24C10.3857 24 9.07324 22.3944 9.07324 20.417Z" fill="#00B9AF"/>
<path d="M20.4171 14.9267C18.4397 14.9267 13.3694 13.6143 13.3694 12C13.3694 10.3857 18.4397 9.07324 20.4171 9.07324C22.3945 9.07324 24.0001 10.3857 24.0001 12C24.0001 13.6143 22.3945 14.9267 20.4171 14.9267Z" fill="#00B9AF"/>
<path d="M3.58294 9.07324C5.56034 9.07324 10.6307 10.3857 10.6307 12C10.6307 13.6143 5.56034 14.9267 3.58294 14.9267C1.60554 14.9267 0 13.6143 0 12C0 10.3857 1.60554 9.07324 3.58294 9.07324Z" fill="#00B9AF"/>
</svg>
