<svg width="1512" height="36" viewBox="0 0 1512 36" fill="none" xmlns="http://www.w3.org/2000/svg">
<g clip-path="url(#clip0_197_8422)">
<circle r="50" transform="matrix(1 0 0 -1 3 50)" fill="#00B9AF"/>
<circle r="50" transform="matrix(1 0 0 -1 73 50)" fill="#00B9AF"/>
<circle r="50" transform="matrix(1 0 0 -1 143 50)" fill="#00B9AF"/>
<circle r="50" transform="matrix(1 0 0 -1 213 50)" fill="#00B9AF"/>
<circle r="50" transform="matrix(1 0 0 -1 283 50)" fill="#00B9AF"/>
<circle r="50" transform="matrix(1 0 0 -1 353 50)" fill="#00B9AF"/>
<circle r="50" transform="matrix(1 0 0 -1 423 50)" fill="#00B9AF"/>
<circle r="50" transform="matrix(1 0 0 -1 493 50)" fill="#00B9AF"/>
<circle r="50" transform="matrix(1 0 0 -1 563 50)" fill="#00B9AF"/>
<circle r="50" transform="matrix(1 0 0 -1 633 50)" fill="#00B9AF"/>
<circle r="50" transform="matrix(1 0 0 -1 703 50)" fill="#00B9AF"/>
<circle r="50" transform="matrix(1 0 0 -1 773 50)" fill="#00B9AF"/>
<circle r="50" transform="matrix(1 0 0 -1 843 50)" fill="#00B9AF"/>
<circle r="50" transform="matrix(1 0 0 -1 913 50)" fill="#00B9AF"/>
<circle r="50" transform="matrix(1 0 0 -1 983 50)" fill="#00B9AF"/>
<circle r="50" transform="matrix(1 0 0 -1 1053 50)" fill="#00B9AF"/>
<circle r="50" transform="matrix(1 0 0 -1 1123 50)" fill="#00B9AF"/>
<circle r="50" transform="matrix(1 0 0 -1 1193 50)" fill="#00B9AF"/>
<circle r="50" transform="matrix(1 0 0 -1 1263 50)" fill="#00B9AF"/>
<circle r="50" transform="matrix(1 0 0 -1 1333 50)" fill="#00B9AF"/>
<circle r="50" transform="matrix(1 0 0 -1 1403 50)" fill="#00B9AF"/>
<circle r="50" transform="matrix(1 0 0 -1 1473 50)" fill="#00B9AF"/>
<circle r="50" transform="matrix(1 0 0 -1 1543 50)" fill="#00B9AF"/>
</g>
<defs>
<clipPath id="clip0_197_8422">
<rect width="1512" height="36" fill="white" transform="matrix(1 0 0 -1 0 36)"/>
</clipPath>
</defs>
</svg>
