<svg width="35" height="35" viewBox="0 0 35 35" fill="none" xmlns="http://www.w3.org/2000/svg">
<path d="M29.8952 6.5625H5.10352C3.89512 6.5625 2.91602 7.54161 2.91602 8.75C2.91602 9.95839 3.89512 10.9375 5.10352 10.9375H29.8952C31.1036 10.9375 32.0827 9.95839 32.0827 8.75C32.0827 7.54161 31.1036 6.5625 29.8952 6.5625Z" fill="#111111"/>
<path d="M25.763 15.3125H5.10352C3.89512 15.3125 2.91602 16.2916 2.91602 17.5C2.91602 18.7084 3.89512 19.6875 5.10352 19.6875H25.763C26.9714 19.6875 27.9505 18.7084 27.9505 17.5C27.9505 16.2916 26.9714 15.3125 25.763 15.3125Z" fill="#111111"/>
<path d="M17.4993 24.0625H5.10352C3.89512 24.0625 2.91602 25.0416 2.91602 26.25C2.91602 27.4584 3.89512 28.4375 5.10352 28.4375H17.4993C18.7077 28.4375 19.6868 27.4584 19.6868 26.25C19.6868 25.0416 18.7077 24.0625 17.4993 24.0625Z" fill="#111111"/>
</svg>
