<svg width="384" height="93" viewBox="0 0 384 93" fill="none" xmlns="http://www.w3.org/2000/svg">
<rect x="125" y="59" width="134" height="8" fill="#FF7E00"/>
<g clip-path="url(#clip0_203_15819)">
<rect width="384" height="59" fill="#FF50C8"/>
<path d="M25.344 4.288V9.856H37.12V4.288H25.344ZM33.216 18.56V24.576H50.304V18.56H33.216ZM22.208 54.4V60.608H60.928V54.4H22.208ZM35.072 4.288V5.312C32.896 14.144 26.624 21.888 19.328 25.344C20.672 26.56 22.4 28.928 23.232 30.4C31.68 25.856 38.464 17.408 41.344 5.632L37.248 4.096L36.16 4.288H35.072ZM46.144 1.536L40.384 3.008C43.776 14.464 49.856 24.064 58.752 29.12C59.776 27.392 61.76 24.832 63.36 23.552C55.04 19.52 49.024 11.008 46.144 1.536ZM24.256 14.976C26.432 16.64 29.056 19.072 30.272 20.8L34.048 16.128C32.768 14.528 30.08 12.224 27.904 10.752L24.256 14.976ZM29.376 45.952C30.912 48.832 32.192 52.672 32.512 55.168L39.04 52.928C38.592 50.432 37.248 46.72 35.584 43.968L29.376 45.952ZM52.416 2.176C50.88 4.224 47.936 7.232 45.952 8.896L49.344 12.16C51.52 10.688 54.272 8.512 57.088 6.336L52.416 2.176ZM56.96 9.472C55.36 11.392 52.288 14.208 50.304 15.808L53.76 19.072C56 17.664 58.944 15.552 61.696 13.44L56.96 9.472ZM47.104 43.712C46.528 46.592 45.184 50.56 44.032 53.248L50.176 54.848C51.392 52.48 52.864 48.96 54.464 45.376L47.104 43.712ZM33.984 33.664H49.344V38.336H33.984V33.664ZM27.328 27.904V44.032H56.448V27.904H27.328ZM10.688 2.496V24.384C10.688 35.52 9.792 47.488 1.664 56.384C3.264 57.536 5.568 60.096 6.592 61.632C16.32 51.328 17.408 37.504 17.408 24.448V2.496H10.688ZM4.032 15.04C4.16 20.608 3.328 27.264 1.344 30.912L6.4 33.024C8.64 28.608 9.344 21.632 9.088 15.68L4.032 15.04ZM20.288 10.88C19.2 14.08 17.216 18.624 15.552 21.504L19.904 23.552C21.76 20.992 24.128 16.896 26.432 13.312L20.288 10.88ZM15.936 36.864L11.2 40.384C13.568 43.904 18.112 51.2 20.096 55.424L25.344 50.112C23.936 48.064 17.728 38.912 15.936 36.864ZM100.16 30.912V51.712C100.16 59.136 101.952 61.568 109.184 61.568C110.528 61.568 115.456 61.568 116.864 61.568C123.264 61.568 125.184 58.496 125.952 47.296C123.968 46.784 120.576 45.44 118.976 44.16C118.656 52.928 118.336 54.336 116.224 54.336C115.072 54.336 111.296 54.336 110.336 54.336C108.224 54.336 107.904 54.016 107.904 51.712V30.912H100.16ZM82.88 31.232C82.048 42.304 80.704 50.56 65.472 55.104C67.136 56.704 69.312 59.84 70.144 61.824C87.424 56.064 90.048 45.248 91.072 31.232H82.88ZM71.744 6.976C74.56 12.032 77.44 18.688 78.336 22.912L85.824 19.904C84.736 15.616 81.6 9.216 78.656 4.416L71.744 6.976ZM113.152 3.904C111.552 9.024 108.416 15.744 105.792 19.968L112.512 22.528C115.2 18.56 118.528 12.416 121.344 6.72L113.152 3.904ZM67.136 25.152V32.384H124.992V25.152H67.136ZM91.84 1.664V28.096H99.648V1.664H91.84ZM156.352 31.552V39.744H164.16V31.552H156.352ZM155.136 37.504C150.016 42.048 139.712 45.44 129.664 46.976C131.008 48.32 132.864 50.816 133.76 52.416C144.32 50.496 154.88 46.08 161.088 40.064L155.136 37.504ZM164.992 37.632L158.528 38.976C163.328 51.392 171.584 58.816 186.048 61.952C186.88 60.032 188.8 57.216 190.336 55.744C177.088 53.504 168.768 47.36 164.992 37.632ZM181.12 40.832C178.112 43.264 172.992 46.4 169.216 48.256L173.824 51.968C177.664 50.304 182.656 47.616 186.624 44.864L181.12 40.832ZM136.64 54.656L137.6 60.992C144.96 60.032 155.136 58.688 164.672 57.344L164.416 51.328C154.368 52.608 143.68 53.952 136.64 54.656ZM130.816 35.712V41.472H189.184V35.712H130.816ZM155.968 9.6V16H188.736V9.6H155.968ZM157.568 23.872V30.272H187.328V23.872H157.568ZM146.816 1.664V33.536H154.048V1.664H146.816ZM168.448 1.664V27.776H176.064V1.664H168.448ZM133.696 2.432V15.616H140.16V2.432H133.696ZM136.96 8.768V14.592H150.464V8.768H136.96ZM130.752 18.112V23.936H150.4V18.112H130.752ZM135.488 20.224C135.232 24.96 134.4 28.288 129.6 30.336C131.008 31.424 132.8 33.792 133.504 35.328C140.48 32.32 142.016 27.2 142.464 20.224H135.488ZM144.576 46.336V57.024H151.872V44.608L147.456 43.456L144.576 46.336ZM234.432 9.216H241.92V12.928H234.432V9.216ZM220.16 9.216H227.456V12.928H220.16V9.216ZM206.08 9.216H213.184V12.928H206.08V9.216ZM198.72 4.16V18.112H249.664V4.16H198.72ZM195.84 20.608V26.24H252.096V20.608H195.84ZM202.304 53.696V59.584H253.44V53.696H202.304ZM199.168 29.632V61.824H206.976V29.632H199.168ZM218.368 38.848H240.064V41.088H218.368V38.848ZM218.368 44.928H240.064V47.232H218.368V44.928ZM218.368 32.832H240.064V35.008H218.368V32.832ZM211.264 28.736V51.264H247.488V28.736H211.264ZM220.736 16.832C220.352 21.504 219.648 27.264 218.944 31.04H226.368C227.072 27.456 227.904 21.952 228.416 17.344L220.736 16.832ZM287.744 9.344C292.928 17.664 303.424 26.624 313.664 31.808C315.072 29.44 316.8 26.816 318.784 24.768C308.288 20.736 298.112 12.288 291.52 1.472H283.2C278.784 9.984 268.8 20.224 257.408 25.664C259.072 27.264 261.248 30.144 262.208 32.064C272.96 26.368 282.752 17.536 287.744 9.344ZM294.848 25.088V61.76H302.848V25.088H294.848ZM272.768 25.408V33.152C272.768 40.576 271.616 49.6 260.352 56.32C262.4 57.536 265.408 60.096 266.752 61.76C279.36 53.888 280.64 42.432 280.64 33.344V25.408H272.768ZM353.472 52.16V58.944H375.552V52.16H353.472ZM349.888 34.496V61.696H356.928V41.28H371.84V61.44H379.264V34.496H349.888ZM347.648 4.672V11.712H376.96V4.672H347.648ZM373.376 4.672V5.76C373.12 17.856 372.736 22.464 371.776 23.552C371.264 24.128 370.624 24.256 369.728 24.256C368.512 24.256 365.888 24.256 363.2 24C364.416 25.92 365.248 28.864 365.44 31.104C368.576 31.104 371.52 31.104 373.248 30.848C375.296 30.592 376.704 30.08 378.048 28.416C379.648 26.368 380.096 20.8 380.416 7.424C380.48 6.528 380.544 4.672 380.544 4.672H373.376ZM356.8 7.552C356.096 15.808 354.624 22.848 345.024 27.008C346.624 28.288 348.672 30.976 349.568 32.768C360.896 27.392 363.392 18.368 364.352 7.552H356.8ZM331.52 1.728C330.048 6.208 327.296 12.352 324.992 16.128L330.112 18.368C332.608 14.784 335.552 9.088 338.176 4.224L331.52 1.728ZM338.88 9.28C335.552 16.192 329.664 25.6 324.928 31.424L329.344 33.92C334.208 28.352 340.48 19.456 345.088 12.096L338.88 9.28ZM321.664 16.896C324.928 19.968 328.832 24.448 330.368 27.52L334.336 21.568C332.672 18.624 328.704 14.592 325.312 11.648L321.664 16.896ZM336.96 24.576C339.392 28.992 341.568 34.816 342.272 38.528L347.712 36.096C346.944 32.384 344.512 26.752 342.016 22.464L336.96 24.576ZM321.6 29.888L322.24 36.608C328.448 36.16 336.64 35.648 344.512 35.072L344.576 28.992C336.128 29.376 327.488 29.696 321.6 29.888ZM338.368 40.512C339.776 44.288 341.44 49.216 342.08 52.416L347.712 50.432C347.008 47.232 345.344 42.432 343.744 38.784L338.368 40.512ZM324.352 39.296C323.84 44.736 322.816 50.432 320.96 54.208C322.56 54.848 325.44 56.192 326.784 57.024C328.64 52.928 330.048 46.528 330.688 40.384L324.352 39.296ZM331.52 33.28V61.824H338.24V33.28H331.52Z" fill="#111111"/>
</g>
<g clip-path="url(#clip1_203_15819)">
<rect width="134" height="26" transform="translate(125 67)" fill="#00B9AF"/>
<path d="M143.633 72.7266H147.301L142.438 90H138.992L136.906 79.8984L136.297 76.5586L135.688 79.8984L133.602 90H130.25L125.352 72.7266H129.184L131.469 82.6172L131.961 85.3711L132.465 82.6758L134.41 72.7266H138.219L140.27 82.6172L140.797 85.3711L141.324 82.7227L143.633 72.7266ZM160.766 82.5V90H157.355V82.2305C157.355 81.543 157.238 80.9883 157.004 80.5664C156.699 79.9727 156.121 79.6758 155.27 79.6758C154.387 79.6758 153.715 79.9727 153.254 80.5664C152.801 81.1523 152.574 81.9922 152.574 83.0859V90H149.246V72.7852H152.574V78.8906C153.059 78.1484 153.617 77.6328 154.25 77.3438C154.891 77.0469 155.562 76.8984 156.266 76.8984C157.055 76.8984 157.77 77.0352 158.41 77.3086C159.059 77.582 159.59 78 160.004 78.5625C160.355 79.0391 160.57 79.5312 160.648 80.0391C160.727 80.5391 160.766 81.3594 160.766 82.5ZM164.375 78.6094C165.258 77.4844 166.773 76.9219 168.922 76.9219C170.32 76.9219 171.562 77.1992 172.648 77.7539C173.734 78.3086 174.277 79.3555 174.277 80.8945V86.7539C174.277 87.1602 174.285 87.6523 174.301 88.2305C174.324 88.668 174.391 88.9648 174.5 89.1211C174.609 89.2773 174.773 89.4062 174.992 89.5078V90H171.359C171.258 89.7422 171.188 89.5 171.148 89.2734C171.109 89.0469 171.078 88.7891 171.055 88.5C170.594 89 170.062 89.4258 169.461 89.7773C168.742 90.1914 167.93 90.3984 167.023 90.3984C165.867 90.3984 164.91 90.0703 164.152 89.4141C163.402 88.75 163.027 87.8125 163.027 86.6016C163.027 85.0312 163.633 83.8945 164.844 83.1914C165.508 82.8086 166.484 82.5352 167.773 82.3711L168.91 82.2305C169.527 82.1523 169.969 82.0547 170.234 81.9375C170.711 81.7344 170.949 81.418 170.949 80.9883C170.949 80.4648 170.766 80.1055 170.398 79.9102C170.039 79.707 169.508 79.6055 168.805 79.6055C168.016 79.6055 167.457 79.8008 167.129 80.1914C166.895 80.4805 166.738 80.8711 166.66 81.3633H163.438C163.508 80.2461 163.82 79.3281 164.375 78.6094ZM166.859 87.5859C167.172 87.8438 167.555 87.9727 168.008 87.9727C168.727 87.9727 169.387 87.7617 169.988 87.3398C170.598 86.918 170.914 86.1484 170.938 85.0312V83.7891C170.727 83.9219 170.512 84.0312 170.293 84.1172C170.082 84.1953 169.789 84.2695 169.414 84.3398L168.664 84.4805C167.961 84.6055 167.457 84.7578 167.152 84.9375C166.637 85.2422 166.379 85.7148 166.379 86.3555C166.379 86.9258 166.539 87.3359 166.859 87.5859ZM183.102 87.6211V90.1172L181.52 90.1758C179.941 90.2305 178.863 89.957 178.285 89.3555C177.91 88.9727 177.723 88.3828 177.723 87.5859V79.7227H175.941V77.3438H177.723V73.7812H181.027V77.3438H183.102V79.7227H181.027V86.4727C181.027 86.9961 181.094 87.3242 181.227 87.457C181.359 87.582 181.766 87.6445 182.445 87.6445C182.547 87.6445 182.652 87.6445 182.762 87.6445C182.879 87.6367 182.992 87.6289 183.102 87.6211ZM188.574 75.2578C188.574 76.4375 188.285 77.3672 187.707 78.0469C187.137 78.7266 186.332 79.168 185.293 79.3711V78.1406C186.059 77.8984 186.586 77.4883 186.875 76.9102C187.031 76.5664 187.098 76.2188 187.074 75.8672H185.234V72.7852H188.574V75.2578ZM199.836 77.8125C200.836 78.4531 201.41 79.5547 201.559 81.1172H198.219C198.172 80.6875 198.051 80.3477 197.855 80.0977C197.488 79.6445 196.863 79.418 195.98 79.418C195.254 79.418 194.734 79.5312 194.422 79.7578C194.117 79.9844 193.965 80.25 193.965 80.5547C193.965 80.9375 194.129 81.2148 194.457 81.3867C194.785 81.5664 195.945 81.875 197.938 82.3125C199.266 82.625 200.262 83.0977 200.926 83.7305C201.582 84.3711 201.91 85.1719 201.91 86.1328C201.91 87.3984 201.438 88.4336 200.492 89.2383C199.555 90.0352 198.102 90.4336 196.133 90.4336C194.125 90.4336 192.641 90.0117 191.68 89.168C190.727 88.3164 190.25 87.2344 190.25 85.9219H193.637C193.707 86.5156 193.859 86.9375 194.094 87.1875C194.508 87.6328 195.273 87.8555 196.391 87.8555C197.047 87.8555 197.566 87.7578 197.949 87.5625C198.34 87.3672 198.535 87.0742 198.535 86.6836C198.535 86.3086 198.379 86.0234 198.066 85.8281C197.754 85.6328 196.594 85.2969 194.586 84.8203C193.141 84.4609 192.121 84.0117 191.527 83.4727C190.934 82.9414 190.637 82.1758 190.637 81.1758C190.637 79.9961 191.098 78.9844 192.02 78.1406C192.949 77.2891 194.254 76.8633 195.934 76.8633C197.527 76.8633 198.828 77.1797 199.836 77.8125ZM225.312 90H221.703L214.648 77.7305V90H211.285V72.7266H215.07L221.949 84.7852V72.7266H225.312V90ZM239.352 86.25C239.266 87.0078 238.871 87.7773 238.168 88.5586C237.074 89.8008 235.543 90.4219 233.574 90.4219C231.949 90.4219 230.516 89.8984 229.273 88.8516C228.031 87.8047 227.41 86.1016 227.41 83.7422C227.41 81.5312 227.969 79.8359 229.086 78.6562C230.211 77.4766 231.668 76.8867 233.457 76.8867C234.52 76.8867 235.477 77.0859 236.328 77.4844C237.18 77.8828 237.883 78.5117 238.438 79.3711C238.938 80.1289 239.262 81.0078 239.41 82.0078C239.496 82.5938 239.531 83.4375 239.516 84.5391H230.773C230.82 85.8203 231.223 86.7188 231.98 87.2344C232.441 87.5547 232.996 87.7148 233.645 87.7148C234.332 87.7148 234.891 87.5195 235.32 87.1289C235.555 86.918 235.762 86.625 235.941 86.25H239.352ZM236.047 82.3359C235.992 81.4531 235.723 80.7852 235.238 80.332C234.762 79.8711 234.168 79.6406 233.457 79.6406C232.684 79.6406 232.082 79.8828 231.652 80.3672C231.23 80.8516 230.965 81.5078 230.855 82.3359H236.047ZM251.469 90L249.465 80.6953L247.438 90H243.969L240.383 77.2266H243.969L245.961 86.3906L247.801 77.2266H251.188L253.133 86.4258L255.125 77.2266H258.605L254.902 90H251.469Z" fill="#111111"/>
</g>
<defs>
<clipPath id="clip0_203_15819">
<rect width="384" height="59" fill="white"/>
</clipPath>
<clipPath id="clip1_203_15819">
<rect width="134" height="26" fill="white" transform="translate(125 67)"/>
</clipPath>
</defs>
</svg>
