<svg width="336" height="298" viewBox="0 0 336 298" fill="none" xmlns="http://www.w3.org/2000/svg">
<g clip-path="url(#clip0_51_9641)">
<path d="M109.59 0H0.132812V31.6793H109.59V0Z" fill="#FF7D00"/>
<path d="M12.3013 0.132825C15.8994 0.132825 18.7762 0.977696 20.9315 2.66744C23.0868 4.35718 24.1645 6.76318 24.1645 9.88543C24.1878 11.5046 23.7676 13.0991 22.9496 14.4956C21.9403 16.0581 20.6926 17.4521 19.2519 18.6269L13.941 23.2171H24.5628V30.4617H0.597429V24.6807L12.7063 14.163C14.5562 12.5354 15.4812 11.1095 15.4812 9.88543C15.4812 8.21343 14.4212 7.37743 12.3013 7.37743C10.531 7.37743 9.06608 8.5771 7.90654 10.9764L0.491211 8.31543C2.02252 4.30174 4.63813 1.75161 8.33805 0.665028C9.62641 0.296053 10.9615 0.116776 12.3013 0.132825Z" fill="#001324"/>
<path d="M53.7729 7.45725C54.8729 10.0643 55.4048 12.8767 55.333 15.7064C55.4053 18.5339 54.8734 21.3442 53.7729 23.9489C52.7841 26.1991 51.1204 28.0848 49.0131 29.3441C46.6546 30.6826 43.975 31.3476 41.2658 31.2666C38.5514 31.348 35.8669 30.6807 33.5053 29.3374C31.3972 28.082 29.7331 26.1981 28.7454 23.9489C27.6563 21.3417 27.1357 18.5315 27.2185 15.7064C27.1467 12.8767 27.6786 10.0643 28.7786 7.45725C29.7671 5.20853 31.431 3.32484 33.5384 2.0687C35.8885 0.725866 38.5616 0.056177 41.2658 0.132818C43.9811 0.0500318 46.6666 0.719927 49.0263 2.0687C51.1272 3.32903 52.7857 5.21188 53.7729 7.45725ZM46.663 15.7064C46.663 12.899 46.258 10.8035 45.4149 9.43305C44.5718 8.06263 43.1843 7.37742 41.2658 7.37742C39.3472 7.37742 37.9465 8.04267 37.1167 9.43305C36.2868 10.8234 35.8487 12.899 35.8487 15.7064C35.8487 18.5138 36.247 20.6093 37.0967 21.9864C37.9465 23.3634 39.3273 24.042 41.2459 24.042C43.1644 24.042 44.5652 23.3768 45.395 21.9864C46.2248 20.596 46.6763 18.5204 46.663 15.7064Z" fill="#001324"/>
<path d="M69.5129 0.133206C73.111 0.133206 75.9878 0.978077 78.1431 2.66782C80.2985 4.35756 81.3717 6.76356 81.3628 9.88581C81.3885 11.5044 80.9706 13.099 80.1546 14.496C79.1392 16.0618 77.8847 17.4581 76.437 18.6339L71.1261 23.2175H81.7479V30.4621H57.8091V24.681L69.9245 14.1634C71.7701 12.5357 72.6928 11.1099 72.6928 9.88581C72.6928 8.21603 71.6373 7.37781 69.5129 7.37781C67.7426 7.37781 66.2777 8.57748 65.1182 10.9768L57.7095 8.31581C59.2408 4.30212 61.8542 1.75199 65.5497 0.665408C66.8382 0.297354 68.1731 0.118095 69.5129 0.133206Z" fill="#001324"/>
<path d="M84.8085 6.88524C86.7779 2.38813 90.8695 0.137356 97.0833 0.132921C99.9379 0.0561698 102.756 0.787049 105.216 2.24177C106.323 2.91494 107.238 3.86372 107.871 4.99592C108.53 6.2019 108.862 7.55973 108.834 8.93421C108.834 11.6884 107.506 13.7218 104.85 15.0346C106.198 15.4601 107.378 16.3004 108.223 17.4361C109.199 18.7464 109.695 20.3529 109.63 21.9865C109.693 23.3299 109.423 24.668 108.844 25.8812C108.265 27.0944 107.394 28.1448 106.311 28.9384C104.098 30.5793 100.962 31.3599 96.904 31.2801C93.6378 31.2268 91.0111 30.6592 89.024 29.577C87.0083 28.4732 85.3845 26.7693 84.377 24.7007L92.0777 22.1062C93.1134 23.3968 94.7332 24.0421 96.8775 24.0421C98.0603 24.1316 99.2454 23.9019 100.31 23.3769C100.63 23.2027 100.897 22.9438 101.081 22.6282C101.264 22.3127 101.358 21.9526 101.352 21.5873C101.352 20.5296 100.688 19.8311 99.3603 19.4851C97.1729 19.0704 94.9466 18.8986 92.7217 18.9729V11.715C94.0637 11.7471 95.4065 11.7094 96.7447 11.6019L98.0724 11.4023C98.6012 11.3132 99.0964 11.0835 99.5063 10.737C99.7071 10.5665 99.8656 10.3515 99.9692 10.109C100.073 9.8666 100.119 9.60334 100.104 9.34002C100.104 8.03612 98.9531 7.38418 96.6517 7.38418C95.8451 7.35 95.0423 7.51398 94.3134 7.86183C93.5844 8.20968 92.9514 8.73084 92.4694 9.37993L84.8085 6.88524Z" fill="#001324"/>
<path d="M335.98 39.3765H0.139648V137.295H335.98V39.3765Z" fill="#FCEA00"/>
<path d="M271.858 137.009H0.139648V260.154H271.858V137.009Z" fill="#FCEA00"/>
<path d="M4.69349 53.9717H10.6682C7.78709 53.9717 6.75146 56.3334 6.75146 59.2472C6.75146 62.161 7.80036 64.5293 10.6815 64.5293H97.1295C100.011 64.5293 101.046 62.1677 101.046 59.2472C101.046 56.3267 100.011 53.9717 97.1295 53.9717H103.104C106.324 53.9717 107.486 51.3107 107.486 48.0643C107.486 44.8179 106.324 42.1502 103.104 42.1502H68.1852C65.2509 40.1544 59.9533 39.3628 53.9055 39.3628C47.8577 39.3628 42.5601 40.1611 39.6325 42.1502H4.69349C1.47377 42.1502 0.312012 44.8112 0.312012 48.0643C0.312012 51.3174 1.47377 53.9717 4.69349 53.9717Z" fill="#001324"/>
<path d="M107.499 94.6922C107.583 92.1788 107.104 89.6785 106.098 87.3744V87.3212C104.771 84.6203 102.401 82.8906 98.6763 82.8906H9.16128C2.65544 82.9106 0.312012 88.186 0.312012 94.6922C0.312012 101.198 2.65544 106.441 9.16128 106.441L12.3611 106.48L10.2965 109.275C8.50406 113.366 14.0871 114.929 21.8277 114.929C24.4544 114.967 27.0784 114.744 29.6613 114.264H36.8045V116.193H7.47507C5.17147 116.193 4.34165 118.009 4.34165 120.251C4.34165 122.493 5.17147 124.309 7.47507 124.309H36.8045V126.145H4.44123C1.40738 126.145 0.312012 128.64 0.312012 131.72C0.312012 134.8 1.40738 137.288 4.44123 137.288H103.357C106.39 137.288 107.486 134.794 107.486 131.72C107.486 128.647 106.39 126.145 103.357 126.145H71.0331V124.309H100.363C102.666 124.309 103.503 122.493 103.503 120.251C103.503 118.009 102.666 116.193 100.363 116.193H71.0331V114.264H78.0169C80.5999 114.744 83.2238 114.967 85.8505 114.929C93.5911 114.929 99.1742 113.366 97.3818 109.275L95.3172 106.48L98.6763 106.441C105.149 106.441 107.499 101.198 107.499 94.6922ZM38.2915 106.155L39.513 103.567H68.1387L69.3602 106.155H38.2915ZM34.5208 95.7167C34.666 95.247 34.7398 94.7581 34.7398 94.2664V93.0956H73.2039V94.2664C73.204 94.7581 73.2778 95.247 73.423 95.7167H34.5208Z" fill="#001324"/>
<path d="M97.8931 66.8447H9.91823C5.82221 66.8447 4.3418 70.0912 4.3418 74.0893C4.3418 78.0875 5.82221 81.3339 9.91823 81.3339H97.8931C101.989 81.3339 103.476 78.0941 103.476 74.0893C103.476 70.0845 101.989 66.8447 97.8931 66.8447ZM70.9802 75.2735H36.8312C37.5415 75.2735 37.8004 74.7147 37.8004 74.0162C37.8004 73.3176 37.5415 72.7588 36.8312 72.7588H70.9802C70.2698 72.7588 70.0109 73.3176 70.0109 74.0162C70.0109 74.7147 70.2698 75.2735 70.9802 75.2735Z" fill="#001324"/>
<path d="M164.372 103.414V45.2374C164.372 40.9465 158.072 39.3965 150.305 39.3965C142.538 39.3965 136.238 40.9133 136.238 45.2374V53.9988H125.822C117.371 53.9988 114.31 60.9108 114.31 69.426C114.31 77.9412 117.371 84.8599 125.822 84.8599H136.238V100.287C133.583 100.668 130.99 101.395 128.524 102.449C116.096 107.844 113.992 115.089 113.992 121.076C113.992 129.924 121.958 137.295 132.42 137.295C145.306 137.295 152.29 130.822 155.981 124.868V134.381C155.981 136.517 157.86 137.288 160.177 137.288C162.493 137.288 164.372 136.517 164.372 134.381V105.416V103.414Z" fill="#001324"/>
<path d="M209.813 98.1715C203.174 98.1715 197.777 101.039 197.777 108.942V83.3563C201.947 83.5325 206.098 82.7092 209.886 80.9548C220.136 75.9188 221.875 69.1665 221.875 63.5651C221.878 61.5684 221.486 59.591 220.722 57.747C219.957 55.9031 218.836 54.2292 217.423 52.822C216.009 51.4148 214.331 50.3022 212.486 49.5484C210.641 48.7947 208.665 48.4147 206.673 48.4306C203.624 48.389 200.598 48.966 197.777 50.127V45.3637C197.777 40.9598 191.305 39.3765 183.325 39.3765C175.345 39.3765 168.879 40.9731 168.879 45.3637V121.349C168.878 121.649 168.912 121.948 168.979 122.24C170.108 133.25 181.486 137.295 195.367 137.295C209.972 137.295 221.856 132.811 221.856 120.411V113.878V108.942C221.856 101.039 216.465 98.1715 209.813 98.1715Z" fill="#001324"/>
<path d="M329.733 94.559C334.334 94.559 336 90.7871 336 86.1369C336 81.4868 334.334 77.7148 329.733 77.7148H234.94C230.34 77.7148 228.68 81.4868 228.68 86.1369C228.68 90.7871 230.34 94.559 234.94 94.559H236.666V114.557C229.636 118.003 228.368 122.287 228.368 125.899C228.368 131.807 234.343 136.729 242.084 136.729C254.119 136.729 259.224 129.917 261.269 125.527V132.924C261.269 136.137 265.969 137.295 271.765 137.295C277.56 137.295 282.26 136.137 282.26 132.924V94.559H329.733ZM261.262 104.731C260.609 104.392 259.884 104.215 259.148 104.215C258.412 104.215 257.687 104.392 257.034 104.731V101.75C257.688 102.086 258.413 102.26 259.148 102.26C259.883 102.26 260.608 102.086 261.262 101.75V104.731ZM257.034 112.428V109.341C257.688 109.676 258.413 109.851 259.148 109.851C259.883 109.851 260.608 109.676 261.262 109.341V113.332C260.3 113.093 258.833 112.714 257.034 112.428ZM261.262 97.1269C260.637 96.716 259.889 96.5328 259.145 96.608C258.404 96.5367 257.66 96.7171 257.034 97.1203V94.5324H261.262V97.1269Z" fill="#001324"/>
<path d="M330.517 117.836C333.172 115.874 334.241 112.188 334.241 107.957C334.241 101.671 331.897 96.5747 325.431 96.5747H289.583C285.235 96.5747 283.661 100.007 283.661 104.238C283.661 108.469 285.235 111.895 289.583 111.895H297.762L292.026 115.834L289.649 114.204C287.273 112.574 285.513 113.233 284.398 114.763C283.283 116.293 283.236 118.136 285.613 119.765L286.337 120.258C282.559 124.389 283.137 128.74 285.865 132.498C289.185 137.082 294.449 139.044 301.532 134.181L309.811 128.5L318.089 134.181C325.173 139.044 330.437 137.082 333.763 132.498C337.089 127.915 337.242 122.633 330.517 117.836Z" fill="#001324"/>
<path d="M243.869 74.9671H320.094C329.813 74.9671 333.331 66.9841 333.331 57.165C333.331 47.3458 329.813 39.3628 320.094 39.3628H243.869C234.15 39.3628 230.632 47.3458 230.632 57.165C230.632 66.9841 234.15 74.9671 243.869 74.9671ZM264.057 51.6833H299.906C299.162 51.6833 298.89 52.2953 298.89 53.0537C298.89 53.8121 299.162 54.4241 299.906 54.4241H264.057C264.807 54.4241 265.08 53.8121 265.08 53.0537C265.08 52.2953 264.807 51.7099 264.057 51.7099V51.6833ZM264.057 61.988H299.906C299.162 61.988 298.89 62.6001 298.89 63.3185C298.89 64.037 299.162 64.689 299.906 64.689H264.057C264.807 64.689 265.08 64.0769 265.08 63.3185C265.08 62.5602 264.807 62.0147 264.057 62.0147V61.988Z" fill="#001324"/>
<path d="M58.4595 145.69C49.6169 145.69 42.487 147.42 42.487 152.19V179.206C41.4713 178.654 39.5329 178.434 37.3023 178.434C35.0717 178.434 33.1332 178.654 32.1175 179.206V152.19C32.1175 147.42 24.9545 145.69 16.1118 145.69C7.2692 145.69 0.0795898 147.42 0.0795898 152.19V253.089C0.0795898 257.859 7.24265 259.588 16.0853 259.588C24.9279 259.588 32.0843 257.859 32.0843 253.089V191.22C33.1 191.779 35.0385 191.999 37.2691 191.999C39.4997 191.999 41.4381 191.779 42.4538 191.22V253.089C42.4538 257.859 49.6169 259.588 58.4595 259.588C67.3022 259.588 74.4652 257.859 74.4652 253.089V152.19C74.4652 147.42 67.2955 145.69 58.4595 145.69Z" fill="#001324"/>
<path d="M255.859 145.69C247.016 145.69 239.853 147.42 239.853 152.19V179.206C238.837 178.654 236.899 178.434 234.668 178.434C232.438 178.434 230.499 178.654 229.484 179.206V152.19C229.484 147.42 222.32 145.69 213.478 145.69C204.635 145.69 197.472 147.42 197.472 152.19V253.089C197.472 257.859 204.642 259.588 213.478 259.588C222.314 259.588 229.484 257.859 229.484 253.089V191.22C230.499 191.779 232.438 191.999 234.668 191.999C236.899 191.999 238.837 191.779 239.853 191.22V253.089C239.853 257.859 247.016 259.588 255.859 259.588C264.701 259.588 271.858 257.859 271.858 253.089V152.19C271.858 147.42 264.695 145.69 255.859 145.69Z" fill="#001324"/>
<path d="M181.44 179.658C158.131 179.658 154.613 196.29 154.613 203.747C154.613 223.705 161.703 230.204 168.016 234.927C166.025 233.956 162.944 233.55 159.472 233.55C155.297 233.55 151.672 234.129 149.853 235.593C151.4 226.452 152.07 215.349 152.07 203.374C152.164 193.517 151.567 183.665 150.285 173.891H182.953C189.008 173.891 192.048 170.045 193.097 164.657C193.376 163.652 193.429 162.255 193.429 157.339C193.429 150.826 189.891 145.637 182.953 145.637H139.138C134.02 145.637 130.661 148.358 128.025 151.684C121.3 160.173 118.891 180.33 118.891 203.681C118.891 234.881 123.458 260.18 136.078 260.18H177.795C182.19 260.18 184.892 258.185 186.352 255.184V257.18C186.352 259.089 188.025 259.775 190.09 259.775C192.154 259.775 193.827 259.109 193.827 257.18V218.063C193.827 218.063 193.827 206.754 193.827 194.034C193.847 183.61 191.072 179.658 181.44 179.658Z" fill="#001324"/>
<path d="M96.9237 188.373C86.7799 188.373 78.5547 190.369 78.5547 195.997V252.244C78.5547 257.845 86.7799 259.868 96.9237 259.868C107.068 259.868 115.293 257.872 115.293 252.244V195.997C115.286 190.402 107.061 188.373 96.9237 188.373Z" fill="#001324"/>
<path d="M111.164 160.911C108.014 161.095 104.923 161.85 102.042 163.14L108.621 156.554C108.791 156.409 108.926 156.227 109.017 156.023C109.107 155.818 109.151 155.596 109.144 155.372C109.137 155.148 109.08 154.929 108.976 154.731C108.873 154.532 108.727 154.359 108.548 154.225C107.884 153.56 107.048 153.321 106.225 154.152L99.6456 160.738C100.937 157.853 101.69 154.755 101.87 151.598C101.87 148.271 99.6523 145.524 96.9172 145.524C94.1821 145.524 91.9648 148.245 91.9648 151.598C92.144 154.755 92.8977 157.853 94.1887 160.738L87.6098 154.152C86.7867 153.321 85.9502 153.56 85.2863 154.225C85.1075 154.359 84.9611 154.532 84.8579 154.731C84.7548 154.929 84.6976 155.148 84.6906 155.372C84.6836 155.596 84.7269 155.818 84.8174 156.023C84.9079 156.227 85.0432 156.409 85.2133 156.554L91.7922 163.14C88.9117 161.849 85.8209 161.094 82.6707 160.911C79.3514 160.911 76.603 163.133 76.603 165.874C76.603 168.615 79.3182 170.837 82.6707 170.837C85.8213 170.657 88.9126 169.902 91.7922 168.608L85.2133 175.201C85.0443 175.347 84.91 175.528 84.8203 175.733C84.7305 175.937 84.6875 176.159 84.6945 176.383C84.7015 176.606 84.7583 176.825 84.8607 177.023C84.9631 177.222 85.1086 177.394 85.2863 177.529C85.9502 178.194 86.7867 178.434 87.6098 177.602L94.1887 171.016C92.8977 173.902 92.144 177 91.9648 180.157C91.9648 183.483 94.1821 186.231 96.9172 186.231C99.6523 186.231 101.87 183.51 101.87 180.157C101.69 177 100.937 173.902 99.6456 171.016L106.218 177.622C107.041 178.454 107.878 178.214 108.541 177.549C108.719 177.414 108.865 177.241 108.967 177.043C109.069 176.845 109.126 176.626 109.133 176.402C109.14 176.179 109.097 175.957 109.007 175.753C108.918 175.548 108.783 175.367 108.614 175.221L102.036 168.628C104.915 169.922 108.006 170.677 111.157 170.857C114.509 170.857 117.225 168.635 117.225 165.894C117.225 163.153 114.516 160.911 111.164 160.911Z" fill="#001324"/>
<path d="M247.043 268.649H0V298H247.043V268.649Z" fill="#F753C3"/>
<path d="M247.049 268.729V260.154H0.132858V268.729H247.049Z" fill="#D50400"/>
<path d="M114.709 276.193C114.82 276.276 114.91 276.383 114.974 276.506C115.038 276.629 115.074 276.765 115.078 276.903C115.083 277.042 115.056 277.18 115 277.307C114.944 277.434 114.86 277.546 114.755 277.636L101.77 290.649C101.57 290.826 101.31 290.919 101.044 290.911C100.777 290.902 100.524 290.792 100.335 290.603C100.146 290.414 100.037 290.16 100.028 289.893C100.02 289.626 100.113 289.366 100.29 289.165L113.275 276.146C113.364 276.041 113.476 275.957 113.602 275.901C113.728 275.845 113.865 275.818 114.003 275.823C114.141 275.827 114.276 275.863 114.398 275.927C114.52 275.991 114.627 276.082 114.709 276.193Z" fill="#00B8AE"/>
<path d="M114.708 290.603C114.626 290.713 114.52 290.804 114.398 290.868C114.276 290.933 114.141 290.968 114.003 290.973C113.865 290.977 113.728 290.95 113.602 290.894C113.476 290.838 113.364 290.754 113.275 290.649L100.289 277.637C100.092 277.44 99.9811 277.173 99.9805 276.894C99.9798 276.615 100.09 276.348 100.286 276.15C100.482 275.952 100.749 275.841 101.027 275.84C101.306 275.84 101.573 275.95 101.77 276.147L114.755 289.166C114.86 289.255 114.944 289.367 115 289.493C115.056 289.62 115.082 289.757 115.078 289.895C115.073 290.033 115.038 290.169 114.974 290.291C114.91 290.414 114.819 290.52 114.708 290.603Z" fill="#00B8AE"/>
<path d="M110.586 274.57C110.586 276.645 109.212 281.968 107.519 281.968C105.826 281.968 104.458 276.645 104.458 274.57C104.458 272.494 105.833 270.818 107.519 270.818C109.205 270.818 110.586 272.494 110.586 274.57Z" fill="#00B8AE"/>
<path d="M104.458 292.225C104.458 290.15 105.833 284.834 107.519 284.834C109.205 284.834 110.586 290.156 110.586 292.225C110.586 294.294 109.212 295.984 107.519 295.984C105.826 295.984 104.458 294.301 104.458 292.225Z" fill="#00B8AE"/>
<path d="M116.328 286.465C114.264 286.465 108.953 285.094 108.953 283.398C108.953 281.701 114.264 280.331 116.328 280.331C118.393 280.331 120.079 281.701 120.079 283.398C120.079 285.094 118.399 286.465 116.328 286.465Z" fill="#00B8AE"/>
<path d="M98.7095 280.331C100.781 280.331 106.092 281.701 106.092 283.398C106.092 285.094 100.781 286.465 98.7095 286.465C96.6383 286.465 94.9653 285.094 94.9653 283.398C94.9653 281.701 96.6383 280.331 98.7095 280.331Z" fill="#00B8AE"/>
<path d="M15.1692 292.046L12.9652 295.219C12.4202 294.386 11.7759 293.622 11.0466 292.944V297.514H5.73575V293.443C5.0852 294.314 4.37067 295.134 3.59811 295.898L0.278809 291.64C1.64704 290.818 2.84762 289.743 3.81719 288.474H0.995779V283.73H5.70919V282.52H0.809898V277.55H3.46534C3.28026 276.915 3.0586 276.291 2.80148 275.681H1.36754V271.024H5.676C5.58813 270.472 5.44353 269.93 5.24449 269.408L11.2856 268.656C11.4118 269.434 11.5379 270.179 11.5976 270.991H15.9127V275.714H14.7377C14.5518 276.426 14.4257 276.865 14.2066 277.55H16.0057V282.52H11.0466V283.73H15.76V288.46H13.0316C14.0207 289.205 14.8572 289.791 15.687 290.456C16.2447 288.347 16.3509 286.045 16.3509 282.752V270.246C19.8989 270.116 23.433 269.731 26.9262 269.095L29.2099 274.623C26.6082 274.996 23.9891 275.236 21.363 275.342V278.169H28.9709V283.637H27.3577V297.475H22.4584V283.637H21.3431C21.3431 290.29 21.0643 293.244 18.8337 297.781L14.1867 294.022C14.561 293.388 14.8894 292.727 15.1692 292.046ZM8.22523 277.55H9.43345C9.65431 276.932 9.8296 276.298 9.9579 275.654H7.72733C7.91321 276.306 8.0659 276.832 8.22523 277.55Z" fill="#001324"/>
<path d="M40.9737 271.423H59.4622V276.858H50.4935V278.694H58.1279V284.016H50.4935V286.059H59.9535V291.84H50.4935V297.468H44.3528V291.846H31.8257V286.059H34.8927V280.244L31.2349 277.137C33.3083 274.642 34.8857 271.772 35.8819 268.682L41.5845 270.146C41.4075 270.584 41.2035 271.01 40.9737 271.423ZM37.3158 278.694H44.3528V276.858H38.3382C38.0324 277.48 37.691 278.085 37.3158 278.668V278.694ZM40.3829 286.059H44.366V283.976H40.3829V286.059Z" fill="#001324"/>
<path d="M69.1679 269.281V275.867H70.7811V281.588H69.1679V286.059C69.7144 285.892 70.235 285.651 70.7147 285.34V289.132C71.2065 286.447 71.4289 283.719 71.3786 280.989V272.201H80.4668L80.2212 268.722L85.4325 268.935L85.3396 272.201H86.3287C86.1428 271.363 85.9238 270.678 85.7113 269.9L89.5551 268.875C90.1459 270.678 90.6704 272.634 91.1683 274.749L90.2654 275.062V277.237H85.4923C85.5254 278.821 85.7113 281.774 85.864 283.358C86.2081 281.601 86.4299 279.823 86.5279 278.036L90.9625 279.28C90.0596 283.75 88.9178 288.108 87.3046 290.682C87.3975 290.962 87.61 291.347 87.8622 291.347C88.7253 291.347 89.2232 289.451 89.5949 288.054L91.5865 293.682C90.0995 296.197 88.7651 297.441 87.6033 297.441C86.5744 297.441 85.3993 296.357 84.377 294.301C83.0222 295.659 81.5009 296.84 79.8494 297.814L76.8355 293.822C77.4609 293.627 78.0639 293.366 78.6346 293.044C77.7827 293.256 76.9098 293.372 76.0322 293.39L75.4082 289.91C75.0389 292.555 74.3409 295.143 73.3303 297.614L69.0418 294.115C69.4667 293.242 69.8283 292.339 70.1239 291.414C68.2982 292.279 66.6519 292.964 64.3284 293.835L62.2173 288.114C62.8609 288.002 63.4938 287.835 64.1093 287.615V281.588H62.682V275.874H64.1093V269.288L69.1679 269.281ZM75.614 288.427C75.8901 288.493 76.1733 288.524 76.4571 288.52C76.8886 288.553 76.9816 288.394 77.0413 288.054C77.1948 286.703 77.279 285.344 77.2936 283.983H75.9658C75.926 285.161 75.8331 286.724 75.614 288.427ZM80.7324 277.237H75.9592V279.193H80.8917C80.8253 278.541 80.7656 277.889 80.7324 277.237ZM82.5978 289.451C81.7894 286.439 81.2517 283.36 80.9913 280.251C80.9913 283.484 80.8983 286.717 80.7722 290.17C80.773 290.657 80.6899 291.141 80.5266 291.6C81.3128 290.983 82.0099 290.26 82.5978 289.451Z" fill="#001324"/>
<path d="M139.411 275.215H136.397V270.758H141.044C141.153 270.06 141.215 269.355 141.23 268.649L146.441 269.268C146.396 269.768 146.325 270.265 146.229 270.758H152.927V275.235H149.608C150.723 276.237 151.989 277.056 153.359 277.663L150.478 281.981C149.689 281.355 148.933 280.689 148.214 279.985V281.848H139.816V280.264C139 280.902 138.129 281.465 137.214 281.947L136.032 279.985V280.949H133.735V282.945H135.507V288.227H133.735V290.223C134.399 290.097 134.824 290.004 135.727 289.784V294.88C132.62 295.598 129.679 296.25 125.304 297.029L124.308 291.527L125.271 291.46V281.901H128.962V291.068L129.586 290.942V280.963H125.397V269.933H136.065V277.251C137.297 276.786 138.431 276.095 139.411 275.215ZM129.546 276.366H131.903V274.503H129.519L129.546 276.366ZM144.184 286.777L143.905 287.589H152.217C152.157 288.74 152.097 289.984 152.004 290.822C151.599 294.361 150.882 295.858 149.614 296.51C148.526 297.069 145.459 297.222 142.266 297.222L140.838 292.312C142.637 292.498 144.715 292.558 145.392 292.558C145.83 292.558 146.235 292.438 146.328 292.252C146.439 292.016 146.502 291.761 146.514 291.5H136.218C137.07 289.997 137.777 288.415 138.329 286.777H135.846V282.46H153.027V286.777H144.184ZM144.343 276.366C143.8 277.145 143.152 277.846 142.418 278.448H146.448C145.669 277.828 144.956 277.13 144.317 276.366H144.343Z" fill="#001324"/>
<path d="M165.029 271.423H183.518V276.858H174.556V278.694H182.184V284.016H174.556V286.059H184.016V291.84H174.556V297.468H168.408V291.846H155.881V286.059H158.948V280.244L155.291 277.137C157.364 274.642 158.941 271.772 159.938 268.682L165.647 270.146C165.465 270.583 165.259 271.009 165.029 271.423ZM161.371 278.694H168.408V276.858H162.394C162.088 277.48 161.747 278.085 161.371 278.668V278.694ZM164.439 286.059H168.422V283.976H164.439V286.059Z" fill="#001324"/>
<path d="M192.573 294.268H191.544V296.264H187.083V269.993H196.941V273.199C198.672 271.889 200.19 270.318 201.442 268.542L206.872 269.973C206.69 270.195 206.493 270.404 206.281 270.598H212.92V274.856C212.544 275.49 212.118 276.093 211.645 276.659H214.155V287.595H209.846V291.48C209.846 291.826 209.846 292.259 210.371 292.259C210.716 292.259 210.809 292.046 210.842 291.48C210.842 291.141 210.842 290.083 210.842 288.593L215.184 289.804C215.091 293.13 214.746 295 213.69 296.051C212.98 296.769 211.831 297.049 210.251 297.049H208.452C206.122 297.049 205.073 296.33 205.073 294.248V287.595H204.23C204.17 291.141 203.301 294.561 199.795 297.76L196.914 294.873V295.585H192.573V294.268ZM191.544 275.714V279.539H192.573V275.714H191.544ZM191.544 284.229V288.58H192.573V284.229H191.544ZM199.397 287.615H197.532V278.448L196.941 277.61V293.024C197.709 292.348 198.326 291.516 198.749 290.584C199.172 289.652 199.393 288.64 199.397 287.615ZM206.527 275.155H202.683C202.159 275.701 201.598 276.21 201.004 276.679H205.379C205.799 276.2 206.183 275.691 206.527 275.155ZM202.311 283.018H203.553V281.309H202.311V283.018ZM208.047 283.018H209.375V281.309H208.047V283.018Z" fill="#001324"/>
<path d="M246.571 274.084L244.487 278.594V286.178H219.426V278.741L217.229 274.357C221.272 273.257 225.092 271.456 228.514 269.035H234.688C238.303 271.44 242.332 273.152 246.571 274.084ZM237.138 297.501V297.009H226.377V297.501H220.734V286.684H242.754V297.501H237.138ZM223.243 277.577H240.364C239.847 277.364 239.349 277.105 238.877 276.805H224.704C224.239 277.103 223.751 277.361 223.243 277.577ZM224.571 281.368L225.839 280.53H224.385V283.191H225.839C225.466 282.563 225.044 281.964 224.577 281.402L224.571 281.368ZM226.184 289.797V290.662H237.224V289.797H226.184ZM226.184 293.123V293.935H237.224V293.123H226.184ZM227.764 280.537C228.262 281.129 228.693 281.688 229.224 282.433L228.01 283.211H229.47V280.55L227.764 280.537ZM231.807 272.753C231.097 273.345 230.337 273.875 229.537 274.337H234.071C233.274 273.872 232.517 273.342 231.807 272.753ZM236.334 280.53H234.502V283.191H236.089L234.688 281.921C235.266 281.493 235.816 281.028 236.334 280.53ZM237.914 283.191H239.561V280.53H238.193L239.408 281.555C238.936 282.138 238.426 282.689 237.881 283.205L237.914 283.191Z" fill="#001324"/>
</g>
<defs>
<clipPath id="clip0_51_9641">
<rect width="336" height="298" fill="white"/>
</clipPath>
</defs>
</svg>
