<svg width="4164" height="226" viewBox="0 0 4164 226" fill="none" xmlns="http://www.w3.org/2000/svg">
<g clip-path="url(#clip0_196_7839)">
<path d="M921.129 159.748H876.623L848.403 117.741L820.184 159.748H776L822.441 90.4295L779.709 25.9028H824.376L848.403 63.9161L872.753 25.9028H916.936L874.204 89.7906L921.129 159.748Z" fill="black"/>
<path d="M931.127 62.1587H969.505V159.747H931.127V62.1587ZM950.155 15.9998C952.651 15.9144 955.14 16.3252 957.474 17.208C959.808 18.0907 961.939 19.4276 963.743 21.1396C965.546 22.8517 966.986 24.9042 967.975 27.1761C968.965 29.448 969.485 31.8932 969.505 34.3675C969.505 39.239 967.552 43.9109 964.074 47.3555C960.596 50.8001 955.879 52.7353 950.961 52.7353C946.043 52.7353 941.326 50.8001 937.848 47.3555C934.371 43.9109 932.417 39.239 932.417 34.3675C932.451 29.643 934.307 25.1101 937.604 21.6959C940.902 18.2817 945.391 16.2441 950.155 15.9998Z" fill="black"/>
<path d="M1024.33 159.748H985.631V62.159H1024.33V72.2213C1027.32 68.006 1031.35 64.619 1036.04 62.3824C1040.72 60.1458 1045.91 59.1341 1051.1 59.4437C1080.77 59.4437 1095.28 77.9712 1095.28 105.922V159.748H1057.23V105.922C1057.23 94.2625 1052.55 87.7141 1041.1 87.7141C1029.65 87.7141 1024.98 94.2625 1024.98 105.922L1024.33 159.748Z" fill="black"/>
<path d="M1166.56 186.58C1163.56 194.182 1158.1 200.588 1151.05 204.805C1143.99 209.021 1135.72 210.812 1127.53 209.899C1118.73 209.948 1110 208.208 1101.9 204.788L1112.7 178.594C1116.11 180.48 1119.92 181.521 1123.83 181.629C1133.02 181.629 1136.4 175.4 1139.95 166.775L1142.37 159.747L1100.93 62.1587H1139.79L1160.11 118.699L1180.43 62.1587H1219.29L1166.56 186.58Z" fill="black"/>
<path d="M1227.51 62.1589H1265.73V159.747H1227.51V62.1589ZM1246.7 16C1251.61 16.0417 1256.3 17.9903 1259.77 21.4259C1263.24 24.8615 1265.2 29.5092 1265.25 34.3677C1265.25 39.2392 1263.29 43.9111 1259.81 47.3557C1256.34 50.8003 1251.62 52.7355 1246.7 52.7355C1241.78 52.7355 1237.07 50.8003 1233.59 47.3557C1230.11 43.9111 1228.16 39.2392 1228.16 34.3677C1228.2 29.5092 1230.17 24.8615 1233.64 21.4259C1237.1 17.9903 1241.8 16.0417 1246.7 16Z" fill="black"/>
<path d="M1397.8 159.748H1338.78V25.9028H1397.8C1450.04 25.9028 1469.39 55.2912 1469.39 92.985C1469.39 130.679 1450.04 159.748 1397.8 159.748ZM1378.77 127.804H1397.8C1419.24 127.804 1428.6 116.464 1428.6 93.6239C1428.6 70.784 1419.24 59.4439 1397.8 59.4439H1378.77V127.804Z" fill="black"/>
<path d="M1483.91 62.1589H1521.96V159.747H1483.91V62.1589ZM1502.94 16C1506.6 16 1510.19 17.0772 1513.24 19.0955C1516.29 21.1138 1518.66 23.9824 1520.07 27.3387C1521.47 30.695 1521.84 34.3881 1521.12 37.9511C1520.41 41.5141 1518.64 44.7869 1516.05 47.3557C1513.45 49.9244 1510.15 51.6738 1506.55 52.3825C1502.96 53.0913 1499.23 52.7275 1495.84 51.3373C1492.45 49.9471 1489.55 47.5929 1487.52 44.5723C1485.48 41.5517 1484.39 38.0005 1484.39 34.3677C1484.39 29.4963 1486.34 24.8244 1489.82 21.3798C1493.3 17.9352 1498.02 16 1502.94 16Z" fill="black"/>
<path d="M1613.39 93.4641C1604.27 89.7927 1594.54 87.8426 1584.69 87.7142C1578.72 87.7142 1575.5 87.7142 1575.5 91.8669C1575.5 96.0196 1582.27 96.3391 1586.95 97.4571C1613.07 102.408 1631.13 109.755 1631.13 131.637C1631.13 156.234 1606.3 163.581 1580.01 163.581C1563.75 163.566 1547.81 159.148 1533.9 150.803L1547.12 127.804C1557.13 132.769 1568.17 135.34 1579.37 135.311C1590.17 135.311 1593.4 132.755 1593.4 129.72C1593.4 126.686 1588.56 125.408 1580.66 123.811C1552.92 118.221 1537.6 109.755 1537.6 91.8669C1537.6 73.9783 1553.73 60.8813 1581.3 60.8813C1597.36 60.28 1613.31 63.8013 1627.58 71.1034L1613.39 93.4641Z" fill="black"/>
<path d="M1636.78 62.1589H1654.19V34.3677H1692.25V62.1589H1717.73V90.5889H1692.25V117.102C1692.25 130.199 1694.51 135.47 1704.5 135.47C1708.19 135.495 1711.86 134.845 1715.31 133.553L1722.89 157.99C1715.04 161.314 1706.59 162.999 1698.05 162.942C1664.51 162.942 1654.19 146.97 1654.19 117.102V90.5889H1636.78V62.1589Z" fill="black"/>
<path d="M1809 93.1445C1802.83 89.5916 1795.82 87.7181 1788.68 87.7141C1776.91 87.7141 1772.55 95.2209 1772.55 106.88V159.748H1734.17V62.159H1772.23V72.2213C1775.22 68.006 1779.25 64.619 1783.94 62.3824C1788.62 60.1458 1793.81 59.1341 1799 59.4437C1808.27 59.1329 1817.43 61.5806 1825.28 66.4714L1809 93.1445Z" fill="black"/>
<path d="M1833.83 62.1589H1872.53V159.747H1833.83V62.1589ZM1852.7 16C1856.36 16 1859.95 17.0772 1863 19.0955C1866.05 21.1138 1868.42 23.9824 1869.83 27.3387C1871.23 30.695 1871.6 34.3881 1870.88 37.9511C1870.17 41.5141 1868.4 44.7869 1865.81 47.3557C1863.22 49.9244 1859.91 51.6738 1856.31 52.3825C1852.72 53.0913 1848.99 52.7275 1845.6 51.3373C1842.21 49.9471 1839.31 47.5929 1837.28 44.5723C1835.24 41.5517 1834.15 38.0005 1834.15 34.3677C1834.15 31.9556 1834.63 29.5672 1835.56 27.3387C1836.5 25.1102 1837.86 23.0854 1839.58 21.3798C1841.31 19.6742 1843.35 18.3212 1845.6 17.3982C1847.85 16.4751 1850.26 16 1852.7 16Z" fill="black"/>
<path d="M1946.55 134.512C1955.81 134.492 1964.84 131.586 1972.35 126.206L1990.25 147.449C1984.51 153.005 1977.65 157.299 1970.12 160.051C1962.59 162.803 1954.55 163.951 1946.55 163.421C1909.14 162.942 1885.11 143.775 1885.11 111.832C1885.11 79.8877 1909.14 60.0825 1946.55 60.0825C1954.55 59.5522 1962.59 60.7006 1970.12 63.4527C1977.65 66.2048 1984.51 70.4988 1990.25 76.0544L1972.35 95.8596C1964.86 90.4229 1955.83 87.461 1946.55 87.3945C1943.3 87.1548 1940.04 87.6334 1937.01 88.7957C1933.97 89.9579 1931.24 91.7747 1929 94.1142C1926.76 96.4538 1925.07 99.2574 1924.07 102.322C1923.06 105.386 1922.75 108.635 1923.16 111.832C1922.99 114.895 1923.49 117.96 1924.61 120.82C1925.73 123.68 1927.46 126.27 1929.67 128.417C1931.88 130.563 1934.53 132.218 1937.44 133.269C1940.35 134.32 1943.46 134.744 1946.55 134.512Z" fill="black"/>
<path d="M1995.89 62.1589H2013.31V34.3677H2051.36V62.1589H2076.84V90.5889H2051.36V117.102C2051.36 130.199 2053.78 135.47 2063.62 135.47C2067.36 135.466 2071.07 134.817 2074.58 133.553L2082.16 157.99C2074.32 161.314 2065.86 162.999 2057.33 162.942C2023.79 162.942 2013.47 146.97 2013.47 117.102V90.5889H1995.89V62.1589Z" fill="black"/>
<path d="M148.318 12.0571V50.2367H96.9631V167.37H50.9844V50.2367H0V12.0571H148.318Z" fill="black"/>
<path d="M215.803 94.3474C215.803 85.6365 213.764 81.7444 195.595 81.7444C183.94 81.6211 172.367 83.6961 161.482 87.8605L148.318 60.9866C164.846 53.7931 182.77 50.3741 200.786 50.9783C241.017 50.9783 259.557 62.6546 259.557 100.093V167.37H215.803V154.582C211.989 160.097 206.751 164.474 200.646 167.248C194.541 170.023 187.797 171.09 181.134 170.336C175.876 171.025 170.531 170.579 165.46 169.028C160.389 167.476 155.71 164.855 151.739 161.342C147.767 157.828 144.596 153.504 142.439 148.662C140.282 143.819 139.189 138.569 139.234 133.268C139.234 99.3515 179.836 91.382 215.803 94.3474ZM195.409 139.755C210.797 139.755 215.803 129.747 215.803 124.372V118.441C202.454 117.329 182.988 118.441 182.988 130.488C182.988 137.346 188.179 139.755 195.409 139.755Z" fill="black"/>
<path d="M279.024 54.129H322.778V167.37H279.024V54.129ZM300.901 0.566406C306.54 0.614802 311.935 2.8759 315.923 6.86258C319.911 10.8493 322.173 16.2424 322.222 21.8802C322.222 27.533 319.975 32.9543 315.977 36.9514C311.979 40.9485 306.555 43.1941 300.901 43.1941C295.246 43.1941 289.823 40.9485 285.825 36.9514C281.826 32.9543 279.58 27.533 279.58 21.8802C279.629 16.2424 281.89 10.8493 285.878 6.86258C289.866 2.8759 295.261 0.614802 300.901 0.566406Z" fill="black"/>
<path d="M342.43 54.129H386.184V67.844C390.477 62.176 396.116 57.6661 402.589 54.7216C409.063 51.7771 416.168 50.4906 423.263 50.9783C431.286 50.4865 439.32 51.7387 446.812 54.6488C454.304 57.5589 461.076 62.0577 466.662 67.8354C472.247 73.6131 476.514 80.5324 479.168 88.1168C481.822 95.7012 482.8 103.771 482.035 111.769C482.587 119.716 481.424 127.688 478.626 135.146C475.828 142.605 471.46 149.375 465.816 154.999C460.173 160.623 453.387 164.969 445.917 167.743C438.448 170.517 430.469 171.654 422.522 171.077C415.432 171.515 408.344 170.206 401.879 167.266C395.413 164.325 389.769 159.842 385.442 154.211V225.566H342.43V54.129ZM438.837 111.769C438.837 108.313 438.156 104.891 436.833 101.698C435.51 98.5046 433.571 95.6033 431.126 93.1594C428.681 90.7156 425.779 88.777 422.585 87.4544C419.391 86.1318 415.968 85.4511 412.51 85.4511C409.053 85.4511 405.63 86.1318 402.436 87.4544C399.242 88.777 396.339 90.7156 393.895 93.1594C391.45 95.6033 389.511 98.5046 388.188 101.698C386.865 104.891 386.184 108.313 386.184 111.769C386.184 115.225 386.865 118.647 388.188 121.84C389.511 125.034 391.45 127.935 393.895 130.379C396.339 132.823 399.242 134.761 402.436 136.084C405.63 137.406 409.053 138.087 412.51 138.087C415.968 138.087 419.391 137.406 422.585 136.084C425.779 134.761 428.681 132.823 431.126 130.379C433.571 127.935 435.51 125.034 436.833 121.84C438.156 118.647 438.837 115.225 438.837 111.769Z" fill="black"/>
<path d="M493.344 111.769C493.128 103.489 494.667 95.256 497.858 87.6116C501.049 79.9673 505.822 73.084 511.862 67.4134C517.902 61.7428 525.073 57.4131 532.905 54.7084C540.737 52.0038 549.053 50.9852 557.306 51.7197C599.577 51.7197 620.898 80.2617 618.858 127.708H537.654C537.654 132.712 545.07 139.94 563.239 139.94C573.778 139.798 584.11 136.993 593.273 131.786L613.667 155.138C597.433 166.522 577.849 172.134 558.048 171.077C549.764 172.102 541.356 171.317 533.405 168.776C525.454 166.235 518.15 161.998 511.997 156.358C505.845 150.719 500.99 143.811 497.77 136.113C494.549 128.414 493.039 120.108 493.344 111.769ZM577.515 100.093C577.515 92.494 571.396 83.5978 557.306 83.5978C552.648 83.2666 548.036 84.7051 544.393 87.6257C540.749 90.5464 538.343 94.7339 537.654 99.3515L577.515 100.093Z" fill="black"/>
<path d="M634.246 54.129H678V167.37H634.246V54.129ZM656.123 0.566406C661.763 0.614802 667.158 2.8759 671.146 6.86258C675.134 10.8493 677.395 16.2424 677.444 21.8802C677.444 24.6792 676.892 27.4508 675.821 30.0367C674.749 32.6226 673.179 34.9722 671.199 36.9514C669.219 38.9306 666.869 40.5005 664.282 41.5717C661.695 42.6428 658.923 43.1941 656.123 43.1941C653.323 43.1941 650.551 42.6428 647.964 41.5717C645.377 40.5005 643.027 38.9306 641.047 36.9514C639.067 34.9722 637.497 32.6226 636.425 30.0367C635.354 27.4508 634.802 24.6792 634.802 21.8802C634.851 16.2424 637.113 10.8493 641.1 6.86258C645.088 2.8759 650.483 0.614802 656.123 0.566406Z" fill="black"/>
</g>
<g clip-path="url(#clip1_196_7839)">
<path d="M3003.13 159.748H2958.62L2930.4 117.741L2902.18 159.748H2858L2904.44 90.4295L2861.71 25.9028H2906.38L2930.4 63.9161L2954.75 25.9028H2998.94L2956.2 89.7906L3003.13 159.748Z" fill="black"/>
<path d="M3013.13 62.1587H3051.5V159.747H3013.13V62.1587ZM3032.15 15.9998C3034.65 15.9144 3037.14 16.3252 3039.47 17.208C3041.81 18.0907 3043.94 19.4276 3045.74 21.1396C3047.55 22.8517 3048.99 24.9042 3049.97 27.1761C3050.96 29.448 3051.48 31.8932 3051.5 34.3675C3051.5 39.239 3049.55 43.9109 3046.07 47.3555C3042.6 50.8001 3037.88 52.7353 3032.96 52.7353C3028.04 52.7353 3023.33 50.8001 3019.85 47.3555C3016.37 43.9109 3014.42 39.239 3014.42 34.3675C3014.45 29.643 3016.31 25.1101 3019.6 21.6959C3022.9 18.2817 3027.39 16.2441 3032.15 15.9998Z" fill="black"/>
<path d="M3106.33 159.748H3067.63V62.159H3106.33V72.2213C3109.32 68.006 3113.35 64.619 3118.04 62.3824C3122.72 60.1458 3127.91 59.1341 3133.1 59.4437C3162.77 59.4437 3177.28 77.9712 3177.28 105.922V159.748H3139.23V105.922C3139.23 94.2625 3134.55 87.7141 3123.1 87.7141C3111.65 87.7141 3106.98 94.2625 3106.98 105.922L3106.33 159.748Z" fill="black"/>
<path d="M3248.56 186.58C3245.56 194.182 3240.1 200.588 3233.05 204.805C3225.99 209.021 3217.72 210.812 3209.53 209.899C3200.73 209.948 3192 208.208 3183.9 204.788L3194.7 178.594C3198.11 180.48 3201.92 181.521 3205.83 181.629C3215.02 181.629 3218.4 175.4 3221.95 166.775L3224.37 159.747L3182.93 62.1587H3221.79L3242.11 118.699L3262.43 62.1587H3301.29L3248.56 186.58Z" fill="black"/>
<path d="M3309.51 62.1589H3347.73V159.747H3309.51V62.1589ZM3328.7 16C3333.61 16.0417 3338.3 17.9903 3341.77 21.4259C3345.24 24.8615 3347.2 29.5092 3347.25 34.3677C3347.25 39.2392 3345.29 43.9111 3341.81 47.3557C3338.34 50.8003 3333.62 52.7355 3328.7 52.7355C3323.78 52.7355 3319.07 50.8003 3315.59 47.3557C3312.11 43.9111 3310.16 39.2392 3310.16 34.3677C3310.2 29.5092 3312.17 24.8615 3315.64 21.4259C3319.1 17.9903 3323.8 16.0417 3328.7 16Z" fill="black"/>
<path d="M3479.8 159.748H3420.78V25.9028H3479.8C3532.04 25.9028 3551.39 55.2912 3551.39 92.985C3551.39 130.679 3532.04 159.748 3479.8 159.748ZM3460.77 127.804H3479.8C3501.24 127.804 3510.6 116.464 3510.6 93.6239C3510.6 70.784 3501.24 59.4439 3479.8 59.4439H3460.77V127.804Z" fill="black"/>
<path d="M3565.91 62.1589H3603.96V159.747H3565.91V62.1589ZM3584.94 16C3588.6 16 3592.19 17.0772 3595.24 19.0955C3598.29 21.1138 3600.66 23.9824 3602.07 27.3387C3603.47 30.695 3603.84 34.3881 3603.12 37.9511C3602.41 41.5141 3600.64 44.7869 3598.05 47.3557C3595.45 49.9244 3592.15 51.6738 3588.55 52.3825C3584.96 53.0913 3581.23 52.7275 3577.84 51.3373C3574.45 49.9471 3571.55 47.5929 3569.52 44.5723C3567.48 41.5517 3566.39 38.0005 3566.39 34.3677C3566.39 29.4963 3568.34 24.8244 3571.82 21.3798C3575.3 17.9352 3580.02 16 3584.94 16Z" fill="black"/>
<path d="M3695.39 93.4641C3686.27 89.7927 3676.54 87.8426 3666.69 87.7142C3660.72 87.7142 3657.5 87.7142 3657.5 91.8669C3657.5 96.0196 3664.27 96.3391 3668.95 97.4571C3695.07 102.408 3713.13 109.755 3713.13 131.637C3713.13 156.234 3688.3 163.581 3662.01 163.581C3645.75 163.566 3629.81 159.148 3615.9 150.803L3629.12 127.804C3639.13 132.769 3650.17 135.34 3661.37 135.311C3672.17 135.311 3675.4 132.755 3675.4 129.72C3675.4 126.686 3670.56 125.408 3662.66 123.811C3634.92 118.221 3619.6 109.755 3619.6 91.8669C3619.6 73.9783 3635.73 60.8813 3663.3 60.8813C3679.36 60.28 3695.31 63.8013 3709.58 71.1034L3695.39 93.4641Z" fill="black"/>
<path d="M3718.78 62.1589H3736.19V34.3677H3774.25V62.1589H3799.73V90.5889H3774.25V117.102C3774.25 130.199 3776.51 135.47 3786.5 135.47C3790.19 135.495 3793.86 134.845 3797.31 133.553L3804.89 157.99C3797.04 161.314 3788.59 162.999 3780.05 162.942C3746.51 162.942 3736.19 146.97 3736.19 117.102V90.5889H3718.78V62.1589Z" fill="black"/>
<path d="M3891 93.1445C3884.83 89.5916 3877.82 87.7181 3870.68 87.7141C3858.91 87.7141 3854.55 95.2209 3854.55 106.88V159.748H3816.17V62.159H3854.23V72.2213C3857.22 68.006 3861.25 64.619 3865.94 62.3824C3870.62 60.1458 3875.81 59.1341 3881 59.4437C3890.27 59.1329 3899.43 61.5806 3907.28 66.4714L3891 93.1445Z" fill="black"/>
<path d="M3915.83 62.1589H3954.53V159.747H3915.83V62.1589ZM3934.7 16C3938.36 16 3941.95 17.0772 3945 19.0955C3948.05 21.1138 3950.42 23.9824 3951.83 27.3387C3953.23 30.695 3953.6 34.3881 3952.88 37.9511C3952.17 41.5141 3950.4 44.7869 3947.81 47.3557C3945.22 49.9244 3941.91 51.6738 3938.31 52.3825C3934.72 53.0913 3930.99 52.7275 3927.6 51.3373C3924.21 49.9471 3921.31 47.5929 3919.28 44.5723C3917.24 41.5517 3916.15 38.0005 3916.15 34.3677C3916.15 31.9556 3916.63 29.5672 3917.56 27.3387C3918.5 25.1102 3919.86 23.0854 3921.58 21.3798C3923.31 19.6742 3925.35 18.3212 3927.6 17.3982C3929.85 16.4751 3932.26 16 3934.7 16Z" fill="black"/>
<path d="M4028.55 134.512C4037.81 134.492 4046.84 131.586 4054.35 126.206L4072.25 147.449C4066.51 153.005 4059.65 157.299 4052.12 160.051C4044.59 162.803 4036.55 163.951 4028.55 163.421C3991.14 162.942 3967.11 143.775 3967.11 111.832C3967.11 79.8877 3991.14 60.0825 4028.55 60.0825C4036.55 59.5522 4044.59 60.7006 4052.12 63.4527C4059.65 66.2048 4066.51 70.4988 4072.25 76.0544L4054.35 95.8596C4046.86 90.4229 4037.83 87.461 4028.55 87.3945C4025.3 87.1548 4022.04 87.6334 4019.01 88.7957C4015.97 89.9579 4013.24 91.7747 4011 94.1142C4008.76 96.4538 4007.07 99.2574 4006.07 102.322C4005.06 105.386 4004.75 108.635 4005.16 111.832C4004.99 114.895 4005.49 117.96 4006.61 120.82C4007.73 123.68 4009.46 126.27 4011.67 128.417C4013.88 130.563 4016.53 132.218 4019.44 133.269C4022.35 134.32 4025.46 134.744 4028.55 134.512Z" fill="black"/>
<path d="M4077.89 62.1589H4095.31V34.3677H4133.36V62.1589H4158.84V90.5889H4133.36V117.102C4133.36 130.199 4135.78 135.47 4145.62 135.47C4149.36 135.466 4153.07 134.817 4156.58 133.553L4164.16 157.99C4156.32 161.314 4147.86 162.999 4139.33 162.942C4105.79 162.942 4095.47 146.97 4095.47 117.102V90.5889H4077.89V62.1589Z" fill="black"/>
<path d="M2230.32 12.0571V50.2367H2178.96V167.37H2132.98V50.2367H2082V12.0571H2230.32Z" fill="black"/>
<path d="M2297.8 94.3474C2297.8 85.6365 2295.76 81.7444 2277.59 81.7444C2265.94 81.6211 2254.37 83.6961 2243.48 87.8605L2230.32 60.9866C2246.85 53.7931 2264.77 50.3741 2282.79 50.9783C2323.02 50.9783 2341.56 62.6546 2341.56 100.093V167.37H2297.8V154.582C2293.99 160.097 2288.75 164.474 2282.65 167.248C2276.54 170.023 2269.8 171.09 2263.13 170.336C2257.88 171.025 2252.53 170.579 2247.46 169.028C2242.39 167.476 2237.71 164.855 2233.74 161.342C2229.77 157.828 2226.6 153.504 2224.44 148.662C2222.28 143.819 2221.19 138.569 2221.23 133.268C2221.23 99.3515 2261.84 91.382 2297.8 94.3474ZM2277.41 139.755C2292.8 139.755 2297.8 129.747 2297.8 124.372V118.441C2284.45 117.329 2264.99 118.441 2264.99 130.488C2264.99 137.346 2270.18 139.755 2277.41 139.755Z" fill="black"/>
<path d="M2361.02 54.129H2404.78V167.37H2361.02V54.129ZM2382.9 0.566406C2388.54 0.614802 2393.93 2.8759 2397.92 6.86258C2401.91 10.8493 2404.17 16.2424 2404.22 21.8802C2404.22 27.533 2401.97 32.9543 2397.98 36.9514C2393.98 40.9485 2388.55 43.1941 2382.9 43.1941C2377.25 43.1941 2371.82 40.9485 2367.82 36.9514C2363.83 32.9543 2361.58 27.533 2361.58 21.8802C2361.63 16.2424 2363.89 10.8493 2367.88 6.86258C2371.87 2.8759 2377.26 0.614802 2382.9 0.566406Z" fill="black"/>
<path d="M2424.43 54.129H2468.18V67.844C2472.48 62.176 2478.12 57.6661 2484.59 54.7216C2491.06 51.7771 2498.17 50.4906 2505.26 50.9783C2513.29 50.4865 2521.32 51.7387 2528.81 54.6488C2536.3 57.5589 2543.08 62.0577 2548.66 67.8354C2554.25 73.6131 2558.51 80.5324 2561.17 88.1168C2563.82 95.7012 2564.8 103.771 2564.04 111.769C2564.59 119.716 2563.42 127.688 2560.63 135.146C2557.83 142.605 2553.46 149.375 2547.82 154.999C2542.17 160.623 2535.39 164.969 2527.92 167.743C2520.45 170.517 2512.47 171.654 2504.52 171.077C2497.43 171.515 2490.34 170.206 2483.88 167.266C2477.41 164.325 2471.77 159.842 2467.44 154.211V225.566H2424.43V54.129ZM2520.84 111.769C2520.84 108.313 2520.16 104.891 2518.83 101.698C2517.51 98.5046 2515.57 95.6033 2513.13 93.1594C2510.68 90.7156 2507.78 88.777 2504.59 87.4544C2501.39 86.1318 2497.97 85.4511 2494.51 85.4511C2491.05 85.4511 2487.63 86.1318 2484.44 87.4544C2481.24 88.777 2478.34 90.7156 2475.9 93.1594C2473.45 95.6033 2471.51 98.5046 2470.19 101.698C2468.87 104.891 2468.18 108.313 2468.18 111.769C2468.18 115.225 2468.87 118.647 2470.19 121.84C2471.51 125.034 2473.45 127.935 2475.9 130.379C2478.34 132.823 2481.24 134.761 2484.44 136.084C2487.63 137.406 2491.05 138.087 2494.51 138.087C2497.97 138.087 2501.39 137.406 2504.59 136.084C2507.78 134.761 2510.68 132.823 2513.13 130.379C2515.57 127.935 2517.51 125.034 2518.83 121.84C2520.16 118.647 2520.84 115.225 2520.84 111.769Z" fill="black"/>
<path d="M2575.34 111.769C2575.13 103.489 2576.67 95.256 2579.86 87.6116C2583.05 79.9673 2587.82 73.084 2593.86 67.4134C2599.9 61.7428 2607.07 57.4131 2614.91 54.7084C2622.74 52.0038 2631.05 50.9852 2639.31 51.7197C2681.58 51.7197 2702.9 80.2617 2700.86 127.708H2619.65C2619.65 132.712 2627.07 139.94 2645.24 139.94C2655.78 139.798 2666.11 136.993 2675.27 131.786L2695.67 155.138C2679.43 166.522 2659.85 172.134 2640.05 171.077C2631.76 172.102 2623.36 171.317 2615.41 168.776C2607.45 166.235 2600.15 161.998 2594 156.358C2587.85 150.719 2582.99 143.811 2579.77 136.113C2576.55 128.414 2575.04 120.108 2575.34 111.769ZM2659.52 100.093C2659.52 92.494 2653.4 83.5978 2639.31 83.5978C2634.65 83.2666 2630.04 84.7051 2626.39 87.6257C2622.75 90.5464 2620.34 94.7339 2619.65 99.3515L2659.52 100.093Z" fill="black"/>
<path d="M2716.25 54.129H2760V167.37H2716.25V54.129ZM2738.12 0.566406C2743.76 0.614802 2749.16 2.8759 2753.15 6.86258C2757.13 10.8493 2759.4 16.2424 2759.44 21.8802C2759.44 24.6792 2758.89 27.4508 2757.82 30.0367C2756.75 32.6226 2755.18 34.9722 2753.2 36.9514C2751.22 38.9306 2748.87 40.5005 2746.28 41.5717C2743.7 42.6428 2740.92 43.1941 2738.12 43.1941C2735.32 43.1941 2732.55 42.6428 2729.96 41.5717C2727.38 40.5005 2725.03 38.9306 2723.05 36.9514C2721.07 34.9722 2719.5 32.6226 2718.43 30.0367C2717.35 27.4508 2716.8 24.6792 2716.8 21.8802C2716.85 16.2424 2719.11 10.8493 2723.1 6.86258C2727.09 2.8759 2732.48 0.614802 2738.12 0.566406Z" fill="black"/>
</g>
<defs>
<clipPath id="clip0_196_7839">
<rect width="2082" height="226" fill="white"/>
</clipPath>
<clipPath id="clip1_196_7839">
<rect width="2082" height="226" fill="white" transform="translate(2082)"/>
</clipPath>
</defs>
</svg>
