<svg width="251" height="93" viewBox="0 0 251 93" fill="none" xmlns="http://www.w3.org/2000/svg">
<g clip-path="url(#clip0_197_9371)">
<rect width="251" height="59" fill="#E7D71D"/>
<path d="M15.24 12.872H42.44V15.56H15.24V12.872ZM15.24 5.64H42.44V8.264H15.24V5.64ZM7.88 0.711998V20.488H50.12V0.711998H7.88ZM0.328 22.792V28.936H57.544V22.792H0.328ZM29.64 31.304V37.192H50.568V31.304H29.64ZM10.12 31.496V36.808H24.712V31.496H10.12ZM10.12 39.496V44.808H24.712V39.496H10.12ZM37.512 36.616L31.368 38.344C35.72 48.328 43.336 55.496 54.408 58.696C55.368 56.904 57.352 54.088 58.952 52.744C48.648 50.312 41.096 44.424 37.512 36.616ZM48.328 31.304V32.392C45.512 42.248 37.256 49.608 27.336 52.744C28.744 54.152 30.664 56.904 31.496 58.696C42.888 54.408 51.912 46.216 55.688 32.84L50.952 31.048L49.672 31.304H48.328ZM-0.248 48.84L0.264 55.432C6.984 54.856 15.944 54.024 24.52 53.192V46.984C15.56 47.752 6.152 48.456 -0.248 48.84ZM20.744 24.776V58.76H28.104V24.776H20.744ZM5.32 24.968V51.08H12.36V24.968H5.32ZM99.08 19.848V26.952H122.952V19.848H99.08ZM64.392 5V11.272H93.192V5H64.392ZM63.752 30.472V36.936H93.128V30.472H63.752ZM63.56 19.272V25.608H93.704V19.272H63.56ZM109.448 22.92V58.44H116.872V22.92H109.448ZM75.08 -0.824001V7.816H82.568V-0.824001H75.08ZM75.08 25.224V58.696H82.568V25.224H75.08ZM95.624 3.72V26.056C95.624 34.824 94.92 45.768 87.496 53.64C89.224 54.6 92.04 57.224 93 58.888C101.704 49.864 102.92 35.72 102.92 26.184V7.368C104.072 7.176 104.52 6.856 104.584 6.216L95.624 3.72ZM116.552 -0.696003C112.008 1.736 104.456 4.04 97.608 5.576C98.504 7.048 99.592 9.736 99.976 11.4C107.464 9.992 116.168 7.816 122.696 4.872L116.552 -0.696003ZM81.992 37.192L77.896 40.52C80.264 42.632 85.128 47.432 87.24 49.992L91.656 44.488C90.12 43.208 83.976 38.408 81.992 37.192ZM67.592 12.232C68.616 14.664 69.448 17.928 69.576 20.04L75.848 18.376C75.528 16.264 74.632 13.128 73.48 10.824L67.592 12.232ZM83.528 10.696C82.952 12.936 81.864 16.2 80.968 18.376L87.048 19.656C88.008 17.672 89.096 14.92 90.312 11.976L83.528 10.696ZM75.144 34.248C72.328 39.88 67.016 46.088 61.96 49.352C63.56 50.568 65.8 53.128 67.016 54.792C72.136 50.632 77.448 43.272 80.584 36.232L75.144 34.248ZM154.056 28.424V34.888H179.4V28.424H154.056ZM153.992 39.688V46.088H179.4V39.688H153.992ZM178.76 0.135998C177.48 4.04 175.048 9.096 173.128 12.36L179.784 14.856C181.768 11.784 184.136 7.24 186.248 2.76L178.76 0.135998ZM146.952 3.464C149.448 7.176 151.944 12.104 152.776 15.368L159.688 12.104C158.728 8.84 155.976 4.104 153.416 0.583996L146.952 3.464ZM148.936 16.52V58.696H156.488V23.688H179.528V16.52H148.936ZM175.944 16.52V50.376C175.944 51.208 175.624 51.464 174.664 51.528C173.704 51.528 170.312 51.528 167.368 51.4C168.328 53.384 169.352 56.52 169.672 58.568C174.472 58.568 177.928 58.504 180.36 57.352C182.728 56.136 183.432 54.088 183.432 50.44V16.52H175.944ZM162.568 -1.4V21.32H170.312V-1.4H162.568ZM129.736 4.552C133.704 6.664 138.696 10.056 140.936 12.424L145.736 6.536C143.24 4.104 138.184 1.096 134.216 -0.824001L129.736 4.552ZM126.792 21.576C130.888 23.688 135.944 27.08 138.312 29.512L142.92 23.496C140.36 21.064 135.176 17.992 131.144 16.136L126.792 21.576ZM128.584 53.512L135.304 58.44C138.76 51.976 142.344 44.552 145.224 37.64L139.592 33.032C136.136 40.52 131.72 48.648 128.584 53.512ZM207.24 40.52V49.8C207.24 56.456 209.224 58.568 217.544 58.568C219.272 58.568 226.248 58.568 228.04 58.568C234.248 58.568 236.36 56.648 237.32 48.968C235.272 48.584 232.008 47.432 230.472 46.344C230.152 51.08 229.704 51.784 227.272 51.784C225.544 51.784 219.784 51.784 218.44 51.784C215.368 51.784 214.856 51.528 214.856 49.736V40.52H207.24ZM214.344 39.048C217.672 41.8 221.448 45.768 223.048 48.52L229.064 44.424C227.272 41.544 223.368 37.832 219.976 35.272L214.344 39.048ZM234.248 42.376C238.728 46.664 243.336 52.552 245.064 56.712L251.72 52.424C249.8 48.072 244.872 42.504 240.392 38.472L234.248 42.376ZM197.768 39.304C196.424 44.104 193.864 49.032 190.408 52.104L196.808 56.584C200.712 52.808 203.016 47.048 204.616 41.8L197.768 39.304ZM208.264 18.056H234.184V21.256H208.264V18.056ZM208.264 26.824H234.184V30.024H208.264V26.824ZM208.264 9.352H234.184V12.552H208.264V9.352ZM200.84 3.528V35.912H241.928V3.528H200.84ZM217.032 -2.04C216.648 0.135998 215.816 3.08 215.048 5.32L222.152 6.728C223.24 4.808 224.904 2.184 226.376 -0.888004L217.032 -2.04Z" fill="#111111"/>
</g>
<g clip-path="url(#clip1_197_9371)">
<rect width="134" height="26" transform="translate(58 67)" fill="#FF7E00"/>
<path d="M76.6328 72.7266H80.3008L75.4375 90H71.9922L69.9062 79.8984L69.2969 76.5586L68.6875 79.8984L66.6016 90H63.25L58.3516 72.7266H62.1836L64.4688 82.6172L64.9609 85.3711L65.4648 82.6758L67.4102 72.7266H71.2188L73.2695 82.6172L73.7969 85.3711L74.3242 82.7227L76.6328 72.7266ZM93.7656 82.5V90H90.3555V82.2305C90.3555 81.543 90.2383 80.9883 90.0039 80.5664C89.6992 79.9727 89.1211 79.6758 88.2695 79.6758C87.3867 79.6758 86.7148 79.9727 86.2539 80.5664C85.8008 81.1523 85.5742 81.9922 85.5742 83.0859V90H82.2461V72.7852H85.5742V78.8906C86.0586 78.1484 86.6172 77.6328 87.25 77.3438C87.8906 77.0469 88.5625 76.8984 89.2656 76.8984C90.0547 76.8984 90.7695 77.0352 91.4102 77.3086C92.0586 77.582 92.5898 78 93.0039 78.5625C93.3555 79.0391 93.5703 79.5312 93.6484 80.0391C93.7266 80.5391 93.7656 81.3594 93.7656 82.5ZM97.375 78.6094C98.2578 77.4844 99.7734 76.9219 101.922 76.9219C103.32 76.9219 104.562 77.1992 105.648 77.7539C106.734 78.3086 107.277 79.3555 107.277 80.8945V86.7539C107.277 87.1602 107.285 87.6523 107.301 88.2305C107.324 88.668 107.391 88.9648 107.5 89.1211C107.609 89.2773 107.773 89.4062 107.992 89.5078V90H104.359C104.258 89.7422 104.188 89.5 104.148 89.2734C104.109 89.0469 104.078 88.7891 104.055 88.5C103.594 89 103.062 89.4258 102.461 89.7773C101.742 90.1914 100.93 90.3984 100.023 90.3984C98.8672 90.3984 97.9102 90.0703 97.1523 89.4141C96.4023 88.75 96.0273 87.8125 96.0273 86.6016C96.0273 85.0312 96.6328 83.8945 97.8438 83.1914C98.5078 82.8086 99.4844 82.5352 100.773 82.3711L101.91 82.2305C102.527 82.1523 102.969 82.0547 103.234 81.9375C103.711 81.7344 103.949 81.418 103.949 80.9883C103.949 80.4648 103.766 80.1055 103.398 79.9102C103.039 79.707 102.508 79.6055 101.805 79.6055C101.016 79.6055 100.457 79.8008 100.129 80.1914C99.8945 80.4805 99.7383 80.8711 99.6602 81.3633H96.4375C96.5078 80.2461 96.8203 79.3281 97.375 78.6094ZM99.8594 87.5859C100.172 87.8438 100.555 87.9727 101.008 87.9727C101.727 87.9727 102.387 87.7617 102.988 87.3398C103.598 86.918 103.914 86.1484 103.938 85.0312V83.7891C103.727 83.9219 103.512 84.0312 103.293 84.1172C103.082 84.1953 102.789 84.2695 102.414 84.3398L101.664 84.4805C100.961 84.6055 100.457 84.7578 100.152 84.9375C99.6367 85.2422 99.3789 85.7148 99.3789 86.3555C99.3789 86.9258 99.5391 87.3359 99.8594 87.5859ZM116.102 87.6211V90.1172L114.52 90.1758C112.941 90.2305 111.863 89.957 111.285 89.3555C110.91 88.9727 110.723 88.3828 110.723 87.5859V79.7227H108.941V77.3438H110.723V73.7812H114.027V77.3438H116.102V79.7227H114.027V86.4727C114.027 86.9961 114.094 87.3242 114.227 87.457C114.359 87.582 114.766 87.6445 115.445 87.6445C115.547 87.6445 115.652 87.6445 115.762 87.6445C115.879 87.6367 115.992 87.6289 116.102 87.6211ZM121.574 75.2578C121.574 76.4375 121.285 77.3672 120.707 78.0469C120.137 78.7266 119.332 79.168 118.293 79.3711V78.1406C119.059 77.8984 119.586 77.4883 119.875 76.9102C120.031 76.5664 120.098 76.2188 120.074 75.8672H118.234V72.7852H121.574V75.2578ZM132.836 77.8125C133.836 78.4531 134.41 79.5547 134.559 81.1172H131.219C131.172 80.6875 131.051 80.3477 130.855 80.0977C130.488 79.6445 129.863 79.418 128.98 79.418C128.254 79.418 127.734 79.5312 127.422 79.7578C127.117 79.9844 126.965 80.25 126.965 80.5547C126.965 80.9375 127.129 81.2148 127.457 81.3867C127.785 81.5664 128.945 81.875 130.938 82.3125C132.266 82.625 133.262 83.0977 133.926 83.7305C134.582 84.3711 134.91 85.1719 134.91 86.1328C134.91 87.3984 134.438 88.4336 133.492 89.2383C132.555 90.0352 131.102 90.4336 129.133 90.4336C127.125 90.4336 125.641 90.0117 124.68 89.168C123.727 88.3164 123.25 87.2344 123.25 85.9219H126.637C126.707 86.5156 126.859 86.9375 127.094 87.1875C127.508 87.6328 128.273 87.8555 129.391 87.8555C130.047 87.8555 130.566 87.7578 130.949 87.5625C131.34 87.3672 131.535 87.0742 131.535 86.6836C131.535 86.3086 131.379 86.0234 131.066 85.8281C130.754 85.6328 129.594 85.2969 127.586 84.8203C126.141 84.4609 125.121 84.0117 124.527 83.4727C123.934 82.9414 123.637 82.1758 123.637 81.1758C123.637 79.9961 124.098 78.9844 125.02 78.1406C125.949 77.2891 127.254 76.8633 128.934 76.8633C130.527 76.8633 131.828 77.1797 132.836 77.8125ZM158.312 90H154.703L147.648 77.7305V90H144.285V72.7266H148.07L154.949 84.7852V72.7266H158.312V90ZM172.352 86.25C172.266 87.0078 171.871 87.7773 171.168 88.5586C170.074 89.8008 168.543 90.4219 166.574 90.4219C164.949 90.4219 163.516 89.8984 162.273 88.8516C161.031 87.8047 160.41 86.1016 160.41 83.7422C160.41 81.5312 160.969 79.8359 162.086 78.6562C163.211 77.4766 164.668 76.8867 166.457 76.8867C167.52 76.8867 168.477 77.0859 169.328 77.4844C170.18 77.8828 170.883 78.5117 171.438 79.3711C171.938 80.1289 172.262 81.0078 172.41 82.0078C172.496 82.5938 172.531 83.4375 172.516 84.5391H163.773C163.82 85.8203 164.223 86.7188 164.98 87.2344C165.441 87.5547 165.996 87.7148 166.645 87.7148C167.332 87.7148 167.891 87.5195 168.32 87.1289C168.555 86.918 168.762 86.625 168.941 86.25H172.352ZM169.047 82.3359C168.992 81.4531 168.723 80.7852 168.238 80.332C167.762 79.8711 167.168 79.6406 166.457 79.6406C165.684 79.6406 165.082 79.8828 164.652 80.3672C164.23 80.8516 163.965 81.5078 163.855 82.3359H169.047ZM184.469 90L182.465 80.6953L180.438 90H176.969L173.383 77.2266H176.969L178.961 86.3906L180.801 77.2266H184.188L186.133 86.4258L188.125 77.2266H191.605L187.902 90H184.469Z" fill="#111111"/>
</g>
<rect x="58" y="59" width="134" height="8" fill="#6B61C4"/>
<defs>
<clipPath id="clip0_197_9371">
<rect width="251" height="59" fill="white"/>
</clipPath>
<clipPath id="clip1_197_9371">
<rect width="134" height="26" fill="white" transform="translate(58 67)"/>
</clipPath>
</defs>
</svg>
