<svg width="358" height="286" viewBox="0 0 358 286" fill="none" xmlns="http://www.w3.org/2000/svg">
<g clip-path="url(#clip0_12_50)">
<g clip-path="url(#clip1_12_50)">
<path d="M104.954 120.046C105.162 120.2 105.333 120.398 105.454 120.627C105.575 120.856 105.642 121.109 105.651 121.368C105.659 121.627 105.609 121.884 105.504 122.12C105.399 122.357 105.242 122.567 105.044 122.734L80.7336 147.044C80.5666 147.242 80.357 147.399 80.1204 147.504C79.8839 147.609 79.6266 147.659 79.368 147.651C79.1093 147.642 78.856 147.575 78.6271 147.454C78.3982 147.333 78.1996 147.162 78.0463 146.954C77.8385 146.799 77.6684 146.6 77.5487 146.371C77.429 146.141 77.3628 145.888 77.3552 145.629C77.3475 145.371 77.3986 145.114 77.5046 144.878C77.6105 144.642 77.7686 144.433 77.9669 144.266L102.266 119.967C102.433 119.769 102.641 119.611 102.878 119.505C103.114 119.399 103.371 119.348 103.629 119.355C103.888 119.363 104.141 119.429 104.371 119.549C104.6 119.668 104.799 119.839 104.954 120.046Z" fill="#FF7D00"/>
<path d="M104.954 146.954C104.8 147.162 104.602 147.333 104.373 147.454C104.144 147.575 103.891 147.642 103.632 147.651C103.373 147.659 103.116 147.609 102.88 147.504C102.643 147.399 102.433 147.242 102.266 147.044L77.9669 122.734C77.7686 122.567 77.6105 122.358 77.5046 122.122C77.3986 121.886 77.3475 121.629 77.3552 121.371C77.3628 121.112 77.429 120.859 77.5487 120.629C77.6684 120.4 77.8385 120.201 78.0463 120.046C78.2005 119.839 78.3998 119.668 78.6292 119.549C78.8586 119.429 79.1121 119.363 79.3707 119.355C79.6294 119.348 79.8864 119.399 80.1224 119.505C80.3585 119.611 80.5675 119.769 80.7336 119.967L105.044 144.266C105.242 144.433 105.399 144.643 105.504 144.88C105.609 145.116 105.659 145.373 105.651 145.632C105.642 145.891 105.575 146.144 105.454 146.373C105.333 146.602 105.162 146.8 104.954 146.954Z" fill="#FF7D00"/>
<path d="M97.2318 117.019C97.2318 120.885 94.6692 130.818 91.5056 130.818C88.3421 130.818 85.7681 120.885 85.7681 117.019C85.7681 113.152 88.3421 110 91.5056 110C94.6692 110 97.2318 113.141 97.2318 117.019Z" fill="#FF7D00"/>
<path d="M85.7681 149.993C85.7681 146.115 88.3421 136.182 91.5056 136.182C94.6692 136.182 97.2318 146.115 97.2318 149.993C97.2318 153.87 94.6692 157 91.5056 157C88.3421 157 85.7681 153.859 85.7681 149.993Z" fill="#FF7D00"/>
<path d="M107.992 139.232C104.115 139.232 94.1816 136.669 94.1816 133.506C94.1816 130.342 104.115 127.768 107.992 127.768C111.87 127.768 115 130.342 115 133.506C115 136.669 111.859 139.232 107.992 139.232Z" fill="#FF7D00"/>
<path d="M75.0188 127.768C78.8854 127.768 88.8183 130.342 88.8183 133.506C88.8183 136.669 78.8854 139.232 75.0188 139.232C71.1522 139.232 68 136.669 68 133.506C68 130.342 71.1409 127.768 75.0188 127.768Z" fill="#FF7D00"/>
</g>
<g clip-path="url(#clip2_12_50)">
<path d="M348.168 40.8322C348.372 40.9828 348.538 41.1777 348.656 41.4022C348.773 41.6267 348.838 41.875 348.845 42.1282C348.852 42.3814 348.802 42.633 348.698 42.8639C348.594 43.0949 348.438 43.2991 348.244 43.4612L324.461 67.2438C324.299 67.4385 324.095 67.5938 323.864 67.698C323.633 67.8022 323.381 67.8525 323.128 67.8452C322.875 67.8379 322.627 67.7731 322.402 67.6558C322.178 67.5384 321.983 67.3716 321.832 67.1678C321.63 67.0167 321.464 66.8221 321.347 66.5983C321.23 66.3746 321.165 66.1275 321.156 65.8752C321.147 65.6229 321.195 65.3718 321.297 65.1405C321.398 64.9092 321.55 64.7036 321.741 64.5388L345.539 40.741C345.704 40.5497 345.909 40.3979 346.14 40.2967C346.372 40.1955 346.623 40.1475 346.875 40.1563C347.127 40.165 347.375 40.2303 347.598 40.3473C347.822 40.4643 348.017 40.63 348.168 40.8322V40.8322Z" fill="#8F41C6"/>
<path d="M348.168 67.1678C348.015 67.3691 347.82 67.5336 347.596 67.6492C347.371 67.7649 347.124 67.8287 346.872 67.836C346.619 67.8433 346.368 67.7938 346.138 67.6914C345.907 67.5889 345.702 67.4359 345.539 67.2438L321.741 43.4612C321.55 43.2964 321.398 43.0908 321.297 42.8595C321.195 42.6282 321.147 42.3771 321.156 42.1248C321.165 41.8725 321.23 41.6254 321.347 41.4017C321.464 41.1779 321.63 40.9833 321.832 40.8322C321.983 40.63 322.178 40.4643 322.402 40.3473C322.625 40.2303 322.872 40.165 323.125 40.1563C323.377 40.1475 323.628 40.1955 323.859 40.2967C324.091 40.3979 324.296 40.5497 324.461 40.741L348.244 64.5388C348.436 64.7025 348.589 64.9072 348.691 65.1379C348.794 65.3685 348.843 65.6192 348.836 65.8715C348.829 66.1238 348.765 66.3713 348.649 66.5956C348.534 66.82 348.369 67.0155 348.168 67.1678V67.1678Z" fill="#8F41C6"/>
<path d="M340.6 37.8688C340.6 41.6528 338.093 51.3786 334.992 51.3786C331.892 51.3786 329.385 41.6376 329.385 37.8688C329.385 34.1001 331.908 31 334.992 31C338.077 31 340.6 34.0393 340.6 37.8688Z" fill="#8F41C6"/>
<path d="M329.385 70.1312C329.385 66.3472 331.908 56.6214 334.992 56.6214C338.077 56.6214 340.6 66.3472 340.6 70.1312C340.6 73.9151 338.093 77 334.992 77C331.892 77 329.385 73.9151 329.385 70.1312Z" fill="#8F41C6"/>
<path d="M351.131 59.5999C347.347 59.5999 337.621 57.0925 337.621 53.9924C337.621 50.8923 347.347 48.3849 351.131 48.3849C354.915 48.3849 358 50.9075 358 53.9924C358 57.0773 354.915 59.5999 351.131 59.5999Z" fill="#8F41C6"/>
<path d="M318.869 48.3849C322.653 48.3849 332.379 50.9075 332.379 53.9924C332.379 57.0773 322.638 59.5999 318.869 59.5999C315.1 59.5999 312 57.0925 312 53.9924C312 50.8923 315.039 48.3849 318.869 48.3849Z" fill="#8F41C6"/>
</g>
<g clip-path="url(#clip3_12_50)">
<path d="M234.794 21.2061C234.86 21.2552 234.915 21.3188 234.953 21.392C234.991 21.4652 235.012 21.5462 235.015 21.6288C235.017 21.7113 235.001 21.7934 234.967 21.8687C234.933 21.944 234.882 22.0106 234.819 22.0634L227.063 29.8186C227.011 29.8821 226.944 29.9328 226.869 29.9667C226.793 30.0007 226.711 30.0171 226.629 30.0147C226.546 30.0123 226.465 29.9912 226.392 29.953C226.319 29.9147 226.255 29.8603 226.206 29.7938C226.14 29.7446 226.086 29.6811 226.048 29.6081C226.01 29.5352 225.989 29.4546 225.986 29.3723C225.983 29.2901 225.999 29.2082 226.032 29.1328C226.065 29.0574 226.114 28.9903 226.176 28.9366L233.937 21.1764C233.99 21.114 234.057 21.0645 234.133 21.0315C234.208 20.9985 234.29 20.9829 234.372 20.9857C234.455 20.9886 234.535 21.0099 234.608 21.048C234.681 21.0862 234.745 21.1402 234.794 21.2061V21.2061Z" fill="#D50400"/>
<path d="M234.794 29.7938C234.744 29.8595 234.68 29.9131 234.607 29.9508C234.534 29.9885 234.453 30.0093 234.371 30.0117C234.289 30.0141 234.207 29.998 234.132 29.9646C234.057 29.9311 233.99 29.8813 233.937 29.8186L226.176 22.0634C226.114 22.0097 226.065 21.9426 226.032 21.8672C225.999 21.7918 225.983 21.7099 225.986 21.6277C225.989 21.5454 226.01 21.4648 226.048 21.3918C226.086 21.3189 226.14 21.2554 226.206 21.2061C226.255 21.1402 226.319 21.0862 226.392 21.048C226.465 21.0099 226.545 20.9886 226.628 20.9857C226.71 20.9829 226.792 20.9985 226.867 21.0315C226.943 21.0645 227.01 21.114 227.063 21.1764L234.819 28.9366C234.881 28.9899 234.931 29.0567 234.965 29.1319C234.998 29.2071 235.014 29.2889 235.012 29.3711C235.009 29.4534 234.989 29.5341 234.951 29.6073C234.913 29.6804 234.859 29.7442 234.794 29.7938V29.7938Z" fill="#D50400"/>
<path d="M232.326 20.2398C232.326 21.4737 231.508 24.6452 230.498 24.6452C229.487 24.6452 228.669 21.4688 228.669 20.2398C228.669 19.0109 229.492 18 230.498 18C231.503 18 232.326 18.9911 232.326 20.2398Z" fill="#D50400"/>
<path d="M228.669 30.7602C228.669 29.5263 229.492 26.3548 230.498 26.3548C231.503 26.3548 232.326 29.5263 232.326 30.7602C232.326 31.9941 231.508 33 230.498 33C229.487 33 228.669 31.9941 228.669 30.7602Z" fill="#D50400"/>
<path d="M235.76 27.3261C234.526 27.3261 231.355 26.5084 231.355 25.4975C231.355 24.4866 234.526 23.669 235.76 23.669C236.994 23.669 238 24.4916 238 25.4975C238 26.5035 236.994 27.3261 235.76 27.3261Z" fill="#D50400"/>
<path d="M225.24 23.669C226.474 23.669 229.645 24.4916 229.645 25.4975C229.645 26.5035 226.469 27.3261 225.24 27.3261C224.011 27.3261 223 26.5084 223 25.4975C223 24.4866 223.991 23.669 225.24 23.669Z" fill="#D50400"/>
</g>
<g clip-path="url(#clip4_12_50)">
<path d="M59.7251 270.275C59.8137 270.34 59.8863 270.425 59.9373 270.523C59.9883 270.62 60.0165 270.728 60.0196 270.838C60.0228 270.948 60.0009 271.058 59.9556 271.158C59.9103 271.259 59.8428 271.347 59.7582 271.418L49.4179 281.758C49.3474 281.843 49.2586 281.91 49.1582 281.956C49.0578 282.001 48.9484 282.023 48.8383 282.02C48.7282 282.016 48.6203 281.988 48.5227 281.937C48.4251 281.886 48.3403 281.814 48.2748 281.725C48.1869 281.659 48.1149 281.575 48.064 281.478C48.0132 281.38 47.9848 281.273 47.981 281.163C47.9772 281.053 47.998 280.944 48.042 280.844C48.086 280.743 48.1521 280.654 48.2352 280.582L58.5821 270.235C58.6537 270.152 58.7431 270.086 58.8437 270.042C58.9443 269.998 59.0534 269.977 59.1631 269.981C59.2728 269.985 59.3803 270.013 59.4775 270.064C59.5748 270.115 59.6594 270.187 59.7251 270.275V270.275Z" fill="#D50400"/>
<path d="M59.7251 281.725C59.6589 281.813 59.5739 281.884 59.4763 281.934C59.3788 281.985 59.2712 282.012 59.1615 282.016C59.0518 282.019 58.9428 281.997 58.8425 281.953C58.7423 281.908 58.6533 281.842 58.5821 281.758L48.2352 271.418C48.1521 271.346 48.086 271.257 48.042 271.156C47.998 271.056 47.9772 270.947 47.981 270.837C47.9848 270.727 48.0132 270.62 48.064 270.522C48.1149 270.425 48.1869 270.341 48.2748 270.275C48.3406 270.187 48.4252 270.115 48.5224 270.064C48.6197 270.013 48.7272 269.985 48.8369 269.981C48.9466 269.977 49.0557 269.998 49.1563 270.042C49.2568 270.086 49.3462 270.152 49.4179 270.235L59.7582 280.582C59.8417 280.653 59.9082 280.742 59.9528 280.843C59.9973 280.943 60.0188 281.052 60.0156 281.162C60.0125 281.271 59.9847 281.379 59.9344 281.476C59.8842 281.574 59.8126 281.659 59.7251 281.725V281.725Z" fill="#D50400"/>
<path d="M56.4348 268.986C56.4348 270.632 55.3446 274.86 53.9967 274.86C52.6488 274.86 51.5587 270.625 51.5587 268.986C51.5587 267.348 52.6555 266 53.9967 266C55.338 266 56.4348 267.321 56.4348 268.986Z" fill="#D50400"/>
<path d="M51.5587 283.014C51.5587 281.368 52.6555 277.14 53.9967 277.14C55.338 277.14 56.4348 281.368 56.4348 283.014C56.4348 284.659 55.3446 286 53.9967 286C52.6488 286 51.5587 284.659 51.5587 283.014Z" fill="#D50400"/>
<path d="M61.0136 278.435C59.3684 278.435 55.1398 277.345 55.1398 275.997C55.1398 274.649 59.3684 273.559 61.0136 273.559C62.6588 273.559 64 274.655 64 275.997C64 277.338 62.6588 278.435 61.0136 278.435Z" fill="#D50400"/>
<path d="M46.9865 273.559C48.6316 273.559 52.8603 274.655 52.8603 275.997C52.8603 277.338 48.625 278.435 46.9865 278.435C45.3479 278.435 44 277.345 44 275.997C44 274.649 45.3214 273.559 46.9865 273.559Z" fill="#D50400"/>
</g>
<g clip-path="url(#clip5_12_50)">
<path d="M132.344 64.6564C132.233 64.5746 132.142 64.4687 132.078 64.3466C132.015 64.2246 131.979 64.0897 131.975 63.9521C131.971 63.8144 131.999 63.6777 132.055 63.5522C132.112 63.4267 132.196 63.3157 132.302 63.2276L145.228 50.3023C145.316 50.1965 145.427 50.1121 145.552 50.0554C145.678 49.9988 145.814 49.9715 145.952 49.9754C146.09 49.9794 146.225 50.0146 146.347 50.0784C146.469 50.1422 146.575 50.2328 146.656 50.3436C146.766 50.4257 146.856 50.5315 146.92 50.6531C146.984 50.7747 147.019 50.909 147.024 51.0461C147.029 51.1832 147.002 51.3197 146.947 51.4454C146.892 51.5711 146.81 51.6828 146.706 51.7724L133.772 64.706C133.683 64.8099 133.571 64.8924 133.445 64.9474C133.32 65.0024 133.183 65.0285 133.046 65.0238C132.909 65.019 132.775 64.9835 132.653 64.92C132.532 64.8564 132.426 64.7663 132.344 64.6564V64.6564Z" fill="#8F41C6"/>
<path d="M132.344 50.3436C132.426 50.2342 132.533 50.1448 132.655 50.0819C132.777 50.0191 132.911 49.9844 133.048 49.9805C133.185 49.9765 133.321 50.0033 133.447 50.059C133.572 50.1147 133.683 50.1979 133.772 50.3023L146.706 63.2276C146.81 63.3172 146.892 63.4289 146.947 63.5546C147.002 63.6803 147.029 63.8168 147.024 63.9539C147.019 64.091 146.984 64.2253 146.92 64.3469C146.856 64.4685 146.766 64.5743 146.656 64.6564C146.574 64.7663 146.469 64.8564 146.347 64.92C146.225 64.9835 146.091 65.019 145.954 65.0238C145.817 65.0285 145.68 65.0024 145.555 64.9474C145.429 64.8924 145.317 64.8099 145.228 64.706L132.302 51.7724C132.198 51.6834 132.115 51.5722 132.059 51.4468C132.003 51.3214 131.977 51.1852 131.98 51.0481C131.984 50.911 132.019 50.7765 132.082 50.6546C132.145 50.5326 132.234 50.4264 132.344 50.3436V50.3436Z" fill="#8F41C6"/>
<path d="M136.457 66.2669C136.457 64.2104 137.819 58.9247 139.504 58.9247C141.189 58.9247 142.552 64.2187 142.552 66.2669C142.552 68.3152 141.181 70 139.504 70C137.828 70 136.457 68.3482 136.457 66.2669Z" fill="#8F41C6"/>
<path d="M142.552 48.7331C142.552 50.7896 141.181 56.0753 139.504 56.0753C137.828 56.0753 136.457 50.7896 136.457 48.7331C136.457 46.6766 137.819 45 139.504 45C141.189 45 142.552 46.6766 142.552 48.7331Z" fill="#8F41C6"/>
<path d="M130.733 54.4566C132.79 54.4566 138.075 55.8193 138.075 57.5041C138.075 59.189 132.79 60.5517 130.733 60.5517C128.677 60.5517 127 59.1807 127 57.5041C127 55.8275 128.677 54.4566 130.733 54.4566Z" fill="#8F41C6"/>
<path d="M148.267 60.5517C146.21 60.5517 140.925 59.1807 140.925 57.5041C140.925 55.8275 146.219 54.4566 148.267 54.4566C150.315 54.4566 152 55.8193 152 57.5041C152 59.189 150.348 60.5517 148.267 60.5517Z" fill="#8F41C6"/>
</g>
<g clip-path="url(#clip6_12_50)">
<path d="M26.5573 20.4427C26.4422 20.3576 26.3479 20.2474 26.2815 20.1205C26.2152 19.9936 26.1786 19.8533 26.1745 19.7101C26.1703 19.567 26.1988 19.4248 26.2577 19.2943C26.3166 19.1638 26.4043 19.0483 26.5144 18.9567L39.9567 5.51437C40.0484 5.40433 40.1638 5.31654 40.2943 5.25765C40.4248 5.19877 40.567 5.17032 40.7102 5.17445C40.8533 5.17859 40.9936 5.21521 41.1205 5.28153C41.2474 5.34786 41.3576 5.44217 41.4427 5.55732C41.557 5.64275 41.6507 5.75275 41.7168 5.8792C41.7829 6.00565 41.8198 6.14533 41.8247 6.28794C41.8297 6.43055 41.8026 6.57246 41.7454 6.70319C41.6882 6.83391 41.6023 6.95014 41.4942 7.04328L28.0433 20.4942C27.9502 20.6023 27.8339 20.6881 27.7032 20.7453C27.5725 20.8025 27.4306 20.8297 27.288 20.8247C27.1453 20.8198 27.0057 20.7829 26.8792 20.7168C26.7528 20.6506 26.6428 20.557 26.5573 20.4427V20.4427Z" fill="#D50400"/>
<path d="M26.5573 5.55732C26.6434 5.44357 26.754 5.35058 26.8808 5.28522C27.0076 5.21987 27.1474 5.1838 27.29 5.17968C27.4326 5.17556 27.5743 5.20349 27.7047 5.26141C27.8351 5.31934 27.9508 5.40578 28.0433 5.51437L41.4942 18.9567C41.6023 19.0499 41.6882 19.1661 41.7454 19.2968C41.8026 19.4276 41.8297 19.5695 41.8247 19.7121C41.8198 19.8547 41.7829 19.9944 41.7168 20.1208C41.6507 20.2473 41.557 20.3573 41.4427 20.4427C41.3573 20.557 41.2473 20.6506 41.1208 20.7168C40.9944 20.7829 40.8547 20.8198 40.7121 20.8247C40.5695 20.8297 40.4276 20.8025 40.2968 20.7453C40.1661 20.6881 40.0499 20.6023 39.9567 20.4942L26.5144 7.04328C26.4058 6.95076 26.3194 6.83505 26.2614 6.70468C26.2035 6.57431 26.1756 6.4326 26.1797 6.29C26.1838 6.14741 26.2199 6.00755 26.2852 5.88074C26.3506 5.75394 26.4436 5.64341 26.5573 5.55732V5.55732Z" fill="#D50400"/>
<path d="M30.8348 22.1176C30.8348 19.9789 32.2521 14.4817 34.0043 14.4817C35.7565 14.4817 37.1738 19.9874 37.1738 22.1176C37.1738 24.2478 35.7479 26 34.0043 26C32.2607 26 30.8348 24.2821 30.8348 22.1176Z" fill="#D50400"/>
<path d="M37.1738 3.8824C37.1738 6.02115 35.7479 11.5183 34.0043 11.5183C32.2607 11.5183 30.8348 6.02115 30.8348 3.8824C30.8348 1.74365 32.2521 6.44923e-06 34.0043 6.60242e-06C35.7565 6.7556e-06 37.1738 1.74365 37.1738 3.8824Z" fill="#D50400"/>
<path d="M24.8824 9.83482C27.0211 9.83482 32.5183 11.2521 32.5183 13.0043C32.5183 14.7565 27.0211 16.1738 24.8824 16.1738C22.7436 16.1738 21 14.7479 21 13.0043C21 11.2607 22.7436 9.83482 24.8824 9.83482Z" fill="#D50400"/>
<path d="M43.1176 16.1738C40.9789 16.1738 35.4817 14.7479 35.4817 13.0043C35.4817 11.2607 40.9874 9.83482 43.1176 9.83482C45.2478 9.83482 47 11.2521 47 13.0043C47 14.7565 45.2821 16.1738 43.1176 16.1738Z" fill="#D50400"/>
</g>
<g clip-path="url(#clip7_12_50)">
<path d="M16.2593 157.741C16.5645 157.968 16.8144 158.261 16.9901 158.598C17.1658 158.935 17.2628 159.308 17.2736 159.688C17.2845 160.068 17.2091 160.446 17.053 160.793C16.8969 161.139 16.6642 161.446 16.3725 161.69L-19.3098 197.372C-19.5538 197.662 -19.86 197.893 -20.2055 198.047C-20.5511 198.202 -20.9271 198.277 -21.3055 198.266C-21.6839 198.255 -22.055 198.159 -22.3911 197.984C-22.7272 197.81 -23.0196 197.562 -23.2466 197.259C-23.5526 197.033 -23.8035 196.741 -23.9803 196.404C-24.1571 196.068 -24.2553 195.695 -24.2674 195.315C-24.2795 194.935 -24.2053 194.557 -24.0502 194.21C-23.8952 193.862 -23.6634 193.555 -23.3723 193.31L12.3099 157.628C12.5538 157.336 12.8607 157.103 13.2075 156.947C13.5543 156.791 13.9319 156.716 14.312 156.726C14.6922 156.737 15.0649 156.834 15.4022 157.01C15.7394 157.186 16.0325 157.436 16.2593 157.741V157.741Z" fill="#FCEA00"/>
<path d="M16.2593 197.259C16.0325 197.564 15.7394 197.814 15.4022 197.99C15.0649 198.166 14.6922 198.263 14.312 198.274C13.9319 198.285 13.5543 198.209 13.2075 198.053C12.8607 197.897 12.5538 197.664 12.3099 197.372L-23.3723 161.69C-23.6634 161.445 -23.8952 161.138 -24.0502 160.79C-24.2053 160.443 -24.2795 160.065 -24.2674 159.685C-24.2553 159.305 -24.1571 158.932 -23.9803 158.596C-23.8035 158.259 -23.5526 157.967 -23.2466 157.741C-23.0196 157.438 -22.7272 157.19 -22.3911 157.016C-22.055 156.841 -21.6839 156.745 -21.3055 156.734C-20.9271 156.723 -20.5511 156.798 -20.2055 156.953C-19.86 157.107 -19.5538 157.338 -19.3098 157.628L16.3725 193.31C16.6642 193.554 16.8969 193.861 17.053 194.207C17.2091 194.554 17.2845 194.932 17.2736 195.312C17.2628 195.692 17.1658 196.065 16.9901 196.402C16.8144 196.739 16.5645 197.032 16.2593 197.259V197.259Z" fill="#FCEA00"/>
<path d="M4.91435 153.301C4.91435 158.986 1.14111 173.563 -3.49998 173.563C-8.14107 173.563 -11.9143 158.986 -11.9143 153.301C-11.9143 147.616 -8.14107 143 -3.49998 143C1.14111 143 4.91435 147.616 4.91435 153.301Z" fill="#FCEA00"/>
<path d="M-11.9143 201.699C-11.9143 196.014 -8.14107 181.437 -3.49998 181.437C1.14111 181.437 4.91435 196.014 4.91435 201.699C4.91435 207.384 1.14111 212 -3.49998 212C-8.14107 212 -11.9143 207.384 -11.9143 201.699Z" fill="#FCEA00"/>
<path d="M20.6991 185.914C15.0141 185.914 0.436768 182.141 0.436768 177.5C0.436768 172.859 15.0141 169.086 20.6991 169.086C26.3841 169.086 31 172.859 31 177.5C31 182.141 26.3841 185.914 20.6991 185.914Z" fill="#FCEA00"/>
</g>
</g>
<defs>
<clipPath id="clip0_12_50">
<rect width="358" height="286" fill="white"/>
</clipPath>
<clipPath id="clip1_12_50">
<rect width="47" height="47" fill="white" transform="translate(68 110)"/>
</clipPath>
<clipPath id="clip2_12_50">
<rect width="46" height="46" fill="white" transform="translate(312 31)"/>
</clipPath>
<clipPath id="clip3_12_50">
<rect width="15" height="15" fill="white" transform="translate(223 18)"/>
</clipPath>
<clipPath id="clip4_12_50">
<rect width="20" height="20" fill="white" transform="translate(44 266)"/>
</clipPath>
<clipPath id="clip5_12_50">
<rect width="25" height="25" fill="white" transform="translate(152 70) rotate(-180)"/>
</clipPath>
<clipPath id="clip6_12_50">
<rect width="26" height="26" fill="white" transform="translate(47 26) rotate(-180)"/>
</clipPath>
<clipPath id="clip7_12_50">
<rect width="69" height="69" fill="white" transform="translate(-38 143)"/>
</clipPath>
</defs>
</svg>
