<svg width="1920" height="1537" viewBox="0 0 1920 1537" fill="none" xmlns="http://www.w3.org/2000/svg">
<g clip-path="url(#clip0_203_15504)">
<g clip-path="url(#clip1_203_15504)">
<path d="M1929.27 1227.55H1012.3L1213.79 665.782H1929.27V1227.55Z" fill="url(#paint0_linear_203_15504)" stroke="#FCEA00" stroke-width="3.00952" stroke-miterlimit="10"/>
<path d="M1521.15 1227.55L1113.07 946.667L1521.15 665.782L1929.28 946.667L1521.15 1227.55Z" fill="#F753C3"/>
<path d="M1623.18 665.782H1521.15L1623.18 735.98V665.782Z" fill="#0080C8"/>
<path d="M1929.27 946.667V665.782H1827.24V876.422L1929.27 946.667Z" fill="#FF7D00"/>
<path d="M1419.12 735.98V665.782H1317.09V806.224L1419.12 735.98Z" fill="#F753C3"/>
<path d="M1725.21 1087.11V1227.55H1827.24V1016.86L1725.21 1087.11Z" fill="#FCEA00"/>
<path d="M1113.07 946.667L1012.3 1227.55H1113.07V946.667Z" fill="#F753C3"/>
<path d="M1113.07 946.667V1227.55H1215.06V1016.91L1113.07 946.667Z" fill="#00B8AE"/>
<path d="M1419.12 1227.55H1521.15L1419.12 1157.35V1227.55Z" fill="#8F41C6"/>
<path d="M1827.24 946.667H1929.27L1827.24 876.422V946.667Z" fill="#F753C3"/>
<path d="M1827.24 1016.86L1929.27 946.667H1827.24V1016.86Z" fill="#0080C8"/>
<path d="M1725.21 806.224L1623.18 735.98V946.667H1725.21V806.224Z" fill="#F753C3"/>
<path d="M1827.24 946.667V876.422L1725.21 806.224V946.667H1827.24Z" fill="#FF7D00"/>
<path d="M1623.18 946.667V1157.35L1725.21 1087.11V946.667H1623.18Z" fill="#00B8AE"/>
<path d="M1725.21 946.667V1087.11L1827.24 1016.86V946.667H1725.21Z" fill="#F753C3"/>
<path d="M1317.09 1087.11L1419.12 1157.35V946.667H1317.09V1087.11Z" fill="#F753C3"/>
<path d="M1215.05 946.667V1016.91L1317.09 1087.11V946.667H1215.05Z" fill="#FF7D00"/>
<path d="M1623.18 946.667H1521.15V1227.55L1623.18 1157.35V946.667Z" fill="#D50400"/>
<path d="M1419.12 946.667H1521.15V665.782L1419.12 735.98V946.667Z" fill="#F753C3"/>
<path d="M1113.07 946.667L1215.06 1016.91V946.667H1113.07Z" fill="#F753C3"/>
<path d="M1317.09 806.224V946.667H1419.12V735.98L1317.09 806.224Z" fill="#FCEA00"/>
<path d="M1419.12 946.667V1157.35L1521.15 1227.55V946.667H1419.12Z" fill="#F753C3"/>
<path d="M1623.18 946.667V735.98L1521.15 665.782V946.667H1623.18Z" fill="#F753C3"/>
<path d="M1317.09 946.667V806.224L1215.05 876.422V946.667H1317.09Z" fill="#F753C3"/>
<path d="M1215.06 876.422L1113.07 946.667H1215.06V876.422Z" fill="#F753C3"/>
<path d="M1929.27 1227.55H1012.3L1213.79 665.782H1929.27V1227.55Z" stroke="#FCEA00" stroke-width="3.00952" stroke-miterlimit="10"/>
<path d="M1521.15 1227.55L1113.07 946.667L1521.15 665.782L1929.28 946.667L1521.15 1227.55Z" stroke="#FCEA00" stroke-width="3.00952" stroke-miterlimit="10"/>
</g>
<g clip-path="url(#clip2_203_15504)">
<path d="M656.911 1058.46H2124.57L1802.07 161.86H656.911V1058.46Z" fill="url(#paint1_linear_203_15504)" stroke="#FCEA00" stroke-width="3.00952" stroke-miterlimit="10"/>
<path d="M1310.13 1058.46L1963.28 610.159L1310.13 161.86L656.911 610.159L1310.13 1058.46Z" fill="#F753C3"/>
<path d="M1146.83 161.86H1310.13L1146.83 273.897V161.86Z" fill="#0080C8"/>
<path d="M656.913 610.159V161.86H820.219V498.047L656.913 610.159Z" fill="#FF7D00"/>
<path d="M1473.44 273.897V161.86H1636.75V386.009L1473.44 273.897Z" fill="#F753C3"/>
<path d="M983.523 834.308V1058.46H820.217V722.196L983.523 834.308Z" fill="#FCEA00"/>
<path d="M1963.28 610.159V1058.46H1800.05V722.271L1963.28 610.159Z" fill="#00B8AE"/>
<path d="M1473.44 1058.46H1310.14L1473.44 946.421V1058.46Z" fill="#8F41C6"/>
<path d="M820.219 610.159H656.913L820.219 498.047V610.159Z" fill="#F753C3"/>
<path d="M820.219 722.196L656.913 610.159H820.219V722.196Z" fill="#0080C8"/>
<path d="M983.524 386.009L1146.83 273.897V610.159H983.524V386.009Z" fill="#F753C3"/>
<path d="M820.217 610.159V498.047L983.523 386.009V610.159H820.217Z" fill="#FF7D00"/>
<path d="M1146.83 610.159V946.421L983.524 834.308V610.159H1146.83Z" fill="#00B8AE"/>
<path d="M983.523 610.159V834.308L820.217 722.196V610.159H983.523Z" fill="#F753C3"/>
<path d="M1636.75 834.308L1473.44 946.421V610.159H1636.75V834.308Z" fill="#F753C3"/>
<path d="M1800.05 610.159V722.271L1636.75 834.308V610.159H1800.05Z" fill="#FF7D00"/>
<path d="M1146.83 610.159H1310.13V1058.46L1146.83 946.421V610.159Z" fill="#D50400"/>
<path d="M1473.44 610.159H1310.14V161.86L1473.44 273.897V610.159Z" fill="#F753C3"/>
<path d="M1963.28 610.159L1800.05 722.271V610.159H1963.28Z" fill="#F753C3"/>
<path d="M1636.75 386.009V610.159H1473.44V273.897L1636.75 386.009Z" fill="#FCEA00"/>
<path d="M1473.44 610.159V946.421L1310.14 1058.46V610.159H1473.44Z" fill="#F753C3"/>
<path d="M1146.83 610.159V273.897L1310.13 161.86V610.159H1146.83Z" fill="#F753C3"/>
<path d="M1636.75 610.159V386.009L1800.05 498.047V610.159H1636.75Z" fill="#F753C3"/>
<path d="M1800.05 498.047L1963.28 610.159H1800.05V498.047Z" fill="#F753C3"/>
<path d="M656.911 1058.46H2124.57L1802.07 161.86H656.911V1058.46Z" stroke="#FCEA00" stroke-width="3.00952" stroke-miterlimit="10"/>
<path d="M1310.13 1058.46L1963.28 610.159L1310.13 161.86L656.911 610.159L1310.13 1058.46Z" stroke="#FCEA00" stroke-width="3.00952" stroke-miterlimit="10"/>
</g>
<g clip-path="url(#clip3_203_15504)">
<path d="M-77.3933 1028.08L1456.93 1364.95V795.928L-153.845 459.063L-77.3933 1028.08Z" fill="url(#paint2_linear_203_15504)" stroke="#FCEA00" stroke-width="3.00952" stroke-miterlimit="10"/>
<path d="M-36.4684 1333.13L1313.27 1333.13L-77.3923 1028.08L-36.4684 1333.13Z" fill="#FCEA00" stroke="#FCEA00" stroke-width="3.00952" stroke-miterlimit="10"/>
<path d="M-65.1573 912.033L-65.1573 477.607L87.2656 509.482L87.2656 912.033H-65.1573Z" fill="url(#paint3_linear_203_15504)"/>
<path d="M87.2646 912.033L87.2646 509.482L239.688 541.357L239.688 912.033H87.2646Z" fill="#FCEA00"/>
<path d="M392.057 912.033V573.233L544.48 605.108V912.033H392.057Z" fill="#0080C8"/>
<path d="M544.48 912.033V605.108L696.85 636.983V912.033H544.48Z" fill="url(#paint4_linear_203_15504)"/>
<path d="M239.689 912.033L239.689 541.358L392.059 573.233L392.059 912.033H239.689Z" fill="url(#paint5_linear_203_15504)"/>
<path d="M392.057 1131.07V912.033H544.48V1164.51L392.057 1131.07Z" fill="url(#paint6_linear_203_15504)"/>
<path d="M239.689 1097.64L239.689 912.033H392.059V1131.07L239.689 1097.64Z" fill="url(#paint7_linear_203_15504)"/>
<path d="M696.85 912.033V636.983L849.273 668.858V912.033H696.85Z" fill="url(#paint8_linear_203_15504)"/>
<path d="M1001.69 1264.76V912.033H1154.06V1298.19L1001.69 1264.76Z" fill="#00B8AE"/>
<path d="M-65.1573 1030.77L-65.1573 912.033H87.2656L87.2656 1064.21L-65.1573 1030.77Z" fill="url(#paint9_linear_203_15504)"/>
<path d="M849.272 1231.32V912.033H1001.7V1264.76L849.272 1231.32Z" fill="url(#paint10_linear_203_15504)"/>
<path d="M544.48 1164.51V912.033H696.85V1197.94L544.48 1164.51Z" fill="url(#paint11_linear_203_15504)"/>
<path d="M696.85 1197.94V912.033H849.273V1231.32L696.85 1197.94Z" fill="#8F41C6"/>
<path d="M87.2646 1064.21L87.2646 912.033H239.688L239.688 1097.64L87.2646 1064.21Z" fill="url(#paint12_linear_203_15504)"/>
<path d="M849.272 912.033V668.858L1001.7 700.733V912.033H849.272Z" fill="#F753C3"/>
<path d="M1001.69 912.033V700.733L1154.06 732.608V912.033H1001.69Z" fill="url(#paint13_linear_203_15504)"/>
<path d="M1001.7 1265.02V1333.13H849.272V1231.59L1001.7 1265.02Z" fill="#FCEA00"/>
<path d="M696.85 1198.1V1333.13H544.48V1164.61L696.85 1198.1Z" fill="#00B8AE"/>
<path d="M1154.06 1298.46V1333.13H1001.69V1265.02L1154.06 1298.46Z" fill="#8F41C6"/>
<path d="M544.48 1164.61V1333.13H392.057V1131.18L544.48 1164.61Z" fill="#FCEA00"/>
<path d="M849.273 1231.59V1333.13H696.85V1198.1L849.273 1231.59Z" fill="#FCEA00"/>
<path d="M392.059 1131.18L392.059 1333.13H239.689L239.689 1097.69L392.059 1131.18Z" fill="#F753C3"/>
<path d="M87.2656 1064.26L87.2656 1333.13H-36.4679L-65.1573 1119.46V1030.77L87.2656 1064.26Z" fill="#FCEA00"/>
<path d="M239.688 1097.69L239.688 1333.13H87.2646L87.2646 1064.26L239.688 1097.69Z" fill="#0080C8"/>
<path d="M392.059 1131.07V1131.18L239.689 1097.69V1097.64L392.059 1131.07Z" fill="#FCEA00"/>
<path d="M239.688 1097.64V1097.69L87.2646 1064.26V1064.21L239.688 1097.64Z" fill="#FCEA00"/>
<path d="M1001.7 1264.76V1265.02L849.272 1231.59V1231.32L1001.7 1264.76Z" fill="#FCEA00"/>
<path d="M1154.06 1298.19V1298.46L1001.69 1265.02V1264.76L1154.06 1298.19Z" fill="#FCEA00"/>
<path d="M544.48 1164.51V1164.61L392.057 1131.18V1131.07L544.48 1164.51Z" fill="#FCEA00"/>
<path d="M696.85 1197.94V1198.1L544.48 1164.61V1164.51L696.85 1197.94Z" fill="#FCEA00"/>
<path d="M849.273 1231.32V1231.59L696.85 1198.1V1197.94L849.273 1231.32Z" fill="#FCEA00"/>
<path d="M-77.3933 1028.08L1456.93 1364.95V795.928L-153.845 459.063L-77.3933 1028.08Z" stroke="#FCEA00" stroke-width="3.00952" stroke-miterlimit="10"/>
<path d="M-36.4684 1333.13L1313.27 1333.13L-77.3923 1028.08L-36.4684 1333.13Z" stroke="#FCEA00" stroke-width="3.00952" stroke-miterlimit="10"/>
</g>
<g clip-path="url(#clip4_203_15504)">
<path d="M702.004 756.416H-390.641L-150.548 86.7579H702.004V756.416Z" fill="url(#paint14_linear_203_15504)" stroke="#FCEA00" stroke-width="3.00952" stroke-miterlimit="10"/>
<path d="M215.693 756.416L-270.564 421.587L215.693 86.7579L702.006 421.587L215.693 756.416Z" fill="#F753C3"/>
<path d="M337.27 86.7578H215.691L337.27 170.437V86.7578Z" fill="#0080C8"/>
<path d="M702.006 421.587V86.7579H580.428V337.852L702.006 421.587Z" fill="#FF7D00"/>
<path d="M94.1135 170.437V86.7578H-27.4648V254.172L94.1135 170.437Z" fill="#F753C3"/>
<path d="M458.848 589.002V756.417H580.426V505.267L458.848 589.002Z" fill="#FCEA00"/>
<path d="M94.1152 756.416H215.694L94.1152 672.737V756.416Z" fill="#8F41C6"/>
<path d="M580.428 421.587H702.006L580.428 337.852V421.587Z" fill="#F753C3"/>
<path d="M580.428 505.267L702.006 421.587H580.428V505.267Z" fill="#0080C8"/>
<path d="M458.85 254.173L337.271 170.437V421.587H458.85V254.173Z" fill="#F753C3"/>
<path d="M580.426 421.587V337.852L458.848 254.173V421.587H580.426Z" fill="#FF7D00"/>
<path d="M337.271 421.587V672.737L458.85 589.002V421.587H337.271Z" fill="#00B8AE"/>
<path d="M458.848 421.587V589.002L580.426 505.267V421.587H458.848Z" fill="#F753C3"/>
<path d="M-27.4648 589.002L94.1135 672.737V421.587H-27.4648V589.002Z" fill="#F753C3"/>
<path d="M337.27 421.587H215.691V756.417L337.27 672.737V421.587Z" fill="#D50400"/>
<path d="M94.1152 421.587H215.694V86.7579L94.1152 170.437V421.587Z" fill="#F753C3"/>
<path d="M-27.4648 254.173V421.588H94.1135V170.438L-27.4648 254.173Z" fill="#FCEA00"/>
<path d="M94.1152 421.587V672.737L215.694 756.417V421.587H94.1152Z" fill="#F753C3"/>
<path d="M337.27 421.587V170.437L215.691 86.7578V421.587H337.27Z" fill="#F753C3"/>
<path d="M702.004 756.416H-390.641L-150.548 86.7579H702.004V756.416Z" stroke="#FCEA00" stroke-width="3.00952" stroke-miterlimit="10"/>
<path d="M215.693 756.416L-270.564 421.587L215.693 86.7579L702.006 421.587L215.693 756.416Z" stroke="#FCEA00" stroke-width="3.00952" stroke-miterlimit="10"/>
</g>
<g clip-path="url(#clip5_203_15504)">
<path d="M856.779 573.635L281.953 700.093L281.953 486.485L885.421 360.027L856.779 573.635Z" fill="url(#paint15_linear_203_15504)" stroke="#FCEA00" stroke-width="2.22883" stroke-miterlimit="10"/>
<path d="M841.447 688.147H335.775L856.779 573.635L841.447 688.147Z" fill="#FCEA00" stroke="#FCEA00" stroke-width="2.22883" stroke-miterlimit="10"/>
<path d="M852.196 530.07V366.988L795.092 378.954V530.07H852.196Z" fill="url(#paint16_linear_203_15504)"/>
<path d="M862.621 530.07L885.419 360.027L852.193 366.988V530.07H862.621Z" fill="#FF7D00"/>
<path d="M852.193 574.644L856.777 573.635L862.621 530.07H852.193V574.644Z" fill="url(#paint17_linear_203_15504)"/>
<path d="M795.093 530.07V378.954L737.988 390.92V530.07H795.093Z" fill="#FCEA00"/>
<path d="M680.901 530.07V402.886L623.797 414.851V530.07H680.901Z" fill="#0080C8"/>
<path d="M623.799 530.07V414.851L566.715 426.817V530.07H623.799Z" fill="url(#paint18_linear_203_15504)"/>
<path d="M737.985 530.07V390.92L680.9 402.886V530.07H737.985Z" fill="url(#paint19_linear_203_15504)"/>
<path d="M680.901 612.297V530.07H623.797V624.848L680.901 612.297Z" fill="url(#paint20_linear_203_15504)"/>
<path d="M737.985 599.746V530.07H680.9V612.297L737.985 599.746Z" fill="url(#paint21_linear_203_15504)"/>
<path d="M566.714 530.07V426.817L509.609 438.783V530.07H566.714Z" fill="url(#paint22_linear_203_15504)"/>
<path d="M452.504 662.481V530.07H395.42V675.031L452.504 662.481Z" fill="#00B8AE"/>
<path d="M852.196 574.644V530.07H795.092V587.195L852.196 574.644Z" fill="url(#paint23_linear_203_15504)"/>
<path d="M509.608 649.93V530.07H452.504V662.481L509.608 649.93Z" fill="url(#paint24_linear_203_15504)"/>
<path d="M623.799 624.848V530.07H566.715V637.399L623.799 624.848Z" fill="url(#paint25_linear_203_15504)"/>
<path d="M566.714 637.399V530.07H509.609V649.93L566.714 637.399Z" fill="#8F41C6"/>
<path d="M795.093 587.195V530.07H737.988V599.746L795.093 587.195Z" fill="url(#paint26_linear_203_15504)"/>
<path d="M509.608 530.07V438.783L452.504 450.749V530.07H509.608Z" fill="#F753C3"/>
<path d="M452.504 530.07V450.749L395.42 462.714V530.07H452.504Z" fill="url(#paint27_linear_203_15504)"/>
<path d="M452.504 662.581V688.147H509.608V650.03L452.504 662.581Z" fill="#FCEA00"/>
<path d="M566.715 637.459V688.147H623.799V624.888L566.715 637.459Z" fill="#00B8AE"/>
<path d="M395.42 675.132V688.147H452.504V662.581L395.42 675.132Z" fill="#8F41C6"/>
<path d="M623.797 624.888V688.147H680.901V612.337L623.797 624.888Z" fill="#FCEA00"/>
<path d="M509.609 650.03V688.147H566.714V637.459L509.609 650.03Z" fill="#FCEA00"/>
<path d="M852.193 574.644V607.938L856.777 573.635L852.193 574.644Z" fill="#FCEA00"/>
<path d="M680.9 612.337V688.147H737.985V599.766L680.9 612.337Z" fill="#F753C3"/>
<path d="M795.092 587.215V688.147H841.448L852.196 607.938V574.644L795.092 587.215Z" fill="#FCEA00"/>
<path d="M737.988 599.766V688.147H795.093V587.215L737.988 599.766Z" fill="#0080C8"/>
<path d="M680.9 612.297V612.337L737.985 599.766V599.746L680.9 612.297Z" fill="#FCEA00"/>
<path d="M737.988 599.746V599.766L795.093 587.215V587.195L737.988 599.746Z" fill="#FCEA00"/>
<path d="M852.193 574.644L856.777 573.635L852.193 574.644Z" fill="#FCEA00"/>
<path d="M452.504 662.48V662.581L509.608 650.03V649.929L452.504 662.48Z" fill="#FCEA00"/>
<path d="M395.42 675.031V675.132L452.504 662.581V662.48L395.42 675.031Z" fill="#FCEA00"/>
<path d="M623.797 624.848V624.888L680.901 612.337V612.297L623.797 624.848Z" fill="#FCEA00"/>
<path d="M566.715 637.399V637.46L623.799 624.888V624.848L566.715 637.399Z" fill="#FCEA00"/>
<path d="M509.609 649.929V650.03L566.714 637.459V637.399L509.609 649.929Z" fill="#FCEA00"/>
<path d="M856.779 573.635L281.953 700.093L281.953 486.485L885.421 360.027L856.779 573.635Z" stroke="#FCEA00" stroke-width="2.22883" stroke-miterlimit="10"/>
<path d="M841.447 688.147H335.775L856.779 573.635L841.447 688.147Z" stroke="#FCEA00" stroke-width="2.22883" stroke-miterlimit="10"/>
</g>
<g clip-path="url(#clip6_203_15504)">
<path d="M1532.51 667.647H2612.7L2375.34 7.909H1532.51V667.647Z" fill="url(#paint28_linear_203_15504)" stroke="#FCEA00" stroke-width="3.00952" stroke-miterlimit="10"/>
<path d="M2013.28 667.647L2493.99 337.778L2013.28 7.909L1532.51 337.778L2013.28 667.647Z" fill="#F753C3"/>
<path d="M1893.09 7.909H2013.28L1893.09 90.3488V7.909Z" fill="#0080C8"/>
<path d="M1532.51 337.778V7.909H1652.71V255.283L1532.51 337.778Z" fill="#FF7D00"/>
<path d="M1772.9 502.712V667.647H1652.71V420.218L1772.9 502.712Z" fill="#FCEA00"/>
<path d="M1652.71 337.778H1532.51L1652.71 255.283V337.778Z" fill="#F753C3"/>
<path d="M1652.71 420.218L1532.51 337.778H1652.71V420.218Z" fill="#0080C8"/>
<path d="M1772.9 172.843L1893.09 90.3487V337.778H1772.9V172.843Z" fill="#F753C3"/>
<path d="M1652.71 337.778V255.283L1772.9 172.843V337.778H1652.71Z" fill="#FF7D00"/>
<path d="M1893.09 337.778V585.207L1772.9 502.712V337.778H1893.09Z" fill="#00B8AE"/>
<path d="M1772.9 337.778V502.712L1652.71 420.218V337.778H1772.9Z" fill="#F753C3"/>
<path d="M1893.09 337.778H2013.28V667.647L1893.09 585.207V337.778Z" fill="#D50400"/>
<path d="M1893.09 337.778V90.3487L2013.28 7.909V337.778H1893.09Z" fill="#F753C3"/>
<path d="M1532.51 667.647H2612.7L2375.34 7.909H1532.51V667.647Z" stroke="#FCEA00" stroke-width="3.00952" stroke-miterlimit="10"/>
<path d="M2013.28 667.647L2493.99 337.778L2013.28 7.909L1532.51 337.778L2013.28 667.647Z" stroke="#FCEA00" stroke-width="3.00952" stroke-miterlimit="10"/>
</g>
<path d="M-216.842 966.43L508.764 1128.26L508.764 854.899L-252.997 693.064L-216.842 966.43Z" fill="url(#paint29_linear_203_15504)" stroke="#FCEA00" stroke-width="3.00952" stroke-miterlimit="10"/>
<path d="M-197.486 1112.98H440.826L-216.84 966.43L-197.486 1112.98Z" fill="#FCEA00" stroke="#FCEA00" stroke-width="3.00952" stroke-miterlimit="10"/>
<path d="M5.16892 910.677L5.16892 747.913L77.252 763.226L77.252 910.677H5.16892Z" fill="#0080C8"/>
<path d="M77.2528 910.677L77.2528 763.226L149.311 778.539L149.311 910.677H77.2528Z" fill="url(#paint30_linear_203_15504)"/>
<path d="M365.534 910.677H437.617V1112.25L365.534 1096.19V910.677Z" fill="url(#paint31_linear_203_15504)"/>
<path d="M-66.8898 910.677L-66.8898 732.599L5.16797 747.913L5.16797 910.677H-66.8898Z" fill="url(#paint32_linear_203_15504)"/>
<path d="M5.16892 1015.91L5.16892 910.677H77.252L77.252 1031.97L5.16892 1015.91Z" fill="url(#paint33_linear_203_15504)"/>
<path d="M-66.8898 999.845L-66.8898 910.677H5.16797L5.16797 1015.91L-66.8898 999.845Z" fill="url(#paint34_linear_203_15504)"/>
<path d="M149.312 910.677V778.539L221.395 793.852L221.395 910.677H149.312Z" fill="url(#paint35_linear_203_15504)"/>
<path d="M293.475 1080.13V910.677H365.533V1096.19L293.475 1080.13Z" fill="#00B8AE"/>
<path d="M221.392 1064.07V910.677H293.475V1080.13L221.392 1064.07Z" fill="url(#paint36_linear_203_15504)"/>
<path d="M77.2528 1031.97L77.2528 910.677H149.311L149.311 1048.03L77.2528 1031.97Z" fill="url(#paint37_linear_203_15504)"/>
<path d="M149.312 1048.03V910.677H221.395L221.395 1064.07L149.312 1048.03Z" fill="#8F41C6"/>
<path d="M437.615 1112.25V910.677H508.764V1128.26L440.117 1112.98H440.824L437.615 1112.25Z" fill="url(#paint38_linear_203_15504)"/>
<path d="M221.392 910.677V793.852L293.475 809.166V910.677H221.392Z" fill="#F753C3"/>
<path d="M437.615 839.792L508.764 854.899V910.677H437.615V839.792Z" fill="#00B8AE"/>
<path d="M293.475 910.677V809.166L365.533 824.479V910.677H293.475Z" fill="url(#paint39_linear_203_15504)"/>
<path d="M365.534 910.677V824.479L437.617 839.792V910.677H365.534Z" fill="url(#paint40_linear_203_15504)"/>
<path d="M293.475 1080.26V1112.98H221.392V1064.2L293.475 1080.26Z" fill="#FCEA00"/>
<path d="M149.311 1048.11V1112.98H77.2528L77.2528 1032.02L149.311 1048.11Z" fill="#00B8AE"/>
<path d="M365.533 1096.32V1112.98H293.475V1080.26L365.533 1096.32Z" fill="#8F41C6"/>
<path d="M77.252 1032.02L77.252 1112.98H5.16892L5.16892 1015.96L77.252 1032.02Z" fill="#FCEA00"/>
<path d="M221.395 1064.2V1112.98H149.312V1048.11L221.395 1064.2Z" fill="#FCEA00"/>
<path d="M5.16797 1015.96L5.16797 1112.98H-66.8898L-66.8898 999.871L5.16797 1015.96Z" fill="#F753C3"/>
<path d="M440.115 1112.98H437.614V1112.41L440.115 1112.98Z" fill="#FCEA00"/>
<path d="M437.617 1112.41V1112.98H365.534V1096.32L437.617 1112.41Z" fill="#FCEA00"/>
<path d="M5.16797 1015.91V1015.96L-66.8898 999.872V999.846L5.16797 1015.91Z" fill="#FCEA00"/>
<path d="M293.475 1080.13V1080.26L221.392 1064.2V1064.07L293.475 1080.13Z" fill="#FCEA00"/>
<path d="M437.617 1112.25L440.826 1112.98H440.119L437.617 1112.41V1112.25Z" fill="#FCEA00"/>
<path d="M437.617 1112.25V1112.41L365.534 1096.32V1096.19L437.617 1112.25Z" fill="#FCEA00"/>
<path d="M365.533 1096.19V1096.32L293.475 1080.26V1080.13L365.533 1096.19Z" fill="#FCEA00"/>
<path d="M77.252 1031.97V1032.02L5.16892 1015.96V1015.91L77.252 1031.97Z" fill="#FCEA00"/>
<path d="M149.311 1048.03V1048.11L77.2528 1032.02V1031.97L149.311 1048.03Z" fill="#FCEA00"/>
<path d="M221.395 1064.07V1064.2L149.312 1048.11V1048.03L221.395 1064.07Z" fill="#FCEA00"/>
<path d="M-216.842 966.43L508.764 1128.27L508.764 854.899L-252.997 693.064L-216.842 966.43Z" stroke="#FCEA00" stroke-width="3.00952" stroke-miterlimit="10"/>
<path d="M-197.486 1112.98H440.826L-216.84 966.43L-197.486 1112.98Z" stroke="#FCEA00" stroke-width="3.00952" stroke-miterlimit="10"/>
<rect x="825.398" y="664.127" width="274.286" height="29.2063" fill="#FF7E00"/>
<rect x="878" y="1392" width="134" height="8" fill="#FF7E00"/>
<g clip-path="url(#clip7_203_15504)">
<rect width="384" height="59" transform="translate(753 1333)" fill="#FF50C8"/>
<path d="M778.344 1337.29V1342.86H790.12V1337.29H778.344ZM786.216 1351.56V1357.58H803.304V1351.56H786.216ZM775.208 1387.4V1393.61H813.928V1387.4H775.208ZM788.072 1337.29V1338.31C785.896 1347.14 779.624 1354.89 772.328 1358.34C773.672 1359.56 775.4 1361.93 776.232 1363.4C784.68 1358.86 791.464 1350.41 794.344 1338.63L790.248 1337.1L789.16 1337.29H788.072ZM799.144 1334.54L793.384 1336.01C796.776 1347.46 802.856 1357.06 811.752 1362.12C812.776 1360.39 814.76 1357.83 816.36 1356.55C808.04 1352.52 802.024 1344.01 799.144 1334.54ZM777.256 1347.98C779.432 1349.64 782.056 1352.07 783.272 1353.8L787.048 1349.13C785.768 1347.53 783.08 1345.22 780.904 1343.75L777.256 1347.98ZM782.376 1378.95C783.912 1381.83 785.192 1385.67 785.512 1388.17L792.04 1385.93C791.592 1383.43 790.248 1379.72 788.584 1376.97L782.376 1378.95ZM805.416 1335.18C803.88 1337.22 800.936 1340.23 798.952 1341.9L802.344 1345.16C804.52 1343.69 807.272 1341.51 810.088 1339.34L805.416 1335.18ZM809.96 1342.47C808.36 1344.39 805.288 1347.21 803.304 1348.81L806.76 1352.07C809 1350.66 811.944 1348.55 814.696 1346.44L809.96 1342.47ZM800.104 1376.71C799.528 1379.59 798.184 1383.56 797.032 1386.25L803.176 1387.85C804.392 1385.48 805.864 1381.96 807.464 1378.38L800.104 1376.71ZM786.984 1366.66H802.344V1371.34H786.984V1366.66ZM780.328 1360.9V1377.03H809.448V1360.9H780.328ZM763.688 1335.5V1357.38C763.688 1368.52 762.792 1380.49 754.664 1389.38C756.264 1390.54 758.568 1393.1 759.592 1394.63C769.32 1384.33 770.408 1370.5 770.408 1357.45V1335.5H763.688ZM757.032 1348.04C757.16 1353.61 756.328 1360.26 754.344 1363.91L759.4 1366.02C761.64 1361.61 762.344 1354.63 762.088 1348.68L757.032 1348.04ZM773.288 1343.88C772.2 1347.08 770.216 1351.62 768.552 1354.5L772.904 1356.55C774.76 1353.99 777.128 1349.9 779.432 1346.31L773.288 1343.88ZM768.936 1369.86L764.2 1373.38C766.568 1376.9 771.112 1384.2 773.096 1388.42L778.344 1383.11C776.936 1381.06 770.728 1371.91 768.936 1369.86ZM853.16 1363.91V1384.71C853.16 1392.14 854.952 1394.57 862.184 1394.57C863.528 1394.57 868.456 1394.57 869.864 1394.57C876.264 1394.57 878.184 1391.5 878.952 1380.3C876.968 1379.78 873.576 1378.44 871.976 1377.16C871.656 1385.93 871.336 1387.34 869.224 1387.34C868.072 1387.34 864.296 1387.34 863.336 1387.34C861.224 1387.34 860.904 1387.02 860.904 1384.71V1363.91H853.16ZM835.88 1364.23C835.048 1375.3 833.704 1383.56 818.472 1388.1C820.136 1389.7 822.312 1392.84 823.144 1394.82C840.424 1389.06 843.048 1378.25 844.072 1364.23H835.88ZM824.744 1339.98C827.56 1345.03 830.44 1351.69 831.336 1355.91L838.824 1352.9C837.736 1348.62 834.6 1342.22 831.656 1337.42L824.744 1339.98ZM866.152 1336.9C864.552 1342.02 861.416 1348.74 858.792 1352.97L865.512 1355.53C868.2 1351.56 871.528 1345.42 874.344 1339.72L866.152 1336.9ZM820.136 1358.15V1365.38H877.992V1358.15H820.136ZM844.84 1334.66V1361.1H852.648V1334.66H844.84ZM909.352 1364.55V1372.74H917.16V1364.55H909.352ZM908.136 1370.5C903.016 1375.05 892.712 1378.44 882.664 1379.98C884.008 1381.32 885.864 1383.82 886.76 1385.42C897.32 1383.5 907.88 1379.08 914.088 1373.06L908.136 1370.5ZM917.992 1370.63L911.528 1371.98C916.328 1384.39 924.584 1391.82 939.048 1394.95C939.88 1393.03 941.8 1390.22 943.336 1388.74C930.088 1386.5 921.768 1380.36 917.992 1370.63ZM934.12 1373.83C931.112 1376.26 925.992 1379.4 922.216 1381.26L926.824 1384.97C930.664 1383.3 935.656 1380.62 939.624 1377.86L934.12 1373.83ZM889.64 1387.66L890.6 1393.99C897.96 1393.03 908.136 1391.69 917.672 1390.34L917.416 1384.33C907.368 1385.61 896.68 1386.95 889.64 1387.66ZM883.816 1368.71V1374.47H942.184V1368.71H883.816ZM908.968 1342.6V1349H941.736V1342.6H908.968ZM910.568 1356.87V1363.27H940.328V1356.87H910.568ZM899.816 1334.66V1366.54H907.048V1334.66H899.816ZM921.448 1334.66V1360.78H929.064V1334.66H921.448ZM886.696 1335.43V1348.62H893.16V1335.43H886.696ZM889.96 1341.77V1347.59H903.464V1341.77H889.96ZM883.752 1351.11V1356.94H903.4V1351.11H883.752ZM888.488 1353.22C888.232 1357.96 887.4 1361.29 882.6 1363.34C884.008 1364.42 885.8 1366.79 886.504 1368.33C893.48 1365.32 895.016 1360.2 895.464 1353.22H888.488ZM897.576 1379.34V1390.02H904.872V1377.61L900.456 1376.46L897.576 1379.34ZM987.432 1342.22H994.92V1345.93H987.432V1342.22ZM973.16 1342.22H980.456V1345.93H973.16V1342.22ZM959.08 1342.22H966.184V1345.93H959.08V1342.22ZM951.72 1337.16V1351.11H1002.66V1337.16H951.72ZM948.84 1353.61V1359.24H1005.1V1353.61H948.84ZM955.304 1386.7V1392.58H1006.44V1386.7H955.304ZM952.168 1362.63V1394.82H959.976V1362.63H952.168ZM971.368 1371.85H993.064V1374.09H971.368V1371.85ZM971.368 1377.93H993.064V1380.23H971.368V1377.93ZM971.368 1365.83H993.064V1368.01H971.368V1365.83ZM964.264 1361.74V1384.26H1000.49V1361.74H964.264ZM973.736 1349.83C973.352 1354.5 972.648 1360.26 971.944 1364.04H979.368C980.072 1360.46 980.904 1354.95 981.416 1350.34L973.736 1349.83ZM1040.74 1342.34C1045.93 1350.66 1056.42 1359.62 1066.66 1364.81C1068.07 1362.44 1069.8 1359.82 1071.78 1357.77C1061.29 1353.74 1051.11 1345.29 1044.52 1334.47H1036.2C1031.78 1342.98 1021.8 1353.22 1010.41 1358.66C1012.07 1360.26 1014.25 1363.14 1015.21 1365.06C1025.96 1359.37 1035.75 1350.54 1040.74 1342.34ZM1047.85 1358.09V1394.76H1055.85V1358.09H1047.85ZM1025.77 1358.41V1366.15C1025.77 1373.58 1024.62 1382.6 1013.35 1389.32C1015.4 1390.54 1018.41 1393.1 1019.75 1394.76C1032.36 1386.89 1033.64 1375.43 1033.64 1366.34V1358.41H1025.77ZM1106.47 1385.16V1391.94H1128.55V1385.16H1106.47ZM1102.89 1367.5V1394.7H1109.93V1374.28H1124.84V1394.44H1132.26V1367.5H1102.89ZM1100.65 1337.67V1344.71H1129.96V1337.67H1100.65ZM1126.38 1337.67V1338.76C1126.12 1350.86 1125.74 1355.46 1124.78 1356.55C1124.26 1357.13 1123.62 1357.26 1122.73 1357.26C1121.51 1357.26 1118.89 1357.26 1116.2 1357C1117.42 1358.92 1118.25 1361.86 1118.44 1364.1C1121.58 1364.1 1124.52 1364.1 1126.25 1363.85C1128.3 1363.59 1129.7 1363.08 1131.05 1361.42C1132.65 1359.37 1133.1 1353.8 1133.42 1340.42C1133.48 1339.53 1133.54 1337.67 1133.54 1337.67H1126.38ZM1109.8 1340.55C1109.1 1348.81 1107.62 1355.85 1098.02 1360.01C1099.62 1361.29 1101.67 1363.98 1102.57 1365.77C1113.9 1360.39 1116.39 1351.37 1117.35 1340.55H1109.8ZM1084.52 1334.73C1083.05 1339.21 1080.3 1345.35 1077.99 1349.13L1083.11 1351.37C1085.61 1347.78 1088.55 1342.09 1091.18 1337.22L1084.52 1334.73ZM1091.88 1342.28C1088.55 1349.19 1082.66 1358.6 1077.93 1364.42L1082.34 1366.92C1087.21 1361.35 1093.48 1352.46 1098.09 1345.1L1091.88 1342.28ZM1074.66 1349.9C1077.93 1352.97 1081.83 1357.45 1083.37 1360.52L1087.34 1354.57C1085.67 1351.62 1081.7 1347.59 1078.31 1344.65L1074.66 1349.9ZM1089.96 1357.58C1092.39 1361.99 1094.57 1367.82 1095.27 1371.53L1100.71 1369.1C1099.94 1365.38 1097.51 1359.75 1095.02 1355.46L1089.96 1357.58ZM1074.6 1362.89L1075.24 1369.61C1081.45 1369.16 1089.64 1368.65 1097.51 1368.07L1097.58 1361.99C1089.13 1362.38 1080.49 1362.7 1074.6 1362.89ZM1091.37 1373.51C1092.78 1377.29 1094.44 1382.22 1095.08 1385.42L1100.71 1383.43C1100.01 1380.23 1098.34 1375.43 1096.74 1371.78L1091.37 1373.51ZM1077.35 1372.3C1076.84 1377.74 1075.82 1383.43 1073.96 1387.21C1075.56 1387.85 1078.44 1389.19 1079.78 1390.02C1081.64 1385.93 1083.05 1379.53 1083.69 1373.38L1077.35 1372.3ZM1084.52 1366.28V1394.82H1091.24V1366.28H1084.52Z" fill="#111111"/>
</g>
<g clip-path="url(#clip8_203_15504)">
<rect width="134" height="26" transform="translate(878 1400)" fill="#00B9AF"/>
<path d="M896.633 1405.73H900.301L895.438 1423H891.992L889.906 1412.9L889.297 1409.56L888.688 1412.9L886.602 1423H883.25L878.352 1405.73H882.184L884.469 1415.62L884.961 1418.37L885.465 1415.68L887.41 1405.73H891.219L893.27 1415.62L893.797 1418.37L894.324 1415.72L896.633 1405.73ZM913.766 1415.5V1423H910.355V1415.23C910.355 1414.54 910.238 1413.99 910.004 1413.57C909.699 1412.97 909.121 1412.68 908.27 1412.68C907.387 1412.68 906.715 1412.97 906.254 1413.57C905.801 1414.15 905.574 1414.99 905.574 1416.09V1423H902.246V1405.79H905.574V1411.89C906.059 1411.15 906.617 1410.63 907.25 1410.34C907.891 1410.05 908.562 1409.9 909.266 1409.9C910.055 1409.9 910.77 1410.04 911.41 1410.31C912.059 1410.58 912.59 1411 913.004 1411.56C913.355 1412.04 913.57 1412.53 913.648 1413.04C913.727 1413.54 913.766 1414.36 913.766 1415.5ZM917.375 1411.61C918.258 1410.48 919.773 1409.92 921.922 1409.92C923.32 1409.92 924.562 1410.2 925.648 1410.75C926.734 1411.31 927.277 1412.36 927.277 1413.89V1419.75C927.277 1420.16 927.285 1420.65 927.301 1421.23C927.324 1421.67 927.391 1421.96 927.5 1422.12C927.609 1422.28 927.773 1422.41 927.992 1422.51V1423H924.359C924.258 1422.74 924.188 1422.5 924.148 1422.27C924.109 1422.05 924.078 1421.79 924.055 1421.5C923.594 1422 923.062 1422.43 922.461 1422.78C921.742 1423.19 920.93 1423.4 920.023 1423.4C918.867 1423.4 917.91 1423.07 917.152 1422.41C916.402 1421.75 916.027 1420.81 916.027 1419.6C916.027 1418.03 916.633 1416.89 917.844 1416.19C918.508 1415.81 919.484 1415.54 920.773 1415.37L921.91 1415.23C922.527 1415.15 922.969 1415.05 923.234 1414.94C923.711 1414.73 923.949 1414.42 923.949 1413.99C923.949 1413.46 923.766 1413.11 923.398 1412.91C923.039 1412.71 922.508 1412.61 921.805 1412.61C921.016 1412.61 920.457 1412.8 920.129 1413.19C919.895 1413.48 919.738 1413.87 919.66 1414.36H916.438C916.508 1413.25 916.82 1412.33 917.375 1411.61ZM919.859 1420.59C920.172 1420.84 920.555 1420.97 921.008 1420.97C921.727 1420.97 922.387 1420.76 922.988 1420.34C923.598 1419.92 923.914 1419.15 923.938 1418.03V1416.79C923.727 1416.92 923.512 1417.03 923.293 1417.12C923.082 1417.2 922.789 1417.27 922.414 1417.34L921.664 1417.48C920.961 1417.61 920.457 1417.76 920.152 1417.94C919.637 1418.24 919.379 1418.71 919.379 1419.36C919.379 1419.93 919.539 1420.34 919.859 1420.59ZM936.102 1420.62V1423.12L934.52 1423.18C932.941 1423.23 931.863 1422.96 931.285 1422.36C930.91 1421.97 930.723 1421.38 930.723 1420.59V1412.72H928.941V1410.34H930.723V1406.78H934.027V1410.34H936.102V1412.72H934.027V1419.47C934.027 1420 934.094 1420.32 934.227 1420.46C934.359 1420.58 934.766 1420.64 935.445 1420.64C935.547 1420.64 935.652 1420.64 935.762 1420.64C935.879 1420.64 935.992 1420.63 936.102 1420.62ZM941.574 1408.26C941.574 1409.44 941.285 1410.37 940.707 1411.05C940.137 1411.73 939.332 1412.17 938.293 1412.37V1411.14C939.059 1410.9 939.586 1410.49 939.875 1409.91C940.031 1409.57 940.098 1409.22 940.074 1408.87H938.234V1405.79H941.574V1408.26ZM952.836 1410.81C953.836 1411.45 954.41 1412.55 954.559 1414.12H951.219C951.172 1413.69 951.051 1413.35 950.855 1413.1C950.488 1412.64 949.863 1412.42 948.98 1412.42C948.254 1412.42 947.734 1412.53 947.422 1412.76C947.117 1412.98 946.965 1413.25 946.965 1413.55C946.965 1413.94 947.129 1414.21 947.457 1414.39C947.785 1414.57 948.945 1414.88 950.938 1415.31C952.266 1415.62 953.262 1416.1 953.926 1416.73C954.582 1417.37 954.91 1418.17 954.91 1419.13C954.91 1420.4 954.438 1421.43 953.492 1422.24C952.555 1423.04 951.102 1423.43 949.133 1423.43C947.125 1423.43 945.641 1423.01 944.68 1422.17C943.727 1421.32 943.25 1420.23 943.25 1418.92H946.637C946.707 1419.52 946.859 1419.94 947.094 1420.19C947.508 1420.63 948.273 1420.86 949.391 1420.86C950.047 1420.86 950.566 1420.76 950.949 1420.56C951.34 1420.37 951.535 1420.07 951.535 1419.68C951.535 1419.31 951.379 1419.02 951.066 1418.83C950.754 1418.63 949.594 1418.3 947.586 1417.82C946.141 1417.46 945.121 1417.01 944.527 1416.47C943.934 1415.94 943.637 1415.18 943.637 1414.18C943.637 1413 944.098 1411.98 945.02 1411.14C945.949 1410.29 947.254 1409.86 948.934 1409.86C950.527 1409.86 951.828 1410.18 952.836 1410.81ZM978.312 1423H974.703L967.648 1410.73V1423H964.285V1405.73H968.07L974.949 1417.79V1405.73H978.312V1423ZM992.352 1419.25C992.266 1420.01 991.871 1420.78 991.168 1421.56C990.074 1422.8 988.543 1423.42 986.574 1423.42C984.949 1423.42 983.516 1422.9 982.273 1421.85C981.031 1420.8 980.41 1419.1 980.41 1416.74C980.41 1414.53 980.969 1412.84 982.086 1411.66C983.211 1410.48 984.668 1409.89 986.457 1409.89C987.52 1409.89 988.477 1410.09 989.328 1410.48C990.18 1410.88 990.883 1411.51 991.438 1412.37C991.938 1413.13 992.262 1414.01 992.41 1415.01C992.496 1415.59 992.531 1416.44 992.516 1417.54H983.773C983.82 1418.82 984.223 1419.72 984.98 1420.23C985.441 1420.55 985.996 1420.71 986.645 1420.71C987.332 1420.71 987.891 1420.52 988.32 1420.13C988.555 1419.92 988.762 1419.62 988.941 1419.25H992.352ZM989.047 1415.34C988.992 1414.45 988.723 1413.79 988.238 1413.33C987.762 1412.87 987.168 1412.64 986.457 1412.64C985.684 1412.64 985.082 1412.88 984.652 1413.37C984.23 1413.85 983.965 1414.51 983.855 1415.34H989.047ZM1004.47 1423L1002.46 1413.7L1000.44 1423H996.969L993.383 1410.23H996.969L998.961 1419.39L1000.8 1410.23H1004.19L1006.13 1419.43L1008.12 1410.23H1011.61L1007.9 1423H1004.47Z" fill="#111111"/>
</g>
</g>
<defs>
<linearGradient id="paint0_linear_203_15504" x1="1012.3" y1="946.667" x2="1929.27" y2="946.667" gradientUnits="userSpaceOnUse">
<stop offset="0.02" stop-color="#00B8AE" stop-opacity="0"/>
<stop offset="0.14" stop-color="#00B8AE"/>
<stop offset="0.19" stop-color="#00B8AE"/>
<stop offset="0.35" stop-color="#F753C3"/>
<stop offset="0.41" stop-color="#F753C3"/>
<stop offset="0.57" stop-color="#0080C8"/>
<stop offset="0.63" stop-color="#0080C8"/>
<stop offset="0.81" stop-color="#FCEA00"/>
<stop offset="0.88" stop-color="#FCEA00" stop-opacity="0.59"/>
<stop offset="0.96" stop-color="#FCEA00" stop-opacity="0.17"/>
<stop offset="0.99" stop-color="#FCEA00" stop-opacity="0"/>
</linearGradient>
<linearGradient id="paint1_linear_203_15504" x1="2124.57" y1="610.159" x2="656.911" y2="610.159" gradientUnits="userSpaceOnUse">
<stop offset="0.02" stop-color="#00B8AE" stop-opacity="0"/>
<stop offset="0.14" stop-color="#00B8AE"/>
<stop offset="0.19" stop-color="#00B8AE"/>
<stop offset="0.35" stop-color="#F753C3"/>
<stop offset="0.41" stop-color="#F753C3"/>
<stop offset="0.57" stop-color="#0080C8"/>
<stop offset="0.63" stop-color="#0080C8"/>
<stop offset="0.81" stop-color="#FCEA00"/>
<stop offset="0.88" stop-color="#FCEA00" stop-opacity="0.59"/>
<stop offset="0.96" stop-color="#FCEA00" stop-opacity="0.17"/>
<stop offset="0.99" stop-color="#FCEA00" stop-opacity="0"/>
</linearGradient>
<linearGradient id="paint2_linear_203_15504" x1="1456.93" y1="912.033" x2="-153.792" y2="912.033" gradientUnits="userSpaceOnUse">
<stop offset="0.02" stop-color="#00B8AE" stop-opacity="0"/>
<stop offset="0.14" stop-color="#00B8AE"/>
<stop offset="0.19" stop-color="#00B8AE"/>
<stop offset="0.35" stop-color="#F753C3"/>
<stop offset="0.41" stop-color="#F753C3"/>
<stop offset="0.57" stop-color="#0080C8"/>
<stop offset="0.63" stop-color="#0080C8"/>
<stop offset="0.81" stop-color="#FCEA00"/>
<stop offset="0.88" stop-color="#FCEA00" stop-opacity="0.59"/>
<stop offset="0.96" stop-color="#FCEA00" stop-opacity="0.17"/>
<stop offset="0.99" stop-color="#FCEA00" stop-opacity="0"/>
</linearGradient>
<linearGradient id="paint3_linear_203_15504" x1="1456.94" y1="694.82" x2="-153.79" y2="694.82" gradientUnits="userSpaceOnUse">
<stop offset="0.02" stop-color="#00B8AE" stop-opacity="0"/>
<stop offset="0.14" stop-color="#00B8AE"/>
<stop offset="0.19" stop-color="#00B8AE"/>
<stop offset="0.35" stop-color="#F753C3"/>
<stop offset="0.41" stop-color="#F753C3"/>
<stop offset="0.57" stop-color="#0080C8"/>
<stop offset="0.63" stop-color="#0080C8"/>
<stop offset="0.81" stop-color="#FCEA00"/>
<stop offset="0.88" stop-color="#FCEA00" stop-opacity="0.59"/>
<stop offset="0.96" stop-color="#FCEA00" stop-opacity="0.17"/>
<stop offset="0.99" stop-color="#FCEA00" stop-opacity="0"/>
</linearGradient>
<linearGradient id="paint4_linear_203_15504" x1="1456.93" y1="758.57" x2="-153.791" y2="758.57" gradientUnits="userSpaceOnUse">
<stop offset="0.02" stop-color="#00B8AE" stop-opacity="0"/>
<stop offset="0.14" stop-color="#00B8AE"/>
<stop offset="0.19" stop-color="#00B8AE"/>
<stop offset="0.35" stop-color="#F753C3"/>
<stop offset="0.41" stop-color="#F753C3"/>
<stop offset="0.57" stop-color="#0080C8"/>
<stop offset="0.63" stop-color="#0080C8"/>
<stop offset="0.81" stop-color="#FCEA00"/>
<stop offset="0.88" stop-color="#FCEA00" stop-opacity="0.59"/>
<stop offset="0.96" stop-color="#FCEA00" stop-opacity="0.17"/>
<stop offset="0.99" stop-color="#FCEA00" stop-opacity="0"/>
</linearGradient>
<linearGradient id="paint5_linear_203_15504" x1="1456.94" y1="726.695" x2="-153.79" y2="726.695" gradientUnits="userSpaceOnUse">
<stop offset="0.02" stop-color="#00B8AE" stop-opacity="0"/>
<stop offset="0.14" stop-color="#00B8AE"/>
<stop offset="0.19" stop-color="#00B8AE"/>
<stop offset="0.35" stop-color="#F753C3"/>
<stop offset="0.41" stop-color="#F753C3"/>
<stop offset="0.57" stop-color="#0080C8"/>
<stop offset="0.63" stop-color="#0080C8"/>
<stop offset="0.81" stop-color="#FCEA00"/>
<stop offset="0.88" stop-color="#FCEA00" stop-opacity="0.59"/>
<stop offset="0.96" stop-color="#FCEA00" stop-opacity="0.17"/>
<stop offset="0.99" stop-color="#FCEA00" stop-opacity="0"/>
</linearGradient>
<linearGradient id="paint6_linear_203_15504" x1="1456.93" y1="1038.24" x2="-153.791" y2="1038.24" gradientUnits="userSpaceOnUse">
<stop offset="0.02" stop-color="#00B8AE" stop-opacity="0"/>
<stop offset="0.14" stop-color="#00B8AE"/>
<stop offset="0.19" stop-color="#00B8AE"/>
<stop offset="0.35" stop-color="#F753C3"/>
<stop offset="0.41" stop-color="#F753C3"/>
<stop offset="0.57" stop-color="#0080C8"/>
<stop offset="0.63" stop-color="#0080C8"/>
<stop offset="0.81" stop-color="#FCEA00"/>
<stop offset="0.88" stop-color="#FCEA00" stop-opacity="0.59"/>
<stop offset="0.96" stop-color="#FCEA00" stop-opacity="0.17"/>
<stop offset="0.99" stop-color="#FCEA00" stop-opacity="0"/>
</linearGradient>
<linearGradient id="paint7_linear_203_15504" x1="1456.94" y1="1021.53" x2="-153.79" y2="1021.53" gradientUnits="userSpaceOnUse">
<stop offset="0.02" stop-color="#00B8AE" stop-opacity="0"/>
<stop offset="0.14" stop-color="#00B8AE"/>
<stop offset="0.19" stop-color="#00B8AE"/>
<stop offset="0.35" stop-color="#F753C3"/>
<stop offset="0.41" stop-color="#F753C3"/>
<stop offset="0.57" stop-color="#0080C8"/>
<stop offset="0.63" stop-color="#0080C8"/>
<stop offset="0.81" stop-color="#FCEA00"/>
<stop offset="0.88" stop-color="#FCEA00" stop-opacity="0.59"/>
<stop offset="0.96" stop-color="#FCEA00" stop-opacity="0.17"/>
<stop offset="0.99" stop-color="#FCEA00" stop-opacity="0"/>
</linearGradient>
<linearGradient id="paint8_linear_203_15504" x1="1456.94" y1="774.481" x2="-153.79" y2="774.481" gradientUnits="userSpaceOnUse">
<stop offset="0.02" stop-color="#00B8AE" stop-opacity="0"/>
<stop offset="0.14" stop-color="#00B8AE"/>
<stop offset="0.19" stop-color="#00B8AE"/>
<stop offset="0.35" stop-color="#F753C3"/>
<stop offset="0.41" stop-color="#F753C3"/>
<stop offset="0.57" stop-color="#0080C8"/>
<stop offset="0.63" stop-color="#0080C8"/>
<stop offset="0.81" stop-color="#FCEA00"/>
<stop offset="0.88" stop-color="#FCEA00" stop-opacity="0.59"/>
<stop offset="0.96" stop-color="#FCEA00" stop-opacity="0.17"/>
<stop offset="0.99" stop-color="#FCEA00" stop-opacity="0"/>
</linearGradient>
<linearGradient id="paint9_linear_203_15504" x1="1456.94" y1="988.146" x2="-153.79" y2="988.146" gradientUnits="userSpaceOnUse">
<stop offset="0.02" stop-color="#00B8AE" stop-opacity="0"/>
<stop offset="0.14" stop-color="#00B8AE"/>
<stop offset="0.19" stop-color="#00B8AE"/>
<stop offset="0.35" stop-color="#F753C3"/>
<stop offset="0.41" stop-color="#F753C3"/>
<stop offset="0.57" stop-color="#0080C8"/>
<stop offset="0.63" stop-color="#0080C8"/>
<stop offset="0.81" stop-color="#FCEA00"/>
<stop offset="0.88" stop-color="#FCEA00" stop-opacity="0.59"/>
<stop offset="0.96" stop-color="#FCEA00" stop-opacity="0.17"/>
<stop offset="0.99" stop-color="#FCEA00" stop-opacity="0"/>
</linearGradient>
<linearGradient id="paint10_linear_203_15504" x1="1456.93" y1="1088.39" x2="-153.792" y2="1088.39" gradientUnits="userSpaceOnUse">
<stop offset="0.02" stop-color="#00B8AE" stop-opacity="0"/>
<stop offset="0.14" stop-color="#00B8AE"/>
<stop offset="0.19" stop-color="#00B8AE"/>
<stop offset="0.35" stop-color="#F753C3"/>
<stop offset="0.41" stop-color="#F753C3"/>
<stop offset="0.57" stop-color="#0080C8"/>
<stop offset="0.63" stop-color="#0080C8"/>
<stop offset="0.81" stop-color="#FCEA00"/>
<stop offset="0.88" stop-color="#FCEA00" stop-opacity="0.59"/>
<stop offset="0.96" stop-color="#FCEA00" stop-opacity="0.17"/>
<stop offset="0.99" stop-color="#FCEA00" stop-opacity="0"/>
</linearGradient>
<linearGradient id="paint11_linear_203_15504" x1="1456.93" y1="1054.96" x2="-153.791" y2="1054.96" gradientUnits="userSpaceOnUse">
<stop offset="0.02" stop-color="#00B8AE" stop-opacity="0"/>
<stop offset="0.14" stop-color="#00B8AE"/>
<stop offset="0.19" stop-color="#00B8AE"/>
<stop offset="0.35" stop-color="#F753C3"/>
<stop offset="0.41" stop-color="#F753C3"/>
<stop offset="0.57" stop-color="#0080C8"/>
<stop offset="0.63" stop-color="#0080C8"/>
<stop offset="0.81" stop-color="#FCEA00"/>
<stop offset="0.88" stop-color="#FCEA00" stop-opacity="0.59"/>
<stop offset="0.96" stop-color="#FCEA00" stop-opacity="0.17"/>
<stop offset="0.99" stop-color="#FCEA00" stop-opacity="0"/>
</linearGradient>
<linearGradient id="paint12_linear_203_15504" x1="1456.88" y1="1004.81" x2="-153.791" y2="1004.81" gradientUnits="userSpaceOnUse">
<stop offset="0.02" stop-color="#00B8AE" stop-opacity="0"/>
<stop offset="0.14" stop-color="#00B8AE"/>
<stop offset="0.19" stop-color="#00B8AE"/>
<stop offset="0.35" stop-color="#F753C3"/>
<stop offset="0.41" stop-color="#F753C3"/>
<stop offset="0.57" stop-color="#0080C8"/>
<stop offset="0.63" stop-color="#0080C8"/>
<stop offset="0.81" stop-color="#FCEA00"/>
<stop offset="0.88" stop-color="#FCEA00" stop-opacity="0.59"/>
<stop offset="0.96" stop-color="#FCEA00" stop-opacity="0.17"/>
<stop offset="0.99" stop-color="#FCEA00" stop-opacity="0"/>
</linearGradient>
<linearGradient id="paint13_linear_203_15504" x1="1456.93" y1="806.356" x2="-153.792" y2="806.356" gradientUnits="userSpaceOnUse">
<stop offset="0.02" stop-color="#00B8AE" stop-opacity="0"/>
<stop offset="0.14" stop-color="#00B8AE"/>
<stop offset="0.19" stop-color="#00B8AE"/>
<stop offset="0.35" stop-color="#F753C3"/>
<stop offset="0.41" stop-color="#F753C3"/>
<stop offset="0.57" stop-color="#0080C8"/>
<stop offset="0.63" stop-color="#0080C8"/>
<stop offset="0.81" stop-color="#FCEA00"/>
<stop offset="0.88" stop-color="#FCEA00" stop-opacity="0.59"/>
<stop offset="0.96" stop-color="#FCEA00" stop-opacity="0.17"/>
<stop offset="0.99" stop-color="#FCEA00" stop-opacity="0"/>
</linearGradient>
<linearGradient id="paint14_linear_203_15504" x1="-390.641" y1="421.587" x2="702.004" y2="421.587" gradientUnits="userSpaceOnUse">
<stop offset="0.02" stop-color="#00B8AE" stop-opacity="0"/>
<stop offset="0.14" stop-color="#00B8AE"/>
<stop offset="0.19" stop-color="#00B8AE"/>
<stop offset="0.35" stop-color="#F753C3"/>
<stop offset="0.41" stop-color="#F753C3"/>
<stop offset="0.57" stop-color="#0080C8"/>
<stop offset="0.63" stop-color="#0080C8"/>
<stop offset="0.81" stop-color="#FCEA00"/>
<stop offset="0.88" stop-color="#FCEA00" stop-opacity="0.59"/>
<stop offset="0.96" stop-color="#FCEA00" stop-opacity="0.17"/>
<stop offset="0.99" stop-color="#FCEA00" stop-opacity="0"/>
</linearGradient>
<linearGradient id="paint15_linear_203_15504" x1="281.953" y1="530.07" x2="885.401" y2="530.07" gradientUnits="userSpaceOnUse">
<stop offset="0.02" stop-color="#00B8AE" stop-opacity="0"/>
<stop offset="0.14" stop-color="#00B8AE"/>
<stop offset="0.19" stop-color="#00B8AE"/>
<stop offset="0.35" stop-color="#F753C3"/>
<stop offset="0.41" stop-color="#F753C3"/>
<stop offset="0.57" stop-color="#0080C8"/>
<stop offset="0.63" stop-color="#0080C8"/>
<stop offset="0.81" stop-color="#FCEA00"/>
<stop offset="0.88" stop-color="#FCEA00" stop-opacity="0.59"/>
<stop offset="0.96" stop-color="#FCEA00" stop-opacity="0.17"/>
<stop offset="0.99" stop-color="#FCEA00" stop-opacity="0"/>
</linearGradient>
<linearGradient id="paint16_linear_203_15504" x1="281.954" y1="448.529" x2="885.402" y2="448.529" gradientUnits="userSpaceOnUse">
<stop offset="0.02" stop-color="#00B8AE" stop-opacity="0"/>
<stop offset="0.14" stop-color="#00B8AE"/>
<stop offset="0.19" stop-color="#00B8AE"/>
<stop offset="0.35" stop-color="#F753C3"/>
<stop offset="0.41" stop-color="#F753C3"/>
<stop offset="0.57" stop-color="#0080C8"/>
<stop offset="0.63" stop-color="#0080C8"/>
<stop offset="0.81" stop-color="#FCEA00"/>
<stop offset="0.88" stop-color="#FCEA00" stop-opacity="0.59"/>
<stop offset="0.96" stop-color="#FCEA00" stop-opacity="0.17"/>
<stop offset="0.99" stop-color="#FCEA00" stop-opacity="0"/>
</linearGradient>
<linearGradient id="paint17_linear_203_15504" x1="281.949" y1="552.367" x2="885.399" y2="552.367" gradientUnits="userSpaceOnUse">
<stop offset="0.02" stop-color="#00B8AE" stop-opacity="0"/>
<stop offset="0.14" stop-color="#00B8AE"/>
<stop offset="0.19" stop-color="#00B8AE"/>
<stop offset="0.35" stop-color="#F753C3"/>
<stop offset="0.41" stop-color="#F753C3"/>
<stop offset="0.57" stop-color="#0080C8"/>
<stop offset="0.63" stop-color="#0080C8"/>
<stop offset="0.81" stop-color="#FCEA00"/>
<stop offset="0.88" stop-color="#FCEA00" stop-opacity="0.59"/>
<stop offset="0.96" stop-color="#FCEA00" stop-opacity="0.17"/>
<stop offset="0.99" stop-color="#FCEA00" stop-opacity="0"/>
</linearGradient>
<linearGradient id="paint18_linear_203_15504" x1="281.954" y1="472.461" x2="885.402" y2="472.461" gradientUnits="userSpaceOnUse">
<stop offset="0.02" stop-color="#00B8AE" stop-opacity="0"/>
<stop offset="0.14" stop-color="#00B8AE"/>
<stop offset="0.19" stop-color="#00B8AE"/>
<stop offset="0.35" stop-color="#F753C3"/>
<stop offset="0.41" stop-color="#F753C3"/>
<stop offset="0.57" stop-color="#0080C8"/>
<stop offset="0.63" stop-color="#0080C8"/>
<stop offset="0.81" stop-color="#FCEA00"/>
<stop offset="0.88" stop-color="#FCEA00" stop-opacity="0.59"/>
<stop offset="0.96" stop-color="#FCEA00" stop-opacity="0.17"/>
<stop offset="0.99" stop-color="#FCEA00" stop-opacity="0"/>
</linearGradient>
<linearGradient id="paint19_linear_203_15504" x1="281.951" y1="460.495" x2="885.399" y2="460.495" gradientUnits="userSpaceOnUse">
<stop offset="0.02" stop-color="#00B8AE" stop-opacity="0"/>
<stop offset="0.14" stop-color="#00B8AE"/>
<stop offset="0.19" stop-color="#00B8AE"/>
<stop offset="0.35" stop-color="#F753C3"/>
<stop offset="0.41" stop-color="#F753C3"/>
<stop offset="0.57" stop-color="#0080C8"/>
<stop offset="0.63" stop-color="#0080C8"/>
<stop offset="0.81" stop-color="#FCEA00"/>
<stop offset="0.88" stop-color="#FCEA00" stop-opacity="0.59"/>
<stop offset="0.96" stop-color="#FCEA00" stop-opacity="0.17"/>
<stop offset="0.99" stop-color="#FCEA00" stop-opacity="0"/>
</linearGradient>
<linearGradient id="paint20_linear_203_15504" x1="281.952" y1="577.449" x2="885.4" y2="577.449" gradientUnits="userSpaceOnUse">
<stop offset="0.02" stop-color="#00B8AE" stop-opacity="0"/>
<stop offset="0.14" stop-color="#00B8AE"/>
<stop offset="0.19" stop-color="#00B8AE"/>
<stop offset="0.35" stop-color="#F753C3"/>
<stop offset="0.41" stop-color="#F753C3"/>
<stop offset="0.57" stop-color="#0080C8"/>
<stop offset="0.63" stop-color="#0080C8"/>
<stop offset="0.81" stop-color="#FCEA00"/>
<stop offset="0.88" stop-color="#FCEA00" stop-opacity="0.59"/>
<stop offset="0.96" stop-color="#FCEA00" stop-opacity="0.17"/>
<stop offset="0.99" stop-color="#FCEA00" stop-opacity="0"/>
</linearGradient>
<linearGradient id="paint21_linear_203_15504" x1="281.951" y1="571.173" x2="885.399" y2="571.173" gradientUnits="userSpaceOnUse">
<stop offset="0.02" stop-color="#00B8AE" stop-opacity="0"/>
<stop offset="0.14" stop-color="#00B8AE"/>
<stop offset="0.19" stop-color="#00B8AE"/>
<stop offset="0.35" stop-color="#F753C3"/>
<stop offset="0.41" stop-color="#F753C3"/>
<stop offset="0.57" stop-color="#0080C8"/>
<stop offset="0.63" stop-color="#0080C8"/>
<stop offset="0.81" stop-color="#FCEA00"/>
<stop offset="0.88" stop-color="#FCEA00" stop-opacity="0.59"/>
<stop offset="0.96" stop-color="#FCEA00" stop-opacity="0.17"/>
<stop offset="0.99" stop-color="#FCEA00" stop-opacity="0"/>
</linearGradient>
<linearGradient id="paint22_linear_203_15504" x1="281.953" y1="478.433" x2="885.401" y2="478.433" gradientUnits="userSpaceOnUse">
<stop offset="0.02" stop-color="#00B8AE" stop-opacity="0"/>
<stop offset="0.14" stop-color="#00B8AE"/>
<stop offset="0.19" stop-color="#00B8AE"/>
<stop offset="0.35" stop-color="#F753C3"/>
<stop offset="0.41" stop-color="#F753C3"/>
<stop offset="0.57" stop-color="#0080C8"/>
<stop offset="0.63" stop-color="#0080C8"/>
<stop offset="0.81" stop-color="#FCEA00"/>
<stop offset="0.88" stop-color="#FCEA00" stop-opacity="0.59"/>
<stop offset="0.96" stop-color="#FCEA00" stop-opacity="0.17"/>
<stop offset="0.99" stop-color="#FCEA00" stop-opacity="0"/>
</linearGradient>
<linearGradient id="paint23_linear_203_15504" x1="281.954" y1="558.643" x2="885.402" y2="558.643" gradientUnits="userSpaceOnUse">
<stop offset="0.02" stop-color="#00B8AE" stop-opacity="0"/>
<stop offset="0.14" stop-color="#00B8AE"/>
<stop offset="0.19" stop-color="#00B8AE"/>
<stop offset="0.35" stop-color="#F753C3"/>
<stop offset="0.41" stop-color="#F753C3"/>
<stop offset="0.57" stop-color="#0080C8"/>
<stop offset="0.63" stop-color="#0080C8"/>
<stop offset="0.81" stop-color="#FCEA00"/>
<stop offset="0.88" stop-color="#FCEA00" stop-opacity="0.59"/>
<stop offset="0.96" stop-color="#FCEA00" stop-opacity="0.17"/>
<stop offset="0.99" stop-color="#FCEA00" stop-opacity="0"/>
</linearGradient>
<linearGradient id="paint24_linear_203_15504" x1="281.952" y1="596.275" x2="885.4" y2="596.275" gradientUnits="userSpaceOnUse">
<stop offset="0.02" stop-color="#00B8AE" stop-opacity="0"/>
<stop offset="0.14" stop-color="#00B8AE"/>
<stop offset="0.19" stop-color="#00B8AE"/>
<stop offset="0.35" stop-color="#F753C3"/>
<stop offset="0.41" stop-color="#F753C3"/>
<stop offset="0.57" stop-color="#0080C8"/>
<stop offset="0.63" stop-color="#0080C8"/>
<stop offset="0.81" stop-color="#FCEA00"/>
<stop offset="0.88" stop-color="#FCEA00" stop-opacity="0.59"/>
<stop offset="0.96" stop-color="#FCEA00" stop-opacity="0.17"/>
<stop offset="0.99" stop-color="#FCEA00" stop-opacity="0"/>
</linearGradient>
<linearGradient id="paint25_linear_203_15504" x1="281.954" y1="583.724" x2="885.402" y2="583.724" gradientUnits="userSpaceOnUse">
<stop offset="0.02" stop-color="#00B8AE" stop-opacity="0"/>
<stop offset="0.14" stop-color="#00B8AE"/>
<stop offset="0.19" stop-color="#00B8AE"/>
<stop offset="0.35" stop-color="#F753C3"/>
<stop offset="0.41" stop-color="#F753C3"/>
<stop offset="0.57" stop-color="#0080C8"/>
<stop offset="0.63" stop-color="#0080C8"/>
<stop offset="0.81" stop-color="#FCEA00"/>
<stop offset="0.88" stop-color="#FCEA00" stop-opacity="0.59"/>
<stop offset="0.96" stop-color="#FCEA00" stop-opacity="0.17"/>
<stop offset="0.99" stop-color="#FCEA00" stop-opacity="0"/>
</linearGradient>
<linearGradient id="paint26_linear_203_15504" x1="281.975" y1="564.898" x2="885.402" y2="564.898" gradientUnits="userSpaceOnUse">
<stop offset="0.02" stop-color="#00B8AE" stop-opacity="0"/>
<stop offset="0.14" stop-color="#00B8AE"/>
<stop offset="0.19" stop-color="#00B8AE"/>
<stop offset="0.35" stop-color="#F753C3"/>
<stop offset="0.41" stop-color="#F753C3"/>
<stop offset="0.57" stop-color="#0080C8"/>
<stop offset="0.63" stop-color="#0080C8"/>
<stop offset="0.81" stop-color="#FCEA00"/>
<stop offset="0.88" stop-color="#FCEA00" stop-opacity="0.59"/>
<stop offset="0.96" stop-color="#FCEA00" stop-opacity="0.17"/>
<stop offset="0.99" stop-color="#FCEA00" stop-opacity="0"/>
</linearGradient>
<linearGradient id="paint27_linear_203_15504" x1="281.952" y1="490.399" x2="885.4" y2="490.399" gradientUnits="userSpaceOnUse">
<stop offset="0.02" stop-color="#00B8AE" stop-opacity="0"/>
<stop offset="0.14" stop-color="#00B8AE"/>
<stop offset="0.19" stop-color="#00B8AE"/>
<stop offset="0.35" stop-color="#F753C3"/>
<stop offset="0.41" stop-color="#F753C3"/>
<stop offset="0.57" stop-color="#0080C8"/>
<stop offset="0.63" stop-color="#0080C8"/>
<stop offset="0.81" stop-color="#FCEA00"/>
<stop offset="0.88" stop-color="#FCEA00" stop-opacity="0.59"/>
<stop offset="0.96" stop-color="#FCEA00" stop-opacity="0.17"/>
<stop offset="0.99" stop-color="#FCEA00" stop-opacity="0"/>
</linearGradient>
<linearGradient id="paint28_linear_203_15504" x1="2612.7" y1="337.778" x2="1532.51" y2="337.778" gradientUnits="userSpaceOnUse">
<stop offset="0.02" stop-color="#00B8AE" stop-opacity="0"/>
<stop offset="0.14" stop-color="#00B8AE"/>
<stop offset="0.19" stop-color="#00B8AE"/>
<stop offset="0.35" stop-color="#F753C3"/>
<stop offset="0.41" stop-color="#F753C3"/>
<stop offset="0.57" stop-color="#0080C8"/>
<stop offset="0.63" stop-color="#0080C8"/>
<stop offset="0.81" stop-color="#FCEA00"/>
<stop offset="0.88" stop-color="#FCEA00" stop-opacity="0.59"/>
<stop offset="0.96" stop-color="#FCEA00" stop-opacity="0.17"/>
<stop offset="0.99" stop-color="#FCEA00" stop-opacity="0"/>
</linearGradient>
<linearGradient id="paint29_linear_203_15504" x1="508.764" y1="910.677" x2="-252.972" y2="910.677" gradientUnits="userSpaceOnUse">
<stop offset="0.02" stop-color="#00B8AE" stop-opacity="0"/>
<stop offset="0.14" stop-color="#00B8AE"/>
<stop offset="0.19" stop-color="#00B8AE"/>
<stop offset="0.35" stop-color="#F753C3"/>
<stop offset="0.41" stop-color="#F753C3"/>
<stop offset="0.57" stop-color="#0080C8"/>
<stop offset="0.63" stop-color="#0080C8"/>
<stop offset="0.81" stop-color="#FCEA00"/>
<stop offset="0.88" stop-color="#FCEA00" stop-opacity="0.59"/>
<stop offset="0.96" stop-color="#FCEA00" stop-opacity="0.17"/>
<stop offset="0.99" stop-color="#FCEA00" stop-opacity="0"/>
</linearGradient>
<linearGradient id="paint30_linear_203_15504" x1="508.766" y1="836.952" x2="-252.97" y2="836.952" gradientUnits="userSpaceOnUse">
<stop offset="0.02" stop-color="#00B8AE" stop-opacity="0"/>
<stop offset="0.14" stop-color="#00B8AE"/>
<stop offset="0.19" stop-color="#00B8AE"/>
<stop offset="0.35" stop-color="#F753C3"/>
<stop offset="0.41" stop-color="#F753C3"/>
<stop offset="0.57" stop-color="#0080C8"/>
<stop offset="0.63" stop-color="#0080C8"/>
<stop offset="0.81" stop-color="#FCEA00"/>
<stop offset="0.88" stop-color="#FCEA00" stop-opacity="0.59"/>
<stop offset="0.96" stop-color="#FCEA00" stop-opacity="0.17"/>
<stop offset="0.99" stop-color="#FCEA00" stop-opacity="0"/>
</linearGradient>
<linearGradient id="paint31_linear_203_15504" x1="508.765" y1="1011.47" x2="-252.97" y2="1011.47" gradientUnits="userSpaceOnUse">
<stop offset="0.02" stop-color="#00B8AE" stop-opacity="0"/>
<stop offset="0.14" stop-color="#00B8AE"/>
<stop offset="0.19" stop-color="#00B8AE"/>
<stop offset="0.35" stop-color="#F753C3"/>
<stop offset="0.41" stop-color="#F753C3"/>
<stop offset="0.57" stop-color="#0080C8"/>
<stop offset="0.63" stop-color="#0080C8"/>
<stop offset="0.81" stop-color="#FCEA00"/>
<stop offset="0.88" stop-color="#FCEA00" stop-opacity="0.59"/>
<stop offset="0.96" stop-color="#FCEA00" stop-opacity="0.17"/>
<stop offset="0.99" stop-color="#FCEA00" stop-opacity="0"/>
</linearGradient>
<linearGradient id="paint32_linear_203_15504" x1="508.764" y1="821.638" x2="-252.972" y2="821.638" gradientUnits="userSpaceOnUse">
<stop offset="0.02" stop-color="#00B8AE" stop-opacity="0"/>
<stop offset="0.14" stop-color="#00B8AE"/>
<stop offset="0.19" stop-color="#00B8AE"/>
<stop offset="0.35" stop-color="#F753C3"/>
<stop offset="0.41" stop-color="#F753C3"/>
<stop offset="0.57" stop-color="#0080C8"/>
<stop offset="0.63" stop-color="#0080C8"/>
<stop offset="0.81" stop-color="#FCEA00"/>
<stop offset="0.88" stop-color="#FCEA00" stop-opacity="0.59"/>
<stop offset="0.96" stop-color="#FCEA00" stop-opacity="0.17"/>
<stop offset="0.99" stop-color="#FCEA00" stop-opacity="0"/>
</linearGradient>
<linearGradient id="paint33_linear_203_15504" x1="508.765" y1="971.311" x2="-252.971" y2="971.311" gradientUnits="userSpaceOnUse">
<stop offset="0.02" stop-color="#00B8AE" stop-opacity="0"/>
<stop offset="0.14" stop-color="#00B8AE"/>
<stop offset="0.19" stop-color="#00B8AE"/>
<stop offset="0.35" stop-color="#F753C3"/>
<stop offset="0.41" stop-color="#F753C3"/>
<stop offset="0.57" stop-color="#0080C8"/>
<stop offset="0.63" stop-color="#0080C8"/>
<stop offset="0.81" stop-color="#FCEA00"/>
<stop offset="0.88" stop-color="#FCEA00" stop-opacity="0.59"/>
<stop offset="0.96" stop-color="#FCEA00" stop-opacity="0.17"/>
<stop offset="0.99" stop-color="#FCEA00" stop-opacity="0"/>
</linearGradient>
<linearGradient id="paint34_linear_203_15504" x1="508.764" y1="963.279" x2="-252.972" y2="963.279" gradientUnits="userSpaceOnUse">
<stop offset="0.02" stop-color="#00B8AE" stop-opacity="0"/>
<stop offset="0.14" stop-color="#00B8AE"/>
<stop offset="0.19" stop-color="#00B8AE"/>
<stop offset="0.35" stop-color="#F753C3"/>
<stop offset="0.41" stop-color="#F753C3"/>
<stop offset="0.57" stop-color="#0080C8"/>
<stop offset="0.63" stop-color="#0080C8"/>
<stop offset="0.81" stop-color="#FCEA00"/>
<stop offset="0.88" stop-color="#FCEA00" stop-opacity="0.59"/>
<stop offset="0.96" stop-color="#FCEA00" stop-opacity="0.17"/>
<stop offset="0.99" stop-color="#FCEA00" stop-opacity="0"/>
</linearGradient>
<linearGradient id="paint35_linear_203_15504" x1="508.767" y1="844.595" x2="-252.969" y2="844.595" gradientUnits="userSpaceOnUse">
<stop offset="0.02" stop-color="#00B8AE" stop-opacity="0"/>
<stop offset="0.14" stop-color="#00B8AE"/>
<stop offset="0.19" stop-color="#00B8AE"/>
<stop offset="0.35" stop-color="#F753C3"/>
<stop offset="0.41" stop-color="#F753C3"/>
<stop offset="0.57" stop-color="#0080C8"/>
<stop offset="0.63" stop-color="#0080C8"/>
<stop offset="0.81" stop-color="#FCEA00"/>
<stop offset="0.88" stop-color="#FCEA00" stop-opacity="0.59"/>
<stop offset="0.96" stop-color="#FCEA00" stop-opacity="0.17"/>
<stop offset="0.99" stop-color="#FCEA00" stop-opacity="0"/>
</linearGradient>
<linearGradient id="paint36_linear_203_15504" x1="508.764" y1="995.404" x2="-252.972" y2="995.404" gradientUnits="userSpaceOnUse">
<stop offset="0.02" stop-color="#00B8AE" stop-opacity="0"/>
<stop offset="0.14" stop-color="#00B8AE"/>
<stop offset="0.19" stop-color="#00B8AE"/>
<stop offset="0.35" stop-color="#F753C3"/>
<stop offset="0.41" stop-color="#F753C3"/>
<stop offset="0.57" stop-color="#0080C8"/>
<stop offset="0.63" stop-color="#0080C8"/>
<stop offset="0.81" stop-color="#FCEA00"/>
<stop offset="0.88" stop-color="#FCEA00" stop-opacity="0.59"/>
<stop offset="0.96" stop-color="#FCEA00" stop-opacity="0.17"/>
<stop offset="0.99" stop-color="#FCEA00" stop-opacity="0"/>
</linearGradient>
<linearGradient id="paint37_linear_203_15504" x1="508.766" y1="979.342" x2="-252.97" y2="979.342" gradientUnits="userSpaceOnUse">
<stop offset="0.02" stop-color="#00B8AE" stop-opacity="0"/>
<stop offset="0.14" stop-color="#00B8AE"/>
<stop offset="0.19" stop-color="#00B8AE"/>
<stop offset="0.35" stop-color="#F753C3"/>
<stop offset="0.41" stop-color="#F753C3"/>
<stop offset="0.57" stop-color="#0080C8"/>
<stop offset="0.63" stop-color="#0080C8"/>
<stop offset="0.81" stop-color="#FCEA00"/>
<stop offset="0.88" stop-color="#FCEA00" stop-opacity="0.59"/>
<stop offset="0.96" stop-color="#FCEA00" stop-opacity="0.17"/>
<stop offset="0.99" stop-color="#FCEA00" stop-opacity="0"/>
</linearGradient>
<linearGradient id="paint38_linear_203_15504" x1="508.764" y1="1019.47" x2="-252.997" y2="1019.47" gradientUnits="userSpaceOnUse">
<stop offset="0.02" stop-color="#00B8AE" stop-opacity="0"/>
<stop offset="0.14" stop-color="#00B8AE"/>
<stop offset="0.19" stop-color="#00B8AE"/>
<stop offset="0.35" stop-color="#F753C3"/>
<stop offset="0.41" stop-color="#F753C3"/>
<stop offset="0.57" stop-color="#0080C8"/>
<stop offset="0.63" stop-color="#0080C8"/>
<stop offset="0.81" stop-color="#FCEA00"/>
<stop offset="0.88" stop-color="#FCEA00" stop-opacity="0.59"/>
<stop offset="0.96" stop-color="#FCEA00" stop-opacity="0.17"/>
<stop offset="0.99" stop-color="#FCEA00" stop-opacity="0"/>
</linearGradient>
<linearGradient id="paint39_linear_203_15504" x1="508.764" y1="859.908" x2="-252.971" y2="859.908" gradientUnits="userSpaceOnUse">
<stop offset="0.02" stop-color="#00B8AE" stop-opacity="0"/>
<stop offset="0.14" stop-color="#00B8AE"/>
<stop offset="0.19" stop-color="#00B8AE"/>
<stop offset="0.35" stop-color="#F753C3"/>
<stop offset="0.41" stop-color="#F753C3"/>
<stop offset="0.57" stop-color="#0080C8"/>
<stop offset="0.63" stop-color="#0080C8"/>
<stop offset="0.81" stop-color="#FCEA00"/>
<stop offset="0.88" stop-color="#FCEA00" stop-opacity="0.59"/>
<stop offset="0.96" stop-color="#FCEA00" stop-opacity="0.17"/>
<stop offset="0.99" stop-color="#FCEA00" stop-opacity="0"/>
</linearGradient>
<linearGradient id="paint40_linear_203_15504" x1="508.765" y1="867.578" x2="-252.97" y2="867.578" gradientUnits="userSpaceOnUse">
<stop offset="0.02" stop-color="#00B8AE" stop-opacity="0"/>
<stop offset="0.14" stop-color="#00B8AE"/>
<stop offset="0.19" stop-color="#00B8AE"/>
<stop offset="0.35" stop-color="#F753C3"/>
<stop offset="0.41" stop-color="#F753C3"/>
<stop offset="0.57" stop-color="#0080C8"/>
<stop offset="0.63" stop-color="#0080C8"/>
<stop offset="0.81" stop-color="#FCEA00"/>
<stop offset="0.88" stop-color="#FCEA00" stop-opacity="0.59"/>
<stop offset="0.96" stop-color="#FCEA00" stop-opacity="0.17"/>
<stop offset="0.99" stop-color="#FCEA00" stop-opacity="0"/>
</linearGradient>
<clipPath id="clip0_203_15504">
<rect width="1920" height="1536.6" fill="white"/>
</clipPath>
<clipPath id="clip1_203_15504">
<rect width="934.603" height="575.238" fill="white" transform="translate(1004.45 659.048)"/>
</clipPath>
<clipPath id="clip2_203_15504">
<rect width="1495.87" height="918.095" fill="white" transform="matrix(-1 0 0 1 2137.14 151.111)"/>
</clipPath>
<clipPath id="clip3_203_15504">
<rect width="1297.78" height="921.905" fill="white" transform="matrix(-1 0 0 1 1136.51 451)"/>
</clipPath>
<clipPath id="clip4_203_15504">
<rect width="1113.65" height="685.714" fill="white" transform="translate(-400 78.7301)"/>
</clipPath>
<clipPath id="clip5_203_15504">
<rect width="486.204" height="346.079" fill="white" transform="translate(402 357)"/>
</clipPath>
<clipPath id="clip6_203_15504">
<rect width="1100.95" height="675.556" fill="white" transform="matrix(-1 0 0 1 2621.95 0)"/>
</clipPath>
<clipPath id="clip7_203_15504">
<rect width="384" height="59" fill="white" transform="translate(753 1333)"/>
</clipPath>
<clipPath id="clip8_203_15504">
<rect width="134" height="26" fill="white" transform="translate(878 1400)"/>
</clipPath>
</defs>
</svg>
