<svg width="1920" height="1537" viewBox="0 0 1920 1537" fill="none" xmlns="http://www.w3.org/2000/svg">
<rect x="882" y="1397" width="134" height="8" fill="#FF7E00"/>
<g clip-path="url(#clip0_44_478)">
<rect width="384" height="59" transform="translate(757 1338)" fill="#FF50C8"/>
<path d="M772.68 1382.35C769.416 1386.51 763.784 1390.93 758.536 1393.62C760.584 1394.83 763.912 1397.39 765.512 1398.93C770.504 1395.66 776.712 1390.35 780.68 1385.36L772.68 1382.35ZM796.552 1386.38C801.8 1389.97 808.392 1395.28 811.336 1398.74L818.312 1393.81C814.92 1390.29 808.072 1385.3 803.016 1382.03L796.552 1386.38ZM764.616 1360.02C770.12 1363.34 776.904 1368.46 780.04 1372.05L785.8 1366.48C782.344 1362.9 775.24 1358.1 769.928 1355.09L764.616 1360.02ZM797.896 1367.95C803.144 1372.62 809.608 1379.28 812.424 1383.63L819.336 1379.09C816.136 1374.67 809.416 1368.34 804.168 1363.98L797.896 1367.95ZM784.712 1376.66V1399.76H792.904V1376.66H784.712ZM759.88 1373.14L760.648 1380.82C773.704 1380.5 793.224 1379.92 811.4 1379.09L811.784 1372.18C793.352 1372.56 772.872 1373.01 759.88 1373.14ZM798.088 1350.86C791.304 1358.74 780.232 1368.4 771.464 1374.22L777.544 1378.19C786.184 1372.43 797.256 1363.34 805.576 1354.83L798.088 1350.86ZM781.896 1346.45C779.08 1350.74 774.216 1356.18 770.44 1359.5L776.712 1362.9C780.488 1359.76 785.416 1354.77 789.448 1350.1L781.896 1346.45ZM808.648 1340.24C797.192 1342.61 778.376 1343.89 761.864 1344.21C762.568 1346 763.464 1349.14 763.656 1351.12C780.296 1350.93 799.88 1349.65 814.088 1346.77L808.648 1340.24ZM857.992 1346.83V1382.16H865.544V1346.83H857.992ZM872.904 1340.88V1390.61C872.904 1391.76 872.456 1392.14 871.24 1392.14C870.024 1392.14 865.992 1392.21 862.152 1392.08C863.24 1394.19 864.328 1397.58 864.712 1399.76C870.472 1399.76 874.44 1399.5 877.128 1398.29C879.624 1397.07 880.52 1394.96 880.52 1390.61V1340.88H872.904ZM833.864 1356.75V1363.73H850.312V1356.75H833.864ZM824.456 1342.54V1349.65H856.264V1342.54H824.456ZM829.96 1373.65C833.672 1376.08 838.728 1379.54 841.096 1381.84L844.936 1375.38C842.44 1373.26 837.256 1370.06 833.544 1367.95L829.96 1373.65ZM847.624 1356.75V1358.29C845.128 1376.4 837.384 1388.24 825.864 1394.32C827.592 1395.47 830.472 1398.29 831.624 1399.95C843.4 1393.1 851.976 1379.28 855.176 1358.1L850.376 1356.5L849.096 1356.75H847.624ZM835.016 1346.45C833.096 1355.86 828.744 1367.38 821.832 1373.97C823.432 1375.18 825.928 1377.49 827.272 1378.96C834.952 1371.41 839.752 1358.99 842.696 1347.92L835.016 1346.45ZM910.088 1373.78V1399.7H917.064V1380.75H936.328V1399.44H943.624V1373.78H910.088ZM938.568 1339.66C931.464 1342.48 919.432 1344.59 908.552 1345.68C909.384 1347.41 910.408 1350.42 910.728 1352.27C922.056 1351.25 935.048 1349.26 944.456 1345.68L938.568 1339.66ZM923.208 1346.83V1377.81H930.504V1346.83H923.208ZM906.056 1358.29V1365.65H946.888V1358.29H906.056ZM915.08 1390.16V1397.07H939.336V1390.16H915.08ZM890.312 1346C893.96 1348.11 899.4 1351.18 901.96 1353.1L906.504 1346.9C903.752 1345.1 898.184 1342.29 894.6 1340.5L890.312 1346ZM887.176 1363.73C891.016 1365.78 896.584 1368.85 899.208 1370.64L903.496 1364.3C900.68 1362.51 894.984 1359.76 891.336 1358.03L887.176 1363.73ZM888.136 1393.81L894.664 1398.99C898.504 1392.78 902.6 1385.49 905.992 1378.7L900.36 1373.65C896.52 1381.01 891.592 1389.01 888.136 1393.81ZM952.712 1381.07V1386.51H982.6V1381.07H952.712ZM951.24 1350.61V1356.18H983.24V1350.61H951.24ZM963.976 1346.06V1391.95H970.888V1346.06H963.976ZM950.92 1391.25L951.816 1397.65C960.136 1396.88 971.784 1395.73 982.664 1394.58L982.6 1388.75C971.08 1389.78 958.856 1390.67 950.92 1391.25ZM959.048 1370.83H975.944V1373.78H959.048V1370.83ZM959.048 1363.47H975.944V1366.35H959.048V1363.47ZM952.904 1358.67V1378.58H982.28V1358.67H952.904ZM979.144 1339.98C972.104 1341.52 960.968 1342.67 951.432 1343.12C952.136 1344.59 952.84 1347.02 953.096 1348.56C962.696 1348.37 974.344 1347.41 982.536 1345.74L979.144 1339.98ZM983.24 1354.13V1361.17H1005.38V1354.13H983.24ZM1002.31 1354.13V1355.79C1001.8 1380.56 1001.29 1389.58 999.816 1391.5C999.24 1392.4 998.6 1392.59 997.64 1392.59C996.36 1392.59 993.928 1392.59 991.176 1392.34C992.392 1394.38 993.224 1397.52 993.416 1399.63C996.424 1399.76 999.432 1399.76 1001.42 1399.38C1003.53 1398.99 1005 1398.29 1006.41 1396.11C1008.52 1393.23 1009.03 1383.89 1009.61 1357.52C1009.61 1356.62 1009.67 1354.13 1009.67 1354.13H1002.31ZM989.384 1340.75C989.32 1366.29 990.024 1384.21 976.52 1394.51C978.248 1395.79 980.744 1398.42 981.832 1400.27C996.616 1388.62 996.68 1368.08 996.744 1340.75H989.384ZM1044.74 1347.34C1049.93 1355.66 1060.42 1364.62 1070.66 1369.81C1072.07 1367.44 1073.8 1364.82 1075.78 1362.77C1065.29 1358.74 1055.11 1350.29 1048.52 1339.47H1040.2C1035.78 1347.98 1025.8 1358.22 1014.41 1363.66C1016.07 1365.26 1018.25 1368.14 1019.21 1370.06C1029.96 1364.37 1039.75 1355.54 1044.74 1347.34ZM1051.85 1363.09V1399.76H1059.85V1363.09H1051.85ZM1029.77 1363.41V1371.15C1029.77 1378.58 1028.62 1387.6 1017.35 1394.32C1019.4 1395.54 1022.41 1398.1 1023.75 1399.76C1036.36 1391.89 1037.64 1380.43 1037.64 1371.34V1363.41H1029.77ZM1110.47 1390.16V1396.94H1132.55V1390.16H1110.47ZM1106.89 1372.5V1399.7H1113.93V1379.28H1128.84V1399.44H1136.26V1372.5H1106.89ZM1104.65 1342.67V1349.71H1133.96V1342.67H1104.65ZM1130.38 1342.67V1343.76C1130.12 1355.86 1129.74 1360.46 1128.78 1361.55C1128.26 1362.13 1127.62 1362.26 1126.73 1362.26C1125.51 1362.26 1122.89 1362.26 1120.2 1362C1121.42 1363.92 1122.25 1366.86 1122.44 1369.1C1125.58 1369.1 1128.52 1369.1 1130.25 1368.85C1132.3 1368.59 1133.7 1368.08 1135.05 1366.42C1136.65 1364.37 1137.1 1358.8 1137.42 1345.42C1137.48 1344.53 1137.54 1342.67 1137.54 1342.67H1130.38ZM1113.8 1345.55C1113.1 1353.81 1111.62 1360.85 1102.02 1365.01C1103.62 1366.29 1105.67 1368.98 1106.57 1370.77C1117.9 1365.39 1120.39 1356.37 1121.35 1345.55H1113.8ZM1088.52 1339.73C1087.05 1344.21 1084.3 1350.35 1081.99 1354.13L1087.11 1356.37C1089.61 1352.78 1092.55 1347.09 1095.18 1342.22L1088.52 1339.73ZM1095.88 1347.28C1092.55 1354.19 1086.66 1363.6 1081.93 1369.42L1086.34 1371.92C1091.21 1366.35 1097.48 1357.46 1102.09 1350.1L1095.88 1347.28ZM1078.66 1354.9C1081.93 1357.97 1085.83 1362.45 1087.37 1365.52L1091.34 1359.57C1089.67 1356.62 1085.7 1352.59 1082.31 1349.65L1078.66 1354.9ZM1093.96 1362.58C1096.39 1366.99 1098.57 1372.82 1099.27 1376.53L1104.71 1374.1C1103.94 1370.38 1101.51 1364.75 1099.02 1360.46L1093.96 1362.58ZM1078.6 1367.89L1079.24 1374.61C1085.45 1374.16 1093.64 1373.65 1101.51 1373.07L1101.58 1366.99C1093.13 1367.38 1084.49 1367.7 1078.6 1367.89ZM1095.37 1378.51C1096.78 1382.29 1098.44 1387.22 1099.08 1390.42L1104.71 1388.43C1104.01 1385.23 1102.34 1380.43 1100.74 1376.78L1095.37 1378.51ZM1081.35 1377.3C1080.84 1382.74 1079.82 1388.43 1077.96 1392.21C1079.56 1392.85 1082.44 1394.19 1083.78 1395.02C1085.64 1390.93 1087.05 1384.53 1087.69 1378.38L1081.35 1377.3ZM1088.52 1371.28V1399.82H1095.24V1371.28H1088.52Z" fill="#111111"/>
</g>
<g clip-path="url(#clip1_44_478)">
<rect width="184" height="26" transform="translate(857 1405)" fill="#00B9AF"/>
<path d="M865.098 1425.5C865.949 1425.5 866.641 1425.41 867.172 1425.22C868.18 1424.86 868.684 1424.2 868.684 1423.22C868.684 1422.65 868.434 1422.21 867.934 1421.89C867.434 1421.59 866.648 1421.32 865.578 1421.09L863.75 1420.68C861.953 1420.27 860.711 1419.83 860.023 1419.35C858.859 1418.55 858.277 1417.31 858.277 1415.61C858.277 1414.07 858.84 1412.78 859.965 1411.76C861.09 1410.73 862.742 1410.22 864.922 1410.22C866.742 1410.22 868.293 1410.71 869.574 1411.68C870.863 1412.64 871.539 1414.04 871.602 1415.87H868.133C868.07 1414.83 867.617 1414.09 866.773 1413.66C866.211 1413.37 865.512 1413.22 864.676 1413.22C863.746 1413.22 863.004 1413.41 862.449 1413.79C861.895 1414.16 861.617 1414.68 861.617 1415.36C861.617 1415.97 861.891 1416.43 862.438 1416.74C862.789 1416.94 863.539 1417.18 864.688 1417.45L867.664 1418.17C868.969 1418.48 869.953 1418.9 870.617 1419.42C871.648 1420.23 872.164 1421.41 872.164 1422.95C872.164 1424.53 871.559 1425.84 870.348 1426.89C869.145 1427.93 867.441 1428.45 865.238 1428.45C862.988 1428.45 861.219 1427.93 859.93 1426.91C858.641 1425.88 857.996 1424.46 857.996 1422.67H861.441C861.551 1423.46 861.766 1424.05 862.086 1424.44C862.672 1425.15 863.676 1425.5 865.098 1425.5ZM885.5 1424.25C885.414 1425.01 885.02 1425.78 884.316 1426.56C883.223 1427.8 881.691 1428.42 879.723 1428.42C878.098 1428.42 876.664 1427.9 875.422 1426.85C874.18 1425.8 873.559 1424.1 873.559 1421.74C873.559 1419.53 874.117 1417.84 875.234 1416.66C876.359 1415.48 877.816 1414.89 879.605 1414.89C880.668 1414.89 881.625 1415.09 882.477 1415.48C883.328 1415.88 884.031 1416.51 884.586 1417.37C885.086 1418.13 885.41 1419.01 885.559 1420.01C885.645 1420.59 885.68 1421.44 885.664 1422.54H876.922C876.969 1423.82 877.371 1424.72 878.129 1425.23C878.59 1425.55 879.145 1425.71 879.793 1425.71C880.48 1425.71 881.039 1425.52 881.469 1425.13C881.703 1424.92 881.91 1424.62 882.09 1424.25H885.5ZM882.195 1420.34C882.141 1419.45 881.871 1418.79 881.387 1418.33C880.91 1417.87 880.316 1417.64 879.605 1417.64C878.832 1417.64 878.23 1417.88 877.801 1418.37C877.379 1418.85 877.113 1419.51 877.004 1420.34H882.195ZM894.348 1418.31C893.004 1418.31 892.102 1418.75 891.641 1419.62C891.383 1420.11 891.254 1420.87 891.254 1421.89V1428H887.891V1415.23H891.078V1417.45C891.594 1416.6 892.043 1416.02 892.426 1415.71C893.051 1415.18 893.863 1414.92 894.863 1414.92C894.926 1414.92 894.977 1414.93 895.016 1414.93C895.062 1414.93 895.16 1414.94 895.309 1414.95V1418.37C895.098 1418.34 894.91 1418.33 894.746 1418.32C894.582 1418.31 894.449 1418.31 894.348 1418.31ZM900.711 1415.23V1428H897.324V1415.23H900.711ZM900.711 1410.62V1413.7H897.324V1410.62H900.711ZM914.891 1424.25C914.805 1425.01 914.41 1425.78 913.707 1426.56C912.613 1427.8 911.082 1428.42 909.113 1428.42C907.488 1428.42 906.055 1427.9 904.812 1426.85C903.57 1425.8 902.949 1424.1 902.949 1421.74C902.949 1419.53 903.508 1417.84 904.625 1416.66C905.75 1415.48 907.207 1414.89 908.996 1414.89C910.059 1414.89 911.016 1415.09 911.867 1415.48C912.719 1415.88 913.422 1416.51 913.977 1417.37C914.477 1418.13 914.801 1419.01 914.949 1420.01C915.035 1420.59 915.07 1421.44 915.055 1422.54H906.312C906.359 1423.82 906.762 1424.72 907.52 1425.23C907.98 1425.55 908.535 1425.71 909.184 1425.71C909.871 1425.71 910.43 1425.52 910.859 1425.13C911.094 1424.92 911.301 1424.62 911.48 1424.25H914.891ZM911.586 1420.34C911.531 1419.45 911.262 1418.79 910.777 1418.33C910.301 1417.87 909.707 1417.64 908.996 1417.64C908.223 1417.64 907.621 1417.88 907.191 1418.37C906.77 1418.85 906.504 1419.51 906.395 1420.34H911.586ZM926.117 1415.81C927.117 1416.45 927.691 1417.55 927.84 1419.12H924.5C924.453 1418.69 924.332 1418.35 924.137 1418.1C923.77 1417.64 923.145 1417.42 922.262 1417.42C921.535 1417.42 921.016 1417.53 920.703 1417.76C920.398 1417.98 920.246 1418.25 920.246 1418.55C920.246 1418.94 920.41 1419.21 920.738 1419.39C921.066 1419.57 922.227 1419.88 924.219 1420.31C925.547 1420.62 926.543 1421.1 927.207 1421.73C927.863 1422.37 928.191 1423.17 928.191 1424.13C928.191 1425.4 927.719 1426.43 926.773 1427.24C925.836 1428.04 924.383 1428.43 922.414 1428.43C920.406 1428.43 918.922 1428.01 917.961 1427.17C917.008 1426.32 916.531 1425.23 916.531 1423.92H919.918C919.988 1424.52 920.141 1424.94 920.375 1425.19C920.789 1425.63 921.555 1425.86 922.672 1425.86C923.328 1425.86 923.848 1425.76 924.23 1425.56C924.621 1425.37 924.816 1425.07 924.816 1424.68C924.816 1424.31 924.66 1424.02 924.348 1423.83C924.035 1423.63 922.875 1423.3 920.867 1422.82C919.422 1422.46 918.402 1422.01 917.809 1421.47C917.215 1420.94 916.918 1420.18 916.918 1419.18C916.918 1418 917.379 1416.98 918.301 1416.14C919.23 1415.29 920.535 1414.86 922.215 1414.86C923.809 1414.86 925.109 1415.18 926.117 1415.81ZM948.008 1416.84C949.086 1418.2 949.625 1419.79 949.625 1421.64C949.625 1423.51 949.086 1425.12 948.008 1426.45C946.93 1427.78 945.293 1428.45 943.098 1428.45C940.902 1428.45 939.266 1427.78 938.188 1426.45C937.109 1425.12 936.57 1423.51 936.57 1421.64C936.57 1419.79 937.109 1418.2 938.188 1416.84C939.266 1415.49 940.902 1414.82 943.098 1414.82C945.293 1414.82 946.93 1415.49 948.008 1416.84ZM943.086 1417.64C942.109 1417.64 941.355 1417.99 940.824 1418.68C940.301 1419.37 940.039 1420.36 940.039 1421.64C940.039 1422.92 940.301 1423.91 940.824 1424.6C941.355 1425.3 942.109 1425.64 943.086 1425.64C944.062 1425.64 944.812 1425.3 945.336 1424.6C945.859 1423.91 946.121 1422.92 946.121 1421.64C946.121 1420.36 945.859 1419.37 945.336 1418.68C944.812 1417.99 944.062 1417.64 943.086 1417.64ZM958.016 1410.62V1413.34C957.828 1413.32 957.512 1413.3 957.066 1413.29C956.629 1413.28 956.324 1413.38 956.152 1413.59C955.988 1413.79 955.906 1414.02 955.906 1414.27V1415.34H958.098V1417.7H955.906V1428H952.578V1417.7H950.715V1415.34H952.543V1414.52C952.543 1413.16 952.773 1412.21 953.234 1411.7C953.719 1410.93 954.887 1410.55 956.738 1410.55C956.949 1410.55 957.141 1410.56 957.312 1410.57C957.484 1410.58 957.719 1410.6 958.016 1410.62ZM977.633 1424.25C977.547 1425.01 977.152 1425.78 976.449 1426.56C975.355 1427.8 973.824 1428.42 971.855 1428.42C970.23 1428.42 968.797 1427.9 967.555 1426.85C966.312 1425.8 965.691 1424.1 965.691 1421.74C965.691 1419.53 966.25 1417.84 967.367 1416.66C968.492 1415.48 969.949 1414.89 971.738 1414.89C972.801 1414.89 973.758 1415.09 974.609 1415.48C975.461 1415.88 976.164 1416.51 976.719 1417.37C977.219 1418.13 977.543 1419.01 977.691 1420.01C977.777 1420.59 977.812 1421.44 977.797 1422.54H969.055C969.102 1423.82 969.504 1424.72 970.262 1425.23C970.723 1425.55 971.277 1425.71 971.926 1425.71C972.613 1425.71 973.172 1425.52 973.602 1425.13C973.836 1424.92 974.043 1424.62 974.223 1424.25H977.633ZM974.328 1420.34C974.273 1419.45 974.004 1418.79 973.52 1418.33C973.043 1417.87 972.449 1417.64 971.738 1417.64C970.965 1417.64 970.363 1417.88 969.934 1418.37C969.512 1418.85 969.246 1419.51 969.137 1420.34H974.328ZM978.805 1415.23H982.555L985.215 1424.65L987.934 1415.23H991.52L986.914 1428H983.387L978.805 1415.23ZM1004.35 1424.25C1004.27 1425.01 1003.87 1425.78 1003.17 1426.56C1002.07 1427.8 1000.54 1428.42 998.574 1428.42C996.949 1428.42 995.516 1427.9 994.273 1426.85C993.031 1425.8 992.41 1424.1 992.41 1421.74C992.41 1419.53 992.969 1417.84 994.086 1416.66C995.211 1415.48 996.668 1414.89 998.457 1414.89C999.52 1414.89 1000.48 1415.09 1001.33 1415.48C1002.18 1415.88 1002.88 1416.51 1003.44 1417.37C1003.94 1418.13 1004.26 1419.01 1004.41 1420.01C1004.5 1420.59 1004.53 1421.44 1004.52 1422.54H995.773C995.82 1423.82 996.223 1424.72 996.98 1425.23C997.441 1425.55 997.996 1425.71 998.645 1425.71C999.332 1425.71 999.891 1425.52 1000.32 1425.13C1000.55 1424.92 1000.76 1424.62 1000.94 1424.25H1004.35ZM1001.05 1420.34C1000.99 1419.45 1000.72 1418.79 1000.24 1418.33C999.762 1417.87 999.168 1417.64 998.457 1417.64C997.684 1417.64 997.082 1417.88 996.652 1418.37C996.23 1418.85 995.965 1419.51 995.855 1420.34H1001.05ZM1012.79 1417.7C1011.66 1417.7 1010.88 1418.18 1010.46 1419.14C1010.24 1419.65 1010.13 1420.3 1010.13 1421.09V1428H1006.8V1415.25H1010.02V1417.11C1010.45 1416.46 1010.86 1415.98 1011.24 1415.7C1011.93 1415.18 1012.8 1414.92 1013.86 1414.92C1015.18 1414.92 1016.25 1415.27 1017.09 1415.96C1017.93 1416.65 1018.36 1417.8 1018.36 1419.4V1428H1014.93V1420.23C1014.93 1419.56 1014.84 1419.04 1014.66 1418.68C1014.34 1418.03 1013.71 1417.7 1012.79 1417.7ZM1027.3 1425.62V1428.12L1025.71 1428.18C1024.14 1428.23 1023.06 1427.96 1022.48 1427.36C1022.11 1426.97 1021.92 1426.38 1021.92 1425.59V1417.72H1020.14V1415.34H1021.92V1411.78H1025.22V1415.34H1027.3V1417.72H1025.22V1424.47C1025.22 1425 1025.29 1425.32 1025.42 1425.46C1025.55 1425.58 1025.96 1425.64 1026.64 1425.64C1026.74 1425.64 1026.85 1425.64 1026.96 1425.64C1027.07 1425.64 1027.19 1425.63 1027.3 1425.62ZM1038.24 1415.81C1039.24 1416.45 1039.82 1417.55 1039.96 1419.12H1036.62C1036.58 1418.69 1036.46 1418.35 1036.26 1418.1C1035.89 1417.64 1035.27 1417.42 1034.39 1417.42C1033.66 1417.42 1033.14 1417.53 1032.83 1417.76C1032.52 1417.98 1032.37 1418.25 1032.37 1418.55C1032.37 1418.94 1032.54 1419.21 1032.86 1419.39C1033.19 1419.57 1034.35 1419.88 1036.34 1420.31C1037.67 1420.62 1038.67 1421.1 1039.33 1421.73C1039.99 1422.37 1040.32 1423.17 1040.32 1424.13C1040.32 1425.4 1039.84 1426.43 1038.9 1427.24C1037.96 1428.04 1036.51 1428.43 1034.54 1428.43C1032.53 1428.43 1031.05 1428.01 1030.09 1427.17C1029.13 1426.32 1028.66 1425.23 1028.66 1423.92H1032.04C1032.11 1424.52 1032.27 1424.94 1032.5 1425.19C1032.91 1425.63 1033.68 1425.86 1034.8 1425.86C1035.45 1425.86 1035.97 1425.76 1036.36 1425.56C1036.75 1425.37 1036.94 1425.07 1036.94 1424.68C1036.94 1424.31 1036.79 1424.02 1036.47 1423.83C1036.16 1423.63 1035 1423.3 1032.99 1422.82C1031.55 1422.46 1030.53 1422.01 1029.93 1421.47C1029.34 1420.94 1029.04 1420.18 1029.04 1419.18C1029.04 1418 1029.5 1416.98 1030.43 1416.14C1031.36 1415.29 1032.66 1414.86 1034.34 1414.86C1035.93 1414.86 1037.23 1415.18 1038.24 1415.81Z" fill="#111111"/>
</g>
<g clip-path="url(#clip2_44_478)">
<g clip-path="url(#clip3_44_478)">
<path d="M1929.27 1227.55H1012.3L1213.79 665.782H1929.27V1227.55Z" fill="url(#paint0_linear_44_478)" stroke="#FCEA00" stroke-width="3.00952" stroke-miterlimit="10"/>
<path d="M1521.15 1227.55L1113.07 946.667L1521.15 665.782L1929.28 946.667L1521.15 1227.55Z" fill="#F753C3"/>
<path d="M1623.18 665.782H1521.15L1623.18 735.98V665.782Z" fill="#0080C8"/>
<path d="M1929.27 946.667V665.782H1827.24V876.422L1929.27 946.667Z" fill="#FF7D00"/>
<path d="M1419.12 735.98V665.782H1317.09V806.224L1419.12 735.98Z" fill="#F753C3"/>
<path d="M1725.21 1087.11V1227.55H1827.24V1016.86L1725.21 1087.11Z" fill="#FCEA00"/>
<path d="M1113.07 946.667L1012.3 1227.55H1113.07V946.667Z" fill="#F753C3"/>
<path d="M1113.07 946.667V1227.55H1215.06V1016.91L1113.07 946.667Z" fill="#00B8AE"/>
<path d="M1419.12 1227.55H1521.15L1419.12 1157.35V1227.55Z" fill="#8F41C6"/>
<path d="M1827.24 946.667H1929.27L1827.24 876.422V946.667Z" fill="#F753C3"/>
<path d="M1827.24 1016.86L1929.27 946.667H1827.24V1016.86Z" fill="#0080C8"/>
<path d="M1725.21 806.224L1623.18 735.98V946.667H1725.21V806.224Z" fill="#F753C3"/>
<path d="M1827.24 946.667V876.422L1725.21 806.224V946.667H1827.24Z" fill="#FF7D00"/>
<path d="M1623.18 946.667V1157.35L1725.21 1087.11V946.667H1623.18Z" fill="#00B8AE"/>
<path d="M1725.21 946.667V1087.11L1827.24 1016.86V946.667H1725.21Z" fill="#F753C3"/>
<path d="M1317.09 1087.11L1419.12 1157.35V946.667H1317.09V1087.11Z" fill="#F753C3"/>
<path d="M1215.05 946.667V1016.91L1317.09 1087.11V946.667H1215.05Z" fill="#FF7D00"/>
<path d="M1623.18 946.667H1521.15V1227.55L1623.18 1157.35V946.667Z" fill="#D50400"/>
<path d="M1419.12 946.667H1521.15V665.782L1419.12 735.98V946.667Z" fill="#F753C3"/>
<path d="M1113.07 946.667L1215.06 1016.91V946.667H1113.07Z" fill="#F753C3"/>
<path d="M1317.09 806.224V946.667H1419.12V735.98L1317.09 806.224Z" fill="#FCEA00"/>
<path d="M1419.12 946.667V1157.35L1521.15 1227.55V946.667H1419.12Z" fill="#F753C3"/>
<path d="M1623.18 946.667V735.98L1521.15 665.782V946.667H1623.18Z" fill="#F753C3"/>
<path d="M1317.09 946.667V806.224L1215.05 876.422V946.667H1317.09Z" fill="#F753C3"/>
<path d="M1215.06 876.422L1113.07 946.667H1215.06V876.422Z" fill="#F753C3"/>
<path d="M1929.27 1227.55H1012.3L1213.79 665.782H1929.27V1227.55Z" stroke="#FCEA00" stroke-width="3.00952" stroke-miterlimit="10"/>
<path d="M1521.15 1227.55L1113.07 946.667L1521.15 665.782L1929.28 946.667L1521.15 1227.55Z" stroke="#FCEA00" stroke-width="3.00952" stroke-miterlimit="10"/>
</g>
<g clip-path="url(#clip4_44_478)">
<path d="M656.911 1058.46H2124.57L1802.07 161.86H656.911V1058.46Z" fill="url(#paint1_linear_44_478)" stroke="#FCEA00" stroke-width="3.00952" stroke-miterlimit="10"/>
<path d="M1310.13 1058.46L1963.28 610.159L1310.13 161.86L656.911 610.159L1310.13 1058.46Z" fill="#F753C3"/>
<path d="M1146.83 161.86H1310.13L1146.83 273.897V161.86Z" fill="#0080C8"/>
<path d="M656.912 610.159V161.86H820.218V498.047L656.912 610.159Z" fill="#FF7D00"/>
<path d="M1473.44 273.897V161.86H1636.75V386.009L1473.44 273.897Z" fill="#F753C3"/>
<path d="M983.525 834.308V1058.46H820.219V722.196L983.525 834.308Z" fill="#FCEA00"/>
<path d="M1963.28 610.159V1058.46H1800.05V722.271L1963.28 610.159Z" fill="#00B8AE"/>
<path d="M1473.44 1058.46H1310.14L1473.44 946.42V1058.46Z" fill="#8F41C6"/>
<path d="M820.218 610.159H656.912L820.218 498.046V610.159Z" fill="#F753C3"/>
<path d="M820.218 722.196L656.912 610.159H820.218V722.196Z" fill="#0080C8"/>
<path d="M983.525 386.009L1146.83 273.897V610.159H983.525V386.009Z" fill="#F753C3"/>
<path d="M820.219 610.159V498.046L983.525 386.009V610.159H820.219Z" fill="#FF7D00"/>
<path d="M1146.83 610.159V946.42L983.525 834.308V610.159H1146.83Z" fill="#00B8AE"/>
<path d="M983.525 610.159V834.308L820.219 722.196V610.159H983.525Z" fill="#F753C3"/>
<path d="M1636.75 834.308L1473.44 946.42V610.159H1636.75V834.308Z" fill="#F753C3"/>
<path d="M1800.05 610.159V722.271L1636.75 834.308V610.159H1800.05Z" fill="#FF7D00"/>
<path d="M1146.83 610.159H1310.13V1058.46L1146.83 946.42V610.159Z" fill="#D50400"/>
<path d="M1473.44 610.159H1310.14V161.86L1473.44 273.897V610.159Z" fill="#F753C3"/>
<path d="M1963.28 610.159L1800.05 722.271V610.159H1963.28Z" fill="#F753C3"/>
<path d="M1636.75 386.009V610.159H1473.44V273.897L1636.75 386.009Z" fill="#FCEA00"/>
<path d="M1473.44 610.159V946.42L1310.14 1058.46V610.159H1473.44Z" fill="#F753C3"/>
<path d="M1146.83 610.159V273.897L1310.13 161.86V610.159H1146.83Z" fill="#F753C3"/>
<path d="M1636.75 610.159V386.009L1800.05 498.046V610.159H1636.75Z" fill="#F753C3"/>
<path d="M1800.05 498.046L1963.28 610.159H1800.05V498.046Z" fill="#F753C3"/>
<path d="M656.911 1058.46H2124.57L1802.07 161.86H656.911V1058.46Z" stroke="#FCEA00" stroke-width="3.00952" stroke-miterlimit="10"/>
<path d="M1310.13 1058.46L1963.28 610.159L1310.13 161.86L656.911 610.159L1310.13 1058.46Z" stroke="#FCEA00" stroke-width="3.00952" stroke-miterlimit="10"/>
</g>
<g clip-path="url(#clip5_44_478)">
<path d="M-77.3928 1028.08L1456.93 1364.95V795.928L-153.845 459.063L-77.3928 1028.08Z" fill="url(#paint2_linear_44_478)" stroke="#FCEA00" stroke-width="3.00952" stroke-miterlimit="10"/>
<path d="M-36.4676 1333.13L1313.27 1333.13L-77.3916 1028.08L-36.4676 1333.13Z" fill="#FCEA00" stroke="#FCEA00" stroke-width="3.00952" stroke-miterlimit="10"/>
<path d="M-65.1564 912.033L-65.1564 477.607L87.2666 509.482L87.2666 912.033H-65.1564Z" fill="url(#paint3_linear_44_478)"/>
<path d="M87.2649 912.033L87.2649 509.482L239.688 541.358L239.688 912.033H87.2649Z" fill="#FCEA00"/>
<path d="M392.058 912.033V573.232L544.481 605.107V912.033H392.058Z" fill="#0080C8"/>
<path d="M544.481 912.033V605.107L696.85 636.982V912.033H544.481Z" fill="url(#paint4_linear_44_478)"/>
<path d="M239.689 912.033L239.689 541.357L392.058 573.233L392.058 912.033H239.689Z" fill="url(#paint5_linear_44_478)"/>
<path d="M392.058 1131.07V912.033H544.481V1164.51L392.058 1131.07Z" fill="url(#paint6_linear_44_478)"/>
<path d="M239.689 1097.64L239.689 912.033H392.058V1131.07L239.689 1097.64Z" fill="url(#paint7_linear_44_478)"/>
<path d="M696.85 912.033V636.983L849.273 668.858V912.033H696.85Z" fill="url(#paint8_linear_44_478)"/>
<path d="M1001.7 1264.76V912.033H1154.06V1298.19L1001.7 1264.76Z" fill="#00B8AE"/>
<path d="M-65.1564 1030.77L-65.1564 912.033H87.2666L87.2666 1064.21L-65.1564 1030.77Z" fill="url(#paint9_linear_44_478)"/>
<path d="M849.273 1231.32V912.033H1001.7V1264.76L849.273 1231.32Z" fill="url(#paint10_linear_44_478)"/>
<path d="M544.481 1164.51V912.033H696.85V1197.94L544.481 1164.51Z" fill="url(#paint11_linear_44_478)"/>
<path d="M696.85 1197.94V912.033H849.273V1231.32L696.85 1197.94Z" fill="#8F41C6"/>
<path d="M87.2649 1064.21L87.2649 912.033H239.688L239.688 1097.64L87.2649 1064.21Z" fill="url(#paint12_linear_44_478)"/>
<path d="M849.273 912.033V668.858L1001.7 700.733V912.033H849.273Z" fill="#F753C3"/>
<path d="M1001.7 912.033V700.733L1154.06 732.608V912.033H1001.7Z" fill="url(#paint13_linear_44_478)"/>
<path d="M1001.7 1265.02V1333.13H849.273V1231.59L1001.7 1265.02Z" fill="#FCEA00"/>
<path d="M696.85 1198.1V1333.13H544.481V1164.61L696.85 1198.1Z" fill="#00B8AE"/>
<path d="M1154.06 1298.46V1333.13H1001.7V1265.02L1154.06 1298.46Z" fill="#8F41C6"/>
<path d="M544.481 1164.62V1333.13H392.058V1131.18L544.481 1164.62Z" fill="#FCEA00"/>
<path d="M849.273 1231.59V1333.13H696.85V1198.1L849.273 1231.59Z" fill="#FCEA00"/>
<path d="M392.058 1131.18L392.058 1333.13H239.689L239.689 1097.69L392.058 1131.18Z" fill="#F753C3"/>
<path d="M87.2666 1064.26L87.2666 1333.13H-36.4669L-65.1564 1119.46V1030.77L87.2666 1064.26Z" fill="#FCEA00"/>
<path d="M239.688 1097.69L239.688 1333.13H87.2649L87.2649 1064.26L239.688 1097.69Z" fill="#0080C8"/>
<path d="M392.058 1131.07V1131.18L239.689 1097.69V1097.64L392.058 1131.07Z" fill="#FCEA00"/>
<path d="M239.688 1097.64V1097.69L87.2649 1064.26V1064.21L239.688 1097.64Z" fill="#FCEA00"/>
<path d="M1001.7 1264.75V1265.02L849.273 1231.59V1231.32L1001.7 1264.75Z" fill="#FCEA00"/>
<path d="M1154.06 1298.19V1298.46L1001.7 1265.02V1264.76L1154.06 1298.19Z" fill="#FCEA00"/>
<path d="M544.481 1164.51V1164.61L392.058 1131.18V1131.07L544.481 1164.51Z" fill="#FCEA00"/>
<path d="M696.85 1197.94V1198.1L544.481 1164.61V1164.51L696.85 1197.94Z" fill="#FCEA00"/>
<path d="M849.273 1231.32V1231.59L696.85 1198.1V1197.94L849.273 1231.32Z" fill="#FCEA00"/>
<path d="M-77.3928 1028.08L1456.93 1364.95V795.928L-153.845 459.063L-77.3928 1028.08Z" stroke="#FCEA00" stroke-width="3.00952" stroke-miterlimit="10"/>
<path d="M-36.4676 1333.13L1313.27 1333.13L-77.3916 1028.08L-36.4676 1333.13Z" stroke="#FCEA00" stroke-width="3.00952" stroke-miterlimit="10"/>
</g>
<g clip-path="url(#clip6_44_478)">
<path d="M702.004 756.417H-390.641L-150.549 86.7581H702.004V756.417Z" fill="url(#paint14_linear_44_478)" stroke="#FCEA00" stroke-width="3.00952" stroke-miterlimit="10"/>
<path d="M215.692 756.417L-270.565 421.587L215.692 86.7581L702.006 421.587L215.692 756.417Z" fill="#F753C3"/>
<path d="M337.27 86.7578H215.691L337.27 170.437V86.7578Z" fill="#0080C8"/>
<path d="M702.005 421.587V86.7581H580.427V337.852L702.005 421.587Z" fill="#FF7D00"/>
<path d="M94.1132 170.437V86.7578H-27.4651V254.172L94.1132 170.437Z" fill="#F753C3"/>
<path d="M458.848 589.002V756.417H580.426V505.267L458.848 589.002Z" fill="#FCEA00"/>
<path d="M94.114 756.416H215.692L94.114 672.737V756.416Z" fill="#8F41C6"/>
<path d="M580.427 421.587H702.005L580.427 337.852V421.587Z" fill="#F753C3"/>
<path d="M580.427 505.267L702.005 421.587H580.427V505.267Z" fill="#0080C8"/>
<path d="M458.849 254.173L337.271 170.438V421.587H458.849V254.173Z" fill="#F753C3"/>
<path d="M580.426 421.587V337.852L458.848 254.173V421.587H580.426Z" fill="#FF7D00"/>
<path d="M337.271 421.587V672.737L458.849 589.002V421.587H337.271Z" fill="#00B8AE"/>
<path d="M458.848 421.587V589.002L580.426 505.267V421.587H458.848Z" fill="#F753C3"/>
<path d="M-27.4651 589.002L94.1132 672.737V421.587H-27.4651V589.002Z" fill="#F753C3"/>
<path d="M337.27 421.587H215.691V756.417L337.27 672.737V421.587Z" fill="#D50400"/>
<path d="M94.114 421.587H215.692V86.7581L94.114 170.438V421.587Z" fill="#F753C3"/>
<path d="M-27.4651 254.173V421.588H94.1132V170.438L-27.4651 254.173Z" fill="#FCEA00"/>
<path d="M94.114 421.587V672.737L215.692 756.417V421.587H94.114Z" fill="#F753C3"/>
<path d="M337.27 421.587V170.437L215.691 86.7578V421.587H337.27Z" fill="#F753C3"/>
<path d="M702.004 756.417H-390.641L-150.549 86.7581H702.004V756.417Z" stroke="#FCEA00" stroke-width="3.00952" stroke-miterlimit="10"/>
<path d="M215.692 756.417L-270.565 421.587L215.692 86.7581L702.006 421.587L215.692 756.417Z" stroke="#FCEA00" stroke-width="3.00952" stroke-miterlimit="10"/>
</g>
<g clip-path="url(#clip7_44_478)">
<path d="M856.778 573.635L281.953 700.093L281.953 486.485L885.42 360.027L856.778 573.635Z" fill="url(#paint15_linear_44_478)" stroke="#FCEA00" stroke-width="2.22883" stroke-miterlimit="10"/>
<path d="M841.448 688.147H335.776L856.779 573.635L841.448 688.147Z" fill="#FCEA00" stroke="#FCEA00" stroke-width="2.22883" stroke-miterlimit="10"/>
<path d="M852.196 530.07V366.988L795.091 378.954V530.07H852.196Z" fill="url(#paint16_linear_44_478)"/>
<path d="M862.621 530.07L885.419 360.027L852.193 366.988V530.07H862.621Z" fill="#FF7D00"/>
<path d="M852.193 574.644L856.777 573.635L862.621 530.07H852.193V574.644Z" fill="url(#paint17_linear_44_478)"/>
<path d="M795.092 530.07V378.954L737.988 390.92V530.07H795.092Z" fill="#FCEA00"/>
<path d="M680.902 530.07V402.885L623.798 414.851V530.07H680.902Z" fill="#0080C8"/>
<path d="M623.799 530.07V414.851L566.714 426.817V530.07H623.799Z" fill="url(#paint18_linear_44_478)"/>
<path d="M737.986 530.07V390.92L680.901 402.886V530.07H737.986Z" fill="url(#paint19_linear_44_478)"/>
<path d="M680.902 612.297V530.07H623.798V624.848L680.902 612.297Z" fill="url(#paint20_linear_44_478)"/>
<path d="M737.986 599.746V530.07H680.901V612.297L737.986 599.746Z" fill="url(#paint21_linear_44_478)"/>
<path d="M566.713 530.07V426.817L509.609 438.783V530.07H566.713Z" fill="url(#paint22_linear_44_478)"/>
<path d="M452.505 662.481V530.07H395.421V675.032L452.505 662.481Z" fill="#00B8AE"/>
<path d="M852.196 574.644V530.07H795.091V587.195L852.196 574.644Z" fill="url(#paint23_linear_44_478)"/>
<path d="M509.608 649.93V530.07H452.504V662.481L509.608 649.93Z" fill="url(#paint24_linear_44_478)"/>
<path d="M623.799 624.848V530.07H566.714V637.399L623.799 624.848Z" fill="url(#paint25_linear_44_478)"/>
<path d="M566.713 637.399V530.07H509.609V649.93L566.713 637.399Z" fill="#8F41C6"/>
<path d="M795.092 587.195V530.07H737.988V599.746L795.092 587.195Z" fill="url(#paint26_linear_44_478)"/>
<path d="M509.608 530.07V438.783L452.504 450.749V530.07H509.608Z" fill="#F753C3"/>
<path d="M452.505 530.07V450.749L395.421 462.715V530.07H452.505Z" fill="url(#paint27_linear_44_478)"/>
<path d="M452.504 662.581V688.147H509.608V650.03L452.504 662.581Z" fill="#FCEA00"/>
<path d="M566.714 637.459V688.147H623.799V624.888L566.714 637.459Z" fill="#00B8AE"/>
<path d="M395.421 675.132V688.147H452.505V662.581L395.421 675.132Z" fill="#8F41C6"/>
<path d="M623.798 624.888V688.147H680.902V612.337L623.798 624.888Z" fill="#FCEA00"/>
<path d="M509.609 650.03V688.147H566.713V637.459L509.609 650.03Z" fill="#FCEA00"/>
<path d="M852.193 574.644V607.938L856.777 573.635L852.193 574.644Z" fill="#FCEA00"/>
<path d="M680.901 612.337V688.147H737.986V599.766L680.901 612.337Z" fill="#F753C3"/>
<path d="M795.091 587.215V688.147H841.447L852.196 607.938V574.644L795.091 587.215Z" fill="#FCEA00"/>
<path d="M737.988 599.766V688.147H795.092V587.215L737.988 599.766Z" fill="#0080C8"/>
<path d="M680.901 612.297V612.337L737.986 599.766V599.746L680.901 612.297Z" fill="#FCEA00"/>
<path d="M737.988 599.746V599.766L795.092 587.215V587.195L737.988 599.746Z" fill="#FCEA00"/>
<path d="M852.193 574.644L856.777 573.635L852.193 574.644Z" fill="#FCEA00"/>
<path d="M452.504 662.48V662.581L509.608 650.03V649.929L452.504 662.48Z" fill="#FCEA00"/>
<path d="M395.421 675.031V675.132L452.505 662.581V662.48L395.421 675.031Z" fill="#FCEA00"/>
<path d="M623.798 624.848V624.888L680.902 612.337V612.297L623.798 624.848Z" fill="#FCEA00"/>
<path d="M566.714 637.399V637.46L623.799 624.888V624.848L566.714 637.399Z" fill="#FCEA00"/>
<path d="M509.609 649.929V650.03L566.713 637.459V637.399L509.609 649.929Z" fill="#FCEA00"/>
<path d="M856.778 573.635L281.953 700.093L281.953 486.485L885.42 360.027L856.778 573.635Z" stroke="#FCEA00" stroke-width="2.22883" stroke-miterlimit="10"/>
<path d="M841.448 688.147H335.776L856.779 573.635L841.448 688.147Z" stroke="#FCEA00" stroke-width="2.22883" stroke-miterlimit="10"/>
</g>
<g clip-path="url(#clip8_44_478)">
<path d="M1532.51 667.647H2612.7L2375.34 7.90894H1532.51V667.647Z" fill="url(#paint28_linear_44_478)" stroke="#FCEA00" stroke-width="3.00952" stroke-miterlimit="10"/>
<path d="M2013.28 667.647L2493.99 337.778L2013.28 7.90894L1532.51 337.778L2013.28 667.647Z" fill="#F753C3"/>
<path d="M1893.09 7.90894H2013.28L1893.09 90.3487V7.90894Z" fill="#0080C8"/>
<path d="M1532.51 337.778V7.90894H1652.7V255.283L1532.51 337.778Z" fill="#FF7D00"/>
<path d="M1772.9 502.712V667.647H1652.71V420.218L1772.9 502.712Z" fill="#FCEA00"/>
<path d="M1652.7 337.778H1532.51L1652.7 255.283V337.778Z" fill="#F753C3"/>
<path d="M1652.7 420.218L1532.51 337.778H1652.7V420.218Z" fill="#0080C8"/>
<path d="M1772.9 172.843L1893.09 90.3486V337.778H1772.9V172.843Z" fill="#F753C3"/>
<path d="M1652.71 337.778V255.283L1772.9 172.843V337.778H1652.71Z" fill="#FF7D00"/>
<path d="M1893.09 337.778V585.207L1772.9 502.712V337.778H1893.09Z" fill="#00B8AE"/>
<path d="M1772.9 337.778V502.712L1652.71 420.218V337.778H1772.9Z" fill="#F753C3"/>
<path d="M1893.09 337.778H2013.28V667.647L1893.09 585.207V337.778Z" fill="#D50400"/>
<path d="M1893.09 337.778V90.3487L2013.28 7.90894V337.778H1893.09Z" fill="#F753C3"/>
<path d="M1532.51 667.647H2612.7L2375.34 7.90894H1532.51V667.647Z" stroke="#FCEA00" stroke-width="3.00952" stroke-miterlimit="10"/>
<path d="M2013.28 667.647L2493.99 337.778L2013.28 7.90894L1532.51 337.778L2013.28 667.647Z" stroke="#FCEA00" stroke-width="3.00952" stroke-miterlimit="10"/>
</g>
<path d="M-216.841 966.43L508.764 1128.27L508.764 854.899L-252.997 693.064L-216.841 966.43Z" fill="url(#paint29_linear_44_478)" stroke="#FCEA00" stroke-width="3.00952" stroke-miterlimit="10"/>
<path d="M-197.487 1112.98H440.826L-216.84 966.43L-197.487 1112.98Z" fill="#FCEA00" stroke="#FCEA00" stroke-width="3.00952" stroke-miterlimit="10"/>
<path d="M5.16929 910.677L5.16929 747.913L77.2523 763.226L77.2523 910.677H5.16929Z" fill="#0080C8"/>
<path d="M77.2535 910.678L77.2535 763.226L149.311 778.539L149.311 910.678H77.2535Z" fill="url(#paint30_linear_44_478)"/>
<path d="M365.534 910.677H437.617V1112.25L365.534 1096.19V910.677Z" fill="url(#paint31_linear_44_478)"/>
<path d="M-66.8897 910.678L-66.8897 732.6L5.16809 747.913L5.16809 910.678H-66.8897Z" fill="url(#paint32_linear_44_478)"/>
<path d="M5.16929 1015.91L5.16929 910.677H77.2523L77.2523 1031.97L5.16929 1015.91Z" fill="url(#paint33_linear_44_478)"/>
<path d="M-66.8897 999.845L-66.8897 910.677H5.16809L5.16809 1015.91L-66.8897 999.845Z" fill="url(#paint34_linear_44_478)"/>
<path d="M149.311 910.678V778.539L221.394 793.853L221.394 910.678H149.311Z" fill="url(#paint35_linear_44_478)"/>
<path d="M293.475 1080.13V910.677H365.533V1096.19L293.475 1080.13Z" fill="#00B8AE"/>
<path d="M221.391 1064.07V910.677H293.474V1080.13L221.391 1064.07Z" fill="url(#paint36_linear_44_478)"/>
<path d="M77.2535 1031.97L77.2535 910.677H149.311L149.311 1048.03L77.2535 1031.97Z" fill="url(#paint37_linear_44_478)"/>
<path d="M149.311 1048.03V910.677H221.394L221.394 1064.07L149.311 1048.03Z" fill="#8F41C6"/>
<path d="M437.616 1112.25V910.677H508.764V1128.26L440.117 1112.98H440.825L437.616 1112.25Z" fill="url(#paint38_linear_44_478)"/>
<path d="M221.391 910.677V793.852L293.474 809.166V910.677H221.391Z" fill="#F753C3"/>
<path d="M437.616 839.792L508.764 854.899V910.677H437.616V839.792Z" fill="#00B8AE"/>
<path d="M293.475 910.677V809.166L365.533 824.479V910.677H293.475Z" fill="url(#paint39_linear_44_478)"/>
<path d="M365.534 910.677V824.479L437.617 839.792V910.677H365.534Z" fill="url(#paint40_linear_44_478)"/>
<path d="M293.474 1080.26V1112.98H221.391V1064.2L293.474 1080.26Z" fill="#FCEA00"/>
<path d="M149.311 1048.11V1112.98H77.2535L77.2535 1032.02L149.311 1048.11Z" fill="#00B8AE"/>
<path d="M365.533 1096.32V1112.98H293.475V1080.26L365.533 1096.32Z" fill="#8F41C6"/>
<path d="M77.2523 1032.02L77.2523 1112.98H5.16929L5.16929 1015.96L77.2523 1032.02Z" fill="#FCEA00"/>
<path d="M221.394 1064.2V1112.98H149.311V1048.11L221.394 1064.2Z" fill="#FCEA00"/>
<path d="M5.16809 1015.96L5.16809 1112.98H-66.8897L-66.8897 999.872L5.16809 1015.96Z" fill="#F753C3"/>
<path d="M440.116 1112.98H437.614V1112.41L440.116 1112.98Z" fill="#FCEA00"/>
<path d="M437.617 1112.41V1112.98H365.534V1096.32L437.617 1112.41Z" fill="#FCEA00"/>
<path d="M5.16809 1015.91V1015.96L-66.8897 999.872V999.846L5.16809 1015.91Z" fill="#FCEA00"/>
<path d="M293.474 1080.13V1080.26L221.391 1064.2V1064.07L293.474 1080.13Z" fill="#FCEA00"/>
<path d="M437.617 1112.25L440.826 1112.98H440.118L437.617 1112.41V1112.25Z" fill="#FCEA00"/>
<path d="M437.617 1112.25V1112.41L365.534 1096.32V1096.19L437.617 1112.25Z" fill="#FCEA00"/>
<path d="M365.533 1096.19V1096.32L293.475 1080.26V1080.13L365.533 1096.19Z" fill="#FCEA00"/>
<path d="M77.2523 1031.97V1032.02L5.16929 1015.96V1015.91L77.2523 1031.97Z" fill="#FCEA00"/>
<path d="M149.311 1048.03V1048.11L77.2535 1032.02V1031.97L149.311 1048.03Z" fill="#FCEA00"/>
<path d="M221.394 1064.07V1064.2L149.311 1048.11V1048.03L221.394 1064.07Z" fill="#FCEA00"/>
<path d="M-216.841 966.43L508.764 1128.27L508.764 854.899L-252.997 693.064L-216.841 966.43Z" stroke="#FCEA00" stroke-width="3.00952" stroke-miterlimit="10"/>
<path d="M-197.487 1112.98H440.826L-216.84 966.43L-197.487 1112.98Z" stroke="#FCEA00" stroke-width="3.00952" stroke-miterlimit="10"/>
<rect x="825.398" y="664.127" width="274.286" height="29.2063" fill="#FF7E00"/>
</g>
<defs>
<linearGradient id="paint0_linear_44_478" x1="1012.3" y1="946.667" x2="1929.27" y2="946.667" gradientUnits="userSpaceOnUse">
<stop offset="0.02" stop-color="#00B8AE" stop-opacity="0"/>
<stop offset="0.14" stop-color="#00B8AE"/>
<stop offset="0.19" stop-color="#00B8AE"/>
<stop offset="0.35" stop-color="#F753C3"/>
<stop offset="0.41" stop-color="#F753C3"/>
<stop offset="0.57" stop-color="#0080C8"/>
<stop offset="0.63" stop-color="#0080C8"/>
<stop offset="0.81" stop-color="#FCEA00"/>
<stop offset="0.88" stop-color="#FCEA00" stop-opacity="0.59"/>
<stop offset="0.96" stop-color="#FCEA00" stop-opacity="0.17"/>
<stop offset="0.99" stop-color="#FCEA00" stop-opacity="0"/>
</linearGradient>
<linearGradient id="paint1_linear_44_478" x1="2124.57" y1="610.159" x2="656.911" y2="610.159" gradientUnits="userSpaceOnUse">
<stop offset="0.02" stop-color="#00B8AE" stop-opacity="0"/>
<stop offset="0.14" stop-color="#00B8AE"/>
<stop offset="0.19" stop-color="#00B8AE"/>
<stop offset="0.35" stop-color="#F753C3"/>
<stop offset="0.41" stop-color="#F753C3"/>
<stop offset="0.57" stop-color="#0080C8"/>
<stop offset="0.63" stop-color="#0080C8"/>
<stop offset="0.81" stop-color="#FCEA00"/>
<stop offset="0.88" stop-color="#FCEA00" stop-opacity="0.59"/>
<stop offset="0.96" stop-color="#FCEA00" stop-opacity="0.17"/>
<stop offset="0.99" stop-color="#FCEA00" stop-opacity="0"/>
</linearGradient>
<linearGradient id="paint2_linear_44_478" x1="1456.93" y1="912.033" x2="-153.791" y2="912.033" gradientUnits="userSpaceOnUse">
<stop offset="0.02" stop-color="#00B8AE" stop-opacity="0"/>
<stop offset="0.14" stop-color="#00B8AE"/>
<stop offset="0.19" stop-color="#00B8AE"/>
<stop offset="0.35" stop-color="#F753C3"/>
<stop offset="0.41" stop-color="#F753C3"/>
<stop offset="0.57" stop-color="#0080C8"/>
<stop offset="0.63" stop-color="#0080C8"/>
<stop offset="0.81" stop-color="#FCEA00"/>
<stop offset="0.88" stop-color="#FCEA00" stop-opacity="0.59"/>
<stop offset="0.96" stop-color="#FCEA00" stop-opacity="0.17"/>
<stop offset="0.99" stop-color="#FCEA00" stop-opacity="0"/>
</linearGradient>
<linearGradient id="paint3_linear_44_478" x1="1456.94" y1="694.82" x2="-153.789" y2="694.82" gradientUnits="userSpaceOnUse">
<stop offset="0.02" stop-color="#00B8AE" stop-opacity="0"/>
<stop offset="0.14" stop-color="#00B8AE"/>
<stop offset="0.19" stop-color="#00B8AE"/>
<stop offset="0.35" stop-color="#F753C3"/>
<stop offset="0.41" stop-color="#F753C3"/>
<stop offset="0.57" stop-color="#0080C8"/>
<stop offset="0.63" stop-color="#0080C8"/>
<stop offset="0.81" stop-color="#FCEA00"/>
<stop offset="0.88" stop-color="#FCEA00" stop-opacity="0.59"/>
<stop offset="0.96" stop-color="#FCEA00" stop-opacity="0.17"/>
<stop offset="0.99" stop-color="#FCEA00" stop-opacity="0"/>
</linearGradient>
<linearGradient id="paint4_linear_44_478" x1="1456.93" y1="758.57" x2="-153.791" y2="758.57" gradientUnits="userSpaceOnUse">
<stop offset="0.02" stop-color="#00B8AE" stop-opacity="0"/>
<stop offset="0.14" stop-color="#00B8AE"/>
<stop offset="0.19" stop-color="#00B8AE"/>
<stop offset="0.35" stop-color="#F753C3"/>
<stop offset="0.41" stop-color="#F753C3"/>
<stop offset="0.57" stop-color="#0080C8"/>
<stop offset="0.63" stop-color="#0080C8"/>
<stop offset="0.81" stop-color="#FCEA00"/>
<stop offset="0.88" stop-color="#FCEA00" stop-opacity="0.59"/>
<stop offset="0.96" stop-color="#FCEA00" stop-opacity="0.17"/>
<stop offset="0.99" stop-color="#FCEA00" stop-opacity="0"/>
</linearGradient>
<linearGradient id="paint5_linear_44_478" x1="1456.94" y1="726.695" x2="-153.79" y2="726.695" gradientUnits="userSpaceOnUse">
<stop offset="0.02" stop-color="#00B8AE" stop-opacity="0"/>
<stop offset="0.14" stop-color="#00B8AE"/>
<stop offset="0.19" stop-color="#00B8AE"/>
<stop offset="0.35" stop-color="#F753C3"/>
<stop offset="0.41" stop-color="#F753C3"/>
<stop offset="0.57" stop-color="#0080C8"/>
<stop offset="0.63" stop-color="#0080C8"/>
<stop offset="0.81" stop-color="#FCEA00"/>
<stop offset="0.88" stop-color="#FCEA00" stop-opacity="0.59"/>
<stop offset="0.96" stop-color="#FCEA00" stop-opacity="0.17"/>
<stop offset="0.99" stop-color="#FCEA00" stop-opacity="0"/>
</linearGradient>
<linearGradient id="paint6_linear_44_478" x1="1456.94" y1="1038.24" x2="-153.79" y2="1038.24" gradientUnits="userSpaceOnUse">
<stop offset="0.02" stop-color="#00B8AE" stop-opacity="0"/>
<stop offset="0.14" stop-color="#00B8AE"/>
<stop offset="0.19" stop-color="#00B8AE"/>
<stop offset="0.35" stop-color="#F753C3"/>
<stop offset="0.41" stop-color="#F753C3"/>
<stop offset="0.57" stop-color="#0080C8"/>
<stop offset="0.63" stop-color="#0080C8"/>
<stop offset="0.81" stop-color="#FCEA00"/>
<stop offset="0.88" stop-color="#FCEA00" stop-opacity="0.59"/>
<stop offset="0.96" stop-color="#FCEA00" stop-opacity="0.17"/>
<stop offset="0.99" stop-color="#FCEA00" stop-opacity="0"/>
</linearGradient>
<linearGradient id="paint7_linear_44_478" x1="1456.94" y1="1021.53" x2="-153.79" y2="1021.53" gradientUnits="userSpaceOnUse">
<stop offset="0.02" stop-color="#00B8AE" stop-opacity="0"/>
<stop offset="0.14" stop-color="#00B8AE"/>
<stop offset="0.19" stop-color="#00B8AE"/>
<stop offset="0.35" stop-color="#F753C3"/>
<stop offset="0.41" stop-color="#F753C3"/>
<stop offset="0.57" stop-color="#0080C8"/>
<stop offset="0.63" stop-color="#0080C8"/>
<stop offset="0.81" stop-color="#FCEA00"/>
<stop offset="0.88" stop-color="#FCEA00" stop-opacity="0.59"/>
<stop offset="0.96" stop-color="#FCEA00" stop-opacity="0.17"/>
<stop offset="0.99" stop-color="#FCEA00" stop-opacity="0"/>
</linearGradient>
<linearGradient id="paint8_linear_44_478" x1="1456.93" y1="774.481" x2="-153.791" y2="774.481" gradientUnits="userSpaceOnUse">
<stop offset="0.02" stop-color="#00B8AE" stop-opacity="0"/>
<stop offset="0.14" stop-color="#00B8AE"/>
<stop offset="0.19" stop-color="#00B8AE"/>
<stop offset="0.35" stop-color="#F753C3"/>
<stop offset="0.41" stop-color="#F753C3"/>
<stop offset="0.57" stop-color="#0080C8"/>
<stop offset="0.63" stop-color="#0080C8"/>
<stop offset="0.81" stop-color="#FCEA00"/>
<stop offset="0.88" stop-color="#FCEA00" stop-opacity="0.59"/>
<stop offset="0.96" stop-color="#FCEA00" stop-opacity="0.17"/>
<stop offset="0.99" stop-color="#FCEA00" stop-opacity="0"/>
</linearGradient>
<linearGradient id="paint9_linear_44_478" x1="1456.94" y1="988.146" x2="-153.789" y2="988.146" gradientUnits="userSpaceOnUse">
<stop offset="0.02" stop-color="#00B8AE" stop-opacity="0"/>
<stop offset="0.14" stop-color="#00B8AE"/>
<stop offset="0.19" stop-color="#00B8AE"/>
<stop offset="0.35" stop-color="#F753C3"/>
<stop offset="0.41" stop-color="#F753C3"/>
<stop offset="0.57" stop-color="#0080C8"/>
<stop offset="0.63" stop-color="#0080C8"/>
<stop offset="0.81" stop-color="#FCEA00"/>
<stop offset="0.88" stop-color="#FCEA00" stop-opacity="0.59"/>
<stop offset="0.96" stop-color="#FCEA00" stop-opacity="0.17"/>
<stop offset="0.99" stop-color="#FCEA00" stop-opacity="0"/>
</linearGradient>
<linearGradient id="paint10_linear_44_478" x1="1456.94" y1="1088.39" x2="-153.791" y2="1088.39" gradientUnits="userSpaceOnUse">
<stop offset="0.02" stop-color="#00B8AE" stop-opacity="0"/>
<stop offset="0.14" stop-color="#00B8AE"/>
<stop offset="0.19" stop-color="#00B8AE"/>
<stop offset="0.35" stop-color="#F753C3"/>
<stop offset="0.41" stop-color="#F753C3"/>
<stop offset="0.57" stop-color="#0080C8"/>
<stop offset="0.63" stop-color="#0080C8"/>
<stop offset="0.81" stop-color="#FCEA00"/>
<stop offset="0.88" stop-color="#FCEA00" stop-opacity="0.59"/>
<stop offset="0.96" stop-color="#FCEA00" stop-opacity="0.17"/>
<stop offset="0.99" stop-color="#FCEA00" stop-opacity="0"/>
</linearGradient>
<linearGradient id="paint11_linear_44_478" x1="1456.93" y1="1054.96" x2="-153.791" y2="1054.96" gradientUnits="userSpaceOnUse">
<stop offset="0.02" stop-color="#00B8AE" stop-opacity="0"/>
<stop offset="0.14" stop-color="#00B8AE"/>
<stop offset="0.19" stop-color="#00B8AE"/>
<stop offset="0.35" stop-color="#F753C3"/>
<stop offset="0.41" stop-color="#F753C3"/>
<stop offset="0.57" stop-color="#0080C8"/>
<stop offset="0.63" stop-color="#0080C8"/>
<stop offset="0.81" stop-color="#FCEA00"/>
<stop offset="0.88" stop-color="#FCEA00" stop-opacity="0.59"/>
<stop offset="0.96" stop-color="#FCEA00" stop-opacity="0.17"/>
<stop offset="0.99" stop-color="#FCEA00" stop-opacity="0"/>
</linearGradient>
<linearGradient id="paint12_linear_44_478" x1="1456.88" y1="1004.81" x2="-153.791" y2="1004.81" gradientUnits="userSpaceOnUse">
<stop offset="0.02" stop-color="#00B8AE" stop-opacity="0"/>
<stop offset="0.14" stop-color="#00B8AE"/>
<stop offset="0.19" stop-color="#00B8AE"/>
<stop offset="0.35" stop-color="#F753C3"/>
<stop offset="0.41" stop-color="#F753C3"/>
<stop offset="0.57" stop-color="#0080C8"/>
<stop offset="0.63" stop-color="#0080C8"/>
<stop offset="0.81" stop-color="#FCEA00"/>
<stop offset="0.88" stop-color="#FCEA00" stop-opacity="0.59"/>
<stop offset="0.96" stop-color="#FCEA00" stop-opacity="0.17"/>
<stop offset="0.99" stop-color="#FCEA00" stop-opacity="0"/>
</linearGradient>
<linearGradient id="paint13_linear_44_478" x1="1456.93" y1="806.356" x2="-153.791" y2="806.356" gradientUnits="userSpaceOnUse">
<stop offset="0.02" stop-color="#00B8AE" stop-opacity="0"/>
<stop offset="0.14" stop-color="#00B8AE"/>
<stop offset="0.19" stop-color="#00B8AE"/>
<stop offset="0.35" stop-color="#F753C3"/>
<stop offset="0.41" stop-color="#F753C3"/>
<stop offset="0.57" stop-color="#0080C8"/>
<stop offset="0.63" stop-color="#0080C8"/>
<stop offset="0.81" stop-color="#FCEA00"/>
<stop offset="0.88" stop-color="#FCEA00" stop-opacity="0.59"/>
<stop offset="0.96" stop-color="#FCEA00" stop-opacity="0.17"/>
<stop offset="0.99" stop-color="#FCEA00" stop-opacity="0"/>
</linearGradient>
<linearGradient id="paint14_linear_44_478" x1="-390.641" y1="421.587" x2="702.004" y2="421.587" gradientUnits="userSpaceOnUse">
<stop offset="0.02" stop-color="#00B8AE" stop-opacity="0"/>
<stop offset="0.14" stop-color="#00B8AE"/>
<stop offset="0.19" stop-color="#00B8AE"/>
<stop offset="0.35" stop-color="#F753C3"/>
<stop offset="0.41" stop-color="#F753C3"/>
<stop offset="0.57" stop-color="#0080C8"/>
<stop offset="0.63" stop-color="#0080C8"/>
<stop offset="0.81" stop-color="#FCEA00"/>
<stop offset="0.88" stop-color="#FCEA00" stop-opacity="0.59"/>
<stop offset="0.96" stop-color="#FCEA00" stop-opacity="0.17"/>
<stop offset="0.99" stop-color="#FCEA00" stop-opacity="0"/>
</linearGradient>
<linearGradient id="paint15_linear_44_478" x1="281.953" y1="530.07" x2="885.4" y2="530.07" gradientUnits="userSpaceOnUse">
<stop offset="0.02" stop-color="#00B8AE" stop-opacity="0"/>
<stop offset="0.14" stop-color="#00B8AE"/>
<stop offset="0.19" stop-color="#00B8AE"/>
<stop offset="0.35" stop-color="#F753C3"/>
<stop offset="0.41" stop-color="#F753C3"/>
<stop offset="0.57" stop-color="#0080C8"/>
<stop offset="0.63" stop-color="#0080C8"/>
<stop offset="0.81" stop-color="#FCEA00"/>
<stop offset="0.88" stop-color="#FCEA00" stop-opacity="0.59"/>
<stop offset="0.96" stop-color="#FCEA00" stop-opacity="0.17"/>
<stop offset="0.99" stop-color="#FCEA00" stop-opacity="0"/>
</linearGradient>
<linearGradient id="paint16_linear_44_478" x1="281.953" y1="448.529" x2="885.401" y2="448.529" gradientUnits="userSpaceOnUse">
<stop offset="0.02" stop-color="#00B8AE" stop-opacity="0"/>
<stop offset="0.14" stop-color="#00B8AE"/>
<stop offset="0.19" stop-color="#00B8AE"/>
<stop offset="0.35" stop-color="#F753C3"/>
<stop offset="0.41" stop-color="#F753C3"/>
<stop offset="0.57" stop-color="#0080C8"/>
<stop offset="0.63" stop-color="#0080C8"/>
<stop offset="0.81" stop-color="#FCEA00"/>
<stop offset="0.88" stop-color="#FCEA00" stop-opacity="0.59"/>
<stop offset="0.96" stop-color="#FCEA00" stop-opacity="0.17"/>
<stop offset="0.99" stop-color="#FCEA00" stop-opacity="0"/>
</linearGradient>
<linearGradient id="paint17_linear_44_478" x1="281.949" y1="552.367" x2="885.399" y2="552.367" gradientUnits="userSpaceOnUse">
<stop offset="0.02" stop-color="#00B8AE" stop-opacity="0"/>
<stop offset="0.14" stop-color="#00B8AE"/>
<stop offset="0.19" stop-color="#00B8AE"/>
<stop offset="0.35" stop-color="#F753C3"/>
<stop offset="0.41" stop-color="#F753C3"/>
<stop offset="0.57" stop-color="#0080C8"/>
<stop offset="0.63" stop-color="#0080C8"/>
<stop offset="0.81" stop-color="#FCEA00"/>
<stop offset="0.88" stop-color="#FCEA00" stop-opacity="0.59"/>
<stop offset="0.96" stop-color="#FCEA00" stop-opacity="0.17"/>
<stop offset="0.99" stop-color="#FCEA00" stop-opacity="0"/>
</linearGradient>
<linearGradient id="paint18_linear_44_478" x1="281.954" y1="472.461" x2="885.401" y2="472.461" gradientUnits="userSpaceOnUse">
<stop offset="0.02" stop-color="#00B8AE" stop-opacity="0"/>
<stop offset="0.14" stop-color="#00B8AE"/>
<stop offset="0.19" stop-color="#00B8AE"/>
<stop offset="0.35" stop-color="#F753C3"/>
<stop offset="0.41" stop-color="#F753C3"/>
<stop offset="0.57" stop-color="#0080C8"/>
<stop offset="0.63" stop-color="#0080C8"/>
<stop offset="0.81" stop-color="#FCEA00"/>
<stop offset="0.88" stop-color="#FCEA00" stop-opacity="0.59"/>
<stop offset="0.96" stop-color="#FCEA00" stop-opacity="0.17"/>
<stop offset="0.99" stop-color="#FCEA00" stop-opacity="0"/>
</linearGradient>
<linearGradient id="paint19_linear_44_478" x1="281.952" y1="460.495" x2="885.4" y2="460.495" gradientUnits="userSpaceOnUse">
<stop offset="0.02" stop-color="#00B8AE" stop-opacity="0"/>
<stop offset="0.14" stop-color="#00B8AE"/>
<stop offset="0.19" stop-color="#00B8AE"/>
<stop offset="0.35" stop-color="#F753C3"/>
<stop offset="0.41" stop-color="#F753C3"/>
<stop offset="0.57" stop-color="#0080C8"/>
<stop offset="0.63" stop-color="#0080C8"/>
<stop offset="0.81" stop-color="#FCEA00"/>
<stop offset="0.88" stop-color="#FCEA00" stop-opacity="0.59"/>
<stop offset="0.96" stop-color="#FCEA00" stop-opacity="0.17"/>
<stop offset="0.99" stop-color="#FCEA00" stop-opacity="0"/>
</linearGradient>
<linearGradient id="paint20_linear_44_478" x1="281.953" y1="577.449" x2="885.4" y2="577.449" gradientUnits="userSpaceOnUse">
<stop offset="0.02" stop-color="#00B8AE" stop-opacity="0"/>
<stop offset="0.14" stop-color="#00B8AE"/>
<stop offset="0.19" stop-color="#00B8AE"/>
<stop offset="0.35" stop-color="#F753C3"/>
<stop offset="0.41" stop-color="#F753C3"/>
<stop offset="0.57" stop-color="#0080C8"/>
<stop offset="0.63" stop-color="#0080C8"/>
<stop offset="0.81" stop-color="#FCEA00"/>
<stop offset="0.88" stop-color="#FCEA00" stop-opacity="0.59"/>
<stop offset="0.96" stop-color="#FCEA00" stop-opacity="0.17"/>
<stop offset="0.99" stop-color="#FCEA00" stop-opacity="0"/>
</linearGradient>
<linearGradient id="paint21_linear_44_478" x1="281.952" y1="571.173" x2="885.4" y2="571.173" gradientUnits="userSpaceOnUse">
<stop offset="0.02" stop-color="#00B8AE" stop-opacity="0"/>
<stop offset="0.14" stop-color="#00B8AE"/>
<stop offset="0.19" stop-color="#00B8AE"/>
<stop offset="0.35" stop-color="#F753C3"/>
<stop offset="0.41" stop-color="#F753C3"/>
<stop offset="0.57" stop-color="#0080C8"/>
<stop offset="0.63" stop-color="#0080C8"/>
<stop offset="0.81" stop-color="#FCEA00"/>
<stop offset="0.88" stop-color="#FCEA00" stop-opacity="0.59"/>
<stop offset="0.96" stop-color="#FCEA00" stop-opacity="0.17"/>
<stop offset="0.99" stop-color="#FCEA00" stop-opacity="0"/>
</linearGradient>
<linearGradient id="paint22_linear_44_478" x1="281.953" y1="478.433" x2="885.4" y2="478.433" gradientUnits="userSpaceOnUse">
<stop offset="0.02" stop-color="#00B8AE" stop-opacity="0"/>
<stop offset="0.14" stop-color="#00B8AE"/>
<stop offset="0.19" stop-color="#00B8AE"/>
<stop offset="0.35" stop-color="#F753C3"/>
<stop offset="0.41" stop-color="#F753C3"/>
<stop offset="0.57" stop-color="#0080C8"/>
<stop offset="0.63" stop-color="#0080C8"/>
<stop offset="0.81" stop-color="#FCEA00"/>
<stop offset="0.88" stop-color="#FCEA00" stop-opacity="0.59"/>
<stop offset="0.96" stop-color="#FCEA00" stop-opacity="0.17"/>
<stop offset="0.99" stop-color="#FCEA00" stop-opacity="0"/>
</linearGradient>
<linearGradient id="paint23_linear_44_478" x1="281.953" y1="558.643" x2="885.401" y2="558.643" gradientUnits="userSpaceOnUse">
<stop offset="0.02" stop-color="#00B8AE" stop-opacity="0"/>
<stop offset="0.14" stop-color="#00B8AE"/>
<stop offset="0.19" stop-color="#00B8AE"/>
<stop offset="0.35" stop-color="#F753C3"/>
<stop offset="0.41" stop-color="#F753C3"/>
<stop offset="0.57" stop-color="#0080C8"/>
<stop offset="0.63" stop-color="#0080C8"/>
<stop offset="0.81" stop-color="#FCEA00"/>
<stop offset="0.88" stop-color="#FCEA00" stop-opacity="0.59"/>
<stop offset="0.96" stop-color="#FCEA00" stop-opacity="0.17"/>
<stop offset="0.99" stop-color="#FCEA00" stop-opacity="0"/>
</linearGradient>
<linearGradient id="paint24_linear_44_478" x1="281.952" y1="596.275" x2="885.4" y2="596.275" gradientUnits="userSpaceOnUse">
<stop offset="0.02" stop-color="#00B8AE" stop-opacity="0"/>
<stop offset="0.14" stop-color="#00B8AE"/>
<stop offset="0.19" stop-color="#00B8AE"/>
<stop offset="0.35" stop-color="#F753C3"/>
<stop offset="0.41" stop-color="#F753C3"/>
<stop offset="0.57" stop-color="#0080C8"/>
<stop offset="0.63" stop-color="#0080C8"/>
<stop offset="0.81" stop-color="#FCEA00"/>
<stop offset="0.88" stop-color="#FCEA00" stop-opacity="0.59"/>
<stop offset="0.96" stop-color="#FCEA00" stop-opacity="0.17"/>
<stop offset="0.99" stop-color="#FCEA00" stop-opacity="0"/>
</linearGradient>
<linearGradient id="paint25_linear_44_478" x1="281.954" y1="583.724" x2="885.401" y2="583.724" gradientUnits="userSpaceOnUse">
<stop offset="0.02" stop-color="#00B8AE" stop-opacity="0"/>
<stop offset="0.14" stop-color="#00B8AE"/>
<stop offset="0.19" stop-color="#00B8AE"/>
<stop offset="0.35" stop-color="#F753C3"/>
<stop offset="0.41" stop-color="#F753C3"/>
<stop offset="0.57" stop-color="#0080C8"/>
<stop offset="0.63" stop-color="#0080C8"/>
<stop offset="0.81" stop-color="#FCEA00"/>
<stop offset="0.88" stop-color="#FCEA00" stop-opacity="0.59"/>
<stop offset="0.96" stop-color="#FCEA00" stop-opacity="0.17"/>
<stop offset="0.99" stop-color="#FCEA00" stop-opacity="0"/>
</linearGradient>
<linearGradient id="paint26_linear_44_478" x1="281.974" y1="564.898" x2="885.402" y2="564.898" gradientUnits="userSpaceOnUse">
<stop offset="0.02" stop-color="#00B8AE" stop-opacity="0"/>
<stop offset="0.14" stop-color="#00B8AE"/>
<stop offset="0.19" stop-color="#00B8AE"/>
<stop offset="0.35" stop-color="#F753C3"/>
<stop offset="0.41" stop-color="#F753C3"/>
<stop offset="0.57" stop-color="#0080C8"/>
<stop offset="0.63" stop-color="#0080C8"/>
<stop offset="0.81" stop-color="#FCEA00"/>
<stop offset="0.88" stop-color="#FCEA00" stop-opacity="0.59"/>
<stop offset="0.96" stop-color="#FCEA00" stop-opacity="0.17"/>
<stop offset="0.99" stop-color="#FCEA00" stop-opacity="0"/>
</linearGradient>
<linearGradient id="paint27_linear_44_478" x1="281.953" y1="490.399" x2="885.4" y2="490.399" gradientUnits="userSpaceOnUse">
<stop offset="0.02" stop-color="#00B8AE" stop-opacity="0"/>
<stop offset="0.14" stop-color="#00B8AE"/>
<stop offset="0.19" stop-color="#00B8AE"/>
<stop offset="0.35" stop-color="#F753C3"/>
<stop offset="0.41" stop-color="#F753C3"/>
<stop offset="0.57" stop-color="#0080C8"/>
<stop offset="0.63" stop-color="#0080C8"/>
<stop offset="0.81" stop-color="#FCEA00"/>
<stop offset="0.88" stop-color="#FCEA00" stop-opacity="0.59"/>
<stop offset="0.96" stop-color="#FCEA00" stop-opacity="0.17"/>
<stop offset="0.99" stop-color="#FCEA00" stop-opacity="0"/>
</linearGradient>
<linearGradient id="paint28_linear_44_478" x1="2612.7" y1="337.778" x2="1532.51" y2="337.778" gradientUnits="userSpaceOnUse">
<stop offset="0.02" stop-color="#00B8AE" stop-opacity="0"/>
<stop offset="0.14" stop-color="#00B8AE"/>
<stop offset="0.19" stop-color="#00B8AE"/>
<stop offset="0.35" stop-color="#F753C3"/>
<stop offset="0.41" stop-color="#F753C3"/>
<stop offset="0.57" stop-color="#0080C8"/>
<stop offset="0.63" stop-color="#0080C8"/>
<stop offset="0.81" stop-color="#FCEA00"/>
<stop offset="0.88" stop-color="#FCEA00" stop-opacity="0.59"/>
<stop offset="0.96" stop-color="#FCEA00" stop-opacity="0.17"/>
<stop offset="0.99" stop-color="#FCEA00" stop-opacity="0"/>
</linearGradient>
<linearGradient id="paint29_linear_44_478" x1="508.764" y1="910.678" x2="-252.971" y2="910.678" gradientUnits="userSpaceOnUse">
<stop offset="0.02" stop-color="#00B8AE" stop-opacity="0"/>
<stop offset="0.14" stop-color="#00B8AE"/>
<stop offset="0.19" stop-color="#00B8AE"/>
<stop offset="0.35" stop-color="#F753C3"/>
<stop offset="0.41" stop-color="#F753C3"/>
<stop offset="0.57" stop-color="#0080C8"/>
<stop offset="0.63" stop-color="#0080C8"/>
<stop offset="0.81" stop-color="#FCEA00"/>
<stop offset="0.88" stop-color="#FCEA00" stop-opacity="0.59"/>
<stop offset="0.96" stop-color="#FCEA00" stop-opacity="0.17"/>
<stop offset="0.99" stop-color="#FCEA00" stop-opacity="0"/>
</linearGradient>
<linearGradient id="paint30_linear_44_478" x1="508.766" y1="836.952" x2="-252.969" y2="836.952" gradientUnits="userSpaceOnUse">
<stop offset="0.02" stop-color="#00B8AE" stop-opacity="0"/>
<stop offset="0.14" stop-color="#00B8AE"/>
<stop offset="0.19" stop-color="#00B8AE"/>
<stop offset="0.35" stop-color="#F753C3"/>
<stop offset="0.41" stop-color="#F753C3"/>
<stop offset="0.57" stop-color="#0080C8"/>
<stop offset="0.63" stop-color="#0080C8"/>
<stop offset="0.81" stop-color="#FCEA00"/>
<stop offset="0.88" stop-color="#FCEA00" stop-opacity="0.59"/>
<stop offset="0.96" stop-color="#FCEA00" stop-opacity="0.17"/>
<stop offset="0.99" stop-color="#FCEA00" stop-opacity="0"/>
</linearGradient>
<linearGradient id="paint31_linear_44_478" x1="508.765" y1="1011.47" x2="-252.97" y2="1011.47" gradientUnits="userSpaceOnUse">
<stop offset="0.02" stop-color="#00B8AE" stop-opacity="0"/>
<stop offset="0.14" stop-color="#00B8AE"/>
<stop offset="0.19" stop-color="#00B8AE"/>
<stop offset="0.35" stop-color="#F753C3"/>
<stop offset="0.41" stop-color="#F753C3"/>
<stop offset="0.57" stop-color="#0080C8"/>
<stop offset="0.63" stop-color="#0080C8"/>
<stop offset="0.81" stop-color="#FCEA00"/>
<stop offset="0.88" stop-color="#FCEA00" stop-opacity="0.59"/>
<stop offset="0.96" stop-color="#FCEA00" stop-opacity="0.17"/>
<stop offset="0.99" stop-color="#FCEA00" stop-opacity="0"/>
</linearGradient>
<linearGradient id="paint32_linear_44_478" x1="508.764" y1="821.639" x2="-252.972" y2="821.639" gradientUnits="userSpaceOnUse">
<stop offset="0.02" stop-color="#00B8AE" stop-opacity="0"/>
<stop offset="0.14" stop-color="#00B8AE"/>
<stop offset="0.19" stop-color="#00B8AE"/>
<stop offset="0.35" stop-color="#F753C3"/>
<stop offset="0.41" stop-color="#F753C3"/>
<stop offset="0.57" stop-color="#0080C8"/>
<stop offset="0.63" stop-color="#0080C8"/>
<stop offset="0.81" stop-color="#FCEA00"/>
<stop offset="0.88" stop-color="#FCEA00" stop-opacity="0.59"/>
<stop offset="0.96" stop-color="#FCEA00" stop-opacity="0.17"/>
<stop offset="0.99" stop-color="#FCEA00" stop-opacity="0"/>
</linearGradient>
<linearGradient id="paint33_linear_44_478" x1="508.765" y1="971.311" x2="-252.97" y2="971.311" gradientUnits="userSpaceOnUse">
<stop offset="0.02" stop-color="#00B8AE" stop-opacity="0"/>
<stop offset="0.14" stop-color="#00B8AE"/>
<stop offset="0.19" stop-color="#00B8AE"/>
<stop offset="0.35" stop-color="#F753C3"/>
<stop offset="0.41" stop-color="#F753C3"/>
<stop offset="0.57" stop-color="#0080C8"/>
<stop offset="0.63" stop-color="#0080C8"/>
<stop offset="0.81" stop-color="#FCEA00"/>
<stop offset="0.88" stop-color="#FCEA00" stop-opacity="0.59"/>
<stop offset="0.96" stop-color="#FCEA00" stop-opacity="0.17"/>
<stop offset="0.99" stop-color="#FCEA00" stop-opacity="0"/>
</linearGradient>
<linearGradient id="paint34_linear_44_478" x1="508.764" y1="963.279" x2="-252.972" y2="963.279" gradientUnits="userSpaceOnUse">
<stop offset="0.02" stop-color="#00B8AE" stop-opacity="0"/>
<stop offset="0.14" stop-color="#00B8AE"/>
<stop offset="0.19" stop-color="#00B8AE"/>
<stop offset="0.35" stop-color="#F753C3"/>
<stop offset="0.41" stop-color="#F753C3"/>
<stop offset="0.57" stop-color="#0080C8"/>
<stop offset="0.63" stop-color="#0080C8"/>
<stop offset="0.81" stop-color="#FCEA00"/>
<stop offset="0.88" stop-color="#FCEA00" stop-opacity="0.59"/>
<stop offset="0.96" stop-color="#FCEA00" stop-opacity="0.17"/>
<stop offset="0.99" stop-color="#FCEA00" stop-opacity="0"/>
</linearGradient>
<linearGradient id="paint35_linear_44_478" x1="508.766" y1="844.595" x2="-252.97" y2="844.595" gradientUnits="userSpaceOnUse">
<stop offset="0.02" stop-color="#00B8AE" stop-opacity="0"/>
<stop offset="0.14" stop-color="#00B8AE"/>
<stop offset="0.19" stop-color="#00B8AE"/>
<stop offset="0.35" stop-color="#F753C3"/>
<stop offset="0.41" stop-color="#F753C3"/>
<stop offset="0.57" stop-color="#0080C8"/>
<stop offset="0.63" stop-color="#0080C8"/>
<stop offset="0.81" stop-color="#FCEA00"/>
<stop offset="0.88" stop-color="#FCEA00" stop-opacity="0.59"/>
<stop offset="0.96" stop-color="#FCEA00" stop-opacity="0.17"/>
<stop offset="0.99" stop-color="#FCEA00" stop-opacity="0"/>
</linearGradient>
<linearGradient id="paint36_linear_44_478" x1="508.763" y1="995.404" x2="-252.973" y2="995.404" gradientUnits="userSpaceOnUse">
<stop offset="0.02" stop-color="#00B8AE" stop-opacity="0"/>
<stop offset="0.14" stop-color="#00B8AE"/>
<stop offset="0.19" stop-color="#00B8AE"/>
<stop offset="0.35" stop-color="#F753C3"/>
<stop offset="0.41" stop-color="#F753C3"/>
<stop offset="0.57" stop-color="#0080C8"/>
<stop offset="0.63" stop-color="#0080C8"/>
<stop offset="0.81" stop-color="#FCEA00"/>
<stop offset="0.88" stop-color="#FCEA00" stop-opacity="0.59"/>
<stop offset="0.96" stop-color="#FCEA00" stop-opacity="0.17"/>
<stop offset="0.99" stop-color="#FCEA00" stop-opacity="0"/>
</linearGradient>
<linearGradient id="paint37_linear_44_478" x1="508.766" y1="979.342" x2="-252.969" y2="979.342" gradientUnits="userSpaceOnUse">
<stop offset="0.02" stop-color="#00B8AE" stop-opacity="0"/>
<stop offset="0.14" stop-color="#00B8AE"/>
<stop offset="0.19" stop-color="#00B8AE"/>
<stop offset="0.35" stop-color="#F753C3"/>
<stop offset="0.41" stop-color="#F753C3"/>
<stop offset="0.57" stop-color="#0080C8"/>
<stop offset="0.63" stop-color="#0080C8"/>
<stop offset="0.81" stop-color="#FCEA00"/>
<stop offset="0.88" stop-color="#FCEA00" stop-opacity="0.59"/>
<stop offset="0.96" stop-color="#FCEA00" stop-opacity="0.17"/>
<stop offset="0.99" stop-color="#FCEA00" stop-opacity="0"/>
</linearGradient>
<linearGradient id="paint38_linear_44_478" x1="508.764" y1="1019.47" x2="-252.996" y2="1019.47" gradientUnits="userSpaceOnUse">
<stop offset="0.02" stop-color="#00B8AE" stop-opacity="0"/>
<stop offset="0.14" stop-color="#00B8AE"/>
<stop offset="0.19" stop-color="#00B8AE"/>
<stop offset="0.35" stop-color="#F753C3"/>
<stop offset="0.41" stop-color="#F753C3"/>
<stop offset="0.57" stop-color="#0080C8"/>
<stop offset="0.63" stop-color="#0080C8"/>
<stop offset="0.81" stop-color="#FCEA00"/>
<stop offset="0.88" stop-color="#FCEA00" stop-opacity="0.59"/>
<stop offset="0.96" stop-color="#FCEA00" stop-opacity="0.17"/>
<stop offset="0.99" stop-color="#FCEA00" stop-opacity="0"/>
</linearGradient>
<linearGradient id="paint39_linear_44_478" x1="508.764" y1="859.909" x2="-252.971" y2="859.909" gradientUnits="userSpaceOnUse">
<stop offset="0.02" stop-color="#00B8AE" stop-opacity="0"/>
<stop offset="0.14" stop-color="#00B8AE"/>
<stop offset="0.19" stop-color="#00B8AE"/>
<stop offset="0.35" stop-color="#F753C3"/>
<stop offset="0.41" stop-color="#F753C3"/>
<stop offset="0.57" stop-color="#0080C8"/>
<stop offset="0.63" stop-color="#0080C8"/>
<stop offset="0.81" stop-color="#FCEA00"/>
<stop offset="0.88" stop-color="#FCEA00" stop-opacity="0.59"/>
<stop offset="0.96" stop-color="#FCEA00" stop-opacity="0.17"/>
<stop offset="0.99" stop-color="#FCEA00" stop-opacity="0"/>
</linearGradient>
<linearGradient id="paint40_linear_44_478" x1="508.765" y1="867.578" x2="-252.97" y2="867.578" gradientUnits="userSpaceOnUse">
<stop offset="0.02" stop-color="#00B8AE" stop-opacity="0"/>
<stop offset="0.14" stop-color="#00B8AE"/>
<stop offset="0.19" stop-color="#00B8AE"/>
<stop offset="0.35" stop-color="#F753C3"/>
<stop offset="0.41" stop-color="#F753C3"/>
<stop offset="0.57" stop-color="#0080C8"/>
<stop offset="0.63" stop-color="#0080C8"/>
<stop offset="0.81" stop-color="#FCEA00"/>
<stop offset="0.88" stop-color="#FCEA00" stop-opacity="0.59"/>
<stop offset="0.96" stop-color="#FCEA00" stop-opacity="0.17"/>
<stop offset="0.99" stop-color="#FCEA00" stop-opacity="0"/>
</linearGradient>
<clipPath id="clip0_44_478">
<rect width="384" height="59" fill="white" transform="translate(757 1338)"/>
</clipPath>
<clipPath id="clip1_44_478">
<rect width="184" height="26" fill="white" transform="translate(857 1405)"/>
</clipPath>
<clipPath id="clip2_44_478">
<rect width="1920" height="1536.6" fill="white"/>
</clipPath>
<clipPath id="clip3_44_478">
<rect width="934.603" height="575.238" fill="white" transform="translate(1004.45 659.048)"/>
</clipPath>
<clipPath id="clip4_44_478">
<rect width="1495.87" height="918.095" fill="white" transform="matrix(-1 0 0 1 2137.14 151.111)"/>
</clipPath>
<clipPath id="clip5_44_478">
<rect width="1297.78" height="921.905" fill="white" transform="matrix(-1 0 0 1 1136.51 451)"/>
</clipPath>
<clipPath id="clip6_44_478">
<rect width="1113.65" height="685.714" fill="white" transform="translate(-400.001 78.7302)"/>
</clipPath>
<clipPath id="clip7_44_478">
<rect width="486.204" height="346.079" fill="white" transform="translate(402 357)"/>
</clipPath>
<clipPath id="clip8_44_478">
<rect width="1100.95" height="675.556" fill="white" transform="matrix(-1 0 0 1 2621.95 0)"/>
</clipPath>
</defs>
</svg>
