<svg width="251" height="93" viewBox="0 0 251 93" fill="none" xmlns="http://www.w3.org/2000/svg">
<g clip-path="url(#clip0_204_2645)">
<rect width="251" height="59" fill="#00B9AF"/>
<path d="M41.544 12.552V19.464H59.016V12.552H41.544ZM31.432 49.16V56.072H53.064V49.16H31.432ZM27.72 29.576V58.76H34.824V36.36H48.968V58.504H56.456V29.576H27.72ZM37.512 -1.272V32.648H45.064V-1.272H37.512ZM5.704 42.952C4.232 47.368 1.48 51.848 -1.784 54.664C-0.0559998 55.624 2.952 57.672 4.296 58.888C7.688 55.496 10.952 50.12 12.872 44.68L5.704 42.952ZM14.216 45.512C16.712 48.776 19.336 53.384 20.36 56.392L26.824 53.256C25.608 50.312 22.92 46.024 20.296 42.76L14.216 45.512ZM9.16 18.824H17.032V24.712H9.16V18.824ZM9.16 30.344H17.032V36.36H9.16V30.344ZM9.16 7.24H17.032V13.128H9.16V7.24ZM2.184 1.16V42.44H24.328V1.16H2.184ZM80.008 16.968V47.56C80.008 55.624 82.312 58.12 90.504 58.12C92.168 58.12 99.208 58.12 100.936 58.12C108.616 58.12 110.728 54.344 111.624 42.312C109.448 41.8 106.184 40.392 104.456 38.984C103.944 49.032 103.432 51.144 100.296 51.144C98.632 51.144 92.872 51.144 91.528 51.144C88.52 51.144 88.008 50.696 88.008 47.56V16.968H80.008ZM80.264 4.808C87.816 7.752 96.776 12.744 101.64 16.84L106.76 10.056C101.64 6.344 92.808 1.544 85.256 -1.144L80.264 4.808ZM68.488 21.512C67.656 30.088 65.8 38.472 62.024 43.976L69.192 48.072C73.416 41.8 75.08 31.944 76.04 23.048L68.488 21.512ZM105.352 22.536C110.472 29.576 114.952 39.432 116.232 46.024L124.04 42.184C122.504 35.464 117.896 26.056 112.392 19.016L105.352 22.536ZM158.088 14.216H175.432V17.352H158.088V14.216ZM158.088 6.088H175.432V9.288H158.088V6.088ZM151.048 0.647999V22.856H182.792V0.647999H151.048ZM147.912 25.8V32.008H186.056V25.8H147.912ZM163.08 29.192V52.104L170.312 55.24V29.192H163.08ZM157.192 40.52L152.584 42.056C156.68 55.624 164.104 57.928 174.472 57.928H185.672C185.928 55.944 186.824 52.744 187.784 51.144C184.968 51.272 176.968 51.272 174.792 51.272C166.92 51.272 160.392 50.056 157.192 40.52ZM168.328 37.64V43.656H182.6V37.64H168.328ZM151.752 33.928C150.792 42.696 148.104 49.8 142.792 54.088C144.392 55.112 147.272 57.416 148.424 58.632C154.056 53.448 157.32 45.192 158.664 34.76L151.752 33.928ZM126.408 31.112L128.072 38.536C133.832 36.936 141.064 34.824 147.784 32.776L146.76 25.864C139.4 27.912 131.656 30.024 126.408 31.112ZM127.048 10.824V17.864H147.4V10.824H127.048ZM133.96 -1.272V49.736C133.96 50.632 133.704 50.888 132.936 50.888C132.168 50.888 129.928 50.888 127.624 50.824C128.52 52.872 129.416 56.008 129.608 57.928C133.704 57.928 136.52 57.672 138.44 56.456C140.424 55.304 141 53.32 141 49.8V-1.272H133.96ZM210.568 29.32V18.248H206.664V29.384C206.664 33.48 207.496 34.504 210.568 34.504C211.144 34.504 212.36 34.504 212.872 34.504C215.048 34.504 216.264 33.672 216.712 31.688C215.496 31.368 213.896 30.792 213.128 30.088C213 30.28 212.872 30.344 212.232 30.344C211.976 30.344 211.336 30.344 211.144 30.344C210.632 30.344 210.568 30.28 210.568 29.32ZM204.552 24.392V18.248H200.52V24.328C200.52 27.208 200.2 30.472 197.448 33.16C198.344 33.672 200.008 35.144 200.648 35.848C203.912 32.712 204.552 28.04 204.552 24.392ZM211.976 3.208H206.792V18.824H211.976V3.208ZM204.424 3.208H199.24V18.824H204.424V3.208ZM219.144 1.096H191.944V7.496H219.144V1.096ZM216.2 48.52H195.208V54.408H216.2V48.52ZM216.2 38.792H195.208V44.552H216.2V38.792ZM218.952 13.256H192.584V58.312H198.344V19.656H212.936V57.416H218.952V13.256ZM249.352 30.088H226.056L223.048 36.04H249.352V30.088ZM229.768 26.184L223.816 24.968C222.664 29.64 220.552 34.312 217.544 37.384C219.016 38.152 221.576 39.752 222.664 40.712C225.672 37.256 228.36 31.752 229.768 26.184ZM228.744 18.696V15.496H241.544V18.696H228.744ZM228.744 10.184V6.984H241.544V10.184H228.744ZM248.456 1.096H222.152V24.584H248.456V1.096ZM238.856 25.48H232.072V53.768H238.856V25.48ZM248.072 40.264H222.792V46.152H248.072V40.264ZM251.144 51.208H220.36V57.416H251.144V51.208Z" fill="#111111"/>
</g>
<g clip-path="url(#clip1_204_2645)">
<rect width="72" height="26" transform="translate(90 67)" fill="#FFEB00"/>
<path d="M108.432 94.824C109.944 94.824 111.12 94.56 111.816 94.224L111.144 91.608C110.568 91.824 109.824 91.992 108.912 91.992C107.064 91.992 105 91.416 104.112 90.048C108.096 89.184 110.736 85.896 110.736 81C110.736 75.24 107.064 71.88 101.928 71.88C96.792 71.88 93.168 75.24 93.168 81C93.168 86.112 96 89.472 100.296 90.192C101.664 92.88 104.304 94.824 108.432 94.824ZM101.928 87.432C98.808 87.432 96.768 85.032 96.768 81C96.768 77.232 98.808 74.928 101.928 74.928C105.048 74.928 107.136 77.208 107.136 81C107.136 85.032 105.048 87.432 101.928 87.432ZM124.32 90.288C127.512 90.288 129.504 88.872 131.112 86.616C132.528 84.6 133.44 82.512 133.944 80.088H130.824C130.536 82.104 129.84 83.64 128.808 84.96C127.608 86.544 126.144 87.6 124.632 87.6C122.712 87.6 121.32 86.808 121.32 85.248C121.32 81.552 129.288 80.856 129.288 75.84C129.288 73.368 127.536 71.88 124.848 71.88C122.208 71.88 120.24 73.632 120.24 76.416C120.24 80.28 124.848 84 128.856 87.408C130.584 88.848 131.76 89.568 133.056 90.312L134.616 87.552C133.848 87.144 132.456 86.304 131.04 85.2C127.848 82.68 123.048 79.056 123.048 76.296C123.048 74.952 123.792 74.232 124.92 74.232C125.976 74.232 126.6 74.928 126.6 75.96C126.6 79.56 118.176 80.088 118.176 85.344C118.176 88.272 120.312 90.288 124.32 90.288ZM141.288 90H145.056L146.52 85.464H153.24L154.704 90H158.616L152.16 72.168H147.648L141.288 90ZM147.288 82.728L147.96 80.736C148.56 78.864 149.232 76.8 149.808 74.856H149.904C150.528 76.776 151.2 78.864 151.8 80.736L152.472 82.728H147.288Z" fill="#111111"/>
</g>
<rect x="90" y="59" width="72" height="8" fill="#D50400"/>
<defs>
<clipPath id="clip0_204_2645">
<rect width="251" height="59" fill="white"/>
</clipPath>
<clipPath id="clip1_204_2645">
<rect width="72" height="26" fill="white" transform="translate(90 67)"/>
</clipPath>
</defs>
</svg>
