<svg width="1512" height="61" viewBox="0 0 1512 61" fill="none" xmlns="http://www.w3.org/2000/svg">
<g clip-path="url(#clip0_197_10163)">
<circle cx="37" cy="11" r="50" fill="#6B61C4"/>
<circle cx="107" cy="11" r="50" fill="#6B61C4"/>
<circle cx="177" cy="11" r="50" fill="#6B61C4"/>
<circle cx="247" cy="11" r="50" fill="#6B61C4"/>
<circle cx="317" cy="11" r="50" fill="#6B61C4"/>
<circle cx="387" cy="11" r="50" fill="#6B61C4"/>
<circle cx="457" cy="11" r="50" fill="#6B61C4"/>
<circle cx="527" cy="11" r="50" fill="#6B61C4"/>
<circle cx="597" cy="11" r="50" fill="#6B61C4"/>
<circle cx="667" cy="11" r="50" fill="#6B61C4"/>
<circle cx="737" cy="11" r="50" fill="#6B61C4"/>
<circle cx="807" cy="11" r="50" fill="#6B61C4"/>
<circle cx="877" cy="11" r="50" fill="#6B61C4"/>
<circle cx="947" cy="11" r="50" fill="#6B61C4"/>
<circle cx="1017" cy="11" r="50" fill="#6B61C4"/>
<circle cx="1087" cy="11" r="50" fill="#6B61C4"/>
<circle cx="1157" cy="11" r="50" fill="#6B61C4"/>
<circle cx="1227" cy="11" r="50" fill="#6B61C4"/>
<circle cx="1297" cy="11" r="50" fill="#6B61C4"/>
<circle cx="1367" cy="11" r="50" fill="#6B61C4"/>
<circle cx="1437" cy="11" r="50" fill="#6B61C4"/>
<circle cx="1507" cy="11" r="50" fill="#6B61C4"/>
</g>
<defs>
<clipPath id="clip0_197_10163">
<rect width="1539" height="61" fill="white" transform="translate(-13)"/>
</clipPath>
</defs>
</svg>
