<svg width="61" height="59" viewBox="0 0 61 59" fill="none" xmlns="http://www.w3.org/2000/svg">
<path d="M29.5625 48.25C27.5 48.9375 25.0312 49.2812 22.1562 49.2812C16.1562 49.2812 11.1979 47.4896 7.28125 43.9062C2.53125 39.5938 0.15625 33.2604 0.15625 24.9062C0.15625 16.4896 2.59375 10.125 7.46875 5.8125C11.4479 2.29167 16.3958 0.53125 22.3125 0.53125C28.2708 0.53125 33.2708 2.39583 37.3125 6.125C41.9792 10.4375 44.3125 16.4688 44.3125 24.2188C44.3125 28.3229 43.8125 31.7604 42.8125 34.5312C42 37.1771 40.8021 39.375 39.2188 41.125L44.5312 46.0938L39.5 51.3438L33.9375 46.0938C32.25 47.1146 30.7917 47.8333 29.5625 48.25ZM27.5 39.9375L22.8438 35.5L27.8125 30.3125L32.4688 34.75C33.1979 33.25 33.7083 31.9375 34 30.8125C34.4583 29.125 34.6875 27.1562 34.6875 24.9062C34.6875 19.7396 33.625 15.75 31.5 12.9375C29.3958 10.1042 26.3125 8.6875 22.25 8.6875C18.4375 8.6875 15.3958 10.0417 13.125 12.75C10.8542 15.4583 9.71875 19.5104 9.71875 24.9062C9.71875 31.2188 11.3438 35.7396 14.5938 38.4688C16.6979 40.2396 19.2188 41.125 22.1562 41.125C23.2604 41.125 24.3229 40.9896 25.3438 40.7188C25.9062 40.5729 26.625 40.3125 27.5 39.9375ZM59.5625 51.1875C59.1875 52.7292 58.4896 54.0625 57.4688 55.1875C56.3646 56.3958 55.0625 57.3021 53.5625 57.9062C52.0833 58.5312 51.0625 58.8438 50.5 58.8438V55.4062C52.2917 54.9062 53.6042 54.0729 54.4375 52.9062C55.2917 51.7396 55.7812 50.1042 55.9062 48H50.5V38.6875H60.125V46.75C60.125 48.1667 59.9375 49.6458 59.5625 51.1875Z" fill="white"/>
</svg>
