<svg width="238" height="47" viewBox="0 0 238 47" fill="none" xmlns="http://www.w3.org/2000/svg">
<g clip-path="url(#clip0_197_9648)">
<path d="M18.29 33.75C15.75 33.84 15.07 33.84 6.29 34.04C5.55089 34.0322 4.81221 34.079 4.08 34.18L3.17 29.71C4.42 29.81 6.17 29.86 10.75 29.91C11.1611 29.4529 11.5451 28.9721 11.9 28.47H9.46C7.82435 28.4366 6.18815 28.5 4.56 28.66V27.17H0.24C0.38789 26.3318 0.451541 25.4809 0.43 24.63V23.09C0.430686 22.2248 0.38395 21.3602 0.29 20.5C1.29 20.59 2.64 20.64 4.56 20.64H39.22C41.22 20.64 42.53 20.59 43.59 20.5C43.483 21.3926 43.4329 22.2911 43.44 23.19V24.67C43.4132 25.5078 43.4769 26.346 43.63 27.17H39.31V28.66C38.4 28.56 38.26 28.56 36.91 28.51C38.4714 29.669 39.921 30.9713 41.24 32.4L35.24 35.14C34.7426 34.4372 34.198 33.769 33.61 33.14L25.26 33.53V35.16H35.1C37.16 35.16 38.46 35.16 39.85 35.01V39.19C38.2375 39.0466 36.6188 38.9832 35 39H25.3V40.34H38.3C40.2025 40.3806 42.1057 40.3105 44 40.13V45.27C42.08 45.12 40 45.03 37.18 45.03H6.62C3.89 45.03 1.97 45.03 0 45.27V40.13C1.93076 40.3171 3.87039 40.3972 5.81 40.37H18.29V39H9.29C6.94 39 5.79 39 4.16 39.19V35C5.55 35.1 6.36 35.15 9.39 35.15H18.27L18.29 33.75ZM37.59 2.69003C39.7 2.69003 41.33 2.59003 42.77 2.45003V7.15003C41.0515 6.94418 39.3202 6.86397 37.59 6.91003H25.39V8.11003H35.57C37.1257 8.13459 38.6815 8.07115 40.23 7.92003V11.81C38.6812 11.6624 37.1256 11.599 35.57 11.62H8.4C6.8144 11.598 5.22877 11.6614 3.65 11.81V7.92003C5.22846 8.0732 6.81435 8.13664 8.4 8.11003H18.19V6.91003H6.34C4.64118 6.8849 2.94221 6.94831 1.25 7.10003V2.45003C2.74 2.59003 4.32 2.69003 6.53 2.69003H18.19C18.1897 1.96587 18.1261 1.24313 18 0.530029H25.59C25.4376 1.23951 25.3705 1.96464 25.39 2.69003H37.59ZM38.59 17.23C38.581 18.019 38.6278 18.8076 38.73 19.59C37.24 19.54 36.14 19.49 34.27 19.49H9.7C7.87 19.49 6.7 19.54 5.23 19.59C5.33137 18.8242 5.38148 18.0525 5.38 17.28V15C5.38135 14.2143 5.33124 13.4292 5.23 12.65C6.48 12.65 7.63 12.74 9.7 12.74H34.23C36.29 12.74 37.44 12.69 38.69 12.65C38.5891 13.4292 38.5423 14.2144 38.55 15L38.59 17.23ZM7.25 25.11H36.63V24H7.25V25.11ZM12.77 16.71H31.11V15.46H12.77V16.71ZM19.54 28.47C19.1644 28.9698 18.7639 29.4504 18.34 29.91C26.21 29.86 26.21 29.86 30.15 29.76C29.6593 29.3037 29.1453 28.8731 28.61 28.47H19.54Z" fill="black"/>
<path d="M53.18 18.15C51.5761 18.0959 49.9705 18.1762 48.38 18.39V10.8C49.971 11.0087 51.5762 11.0889 53.18 11.04H59.33V7C59.3499 4.99497 59.2396 2.99076 59 1H67.21C66.9822 2.99135 66.9119 4.99759 67 7V39.5C66.9371 41.6476 67.0341 43.7968 67.29 45.93H59C59.2283 43.7612 59.3251 41.5805 59.29 39.4V35.14C56.89 36.44 54.73 37.44 51.37 38.88C50.5 39.22 50.12 39.41 49.5 39.7L47.29 31.78C50.12 31.35 54.39 29.78 59.29 27.55V18.15H53.18ZM78.72 37C78.72 37.87 79.15 38.11 81.03 38.11C83.19 38.11 83.96 37.96 84.58 37.43C84.8799 37.0425 85.0637 36.5778 85.11 36.09C85.3923 34.1661 85.536 32.2245 85.54 30.28V27.46C87.7186 28.7369 90.079 29.6744 92.54 30.24C92.3 37.64 91.54 41.14 89.85 43.01C88.41 44.55 86.25 45.01 80.78 45.01C76.36 45.01 74.63 44.82 73.53 44.24C71.9 43.38 71.32 41.94 71.32 39.1V7C71.3483 4.99508 71.2414 2.99054 71 1H79C78.7574 2.99023 78.6638 4.99582 78.72 7V14.58C81.9925 12.713 84.9824 10.3897 87.6 7.68L92.79 13.87C92.26 14.26 92.12 14.35 91.44 14.87C87.4305 17.8866 83.1756 20.5626 78.72 22.87V37Z" fill="black"/>
<path d="M121.92 19C123.359 23.2612 125.753 27.1368 128.92 30.33C132.459 33.7924 136.697 36.4586 141.35 38.15C139.387 40.4825 137.77 43.0859 136.55 45.88C132.61 44.0058 128.998 41.5106 125.85 38.49C122.66 35.4475 120.099 31.8088 118.31 27.78C116.997 30.9683 115.147 33.9076 112.84 36.47C110.471 39.147 107.721 41.4616 104.68 43.34C103.071 44.295 101.4 45.1435 99.68 45.88C98.4339 43.2931 96.8611 40.8767 95 38.69C100.71 36.48 104.41 34.08 107.62 30.48C110.588 27.3227 112.473 23.3014 113 19H103.3C101.039 18.9354 98.7769 19.0323 96.53 19.29V11.23C98.7624 11.4585 101.006 11.5553 103.25 11.52H113.57C113.62 9.60003 113.62 8.52003 113.62 6.91003C113.665 5.19321 113.551 3.47595 113.28 1.78003H122.07C121.78 3.65003 121.78 3.65003 121.68 9.89003V11.52H132.63C134.89 11.5486 137.15 11.4518 139.4 11.23V19.3C137.165 19.0661 134.917 18.9693 132.67 19.01L121.92 19Z" fill="black"/>
<path d="M179.91 12.15C181.526 12.1841 183.142 12.1173 184.75 11.95C184.61 13.54 184.56 14.69 184.56 16.51V24.34C184.56 26.16 184.61 27.34 184.75 28.9C183.446 28.7496 182.132 28.6994 180.82 28.75H179.14C180.797 30.0192 182.352 31.4169 183.79 32.93L182.88 33.75C184.838 34.585 186.885 35.1955 188.98 35.57C188.74 40.04 188.07 42.44 186.72 43.73C185.37 45.02 182.59 45.41 175.72 45.41C167.37 45.41 165.5 44.55 165.5 40.76V33.22C163.617 36.5676 160.925 39.3901 157.67 41.43C154.453 43.5734 150.925 45.2092 147.21 46.28C146.237 43.7583 144.889 41.3983 143.21 39.28C149.21 37.79 152.53 36.28 155.98 33.47C157.645 32.1947 159.011 30.5699 159.98 28.71H152.63C151.204 28.6886 149.778 28.7554 148.36 28.91C148.507 27.3779 148.57 25.839 148.55 24.3V18.05C147.69 18.58 147.35 18.82 146.25 19.49C145.428 17.0508 144.263 14.7409 142.79 12.63C146.914 10.4742 150.555 7.50032 153.49 3.89C154.497 2.73142 155.311 1.41787 155.9 0L164.16 1.2C163.728 1.74471 163.34 2.32324 163 2.93H171.3C172.969 2.97532 174.639 2.91185 176.3 2.74L180.09 6.38C179.318 7.13481 178.596 7.9399 177.93 8.79C176.73 10.08 175.72 11.14 174.71 12.15H179.91ZM165.99 12.15C166.983 11.2147 167.881 10.183 168.67 9.07H158.5C157.5 10.18 156.77 10.95 155.5 12.15H165.99ZM155.62 18.43V22.32H162.24C162.477 21.0353 162.62 19.7353 162.67 18.43H155.62ZM167.52 28.75C167.33 29.33 167.28 29.47 167.09 29.95H172.9C172.73 31.2563 172.65 32.5727 172.66 33.89V37.4C172.66 38.6 173.19 38.79 177.12 38.79C181.54 38.79 181.78 38.6 182.02 34.56L179.14 37.25C177.495 35.143 175.555 33.2839 173.38 31.73L176.88 28.73L167.52 28.75ZM177.46 22.32V18.43H169.73C169.49 20.69 169.44 21.17 169.25 22.32H177.46Z" fill="black"/>
<path d="M210.15 26.83C208.991 27.0304 207.815 27.1109 206.64 27.07C205.64 27.07 204.96 27.07 203.47 26.98C203.373 26.0112 203.148 25.0596 202.8 24.15C203.58 24.2386 204.365 24.2853 205.15 24.29C205.92 24.29 206.15 24.15 206.15 23.67V23H200.53V24.44C200.52 25.3723 200.571 26.3042 200.68 27.23H193.62C193.773 25.9225 193.836 24.6062 193.81 23.29V16.37C193.826 15.2017 193.779 14.0334 193.67 12.87C194.67 12.96 195.67 13.01 196.93 13.01H209.22C210.71 13.01 211.67 13.01 212.82 12.91C212.73 14.26 212.73 14.35 212.73 16.32V23.14C212.734 23.6108 212.666 24.0794 212.53 24.53H214.7C214.406 23.8481 214.256 23.1127 214.26 22.37V14C214.26 12.8 214.26 11.6 214.17 10.45C215.42 10.54 216.17 10.54 217.86 10.54H227.27V9.50004H216.87C215.38 9.50004 215.23 9.50004 214.27 9.55004V9.00004C214.302 8.37713 214.302 7.75295 214.27 7.13004V3.36004C214.293 2.42949 214.229 1.49886 214.08 0.580039H221.23C221.112 1.19658 221.048 1.82234 221.04 2.45004H232.66C233.544 2.4792 234.429 2.41552 235.3 2.26004V6.14004C234.443 6.0106 233.576 5.96372 232.71 6.00004H221.09V7.00004H231.41C232.411 7.01734 233.412 6.98397 234.41 6.90004C234.382 7.12247 234.382 7.34761 234.41 7.57004C234.363 8.00169 234.346 8.43607 234.36 8.87004V11.22C234.33 11.8884 234.364 12.558 234.46 13.22C233.16 13.13 232.68 13.13 231.46 13.13H221.09V14.18H231.55C232.55 14.18 233.28 14.13 233.81 14.09V16.34C233.059 16.267 232.304 16.237 231.55 16.25H221.09V17.25H231.55C232.304 17.2692 233.059 17.2391 233.81 17.16V19.41C233.059 19.3395 232.304 19.3094 231.55 19.32H221.09V20.42H230.64V19.42C232.617 20.2252 234.71 20.7112 236.84 20.86C236.69 23.98 236.02 25.62 234.58 26.38C233.43 26.96 231.36 27.15 225.58 27.15C220.64 27.15 218.86 27.06 217.47 26.72V28.16H230.62C233.12 28.16 234.32 28.11 235.9 27.97V33.6C234.129 33.4284 232.349 33.365 230.57 33.41H228.1L232.75 35.14C232.08 35.72 231.6 36.14 230.69 36.96C230.26 37.3 229.88 37.64 229.11 38.21C231.783 38.9983 234.538 39.4814 237.32 39.65C235.854 41.6382 234.704 43.8409 233.91 46.18C227.52 45.03 223.63 43.44 219.79 40.52V43.64C211.92 45 209.23 45.36 202.56 46C201.22 46.14 200.69 46.24 199.39 46.43L198.58 40.91C197.011 41.5708 195.409 42.1482 193.78 42.64C192.998 40.5161 191.949 38.5 190.66 36.64C194.694 36.1149 198.635 35.0312 202.37 33.42H197.23C195.484 33.3782 193.738 33.4416 192 33.61V27.94C193.851 28.1106 195.711 28.1741 197.57 28.13H210.15V26.83ZM199.73 2.54004C199.748 1.87 199.698 1.19985 199.58 0.540039H207C206.841 1.1941 206.777 1.8677 206.81 2.54004H210.21C211.143 2.54887 212.076 2.48535 213 2.35004V6.53004C212.18 6.53004 211.84 6.43004 211 6.43004C210.814 6.96724 210.594 7.49169 210.34 8.00004C211.341 8.01679 212.342 7.98341 213.34 7.90004V12.08C212.464 11.9818 211.581 11.9484 210.7 11.98H195.26C194.138 11.9725 193.017 12.0225 191.9 12.13V7.82004C193.033 7.92745 194.171 7.97752 195.31 7.97004H195.79C195.58 7.44314 195.34 6.92893 195.07 6.43004C194.07 6.43004 193.78 6.48004 192.91 6.53004V2.35004C193.959 2.50172 195.02 2.56528 196.08 2.54004H199.73ZM205.58 37.35C203.888 38.4682 202.089 39.4161 200.21 40.18C201.84 40.08 203.71 39.94 205.58 39.75V37.35ZM206.16 16.85V15.65H200.54V16.85H206.16ZM206.16 20.55V19.3H200.54V20.55H206.16ZM204.38 8.00004C204.58 7.52004 204.67 7.33004 205.01 6.46004H201.12C201.41 7.13004 201.46 7.37004 201.7 8.00004H204.38ZM212.26 39C214.42 38.76 215.43 38.61 217.2 38.33C215.685 36.8701 214.406 35.1832 213.41 33.33H212.26V39ZM220.47 33.38C221.29 34.2554 222.225 35.0156 223.25 35.64C224.156 34.9559 225.005 34.2001 225.79 33.38H220.47ZM221.09 22.44C221.09 23.11 221.19 23.25 221.86 23.44C223.038 23.5835 224.224 23.647 225.41 23.63C229.41 23.63 229.97 23.48 230.35 22.48L221.09 22.44Z" fill="black"/>
</g>
<defs>
<clipPath id="clip0_197_9648">
<rect width="237.32" height="46.42" fill="white"/>
</clipPath>
</defs>
</svg>
