<svg width="238" height="47" viewBox="0 0 238 47" fill="none" xmlns="http://www.w3.org/2000/svg">
<g clip-path="url(#clip0_197_9713)">
<path d="M13.1 40C13.0718 41.923 13.1519 43.8461 13.34 45.76H5.52C5.73069 43.8776 5.82753 41.9842 5.81 40.09V28.47C5.81 25.59 5.81 25.3001 5.86 23.5201C4.99782 24.7328 4.06627 25.8948 3.07 27C2.46552 24.0261 1.43134 21.156 0 18.48C3.07697 15.332 5.53616 11.6348 7.25 7.58005C8.34506 5.17817 9.13456 2.64843 9.6 0.0500488L17.14 2.16005C16.27 4.51005 16.27 4.51005 15.55 6.58005C15.07 7.97005 14.3 9.79005 13.1 12.58V40ZM45.36 43.07C43.0356 42.8159 40.6981 42.7024 38.36 42.73H22.61C19.92 42.73 17.61 42.83 15.07 43.07V35C17.4792 35.2376 19.8992 35.3478 22.32 35.3301H38.12C40.56 35.3301 42.68 35.2401 45.36 35V43.07ZM17.42 5.00005C19.49 5.19005 21.31 5.29005 23.76 5.29005H37C39.35 5.29005 41.51 5.19005 43.53 5.00005V13C41.42 12.81 39.21 12.71 37.05 12.71H23.91C21.7431 12.6914 19.5766 12.7882 17.42 13V5.00005Z" fill="black"/>
<path d="M60.87 22.23C59.0638 25.0586 56.7878 27.5578 54.14 29.62L49.54 25.15C51.0515 24.0646 52.4487 22.8282 53.71 21.46H49.58C49.73 19.73 49.82 18.72 49.82 17.46V14.5C49.8347 12.9777 49.7713 11.4557 49.63 9.94C51.1785 10.0911 52.7343 10.1546 54.29 10.13H57C56.66 9.41 56.56 9.13 56.23 8.5H52.75C52.223 6.33776 51.4162 4.25351 50.35 2.3C53.42 2.35 55.68 2.4 56.88 2.4C70.61 2.4 81.75 1.49 87.17 0L91.73 6.19C88.7163 6.77998 85.6713 7.19733 82.61 7.44L87.07 8.11C86.8711 8.33046 86.6968 8.57188 86.55 8.83C86.2524 9.30596 85.8963 9.74271 85.49 10.13H87.75C89.419 10.1705 91.0889 10.107 92.75 9.94C92.6161 11.4226 92.5694 12.9119 92.61 14.4V17.4C92.5984 18.7805 92.6785 20.1602 92.85 21.53H89C90.49 22.77 91 23.25 92.74 24.93L87.94 30C85.9968 27.8001 83.9124 25.729 81.7 23.8C81.4782 24.6757 80.9264 25.4318 80.16 25.91C79.16 26.54 77.91 26.63 71.38 26.63H70.38C69.9 27.16 69.76 27.35 69.28 27.88H78.44C79.5634 27.9166 80.6879 27.853 81.8 27.69L86.37 31.48C85.825 31.8736 85.3253 32.3263 84.88 32.83C82.9935 34.6501 80.9525 36.303 78.78 37.77C82.2332 38.3755 85.7342 38.6667 89.24 38.64C90.49 38.64 91.89 38.59 94.43 38.49C93.218 40.7425 92.3132 43.1472 91.74 45.64C87.0852 45.5803 82.4497 45.0306 77.91 44C75.5465 43.498 73.2336 42.7817 71 41.86C65 44.21 60.3 45.17 51.32 45.75C50.6031 43.4263 49.5701 41.2123 48.25 39.17C54.97 39.17 59.14 38.79 63.61 37.68C62.4862 36.9023 61.4261 36.0362 60.44 35.09C57.9776 36.4559 55.3674 37.5362 52.66 38.31C51.6512 36.2403 50.3439 34.3299 48.78 32.64C55.78 30.96 59.29 29.28 62.26 26.16C61.02 25.73 60.83 25.35 60.83 23.76L60.87 22.23ZM60.87 18.77C60.8448 18.176 60.778 17.5846 60.67 17H67.49C67.4033 17.6864 67.3699 18.3785 67.39 19.07V20.5C67.39 21.31 67.49 21.31 71.57 21.31C76.08 21.31 76.13 21.31 76.23 18.39C77.2729 18.8452 78.3453 19.2294 79.44 19.54L82.71 16.75C84.39 17.91 84.96 18.34 85.71 18.91V15.91H74.71C75.5061 16.5079 76.2459 17.1773 76.92 17.91L71.4 20.98C70.3429 19.5094 69.1179 18.167 67.75 16.98L69.96 15.92H56.64V17L60.87 18.77ZM63.07 8.4C63.5 9.17 63.6 9.4 63.98 10.13H68.07C67.68 9.22 67.63 9.02 67.25 8.26L63.07 8.4ZM66.07 32.4C67.5362 33.625 69.1692 34.6351 70.92 35.4C72.6216 34.6854 74.18 33.6691 75.52 32.4H66.07ZM78.29 10.13C78.7575 9.36555 79.1589 8.56264 79.49 7.73C79.11 7.73 77.33 7.82 74.21 7.97C74.59 8.74 74.88 9.41 75.21 10.13H78.29Z" fill="black"/>
<path d="M105.7 18.48H103C101.46 18.48 100.5 18.53 98.7801 18.67C98.9201 16.99 98.9701 15.84 98.9701 13.73V6.82004C98.9701 4.82004 98.9201 3.41004 98.7801 1.87004C100.406 2.01798 102.038 2.0814 103.67 2.06004H111.35C113.019 2.08972 114.688 2.02629 116.35 1.87004C116.19 3.53166 116.123 5.20095 116.15 6.87004V9.17004C119.51 6.72004 122.44 3.17004 123.35 0.170044L131.18 1.47004C130.41 2.86004 130.31 3.01004 129.93 3.73004H134.11C135.412 3.75536 136.714 3.66501 138 3.46004L141.31 7.68004C140.64 8.83004 140.64 8.83004 139.68 10.51C138.151 13.1148 136.365 15.5603 134.35 17.81C137.033 19.2163 139.868 20.3101 142.8 21.07C141.758 23.3915 140.983 25.8237 140.49 28.32L139.24 27.84V40.37C139.213 42.1832 139.293 43.9964 139.48 45.8H132.09V43.8H125.27V45.8H118C118.173 44.2562 118.253 42.7034 118.24 41.15V28.15L116.75 28.67C116.546 26.936 116.06 25.247 115.31 23.67V29.48C114.224 29.3557 113.133 29.2922 112.04 29.29V34.47C113.29 34.19 114.25 33.9 116.7 33.18V39.85C111.8 41.39 106.7 42.68 100.04 44.07C99.2932 44.2223 98.5554 44.4159 97.8301 44.65L96.3401 37.3C97.2001 37.3 97.5801 37.3 98.6901 37.16V25.87C98.7481 24.2977 98.651 22.7234 98.4001 21.17H104.4C104.196 22.634 104.116 24.1126 104.16 25.59V36.24C104.78 36.15 104.97 36.1 105.65 35.96L105.7 18.48ZM105.7 12.39H109.7V8.26004H105.7V12.39ZM114.34 22.18C117.556 21.2079 120.624 19.8016 123.46 18C122.434 16.9992 121.501 15.9081 120.67 14.74C119.67 15.56 119.19 15.84 117.94 16.74C117.421 15.6336 116.809 14.5731 116.11 13.57V13.81C116.059 15.4449 116.109 17.0813 116.26 18.71C115.01 18.61 114.15 18.56 112.61 18.56H112V23.22C112.949 23.2415 113.899 23.1913 114.84 23.07L114.34 22.18ZM135.51 26.31C133.24 25.249 131.057 24.0119 128.98 22.61C127.063 24.0254 125.021 25.2638 122.88 26.31H135.51ZM125.67 9.89004C125.43 10.18 125.33 10.27 125.09 10.56C126.048 11.8747 127.178 13.0552 128.45 14.07C129.732 12.8407 130.83 11.4329 131.71 9.89004H125.67ZM125.23 37.3H132.05V32.83H125.23V37.3Z" fill="black"/>
<path d="M190 9.88996C188.461 11.5397 186.825 13.0958 185.1 14.55C186.746 16.0376 188.586 17.2957 190.57 18.29C189.272 20.5449 188.289 22.9676 187.65 25.49C186.35 24.58 186.16 24.49 185.1 23.76V30.53C185.082 31.7818 185.132 33.0336 185.25 34.28C184.195 34.2079 183.137 34.1912 182.08 34.23H179.58L183.66 35.62C182.99 37.06 182.66 37.62 182.27 38.4H183.66C185.475 38.4521 187.29 38.3584 189.09 38.12V45.12C187.001 44.9017 184.9 44.8082 182.8 44.84H165.31C163.196 44.8056 161.082 44.8991 158.98 45.12V39.56C157.691 37.6983 156.579 35.7196 155.66 33.65C154.433 38.1689 152.071 42.2995 148.8 45.65C147.524 43.4526 145.903 41.4742 144 39.79C146.524 37.2617 148.344 34.1179 149.28 30.67C150.48 26.5 150.86 21.22 150.86 9.30996C150.86 3.83996 150.86 2.87996 150.48 0.959961H157.82C157.63 2.44996 157.63 3.25996 157.63 10.96C158.489 9.92509 159.23 8.7982 159.84 7.59996L161.76 9.99996L164 8.15996C164.912 9.07772 165.761 10.0567 166.54 11.09C167.152 10.1011 167.69 9.06829 168.15 7.99996H165.15C164.188 7.98118 163.226 8.02796 162.27 8.13996V1.72996C163.836 1.95631 165.418 2.04664 167 1.99996H173C174.337 2.03922 175.675 1.96562 177 1.77996C177.123 2.95399 177.43 4.10134 177.91 5.17996C179.227 4.06277 180.37 2.75499 181.3 1.29996L185.62 4.50996C184.087 6.3052 182.415 7.97702 180.62 9.50996C181.05 10.09 181.19 10.28 181.67 10.86C183.202 9.65165 184.549 8.2267 185.67 6.62996L190 9.88996ZM144.15 22.89C144.93 19.6708 145.266 16.3602 145.15 13.05C145.15 11.85 145.15 11.46 145.1 9.92996L149.71 10.45C149.66 17.99 149.33 21.78 148.46 25.24L144.15 22.89ZM162.88 25.14C162.888 24.7559 162.872 24.3718 162.83 23.99C162.25 24.47 161.83 24.76 160.91 25.43C160.07 23.2575 158.94 21.2088 157.55 19.34C159.55 18.2471 161.384 16.8769 163 15.27C162.635 14.6859 162.216 14.1369 161.75 13.63C160.44 15.1019 159.03 16.4818 157.53 17.76C157.38 22.13 157.29 23.33 157.09 25.49C158.588 28.4657 160.478 31.2271 162.71 33.7C162.819 33.002 162.869 32.2962 162.86 31.59L162.88 25.14ZM165.71 34.22C163.98 34.22 162.97 34.27 162.63 34.27C161.664 35.5533 160.77 36.8886 159.95 38.27C161.29 38.27 162.2 38.36 163.88 38.36H165.88C165.47 37.3718 164.939 36.4381 164.3 35.58L168.23 34.19L165.71 34.22ZM181.39 22H182.83C181.679 21.0118 180.59 19.9531 179.57 18.83V20.4C178.693 20.3091 177.811 20.279 176.93 20.31H170.55C169.68 20.31 169.11 20.31 168.39 20.4V18.91C167.23 20.16 166.56 20.83 165.31 21.99H181.39V22ZM169.44 29.15H178.27V27.07H169.44V29.15ZM175.35 38.41C175.97 36.83 176.4 35.53 176.79 34.24H171C171.643 35.5951 172.204 36.9876 172.68 38.41H175.35ZM176.35 14.84C175.444 13.4232 174.629 11.9502 173.91 10.43C173.25 11.9641 172.46 13.4394 171.55 14.84H176.35Z" fill="black"/>
<path d="M208.66 13.25C209.718 13.2657 210.777 13.2189 211.83 13.11C211.39 12.77 211.15 12.62 210.53 12.19C213.79 8.98004 216.63 4.08004 217.35 0.290039L224.55 1.49004L223.78 3.36004C223.73 3.41004 223.49 4.03004 223.15 4.85004H232.47C234.263 4.9008 236.058 4.82059 237.84 4.61004V11.76C236.21 11.62 235.06 11.57 232.47 11.57H228.53V14.79H232.8C234.53 14.79 235.68 14.79 236.88 14.64C236.719 16.3784 236.655 18.1245 236.69 19.87V35C236.69 37.78 236.4 39 235.64 39.8C234.341 40.7215 232.755 41.1473 231.17 41C230.74 41 230.59 41 229.17 41C229.17 37.73 228.94 36.24 228.17 34.56C228.565 34.6453 228.966 34.6955 229.37 34.71C230.18 34.71 230.37 34.61 230.37 33.99V21.36H228.11V40.71C228.053 42.5035 228.133 44.2988 228.35 46.08H221.53C221.747 44.2988 221.827 42.5035 221.77 40.71V21.36H219.95V36.63C219.918 38.1991 219.982 39.7687 220.14 41.33H214.43L214.81 42.53L208.81 45.03C208.42 43.49 208.28 42.96 207.94 41.81C203.94 43.11 201.51 43.73 196.42 44.93C195.538 45.1197 194.672 45.3771 193.83 45.7L192.29 38.21C193.272 38.2206 194.253 38.1402 195.22 37.97V15.51C194.74 15.84 194.74 15.84 194.02 16.37C193.609 13.8163 192.901 11.3193 191.91 8.93004C195.91 6.67004 199.3 3.55004 200.69 0.820039H207.32C208.819 3.39701 210.905 5.58314 213.41 7.20004C211.927 8.86083 210.611 10.6628 209.48 12.58C208.23 11.52 207.8 11.19 206.93 10.32C206.855 10.8298 206.825 11.3451 206.84 11.86V13.25H208.66ZM201.26 11.81C201.258 11.3121 201.228 10.8146 201.17 10.32C200.185 11.3721 199.126 12.3513 198 13.25H201.31L201.26 11.81ZM206.45 9.89004C205.553 8.95871 204.733 7.95534 204 6.89004C203.264 7.95358 202.445 8.95677 201.55 9.89004H206.45ZM205.54 20.07V18.24H201.94V20.07H205.54ZM201.94 26.16H205.54V24.24H201.94V26.16ZM213.7 19.83C213.7 16.61 213.7 15.51 213.6 14.64C213.13 14.1803 212.632 13.7495 212.11 13.35C212.11 14.4 212.02 15.65 212.02 17.19V27.6C211.987 28.7841 212.017 29.9691 212.11 31.15C211.447 31.0644 210.778 31.0343 210.11 31.06H202V36.87C203.44 36.58 204.16 36.44 205.7 36.05C205.27 35.14 205.08 34.61 204.4 33.31L210.21 31.31C211.597 33.8242 212.755 36.4582 213.67 39.18C213.67 38.41 213.67 37.98 213.67 37.18L213.7 19.83ZM220 11.57C219.389 12.677 218.721 13.7518 218 14.79H221.64V11.57H220Z" fill="black"/>
</g>
<defs>
<clipPath id="clip0_197_9713">
<rect width="237.84" height="46.08" fill="white"/>
</clipPath>
</defs>
</svg>
