<svg width="1876" height="925" viewBox="0 0 1876 925" fill="none" xmlns="http://www.w3.org/2000/svg">
<g clip-path="url(#clip0_15_472)">
<path d="M1867.02 178.978C1867.21 179.115 1867.36 179.292 1867.47 179.497C1867.58 179.701 1867.64 179.928 1867.65 180.159C1867.65 180.39 1867.61 180.62 1867.51 180.831C1867.42 181.042 1867.28 181.23 1867.1 181.379L1845.38 203.104C1845.23 203.28 1845.04 203.421 1844.83 203.515C1844.62 203.608 1844.39 203.653 1844.16 203.645C1843.93 203.637 1843.7 203.577 1843.5 203.469C1843.29 203.362 1843.11 203.209 1842.98 203.022C1842.79 202.885 1842.64 202.707 1842.53 202.502C1842.43 202.297 1842.37 202.07 1842.36 201.839C1842.35 201.608 1842.4 201.378 1842.49 201.167C1842.59 200.956 1842.73 200.77 1842.91 200.621L1864.62 178.907C1864.77 178.729 1864.96 178.588 1865.17 178.493C1865.38 178.399 1865.61 178.353 1865.84 178.36C1866.07 178.367 1866.3 178.426 1866.5 178.533C1866.71 178.64 1866.88 178.792 1867.02 178.978Z" fill="#FF7D00"/>
<path d="M1867.02 203.022C1866.89 203.209 1866.71 203.362 1866.5 203.469C1866.3 203.577 1866.07 203.637 1865.84 203.645C1865.61 203.653 1865.38 203.608 1865.17 203.515C1864.96 203.421 1864.77 203.28 1864.62 203.104L1842.91 181.379C1842.73 181.231 1842.59 181.044 1842.49 180.833C1842.4 180.622 1842.35 180.392 1842.36 180.161C1842.37 179.93 1842.43 179.703 1842.53 179.498C1842.64 179.293 1842.79 179.115 1842.98 178.978C1843.12 178.792 1843.29 178.64 1843.5 178.533C1843.7 178.426 1843.93 178.367 1844.16 178.36C1844.39 178.353 1844.62 178.399 1844.83 178.493C1845.04 178.588 1845.23 178.729 1845.38 178.907L1867.1 200.621C1867.28 200.77 1867.42 200.958 1867.51 201.169C1867.61 201.38 1867.65 201.61 1867.65 201.841C1867.64 202.073 1867.58 202.299 1867.47 202.503C1867.36 202.708 1867.21 202.885 1867.02 203.022Z" fill="#FF7D00"/>
<path d="M1860.12 176.272C1860.12 179.727 1857.83 188.604 1855.01 188.604C1852.18 188.604 1849.88 179.727 1849.88 176.272C1849.88 172.817 1852.18 170 1855.01 170C1857.83 170 1860.12 172.807 1860.12 176.272Z" fill="#FF7D00"/>
<path d="M1849.88 205.738C1849.88 202.273 1852.18 193.396 1855.01 193.396C1857.83 193.396 1860.12 202.273 1860.12 205.738C1860.12 209.203 1857.83 212 1855.01 212C1852.18 212 1849.88 209.193 1849.88 205.738Z" fill="#FF7D00"/>
<path d="M1869.74 196.122C1866.27 196.122 1857.4 193.832 1857.4 191.005C1857.4 188.178 1866.27 185.878 1869.74 185.878C1873.2 185.878 1876 188.178 1876 191.005C1876 193.832 1873.19 196.122 1869.74 196.122Z" fill="#FF7D00"/>
<path d="M1840.27 185.878C1843.73 185.878 1852.6 188.178 1852.6 191.005C1852.6 193.832 1843.73 196.122 1840.27 196.122C1836.82 196.122 1834 193.832 1834 191.005C1834 188.178 1836.81 185.878 1840.27 185.878Z" fill="#FF7D00"/>
</g>
<g clip-path="url(#clip1_15_472)">
<path d="M56.4425 175.771C56.5578 175.859 56.6524 175.973 56.7192 176.105C56.786 176.236 56.8232 176.382 56.828 176.531C56.8328 176.679 56.8052 176.827 56.7471 176.963C56.689 177.099 56.602 177.219 56.4926 177.315L43.0442 191.281C42.9518 191.394 42.8358 191.485 42.7049 191.545C42.5741 191.605 42.4318 191.634 42.2887 191.629C42.1456 191.624 42.0055 191.585 41.8788 191.516C41.7522 191.447 41.6424 191.348 41.5575 191.229C41.4426 191.14 41.3485 191.026 41.2823 190.894C41.216 190.762 41.1794 190.616 41.1752 190.468C41.171 190.319 41.1992 190.172 41.2579 190.036C41.3165 189.9 41.4039 189.78 41.5136 189.685L54.9559 175.726C55.0478 175.612 55.1634 175.521 55.294 175.46C55.4246 175.399 55.5667 175.37 55.7098 175.374C55.8529 175.379 55.9931 175.417 56.12 175.485C56.2469 175.554 56.3572 175.652 56.4425 175.771Z" fill="#FF7D00"/>
<path d="M56.4425 191.229C56.3577 191.348 56.2478 191.447 56.1212 191.516C55.9945 191.585 55.8544 191.624 55.7113 191.629C55.5682 191.634 55.4259 191.605 55.2951 191.545C55.1642 191.485 55.0483 191.394 54.9559 191.281L41.5136 177.315C41.4039 177.22 41.3165 177.1 41.2579 176.964C41.1992 176.828 41.171 176.681 41.1752 176.532C41.1794 176.384 41.216 176.238 41.2823 176.106C41.3485 175.974 41.4426 175.86 41.5575 175.771C41.6428 175.652 41.7531 175.554 41.88 175.485C42.0069 175.417 42.1471 175.379 42.2902 175.374C42.4333 175.37 42.5755 175.399 42.706 175.46C42.8366 175.521 42.9522 175.612 43.0442 175.726L56.4926 189.685C56.602 189.781 56.689 189.901 56.7471 190.037C56.8052 190.173 56.8328 190.321 56.828 190.469C56.8232 190.618 56.786 190.764 56.7192 190.895C56.6524 191.027 56.5578 191.141 56.4425 191.229Z" fill="#FF7D00"/>
<path d="M52.1708 174.032C52.1708 176.253 50.7532 181.959 49.0032 181.959C47.2531 181.959 45.8292 176.253 45.8292 174.032C45.8292 171.811 47.2531 170 49.0032 170C50.7532 170 52.1708 171.804 52.1708 174.032Z" fill="#FF7D00"/>
<path d="M45.8292 192.974C45.8292 190.747 47.2531 185.041 49.0032 185.041C50.7532 185.041 52.1708 190.747 52.1708 192.974C52.1708 195.202 50.7532 197 49.0032 197C47.2531 197 45.8292 195.196 45.8292 192.974Z" fill="#FF7D00"/>
<path d="M58.1236 186.793C55.9783 186.793 50.4835 185.321 50.4835 183.503C50.4835 181.686 55.9783 180.207 58.1236 180.207C60.2688 180.207 62 181.686 62 183.503C62 185.321 60.2625 186.793 58.1236 186.793Z" fill="#FF7D00"/>
<path d="M39.8828 180.207C42.0217 180.207 47.5165 181.686 47.5165 183.503C47.5165 185.321 42.0217 186.793 39.8828 186.793C37.7438 186.793 36 185.321 36 183.503C36 181.686 37.7375 180.207 39.8828 180.207Z" fill="#FF7D00"/>
</g>
<g clip-path="url(#clip2_15_472)">
<path d="M1778.95 502.268C1779.09 502.378 1779.21 502.522 1779.3 502.688C1779.38 502.853 1779.43 503.037 1779.44 503.224C1779.44 503.411 1779.41 503.597 1779.33 503.768C1779.26 503.939 1779.15 504.091 1779.01 504.212L1761.94 521.798C1761.82 521.941 1761.68 522.055 1761.51 522.131C1761.34 522.207 1761.16 522.243 1760.98 522.237C1760.8 522.23 1760.62 522.182 1760.46 522.094C1760.3 522.007 1760.16 521.883 1760.05 521.732C1759.91 521.621 1759.79 521.477 1759.7 521.311C1759.62 521.145 1759.57 520.961 1759.57 520.774C1759.56 520.587 1759.6 520.401 1759.67 520.231C1759.75 520.06 1759.86 519.909 1760 519.788L1777.06 502.21C1777.18 502.067 1777.32 501.952 1777.49 501.876C1777.65 501.799 1777.83 501.762 1778.02 501.768C1778.2 501.773 1778.38 501.821 1778.54 501.908C1778.7 501.994 1778.84 502.117 1778.95 502.268Z" fill="#FF7D00"/>
<path d="M1778.95 521.732C1778.84 521.883 1778.7 522.007 1778.54 522.094C1778.38 522.182 1778.2 522.23 1778.02 522.237C1777.84 522.243 1777.66 522.207 1777.49 522.131C1777.32 522.055 1777.18 521.941 1777.06 521.798L1760 504.212C1759.86 504.091 1759.75 503.94 1759.67 503.769C1759.6 503.599 1759.56 503.413 1759.57 503.226C1759.57 503.039 1759.62 502.855 1759.7 502.689C1759.79 502.523 1759.91 502.379 1760.05 502.268C1760.16 502.117 1760.3 501.994 1760.46 501.908C1760.62 501.821 1760.8 501.773 1760.98 501.768C1761.17 501.762 1761.35 501.799 1761.51 501.876C1761.68 501.952 1761.82 502.067 1761.94 502.21L1779.01 519.788C1779.15 519.909 1779.26 520.061 1779.33 520.232C1779.41 520.403 1779.44 520.589 1779.44 520.776C1779.43 520.963 1779.38 521.147 1779.3 521.312C1779.21 521.478 1779.09 521.622 1778.95 521.732Z" fill="#FF7D00"/>
<path d="M1773.52 500.077C1773.52 502.875 1771.73 510.06 1769.5 510.06C1767.28 510.06 1765.48 502.875 1765.48 500.077C1765.48 497.28 1767.28 495 1769.5 495C1771.73 495 1773.52 497.272 1773.52 500.077Z" fill="#FF7D00"/>
<path d="M1765.48 523.931C1765.48 521.125 1767.28 513.94 1769.5 513.94C1771.73 513.94 1773.52 521.125 1773.52 523.931C1773.52 526.736 1771.73 529 1769.5 529C1767.28 529 1765.48 526.728 1765.48 523.931Z" fill="#FF7D00"/>
<path d="M1781.08 516.146C1778.36 516.146 1771.38 514.293 1771.38 512.004C1771.38 509.716 1778.36 507.854 1781.08 507.854C1783.8 507.854 1786 509.716 1786 512.004C1786 514.293 1783.79 516.146 1781.08 516.146Z" fill="#FF7D00"/>
<path d="M1757.93 507.854C1760.64 507.854 1767.62 509.716 1767.62 512.004C1767.62 514.293 1760.64 516.146 1757.93 516.146C1755.21 516.146 1753 514.293 1753 512.004C1753 509.716 1755.21 507.854 1757.93 507.854Z" fill="#FF7D00"/>
</g>
<g clip-path="url(#clip3_15_472)">
<path d="M1508.67 494.329C1508.91 494.502 1509.1 494.726 1509.24 494.984C1509.37 495.242 1509.45 495.528 1509.46 495.819C1509.47 496.111 1509.41 496.401 1509.29 496.668C1509.17 496.934 1509 497.171 1508.77 497.359L1481.36 524.773C1481.17 524.996 1480.93 525.174 1480.67 525.292C1480.4 525.411 1480.11 525.467 1479.82 525.457C1479.53 525.447 1479.24 525.371 1478.98 525.235C1478.73 525.099 1478.5 524.906 1478.33 524.671C1478.09 524.497 1477.9 524.273 1477.77 524.014C1477.63 523.755 1477.56 523.469 1477.55 523.178C1477.54 522.886 1477.6 522.596 1477.72 522.33C1477.84 522.064 1478.02 521.828 1478.24 521.641L1505.64 494.239C1505.83 494.016 1506.06 493.837 1506.33 493.718C1506.6 493.598 1506.89 493.541 1507.18 493.549C1507.47 493.558 1507.76 493.633 1508.01 493.768C1508.27 493.903 1508.5 494.095 1508.67 494.329Z" fill="#007EC6"/>
<path d="M1508.67 524.671C1508.5 524.906 1508.27 525.099 1508.02 525.235C1507.76 525.371 1507.47 525.447 1507.18 525.457C1506.89 525.467 1506.6 525.411 1506.33 525.292C1506.07 525.174 1505.83 524.996 1505.64 524.773L1478.24 497.359C1478.02 497.172 1477.84 496.936 1477.72 496.67C1477.6 496.404 1477.54 496.114 1477.55 495.822C1477.56 495.531 1477.63 495.245 1477.77 494.986C1477.9 494.727 1478.09 494.503 1478.33 494.329C1478.5 494.095 1478.73 493.903 1478.99 493.768C1479.24 493.633 1479.53 493.558 1479.82 493.549C1480.11 493.541 1480.4 493.598 1480.67 493.718C1480.94 493.837 1481.17 494.016 1481.36 494.239L1508.77 521.641C1509 521.829 1509.17 522.066 1509.29 522.332C1509.41 522.599 1509.47 522.889 1509.46 523.181C1509.45 523.472 1509.37 523.758 1509.24 524.016C1509.1 524.274 1508.91 524.498 1508.67 524.671Z" fill="#007EC6"/>
<path d="M1499.96 490.915C1499.96 495.275 1497.07 506.476 1493.51 506.476C1489.94 506.476 1487.04 495.275 1487.04 490.915C1487.04 486.555 1489.94 483 1493.51 483C1497.07 483 1499.96 486.542 1499.96 490.915Z" fill="#007EC6"/>
<path d="M1487.04 528.098C1487.04 523.725 1489.94 512.524 1493.51 512.524C1497.07 512.524 1499.96 523.725 1499.96 528.098C1499.96 532.471 1497.07 536 1493.51 536C1489.94 536 1487.04 532.458 1487.04 528.098Z" fill="#007EC6"/>
<path d="M1512.1 515.964C1507.72 515.964 1496.52 513.074 1496.52 509.506C1496.52 505.939 1507.72 503.036 1512.1 503.036C1516.47 503.036 1520 505.939 1520 509.506C1520 513.074 1516.46 515.964 1512.1 515.964Z" fill="#007EC6"/>
<path d="M1474.91 503.036C1479.28 503.036 1490.48 505.939 1490.48 509.506C1490.48 513.074 1479.28 515.964 1474.91 515.964C1470.55 515.964 1467 513.074 1467 509.506C1467 505.939 1470.54 503.036 1474.91 503.036Z" fill="#007EC6"/>
</g>
<g clip-path="url(#clip4_15_472)">
<path d="M539.656 563.344C539.767 563.425 539.858 563.531 539.922 563.653C539.986 563.774 540.022 563.909 540.027 564.047C540.032 564.184 540.005 564.321 539.949 564.447C539.893 564.573 539.81 564.684 539.704 564.773L526.773 577.704C526.684 577.81 526.573 577.893 526.447 577.949C526.321 578.005 526.184 578.032 526.047 578.027C525.909 578.022 525.774 577.987 525.653 577.922C525.531 577.858 525.425 577.767 525.344 577.656C525.233 577.574 525.143 577.468 525.079 577.346C525.015 577.224 524.98 577.089 524.976 576.952C524.972 576.814 524.999 576.677 525.056 576.552C525.112 576.426 525.196 576.315 525.302 576.227L538.227 563.302C538.315 563.196 538.426 563.112 538.552 563.056C538.677 562.999 538.814 562.972 538.952 562.976C539.089 562.98 539.224 563.015 539.346 563.079C539.468 563.143 539.574 563.233 539.656 563.344Z" fill="#007EC6"/>
<path d="M539.656 577.656C539.575 577.767 539.469 577.858 539.347 577.922C539.225 577.987 539.091 578.022 538.953 578.027C538.816 578.032 538.679 578.005 538.553 577.949C538.427 577.893 538.316 577.81 538.227 577.704L525.302 564.773C525.196 564.685 525.112 564.574 525.056 564.448C524.999 564.323 524.972 564.186 524.976 564.048C524.98 563.911 525.015 563.776 525.079 563.654C525.143 563.532 525.233 563.426 525.344 563.344C525.426 563.233 525.532 563.143 525.654 563.079C525.776 563.015 525.911 562.98 526.048 562.976C526.186 562.972 526.322 562.999 526.448 563.056C526.574 563.112 526.685 563.196 526.773 563.302L539.704 576.227C539.81 576.316 539.893 576.427 539.949 576.553C540.005 576.679 540.032 576.816 540.027 576.953C540.022 577.091 539.986 577.226 539.922 577.347C539.858 577.469 539.767 577.575 539.656 577.656Z" fill="#007EC6"/>
<path d="M535.549 561.733C535.549 563.79 534.186 569.074 532.503 569.074C530.82 569.074 529.451 563.79 529.451 561.733C529.451 559.677 530.82 558 532.503 558C534.186 558 535.549 559.671 535.549 561.733Z" fill="#007EC6"/>
<path d="M529.451 579.273C529.451 577.21 530.82 571.926 532.503 571.926C534.186 571.926 535.549 577.21 535.549 579.273C535.549 581.335 534.186 583 532.503 583C530.82 583 529.451 581.329 529.451 579.273Z" fill="#007EC6"/>
<path d="M541.273 573.549C539.21 573.549 533.926 572.186 533.926 570.503C533.926 568.82 539.21 567.451 541.273 567.451C543.335 567.451 545 568.82 545 570.503C545 572.186 543.329 573.549 541.273 573.549Z" fill="#007EC6"/>
<path d="M523.733 567.451C525.79 567.451 531.074 568.82 531.074 570.503C531.074 572.186 525.79 573.549 523.733 573.549C521.677 573.549 520 572.186 520 570.503C520 568.82 521.671 567.451 523.733 567.451Z" fill="#007EC6"/>
</g>
<g clip-path="url(#clip5_15_472)">
<path d="M1476.72 806.275C1476.81 806.34 1476.89 806.425 1476.94 806.522C1476.99 806.62 1477.02 806.727 1477.02 806.837C1477.03 806.948 1477 807.057 1476.96 807.158C1476.91 807.258 1476.85 807.348 1476.76 807.419L1466.42 817.764C1466.35 817.848 1466.26 817.915 1466.16 817.959C1466.06 818.004 1465.95 818.025 1465.84 818.022C1465.73 818.018 1465.62 817.989 1465.52 817.938C1465.42 817.886 1465.34 817.814 1465.28 817.725C1465.19 817.659 1465.11 817.575 1465.06 817.477C1465.01 817.379 1464.98 817.271 1464.98 817.161C1464.98 817.051 1465 816.942 1465.04 816.842C1465.09 816.741 1465.16 816.652 1465.24 816.581L1475.58 806.241C1475.65 806.157 1475.74 806.09 1475.84 806.045C1475.94 805.999 1476.05 805.978 1476.16 805.981C1476.27 805.984 1476.38 806.012 1476.48 806.063C1476.57 806.114 1476.66 806.187 1476.72 806.275Z" fill="#F753C3"/>
<path d="M1476.72 817.725C1476.66 817.814 1476.58 817.886 1476.48 817.938C1476.38 817.989 1476.27 818.018 1476.16 818.022C1476.05 818.025 1475.94 818.004 1475.84 817.959C1475.74 817.915 1475.65 817.848 1475.58 817.764L1465.24 807.419C1465.16 807.348 1465.09 807.259 1465.04 807.158C1465 807.058 1464.98 806.949 1464.98 806.839C1464.98 806.729 1465.01 806.621 1465.06 806.523C1465.11 806.425 1465.19 806.341 1465.28 806.275C1465.34 806.187 1465.43 806.114 1465.52 806.063C1465.62 806.012 1465.73 805.984 1465.84 805.981C1465.95 805.978 1466.06 805.999 1466.16 806.045C1466.26 806.09 1466.35 806.157 1466.42 806.241L1476.76 816.581C1476.85 816.652 1476.91 816.742 1476.96 816.842C1477 816.943 1477.03 817.052 1477.02 817.163C1477.02 817.273 1476.99 817.38 1476.94 817.478C1476.89 817.575 1476.81 817.66 1476.72 817.725Z" fill="#F753C3"/>
<path d="M1473.44 804.987C1473.44 806.632 1472.35 810.859 1471 810.859C1469.66 810.859 1468.56 806.632 1468.56 804.987C1468.56 803.341 1469.66 802 1471 802C1472.35 802 1473.44 803.337 1473.44 804.987Z" fill="#F753C3"/>
<path d="M1468.56 819.018C1468.56 817.368 1469.66 813.141 1471 813.141C1472.35 813.141 1473.44 817.368 1473.44 819.018C1473.44 820.668 1472.35 822 1471 822C1469.66 822 1468.56 820.663 1468.56 819.018Z" fill="#F753C3"/>
<path d="M1478.02 814.439C1476.37 814.439 1472.14 813.349 1472.14 812.002C1472.14 810.656 1476.37 809.561 1478.02 809.561C1479.67 809.561 1481 810.656 1481 812.002C1481 813.349 1479.66 814.439 1478.02 814.439Z" fill="#F753C3"/>
<path d="M1463.99 809.561C1465.63 809.561 1469.86 810.656 1469.86 812.002C1469.86 813.349 1465.63 814.439 1463.99 814.439C1462.34 814.439 1461 813.349 1461 812.002C1461 810.656 1462.34 809.561 1463.99 809.561Z" fill="#F753C3"/>
</g>
<g clip-path="url(#clip6_15_472)">
<path d="M571.87 489.13C571.976 489.208 572.064 489.31 572.125 489.427C572.187 489.544 572.221 489.673 572.226 489.805C572.23 489.937 572.205 490.068 572.151 490.189C572.098 490.31 572.017 490.417 571.916 490.502L559.502 502.916C559.417 503.017 559.31 503.098 559.189 503.151C559.068 503.205 558.937 503.23 558.805 503.226C558.673 503.221 558.544 503.187 558.427 503.125C558.31 503.064 558.208 502.976 558.13 502.87C558.024 502.791 557.937 502.689 557.876 502.572C557.815 502.455 557.781 502.326 557.777 502.194C557.773 502.062 557.799 501.93 557.853 501.81C557.908 501.689 557.988 501.583 558.09 501.498L570.498 489.09C570.583 488.988 570.689 488.908 570.81 488.853C570.93 488.799 571.062 488.773 571.194 488.777C571.326 488.781 571.455 488.815 571.572 488.876C571.689 488.937 571.791 489.024 571.87 489.13Z" fill="#F753C3"/>
<path d="M571.87 502.87C571.792 502.976 571.69 503.064 571.573 503.125C571.456 503.187 571.327 503.221 571.195 503.226C571.063 503.23 570.932 503.205 570.811 503.151C570.69 503.098 570.583 503.017 570.498 502.916L558.09 490.502C557.988 490.417 557.908 490.311 557.853 490.19C557.799 490.07 557.773 489.938 557.777 489.806C557.781 489.674 557.815 489.545 557.876 489.428C557.937 489.311 558.024 489.209 558.13 489.13C558.209 489.024 558.311 488.937 558.428 488.876C558.545 488.815 558.674 488.781 558.806 488.777C558.938 488.773 559.07 488.799 559.19 488.853C559.311 488.908 559.417 488.988 559.502 489.09L571.916 501.498C572.017 501.583 572.098 501.69 572.151 501.811C572.205 501.932 572.23 502.063 572.226 502.195C572.221 502.327 572.187 502.456 572.125 502.573C572.064 502.69 571.976 502.792 571.87 502.87Z" fill="#F753C3"/>
<path d="M567.927 487.584C567.927 489.559 566.618 494.631 565.003 494.631C563.387 494.631 562.073 489.559 562.073 487.584C562.073 485.61 563.387 484 565.003 484C566.618 484 567.927 485.604 567.927 487.584Z" fill="#F753C3"/>
<path d="M562.073 504.422C562.073 502.441 563.387 497.369 565.003 497.369C566.618 497.369 567.927 502.441 567.927 504.422C567.927 506.402 566.618 508 565.003 508C563.387 508 562.073 506.396 562.073 504.422Z" fill="#F753C3"/>
<path d="M573.422 498.927C571.442 498.927 566.369 497.618 566.369 496.003C566.369 494.387 571.442 493.073 573.422 493.073C575.402 493.073 577 494.387 577 496.003C577 497.618 575.396 498.927 573.422 498.927Z" fill="#F753C3"/>
<path d="M556.584 493.073C558.559 493.073 563.631 494.387 563.631 496.003C563.631 497.618 558.559 498.927 556.584 498.927C554.61 498.927 553 497.618 553 496.003C553 494.387 554.604 493.073 556.584 493.073Z" fill="#F753C3"/>
</g>
<g clip-path="url(#clip7_15_472)">
<path d="M362.457 473.543C362.697 473.719 362.894 473.947 363.032 474.21C363.171 474.473 363.248 474.764 363.258 475.061C363.268 475.358 363.211 475.654 363.09 475.926C362.969 476.197 362.789 476.438 362.562 476.63L334.63 504.562C334.438 504.789 334.197 504.969 333.926 505.09C333.654 505.211 333.358 505.268 333.061 505.258C332.764 505.248 332.473 505.171 332.21 505.032C331.947 504.893 331.719 504.697 331.543 504.457C331.304 504.28 331.108 504.051 330.971 503.788C330.833 503.524 330.757 503.233 330.749 502.936C330.74 502.639 330.798 502.343 330.92 502.072C331.042 501.801 331.224 501.561 331.451 501.37L359.37 473.451C359.561 473.224 359.801 473.042 360.072 472.92C360.343 472.798 360.639 472.74 360.936 472.749C361.233 472.757 361.524 472.833 361.788 472.971C362.051 473.108 362.28 473.304 362.457 473.543Z" fill="#F753C3"/>
<path d="M362.457 504.457C362.281 504.697 362.053 504.893 361.79 505.032C361.527 505.171 361.236 505.248 360.939 505.258C360.642 505.268 360.346 505.211 360.074 505.09C359.803 504.969 359.562 504.789 359.37 504.562L331.451 476.63C331.224 476.439 331.042 476.199 330.92 475.928C330.798 475.657 330.74 475.361 330.749 475.064C330.757 474.767 330.833 474.476 330.971 474.212C331.108 473.949 331.304 473.72 331.543 473.543C331.72 473.304 331.949 473.108 332.212 472.971C332.476 472.833 332.767 472.757 333.064 472.749C333.361 472.74 333.657 472.798 333.928 472.92C334.199 473.042 334.439 473.224 334.63 473.451L362.562 501.37C362.789 501.562 362.969 501.803 363.09 502.074C363.211 502.346 363.268 502.642 363.258 502.939C363.248 503.236 363.171 503.527 363.032 503.79C362.894 504.053 362.697 504.281 362.457 504.457Z" fill="#F753C3"/>
<path d="M353.585 470.064C353.585 474.507 350.641 485.919 347.006 485.919C343.372 485.919 340.414 474.507 340.414 470.064C340.414 465.622 343.372 462 347.006 462C350.641 462 353.585 465.609 353.585 470.064Z" fill="#F753C3"/>
<path d="M340.414 507.949C340.414 503.493 343.372 492.081 347.006 492.081C350.641 492.081 353.585 503.493 353.585 507.949C353.585 512.404 350.641 516 347.006 516C343.372 516 340.414 512.391 340.414 507.949Z" fill="#F753C3"/>
<path d="M365.949 495.586C361.493 495.586 350.081 492.641 350.081 489.007C350.081 485.372 361.493 482.414 365.949 482.414C370.404 482.414 374 485.372 374 489.007C374 492.641 370.391 495.586 365.949 495.586Z" fill="#F753C3"/>
<path d="M328.064 482.414C332.507 482.414 343.919 485.372 343.919 489.007C343.919 492.641 332.507 495.586 328.064 495.586C323.622 495.586 320 492.641 320 489.007C320 485.372 323.609 482.414 328.064 482.414Z" fill="#F753C3"/>
</g>
<g clip-path="url(#clip8_15_472)">
<path d="M1508.23 903.771C1508.35 903.859 1508.45 903.973 1508.52 904.105C1508.59 904.236 1508.62 904.382 1508.63 904.531C1508.63 904.679 1508.61 904.827 1508.55 904.963C1508.48 905.099 1508.39 905.219 1508.28 905.315L1494.32 919.281C1494.22 919.394 1494.1 919.485 1493.96 919.545C1493.83 919.605 1493.68 919.634 1493.53 919.629C1493.38 919.624 1493.24 919.585 1493.1 919.516C1492.97 919.447 1492.86 919.348 1492.77 919.229C1492.65 919.14 1492.55 919.026 1492.49 918.894C1492.42 918.762 1492.38 918.616 1492.37 918.468C1492.37 918.319 1492.4 918.172 1492.46 918.036C1492.52 917.9 1492.61 917.78 1492.73 917.685L1506.68 903.726C1506.78 903.612 1506.9 903.521 1507.04 903.46C1507.17 903.399 1507.32 903.37 1507.47 903.374C1507.62 903.379 1507.76 903.417 1507.89 903.485C1508.03 903.554 1508.14 903.652 1508.23 903.771Z" fill="#F753C3"/>
<path d="M1508.23 919.229C1508.14 919.348 1508.03 919.447 1507.9 919.516C1507.76 919.585 1507.62 919.624 1507.47 919.629C1507.32 919.634 1507.17 919.605 1507.04 919.545C1506.9 919.485 1506.78 919.394 1506.68 919.281L1492.73 905.315C1492.61 905.22 1492.52 905.1 1492.46 904.964C1492.4 904.828 1492.37 904.681 1492.37 904.532C1492.38 904.384 1492.42 904.238 1492.49 904.106C1492.55 903.974 1492.65 903.86 1492.77 903.771C1492.86 903.652 1492.97 903.554 1493.11 903.485C1493.24 903.417 1493.38 903.379 1493.53 903.374C1493.68 903.37 1493.83 903.399 1493.96 903.46C1494.1 903.521 1494.22 903.612 1494.32 903.726L1508.28 917.685C1508.39 917.781 1508.48 917.901 1508.55 918.037C1508.61 918.173 1508.63 918.321 1508.63 918.469C1508.62 918.618 1508.59 918.764 1508.52 918.895C1508.45 919.027 1508.35 919.141 1508.23 919.229Z" fill="#F753C3"/>
<path d="M1503.79 902.032C1503.79 904.253 1502.32 909.959 1500.5 909.959C1498.69 909.959 1497.21 904.253 1497.21 902.032C1497.21 899.811 1498.69 898 1500.5 898C1502.32 898 1503.79 899.804 1503.79 902.032Z" fill="#F753C3"/>
<path d="M1497.21 920.974C1497.21 918.747 1498.69 913.041 1500.5 913.041C1502.32 913.041 1503.79 918.747 1503.79 920.974C1503.79 923.202 1502.32 925 1500.5 925C1498.69 925 1497.21 923.196 1497.21 920.974Z" fill="#F753C3"/>
<path d="M1509.97 914.793C1507.75 914.793 1502.04 913.321 1502.04 911.503C1502.04 909.686 1507.75 908.207 1509.97 908.207C1512.2 908.207 1514 909.686 1514 911.503C1514 913.321 1512.2 914.793 1509.97 914.793Z" fill="#F753C3"/>
<path d="M1491.03 908.207C1493.25 908.207 1498.96 909.686 1498.96 911.503C1498.96 913.321 1493.25 914.793 1491.03 914.793C1488.81 914.793 1487 913.321 1487 911.503C1487 909.686 1488.8 908.207 1491.03 908.207Z" fill="#F753C3"/>
</g>
<g clip-path="url(#clip9_15_472)">
<path d="M525.037 808.963C525.348 809.191 525.603 809.487 525.782 809.828C525.962 810.169 526.062 810.546 526.075 810.931C526.088 811.316 526.014 811.699 525.858 812.052C525.701 812.404 525.467 812.716 525.172 812.965L488.965 849.172C488.716 849.467 488.404 849.701 488.052 849.858C487.699 850.014 487.316 850.088 486.931 850.075C486.546 850.062 486.169 849.962 485.828 849.782C485.487 849.603 485.191 849.348 484.963 849.037C484.653 848.808 484.4 848.511 484.221 848.169C484.043 847.828 483.945 847.45 483.933 847.065C483.922 846.68 483.998 846.297 484.156 845.945C484.314 845.594 484.549 845.282 484.844 845.035L521.035 808.844C521.282 808.549 521.594 808.314 521.945 808.156C522.297 807.998 522.68 807.922 523.065 807.933C523.45 807.945 523.828 808.043 524.169 808.221C524.511 808.4 524.808 808.653 525.037 808.963Z" fill="#FF7D00"/>
<path d="M525.037 849.037C524.809 849.348 524.513 849.603 524.172 849.782C523.831 849.962 523.454 850.062 523.069 850.075C522.684 850.088 522.301 850.014 521.948 849.858C521.596 849.701 521.284 849.467 521.035 849.172L484.844 812.965C484.549 812.718 484.314 812.406 484.156 812.055C483.998 811.703 483.922 811.32 483.933 810.935C483.945 810.55 484.043 810.172 484.221 809.831C484.4 809.489 484.653 809.192 484.963 808.963C485.192 808.653 485.489 808.4 485.831 808.221C486.172 808.043 486.55 807.945 486.935 807.933C487.32 807.922 487.703 807.998 488.055 808.156C488.406 808.314 488.717 808.549 488.965 808.844L525.172 845.035C525.467 845.284 525.701 845.596 525.858 845.948C526.014 846.301 526.088 846.684 526.075 847.069C526.062 847.454 525.962 847.831 525.782 848.172C525.603 848.513 525.348 848.809 525.037 849.037Z" fill="#FF7D00"/>
<path d="M513.537 804.454C513.537 810.212 509.72 825.006 505.008 825.006C500.297 825.006 496.463 810.212 496.463 804.454C496.463 798.695 500.297 794 505.008 794C509.72 794 513.537 798.678 513.537 804.454Z" fill="#FF7D00"/>
<path d="M496.463 853.563C496.463 847.788 500.297 832.994 505.008 832.994C509.72 832.994 513.537 847.788 513.537 853.563C513.537 859.339 509.72 864 505.008 864C500.297 864 496.463 859.322 496.463 853.563Z" fill="#FF7D00"/>
<path d="M529.563 837.537C523.788 837.537 508.994 833.72 508.994 829.008C508.994 824.297 523.788 820.463 529.563 820.463C535.339 820.463 540 824.297 540 829.008C540 833.72 535.322 837.537 529.563 837.537Z" fill="#FF7D00"/>
<path d="M480.454 820.463C486.212 820.463 501.006 824.297 501.006 829.008C501.006 833.72 486.212 837.537 480.454 837.537C474.695 837.537 470 833.72 470 829.008C470 824.297 474.678 820.463 480.454 820.463Z" fill="#FF7D00"/>
</g>
<g clip-path="url(#clip10_15_472)">
<path d="M1403.3 811.695C1403.46 811.812 1403.6 811.965 1403.69 812.14C1403.78 812.315 1403.83 812.509 1403.84 812.707C1403.85 812.906 1403.81 813.103 1403.73 813.284C1403.65 813.465 1403.53 813.626 1403.37 813.753L1384.75 832.374C1384.63 832.526 1384.46 832.646 1384.28 832.727C1384.1 832.807 1383.91 832.845 1383.71 832.839C1383.51 832.832 1383.32 832.781 1383.14 832.688C1382.96 832.596 1382.81 832.465 1382.7 832.305C1382.54 832.187 1382.41 832.034 1382.31 831.858C1382.22 831.683 1382.17 831.489 1382.17 831.29C1382.16 831.092 1382.2 830.896 1382.28 830.715C1382.36 830.534 1382.48 830.374 1382.63 830.247L1401.25 811.634C1401.37 811.482 1401.53 811.361 1401.71 811.28C1401.9 811.199 1402.09 811.16 1402.29 811.166C1402.49 811.172 1402.68 811.222 1402.86 811.314C1403.03 811.406 1403.19 811.536 1403.3 811.695Z" fill="#FF7D00"/>
<path d="M1403.3 832.305C1403.19 832.465 1403.04 832.596 1402.86 832.688C1402.68 832.781 1402.49 832.832 1402.29 832.839C1402.09 832.845 1401.9 832.807 1401.72 832.727C1401.54 832.646 1401.37 832.526 1401.25 832.374L1382.63 813.753C1382.48 813.626 1382.36 813.466 1382.28 813.285C1382.2 813.104 1382.16 812.908 1382.17 812.71C1382.17 812.511 1382.22 812.317 1382.31 812.141C1382.41 811.966 1382.54 811.813 1382.7 811.695C1382.81 811.536 1382.97 811.406 1383.14 811.314C1383.32 811.222 1383.51 811.172 1383.71 811.166C1383.91 811.16 1384.1 811.199 1384.29 811.28C1384.47 811.361 1384.63 811.482 1384.75 811.634L1403.37 830.247C1403.53 830.374 1403.65 830.535 1403.73 830.716C1403.81 830.897 1403.85 831.094 1403.84 831.293C1403.83 831.491 1403.78 831.685 1403.69 831.86C1403.6 832.035 1403.46 832.188 1403.3 832.305Z" fill="#FF7D00"/>
<path d="M1397.39 809.376C1397.39 812.338 1395.43 819.946 1393 819.946C1390.58 819.946 1388.61 812.338 1388.61 809.376C1388.61 806.414 1390.58 804 1393 804C1395.43 804 1397.39 806.406 1397.39 809.376Z" fill="#FF7D00"/>
<path d="M1388.61 834.633C1388.61 831.662 1390.58 824.054 1393 824.054C1395.43 824.054 1397.39 831.662 1397.39 834.633C1397.39 837.603 1395.43 840 1393 840C1390.58 840 1388.61 837.594 1388.61 834.633Z" fill="#FF7D00"/>
<path d="M1405.63 826.39C1402.66 826.39 1395.05 824.428 1395.05 822.004C1395.05 819.581 1402.66 817.61 1405.63 817.61C1408.6 817.61 1411 819.581 1411 822.004C1411 824.428 1408.59 826.39 1405.63 826.39Z" fill="#FF7D00"/>
<path d="M1380.38 817.61C1383.34 817.61 1390.95 819.581 1390.95 822.004C1390.95 824.428 1383.34 826.39 1380.38 826.39C1377.41 826.39 1375 824.428 1375 822.004C1375 819.581 1377.41 817.61 1380.38 817.61Z" fill="#FF7D00"/>
</g>
<g clip-path="url(#clip11_15_472)">
<path d="M1362.17 574.833C1362.37 574.983 1362.54 575.177 1362.66 575.401C1362.78 575.625 1362.84 575.873 1362.85 576.126C1362.86 576.379 1362.81 576.631 1362.71 576.863C1362.6 577.094 1362.45 577.299 1362.26 577.463L1338.46 601.256C1338.3 601.45 1338.09 601.604 1337.86 601.706C1337.63 601.809 1337.38 601.858 1337.13 601.85C1336.87 601.841 1336.63 601.775 1336.4 601.657C1336.18 601.539 1335.98 601.371 1335.83 601.167C1335.63 601.017 1335.46 600.821 1335.35 600.597C1335.23 600.372 1335.16 600.124 1335.16 599.871C1335.15 599.618 1335.2 599.367 1335.3 599.135C1335.41 598.904 1335.56 598.7 1335.75 598.537L1359.54 574.755C1359.7 574.561 1359.9 574.406 1360.14 574.302C1360.37 574.199 1360.62 574.149 1360.87 574.156C1361.12 574.164 1361.37 574.228 1361.6 574.346C1361.82 574.463 1362.02 574.629 1362.17 574.833Z" fill="#FF7D00"/>
<path d="M1362.17 601.167C1362.02 601.371 1361.82 601.539 1361.6 601.657C1361.37 601.775 1361.13 601.841 1360.87 601.85C1360.62 601.858 1360.37 601.809 1360.14 601.706C1359.91 601.604 1359.7 601.45 1359.54 601.256L1335.75 577.463C1335.56 577.3 1335.41 577.096 1335.3 576.865C1335.2 576.633 1335.15 576.382 1335.16 576.129C1335.16 575.876 1335.23 575.628 1335.35 575.403C1335.46 575.179 1335.63 574.983 1335.83 574.833C1335.98 574.629 1336.18 574.463 1336.4 574.346C1336.63 574.228 1336.88 574.164 1337.13 574.156C1337.38 574.149 1337.63 574.199 1337.86 574.302C1338.1 574.406 1338.3 574.561 1338.46 574.755L1362.26 598.537C1362.45 598.701 1362.6 598.906 1362.71 599.137C1362.81 599.369 1362.86 599.621 1362.85 599.874C1362.84 600.127 1362.78 600.375 1362.66 600.599C1362.54 600.823 1362.37 601.017 1362.17 601.167Z" fill="#FF7D00"/>
<path d="M1354.61 571.869C1354.61 575.654 1352.1 585.375 1349.01 585.375C1345.91 585.375 1343.39 575.654 1343.39 571.869C1343.39 568.085 1345.91 565 1349.01 565C1352.1 565 1354.61 568.074 1354.61 571.869Z" fill="#FF7D00"/>
<path d="M1343.39 604.142C1343.39 600.346 1345.91 590.625 1349.01 590.625C1352.1 590.625 1354.61 600.346 1354.61 604.142C1354.61 607.937 1352.1 611 1349.01 611C1345.91 611 1343.39 607.926 1343.39 604.142Z" fill="#FF7D00"/>
<path d="M1365.14 593.61C1361.35 593.61 1351.62 591.102 1351.62 588.006C1351.62 584.909 1361.35 582.39 1365.14 582.39C1368.94 582.39 1372 584.909 1372 588.006C1372 591.102 1368.93 593.61 1365.14 593.61Z" fill="#FF7D00"/>
<path d="M1332.87 582.39C1336.65 582.39 1346.38 584.909 1346.38 588.006C1346.38 591.102 1336.65 593.61 1332.87 593.61C1329.09 593.61 1326 591.102 1326 588.006C1326 584.909 1329.07 582.39 1332.87 582.39Z" fill="#FF7D00"/>
</g>
<g clip-path="url(#clip12_15_472)">
<path d="M766.16 191.84C766.302 191.944 766.418 192.08 766.501 192.235C766.583 192.391 766.629 192.564 766.635 192.74C766.64 192.916 766.606 193.091 766.535 193.252C766.463 193.413 766.356 193.556 766.222 193.67L749.67 210.222C749.556 210.356 749.413 210.463 749.252 210.535C749.091 210.606 748.916 210.64 748.74 210.634C748.564 210.629 748.391 210.583 748.236 210.501C748.08 210.418 747.944 210.302 747.84 210.16C747.699 210.055 747.583 209.919 747.501 209.763C747.42 209.607 747.375 209.434 747.37 209.258C747.364 209.082 747.399 208.907 747.471 208.746C747.543 208.586 747.651 208.443 747.786 208.33L764.33 191.786C764.443 191.651 764.586 191.543 764.746 191.471C764.907 191.399 765.082 191.364 765.258 191.369C765.434 191.375 765.607 191.42 765.763 191.501C765.919 191.583 766.055 191.699 766.16 191.84Z" fill="#FF7D00"/>
<path d="M766.16 210.16C766.056 210.302 765.92 210.418 765.765 210.501C765.609 210.583 765.436 210.629 765.26 210.634C765.084 210.64 764.909 210.606 764.748 210.535C764.587 210.463 764.444 210.356 764.33 210.222L747.786 193.67C747.651 193.557 747.543 193.414 747.471 193.254C747.399 193.093 747.364 192.918 747.37 192.742C747.375 192.566 747.42 192.393 747.501 192.237C747.583 192.081 747.699 191.945 747.84 191.84C747.945 191.699 748.081 191.583 748.237 191.501C748.393 191.42 748.566 191.375 748.742 191.369C748.918 191.364 749.093 191.399 749.254 191.471C749.414 191.543 749.557 191.651 749.67 191.786L766.222 208.33C766.356 208.444 766.463 208.587 766.535 208.748C766.606 208.909 766.64 209.084 766.635 209.26C766.629 209.436 766.583 209.609 766.501 209.765C766.418 209.92 766.302 210.056 766.16 210.16Z" fill="#FF7D00"/>
<path d="M760.902 189.779C760.902 192.411 759.158 199.174 757.004 199.174C754.85 199.174 753.097 192.411 753.097 189.779C753.097 187.146 754.85 185 757.004 185C759.158 185 760.902 187.138 760.902 189.779Z" fill="#FF7D00"/>
<path d="M753.097 212.229C753.097 209.589 754.85 202.826 757.004 202.826C759.158 202.826 760.902 209.589 760.902 212.229C760.902 214.869 759.158 217 757.004 217C754.85 217 753.097 214.862 753.097 212.229Z" fill="#FF7D00"/>
<path d="M768.229 204.903C765.589 204.903 758.826 203.158 758.826 201.004C758.826 198.85 765.589 197.097 768.229 197.097C770.869 197.097 773 198.85 773 201.004C773 203.158 770.862 204.903 768.229 204.903Z" fill="#FF7D00"/>
<path d="M745.779 197.097C748.411 197.097 755.174 198.85 755.174 201.004C755.174 203.158 748.411 204.903 745.779 204.903C743.146 204.903 741 203.158 741 201.004C741 198.85 743.138 197.097 745.779 197.097Z" fill="#FF7D00"/>
</g>
<g clip-path="url(#clip13_15_472)">
<path d="M1331.09 7.90881C1331.26 8.0295 1331.39 8.18582 1331.49 8.36603C1331.58 8.54625 1331.63 8.74566 1331.64 8.94927C1331.65 9.15289 1331.61 9.35542 1331.52 9.54163C1331.44 9.72784 1331.32 9.89289 1331.16 10.0244L1312.02 29.1626C1311.89 29.3182 1311.73 29.442 1311.54 29.5247C1311.36 29.6074 1311.15 29.6467 1310.95 29.6399C1310.75 29.633 1310.55 29.58 1310.37 29.485C1310.19 29.39 1310.03 29.2553 1309.91 29.0912C1309.75 28.9698 1309.61 28.8129 1309.52 28.6323C1309.42 28.4518 1309.37 28.2522 1309.36 28.0486C1309.36 27.845 1309.4 27.6426 1309.48 27.4568C1309.57 27.271 1309.69 27.1065 1309.85 26.9756L1328.98 7.84632C1329.11 7.69019 1329.27 7.56575 1329.46 7.48233C1329.64 7.39892 1329.84 7.35871 1330.05 7.36472C1330.25 7.37074 1330.45 7.42282 1330.63 7.51705C1330.81 7.61129 1330.97 7.74523 1331.09 7.90881Z" fill="#FF7D00"/>
<path d="M1331.09 29.0912C1330.97 29.2553 1330.81 29.39 1330.63 29.485C1330.45 29.58 1330.25 29.633 1330.05 29.6399C1329.85 29.6467 1329.64 29.6074 1329.46 29.5247C1329.27 29.442 1329.11 29.3182 1328.98 29.1626L1309.85 10.0244C1309.69 9.89354 1309.57 9.72903 1309.48 9.5432C1309.4 9.35737 1309.36 9.15505 1309.36 8.95144C1309.37 8.74784 1309.42 8.54824 1309.52 8.36766C1309.61 8.18707 1309.75 8.03019 1309.91 7.90881C1310.03 7.74523 1310.19 7.61129 1310.37 7.51705C1310.55 7.42282 1310.75 7.37074 1310.95 7.36472C1311.16 7.35871 1311.36 7.39892 1311.54 7.48233C1311.73 7.56575 1311.89 7.69019 1312.02 7.84632L1331.16 26.9756C1331.32 27.1071 1331.44 27.2722 1331.52 27.4584C1331.61 27.6446 1331.65 27.8471 1331.64 28.0507C1331.63 28.2543 1331.58 28.4538 1331.49 28.634C1331.39 28.8142 1331.26 28.9705 1331.09 29.0912Z" fill="#FF7D00"/>
<path d="M1325.01 5.52545C1325.01 8.56936 1322.99 16.3889 1320.5 16.3889C1318.01 16.3889 1315.99 8.56936 1315.99 5.52545C1315.99 2.48154 1318.01 0 1320.5 0C1322.99 0 1325.01 2.47262 1325.01 5.52545Z" fill="#FF7D00"/>
<path d="M1315.99 31.4835C1315.99 28.4306 1318.01 20.6111 1320.5 20.6111C1322.99 20.6111 1325.01 28.4306 1325.01 31.4835C1325.01 34.5363 1322.99 37 1320.5 37C1318.01 37 1315.99 34.5274 1315.99 31.4835Z" fill="#FF7D00"/>
<path d="M1333.48 23.0123C1330.43 23.0123 1322.61 20.9949 1322.61 18.5044C1322.61 16.014 1330.43 13.9877 1333.48 13.9877C1336.54 13.9877 1339 16.014 1339 18.5044C1339 20.9949 1336.53 23.0123 1333.48 23.0123Z" fill="#FF7D00"/>
<path d="M1307.53 13.9877C1310.57 13.9877 1318.39 16.014 1318.39 18.5044C1318.39 20.9949 1310.57 23.0123 1307.53 23.0123C1304.48 23.0123 1302 20.9949 1302 18.5044C1302 16.014 1304.47 13.9877 1307.53 13.9877Z" fill="#FF7D00"/>
</g>
<g clip-path="url(#clip14_15_472)">
<path d="M1370.25 231.536C1370.49 231.714 1370.69 231.943 1370.83 232.207C1370.97 232.471 1371.05 232.763 1371.06 233.06C1371.07 233.358 1371.01 233.653 1370.88 233.925C1370.76 234.196 1370.57 234.436 1370.34 234.627L1341.9 262.552C1341.7 262.779 1341.46 262.959 1341.18 263.08C1340.91 263.201 1340.61 263.26 1340.31 263.251C1340.01 263.243 1339.71 263.168 1339.44 263.031C1339.17 262.895 1338.94 262.701 1338.76 262.464C1338.52 262.287 1338.32 262.058 1338.18 261.795C1338.03 261.531 1337.96 261.24 1337.95 260.942C1337.94 260.645 1338 260.349 1338.12 260.077C1338.24 259.805 1338.43 259.565 1338.66 259.373L1367.1 231.448C1367.3 231.219 1367.54 231.037 1367.82 230.915C1368.09 230.793 1368.39 230.734 1368.7 230.742C1369 230.751 1369.3 230.827 1369.57 230.964C1369.84 231.102 1370.07 231.297 1370.25 231.536V231.536Z" fill="#FCEA00"/>
<path d="M1370.25 262.464C1370.07 262.703 1369.84 262.898 1369.57 263.036C1369.3 263.173 1369 263.249 1368.7 263.258C1368.39 263.266 1368.09 263.207 1367.82 263.085C1367.54 262.963 1367.3 262.781 1367.1 262.552L1338.66 234.627C1338.43 234.435 1338.24 234.195 1338.12 233.923C1338 233.651 1337.94 233.355 1337.95 233.058C1337.96 232.76 1338.03 232.469 1338.18 232.205C1338.32 231.942 1338.52 231.713 1338.76 231.536C1338.94 231.299 1339.17 231.105 1339.44 230.969C1339.71 230.832 1340.01 230.757 1340.31 230.749C1340.61 230.74 1340.91 230.799 1341.18 230.92C1341.46 231.041 1341.7 231.221 1341.9 231.448L1370.34 259.373C1370.57 259.564 1370.76 259.804 1370.88 260.075C1371.01 260.347 1371.07 260.642 1371.06 260.94C1371.05 261.237 1370.97 261.529 1370.83 261.793C1370.69 262.057 1370.49 262.286 1370.25 262.464V262.464Z" fill="#FCEA00"/>
<path d="M1361.21 228.062C1361.21 232.511 1358.2 243.919 1354.5 243.919C1350.8 243.919 1347.79 232.511 1347.79 228.062C1347.79 223.612 1350.8 220 1354.5 220C1358.2 220 1361.21 223.612 1361.21 228.062Z" fill="#FCEA00"/>
<path d="M1347.79 265.938C1347.79 261.489 1350.8 250.081 1354.5 250.081C1358.2 250.081 1361.21 261.489 1361.21 265.938C1361.21 270.388 1358.2 274 1354.5 274C1350.8 274 1347.79 270.388 1347.79 265.938Z" fill="#FCEA00"/>
<path d="M1373.79 253.585C1369.26 253.585 1357.64 250.632 1357.64 247C1357.64 243.368 1369.26 240.415 1373.79 240.415C1378.32 240.415 1382 243.368 1382 247C1382 250.632 1378.32 253.585 1373.79 253.585Z" fill="#FCEA00"/>
<path d="M1335.21 240.415C1339.74 240.415 1351.36 243.368 1351.36 247C1351.36 250.632 1339.74 253.585 1335.21 253.585C1330.68 253.585 1327 250.632 1327 247C1327 243.368 1330.68 240.415 1335.21 240.415Z" fill="#FCEA00"/>
</g>
<g clip-path="url(#clip15_15_472)">
<path d="M1424.23 859.768C1424.35 859.857 1424.45 859.972 1424.52 860.104C1424.59 860.236 1424.62 860.381 1424.63 860.53C1424.63 860.679 1424.6 860.827 1424.54 860.962C1424.48 861.098 1424.39 861.218 1424.28 861.314L1410.31 875.276C1410.22 875.389 1410.1 875.48 1409.96 875.54C1409.83 875.601 1409.68 875.63 1409.53 875.626C1409.38 875.621 1409.24 875.584 1409.11 875.516C1408.98 875.447 1408.86 875.35 1408.77 875.232C1408.65 875.144 1408.56 875.029 1408.49 874.897C1408.42 874.766 1408.38 874.62 1408.37 874.471C1408.37 874.322 1408.4 874.174 1408.46 874.039C1408.52 873.903 1408.61 873.782 1408.72 873.686L1422.69 859.724C1422.78 859.61 1422.9 859.519 1423.04 859.458C1423.17 859.396 1423.32 859.367 1423.47 859.371C1423.62 859.375 1423.76 859.413 1423.9 859.482C1424.03 859.551 1424.14 859.649 1424.23 859.768V859.768Z" fill="#FCEA00"/>
<path d="M1424.23 875.232C1424.14 875.351 1424.03 875.449 1423.9 875.518C1423.76 875.587 1423.62 875.625 1423.47 875.629C1423.32 875.633 1423.17 875.604 1423.04 875.542C1422.9 875.481 1422.78 875.39 1422.69 875.276L1408.72 861.314C1408.61 861.218 1408.52 861.097 1408.46 860.961C1408.4 860.826 1408.37 860.678 1408.37 860.529C1408.38 860.38 1408.42 860.234 1408.49 860.103C1408.56 859.971 1408.65 859.856 1408.77 859.768C1408.86 859.65 1408.98 859.553 1409.11 859.484C1409.24 859.416 1409.38 859.379 1409.53 859.374C1409.68 859.37 1409.83 859.399 1409.96 859.46C1410.1 859.52 1410.22 859.611 1410.31 859.724L1424.28 873.686C1424.39 873.782 1424.48 873.902 1424.54 874.038C1424.6 874.173 1424.63 874.321 1424.63 874.47C1424.62 874.619 1424.59 874.765 1424.52 874.896C1424.45 875.028 1424.35 875.143 1424.23 875.232V875.232Z" fill="#FCEA00"/>
<path d="M1419.79 858.031C1419.79 860.255 1418.32 865.96 1416.5 865.96C1414.68 865.96 1413.21 860.255 1413.21 858.031C1413.21 855.806 1414.68 854 1416.5 854C1418.32 854 1419.79 855.806 1419.79 858.031Z" fill="#FCEA00"/>
<path d="M1413.21 876.969C1413.21 874.745 1414.68 869.04 1416.5 869.04C1418.32 869.04 1419.79 874.745 1419.79 876.969C1419.79 879.194 1418.32 881 1416.5 881C1414.68 881 1413.21 879.194 1413.21 876.969Z" fill="#FCEA00"/>
<path d="M1425.97 870.793C1423.74 870.793 1418.04 869.316 1418.04 867.5C1418.04 865.684 1423.74 864.207 1425.97 864.207C1428.19 864.207 1430 865.684 1430 867.5C1430 869.316 1428.19 870.793 1425.97 870.793Z" fill="#FCEA00"/>
<path d="M1407.03 864.207C1409.26 864.207 1414.96 865.684 1414.96 867.5C1414.96 869.316 1409.26 870.793 1407.03 870.793C1404.81 870.793 1403 869.316 1403 867.5C1403 865.684 1404.81 864.207 1407.03 864.207Z" fill="#FCEA00"/>
</g>
<g clip-path="url(#clip16_15_472)">
<path d="M830.445 15.7681C830.56 15.8569 830.655 15.9715 830.721 16.1035C830.787 16.2355 830.824 16.3813 830.828 16.5301C830.832 16.6788 830.803 16.8266 830.745 16.9623C830.686 17.098 830.598 17.2181 830.488 17.3135L817.043 31.2761C816.951 31.3894 816.835 31.4797 816.705 31.5402C816.575 31.6007 816.433 31.6299 816.291 31.6257C816.148 31.6214 816.008 31.5838 815.882 31.5156C815.755 31.4474 815.645 31.3504 815.559 31.2319C815.444 31.1435 815.349 31.0291 815.283 30.8974C815.216 30.7656 815.179 30.6199 815.175 30.4711C815.17 30.3223 815.198 30.1745 815.256 30.0385C815.315 29.9026 815.402 29.7823 815.512 29.6865L828.957 15.7238C829.049 15.6097 829.165 15.5186 829.296 15.4575C829.426 15.3964 829.568 15.3669 829.712 15.3712C829.855 15.3755 829.995 15.4134 830.123 15.4821C830.25 15.5509 830.36 15.6487 830.445 15.7681V15.7681Z" fill="#FCEA00"/>
<path d="M830.445 31.2319C830.36 31.3513 830.25 31.4491 830.123 31.5179C829.995 31.5866 829.855 31.6245 829.712 31.6288C829.568 31.6331 829.426 31.6035 829.296 31.5425C829.165 31.4814 829.049 31.3903 828.957 31.2762L815.512 17.3135C815.402 17.2177 815.315 17.0973 815.256 16.9614C815.198 16.8255 815.17 16.6776 815.175 16.5289C815.179 16.3801 815.216 16.2344 815.283 16.1026C815.349 15.9709 815.444 15.8565 815.559 15.7681C815.645 15.6496 815.755 15.5526 815.882 15.4844C816.008 15.4162 816.148 15.3786 816.291 15.3743C816.433 15.3701 816.575 15.3993 816.705 15.4598C816.835 15.5203 816.951 15.6106 817.043 15.7238L830.488 29.6865C830.598 29.7819 830.686 29.902 830.745 30.0377C830.803 30.1734 830.832 30.3212 830.828 30.4699C830.824 30.6187 830.787 30.7645 830.721 30.8965C830.655 31.0285 830.56 31.1431 830.445 31.2319V31.2319Z" fill="#FCEA00"/>
<path d="M826.171 14.0308C826.171 16.2554 824.749 21.9595 823 21.9595C821.251 21.9595 819.829 16.2554 819.829 14.0308C819.829 11.8062 821.251 10 823 10C824.749 10 826.171 11.8062 826.171 14.0308Z" fill="#FCEA00"/>
<path d="M819.829 32.9692C819.829 30.7446 821.251 25.0405 823 25.0405C824.749 25.0405 826.171 30.7446 826.171 32.9692C826.171 35.1938 824.749 37 823 37C821.251 37 819.829 35.1938 819.829 32.9692Z" fill="#FCEA00"/>
<path d="M832.118 26.7926C829.976 26.7926 824.483 25.3161 824.483 23.5C824.483 21.6839 829.976 20.2075 832.118 20.2075C834.261 20.2075 836 21.6839 836 23.5C836 25.3161 834.261 26.7926 832.118 26.7926Z" fill="#FCEA00"/>
<path d="M813.882 20.2075C816.024 20.2075 821.517 21.6839 821.517 23.5C821.517 25.3161 816.024 26.7926 813.882 26.7926C811.739 26.7926 810 25.3161 810 23.5C810 21.6839 811.739 20.2075 813.882 20.2075Z" fill="#FCEA00"/>
</g>
<g clip-path="url(#clip17_15_472)">
<path d="M394.445 503.768C394.56 503.857 394.655 503.972 394.721 504.104C394.787 504.236 394.824 504.381 394.828 504.53C394.832 504.679 394.803 504.827 394.745 504.962C394.686 505.098 394.598 505.218 394.488 505.314L381.043 519.276C380.951 519.389 380.835 519.48 380.705 519.54C380.575 519.601 380.433 519.63 380.291 519.626C380.148 519.621 380.008 519.584 379.882 519.516C379.755 519.447 379.645 519.35 379.559 519.232C379.444 519.144 379.349 519.029 379.283 518.897C379.216 518.766 379.179 518.62 379.175 518.471C379.17 518.322 379.198 518.174 379.256 518.039C379.315 517.903 379.402 517.782 379.512 517.686L392.957 503.724C393.049 503.61 393.165 503.519 393.296 503.458C393.426 503.396 393.568 503.367 393.712 503.371C393.855 503.375 393.995 503.413 394.123 503.482C394.25 503.551 394.36 503.649 394.445 503.768V503.768Z" fill="#FCEA00"/>
<path d="M394.445 519.232C394.36 519.351 394.25 519.449 394.123 519.518C393.995 519.587 393.855 519.625 393.712 519.629C393.568 519.633 393.426 519.604 393.296 519.542C393.165 519.481 393.049 519.39 392.957 519.276L379.512 505.314C379.402 505.218 379.315 505.097 379.256 504.961C379.198 504.826 379.17 504.678 379.175 504.529C379.179 504.38 379.216 504.234 379.283 504.103C379.349 503.971 379.444 503.856 379.559 503.768C379.645 503.65 379.755 503.553 379.882 503.484C380.008 503.416 380.148 503.379 380.291 503.374C380.433 503.37 380.575 503.399 380.705 503.46C380.835 503.52 380.951 503.611 381.043 503.724L394.488 517.686C394.598 517.782 394.686 517.902 394.745 518.038C394.803 518.173 394.832 518.321 394.828 518.47C394.824 518.619 394.787 518.765 394.721 518.896C394.655 519.028 394.56 519.143 394.445 519.232V519.232Z" fill="#FCEA00"/>
<path d="M390.171 502.031C390.171 504.255 388.749 509.96 387 509.96C385.251 509.96 383.829 504.255 383.829 502.031C383.829 499.806 385.251 498 387 498C388.749 498 390.171 499.806 390.171 502.031Z" fill="#FCEA00"/>
<path d="M383.829 520.969C383.829 518.745 385.251 513.04 387 513.04C388.749 513.04 390.171 518.745 390.171 520.969C390.171 523.194 388.749 525 387 525C385.251 525 383.829 523.194 383.829 520.969Z" fill="#FCEA00"/>
<path d="M396.118 514.793C393.976 514.793 388.483 513.316 388.483 511.5C388.483 509.684 393.976 508.207 396.118 508.207C398.261 508.207 400 509.684 400 511.5C400 513.316 398.261 514.793 396.118 514.793Z" fill="#FCEA00"/>
<path d="M377.882 508.207C380.024 508.207 385.517 509.684 385.517 511.5C385.517 513.316 380.024 514.793 377.882 514.793C375.739 514.793 374 513.316 374 511.5C374 509.684 375.739 508.207 377.882 508.207Z" fill="#FCEA00"/>
</g>
<g clip-path="url(#clip18_15_472)">
<path d="M629.591 696.195C629.724 696.291 629.832 696.414 629.909 696.556C629.985 696.697 630.027 696.854 630.032 697.014C630.037 697.174 630.004 697.332 629.936 697.478C629.868 697.624 629.767 697.753 629.64 697.855L614.126 712.852C614.02 712.974 613.887 713.071 613.737 713.136C613.586 713.201 613.423 713.232 613.258 713.228C613.094 713.223 612.933 713.183 612.786 713.109C612.64 713.036 612.513 712.932 612.414 712.805C612.281 712.71 612.172 712.587 612.095 712.445C612.019 712.304 611.976 712.147 611.971 711.987C611.965 711.828 611.998 711.669 612.065 711.523C612.132 711.377 612.233 711.248 612.36 711.145L627.874 696.148C627.98 696.025 628.113 695.927 628.264 695.862C628.415 695.796 628.579 695.764 628.744 695.769C628.91 695.774 629.072 695.814 629.218 695.888C629.365 695.962 629.492 696.067 629.591 696.195V696.195Z" fill="#FCEA00"/>
<path d="M629.591 712.805C629.492 712.933 629.365 713.038 629.218 713.112C629.072 713.186 628.91 713.226 628.744 713.231C628.579 713.236 628.415 713.204 628.264 713.138C628.113 713.073 627.98 712.975 627.874 712.852L612.36 697.855C612.233 697.752 612.132 697.623 612.065 697.477C611.998 697.331 611.965 697.172 611.971 697.013C611.976 696.853 612.019 696.696 612.095 696.555C612.172 696.413 612.281 696.29 612.414 696.195C612.513 696.068 612.64 695.964 612.786 695.891C612.933 695.817 613.094 695.777 613.258 695.772C613.423 695.768 613.586 695.799 613.737 695.864C613.887 695.929 614.02 696.026 614.126 696.148L629.64 711.145C629.767 711.247 629.868 711.376 629.936 711.522C630.004 711.668 630.037 711.826 630.032 711.986C630.027 712.146 629.985 712.303 629.909 712.444C629.832 712.586 629.724 712.709 629.591 712.805V712.805Z" fill="#FCEA00"/>
<path d="M624.658 694.329C624.658 696.719 623.018 702.845 621 702.845C618.982 702.845 617.342 696.719 617.342 694.329C617.342 691.94 618.982 690 621 690C623.018 690 624.658 691.94 624.658 694.329Z" fill="#FCEA00"/>
<path d="M617.342 714.671C617.342 712.281 618.982 706.155 621 706.155C623.018 706.155 624.658 712.281 624.658 714.671C624.658 717.06 623.018 719 621 719C618.982 719 617.342 717.06 617.342 714.671Z" fill="#FCEA00"/>
<path d="M631.521 708.036C629.05 708.036 622.712 706.451 622.712 704.5C622.712 702.549 629.05 700.964 631.521 700.964C633.993 700.964 636 702.549 636 704.5C636 706.451 633.993 708.036 631.521 708.036Z" fill="#FCEA00"/>
<path d="M610.479 700.964C612.95 700.964 619.288 702.549 619.288 704.5C619.288 706.451 612.95 708.036 610.479 708.036C608.007 708.036 606 706.451 606 704.5C606 702.549 608.007 700.964 610.479 700.964Z" fill="#FCEA00"/>
</g>
<g clip-path="url(#clip19_15_472)">
<path d="M208.155 455.845C208.234 455.905 208.299 455.981 208.345 456.069C208.391 456.157 208.416 456.254 208.419 456.353C208.422 456.453 208.402 456.551 208.362 456.642C208.321 456.732 208.26 456.812 208.184 456.876L198.876 466.184C198.812 466.26 198.732 466.32 198.642 466.36C198.552 466.4 198.454 466.42 198.355 466.417C198.256 466.414 198.16 466.389 198.072 466.344C197.984 466.298 197.908 466.234 197.849 466.155C197.769 466.096 197.703 466.019 197.657 465.932C197.611 465.844 197.586 465.747 197.582 465.647C197.579 465.548 197.599 465.45 197.639 465.359C197.679 465.268 197.74 465.188 197.816 465.124L207.124 455.816C207.188 455.74 207.268 455.679 207.358 455.638C207.449 455.598 207.547 455.578 207.647 455.581C207.746 455.584 207.843 455.609 207.931 455.655C208.019 455.701 208.095 455.766 208.155 455.845V455.845Z" fill="#FCEA00"/>
<path d="M208.155 466.155C208.095 466.234 208.019 466.299 207.931 466.345C207.843 466.391 207.746 466.416 207.647 466.419C207.547 466.422 207.449 466.402 207.358 466.362C207.268 466.321 207.188 466.26 207.124 466.184L197.816 456.876C197.74 456.812 197.679 456.732 197.639 456.641C197.599 456.55 197.579 456.452 197.582 456.353C197.586 456.253 197.611 456.156 197.657 456.068C197.703 455.981 197.769 455.904 197.849 455.845C197.908 455.766 197.984 455.702 198.072 455.656C198.16 455.611 198.256 455.586 198.355 455.583C198.454 455.58 198.552 455.6 198.642 455.64C198.732 455.68 198.812 455.74 198.876 455.816L208.184 465.124C208.26 465.188 208.321 465.268 208.362 465.358C208.402 465.449 208.422 465.547 208.419 465.647C208.416 465.746 208.391 465.843 208.345 465.931C208.299 466.019 208.234 466.095 208.155 466.155V466.155Z" fill="#FCEA00"/>
<path d="M205.195 454.687C205.195 456.17 204.211 459.973 203 459.973C201.789 459.973 200.805 456.17 200.805 454.687C200.805 453.204 201.789 452 203 452C204.211 452 205.195 453.204 205.195 454.687Z" fill="#FCEA00"/>
<path d="M200.805 467.313C200.805 465.83 201.789 462.027 203 462.027C204.211 462.027 205.195 465.83 205.195 467.313C205.195 468.796 204.211 470 203 470C201.789 470 200.805 468.796 200.805 467.313Z" fill="#FCEA00"/>
<path d="M209.313 463.195C207.83 463.195 204.027 462.211 204.027 461C204.027 459.789 207.83 458.805 209.313 458.805C210.796 458.805 212 459.789 212 461C212 462.211 210.796 463.195 209.313 463.195Z" fill="#FCEA00"/>
<path d="M196.687 458.805C198.17 458.805 201.973 459.789 201.973 461C201.973 462.211 198.17 463.195 196.687 463.195C195.204 463.195 194 462.211 194 461C194 459.789 195.204 458.805 196.687 458.805Z" fill="#FCEA00"/>
</g>
<g clip-path="url(#clip20_15_472)">
<path d="M1398.95 294.054C1399.09 294.162 1399.21 294.301 1399.3 294.462C1399.38 294.624 1399.43 294.802 1399.43 294.983C1399.44 295.165 1399.4 295.345 1399.33 295.511C1399.25 295.677 1399.14 295.823 1399 295.94L1381.94 313.001C1381.82 313.141 1381.68 313.252 1381.51 313.327C1381.35 313.402 1381.16 313.438 1380.98 313.432C1380.8 313.427 1380.62 313.381 1380.46 313.297C1380.3 313.212 1380.16 313.093 1380.05 312.946C1379.91 312.838 1379.79 312.698 1379.71 312.538C1379.62 312.377 1379.57 312.2 1379.57 312.019C1379.56 311.838 1379.6 311.658 1379.67 311.492C1379.74 311.326 1379.85 311.179 1379.99 311.06L1397.06 293.988C1397.18 293.851 1397.33 293.742 1397.49 293.669C1397.66 293.597 1397.84 293.562 1398.02 293.569C1398.2 293.575 1398.38 293.622 1398.54 293.706C1398.7 293.79 1398.84 293.908 1398.95 294.054V294.054Z" fill="#D50400"/>
<path d="M1398.95 312.946C1398.84 313.091 1398.7 313.209 1398.54 313.292C1398.38 313.375 1398.2 313.421 1398.02 313.426C1397.84 313.431 1397.66 313.396 1397.49 313.322C1397.32 313.249 1397.18 313.139 1397.06 313.001L1379.99 295.94C1379.85 295.821 1379.74 295.674 1379.67 295.508C1379.6 295.342 1379.56 295.162 1379.57 294.981C1379.57 294.8 1379.62 294.623 1379.71 294.462C1379.79 294.302 1379.91 294.162 1380.05 294.054C1380.16 293.908 1380.3 293.79 1380.46 293.706C1380.62 293.622 1380.8 293.575 1380.98 293.569C1381.16 293.562 1381.34 293.597 1381.51 293.669C1381.67 293.742 1381.82 293.851 1381.94 293.988L1399 311.06C1399.14 311.178 1399.25 311.325 1399.32 311.49C1399.4 311.656 1399.43 311.836 1399.43 312.017C1399.42 312.198 1399.37 312.375 1399.29 312.536C1399.21 312.697 1399.09 312.837 1398.95 312.946V312.946Z" fill="#D50400"/>
<path d="M1393.52 291.928C1393.52 294.642 1391.72 301.619 1389.49 301.619C1387.27 301.619 1385.47 294.631 1385.47 291.928C1385.47 289.224 1387.28 287 1389.49 287C1391.71 287 1393.52 289.18 1393.52 291.928Z" fill="#D50400"/>
<path d="M1385.47 315.072C1385.47 312.358 1387.28 305.381 1389.49 305.381C1391.71 305.381 1393.52 312.358 1393.52 315.072C1393.52 317.787 1391.72 320 1389.49 320C1387.27 320 1385.47 317.787 1385.47 315.072Z" fill="#D50400"/>
<path d="M1401.07 307.517C1398.36 307.517 1391.38 305.719 1391.38 303.495C1391.38 301.271 1398.36 299.472 1401.07 299.472C1403.79 299.472 1406 301.281 1406 303.495C1406 305.708 1403.79 307.517 1401.07 307.517Z" fill="#D50400"/>
<path d="M1377.93 299.472C1380.64 299.472 1387.62 301.281 1387.62 303.495C1387.62 305.708 1380.63 307.517 1377.93 307.517C1375.22 307.517 1373 305.719 1373 303.495C1373 301.271 1375.18 299.472 1377.93 299.472Z" fill="#D50400"/>
</g>
<g clip-path="url(#clip21_15_472)">
<path d="M1436.73 527.489C1436.81 527.557 1436.89 527.646 1436.94 527.749C1436.99 527.851 1437.02 527.965 1437.02 528.08C1437.02 528.196 1437 528.311 1436.96 528.416C1436.91 528.522 1436.84 528.615 1436.76 528.689L1426.42 539.546C1426.35 539.635 1426.26 539.706 1426.16 539.753C1426.06 539.801 1425.95 539.824 1425.84 539.821C1425.73 539.817 1425.62 539.788 1425.52 539.734C1425.43 539.681 1425.34 539.604 1425.27 539.511C1425.19 539.442 1425.11 539.354 1425.06 539.251C1425.01 539.149 1424.98 539.036 1424.98 538.921C1424.98 538.806 1425 538.691 1425.04 538.586C1425.09 538.48 1425.15 538.386 1425.24 538.311L1435.58 527.447C1435.65 527.36 1435.74 527.29 1435.84 527.244C1435.94 527.198 1436.05 527.176 1436.16 527.18C1436.27 527.184 1436.38 527.214 1436.48 527.267C1436.57 527.321 1436.66 527.396 1436.73 527.489V527.489Z" fill="#D50400"/>
<path d="M1436.73 539.511C1436.66 539.603 1436.57 539.678 1436.48 539.731C1436.38 539.784 1436.27 539.813 1436.16 539.816C1436.05 539.82 1435.94 539.797 1435.84 539.75C1435.74 539.704 1435.65 539.634 1435.58 539.546L1425.24 528.689C1425.15 528.614 1425.09 528.52 1425.04 528.414C1425 528.309 1424.98 528.194 1424.98 528.079C1424.98 527.964 1425.01 527.851 1425.06 527.749C1425.11 527.646 1425.19 527.558 1425.27 527.489C1425.34 527.396 1425.43 527.321 1425.52 527.267C1425.62 527.214 1425.73 527.184 1425.84 527.18C1425.95 527.176 1426.06 527.198 1426.16 527.244C1426.26 527.29 1426.35 527.36 1426.42 527.447L1436.76 538.311C1436.84 538.386 1436.91 538.479 1436.95 538.585C1437 538.69 1437.02 538.804 1437.02 538.92C1437.01 539.035 1436.98 539.148 1436.93 539.25C1436.88 539.353 1436.81 539.442 1436.73 539.511V539.511Z" fill="#D50400"/>
<path d="M1433.43 526.136C1433.43 527.863 1432.34 532.303 1431 532.303C1429.65 532.303 1428.56 527.856 1428.56 526.136C1428.56 524.415 1429.66 523 1431 523C1432.34 523 1433.43 524.388 1433.43 526.136Z" fill="#D50400"/>
<path d="M1428.56 540.864C1428.56 539.137 1429.66 534.697 1431 534.697C1432.34 534.697 1433.43 539.137 1433.43 540.864C1433.43 542.592 1432.34 544 1431 544C1429.65 544 1428.56 542.592 1428.56 540.864Z" fill="#D50400"/>
<path d="M1438.01 536.056C1436.37 536.056 1432.14 534.912 1432.14 533.497C1432.14 532.081 1436.37 530.937 1438.01 530.937C1439.66 530.937 1441 532.088 1441 533.497C1441 534.905 1439.66 536.056 1438.01 536.056Z" fill="#D50400"/>
<path d="M1423.99 530.937C1425.63 530.937 1429.86 532.088 1429.86 533.497C1429.86 534.905 1425.63 536.056 1423.99 536.056C1422.35 536.056 1421 534.912 1421 533.497C1421 532.081 1422.32 530.937 1423.99 530.937Z" fill="#D50400"/>
</g>
<g clip-path="url(#clip22_15_472)">
<path d="M1254.16 651.84C1254.3 651.945 1254.42 652.08 1254.5 652.236C1254.58 652.392 1254.63 652.565 1254.63 652.741C1254.64 652.918 1254.6 653.093 1254.53 653.253C1254.46 653.414 1254.35 653.556 1254.21 653.669L1237.67 670.213C1237.56 670.349 1237.41 670.457 1237.25 670.529C1237.09 670.602 1236.92 670.637 1236.74 670.631C1236.57 670.626 1236.39 670.581 1236.24 670.5C1236.08 670.418 1235.94 670.302 1235.84 670.16C1235.7 670.055 1235.58 669.92 1235.5 669.764C1235.42 669.608 1235.38 669.437 1235.37 669.261C1235.36 669.085 1235.4 668.911 1235.47 668.75C1235.54 668.589 1235.64 668.446 1235.78 668.331L1252.33 651.776C1252.45 651.643 1252.59 651.538 1252.75 651.467C1252.91 651.397 1253.09 651.363 1253.26 651.37C1253.44 651.376 1253.61 651.421 1253.76 651.502C1253.92 651.584 1254.06 651.699 1254.16 651.84V651.84Z" fill="#D50400"/>
<path d="M1254.16 670.16C1254.05 670.3 1253.92 670.415 1253.76 670.495C1253.61 670.576 1253.43 670.62 1253.26 670.625C1253.08 670.63 1252.91 670.596 1252.75 670.524C1252.59 670.453 1252.45 670.347 1252.33 670.213L1235.78 653.669C1235.64 653.554 1235.54 653.411 1235.47 653.25C1235.4 653.089 1235.36 652.915 1235.37 652.739C1235.38 652.563 1235.42 652.392 1235.5 652.236C1235.58 652.08 1235.7 651.945 1235.84 651.84C1235.94 651.699 1236.08 651.584 1236.24 651.502C1236.39 651.421 1236.56 651.376 1236.74 651.37C1236.91 651.363 1237.09 651.397 1237.25 651.467C1237.41 651.538 1237.55 651.643 1237.67 651.776L1254.21 668.331C1254.35 668.445 1254.45 668.588 1254.52 668.748C1254.6 668.909 1254.63 669.083 1254.62 669.258C1254.62 669.434 1254.58 669.606 1254.5 669.762C1254.41 669.918 1254.3 670.054 1254.16 670.16V670.16Z" fill="#D50400"/>
<path d="M1248.9 649.778C1248.9 652.411 1247.15 659.176 1244.99 659.176C1242.84 659.176 1241.09 652.4 1241.09 649.778C1241.09 647.157 1242.85 645 1244.99 645C1247.14 645 1248.9 647.114 1248.9 649.778Z" fill="#D50400"/>
<path d="M1241.09 672.222C1241.09 669.589 1242.85 662.824 1244.99 662.824C1247.14 662.824 1248.9 669.589 1248.9 672.222C1248.9 674.854 1247.15 677 1244.99 677C1242.84 677 1241.09 674.854 1241.09 672.222Z" fill="#D50400"/>
<path d="M1256.22 664.896C1253.59 664.896 1246.82 663.151 1246.82 660.995C1246.82 658.838 1253.59 657.094 1256.22 657.094C1258.85 657.094 1261 658.849 1261 660.995C1261 663.141 1258.85 664.896 1256.22 664.896Z" fill="#D50400"/>
<path d="M1233.78 657.094C1236.41 657.094 1243.18 658.849 1243.18 660.995C1243.18 663.141 1236.4 664.896 1233.78 664.896C1231.16 664.896 1229 663.151 1229 660.995C1229 658.838 1231.11 657.094 1233.78 657.094Z" fill="#D50400"/>
</g>
<g clip-path="url(#clip23_15_472)">
<path d="M1309.16 650.84C1309.3 650.945 1309.42 651.08 1309.5 651.236C1309.58 651.392 1309.63 651.565 1309.63 651.741C1309.64 651.918 1309.6 652.093 1309.53 652.253C1309.46 652.414 1309.35 652.556 1309.21 652.669L1292.67 669.213C1292.56 669.349 1292.41 669.457 1292.25 669.529C1292.09 669.602 1291.92 669.637 1291.74 669.631C1291.57 669.626 1291.39 669.581 1291.24 669.5C1291.08 669.418 1290.94 669.302 1290.84 669.16C1290.7 669.055 1290.58 668.92 1290.5 668.764C1290.42 668.608 1290.38 668.437 1290.37 668.261C1290.36 668.085 1290.4 667.911 1290.47 667.75C1290.54 667.589 1290.64 667.446 1290.78 667.331L1307.33 650.776C1307.45 650.643 1307.59 650.538 1307.75 650.467C1307.91 650.397 1308.09 650.363 1308.26 650.37C1308.44 650.376 1308.61 650.421 1308.76 650.502C1308.92 650.584 1309.06 650.699 1309.16 650.84V650.84Z" fill="#8F41C6"/>
<path d="M1309.16 669.16C1309.05 669.3 1308.92 669.415 1308.76 669.495C1308.61 669.576 1308.43 669.62 1308.26 669.625C1308.08 669.63 1307.91 669.596 1307.75 669.524C1307.59 669.453 1307.45 669.347 1307.33 669.213L1290.78 652.669C1290.64 652.554 1290.54 652.411 1290.47 652.25C1290.4 652.089 1290.36 651.915 1290.37 651.739C1290.38 651.563 1290.42 651.392 1290.5 651.236C1290.58 651.08 1290.7 650.945 1290.84 650.84C1290.94 650.699 1291.08 650.584 1291.24 650.502C1291.39 650.421 1291.56 650.376 1291.74 650.37C1291.91 650.363 1292.09 650.397 1292.25 650.467C1292.41 650.538 1292.55 650.643 1292.67 650.776L1309.21 667.331C1309.35 667.445 1309.45 667.588 1309.52 667.748C1309.6 667.909 1309.63 668.083 1309.62 668.258C1309.62 668.434 1309.58 668.606 1309.5 668.762C1309.41 668.918 1309.3 669.054 1309.16 669.16V669.16Z" fill="#8F41C6"/>
<path d="M1303.9 648.778C1303.9 651.411 1302.15 658.176 1299.99 658.176C1297.84 658.176 1296.09 651.4 1296.09 648.778C1296.09 646.157 1297.85 644 1299.99 644C1302.14 644 1303.9 646.114 1303.9 648.778Z" fill="#8F41C6"/>
<path d="M1296.09 671.222C1296.09 668.589 1297.85 661.824 1299.99 661.824C1302.14 661.824 1303.9 668.589 1303.9 671.222C1303.9 673.854 1302.15 676 1299.99 676C1297.84 676 1296.09 673.854 1296.09 671.222Z" fill="#8F41C6"/>
<path d="M1311.22 663.896C1308.59 663.896 1301.82 662.151 1301.82 659.995C1301.82 657.838 1308.59 656.094 1311.22 656.094C1313.85 656.094 1316 657.849 1316 659.995C1316 662.141 1313.85 663.896 1311.22 663.896Z" fill="#8F41C6"/>
<path d="M1288.78 656.094C1291.41 656.094 1298.18 657.849 1298.18 659.995C1298.18 662.141 1291.4 663.896 1288.78 663.896C1286.16 663.896 1284 662.151 1284 659.995C1284 657.838 1286.11 656.094 1288.78 656.094Z" fill="#8F41C6"/>
</g>
<g clip-path="url(#clip24_15_472)">
<path d="M624.038 614.962C624.348 615.191 624.602 615.488 624.78 615.829C624.959 616.171 625.058 616.549 625.069 616.934C625.08 617.32 625.003 617.702 624.845 618.054C624.686 618.405 624.45 618.716 624.154 618.963L587.963 655.154C587.716 655.45 587.405 655.686 587.054 655.845C586.702 656.003 586.32 656.08 585.934 656.069C585.549 656.058 585.171 655.959 584.829 655.78C584.488 655.602 584.191 655.348 583.962 655.038C583.654 654.808 583.402 654.512 583.224 654.171C583.046 653.831 582.947 653.455 582.933 653.071C582.92 652.687 582.993 652.305 583.147 651.953C583.301 651.601 583.532 651.288 583.823 651.037L620.037 614.823C620.288 614.532 620.601 614.301 620.953 614.147C621.305 613.993 621.687 613.92 622.071 613.933C622.455 613.947 622.831 614.046 623.171 614.224C623.512 614.402 623.808 614.654 624.038 614.962V614.962Z" fill="#8F41C6"/>
<path d="M624.038 655.038C623.806 655.344 623.509 655.595 623.167 655.771C622.826 655.947 622.449 656.044 622.065 656.055C621.681 656.066 621.3 655.991 620.949 655.835C620.598 655.679 620.286 655.446 620.037 655.154L583.823 618.963C583.532 618.712 583.301 618.399 583.147 618.047C582.993 617.695 582.92 617.313 582.933 616.929C582.947 616.545 583.046 616.169 583.224 615.829C583.402 615.488 583.654 615.192 583.962 614.962C584.192 614.654 584.488 614.402 584.829 614.224C585.169 614.046 585.545 613.947 585.929 613.933C586.313 613.92 586.695 613.993 587.047 614.147C587.399 614.301 587.712 614.532 587.963 614.823L624.154 651.037C624.446 651.286 624.679 651.598 624.835 651.949C624.991 652.3 625.066 652.681 625.055 653.065C625.044 653.449 624.947 653.826 624.771 654.167C624.595 654.509 624.344 654.806 624.038 655.038V655.038Z" fill="#8F41C6"/>
<path d="M612.522 610.453C612.522 616.211 608.706 631.011 603.988 631.011C599.271 631.011 595.455 616.188 595.455 610.453C595.455 604.718 599.294 600 603.988 600C608.683 600 612.522 604.625 612.522 610.453Z" fill="#8F41C6"/>
<path d="M595.455 659.547C595.455 653.789 599.294 638.989 603.988 638.989C608.683 638.989 612.522 653.789 612.522 659.547C612.522 665.306 608.706 670 603.988 670C599.271 670 595.455 665.306 595.455 659.547Z" fill="#8F41C6"/>
<path d="M628.547 643.522C622.789 643.522 607.989 639.706 607.989 634.988C607.989 630.271 622.789 626.455 628.547 626.455C634.306 626.455 639 630.294 639 634.988C639 639.683 634.306 643.522 628.547 643.522Z" fill="#8F41C6"/>
<path d="M579.453 626.455C585.211 626.455 600.011 630.294 600.011 634.988C600.011 639.683 585.188 643.522 579.453 643.522C573.718 643.522 569 639.706 569 634.988C569 630.271 573.625 626.455 579.453 626.455Z" fill="#8F41C6"/>
</g>
<g clip-path="url(#clip25_15_472)">
<path d="M681.939 649.275C682.023 649.34 682.092 649.425 682.14 649.523C682.189 649.62 682.216 649.728 682.219 649.838C682.222 649.948 682.201 650.058 682.158 650.158C682.115 650.259 682.051 650.347 681.97 650.418L672.147 660.758C672.08 660.843 671.996 660.91 671.9 660.956C671.805 661.001 671.701 661.023 671.596 661.02C671.492 661.016 671.389 660.988 671.297 660.937C671.204 660.886 671.123 660.814 671.061 660.725C670.978 660.659 670.909 660.575 670.861 660.478C670.812 660.38 670.786 660.273 670.782 660.163C670.778 660.053 670.798 659.944 670.84 659.844C670.882 659.743 670.944 659.654 671.023 659.582L680.853 649.235C680.921 649.152 681.006 649.086 681.102 649.042C681.197 648.998 681.301 648.977 681.405 648.981C681.509 648.985 681.611 649.013 681.704 649.064C681.796 649.115 681.876 649.187 681.939 649.275V649.275Z" fill="#D50400"/>
<path d="M681.939 660.725C681.876 660.813 681.795 660.884 681.703 660.934C681.61 660.985 681.508 661.012 681.403 661.016C681.299 661.019 681.196 660.997 681.1 660.953C681.005 660.908 680.921 660.842 680.853 660.758L671.023 650.418C670.944 650.346 670.882 650.257 670.84 650.156C670.798 650.056 670.778 649.947 670.782 649.837C670.786 649.727 670.812 649.62 670.861 649.522C670.909 649.425 670.978 649.341 671.061 649.275C671.124 649.187 671.204 649.115 671.296 649.064C671.389 649.013 671.491 648.985 671.595 648.981C671.699 648.977 671.803 648.998 671.898 649.042C671.994 649.086 672.079 649.152 672.147 649.235L681.97 659.582C682.05 659.653 682.113 659.742 682.155 659.843C682.197 659.943 682.218 660.052 682.215 660.162C682.212 660.271 682.185 660.379 682.138 660.476C682.09 660.574 682.022 660.659 681.939 660.725V660.725Z" fill="#D50400"/>
<path d="M678.813 647.986C678.813 649.632 677.777 653.86 676.497 653.86C675.216 653.86 674.181 649.625 674.181 647.986C674.181 646.348 675.223 645 676.497 645C677.771 645 678.813 646.321 678.813 647.986Z" fill="#D50400"/>
<path d="M674.181 662.014C674.181 660.368 675.223 656.14 676.497 656.14C677.771 656.14 678.813 660.368 678.813 662.014C678.813 663.659 677.777 665 676.497 665C675.216 665 674.181 663.659 674.181 662.014Z" fill="#D50400"/>
<path d="M683.163 657.435C681.6 657.435 677.583 656.345 677.583 654.997C677.583 653.649 681.6 652.559 683.163 652.559C684.726 652.559 686 653.655 686 654.997C686 656.338 684.726 657.435 683.163 657.435Z" fill="#D50400"/>
<path d="M669.837 652.559C671.4 652.559 675.417 653.655 675.417 654.997C675.417 656.338 671.394 657.435 669.837 657.435C668.28 657.435 667 656.345 667 654.997C667 653.649 668.255 652.559 669.837 652.559Z" fill="#D50400"/>
</g>
<g clip-path="url(#clip26_15_472)">
<path d="M62.0915 497.908C62.2554 498.03 62.3896 498.186 62.484 498.367C62.5784 498.548 62.6305 498.747 62.6364 498.951C62.6423 499.155 62.6018 499.357 62.518 499.543C62.4342 499.728 62.3092 499.893 62.1526 500.023L43.0231 519.153C42.8928 519.309 42.7285 519.434 42.5428 519.518C42.357 519.602 42.1546 519.642 41.951 519.636C41.7473 519.63 41.5476 519.578 41.367 519.484C41.1864 519.39 41.0296 519.255 40.9085 519.092C40.7459 518.97 40.6126 518.813 40.5185 518.633C40.4244 518.453 40.3719 518.255 40.3648 518.052C40.3578 517.849 40.3964 517.647 40.4778 517.461C40.5592 517.275 40.6813 517.109 40.8352 516.977L59.9769 497.835C60.1094 497.681 60.2748 497.559 60.4609 497.478C60.6469 497.396 60.8488 497.358 61.0518 497.365C61.2547 497.372 61.4535 497.424 61.6335 497.518C61.8134 497.613 61.9699 497.746 62.0915 497.908V497.908Z" fill="#D50400"/>
<path d="M62.0915 519.092C61.969 519.253 61.8117 519.386 61.6313 519.479C61.4508 519.572 61.2518 519.623 61.0489 519.629C60.8459 519.635 60.6443 519.595 60.4587 519.513C60.2732 519.43 60.1085 519.307 59.9769 519.153L40.8352 500.023C40.6813 499.891 40.5592 499.725 40.4778 499.539C40.3964 499.353 40.3578 499.151 40.3648 498.948C40.3719 498.745 40.4244 498.547 40.5185 498.367C40.6126 498.187 40.7459 498.03 40.9085 497.908C41.0301 497.746 41.1866 497.613 41.3666 497.518C41.5465 497.424 41.7453 497.372 41.9482 497.365C42.1512 497.358 42.3531 497.396 42.5392 497.478C42.7252 497.559 42.8906 497.681 43.0231 497.835L62.1526 516.977C62.3072 517.109 62.4302 517.273 62.5126 517.459C62.5951 517.644 62.6348 517.846 62.6289 518.049C62.6231 518.252 62.5717 518.451 62.4787 518.631C62.3857 518.812 62.2534 518.969 62.0915 519.092V519.092Z" fill="#D50400"/>
<path d="M56.0043 495.525C56.0043 498.569 53.9875 506.391 51.4939 506.391C49.0004 506.391 46.9835 498.556 46.9835 495.525C46.9835 492.494 49.0126 490 51.4939 490C53.9753 490 56.0043 492.445 56.0043 495.525Z" fill="#D50400"/>
<path d="M46.9835 521.475C46.9835 518.431 49.0126 510.609 51.4939 510.609C53.9753 510.609 56.0043 518.431 56.0043 521.475C56.0043 524.519 53.9875 527 51.4939 527C49.0004 527 46.9835 524.519 46.9835 521.475Z" fill="#D50400"/>
<path d="M64.4751 513.004C61.4314 513.004 53.6085 510.987 53.6085 508.494C53.6085 506 61.4314 503.983 64.4751 503.983C67.5187 503.983 70 506.013 70 508.494C70 510.975 67.5187 513.004 64.4751 513.004Z" fill="#D50400"/>
<path d="M38.5249 503.983C41.5685 503.983 49.3915 506.013 49.3915 508.494C49.3915 510.975 41.5563 513.004 38.5249 513.004C35.4936 513.004 33 510.987 33 508.494C33 506 35.4447 503.983 38.5249 503.983Z" fill="#D50400"/>
</g>
<g clip-path="url(#clip27_15_472)">
<path d="M1418.87 633.129C1418.97 633.208 1419.06 633.308 1419.11 633.423C1419.17 633.538 1419.2 633.664 1419.21 633.793C1419.21 633.922 1419.19 634.05 1419.14 634.168C1419.09 634.286 1419.01 634.392 1418.91 634.477L1406.48 646.913C1406.39 647.013 1406.28 647.093 1406.16 647.147C1406.04 647.201 1405.91 647.227 1405.78 647.223C1405.65 647.219 1405.52 647.185 1405.4 647.124C1405.29 647.063 1405.18 646.977 1405.11 646.871C1405 646.792 1404.91 646.691 1404.85 646.574C1404.79 646.456 1404.76 646.327 1404.75 646.195C1404.75 646.064 1404.78 645.933 1404.83 645.812C1404.88 645.692 1404.96 645.585 1405.06 645.5L1417.5 633.087C1417.58 632.987 1417.69 632.907 1417.81 632.853C1417.93 632.799 1418.06 632.773 1418.2 632.777C1418.33 632.781 1418.46 632.815 1418.57 632.876C1418.69 632.937 1418.79 633.023 1418.87 633.129V633.129Z" fill="#00B8AE"/>
<path d="M1418.87 646.871C1418.79 646.977 1418.69 647.063 1418.57 647.124C1418.46 647.185 1418.33 647.219 1418.2 647.223C1418.06 647.227 1417.93 647.201 1417.81 647.147C1417.69 647.093 1417.58 647.013 1417.5 646.913L1405.09 634.477C1404.99 634.392 1404.91 634.285 1404.85 634.164C1404.8 634.044 1404.77 633.913 1404.78 633.781C1404.78 633.649 1404.81 633.52 1404.88 633.403C1404.94 633.286 1405.02 633.184 1405.13 633.105C1405.21 633.005 1405.31 632.924 1405.43 632.868C1405.54 632.812 1405.67 632.782 1405.8 632.78C1405.93 632.779 1406.05 632.805 1406.17 632.858C1406.29 632.911 1406.39 632.99 1406.48 633.087L1418.91 645.5C1419.01 645.585 1419.09 645.692 1419.15 645.812C1419.2 645.933 1419.23 646.064 1419.22 646.195C1419.22 646.327 1419.19 646.456 1419.12 646.574C1419.06 646.691 1418.98 646.792 1418.87 646.871V646.871Z" fill="#00B8AE"/>
<path d="M1414.93 631.58C1414.93 633.558 1413.61 638.646 1411.98 638.646C1410.35 638.646 1409.04 633.57 1409.04 631.58C1409.04 629.59 1410.39 628 1412 628C1413.61 628 1414.93 629.602 1414.93 631.58Z" fill="#00B8AE"/>
<path d="M1409.07 648.42C1409.07 646.442 1410.39 641.354 1412.02 641.354C1413.65 641.354 1414.96 646.43 1414.96 648.42C1414.96 650.41 1413.65 652 1412.02 652C1410.39 652 1409.07 650.375 1409.07 648.42Z" fill="#00B8AE"/>
<path d="M1420.42 642.926C1418.44 642.926 1413.35 641.619 1413.35 639.982C1413.35 638.345 1418.43 637.038 1420.42 637.038C1422.41 637.038 1424 638.351 1424 639.982C1424 641.613 1422.37 642.926 1420.42 642.926Z" fill="#00B8AE"/>
<path d="M1403.58 637.074C1405.56 637.074 1410.65 638.387 1410.65 640.018C1410.65 641.649 1405.57 642.962 1403.58 642.962C1401.59 642.962 1400 641.619 1400 640C1400 638.381 1401.6 637.074 1403.58 637.074Z" fill="#00B8AE"/>
</g>
<g clip-path="url(#clip28_15_472)">
<path d="M1574.32 839.676C1574.59 839.888 1574.82 840.156 1574.97 840.462C1575.13 840.768 1575.21 841.105 1575.22 841.448C1575.23 841.791 1575.17 842.133 1575.03 842.448C1574.89 842.763 1574.69 843.044 1574.43 843.272L1541.27 876.434C1541.04 876.702 1540.76 876.916 1540.44 877.059C1540.12 877.202 1539.77 877.271 1539.42 877.26C1539.06 877.25 1538.72 877.16 1538.41 876.998C1538.1 876.836 1537.82 876.605 1537.61 876.324C1537.33 876.113 1537.1 875.842 1536.94 875.529C1536.78 875.217 1536.69 874.873 1536.68 874.521C1536.67 874.17 1536.74 873.82 1536.88 873.499C1537.02 873.178 1537.24 872.893 1537.5 872.665L1570.67 839.566C1570.89 839.298 1571.18 839.084 1571.5 838.941C1571.82 838.798 1572.17 838.729 1572.52 838.74C1572.87 838.75 1573.22 838.84 1573.53 839.002C1573.84 839.164 1574.11 839.395 1574.32 839.676V839.676Z" fill="#00B8AE"/>
<path d="M1574.32 876.324C1574.11 876.605 1573.84 876.836 1573.53 876.998C1573.22 877.16 1572.87 877.25 1572.52 877.26C1572.17 877.271 1571.82 877.202 1571.5 877.059C1571.18 876.916 1570.89 876.702 1570.67 876.434L1537.57 843.272C1537.3 843.045 1537.08 842.76 1536.94 842.438C1536.8 842.117 1536.73 841.768 1536.74 841.416C1536.75 841.065 1536.84 840.72 1537 840.408C1537.16 840.096 1537.39 839.824 1537.68 839.613C1537.89 839.347 1538.16 839.131 1538.47 838.981C1538.78 838.832 1539.12 838.752 1539.46 838.747C1539.81 838.743 1540.15 838.814 1540.46 838.955C1540.77 839.097 1541.05 839.305 1541.27 839.566L1574.43 872.665C1574.7 872.893 1574.92 873.178 1575.06 873.499C1575.2 873.82 1575.27 874.17 1575.26 874.521C1575.25 874.873 1575.16 875.217 1575 875.529C1574.84 875.842 1574.61 876.113 1574.32 876.324V876.324Z" fill="#00B8AE"/>
<path d="M1563.8 835.547C1563.8 840.822 1560.3 854.389 1555.95 854.389C1551.6 854.389 1548.1 840.854 1548.1 835.547C1548.1 830.239 1551.7 826 1556 826C1560.3 826 1563.8 830.271 1563.8 835.547Z" fill="#00B8AE"/>
<path d="M1548.2 880.453C1548.2 875.178 1551.7 861.611 1556.05 861.611C1560.4 861.611 1563.9 875.146 1563.9 880.453C1563.9 885.761 1560.4 890 1556.05 890C1551.7 890 1548.2 885.666 1548.2 880.453Z" fill="#00B8AE"/>
<path d="M1578.45 865.804C1573.18 865.804 1559.61 862.318 1559.61 857.953C1559.61 853.588 1573.15 850.102 1578.45 850.102C1583.76 850.102 1588 853.604 1588 857.953C1588 862.302 1583.67 865.804 1578.45 865.804Z" fill="#00B8AE"/>
<path d="M1533.55 850.196C1538.82 850.196 1552.39 853.698 1552.39 858.047C1552.39 862.396 1538.85 865.898 1533.55 865.898C1528.24 865.898 1524 862.318 1524 858C1524 853.682 1528.27 850.196 1533.55 850.196Z" fill="#00B8AE"/>
</g>
<g clip-path="url(#clip29_15_472)">
<path d="M569.658 787.129C569.763 787.208 569.85 787.308 569.91 787.423C569.971 787.538 570.004 787.664 570.009 787.793C570.013 787.922 569.987 788.05 569.934 788.168C569.881 788.286 569.801 788.392 569.701 788.477L556.747 800.913C556.658 801.013 556.547 801.093 556.421 801.147C556.296 801.201 556.159 801.227 556.022 801.223C555.885 801.219 555.75 801.185 555.628 801.124C555.506 801.063 555.4 800.977 555.318 800.871C555.208 800.792 555.118 800.691 555.054 800.574C554.991 800.456 554.956 800.327 554.952 800.195C554.948 800.064 554.975 799.933 555.031 799.812C555.086 799.692 555.17 799.585 555.275 799.5L568.229 787.087C568.317 786.987 568.429 786.907 568.554 786.853C568.68 786.799 568.816 786.773 568.954 786.777C569.091 786.781 569.225 786.815 569.347 786.876C569.469 786.937 569.575 787.023 569.658 787.129V787.129Z" fill="#00B8AE"/>
<path d="M569.658 800.871C569.575 800.977 569.469 801.063 569.347 801.124C569.225 801.185 569.091 801.219 568.954 801.223C568.816 801.227 568.68 801.201 568.554 801.147C568.429 801.093 568.317 801.013 568.229 800.913L555.299 788.477C555.194 788.392 555.111 788.285 555.055 788.164C554.999 788.044 554.972 787.913 554.976 787.781C554.98 787.649 555.016 787.52 555.079 787.403C555.142 787.286 555.232 787.184 555.342 787.105C555.427 787.005 555.533 786.924 555.654 786.868C555.774 786.812 555.906 786.782 556.04 786.78C556.174 786.779 556.307 786.805 556.429 786.858C556.551 786.911 556.66 786.99 556.747 787.087L569.701 799.5C569.806 799.585 569.889 799.692 569.945 799.812C570.001 799.933 570.028 800.064 570.024 800.195C570.019 800.327 569.984 800.456 569.921 800.574C569.858 800.691 569.768 800.792 569.658 800.871V800.871Z" fill="#00B8AE"/>
<path d="M565.548 785.58C565.548 787.558 564.181 792.646 562.482 792.646C560.783 792.646 559.415 787.57 559.415 785.58C559.415 783.59 560.819 782 562.5 782C564.181 782 565.548 783.602 565.548 785.58Z" fill="#00B8AE"/>
<path d="M559.452 802.42C559.452 800.442 560.819 795.354 562.518 795.354C564.217 795.354 565.585 800.43 565.585 802.42C565.585 804.41 564.217 806 562.518 806C560.819 806 559.452 804.375 559.452 802.42Z" fill="#00B8AE"/>
<path d="M571.271 796.926C569.21 796.926 563.911 795.619 563.911 793.982C563.911 792.345 569.198 791.038 571.271 791.038C573.344 791.038 575 792.351 575 793.982C575 795.613 573.307 796.926 571.271 796.926Z" fill="#00B8AE"/>
<path d="M553.729 791.074C555.79 791.074 561.089 792.387 561.089 794.018C561.089 795.649 555.802 796.962 553.729 796.962C551.656 796.962 550 795.619 550 794C550 792.381 551.668 791.074 553.729 791.074Z" fill="#00B8AE"/>
</g>
<g clip-path="url(#clip30_15_472)">
<path d="M435.871 483.129C435.973 483.208 436.056 483.308 436.114 483.423C436.172 483.538 436.204 483.664 436.208 483.793C436.212 483.922 436.188 484.05 436.137 484.168C436.086 484.286 436.009 484.392 435.913 484.477L423.477 496.913C423.392 497.013 423.285 497.093 423.164 497.147C423.044 497.201 422.913 497.227 422.781 497.223C422.649 497.219 422.52 497.185 422.403 497.124C422.286 497.063 422.184 496.977 422.105 496.871C421.999 496.792 421.913 496.691 421.852 496.574C421.791 496.456 421.758 496.327 421.754 496.195C421.75 496.064 421.776 495.933 421.829 495.812C421.883 495.692 421.963 495.585 422.064 495.5L434.5 483.087C434.585 482.987 434.692 482.907 434.812 482.853C434.933 482.799 435.064 482.773 435.195 482.777C435.327 482.781 435.457 482.815 435.574 482.876C435.691 482.937 435.792 483.023 435.871 483.129V483.129Z" fill="#00B8AE"/>
<path d="M435.871 496.871C435.792 496.977 435.691 497.063 435.574 497.124C435.457 497.185 435.327 497.219 435.195 497.223C435.064 497.227 434.933 497.201 434.812 497.147C434.692 497.093 434.585 497.013 434.5 496.913L422.087 484.477C421.987 484.392 421.907 484.285 421.853 484.164C421.799 484.044 421.773 483.913 421.777 483.781C421.781 483.649 421.815 483.52 421.876 483.403C421.937 483.286 422.023 483.184 422.129 483.105C422.21 483.005 422.312 482.924 422.427 482.868C422.543 482.812 422.67 482.782 422.799 482.78C422.927 482.779 423.055 482.805 423.172 482.858C423.289 482.911 423.393 482.99 423.477 483.087L435.913 495.5C436.013 495.585 436.094 495.692 436.147 495.812C436.201 495.933 436.227 496.064 436.223 496.195C436.219 496.327 436.185 496.457 436.124 496.574C436.063 496.691 435.977 496.792 435.871 496.871V496.871Z" fill="#00B8AE"/>
<path d="M431.926 481.58C431.926 483.558 430.613 488.646 428.982 488.646C427.351 488.646 426.038 483.57 426.038 481.58C426.038 479.59 427.387 478 429 478C430.613 478 431.926 479.602 431.926 481.58Z" fill="#00B8AE"/>
<path d="M426.074 498.42C426.074 496.442 427.387 491.354 429.018 491.354C430.649 491.354 431.962 496.43 431.962 498.42C431.962 500.41 430.649 502 429.018 502C427.387 502 426.074 500.375 426.074 498.42Z" fill="#00B8AE"/>
<path d="M437.42 492.926C435.442 492.926 430.354 491.619 430.354 489.982C430.354 488.345 435.43 487.038 437.42 487.038C439.41 487.038 441 488.351 441 489.982C441 491.613 439.375 492.926 437.42 492.926Z" fill="#00B8AE"/>
<path d="M420.58 487.074C422.558 487.074 427.646 488.387 427.646 490.018C427.646 491.649 422.57 492.962 420.58 492.962C418.59 492.962 417 491.619 417 490C417 488.381 418.602 487.074 420.58 487.074Z" fill="#00B8AE"/>
</g>
<g clip-path="url(#clip31_15_472)">
<path d="M268.666 497.548C268.831 497.68 268.965 497.847 269.06 498.039C269.155 498.23 269.207 498.441 269.213 498.655C269.22 498.87 269.18 499.083 269.097 499.28C269.014 499.477 268.89 499.653 268.733 499.795L248.525 520.521C248.387 520.689 248.213 520.822 248.017 520.912C247.821 521.001 247.608 521.044 247.394 521.038C247.18 521.031 246.97 520.975 246.78 520.874C246.59 520.772 246.424 520.628 246.296 520.452C246.124 520.321 245.984 520.151 245.885 519.956C245.786 519.761 245.731 519.545 245.725 519.326C245.718 519.106 245.76 518.888 245.848 518.687C245.935 518.486 246.065 518.308 246.229 518.166L266.437 497.479C266.575 497.311 266.749 497.178 266.945 497.088C267.14 496.999 267.353 496.956 267.568 496.962C267.782 496.969 267.992 497.025 268.182 497.126C268.372 497.228 268.538 497.372 268.666 497.548V497.548Z" fill="#00B8AE"/>
<path d="M268.666 520.452C268.538 520.628 268.372 520.772 268.182 520.874C267.992 520.975 267.782 521.031 267.568 521.038C267.353 521.044 267.14 521.001 266.945 520.912C266.749 520.822 266.575 520.689 266.437 520.521L246.267 499.795C246.103 499.653 245.973 499.475 245.886 499.274C245.799 499.073 245.757 498.855 245.763 498.635C245.77 498.415 245.824 498.2 245.923 498.005C246.022 497.81 246.162 497.64 246.334 497.508C246.466 497.342 246.631 497.207 246.82 497.113C247.008 497.02 247.214 496.97 247.423 496.967C247.632 496.964 247.839 497.009 248.03 497.097C248.22 497.186 248.389 497.316 248.525 497.479L268.733 518.166C268.897 518.308 269.027 518.486 269.114 518.687C269.201 518.888 269.243 519.106 269.237 519.326C269.23 519.545 269.176 519.761 269.077 519.956C268.978 520.151 268.838 520.321 268.666 520.452V520.452Z" fill="#00B8AE"/>
<path d="M262.255 494.967C262.255 498.264 260.122 506.743 257.471 506.743C254.821 506.743 252.687 498.284 252.687 494.967C252.687 491.65 254.878 489 257.5 489C260.122 489 262.255 491.669 262.255 494.967Z" fill="#00B8AE"/>
<path d="M252.745 523.033C252.745 519.736 254.878 511.257 257.529 511.257C260.179 511.257 262.313 519.716 262.313 523.033C262.313 526.35 260.179 529 257.529 529C254.878 529 252.745 526.291 252.745 523.033Z" fill="#00B8AE"/>
<path d="M271.183 513.877C267.968 513.877 259.701 511.699 259.701 508.971C259.701 506.242 267.948 504.064 271.183 504.064C274.417 504.064 277 506.252 277 508.971C277 511.689 274.359 513.877 271.183 513.877Z" fill="#00B8AE"/>
<path d="M243.817 504.123C247.032 504.123 255.299 506.311 255.299 509.029C255.299 511.748 247.052 513.936 243.817 513.936C240.583 513.936 238 511.699 238 509C238 506.301 240.603 504.123 243.817 504.123Z" fill="#00B8AE"/>
</g>
<g clip-path="url(#clip32_15_472)">
<path d="M1344.24 61.7613C1344.41 61.8967 1344.55 62.0686 1344.65 62.2648C1344.75 62.461 1344.81 62.6767 1344.81 62.8965C1344.82 63.1163 1344.78 63.335 1344.69 63.5369C1344.6 63.7388 1344.47 63.919 1344.31 64.0648L1323.06 85.3091C1322.92 85.4811 1322.74 85.618 1322.53 85.7097C1322.33 85.8014 1322.1 85.8455 1321.88 85.8387C1321.65 85.8319 1321.43 85.7745 1321.23 85.6706C1321.03 85.5667 1320.86 85.4191 1320.72 85.2387C1320.54 85.1037 1320.39 84.9297 1320.29 84.7298C1320.19 84.5298 1320.13 84.309 1320.12 84.0838C1320.11 83.8586 1320.16 83.6347 1320.25 83.4289C1320.34 83.2231 1320.48 83.0406 1320.65 82.895L1341.89 61.6909C1342.04 61.5189 1342.22 61.382 1342.43 61.2903C1342.63 61.1986 1342.86 61.1545 1343.08 61.1613C1343.31 61.168 1343.53 61.2255 1343.73 61.3294C1343.93 61.4332 1344.1 61.5809 1344.24 61.7613V61.7613Z" fill="#00B8AE"/>
<path d="M1344.24 85.2387C1344.1 85.4191 1343.93 85.5668 1343.73 85.6706C1343.53 85.7745 1343.31 85.832 1343.08 85.8387C1342.86 85.8455 1342.63 85.8014 1342.43 85.7097C1342.22 85.618 1342.04 85.4811 1341.9 85.3091L1320.69 64.0648C1320.52 63.9192 1320.38 63.7367 1320.29 63.5309C1320.2 63.325 1320.15 63.1012 1320.16 62.876C1320.17 62.6507 1320.23 62.4299 1320.33 62.23C1320.43 62.03 1320.58 61.8561 1320.76 61.7211C1320.9 61.5503 1321.07 61.4121 1321.27 61.3162C1321.47 61.2203 1321.69 61.1691 1321.91 61.1662C1322.13 61.1633 1322.34 61.2088 1322.54 61.2995C1322.74 61.3902 1322.92 61.5238 1323.06 61.6909L1344.31 82.895C1344.48 83.0406 1344.62 83.2231 1344.71 83.4289C1344.8 83.6348 1344.85 83.8586 1344.84 84.0838C1344.83 84.3091 1344.77 84.5299 1344.67 84.7298C1344.57 84.9298 1344.42 85.1037 1344.24 85.2387V85.2387Z" fill="#00B8AE"/>
<path d="M1337.5 59.1158C1337.5 62.4956 1335.26 71.1865 1332.47 71.1865C1329.68 71.1865 1327.44 62.5157 1327.44 59.1158C1327.44 55.7159 1329.74 53 1332.5 53C1335.26 53 1337.5 55.736 1337.5 59.1158Z" fill="#00B8AE"/>
<path d="M1327.5 87.8842C1327.5 84.5044 1329.74 75.8135 1332.53 75.8135C1335.32 75.8135 1337.56 84.4843 1337.56 87.8842C1337.56 91.2841 1335.32 94 1332.53 94C1329.74 94 1327.5 91.2237 1327.5 87.8842Z" fill="#00B8AE"/>
<path d="M1346.88 78.4993C1343.5 78.4993 1334.81 76.2662 1334.81 73.4698C1334.81 70.6734 1343.48 68.4404 1346.88 68.4404C1350.28 68.4404 1353 70.6835 1353 73.4698C1353 76.2561 1350.22 78.4993 1346.88 78.4993Z" fill="#00B8AE"/>
<path d="M1318.12 68.5007C1321.5 68.5007 1330.19 70.7439 1330.19 73.5302C1330.19 76.3165 1321.52 78.5596 1318.12 78.5596C1314.72 78.5596 1312 76.2662 1312 73.5C1312 70.7338 1314.74 68.5007 1318.12 68.5007Z" fill="#00B8AE"/>
</g>
<g clip-path="url(#clip33_15_472)">
<path d="M4.27505 864.725C4.18633 864.66 4.11355 864.575 4.06218 864.478C4.01081 864.38 3.98219 864.273 3.97848 864.163C3.97476 864.052 3.99605 863.943 4.04073 863.842C4.08541 863.742 4.15233 863.653 4.23645 863.581L14.5814 853.236C14.6525 853.152 14.7417 853.085 14.8424 853.041C14.943 852.996 15.0525 852.975 15.1626 852.978C15.2726 852.982 15.3804 853.011 15.4778 853.062C15.5753 853.114 15.6598 853.186 15.725 853.275C15.8134 853.341 15.8858 853.425 15.9368 853.523C15.9877 853.621 16.0158 853.729 16.0191 853.839C16.0223 853.949 16.0006 854.058 15.9555 854.158C15.9104 854.259 15.8432 854.348 15.7588 854.419L5.4186 864.759C5.34788 864.843 5.25896 864.91 5.15851 864.956C5.05806 865.001 4.94869 865.022 4.83864 865.019C4.72858 865.016 4.62069 864.988 4.52308 864.937C4.42546 864.886 4.34066 864.813 4.27505 864.725Z" fill="#F753C3"/>
<path d="M4.27505 853.275C4.34029 853.186 4.42479 853.114 4.5222 853.062C4.61961 853.011 4.7274 852.982 4.83747 852.978C4.94753 852.975 5.057 852.996 5.15766 853.041C5.25831 853.085 5.34753 853.152 5.4186 853.236L15.7588 863.581C15.8432 863.652 15.9104 863.741 15.9555 863.842C16.0006 863.942 16.0223 864.051 16.0191 864.161C16.0158 864.271 15.9877 864.379 15.9368 864.477C15.8858 864.575 15.8134 864.659 15.725 864.725C15.6594 864.813 15.5746 864.886 15.477 864.937C15.3794 864.988 15.2715 865.016 15.1614 865.019C15.0513 865.022 14.942 865.001 14.8415 864.956C14.7411 864.91 14.6522 864.843 14.5814 864.759L4.23645 854.419C4.15233 854.348 4.08541 854.258 4.04073 854.158C3.99605 854.057 3.97476 853.948 3.97848 853.837C3.98219 853.727 4.01081 853.62 4.06218 853.522C4.11355 853.425 4.18633 853.34 4.27505 853.275Z" fill="#F753C3"/>
<path d="M7.56092 866.013C7.56092 864.368 8.65139 860.141 9.99759 860.141C11.3438 860.141 12.4391 864.368 12.4391 866.013C12.4391 867.659 11.3438 869 9.99759 869C8.65139 869 7.56092 867.663 7.56092 866.013Z" fill="#F753C3"/>
<path d="M12.4391 851.982C12.4391 853.632 11.3438 857.859 9.99759 857.859C8.65139 857.859 7.56092 853.632 7.56092 851.982C7.56092 850.332 8.65139 849 9.99759 849C11.3438 849 12.4391 850.337 12.4391 851.982Z" fill="#F753C3"/>
<path d="M2.98193 856.561C4.63211 856.561 8.85889 857.651 8.85889 858.998C8.85889 860.344 4.63211 861.439 2.98193 861.439C1.33174 861.439 1.93265e-05 860.344 1.94442e-05 858.998C1.95619e-05 857.651 1.33657 856.561 2.98193 856.561Z" fill="#F753C3"/>
<path d="M17.0133 861.439C15.3679 861.439 11.1411 860.344 11.1411 858.998C11.1411 857.651 15.3679 856.561 17.0133 856.561C18.6586 856.561 20 857.651 20 858.998C20 860.344 18.6634 861.439 17.0133 861.439Z" fill="#F753C3"/>
</g>
<defs>
<clipPath id="clip0_15_472">
<rect width="42" height="42" fill="white" transform="translate(1834 170)"/>
</clipPath>
<clipPath id="clip1_15_472">
<rect width="26" height="27" fill="white" transform="translate(36 170)"/>
</clipPath>
<clipPath id="clip2_15_472">
<rect width="33" height="34" fill="white" transform="translate(1753 495)"/>
</clipPath>
<clipPath id="clip3_15_472">
<rect width="53" height="53" fill="white" transform="translate(1467 483)"/>
</clipPath>
<clipPath id="clip4_15_472">
<rect width="25" height="25" fill="white" transform="translate(520 558)"/>
</clipPath>
<clipPath id="clip5_15_472">
<rect width="20" height="20" fill="white" transform="translate(1461 802)"/>
</clipPath>
<clipPath id="clip6_15_472">
<rect width="24" height="24" fill="white" transform="translate(553 484)"/>
</clipPath>
<clipPath id="clip7_15_472">
<rect width="54" height="54" fill="white" transform="translate(320 462)"/>
</clipPath>
<clipPath id="clip8_15_472">
<rect width="27" height="27" fill="white" transform="translate(1487 898)"/>
</clipPath>
<clipPath id="clip9_15_472">
<rect width="70" height="70" fill="white" transform="translate(470 794)"/>
</clipPath>
<clipPath id="clip10_15_472">
<rect width="36" height="36" fill="white" transform="translate(1375 804)"/>
</clipPath>
<clipPath id="clip11_15_472">
<rect width="46" height="46" fill="white" transform="translate(1326 565)"/>
</clipPath>
<clipPath id="clip12_15_472">
<rect width="32" height="32" fill="white" transform="translate(741 185)"/>
</clipPath>
<clipPath id="clip13_15_472">
<rect width="37" height="37" fill="white" transform="translate(1302)"/>
</clipPath>
<clipPath id="clip14_15_472">
<rect width="55" height="54" fill="white" transform="translate(1327 220)"/>
</clipPath>
<clipPath id="clip15_15_472">
<rect width="27" height="27" fill="white" transform="translate(1403 854)"/>
</clipPath>
<clipPath id="clip16_15_472">
<rect width="26" height="27" fill="white" transform="translate(810 10)"/>
</clipPath>
<clipPath id="clip17_15_472">
<rect width="26" height="27" fill="white" transform="translate(374 498)"/>
</clipPath>
<clipPath id="clip18_15_472">
<rect width="30" height="29" fill="white" transform="translate(606 690)"/>
</clipPath>
<clipPath id="clip19_15_472">
<rect width="18" height="18" fill="white" transform="translate(194 452)"/>
</clipPath>
<clipPath id="clip20_15_472">
<rect width="33" height="33" fill="white" transform="translate(1373 287)"/>
</clipPath>
<clipPath id="clip21_15_472">
<rect width="20" height="21" fill="white" transform="translate(1421 523)"/>
</clipPath>
<clipPath id="clip22_15_472">
<rect width="32" height="32" fill="white" transform="translate(1229 645)"/>
</clipPath>
<clipPath id="clip23_15_472">
<rect width="32" height="32" fill="white" transform="translate(1284 644)"/>
</clipPath>
<clipPath id="clip24_15_472">
<rect width="70" height="70" fill="white" transform="translate(569 600)"/>
</clipPath>
<clipPath id="clip25_15_472">
<rect width="19" height="20" fill="white" transform="translate(667 645)"/>
</clipPath>
<clipPath id="clip26_15_472">
<rect width="37" height="37" fill="white" transform="translate(33 490)"/>
</clipPath>
<clipPath id="clip27_15_472">
<rect width="24" height="24" fill="white" transform="translate(1400 628)"/>
</clipPath>
<clipPath id="clip28_15_472">
<rect width="64" height="64" fill="white" transform="translate(1524 826)"/>
</clipPath>
<clipPath id="clip29_15_472">
<rect width="25" height="24" fill="white" transform="translate(550 782)"/>
</clipPath>
<clipPath id="clip30_15_472">
<rect width="24" height="24" fill="white" transform="translate(417 478)"/>
</clipPath>
<clipPath id="clip31_15_472">
<rect width="39" height="40" fill="white" transform="translate(238 489)"/>
</clipPath>
<clipPath id="clip32_15_472">
<rect width="41" height="41" fill="white" transform="translate(1312 53)"/>
</clipPath>
<clipPath id="clip33_15_472">
<rect width="20" height="20" fill="white" transform="translate(20 869) rotate(-180)"/>
</clipPath>
</defs>
</svg>
