<svg width="229" height="153" viewBox="0 0 229 153" fill="none" xmlns="http://www.w3.org/2000/svg">
<g clip-path="url(#clip0_196_7961)">
<path d="M220.023 144.022C220.209 143.885 220.362 143.708 220.47 143.503C220.577 143.299 220.638 143.072 220.645 142.841C220.653 142.61 220.608 142.38 220.515 142.169C220.421 141.958 220.28 141.77 220.104 141.621L198.379 119.896C198.23 119.72 198.042 119.579 197.831 119.485C197.62 119.392 197.39 119.347 197.159 119.355C196.928 119.362 196.701 119.423 196.497 119.53C196.292 119.638 196.115 119.791 195.978 119.977C195.792 120.115 195.64 120.293 195.533 120.498C195.426 120.703 195.367 120.93 195.36 121.161C195.353 121.392 195.399 121.622 195.494 121.833C195.588 122.044 195.729 122.23 195.907 122.379L217.621 144.093C217.77 144.271 217.956 144.412 218.167 144.506C218.378 144.601 218.608 144.647 218.839 144.64C219.07 144.633 219.297 144.574 219.502 144.467C219.707 144.36 219.885 144.208 220.023 144.022Z" fill="#007EC6"/>
<path d="M220.023 119.977C219.886 119.791 219.708 119.638 219.504 119.53C219.299 119.423 219.073 119.362 218.841 119.355C218.61 119.347 218.38 119.392 218.169 119.485C217.958 119.579 217.77 119.72 217.621 119.896L195.907 141.621C195.729 141.769 195.588 141.956 195.494 142.167C195.399 142.378 195.353 142.608 195.36 142.839C195.367 143.07 195.426 143.297 195.533 143.501C195.64 143.706 195.792 143.885 195.978 144.022C196.115 144.208 196.294 144.36 196.499 144.467C196.703 144.574 196.93 144.633 197.161 144.64C197.392 144.647 197.622 144.601 197.833 144.506C198.044 144.412 198.231 144.271 198.379 144.093L220.104 122.379C220.28 122.23 220.421 122.042 220.515 121.831C220.608 121.62 220.653 121.39 220.645 121.159C220.638 120.927 220.577 120.701 220.47 120.496C220.362 120.292 220.209 120.114 220.023 119.977Z" fill="#007EC6"/>
<path d="M213.122 146.728C213.122 143.273 210.832 134.396 208.005 134.396C205.178 134.396 202.878 143.273 202.878 146.728C202.878 150.183 205.178 153 208.005 153C210.832 153 213.122 150.193 213.122 146.728Z" fill="#007EC6"/>
<path d="M202.878 117.262C202.878 120.727 205.178 129.604 208.005 129.604C210.832 129.604 213.122 120.727 213.122 117.262C213.122 113.797 210.832 111 208.005 111C205.178 111 202.878 113.807 202.878 117.262Z" fill="#007EC6"/>
<path d="M222.738 126.878C219.273 126.878 210.396 129.168 210.396 131.995C210.396 134.822 219.273 137.122 222.738 137.122C226.203 137.122 229 134.822 229 131.995C229 129.168 226.193 126.878 222.738 126.878Z" fill="#007EC6"/>
<path d="M193.272 137.122C196.727 137.122 205.604 134.822 205.604 131.995C205.604 129.168 196.727 126.878 193.272 126.878C189.817 126.878 187 129.168 187 131.995C187 134.822 189.807 137.122 193.272 137.122Z" fill="#007EC6"/>
</g>
<g clip-path="url(#clip1_196_7961)">
<path d="M104.305 80.305C104.465 80.1876 104.596 80.0355 104.688 79.8601C104.781 79.6848 104.832 79.4908 104.839 79.2927C104.845 79.0945 104.807 78.8975 104.727 78.7163C104.646 78.5351 104.526 78.3746 104.374 78.2466L85.7534 59.6256C85.6254 59.4742 85.4649 59.3538 85.2837 59.2733C85.1025 59.1929 84.9054 59.1546 84.7073 59.1613C84.5092 59.168 84.3152 59.2195 84.1399 59.3119C83.9645 59.4044 83.8124 59.5354 83.695 59.6951C83.5358 59.8132 83.4055 59.9659 83.3138 60.1416C83.2221 60.3173 83.1715 60.5115 83.1656 60.7096C83.1598 60.9077 83.1989 61.1045 83.28 61.2853C83.3612 61.4661 83.4823 61.6262 83.6342 61.7535L102.246 80.3658C102.374 80.5177 102.534 80.6388 102.715 80.72C102.895 80.8011 103.092 80.8402 103.29 80.8344C103.489 80.8285 103.683 80.7779 103.858 80.6862C104.034 80.5945 104.187 80.4642 104.305 80.305Z" fill="#FF7D00"/>
<path d="M104.305 59.6951C104.187 59.5354 104.035 59.4044 103.86 59.3119C103.685 59.2195 103.491 59.168 103.293 59.1613C103.094 59.1546 102.897 59.1929 102.716 59.2733C102.535 59.3538 102.374 59.4742 102.246 59.6256L83.6342 78.2466C83.4823 78.3739 83.3612 78.534 83.28 78.7148C83.1989 78.8956 83.1598 79.0925 83.1656 79.2906C83.1715 79.4887 83.2221 79.6829 83.3138 79.8586C83.4055 80.0343 83.5358 80.1869 83.695 80.305C83.8131 80.4642 83.9657 80.5945 84.1414 80.6862C84.3171 80.7779 84.5113 80.8285 84.7094 80.8344C84.9075 80.8402 85.1044 80.8011 85.2852 80.72C85.466 80.6388 85.6261 80.5177 85.7534 80.3658L104.374 61.7535C104.526 61.6256 104.646 61.465 104.727 61.2838C104.807 61.1026 104.845 60.9056 104.839 60.7075C104.832 60.5093 104.781 60.3153 104.688 60.14C104.596 59.9646 104.465 59.8125 104.305 59.6951Z" fill="#FF7D00"/>
<path d="M98.3901 82.6239C98.3901 79.6622 96.4272 72.054 94.0041 72.054C91.5809 72.054 89.6094 79.6622 89.6094 82.6239C89.6094 85.5855 91.5809 88 94.0041 88C96.4272 88 98.3901 85.5942 98.3901 82.6239Z" fill="#FF7D00"/>
<path d="M89.6094 57.3673C89.6094 60.3376 91.5809 67.9458 94.0041 67.9458C96.4272 67.9458 98.3901 60.3376 98.3901 57.3673C98.3901 54.3969 96.4272 51.9998 94.0041 51.9998C91.5809 51.9998 89.6094 54.4056 89.6094 57.3673Z" fill="#FF7D00"/>
<path d="M106.632 65.6094C103.662 65.6094 96.0537 67.5723 96.0537 69.9954C96.0537 72.4186 103.662 74.3901 106.632 74.3901C109.603 74.3901 112 72.4186 112 69.9954C112 67.5723 109.594 65.6094 106.632 65.6094Z" fill="#FF7D00"/>
<path d="M81.3761 74.3901C84.3378 74.3901 91.946 72.4186 91.946 69.9954C91.946 67.5723 84.3378 65.6094 81.3761 65.6094C78.4145 65.6094 76 67.5723 76 69.9954C76 72.4186 78.4058 74.3901 81.3761 74.3901Z" fill="#FF7D00"/>
</g>
<g clip-path="url(#clip2_196_7961)">
<path d="M163.58 117.58C163.651 117.528 163.709 117.46 163.75 117.382C163.791 117.304 163.813 117.217 163.816 117.129C163.818 117.041 163.801 116.954 163.765 116.873C163.728 116.793 163.674 116.722 163.607 116.666L155.334 108.393C155.278 108.326 155.207 108.272 155.127 108.235C155.046 108.199 154.959 108.182 154.871 108.184C154.783 108.187 154.696 108.209 154.618 108.25C154.54 108.291 154.472 108.349 154.42 108.42C154.35 108.472 154.292 108.54 154.251 108.618C154.211 108.696 154.188 108.782 154.185 108.869C154.182 108.957 154.199 109.044 154.234 109.125C154.269 109.205 154.322 109.277 154.388 109.334L162.666 117.612C162.723 117.678 162.795 117.731 162.875 117.766C162.956 117.801 163.043 117.818 163.131 117.815C163.218 117.812 163.304 117.789 163.382 117.749C163.46 117.708 163.528 117.65 163.58 117.58Z" fill="#D50400"/>
<path d="M163.58 108.42C163.527 108.35 163.459 108.293 163.381 108.252C163.303 108.212 163.217 108.19 163.129 108.187C163.042 108.185 162.954 108.202 162.874 108.238C162.794 108.273 162.723 108.326 162.666 108.393L154.388 116.666C154.322 116.723 154.269 116.794 154.234 116.875C154.199 116.955 154.182 117.043 154.185 117.13C154.188 117.218 154.211 117.304 154.251 117.382C154.292 117.46 154.35 117.527 154.42 117.58C154.473 117.65 154.54 117.708 154.618 117.749C154.696 117.789 154.782 117.812 154.87 117.815C154.957 117.818 155.045 117.801 155.125 117.766C155.206 117.731 155.277 117.678 155.334 117.612L163.607 109.334C163.674 109.277 163.727 109.206 163.762 109.126C163.798 109.046 163.815 108.958 163.813 108.871C163.81 108.783 163.788 108.697 163.748 108.619C163.707 108.541 163.65 108.473 163.58 108.42Z" fill="#D50400"/>
<path d="M160.948 118.611C160.948 117.295 160.076 113.912 158.997 113.912C157.919 113.912 157.047 117.3 157.047 118.611C157.047 119.922 157.924 121 158.997 121C160.07 121 160.948 119.943 160.948 118.611Z" fill="#D50400"/>
<path d="M157.047 107.389C157.047 108.705 157.924 112.088 158.997 112.088C160.07 112.088 160.948 108.705 160.948 107.389C160.948 106.073 160.076 105 158.997 105C157.919 105 157.047 106.073 157.047 107.389Z" fill="#D50400"/>
<path d="M164.611 111.052C163.295 111.052 159.912 111.924 159.912 113.003C159.912 114.081 163.295 114.953 164.611 114.953C165.927 114.953 167 114.076 167 113.003C167 111.93 165.927 111.052 164.611 111.052Z" fill="#D50400"/>
<path d="M153.389 114.953C154.705 114.953 158.088 114.076 158.088 113.003C158.088 111.93 154.7 111.052 153.389 111.052C152.078 111.052 151 111.924 151 113.003C151 114.081 152.057 114.953 153.389 114.953Z" fill="#D50400"/>
</g>
<g clip-path="url(#clip3_196_7961)">
<path d="M19.6563 19.6565C19.7671 19.5747 19.8577 19.4687 19.9215 19.3467C19.9853 19.2247 20.0205 19.0898 20.0245 18.9522C20.0285 18.8145 20.0011 18.6778 19.9445 18.5523C19.8879 18.4268 19.8034 18.3158 19.6976 18.2277L6.77229 5.30237C6.6842 5.19655 6.57321 5.11215 6.44771 5.05552C6.3222 4.9989 6.18547 4.97154 6.04785 4.97552C5.91022 4.9795 5.7753 5.01471 5.65327 5.07848C5.53125 5.14226 5.42532 5.23294 5.34348 5.34366C5.23358 5.42581 5.14352 5.53158 5.07995 5.65316C5.01637 5.77475 4.98089 5.90906 4.97614 6.04618C4.97138 6.18331 4.99746 6.31976 5.05247 6.44546C5.10747 6.57116 5.18999 6.68291 5.29393 6.77247L18.2275 19.7061C18.3171 19.81 18.4288 19.8925 18.5545 19.9475C18.6802 20.0025 18.8167 20.0286 18.9538 20.0239C19.0909 20.0191 19.2252 19.9836 19.3468 19.9201C19.4684 19.8565 19.5742 19.7664 19.6563 19.6565Z" fill="#D50400"/>
<path d="M19.6563 5.34366C19.5736 5.23429 19.4673 5.14488 19.3454 5.08203C19.2234 5.01919 19.0889 4.98451 18.9518 4.98054C18.8147 4.97658 18.6785 5.00344 18.5531 5.05914C18.4277 5.11483 18.3165 5.19795 18.2275 5.30237L5.29393 18.2277C5.18999 18.3173 5.10747 18.429 5.05247 18.5547C4.99747 18.6804 4.97138 18.8169 4.97614 18.954C4.98089 19.0911 5.01637 19.2254 5.07995 19.347C5.14353 19.4686 5.23359 19.5744 5.34349 19.6565C5.42563 19.7664 5.5314 19.8565 5.65299 19.9201C5.77457 19.9836 5.90888 20.0191 6.04601 20.0239C6.18313 20.0286 6.31958 20.0025 6.44528 19.9475C6.57098 19.8925 6.68273 19.81 6.77229 19.7061L19.6976 6.77247C19.802 6.68351 19.8852 6.57225 19.9409 6.4469C19.9966 6.32154 20.0234 6.18528 20.0195 6.04817C20.0155 5.91105 19.9808 5.77657 19.918 5.65464C19.8551 5.53272 19.7657 5.42644 19.6563 5.34366Z" fill="#D50400"/>
<path d="M15.5434 21.2669C15.5434 19.2104 14.1807 13.9247 12.4958 13.9247C10.811 13.9247 9.44824 19.2187 9.44824 21.2669C9.44824 23.3152 10.8192 25 12.4958 25C14.1724 25 15.5434 23.3482 15.5434 21.2669Z" fill="#D50400"/>
<path d="M9.44824 3.73294C9.44824 5.78943 10.8192 11.0752 12.4958 11.0752C14.1724 11.0752 15.5434 5.78943 15.5434 3.73294C15.5434 1.67645 14.1807 -0.000126299 12.4958 -0.000126151C10.811 -0.000126004 9.44824 1.67645 9.44824 3.73294Z" fill="#D50400"/>
<path d="M21.2671 9.45661C19.2106 9.45661 13.9248 10.8193 13.9248 12.5042C13.9248 14.189 19.2106 15.5518 21.2671 15.5518C23.3235 15.5518 25.0001 14.1808 25.0001 12.5042C25.0001 10.8276 23.3235 9.45661 21.2671 9.45661Z" fill="#D50400"/>
<path d="M3.73307 15.5518C5.78956 15.5518 11.0753 14.1808 11.0753 12.5042C11.0753 10.8276 5.7813 9.45661 3.73307 9.45661C1.68484 9.45661 -4.1372e-07 10.8193 -2.66427e-07 12.5042C-1.19134e-07 14.189 1.6518 15.5518 3.73307 15.5518Z" fill="#D50400"/>
</g>
<g clip-path="url(#clip4_196_7961)">
<path d="M62.6563 20.6565C62.7671 20.5747 62.8577 20.4687 62.9215 20.3467C62.9853 20.2247 63.0205 20.0898 63.0245 19.9522C63.0285 19.8145 63.0011 19.6778 62.9445 19.5523C62.8879 19.4268 62.8034 19.3158 62.6976 19.2277L49.7723 6.30237C49.6842 6.19655 49.5732 6.11215 49.4477 6.05552C49.3222 5.9989 49.1855 5.97154 49.0478 5.97552C48.9102 5.9795 48.7753 6.01471 48.6533 6.07848C48.5313 6.14226 48.4253 6.23294 48.3435 6.34366C48.2336 6.42581 48.1435 6.53158 48.0799 6.65316C48.0164 6.77475 47.9809 6.90906 47.9761 7.04618C47.9714 7.18331 47.9975 7.31976 48.0525 7.44546C48.1075 7.57116 48.19 7.68291 48.2939 7.77247L61.2275 20.7061C61.3171 20.81 61.4288 20.8925 61.5545 20.9475C61.6802 21.0025 61.8167 21.0286 61.9538 21.0239C62.0909 21.0191 62.2252 20.9836 62.3468 20.9201C62.4684 20.8565 62.5742 20.7664 62.6563 20.6565Z" fill="#8F41C6"/>
<path d="M62.6563 6.34366C62.5736 6.23429 62.4673 6.14488 62.3454 6.08203C62.2234 6.01919 62.0889 5.98451 61.9518 5.98054C61.8147 5.97658 61.6785 6.00344 61.5531 6.05914C61.4277 6.11483 61.3165 6.19795 61.2275 6.30237L48.2939 19.2277C48.19 19.3173 48.1075 19.429 48.0525 19.5547C47.9975 19.6804 47.9714 19.8169 47.9761 19.954C47.9809 20.0911 48.0164 20.2254 48.0799 20.347C48.1435 20.4686 48.2336 20.5744 48.3435 20.6565C48.4256 20.7664 48.5314 20.8565 48.653 20.9201C48.7746 20.9836 48.9089 21.0191 49.046 21.0239C49.1831 21.0286 49.3196 21.0025 49.4453 20.9475C49.571 20.8925 49.6827 20.81 49.7723 20.7061L62.6976 7.77247C62.802 7.68351 62.8852 7.57225 62.9409 7.4469C62.9966 7.32154 63.0234 7.18528 63.0195 7.04817C63.0155 6.91105 62.9808 6.77657 62.918 6.65464C62.8551 6.53272 62.7657 6.42644 62.6563 6.34366Z" fill="#8F41C6"/>
<path d="M58.5434 22.2669C58.5434 20.2104 57.1807 14.9247 55.4958 14.9247C53.811 14.9247 52.4482 20.2187 52.4482 22.2669C52.4482 24.3152 53.8192 26 55.4958 26C57.1724 26 58.5434 24.3482 58.5434 22.2669Z" fill="#8F41C6"/>
<path d="M52.4482 4.73294C52.4482 6.78943 53.8192 12.0752 55.4958 12.0752C57.1724 12.0752 58.5434 6.78943 58.5434 4.73294C58.5434 2.67645 57.1807 0.999874 55.4958 0.999874C53.811 0.999874 52.4482 2.67645 52.4482 4.73294Z" fill="#8F41C6"/>
<path d="M64.2671 10.4566C62.2106 10.4566 56.9248 11.8193 56.9248 13.5042C56.9248 15.189 62.2106 16.5518 64.2671 16.5518C66.3235 16.5518 68.0001 15.1808 68.0001 13.5042C68.0001 11.8276 66.3235 10.4566 64.2671 10.4566Z" fill="#8F41C6"/>
<path d="M46.7331 16.5518C48.7896 16.5518 54.0753 15.1808 54.0753 13.5042C54.0753 11.8276 48.7813 10.4566 46.7331 10.4566C44.6848 10.4566 43 11.8193 43 13.5042C43 15.189 44.6518 16.5518 46.7331 16.5518Z" fill="#8F41C6"/>
</g>
<g clip-path="url(#clip5_196_7961)">
<path d="M148.939 34.9399C149.02 34.8771 149.085 34.7975 149.131 34.7066C149.177 34.6156 149.203 34.5157 149.206 34.4138C149.209 34.3119 149.19 34.2106 149.149 34.1171C149.109 34.0235 149.048 33.94 148.972 33.8724L139.127 24.0275C139.06 23.9478 138.975 23.8843 138.88 23.8419C138.784 23.7994 138.681 23.7789 138.576 23.7821C138.472 23.7852 138.37 23.8118 138.277 23.86C138.184 23.9081 138.104 23.9765 138.041 24.0601C137.957 24.1227 137.889 24.2033 137.841 24.296C137.793 24.3886 137.766 24.4909 137.763 24.5953C137.76 24.6997 137.78 24.8034 137.823 24.8988C137.865 24.9942 137.929 25.0788 138.008 25.1462L147.853 34.9725C147.921 35.0522 148.005 35.1157 148.101 35.1582C148.196 35.2006 148.3 35.2211 148.404 35.2179C148.509 35.2148 148.611 35.1882 148.704 35.14C148.796 35.0919 148.877 35.0235 148.939 34.9399Z" fill="#00B8AE"/>
<path d="M148.94 24.0602C148.878 23.9766 148.797 23.9082 148.705 23.86C148.612 23.8119 148.51 23.7853 148.405 23.7821C148.301 23.779 148.197 23.7994 148.102 23.8419C148.006 23.8844 147.922 23.9479 147.854 24.0276L138.028 33.8725C137.948 33.94 137.885 34.0246 137.842 34.1199C137.8 34.2153 137.779 34.3191 137.783 34.4234C137.786 34.5278 137.812 34.6301 137.86 34.7228C137.909 34.8154 137.977 34.8961 138.061 34.9586C138.125 35.0378 138.206 35.1018 138.297 35.1463C138.389 35.1907 138.489 35.2144 138.591 35.2158C138.693 35.2171 138.794 35.196 138.887 35.154C138.979 35.112 139.062 35.05 139.128 34.9726L148.973 25.1463C149.053 25.0788 149.116 24.9943 149.159 24.8989C149.201 24.8035 149.222 24.6998 149.218 24.5954C149.215 24.491 149.189 24.3887 149.141 24.296C149.092 24.2034 149.024 24.1228 148.94 24.0602Z" fill="#00B8AE"/>
<path d="M145.817 36.1658C145.817 34.5996 144.777 30.5721 143.486 30.5721C142.195 30.5721 141.155 34.5903 141.155 36.1658C141.155 37.7414 142.223 39 143.5 39C144.777 39 145.817 37.7321 145.817 36.1658Z" fill="#00B8AE"/>
<path d="M141.184 22.834C141.184 24.4003 142.223 28.4277 143.514 28.4277C144.806 28.4277 145.845 24.4096 145.845 22.834C145.845 21.2585 144.806 19.9999 143.514 19.9999C142.223 19.9999 141.184 21.2864 141.184 22.834Z" fill="#00B8AE"/>
<path d="M150.166 27.1833C148.6 27.1833 144.572 28.2181 144.572 29.514C144.572 30.8099 148.59 31.8447 150.166 31.8447C151.742 31.8447 153 30.8052 153 29.514C153 28.2228 151.714 27.1833 150.166 27.1833Z" fill="#00B8AE"/>
<path d="M136.834 31.8169C138.4 31.8169 142.428 30.7774 142.428 29.4862C142.428 28.195 138.41 27.1555 136.834 27.1555C135.259 27.1555 134 28.2183 134 29.5002C134 30.7821 135.268 31.8169 136.834 31.8169Z" fill="#00B8AE"/>
</g>
<defs>
<clipPath id="clip0_196_7961">
<rect width="42" height="42" fill="white" transform="matrix(1 -8.74228e-08 -8.74228e-08 -1 187 153)"/>
</clipPath>
<clipPath id="clip1_196_7961">
<rect width="36" height="36" fill="white" transform="matrix(1 -8.74228e-08 -8.74228e-08 -1 76 88)"/>
</clipPath>
<clipPath id="clip2_196_7961">
<rect width="16" height="16" fill="white" transform="matrix(1 -8.74228e-08 -8.74228e-08 -1 151 121)"/>
</clipPath>
<clipPath id="clip3_196_7961">
<rect width="25" height="25" fill="white" transform="matrix(1 -8.74228e-08 -8.74228e-08 -1 0 25)"/>
</clipPath>
<clipPath id="clip4_196_7961">
<rect width="25" height="25" fill="white" transform="matrix(1 -8.74228e-08 -8.74228e-08 -1 43 26)"/>
</clipPath>
<clipPath id="clip5_196_7961">
<rect width="19" height="19" fill="white" transform="matrix(1 -8.74228e-08 -8.74228e-08 -1 134 39)"/>
</clipPath>
</defs>
</svg>
