<svg width="160" height="475" viewBox="0 0 160 475" fill="none" xmlns="http://www.w3.org/2000/svg">
<g clip-path="url(#clip0_196_7833)">
<g clip-path="url(#clip1_196_7833)">
<path d="M80.4696 283.91C80.4096 283.994 80.3318 284.062 80.2422 284.111C80.1526 284.159 80.0536 284.186 79.9525 284.189C79.8515 284.192 79.7511 284.171 79.6589 284.128C79.5668 284.085 79.4853 284.021 79.4206 283.941L69.9312 274.137C69.8535 274.07 69.7915 273.986 69.7499 273.891C69.7084 273.796 69.6883 273.692 69.6912 273.588C69.6941 273.483 69.72 273.381 69.7668 273.288C69.8136 273.196 69.8802 273.116 69.9615 273.053C70.0218 272.97 70.0994 272.902 70.1887 272.854C70.278 272.805 70.3766 272.778 70.4772 272.775C70.5779 272.771 70.6781 272.791 70.7704 272.833C70.8627 272.874 70.9447 272.937 71.0105 273.016L80.506 282.826C80.5823 282.894 80.6429 282.979 80.6833 283.074C80.7237 283.169 80.7428 283.273 80.7393 283.377C80.7358 283.481 80.7098 283.583 80.6631 283.675C80.6164 283.767 80.5503 283.847 80.4696 283.91V283.91Z" fill="#8F41C6"/>
<path d="M69.9615 283.91C69.8812 283.847 69.8155 283.766 69.7694 283.674C69.7232 283.581 69.6978 283.479 69.6949 283.375C69.692 283.271 69.7117 283.168 69.7526 283.073C69.7935 282.978 69.8545 282.893 69.9312 282.826L79.4206 273.016C79.4864 272.937 79.5684 272.874 79.6607 272.833C79.753 272.791 79.8532 272.771 79.9539 272.775C80.0545 272.778 80.1531 272.805 80.2424 272.854C80.3317 272.902 80.4093 272.97 80.4696 273.053C80.5503 273.116 80.6164 273.196 80.6631 273.288C80.7098 273.38 80.7359 273.482 80.7393 273.586C80.7428 273.69 80.7237 273.794 80.6833 273.889C80.6429 273.985 80.5823 274.069 80.506 274.137L71.0105 283.941C70.9452 284.02 70.8635 284.083 70.7714 284.125C70.6794 284.168 70.5794 284.188 70.4787 284.185C70.378 284.182 70.2793 284.156 70.1898 284.108C70.1003 284.06 70.0222 283.993 69.9615 283.91V283.91Z" fill="#8F41C6"/>
<path d="M81.6518 280.789C80.142 280.789 76.2613 279.755 76.2613 278.478C76.2613 277.2 80.1481 276.166 81.6518 276.166C83.1556 276.166 84.3926 277.206 84.3926 278.478C84.3926 279.749 83.1799 280.789 81.6518 280.789Z" fill="#8F41C6"/>
<path d="M68.7789 276.166C70.2887 276.166 74.1694 277.206 74.1694 278.478C74.1694 279.749 70.2887 280.789 68.7789 280.789C67.2691 280.789 66.0382 279.755 66.0382 278.478C66.0382 277.2 67.2691 276.166 68.7789 276.166Z" fill="#8F41C6"/>
<path d="M72.9811 285.131C72.9811 283.571 73.9816 279.562 75.2186 279.562C76.4556 279.562 77.4561 283.571 77.4561 285.131C77.4561 286.691 76.4495 287.962 75.2186 287.962C73.9877 287.962 72.9811 286.691 72.9811 285.131Z" fill="#8F41C6"/>
<path d="M77.4561 271.831C77.4561 273.391 76.4495 277.401 75.2186 277.401C73.9877 277.401 72.9811 273.385 72.9811 271.831C72.9811 270.278 73.9816 269 75.2186 269C76.4556 269 77.4561 270.253 77.4561 271.831Z" fill="#8F41C6"/>
</g>
<g clip-path="url(#clip2_196_7833)">
<path d="M84.2556 346.983C84.1519 347.127 84.0178 347.245 83.8635 347.328C83.7092 347.411 83.5386 347.457 83.3647 347.462C83.1908 347.467 83.018 347.432 82.8593 347.358C82.7007 347.284 82.5603 347.174 82.4487 347.036L66.1229 330.17C65.9905 330.055 65.885 329.91 65.8142 329.747C65.7434 329.583 65.7093 329.405 65.7143 329.227C65.7192 329.048 65.7632 328.872 65.843 328.713C65.9227 328.555 66.0361 328.416 66.1747 328.309C66.278 328.164 66.4118 328.046 66.5658 327.962C66.7199 327.879 66.8903 327.832 67.0642 327.827C67.2382 327.821 67.4111 327.856 67.57 327.929C67.7289 328.003 67.8697 328.112 67.9817 328.25L84.3074 345.116C84.4409 345.231 84.5474 345.376 84.6188 345.54C84.6902 345.704 84.7247 345.883 84.7197 346.062C84.7148 346.242 84.6704 346.418 84.59 346.578C84.5096 346.737 84.3953 346.876 84.2556 346.983V346.983Z" fill="#FCEA00"/>
<path d="M66.1749 346.983C66.0353 346.876 65.9209 346.737 65.8406 346.578C65.7602 346.418 65.7158 346.242 65.7108 346.062C65.7058 345.883 65.7404 345.704 65.8118 345.54C65.8832 345.376 65.9897 345.231 66.1232 345.116L82.4489 328.25C82.5609 328.112 82.7017 328.003 82.8606 327.929C83.0195 327.856 83.1924 327.821 83.3663 327.827C83.5403 327.832 83.7107 327.879 83.8647 327.962C84.0188 328.046 84.1525 328.164 84.2558 328.309C84.3945 328.416 84.5079 328.555 84.5876 328.713C84.6673 328.872 84.7113 329.048 84.7163 329.227C84.7213 329.405 84.6871 329.583 84.6164 329.747C84.5456 329.91 84.4401 330.055 84.3076 330.17L67.9819 347.036C67.8703 347.174 67.7299 347.284 67.5712 347.358C67.4126 347.432 67.2398 347.467 67.0659 347.462C66.8919 347.457 66.7214 347.411 66.5671 347.328C66.4128 347.245 66.2787 347.127 66.1749 346.983V346.983Z" fill="#FCEA00"/>
<path d="M86.287 341.621C83.6859 341.621 77.0164 339.837 77.0164 337.643C77.0164 335.449 83.6859 333.666 86.287 333.666C88.8881 333.666 91 335.449 91 337.643C91 339.837 88.8881 341.621 86.287 341.621Z" fill="#FCEA00"/>
<path d="M64.1434 333.666C66.7445 333.666 73.4141 335.449 73.4141 337.643C73.4141 339.837 66.7445 341.621 64.1434 341.621C61.5424 341.621 59.4304 339.837 59.4304 337.643C59.4304 335.449 61.5424 333.666 64.1434 333.666Z" fill="#FCEA00"/>
<path d="M71.3653 349.081C71.3653 346.394 73.0917 339.504 75.2151 339.504C77.3386 339.504 79.0649 346.394 79.0649 349.081C79.0649 351.769 77.3386 353.95 75.2151 353.95C73.0917 353.95 71.3653 351.769 71.3653 349.081Z" fill="#FCEA00"/>
<path d="M79.0649 326.205C79.0649 328.892 77.3386 335.782 75.2151 335.782C73.0917 335.782 71.3653 328.892 71.3653 326.205C71.3653 323.518 73.0917 321.336 75.2151 321.336C77.3386 321.336 79.0649 323.518 79.0649 326.205Z" fill="#FCEA00"/>
</g>
<g clip-path="url(#clip3_196_7833)">
<path d="M48.0082 364.147C47.9457 364.234 47.8648 364.306 47.7716 364.356C47.6784 364.406 47.5754 364.434 47.4703 364.437C47.3653 364.44 47.2609 364.419 47.165 364.374C47.0692 364.33 46.9845 364.263 46.9172 364.18L37.0481 353.984C36.9673 353.914 36.9029 353.827 36.8596 353.728C36.8164 353.629 36.7955 353.521 36.7986 353.412C36.8016 353.304 36.8285 353.197 36.8772 353.101C36.9259 353.005 36.9951 352.921 37.0797 352.857C37.1424 352.77 37.2231 352.699 37.316 352.649C37.4088 352.599 37.5114 352.571 37.6161 352.567C37.7208 352.563 37.8249 352.584 37.9209 352.627C38.0169 352.67 38.1022 352.735 38.1706 352.817L48.046 363.02C48.1254 363.091 48.1884 363.179 48.2304 363.278C48.2724 363.377 48.2923 363.485 48.2886 363.593C48.285 363.701 48.2579 363.807 48.2094 363.903C48.1608 363.999 48.0921 364.082 48.0082 364.147V364.147Z" fill="#D50400"/>
<path d="M37.0797 364.147C36.9961 364.082 36.9279 363.998 36.8799 363.902C36.8319 363.805 36.8054 363.699 36.8024 363.591C36.7994 363.483 36.8199 363.376 36.8624 363.277C36.9049 363.178 36.9684 363.09 37.0481 363.02L46.9172 352.817C46.9856 352.735 47.0709 352.67 47.1669 352.627C47.2629 352.584 47.367 352.563 47.4717 352.567C47.5764 352.571 47.679 352.599 47.7718 352.649C47.8647 352.699 47.9454 352.77 48.0082 352.857C48.0921 352.921 48.1608 353.005 48.2094 353.101C48.2579 353.197 48.285 353.303 48.2886 353.411C48.2923 353.519 48.2724 353.627 48.2304 353.726C48.1884 353.825 48.1254 353.913 48.046 353.984L38.1706 364.18C38.1027 364.262 38.0177 364.327 37.922 364.371C37.8263 364.415 37.7223 364.437 37.6176 364.433C37.5129 364.43 37.4102 364.403 37.3171 364.353C37.224 364.304 37.1429 364.233 37.0797 364.147V364.147Z" fill="#D50400"/>
<path d="M49.238 360.903C47.6678 360.903 43.6319 359.828 43.6319 358.498C43.6319 357.169 47.6741 356.094 49.238 356.094C50.8019 356.094 52.0884 357.176 52.0884 358.498C52.0884 359.821 50.8272 360.903 49.238 360.903Z" fill="#D50400"/>
<path d="M35.8499 356.094C37.4201 356.094 41.4561 357.176 41.4561 358.498C41.4561 359.821 37.4201 360.902 35.8499 360.902C34.2797 360.902 32.9996 359.827 32.9996 358.498C32.9996 357.169 34.2797 356.094 35.8499 356.094Z" fill="#D50400"/>
<path d="M40.2201 365.417C40.2201 363.795 41.2606 359.626 42.5471 359.626C43.8335 359.626 44.874 363.795 44.874 365.417C44.874 367.04 43.8272 368.362 42.5471 368.362C41.2669 368.362 40.2201 367.04 40.2201 365.417Z" fill="#D50400"/>
<path d="M44.874 351.586C44.874 353.208 43.8272 357.378 42.5471 357.378C41.2669 357.378 40.2201 353.202 40.2201 351.586C40.2201 349.97 41.2606 348.641 42.5471 348.641C43.8335 348.641 44.874 349.944 44.874 351.586Z" fill="#D50400"/>
</g>
<g clip-path="url(#clip4_196_7833)">
<path d="M152.092 466.396C151.971 466.566 151.814 466.704 151.633 466.802C151.453 466.899 151.253 466.953 151.049 466.959C150.846 466.965 150.643 466.923 150.457 466.837C150.272 466.75 150.107 466.621 149.977 466.459L130.848 446.696C130.691 446.562 130.566 446.392 130.482 446.2C130.398 446.008 130.358 445.799 130.364 445.589C130.37 445.378 130.422 445.172 130.516 444.985C130.611 444.799 130.745 444.637 130.909 444.512C131.03 444.344 131.187 444.206 131.367 444.109C131.547 444.012 131.746 443.957 131.948 443.95C132.151 443.943 132.353 443.983 132.539 444.067C132.725 444.151 132.891 444.277 133.023 444.436L152.165 464.212C152.319 464.349 152.441 464.519 152.522 464.712C152.604 464.904 152.642 465.112 152.635 465.322C152.628 465.532 152.576 465.737 152.482 465.923C152.388 466.109 152.254 466.271 152.092 466.396V466.396Z" fill="#D50400"/>
<path d="M130.909 466.396C130.747 466.27 130.615 466.107 130.522 465.921C130.428 465.734 130.377 465.529 130.371 465.319C130.365 465.109 130.405 464.901 130.488 464.709C130.57 464.518 130.693 464.348 130.848 464.212L149.977 444.436C150.11 444.277 150.275 444.151 150.461 444.067C150.647 443.983 150.849 443.943 151.052 443.95C151.255 443.957 151.454 444.012 151.634 444.109C151.814 444.206 151.97 444.344 152.092 444.512C152.254 444.637 152.388 444.799 152.482 444.985C152.576 445.171 152.628 445.376 152.635 445.586C152.642 445.796 152.604 446.004 152.522 446.196C152.441 446.389 152.319 446.559 152.165 446.696L133.023 466.459C132.892 466.619 132.727 466.746 132.542 466.831C132.356 466.916 132.154 466.958 131.951 466.951C131.748 466.945 131.549 466.892 131.369 466.796C131.189 466.7 131.031 466.563 130.909 466.396V466.396Z" fill="#D50400"/>
<path d="M154.475 460.108C151.431 460.108 143.609 458.024 143.609 455.448C143.609 452.872 151.444 450.788 154.475 450.788C157.506 450.788 160 452.884 160 455.448C160 458.011 157.555 460.108 154.475 460.108Z" fill="#D50400"/>
<path d="M128.525 450.788C131.569 450.788 139.392 452.884 139.392 455.448C139.392 458.011 131.569 460.108 128.525 460.108C125.481 460.108 123 458.024 123 455.448C123 452.872 125.481 450.788 128.525 450.788Z" fill="#D50400"/>
<path d="M136.996 468.859C136.996 465.715 139.013 457.633 141.506 457.633C144 457.633 146.017 465.715 146.017 468.859C146.017 472.004 143.988 474.567 141.506 474.567C139.025 474.567 136.996 472.004 136.996 468.859Z" fill="#D50400"/>
<path d="M146.017 442.05C146.017 445.194 143.988 453.276 141.506 453.276C139.025 453.276 136.996 445.181 136.996 442.05C136.996 438.918 139.013 436.342 141.506 436.342C144 436.342 146.017 438.867 146.017 442.05Z" fill="#D50400"/>
</g>
<g clip-path="url(#clip5_196_7833)">
<path d="M98.0225 180.605C98.2088 180.463 98.3617 180.28 98.4696 180.069C98.5774 179.857 98.6375 179.624 98.6453 179.385C98.6531 179.146 98.6084 178.909 98.5146 178.69C98.4208 178.472 98.2802 178.278 98.1036 178.124L76.3791 155.68C76.2298 155.498 76.0425 155.352 75.8311 155.256C75.6197 155.159 75.3899 155.112 75.1587 155.12C74.9276 155.129 74.7012 155.191 74.4967 155.302C74.2921 155.414 74.1146 155.571 73.9776 155.764C73.792 155.906 73.6399 156.09 73.533 156.302C73.426 156.514 73.3669 156.748 73.36 156.987C73.3532 157.225 73.3989 157.463 73.4935 157.681C73.5882 157.899 73.7295 158.091 73.9067 158.245L95.6211 180.678C95.7696 180.861 95.9563 181.007 96.1673 181.105C96.3782 181.203 96.6079 181.25 96.839 181.243C97.0701 181.236 97.2967 181.175 97.5017 181.064C97.7067 180.954 97.8847 180.797 98.0225 180.605Z" fill="#007EC6"/>
<path d="M98.0225 155.764C97.8855 155.571 97.7081 155.414 97.5035 155.302C97.2989 155.191 97.0726 155.129 96.8415 155.12C96.6103 155.112 96.3804 155.159 96.1691 155.256C95.9577 155.352 95.7703 155.498 95.6211 155.68L73.9067 178.124C73.7295 178.277 73.5882 178.47 73.4935 178.688C73.3989 178.906 73.3532 179.144 73.36 179.382C73.3669 179.621 73.426 179.855 73.533 180.067C73.6399 180.279 73.792 180.463 73.9777 180.605C74.1154 180.797 74.2935 180.954 74.4985 181.064C74.7035 181.175 74.9301 181.236 75.1612 181.243C75.3923 181.25 75.622 181.203 75.8329 181.105C76.0439 181.007 76.2306 180.861 76.3791 180.678L98.1036 158.245C98.2802 158.091 98.4208 157.897 98.5146 157.679C98.6084 157.46 98.6531 157.223 98.6453 156.984C98.6375 156.745 98.5774 156.511 98.4696 156.3C98.3617 156.089 98.2088 155.905 98.0225 155.764Z" fill="#007EC6"/>
<path d="M91.1221 183.4C91.1221 179.83 88.8321 170.66 86.0051 170.66C83.178 170.66 80.8779 179.83 80.8779 183.4C80.8779 186.97 83.178 189.88 86.0051 189.88C88.8321 189.88 91.1221 186.98 91.1221 183.4Z" fill="#007EC6"/>
<path d="M80.8779 152.958C80.8779 156.539 83.178 165.709 86.0051 165.709C88.8321 165.709 91.1221 156.539 91.1221 152.958C91.1221 149.378 88.8321 146.489 86.0051 146.489C83.178 146.489 80.8779 149.389 80.8779 152.958Z" fill="#007EC6"/>
<path d="M100.738 162.893C97.2727 162.893 88.3965 165.259 88.3965 168.179C88.3965 171.1 97.2727 173.476 100.738 173.476C104.203 173.476 107 171.1 107 168.179C107 165.259 104.193 162.893 100.738 162.893Z" fill="#007EC6"/>
<path d="M71.2721 173.476C74.7274 173.476 83.6036 171.1 83.6036 168.179C83.6036 165.259 74.7274 162.893 71.2721 162.893C67.8169 162.893 65 165.259 65 168.179C65 171.1 67.8068 173.476 71.2721 173.476Z" fill="#007EC6"/>
</g>
<g clip-path="url(#clip6_196_7833)">
<path d="M41.5803 153.287C41.6511 153.233 41.7091 153.163 41.75 153.082C41.7908 153.002 41.8133 152.912 41.8159 152.821C41.8184 152.73 41.8009 152.64 41.7647 152.557C41.7284 152.474 41.6744 152.401 41.6067 152.342L33.3345 143.796C33.2781 143.726 33.207 143.67 33.1267 143.633C33.0464 143.596 32.9589 143.577 32.8708 143.58C32.7827 143.583 32.6964 143.606 32.6183 143.648C32.5402 143.69 32.4724 143.75 32.42 143.824C32.3497 143.878 32.2921 143.948 32.2514 144.028C32.2107 144.109 32.188 144.197 32.1849 144.288C32.1819 144.379 32.1986 144.469 32.2338 144.552C32.269 144.635 32.3218 144.709 32.3883 144.768L40.6658 153.32C40.7231 153.389 40.7947 153.443 40.8751 153.479C40.9556 153.516 41.0429 153.533 41.1306 153.53C41.2184 153.527 41.3044 153.503 41.3822 153.461C41.46 153.419 41.5277 153.36 41.5803 153.287V153.287Z" fill="#D50400"/>
<path d="M41.5803 143.824C41.5273 143.751 41.4593 143.692 41.3812 143.651C41.3032 143.609 41.2171 143.586 41.1294 143.583C41.0416 143.581 40.9544 143.599 40.8742 143.635C40.794 143.672 40.7227 143.727 40.6658 143.796L32.3883 152.342C32.3218 152.402 32.269 152.475 32.2338 152.559C32.1986 152.642 32.1819 152.732 32.1849 152.823C32.188 152.913 32.2107 153.002 32.2514 153.082C32.2921 153.163 32.3497 153.233 32.42 153.287C32.4726 153.36 32.5403 153.419 32.6181 153.461C32.6959 153.503 32.7819 153.527 32.8696 153.53C32.9574 153.533 33.0447 153.516 33.1252 153.48C33.2056 153.443 33.2771 153.389 33.3345 153.32L41.6067 144.768C41.6735 144.709 41.7267 144.636 41.7623 144.553C41.798 144.47 41.8152 144.38 41.8126 144.289C41.8101 144.199 41.7879 144.11 41.7477 144.029C41.7075 143.949 41.6503 143.878 41.5803 143.824V143.824Z" fill="#D50400"/>
<path d="M38.9478 154.352C38.9478 152.992 38.0756 149.497 36.9973 149.497C35.919 149.497 35.0469 152.998 35.0469 154.352C35.0469 155.706 35.9243 156.82 36.9973 156.82C38.0703 156.82 38.9478 155.728 38.9478 154.352Z" fill="#D50400"/>
<path d="M35.0469 142.759C35.0469 144.118 35.9243 147.613 36.9973 147.613C38.0703 147.613 38.9478 144.118 38.9478 142.759C38.9478 141.399 38.0756 140.29 36.9973 140.29C35.919 140.29 35.0469 141.399 35.0469 142.759Z" fill="#D50400"/>
<path d="M42.6107 146.543C41.2945 146.543 37.9116 147.444 37.9116 148.558C37.9116 149.672 41.2945 150.573 42.6107 150.573C43.9268 150.573 44.9998 149.667 44.9998 148.558C44.9998 147.449 43.9268 146.543 42.6107 146.543Z" fill="#D50400"/>
<path d="M31.3892 150.573C32.7053 150.573 36.0882 149.667 36.0882 148.558C36.0882 147.449 32.7 146.543 31.3892 146.543C30.0783 146.543 29 147.444 29 148.558C29 149.672 30.0572 150.573 31.3892 150.573Z" fill="#D50400"/>
</g>
<g clip-path="url(#clip7_196_7833)">
<path d="M26.94 67.9102C27.0203 67.8453 27.0858 67.763 27.1319 67.6691C27.178 67.5752 27.2035 67.4719 27.2066 67.3667C27.2097 67.2614 27.1904 67.1567 27.1499 67.0601C27.1095 66.9634 27.0489 66.8771 26.9726 66.8074L17.1277 56.6364C17.0602 56.5541 16.9756 56.4885 16.8802 56.4446C16.7848 56.4007 16.6811 56.3796 16.5767 56.3828C16.4724 56.3861 16.37 56.4136 16.2774 56.4633C16.1847 56.5131 16.1041 56.5837 16.0415 56.6701C15.958 56.7347 15.8895 56.818 15.8414 56.9138C15.7933 57.0095 15.7666 57.1152 15.7635 57.223C15.7604 57.3308 15.7808 57.438 15.8233 57.5366C15.8658 57.6351 15.9292 57.7225 16.0089 57.7922L25.8539 67.9439C25.9213 68.0262 26.0059 68.0918 26.1013 68.1357C26.1967 68.1796 26.3004 68.2007 26.4048 68.1974C26.5092 68.1942 26.6115 68.1667 26.7041 68.1169C26.7968 68.0672 26.8774 67.9965 26.94 67.9102V67.9102Z" fill="#00B8AE"/>
<path d="M26.9399 56.6701C26.8773 56.5837 26.7967 56.513 26.704 56.4633C26.6114 56.4136 26.5091 56.3861 26.4047 56.3828C26.3003 56.3796 26.1966 56.4007 26.1012 56.4446C26.0058 56.4885 25.9212 56.554 25.8538 56.6364L16.0275 66.8073C15.9478 66.877 15.8843 66.9644 15.8418 67.063C15.7994 67.1615 15.7789 67.2687 15.7821 67.3765C15.7852 67.4843 15.8118 67.59 15.86 67.6858C15.9081 67.7815 15.9765 67.8648 16.0601 67.9294C16.1243 68.0112 16.205 68.0774 16.2967 68.1233C16.3884 68.1692 16.4887 68.1937 16.5906 68.1951C16.6924 68.1964 16.7933 68.1747 16.8861 68.1312C16.9789 68.0878 17.0614 68.0239 17.1276 67.9439L26.9725 57.7922C27.0522 57.7225 27.1157 57.6351 27.1581 57.5365C27.2006 57.438 27.2211 57.3308 27.2179 57.223C27.2148 57.1152 27.1882 57.0095 27.14 56.9137C27.0919 56.818 27.0235 56.7347 26.9399 56.6701V56.6701Z" fill="#00B8AE"/>
<path d="M23.8167 69.1767C23.8167 67.5586 22.7772 63.3978 21.486 63.3978C20.1948 63.3978 19.1553 67.549 19.1553 69.1767C19.1553 70.8045 20.2227 72.1047 21.5 72.1047C22.7772 72.1047 23.8167 70.7948 23.8167 69.1767Z" fill="#00B8AE"/>
<path d="M19.1831 55.4035C19.1831 57.0216 20.2226 61.1825 21.5138 61.1825C22.805 61.1825 23.8445 57.0313 23.8445 55.4035C23.8445 53.7758 22.805 52.4755 21.5138 52.4755C20.2226 52.4755 19.1831 53.8047 19.1831 55.4035Z" fill="#00B8AE"/>
<path d="M28.166 59.8967C26.5997 59.8967 22.5723 60.9658 22.5723 62.3046C22.5723 63.6434 26.5904 64.7125 28.166 64.7125C29.7415 64.7125 31.0001 63.6385 31.0001 62.3046C31.0001 60.9706 29.7136 59.8967 28.166 59.8967Z" fill="#00B8AE"/>
<path d="M14.8342 64.6833C16.4004 64.6833 20.4279 63.6094 20.4279 62.2755C20.4279 60.9415 16.4097 59.8676 14.8342 59.8676C13.2586 59.8676 12 60.9656 12 62.2899C12 63.6142 13.2679 64.6833 14.8342 64.6833Z" fill="#00B8AE"/>
</g>
<g clip-path="url(#clip8_196_7833)">
<path d="M114.814 9.18627C115.004 9.32759 115.16 9.51021 115.269 9.7204C115.379 9.93058 115.439 10.1629 115.446 10.3997C115.453 10.6366 115.406 10.872 115.308 11.0881C115.211 11.3042 115.066 11.4954 114.884 11.6474L92.6474 33.8842C92.4954 34.0646 92.3046 34.2084 92.0892 34.3048C91.8739 34.4011 91.6396 34.4477 91.4037 34.4409C91.1679 34.4341 90.9367 34.3742 90.7272 34.2656C90.5178 34.157 90.3355 34.0025 90.1941 33.8137C90.0034 33.673 89.847 33.4908 89.7368 33.281C89.6266 33.0711 89.5655 32.839 89.5579 32.6021C89.5504 32.3652 89.5967 32.1297 89.6933 31.9132C89.7899 31.6968 89.9343 31.5051 90.1157 31.3525L112.352 9.11572C112.504 8.93389 112.696 8.78888 112.912 8.69161C113.128 8.59433 113.363 8.54732 113.6 8.55411C113.837 8.5609 114.069 8.62131 114.28 8.73081C114.49 8.8403 114.672 8.99602 114.814 9.18627V9.18627Z" fill="#FF50C8"/>
<path d="M114.814 33.8137C114.672 34.0039 114.49 34.1597 114.28 34.2691C114.069 34.3786 113.837 34.4391 113.6 34.4458C113.363 34.4526 113.128 34.4056 112.912 34.3083C112.696 34.2111 112.504 34.0661 112.352 33.8842L90.1157 11.6474C89.9343 11.4949 89.7899 11.3032 89.6933 11.0867C89.5967 10.8703 89.5504 10.6347 89.5579 10.3978C89.5655 10.1609 89.6266 9.92883 89.7368 9.71897C89.847 9.50912 90.0034 9.32698 90.1941 9.18627C90.3355 8.99743 90.5178 8.84296 90.7272 8.73436C90.9367 8.62576 91.1679 8.56584 91.4037 8.55906C91.6396 8.55228 91.8739 8.59881 92.0892 8.6952C92.3046 8.79158 92.4954 8.93533 92.6474 9.11572L114.884 31.3525C115.066 31.5045 115.211 31.6957 115.308 31.9119C115.406 32.128 115.453 32.3633 115.446 32.6002C115.439 32.8371 115.379 33.0694 115.269 33.2796C115.16 33.4897 115.004 33.6724 114.814 33.8137V33.8137Z" fill="#FF50C8"/>
<path d="M107.744 6.41943C107.744 9.96227 105.392 19.0467 102.5 19.0467C99.6078 19.0467 97.2563 9.96227 97.2563 6.41943C97.2563 2.87659 99.6078 0 102.5 0C105.392 0 107.744 2.87659 107.744 6.41943Z" fill="#FF50C8"/>
<path d="M97.2563 36.5805C97.2563 33.0377 99.6078 23.9533 102.5 23.9533C105.392 23.9533 107.744 33.0377 107.744 36.5805C107.744 40.1234 105.392 43 102.5 43C99.6078 43 97.2563 40.1234 97.2563 36.5805Z" fill="#FF50C8"/>
<path d="M117.58 26.7437C114.038 26.7437 104.953 24.3923 104.953 21.5C104.953 18.6077 114.038 16.2563 117.58 16.2563C121.123 16.2563 124 18.6077 124 21.5C124 24.3923 121.123 26.7437 117.58 26.7437Z" fill="#FF50C8"/>
<path d="M87.4194 16.2563C90.9623 16.2563 100.047 18.6077 100.047 21.5C100.047 24.3923 90.9623 26.7437 87.4194 26.7437C83.8766 26.7437 81 24.3923 81 21.5C81 18.6077 83.8766 16.2563 87.4194 16.2563Z" fill="#FF50C8"/>
</g>
<g clip-path="url(#clip9_196_7833)">
<path d="M45.8013 268.502C45.9299 268.598 46.0355 268.722 46.11 268.866C46.1844 269.01 46.2259 269.169 46.2313 269.331C46.2367 269.493 46.2058 269.654 46.1411 269.803C46.0763 269.951 45.9792 270.083 45.8573 270.188L30.857 285.441C30.754 285.565 30.6246 285.663 30.4787 285.729C30.3327 285.795 30.174 285.827 30.0144 285.821C29.8548 285.816 29.6985 285.773 29.5572 285.698C29.416 285.622 29.2935 285.515 29.1989 285.384C29.0707 285.287 28.9657 285.162 28.8918 285.018C28.818 284.874 28.7771 284.715 28.7724 284.553C28.7677 284.391 28.7992 284.229 28.8646 284.081C28.93 283.933 29.0275 283.802 29.1499 283.698L44.1431 268.452C44.2457 268.327 44.3746 268.228 44.5203 268.162C44.6659 268.095 44.8245 268.063 44.9841 268.068C45.1437 268.073 45.3001 268.114 45.4417 268.189C45.5832 268.264 45.7062 268.371 45.8013 268.502Z" fill="#007EC6"/>
<path d="M45.8013 285.384C45.7067 285.515 45.5842 285.622 45.4429 285.698C45.3017 285.773 45.1454 285.816 44.9858 285.821C44.8262 285.827 44.6675 285.795 44.5215 285.729C44.3756 285.663 44.2462 285.565 44.1431 285.441L29.1499 270.188C29.0275 270.083 28.93 269.952 28.8646 269.804C28.7992 269.656 28.7677 269.495 28.7724 269.333C28.7771 269.17 28.818 269.011 28.8918 268.867C28.9657 268.723 29.0707 268.598 29.1989 268.502C29.294 268.371 29.417 268.264 29.5585 268.189C29.7001 268.114 29.8565 268.073 30.0161 268.068C30.1757 268.063 30.3342 268.095 30.4799 268.162C30.6255 268.228 30.7545 268.327 30.857 268.452L45.8573 283.698C45.9792 283.802 46.0763 283.934 46.1411 284.082C46.2058 284.231 46.2367 284.392 46.2313 284.555C46.2259 284.717 46.1844 284.876 46.11 285.019C46.0355 285.163 45.9299 285.288 45.8013 285.384Z" fill="#007EC6"/>
<path d="M41.0367 266.602C41.0367 269.028 39.4555 275.26 37.5035 275.26C35.5516 275.26 33.9634 269.028 33.9634 266.602C33.9634 264.176 35.5516 262.198 37.5035 262.198C39.4555 262.198 41.0367 264.169 41.0367 266.602Z" fill="#007EC6"/>
<path d="M33.9634 287.29C33.9634 284.857 35.5516 278.625 37.5035 278.625C39.4555 278.625 41.0367 284.857 41.0367 287.29C41.0367 289.723 39.4555 291.687 37.5035 291.687C35.5516 291.687 33.9634 289.716 33.9634 287.29Z" fill="#007EC6"/>
<path d="M47.6764 280.539C45.2836 280.539 39.1548 278.931 39.1548 276.947C39.1548 274.962 45.2836 273.347 47.6764 273.347C50.0691 273.347 52.0001 274.962 52.0001 276.947C52.0001 278.931 50.0621 280.539 47.6764 280.539Z" fill="#007EC6"/>
<path d="M27.3308 273.347C29.7165 273.347 35.8454 274.962 35.8454 276.947C35.8454 278.931 29.7165 280.539 27.3308 280.539C24.945 280.539 23 278.931 23 276.947C23 274.962 24.938 273.347 27.3308 273.347Z" fill="#007EC6"/>
</g>
</g>
<defs>
<clipPath id="clip0_196_7833">
<rect width="160" height="475" fill="white"/>
</clipPath>
<clipPath id="clip1_196_7833">
<rect width="18.9622" height="18.3544" fill="white" transform="translate(84.3926 269) rotate(90)"/>
</clipPath>
<clipPath id="clip2_196_7833">
<rect width="32.6151" height="31.5696" fill="white" transform="translate(91 321.336) rotate(90)"/>
</clipPath>
<clipPath id="clip3_196_7833">
<rect width="19.7207" height="19.0886" fill="white" transform="translate(52.0884 348.641) rotate(90)"/>
</clipPath>
<clipPath id="clip4_196_7833">
<rect width="38.2253" height="37" fill="white" transform="translate(160 436.342) rotate(90)"/>
</clipPath>
<clipPath id="clip5_196_7833">
<rect width="42" height="43.3908" fill="white" transform="matrix(1 -1.01469e-07 -7.53213e-08 -1 65 189.88)"/>
</clipPath>
<clipPath id="clip6_196_7833">
<rect width="16" height="16.5298" fill="white" transform="matrix(1 -1.04459e-07 -7.26089e-08 -1 29 156.82)"/>
</clipPath>
<clipPath id="clip7_196_7833">
<rect width="19" height="19.6292" fill="white" transform="matrix(1 -1.04459e-07 -7.26089e-08 -1 12 72.1047)"/>
</clipPath>
<clipPath id="clip8_196_7833">
<rect width="43" height="43" fill="white" transform="translate(81)"/>
</clipPath>
<clipPath id="clip9_196_7833">
<rect width="29" height="29.4888" fill="white" transform="translate(23 262.198)"/>
</clipPath>
</defs>
</svg>
