<svg width="141" height="227" viewBox="0 0 141 227" fill="none" xmlns="http://www.w3.org/2000/svg">
<g clip-path="url(#clip0_196_7835)">
<g clip-path="url(#clip1_196_7835)">
<path d="M112.814 9.18627C113.004 9.32759 113.16 9.51021 113.27 9.7204C113.379 9.93058 113.44 10.1629 113.446 10.3997C113.453 10.6366 113.406 10.872 113.309 11.0881C113.212 11.3042 113.067 11.4954 112.885 11.6474L90.6479 33.8842C90.4959 34.0646 90.3051 34.2084 90.0897 34.3048C89.8744 34.4011 89.6401 34.4477 89.4042 34.4409C89.1684 34.4341 88.9371 34.3742 88.7277 34.2656C88.5182 34.157 88.336 34.0025 88.1946 33.8137C88.0038 33.673 87.8475 33.4908 87.7373 33.281C87.6271 33.0711 87.566 32.839 87.5584 32.6021C87.5509 32.3652 87.5971 32.1297 87.6938 31.9132C87.7904 31.6968 87.9348 31.5051 88.1162 31.3525L110.353 9.11572C110.505 8.93389 110.696 8.78888 110.912 8.69161C111.128 8.59433 111.364 8.54732 111.601 8.55411C111.838 8.5609 112.07 8.62131 112.28 8.73081C112.49 8.8403 112.673 8.99602 112.814 9.18627V9.18627Z" fill="#FF50C8"/>
<path d="M112.814 33.8137C112.673 34.0039 112.49 34.1597 112.28 34.2691C112.07 34.3786 111.838 34.4391 111.601 34.4458C111.364 34.4526 111.128 34.4056 110.912 34.3083C110.696 34.2111 110.505 34.0661 110.353 33.8842L88.1162 11.6474C87.9348 11.4949 87.7904 11.3032 87.6938 11.0867C87.5971 10.8703 87.5509 10.6347 87.5584 10.3978C87.566 10.1609 87.6271 9.92883 87.7373 9.71897C87.8475 9.50912 88.0038 9.32698 88.1946 9.18627C88.336 8.99743 88.5182 8.84296 88.7277 8.73436C88.9371 8.62576 89.1684 8.56584 89.4042 8.55906C89.6401 8.55228 89.8744 8.59881 90.0897 8.6952C90.3051 8.79158 90.4959 8.93533 90.6479 9.11572L112.885 31.3525C113.067 31.5045 113.212 31.6957 113.309 31.9119C113.406 32.128 113.453 32.3633 113.446 32.6002C113.44 32.8371 113.379 33.0694 113.27 33.2796C113.16 33.4897 113.004 33.6724 112.814 33.8137V33.8137Z" fill="#FF50C8"/>
<path d="M105.743 6.41943C105.743 9.96227 103.392 19.0467 100.5 19.0467C97.6073 19.0467 95.2559 9.96227 95.2559 6.41943C95.2559 2.87659 97.6073 0 100.5 0C103.392 0 105.743 2.87659 105.743 6.41943Z" fill="#FF50C8"/>
<path d="M95.2559 36.5805C95.2559 33.0377 97.6073 23.9533 100.5 23.9533C103.392 23.9533 105.743 33.0377 105.743 36.5805C105.743 40.1234 103.392 43 100.5 43C97.6073 43 95.2559 40.1234 95.2559 36.5805Z" fill="#FF50C8"/>
<path d="M115.58 26.7437C112.038 26.7437 102.953 24.3923 102.953 21.5C102.953 18.6077 112.038 16.2563 115.58 16.2563C119.123 16.2563 122 18.6077 122 21.5C122 24.3923 119.123 26.7437 115.58 26.7437Z" fill="#FF50C8"/>
<path d="M85.4194 16.2563C88.9623 16.2563 98.0467 18.6077 98.0467 21.5C98.0467 24.3923 88.9623 26.7437 85.4194 26.7437C81.8766 26.7437 79 24.3923 79 21.5C79 18.6077 81.8766 16.2563 85.4194 16.2563Z" fill="#FF50C8"/>
</g>
<g clip-path="url(#clip2_196_7835)">
<path d="M109.829 97.5076C109.771 97.464 109.723 97.4076 109.689 97.3425C109.656 97.2774 109.637 97.2053 109.634 97.1318C109.632 97.0582 109.646 96.9851 109.675 96.9178C109.705 96.8506 109.749 96.791 109.804 96.7435L116.602 89.8308C116.649 89.7745 116.707 89.7298 116.773 89.7C116.84 89.6701 116.911 89.6559 116.984 89.6584C117.056 89.6609 117.127 89.68 117.191 89.7143C117.255 89.7486 117.311 89.7973 117.353 89.8565C117.412 89.9004 117.459 89.9571 117.493 90.0223C117.526 90.0875 117.545 90.1596 117.547 90.2331C117.549 90.3067 117.535 90.3798 117.505 90.4469C117.475 90.514 117.431 90.5734 117.376 90.6207L110.581 97.5302C110.534 97.5866 110.476 97.6315 110.41 97.6617C110.344 97.6918 110.272 97.7063 110.2 97.7041C110.127 97.702 110.056 97.6831 109.992 97.6491C109.928 97.6151 109.872 97.5667 109.829 97.5076Z" fill="#007EC6"/>
<path d="M109.829 89.8565C109.872 89.7973 109.928 89.7486 109.992 89.7143C110.056 89.68 110.126 89.6609 110.199 89.6584C110.271 89.6559 110.343 89.6701 110.409 89.7C110.475 89.7298 110.534 89.7745 110.581 89.8308L117.376 96.7435C117.431 96.7907 117.475 96.8501 117.505 96.9173C117.535 96.9844 117.549 97.0575 117.547 97.131C117.545 97.2046 117.526 97.2766 117.493 97.3419C117.459 97.4071 117.412 97.4638 117.353 97.5076C117.31 97.5667 117.255 97.6151 117.19 97.6491C117.126 97.6831 117.055 97.702 116.983 97.7041C116.911 97.7063 116.839 97.6918 116.773 97.6617C116.707 97.6315 116.648 97.5866 116.602 97.5302L109.804 90.6207C109.749 90.5732 109.705 90.5136 109.675 90.4463C109.646 90.3791 109.632 90.3059 109.634 90.2324C109.637 90.1588 109.656 90.0868 109.689 90.0217C109.723 89.9566 109.771 89.9001 109.829 89.8565Z" fill="#007EC6"/>
<path d="M111.989 98.3685C111.989 97.269 112.705 94.4446 113.59 94.4446C114.475 94.4446 115.194 97.269 115.194 98.3685C115.194 99.4679 114.475 100.364 113.59 100.364C112.705 100.364 111.989 99.4711 111.989 98.3685Z" fill="#007EC6"/>
<path d="M115.194 88.9928C115.194 90.0955 114.475 92.9199 113.59 92.9199C112.705 92.9199 111.989 90.0955 111.989 88.9928C111.989 87.8901 112.705 87.0003 113.59 87.0003C114.475 87.0003 115.194 87.8934 115.194 88.9928Z" fill="#007EC6"/>
<path d="M108.98 92.0518C110.064 92.0518 112.842 92.7805 112.842 93.6801C112.842 94.5796 110.064 95.3115 108.98 95.3115C107.895 95.3115 107.02 94.5796 107.02 93.6801C107.02 92.7805 107.899 92.0518 108.98 92.0518Z" fill="#007EC6"/>
<path d="M118.2 95.3115C117.119 95.3115 114.342 94.5796 114.342 93.6801C114.342 92.7805 117.119 92.0518 118.2 92.0518C119.282 92.0518 120.163 92.7805 120.163 93.6801C120.163 94.5796 119.285 95.3115 118.2 95.3115Z" fill="#007EC6"/>
</g>
<g clip-path="url(#clip3_196_7835)">
<path d="M112.109 160.104C112.043 160.054 111.988 159.989 111.95 159.914C111.912 159.84 111.89 159.757 111.888 159.673C111.886 159.589 111.902 159.506 111.936 159.429C111.97 159.352 112.021 159.284 112.084 159.231L119.85 151.334C119.903 151.269 119.97 151.218 120.045 151.183C120.121 151.149 120.203 151.132 120.285 151.134C120.368 151.137 120.449 151.158 120.523 151.197C120.596 151.236 120.659 151.292 120.709 151.359C120.775 151.409 120.829 151.474 120.867 151.548C120.905 151.623 120.926 151.705 120.929 151.788C120.932 151.872 120.917 151.956 120.883 152.032C120.85 152.109 120.801 152.177 120.738 152.232L112.968 160.134C112.914 160.197 112.847 160.248 112.771 160.281C112.696 160.315 112.614 160.331 112.531 160.328C112.449 160.325 112.368 160.303 112.295 160.265C112.222 160.226 112.159 160.171 112.109 160.104V160.104Z" fill="#D50400"/>
<path d="M112.109 151.359C112.159 151.292 112.223 151.238 112.296 151.199C112.369 151.161 112.45 151.14 112.533 151.137C112.615 151.135 112.697 151.151 112.772 151.185C112.847 151.219 112.914 151.27 112.968 151.334L120.738 159.231C120.801 159.285 120.85 159.354 120.883 159.43C120.917 159.507 120.932 159.591 120.929 159.674C120.926 159.758 120.905 159.84 120.867 159.914C120.829 159.989 120.775 160.053 120.709 160.104C120.659 160.171 120.596 160.226 120.523 160.265C120.45 160.303 120.369 160.325 120.287 160.328C120.204 160.331 120.122 160.315 120.047 160.281C119.971 160.248 119.904 160.197 119.85 160.134L112.084 152.232C112.022 152.178 111.972 152.11 111.938 152.033C111.905 151.957 111.889 151.873 111.891 151.79C111.893 151.706 111.914 151.624 111.952 151.549C111.99 151.475 112.044 151.41 112.109 151.359V151.359Z" fill="#D50400"/>
<path d="M114.58 161.087C114.58 159.831 115.399 156.602 116.411 156.602C117.423 156.602 118.242 159.836 118.242 161.087C118.242 162.339 117.418 163.368 116.411 163.368C115.404 163.368 114.58 162.359 114.58 161.087Z" fill="#D50400"/>
<path d="M118.242 150.376C118.242 151.632 117.418 154.861 116.411 154.861C115.404 154.861 114.58 151.632 114.58 150.376C114.58 149.119 115.399 148.095 116.411 148.095C117.423 148.095 118.242 149.119 118.242 150.376Z" fill="#D50400"/>
<path d="M111.141 153.872C112.377 153.872 115.553 154.705 115.553 155.734C115.553 156.763 112.377 157.596 111.141 157.596C109.906 157.596 108.898 156.758 108.898 155.734C108.898 154.71 109.906 153.872 111.141 153.872Z" fill="#D50400"/>
<path d="M121.676 157.596C120.44 157.596 117.265 156.758 117.265 155.734C117.265 154.71 120.445 153.872 121.676 153.872C122.907 153.872 123.919 154.705 123.919 155.734C123.919 156.763 122.927 157.596 121.676 157.596Z" fill="#D50400"/>
</g>
<g clip-path="url(#clip4_196_7835)">
<path d="M5.0169 119.129C4.91295 119.051 4.82782 118.949 4.76795 118.833C4.70808 118.716 4.67503 118.588 4.67129 118.456C4.66756 118.325 4.69324 118.194 4.7464 118.075C4.79955 117.955 4.87879 117.849 4.97813 117.765L17.1121 105.426C17.1948 105.325 17.299 105.245 17.4168 105.191C17.5347 105.137 17.663 105.11 17.7922 105.114C17.9214 105.118 18.0481 105.152 18.1626 105.212C18.2772 105.273 18.3766 105.36 18.4535 105.466C18.5566 105.544 18.6412 105.645 18.7009 105.761C18.7605 105.877 18.7938 106.005 18.7983 106.136C18.8028 106.267 18.7783 106.397 18.7267 106.517C18.675 106.637 18.5976 106.744 18.5 106.83L6.35823 119.176C6.27415 119.275 6.16924 119.354 6.05123 119.406C5.93323 119.459 5.80514 119.484 5.67641 119.479C5.54768 119.475 5.42159 119.441 5.30745 119.38C5.1933 119.32 5.09401 119.234 5.0169 119.129V119.129Z" fill="#D50400"/>
<path d="M5.0169 105.466C5.09461 105.361 5.19438 105.276 5.30884 105.216C5.4233 105.156 5.54955 105.123 5.67827 105.119C5.80699 105.115 5.93491 105.141 6.05259 105.194C6.17027 105.247 6.27471 105.327 6.35823 105.426L18.5 117.765C18.5976 117.85 18.675 117.957 18.7267 118.077C18.7783 118.197 18.8028 118.327 18.7983 118.458C18.7938 118.589 18.7605 118.717 18.7009 118.833C18.6412 118.949 18.5566 119.05 18.4535 119.129C18.3763 119.234 18.277 119.32 18.1629 119.38C18.0488 119.441 17.9227 119.475 17.7939 119.479C17.6652 119.484 17.5371 119.459 17.4191 119.406C17.3011 119.354 17.1962 119.275 17.1121 119.176L4.97813 106.83C4.88011 106.745 4.80208 106.638 4.74979 106.519C4.6975 106.399 4.67229 106.269 4.67601 106.138C4.67973 106.007 4.71229 105.879 4.77129 105.762C4.83028 105.646 4.91422 105.545 5.0169 105.466V105.466Z" fill="#D50400"/>
<path d="M8.87764 120.666C8.87764 118.703 10.1569 113.657 11.7386 113.657C13.3203 113.657 14.5996 118.711 14.5996 120.666C14.5996 122.621 13.3126 124.23 11.7386 124.23C10.1647 124.23 8.87764 122.653 8.87764 120.666Z" fill="#D50400"/>
<path d="M14.6006 103.929C14.6006 105.892 13.3135 110.938 11.7396 110.938C10.1657 110.938 8.87861 105.892 8.87861 103.929C8.87861 101.966 10.1579 100.365 11.7396 100.365C13.3213 100.365 14.6006 101.966 14.6006 103.929Z" fill="#D50400"/>
<path d="M3.50473 109.392C5.43532 109.392 10.3975 110.693 10.3975 112.301C10.3975 113.909 5.43532 115.21 3.50473 115.21C1.57415 115.21 0.000218621 113.902 0.000218745 112.301C0.000218869 110.701 1.57415 109.392 3.50473 109.392Z" fill="#D50400"/>
<path d="M19.9652 115.21C18.0346 115.21 13.0725 113.902 13.0725 112.301C13.0725 110.701 18.0424 109.392 19.9652 109.392C21.888 109.392 23.4697 110.693 23.4697 112.301C23.4697 113.909 21.9191 115.21 19.9652 115.21Z" fill="#D50400"/>
</g>
<g clip-path="url(#clip5_196_7835)">
<path d="M90.4456 219.362C90.3417 219.284 90.2565 219.183 90.1967 219.066C90.1368 218.95 90.1037 218.821 90.1 218.69C90.0963 218.558 90.122 218.428 90.1751 218.308C90.2283 218.188 90.3075 218.082 90.4068 217.998L102.541 205.659C102.624 205.558 102.728 205.478 102.846 205.424C102.963 205.37 103.092 205.344 103.221 205.347C103.35 205.351 103.477 205.385 103.591 205.446C103.706 205.507 103.805 205.593 103.882 205.699C103.985 205.777 104.07 205.878 104.13 205.994C104.189 206.11 104.223 206.239 104.227 206.37C104.231 206.5 104.207 206.631 104.155 206.751C104.104 206.871 104.026 206.977 103.929 207.063L91.7869 219.409C91.7029 219.508 91.5979 219.587 91.4799 219.64C91.3619 219.692 91.2338 219.717 91.1051 219.713C90.9764 219.708 90.8503 219.674 90.7362 219.614C90.622 219.553 90.5227 219.467 90.4456 219.362V219.362Z" fill="#8F41C6"/>
<path d="M90.4456 205.699C90.5233 205.595 90.6231 205.509 90.7376 205.449C90.852 205.389 90.9783 205.356 91.107 205.352C91.2357 205.348 91.3636 205.374 91.4813 205.427C91.599 205.48 91.7034 205.56 91.7869 205.659L103.929 217.998C104.026 218.083 104.104 218.19 104.155 218.31C104.207 218.43 104.231 218.56 104.227 218.691C104.223 218.822 104.189 218.95 104.13 219.066C104.07 219.183 103.985 219.284 103.882 219.362C103.805 219.467 103.706 219.553 103.592 219.614C103.477 219.674 103.351 219.708 103.223 219.713C103.094 219.717 102.966 219.692 102.848 219.64C102.73 219.587 102.625 219.508 102.541 219.409L90.4068 207.063C90.3088 206.978 90.2308 206.872 90.1785 206.752C90.1262 206.632 90.101 206.502 90.1047 206.371C90.1084 206.241 90.141 206.112 90.2 205.996C90.259 205.879 90.3429 205.778 90.4456 205.699V205.699Z" fill="#8F41C6"/>
<path d="M94.3063 220.899C94.3063 218.936 95.5857 213.89 97.1673 213.89C98.749 213.89 100.028 218.944 100.028 220.899C100.028 222.855 98.7413 224.463 97.1673 224.463C95.5934 224.463 94.3063 222.886 94.3063 220.899Z" fill="#8F41C6"/>
<path d="M100.029 204.162C100.029 206.125 98.7422 211.171 97.1683 211.171C95.5944 211.171 94.3073 206.125 94.3073 204.162C94.3073 202.199 95.5866 200.598 97.1683 200.598C98.75 200.598 100.029 202.199 100.029 204.162Z" fill="#8F41C6"/>
<path d="M88.9334 209.625C90.864 209.625 95.8262 210.926 95.8262 212.534C95.8262 214.143 90.864 215.444 88.9334 215.444C87.0029 215.444 85.4289 214.135 85.4289 212.534C85.4289 210.934 87.0029 209.625 88.9334 209.625Z" fill="#8F41C6"/>
<path d="M105.394 215.444C103.463 215.444 98.5012 214.135 98.5012 212.534C98.5012 210.934 103.471 209.625 105.394 209.625C107.317 209.625 108.898 210.926 108.898 212.534C108.898 214.143 107.348 215.444 105.394 215.444Z" fill="#8F41C6"/>
</g>
<g clip-path="url(#clip6_196_7835)">
<path d="M59.1999 126.081C59.1245 126.021 59.063 125.945 59.0197 125.858C58.9765 125.772 58.9525 125.676 58.9496 125.579C58.9467 125.482 58.9648 125.385 59.0028 125.296C59.0408 125.206 59.0976 125.127 59.1692 125.062L68.4114 115.664C68.4748 115.588 68.5542 115.528 68.6437 115.487C68.7333 115.446 68.8307 115.427 68.9286 115.43C69.0266 115.433 69.1227 115.458 69.2097 115.504C69.2966 115.55 69.3723 115.616 69.4311 115.695C69.5095 115.755 69.5738 115.832 69.619 115.92C69.6641 116.009 69.6891 116.107 69.6921 116.206C69.695 116.306 69.6758 116.405 69.636 116.496C69.5961 116.587 69.5365 116.668 69.4617 116.732L60.2195 126.112C60.1562 126.188 60.0768 126.249 59.9872 126.289C59.8977 126.33 59.8003 126.35 59.7023 126.347C59.6043 126.344 59.5083 126.318 59.4213 126.272C59.3343 126.226 59.2586 126.161 59.1999 126.081V126.081Z" fill="#00B8AE"/>
<path d="M59.1998 115.696C59.2585 115.616 59.3342 115.55 59.4212 115.505C59.5082 115.459 59.6043 115.433 59.7022 115.43C59.8002 115.427 59.8976 115.447 59.9871 115.487C60.0767 115.528 60.1561 115.588 60.2194 115.664L69.4441 125.062C69.5189 125.127 69.5785 125.208 69.6184 125.299C69.6583 125.39 69.6775 125.489 69.6745 125.588C69.6716 125.688 69.6466 125.786 69.6014 125.874C69.5562 125.963 69.492 126.039 69.4135 126.099C69.3533 126.175 69.2774 126.236 69.1914 126.278C69.1053 126.321 69.0111 126.343 68.9155 126.345C68.8199 126.346 68.7251 126.326 68.638 126.286C68.5509 126.246 68.4735 126.186 68.4114 126.113L59.1692 116.732C59.0944 116.668 59.0348 116.587 58.9949 116.496C58.955 116.405 58.9358 116.306 58.9388 116.206C58.9417 116.107 58.9667 116.009 59.0119 115.921C59.0571 115.832 59.1213 115.755 59.1998 115.696V115.696Z" fill="#00B8AE"/>
<path d="M62.1318 127.252C62.1318 125.757 63.1076 121.912 64.3198 121.912C65.532 121.912 66.5078 125.748 66.5078 127.252C66.5078 128.756 65.5057 129.957 64.3067 129.957C63.1076 129.957 62.1318 128.747 62.1318 127.252Z" fill="#00B8AE"/>
<path d="M66.4805 114.526C66.4805 116.021 65.5046 119.865 64.2924 119.865C63.0803 119.865 62.1044 116.03 62.1044 114.526C62.1044 113.022 63.0803 111.82 64.2924 111.82C65.5046 111.82 66.4805 113.048 66.4805 114.526Z" fill="#00B8AE"/>
<path d="M58.0486 118.677C59.5189 118.677 63.2998 119.665 63.2998 120.902C63.2998 122.139 59.5277 123.127 58.0486 123.127C56.5695 123.127 55.3879 122.135 55.3879 120.902C55.3879 119.67 56.5957 118.677 58.0486 118.677Z" fill="#00B8AE"/>
<path d="M70.564 123.1C69.0936 123.1 65.3127 122.107 65.3127 120.875C65.3127 119.642 69.0849 118.65 70.564 118.65C72.0431 118.65 73.2246 119.665 73.2246 120.888C73.2246 122.112 72.0343 123.1 70.564 123.1Z" fill="#00B8AE"/>
</g>
</g>
<defs>
<clipPath id="clip0_196_7835">
<rect width="141" height="227" fill="white"/>
</clipPath>
<clipPath id="clip1_196_7835">
<rect width="43" height="43" fill="white" transform="translate(79)"/>
</clipPath>
<clipPath id="clip2_196_7835">
<rect width="13.1429" height="13.3644" fill="white" transform="translate(120.163 100.364) rotate(-180)"/>
</clipPath>
<clipPath id="clip3_196_7835">
<rect width="15.0204" height="15.2736" fill="white" transform="translate(123.919 163.368) rotate(-180)"/>
</clipPath>
<clipPath id="clip4_196_7835">
<rect width="23.4694" height="23.865" fill="white" transform="translate(23.4697 124.23) rotate(-180)"/>
</clipPath>
<clipPath id="clip5_196_7835">
<rect width="23.4694" height="23.865" fill="white" transform="translate(108.898 224.463) rotate(-180)"/>
</clipPath>
<clipPath id="clip6_196_7835">
<rect width="17.8367" height="18.1374" fill="white" transform="translate(73.2246 129.957) rotate(-180)"/>
</clipPath>
</defs>
</svg>
