<svg width="113" height="89" viewBox="0 0 113 89" fill="none" xmlns="http://www.w3.org/2000/svg">
<g clip-path="url(#clip0_196_7837)">
<g clip-path="url(#clip1_196_7837)">
<path d="M27.8252 21.3277C27.6948 21.4268 27.5878 21.5551 27.5123 21.703C27.4368 21.8509 27.3948 22.0146 27.3893 22.1817C27.3838 22.3489 27.4151 22.5151 27.4808 22.668C27.5465 22.8208 27.6448 22.9563 27.7685 23.0642L42.9743 38.7736C43.0787 38.9013 43.2099 39.0029 43.3578 39.0708C43.5058 39.1386 43.6667 39.1709 43.8285 39.1653C43.9902 39.1597 44.1487 39.1162 44.2919 39.0382C44.435 38.9602 44.5592 38.8497 44.6551 38.7149C44.7851 38.6153 44.8915 38.4865 44.9664 38.3383C45.0413 38.1901 45.0826 38.0262 45.0874 37.8591C45.0922 37.692 45.0603 37.5259 44.994 37.3734C44.9277 37.2208 44.8288 37.0858 44.7048 36.9784L29.5061 21.2764C29.4021 21.1483 29.2714 21.0461 29.1238 20.9776C28.9761 20.9092 28.8154 20.8762 28.6536 20.8811C28.4918 20.886 28.3333 20.9288 28.1898 21.0061C28.0463 21.0835 27.9217 21.1934 27.8252 21.3277Z" fill="#FF7D00"/>
<path d="M27.8252 38.7149C27.9211 38.8497 28.0453 38.9602 28.1885 39.0382C28.3317 39.1162 28.4901 39.1597 28.6519 39.1653C28.8137 39.1709 28.9746 39.1386 29.1225 39.0708C29.2705 39.0029 29.4016 38.9013 29.5061 38.7736L44.7048 23.0642C44.8288 22.9568 44.9277 22.8218 44.994 22.6693C45.0603 22.5167 45.0922 22.3507 45.0874 22.1835C45.0826 22.0164 45.0413 21.8526 44.9664 21.7043C44.8915 21.5561 44.7851 21.4273 44.6551 21.3277C44.5587 21.1934 44.434 21.0835 44.2906 21.0061C44.1471 20.9288 43.9885 20.886 43.8267 20.8811C43.665 20.8762 43.5042 20.9092 43.3566 20.9776C43.2089 21.0461 43.0782 21.1483 42.9743 21.2764L27.7685 36.9784C27.6448 37.0863 27.5465 37.2218 27.4808 37.3747C27.4151 37.5275 27.3838 37.6937 27.3893 37.8609C27.3948 38.028 27.4368 38.1917 27.5123 38.3396C27.5878 38.4876 27.6948 38.6159 27.8252 38.7149Z" fill="#FF7D00"/>
<path d="M32.6549 19.3714C32.6549 21.87 34.2578 28.2885 36.2365 28.2885C38.2153 28.2885 39.8252 21.87 39.8252 19.3714C39.8252 16.8729 38.2153 14.8359 36.2365 14.8359C34.2578 14.8359 32.6549 16.8655 32.6549 19.3714Z" fill="#FF7D00"/>
<path d="M39.8252 40.6783C39.8252 38.1725 38.2153 31.7539 36.2365 31.7539C34.2578 31.7539 32.6549 38.1725 32.6549 40.6783C32.6549 43.1842 34.2578 45.2065 36.2365 45.2065C38.2153 45.2065 39.8252 43.1769 39.8252 40.6783Z" fill="#FF7D00"/>
<path d="M25.9246 33.7252C28.3502 33.7252 34.563 32.0693 34.563 30.025C34.563 27.9808 28.3502 26.3175 25.9246 26.3175C23.4991 26.3175 21.5416 27.9808 21.5416 30.025C21.5416 32.0693 23.5062 33.7252 25.9246 33.7252Z" fill="#FF7D00"/>
<path d="M46.5489 26.3175C44.1304 26.3175 37.9176 27.9808 37.9176 30.025C37.9176 32.0693 44.1304 33.7252 46.5489 33.7252C48.9673 33.7252 50.939 32.0693 50.939 30.025C50.939 27.9808 48.9744 26.3175 46.5489 26.3175Z" fill="#FF7D00"/>
</g>
<g clip-path="url(#clip2_196_7837)">
<path d="M96.9488 72.493C96.8584 72.562 96.7843 72.6514 96.7323 72.7543C96.6802 72.8573 96.6514 72.9711 96.6482 73.0872C96.6449 73.2033 96.6673 73.3187 96.7135 73.4245C96.7597 73.5304 96.8287 73.6241 96.9151 73.6984L107.47 84.6027C107.542 84.6919 107.632 84.7631 107.735 84.8109C107.837 84.8587 107.949 84.8818 108.061 84.8784C108.174 84.875 108.284 84.8453 108.384 84.7915C108.483 84.7377 108.57 84.6612 108.637 84.5678C108.726 84.4985 108.8 84.4093 108.852 84.3067C108.904 84.2041 108.933 84.0908 108.937 83.9751C108.94 83.8595 108.919 83.7444 108.874 83.6383C108.829 83.5323 108.762 83.438 108.677 83.3624L98.1156 72.4512C98.0424 72.3635 97.9512 72.2939 97.8485 72.2475C97.7459 72.2011 97.6345 72.1791 97.5225 72.1831C97.4105 72.1871 97.3008 72.217 97.2015 72.2707C97.1022 72.3243 97.0159 72.4003 96.9488 72.493Z" fill="#D50400"/>
<path d="M96.9488 84.5678C97.0164 84.6601 97.1032 84.7355 97.2027 84.7885C97.3023 84.8416 97.4121 84.8708 97.5241 84.8742C97.6361 84.8775 97.7473 84.8548 97.8497 84.8079C97.9521 84.7609 98.0429 84.6907 98.1156 84.6027L108.677 73.6984C108.762 73.6228 108.829 73.5285 108.874 73.4225C108.919 73.3165 108.94 73.2013 108.937 73.0857C108.933 72.97 108.904 72.8567 108.852 72.7541C108.8 72.6515 108.726 72.5623 108.637 72.493C108.57 72.4003 108.483 72.3243 108.384 72.2707C108.285 72.217 108.175 72.1871 108.063 72.1831C107.951 72.1791 107.84 72.2011 107.737 72.2475C107.634 72.2939 107.543 72.3635 107.47 72.4512L96.9151 83.3624C96.8298 83.4375 96.7619 83.5313 96.7165 83.6371C96.671 83.7428 96.649 83.8578 96.6523 83.9735C96.6555 84.0891 96.6838 84.2026 96.7352 84.3055C96.7865 84.4083 96.8595 84.498 96.9488 84.5678Z" fill="#D50400"/>
<path d="M100.307 71.1347C100.307 72.8696 101.42 77.3289 102.796 77.3289C104.172 77.3289 105.285 72.8627 105.285 71.1347C105.285 69.4067 104.165 67.9854 102.796 67.9854C101.427 67.9854 100.307 69.3789 100.307 71.1347Z" fill="#D50400"/>
<path d="M105.285 85.9266C105.285 84.1917 104.165 79.7324 102.796 79.7324C101.427 79.7324 100.307 84.1917 100.307 85.9266C100.307 87.6615 101.42 89.076 102.796 89.076C104.172 89.076 105.285 87.6615 105.285 85.9266Z" fill="#D50400"/>
<path d="M95.6338 81.0984C97.3131 81.0984 101.629 79.9487 101.629 78.5273C101.629 77.106 97.3131 75.9563 95.6338 75.9563C93.9544 75.9563 92.5854 77.1129 92.5854 78.5273C92.5854 79.9418 93.9544 81.0984 95.6338 81.0984Z" fill="#D50400"/>
<path d="M109.952 75.9563C108.272 75.9563 103.956 77.1129 103.956 78.5273C103.956 79.9418 108.279 81.0984 109.952 81.0984C111.624 81.0984 113 79.9487 113 78.5273C113 77.106 111.651 75.9563 109.952 75.9563Z" fill="#D50400"/>
</g>
<g clip-path="url(#clip3_196_7837)">
<path d="M61.835 71.6494C61.7446 71.7184 61.6706 71.8078 61.6185 71.9107C61.5664 72.0137 61.5377 72.1275 61.5344 72.2436C61.5312 72.3597 61.5535 72.475 61.5997 72.5809C61.646 72.6868 61.7149 72.7804 61.8013 72.8548L72.3561 83.759C72.428 83.8483 72.5186 83.9195 72.6211 83.9673C72.7236 84.015 72.8353 84.0381 72.9476 84.0348C73.06 84.0314 73.1702 84.0017 73.2698 83.9479C73.3695 83.8941 73.456 83.8176 73.5228 83.7242C73.6126 83.6549 73.6861 83.5657 73.738 83.4631C73.7899 83.3605 73.8189 83.2472 73.8228 83.1315C73.8267 83.0158 73.8054 82.9007 73.7605 82.7947C73.7155 82.6886 73.6482 82.5944 73.5633 82.5188L63.0018 71.6076C62.9286 71.5199 62.8374 71.4503 62.7347 71.4038C62.6321 71.3574 62.5207 71.3354 62.4087 71.3395C62.2967 71.3435 62.1871 71.3734 62.0878 71.427C61.9885 71.4807 61.9021 71.5566 61.835 71.6494Z" fill="#8F41C6"/>
<path d="M61.835 83.7242C61.9026 83.8165 61.9894 83.8919 62.089 83.9449C62.1885 83.9979 62.2984 84.0272 62.4103 84.0305C62.5223 84.0339 62.6336 84.0112 62.7359 83.9642C62.8383 83.9172 62.9291 83.8471 63.0018 83.759L73.5633 72.8548C73.6482 72.7792 73.7155 72.6849 73.7605 72.5789C73.8054 72.4728 73.8267 72.3577 73.8228 72.242C73.8189 72.1264 73.7899 72.013 73.738 71.9105C73.6861 71.8079 73.6126 71.7187 73.5228 71.6494C73.4557 71.5566 73.3694 71.4807 73.2701 71.427C73.1708 71.3734 73.0611 71.3435 72.9491 71.3395C72.8372 71.3354 72.7257 71.3574 72.6231 71.4038C72.5205 71.4503 72.4292 71.5199 72.3561 71.6076L61.8013 82.5188C61.716 82.5938 61.6482 82.6877 61.6027 82.7935C61.5572 82.8992 61.5353 83.0142 61.5385 83.1298C61.5417 83.2455 61.5701 83.359 61.6214 83.4618C61.6727 83.5647 61.7457 83.6544 61.835 83.7242Z" fill="#8F41C6"/>
<path d="M65.1936 70.2911C65.1936 72.026 66.3064 76.4853 67.6823 76.4853C69.0581 76.4853 70.1709 72.019 70.1709 70.2911C70.1709 68.5631 69.0514 67.1417 67.6823 67.1417C66.3132 67.1417 65.1936 68.5352 65.1936 70.2911Z" fill="#8F41C6"/>
<path d="M70.1709 85.083C70.1709 83.348 69.0514 78.8888 67.6823 78.8888C66.3132 78.8888 65.1936 83.348 65.1936 85.083C65.1936 86.8179 66.3064 88.2323 67.6823 88.2323C69.0581 88.2323 70.1709 86.8179 70.1709 85.083Z" fill="#8F41C6"/>
<path d="M60.52 80.2548C62.1993 80.2548 66.5156 79.1051 66.5156 77.6837C66.5156 76.2623 62.1993 75.1127 60.52 75.1127C58.8407 75.1127 57.4716 76.2693 57.4716 77.6837C57.4716 79.0981 58.8407 80.2547 60.52 80.2548Z" fill="#8F41C6"/>
<path d="M74.8378 75.1127C73.1585 75.1127 68.8422 76.2693 68.8422 77.6837C68.8422 79.0981 73.1653 80.2548 74.8378 80.2548C76.5104 80.2548 77.8862 79.1051 77.8862 77.6837C77.8862 76.2623 76.5374 75.1127 74.8378 75.1127Z" fill="#8F41C6"/>
</g>
<g clip-path="url(#clip4_196_7837)">
<path d="M-8.62349 59.6001C-8.68907 59.653 -8.74258 59.7202 -8.7802 59.7969C-8.81783 59.8736 -8.83865 59.9579 -8.84119 60.0439C-8.84374 60.1298 -8.82794 60.2153 -8.79492 60.2943C-8.7619 60.3732 -8.71247 60.4436 -8.65013 60.5006L-0.610809 68.8062C-0.555709 68.8734 -0.486646 68.9269 -0.408758 68.9628C-0.330869 68.9986 -0.24616 69.0159 -0.160931 69.0132C-0.0757015 69.0106 0.0078534 68.9881 0.0835185 68.9475C0.159184 68.9069 0.225012 68.8492 0.276105 68.7786C0.344369 68.7259 0.400235 68.6579 0.439546 68.5797C0.478857 68.5015 0.500601 68.4152 0.503161 68.3271C0.505722 68.2391 0.489033 68.1516 0.454335 68.0711C0.419637 67.9906 0.367825 67.9193 0.302751 67.8624L-7.73657 59.5725C-7.79167 59.5053 -7.86073 59.4518 -7.93862 59.4159C-8.01651 59.3801 -8.10122 59.3629 -8.18645 59.3655C-8.27168 59.3681 -8.35523 59.3906 -8.4309 59.4312C-8.50657 59.4718 -8.57239 59.5295 -8.62349 59.6001Z" fill="#00B8AE"/>
<path d="M-8.62389 68.7786C-8.57279 68.8491 -8.50696 68.9068 -8.4313 68.9474C-8.35563 68.9881 -8.27208 69.0105 -8.18685 69.0132C-8.10162 69.0158 -8.01691 68.9986 -7.93902 68.9627C-7.86113 68.9269 -7.79207 68.8733 -7.73697 68.8061L0.287126 60.5006C0.3522 60.4436 0.404013 60.3723 0.438711 60.2918C0.473408 60.2114 0.490098 60.1238 0.487537 60.0358C0.484977 59.9477 0.463232 59.8614 0.423921 59.7833C0.384611 59.7051 0.328745 59.6371 0.260481 59.5843C0.208097 59.5175 0.142137 59.4635 0.0672787 59.426C-0.00757978 59.3885 -0.0895043 59.3685 -0.172687 59.3674C-0.255869 59.3662 -0.338273 59.384 -0.414057 59.4195C-0.48984 59.4549 -0.557147 59.5072 -0.611207 59.5725L-8.65053 67.8623C-8.7156 67.9192 -8.76742 67.9906 -8.80211 68.071C-8.83681 68.1515 -8.8535 68.239 -8.85094 68.3271C-8.84838 68.4151 -8.82664 68.5015 -8.78733 68.5796C-8.74801 68.6578 -8.69215 68.7258 -8.62389 68.7786Z" fill="#00B8AE"/>
<path d="M1.26182 62.2354C-0.0171623 62.2354 -3.30598 63.1123 -3.30598 64.2016C-3.30598 65.2909 -0.0247756 66.1679 1.26182 66.1679C2.54842 66.1679 3.57617 65.2713 3.57617 64.1898C3.57617 63.1084 2.5408 62.2354 1.26182 62.2354Z" fill="#00B8AE"/>
</g>
</g>
<defs>
<clipPath id="clip0_196_7837">
<rect width="113" height="89" fill="white"/>
</clipPath>
<clipPath id="clip1_196_7837">
<rect width="29.3974" height="30.3709" fill="white" transform="matrix(-1 -9.52252e-08 -8.55991e-08 1 50.939 14.8359)"/>
</clipPath>
<clipPath id="clip2_196_7837">
<rect width="20.4148" height="21.0909" fill="white" transform="matrix(-1 -9.52252e-08 -8.55991e-08 1 113 67.9854)"/>
</clipPath>
<clipPath id="clip3_196_7837">
<rect width="20.4148" height="21.0909" fill="white" transform="matrix(-1 -9.52252e-08 -8.55991e-08 1 77.8862 67.1417)"/>
</clipPath>
<clipPath id="clip4_196_7837">
<rect width="15.5153" height="16.0291" fill="white" transform="matrix(-1 -9.52252e-08 -8.55991e-08 1 3.57617 56.1748)"/>
</clipPath>
</defs>
</svg>
