<svg width="229" height="153" viewBox="0 0 229 153" fill="none" xmlns="http://www.w3.org/2000/svg">
<g clip-path="url(#clip0_196_7962)">
<path d="M8.97747 144.022C8.79115 143.885 8.63832 143.708 8.53044 143.503C8.42257 143.299 8.36247 143.072 8.35467 142.841C8.34687 142.61 8.39157 142.38 8.4854 142.169C8.57923 141.958 8.71976 141.77 8.89642 141.621L30.6209 119.896C30.7702 119.72 30.9575 119.579 31.1689 119.485C31.3803 119.392 31.6101 119.347 31.8413 119.355C32.0724 119.362 32.2988 119.423 32.5033 119.53C32.7079 119.638 32.8854 119.791 33.0224 119.977C33.208 120.115 33.3601 120.293 33.467 120.498C33.574 120.703 33.6331 120.93 33.64 121.161C33.6468 121.392 33.6011 121.622 33.5065 121.833C33.4118 122.044 33.2705 122.23 33.0933 122.379L11.3789 144.093C11.2304 144.271 11.0437 144.412 10.8327 144.506C10.6218 144.601 10.3921 144.647 10.161 144.64C9.92989 144.633 9.70332 144.574 9.49833 144.467C9.29334 144.36 9.11526 144.208 8.97747 144.022Z" fill="#007EC6"/>
<path d="M8.97748 119.977C9.11447 119.791 9.29193 119.638 9.49649 119.53C9.70106 119.423 9.92741 119.362 10.1585 119.355C10.3897 119.347 10.6196 119.392 10.8309 119.485C11.0423 119.579 11.2297 119.72 11.3789 119.896L33.0933 141.621C33.2705 141.769 33.4118 141.956 33.5065 142.167C33.6011 142.378 33.6468 142.608 33.64 142.839C33.6331 143.07 33.574 143.297 33.467 143.501C33.3601 143.706 33.208 143.885 33.0223 144.022C32.8846 144.208 32.7065 144.36 32.5015 144.467C32.2965 144.574 32.0699 144.633 31.8388 144.64C31.6077 144.647 31.378 144.601 31.1671 144.506C30.9561 144.412 30.7694 144.271 30.6209 144.093L8.89642 122.379C8.71976 122.23 8.57923 122.042 8.4854 121.831C8.39157 121.62 8.34687 121.39 8.35467 121.159C8.36248 120.927 8.42258 120.701 8.53045 120.496C8.63832 120.292 8.79116 120.114 8.97748 119.977Z" fill="#007EC6"/>
<path d="M15.8779 146.728C15.8779 143.273 18.1679 134.396 20.9949 134.396C23.822 134.396 26.1221 143.273 26.1221 146.728C26.1221 150.183 23.822 153 20.9949 153C18.1679 153 15.8779 150.193 15.8779 146.728Z" fill="#007EC6"/>
<path d="M26.1221 117.262C26.1221 120.727 23.822 129.604 20.9949 129.604C18.1679 129.604 15.8779 120.727 15.8779 117.262C15.8779 113.797 18.1679 111 20.9949 111C23.822 111 26.1221 113.807 26.1221 117.262Z" fill="#007EC6"/>
<path d="M6.2619 126.878C9.72728 126.878 18.6035 129.168 18.6035 131.995C18.6035 134.822 9.72728 137.122 6.2619 137.122C2.79652 137.122 -0.000102796 134.822 -0.000102549 131.995C-0.000102301 129.168 2.80665 126.878 6.2619 126.878Z" fill="#007EC6"/>
<path d="M35.7279 137.122C32.2726 137.122 23.3964 134.822 23.3964 131.995C23.3964 129.168 32.2726 126.878 35.7279 126.878C39.1831 126.878 42 129.168 42 131.995C42 134.822 39.1932 137.122 35.7279 137.122Z" fill="#007EC6"/>
</g>
<g clip-path="url(#clip1_196_7962)">
<path d="M124.695 80.305C124.535 80.1876 124.404 80.0355 124.312 79.8601C124.219 79.6848 124.168 79.4908 124.161 79.2927C124.155 79.0945 124.193 78.8975 124.273 78.7163C124.354 78.5351 124.474 78.3746 124.626 78.2466L143.247 59.6256C143.375 59.4742 143.535 59.3538 143.716 59.2733C143.897 59.1929 144.095 59.1546 144.293 59.1613C144.491 59.168 144.685 59.2195 144.86 59.3119C145.035 59.4044 145.188 59.5354 145.305 59.6951C145.464 59.8132 145.594 59.9659 145.686 60.1416C145.778 60.3173 145.829 60.5115 145.834 60.7096C145.84 60.9077 145.801 61.1045 145.72 61.2853C145.639 61.4661 145.518 61.6262 145.366 61.7535L126.754 80.3658C126.626 80.5177 126.466 80.6388 126.285 80.72C126.105 80.8011 125.908 80.8402 125.71 80.8344C125.511 80.8285 125.317 80.7779 125.142 80.6862C124.966 80.5945 124.813 80.4642 124.695 80.305Z" fill="#FF7D00"/>
<path d="M124.695 59.6951C124.813 59.5354 124.965 59.4044 125.14 59.3119C125.315 59.2195 125.509 59.168 125.707 59.1613C125.906 59.1546 126.103 59.1929 126.284 59.2733C126.465 59.3538 126.626 59.4742 126.754 59.6256L145.366 78.2466C145.518 78.3739 145.639 78.534 145.72 78.7148C145.801 78.8956 145.84 79.0925 145.834 79.2906C145.829 79.4887 145.778 79.6829 145.686 79.8586C145.594 80.0343 145.464 80.1869 145.305 80.305C145.187 80.4642 145.034 80.5945 144.859 80.6862C144.683 80.7779 144.489 80.8285 144.291 80.8344C144.092 80.8402 143.896 80.8011 143.715 80.72C143.534 80.6388 143.374 80.5177 143.247 80.3658L124.626 61.7535C124.474 61.6256 124.354 61.465 124.273 61.2838C124.193 61.1026 124.155 60.9056 124.161 60.7075C124.168 60.5093 124.219 60.3153 124.312 60.14C124.404 59.9646 124.535 59.8125 124.695 59.6951Z" fill="#FF7D00"/>
<path d="M130.609 82.6239C130.609 79.6622 132.572 72.054 134.995 72.054C137.419 72.054 139.39 79.6622 139.39 82.6239C139.39 85.5855 137.419 88 134.995 88C132.572 88 130.609 85.5942 130.609 82.6239Z" fill="#FF7D00"/>
<path d="M139.39 57.3673C139.39 60.3376 137.419 67.9458 134.995 67.9458C132.572 67.9458 130.609 60.3376 130.609 57.3673C130.609 54.3969 132.572 51.9998 134.995 51.9998C137.419 51.9998 139.39 54.4056 139.39 57.3673Z" fill="#FF7D00"/>
<path d="M122.367 65.6094C125.338 65.6094 132.946 67.5723 132.946 69.9954C132.946 72.4186 125.338 74.3901 122.367 74.3901C119.397 74.3901 117 72.4186 117 69.9954C117 67.5723 119.406 65.6094 122.367 65.6094Z" fill="#FF7D00"/>
<path d="M147.624 74.3901C144.662 74.3901 137.054 72.4186 137.054 69.9954C137.054 67.5723 144.662 65.6094 147.624 65.6094C150.586 65.6094 153 67.5723 153 69.9954C153 72.4186 150.594 74.3901 147.624 74.3901Z" fill="#FF7D00"/>
</g>
<g clip-path="url(#clip2_196_7962)">
<path d="M65.4197 117.58C65.3489 117.528 65.2909 117.46 65.25 117.382C65.2092 117.304 65.1867 117.217 65.1841 117.129C65.1816 117.041 65.1991 116.954 65.2353 116.873C65.2716 116.793 65.3256 116.722 65.3933 116.666L73.6655 108.393C73.7219 108.326 73.793 108.272 73.8733 108.235C73.9536 108.199 74.0411 108.182 74.1292 108.184C74.2173 108.187 74.3036 108.209 74.3817 108.25C74.4598 108.291 74.5276 108.349 74.58 108.42C74.6503 108.472 74.7079 108.54 74.7486 108.618C74.7893 108.696 74.812 108.782 74.8151 108.869C74.8181 108.957 74.8014 109.044 74.7662 109.125C74.731 109.205 74.6782 109.277 74.6117 109.334L66.3342 117.612C66.2769 117.678 66.2053 117.731 66.1249 117.766C66.0444 117.801 65.9571 117.818 65.8694 117.815C65.7816 117.812 65.6956 117.789 65.6178 117.749C65.54 117.708 65.4723 117.65 65.4197 117.58Z" fill="#D50400"/>
<path d="M65.4198 108.42C65.4727 108.35 65.5407 108.293 65.6188 108.252C65.6968 108.212 65.7829 108.19 65.8706 108.187C65.9584 108.185 66.0456 108.202 66.1258 108.238C66.206 108.273 66.2773 108.326 66.3342 108.393L74.6117 116.666C74.6782 116.723 74.731 116.794 74.7662 116.875C74.8014 116.955 74.8181 117.043 74.8151 117.13C74.812 117.218 74.7893 117.304 74.7486 117.382C74.7079 117.46 74.6503 117.527 74.58 117.58C74.5274 117.65 74.4597 117.708 74.3819 117.749C74.3041 117.789 74.2181 117.812 74.1304 117.815C74.0426 117.818 73.9553 117.801 73.8748 117.766C73.7944 117.731 73.7229 117.678 73.6655 117.612L65.3933 109.334C65.3265 109.277 65.2733 109.206 65.2377 109.126C65.202 109.046 65.1848 108.958 65.1874 108.871C65.1899 108.783 65.2121 108.697 65.2523 108.619C65.2925 108.541 65.3497 108.473 65.4198 108.42Z" fill="#D50400"/>
<path d="M68.0522 118.611C68.0522 117.295 68.9244 113.912 70.0027 113.912C71.081 113.912 71.9531 117.3 71.9531 118.611C71.9531 119.922 71.0757 121 70.0027 121C68.9297 121 68.0522 119.943 68.0522 118.611Z" fill="#D50400"/>
<path d="M71.9531 107.389C71.9531 108.705 71.0757 112.088 70.0027 112.088C68.9297 112.088 68.0522 108.705 68.0522 107.389C68.0522 106.073 68.9244 105 70.0027 105C71.081 105 71.9531 106.073 71.9531 107.389Z" fill="#D50400"/>
<path d="M64.3893 111.052C65.7055 111.052 69.0884 111.924 69.0884 113.003C69.0884 114.081 65.7055 114.953 64.3893 114.953C63.0732 114.953 62.0002 114.076 62.0002 113.003C62.0002 111.93 63.0732 111.052 64.3893 111.052Z" fill="#D50400"/>
<path d="M75.6108 114.953C74.2947 114.953 70.9118 114.076 70.9118 113.003C70.9118 111.93 74.3 111.052 75.6108 111.052C76.9217 111.052 78 111.924 78 113.003C78 114.081 76.9428 114.953 75.6108 114.953Z" fill="#D50400"/>
</g>
<g clip-path="url(#clip3_196_7962)">
<path d="M209.344 19.6565C209.233 19.5747 209.142 19.4687 209.078 19.3467C209.015 19.2247 208.979 19.0898 208.976 18.9522C208.972 18.8145 208.999 18.6778 209.056 18.5523C209.112 18.4268 209.197 18.3158 209.302 18.2277L222.228 5.30237C222.316 5.19655 222.427 5.11215 222.552 5.05552C222.678 4.9989 222.815 4.97154 222.952 4.97552C223.09 4.9795 223.225 5.01471 223.347 5.07848C223.469 5.14226 223.575 5.23294 223.657 5.34366C223.766 5.42581 223.856 5.53158 223.92 5.65316C223.984 5.77475 224.019 5.90906 224.024 6.04618C224.029 6.18331 224.003 6.31976 223.948 6.44546C223.893 6.57116 223.81 6.68291 223.706 6.77247L210.772 19.7061C210.683 19.81 210.571 19.8925 210.445 19.9475C210.32 20.0025 210.183 20.0286 210.046 20.0239C209.909 20.0191 209.775 19.9836 209.653 19.9201C209.532 19.8565 209.426 19.7664 209.344 19.6565Z" fill="#D50400"/>
<path d="M209.344 5.34366C209.426 5.23429 209.533 5.14488 209.655 5.08203C209.777 5.01919 209.911 4.98451 210.048 4.98054C210.185 4.97658 210.322 5.00344 210.447 5.05914C210.572 5.11483 210.684 5.19795 210.772 5.30237L223.706 18.2277C223.81 18.3173 223.893 18.429 223.948 18.5547C224.003 18.6804 224.029 18.8169 224.024 18.954C224.019 19.0911 223.984 19.2254 223.92 19.347C223.856 19.4686 223.766 19.5744 223.657 19.6565C223.574 19.7664 223.469 19.8565 223.347 19.9201C223.225 19.9836 223.091 20.0191 222.954 20.0239C222.817 20.0286 222.68 20.0025 222.555 19.9475C222.429 19.8925 222.317 19.81 222.228 19.7061L209.302 6.77247C209.198 6.68351 209.115 6.57225 209.059 6.4469C209.003 6.32154 208.977 6.18528 208.981 6.04817C208.985 5.91105 209.019 5.77657 209.082 5.65464C209.145 5.53272 209.234 5.42644 209.344 5.34366Z" fill="#D50400"/>
<path d="M213.457 21.2669C213.457 19.2104 214.819 13.9247 216.504 13.9247C218.189 13.9247 219.552 19.2187 219.552 21.2669C219.552 23.3152 218.181 25 216.504 25C214.828 25 213.457 23.3482 213.457 21.2669Z" fill="#D50400"/>
<path d="M219.552 3.73294C219.552 5.78943 218.181 11.0752 216.504 11.0752C214.828 11.0752 213.457 5.78943 213.457 3.73294C213.457 1.67645 214.819 -0.000126299 216.504 -0.000126151C218.189 -0.000126004 219.552 1.67645 219.552 3.73294Z" fill="#D50400"/>
<path d="M207.733 9.45661C209.789 9.45661 215.075 10.8193 215.075 12.5042C215.075 14.189 209.789 15.5518 207.733 15.5518C205.676 15.5518 204 14.1808 204 12.5042C204 10.8276 205.676 9.45661 207.733 9.45661Z" fill="#D50400"/>
<path d="M225.267 15.5518C223.21 15.5518 217.925 14.1808 217.925 12.5042C217.925 10.8276 223.219 9.45661 225.267 9.45661C227.315 9.45661 229 10.8193 229 12.5042C229 14.189 227.348 15.5518 225.267 15.5518Z" fill="#D50400"/>
</g>
<g clip-path="url(#clip4_196_7962)">
<path d="M166.344 20.6565C166.233 20.5747 166.142 20.4687 166.078 20.3467C166.015 20.2247 165.979 20.0898 165.976 19.9522C165.972 19.8145 165.999 19.6778 166.056 19.5523C166.112 19.4268 166.197 19.3158 166.302 19.2277L179.228 6.30237C179.316 6.19655 179.427 6.11215 179.552 6.05552C179.678 5.9989 179.815 5.97154 179.952 5.97552C180.09 5.9795 180.225 6.01471 180.347 6.07848C180.469 6.14226 180.575 6.23294 180.657 6.34366C180.766 6.42581 180.856 6.53158 180.92 6.65316C180.984 6.77475 181.019 6.90906 181.024 7.04618C181.029 7.18331 181.003 7.31976 180.948 7.44546C180.893 7.57116 180.81 7.68291 180.706 7.77247L167.772 20.7061C167.683 20.81 167.571 20.8925 167.445 20.9475C167.32 21.0025 167.183 21.0286 167.046 21.0239C166.909 21.0191 166.775 20.9836 166.653 20.9201C166.532 20.8565 166.426 20.7664 166.344 20.6565Z" fill="#8F41C6"/>
<path d="M166.344 6.34366C166.426 6.23429 166.533 6.14488 166.655 6.08203C166.777 6.01919 166.911 5.98451 167.048 5.98054C167.185 5.97658 167.322 6.00344 167.447 6.05914C167.572 6.11483 167.684 6.19795 167.772 6.30237L180.706 19.2277C180.81 19.3173 180.893 19.429 180.948 19.5547C181.003 19.6804 181.029 19.8169 181.024 19.954C181.019 20.0911 180.984 20.2254 180.92 20.347C180.856 20.4686 180.766 20.5744 180.657 20.6565C180.574 20.7664 180.469 20.8565 180.347 20.9201C180.225 20.9836 180.091 21.0191 179.954 21.0239C179.817 21.0286 179.68 21.0025 179.555 20.9475C179.429 20.8925 179.317 20.81 179.228 20.7061L166.302 7.77247C166.198 7.68351 166.115 7.57225 166.059 7.4469C166.003 7.32154 165.977 7.18528 165.981 7.04817C165.985 6.91105 166.019 6.77657 166.082 6.65464C166.145 6.53272 166.234 6.42644 166.344 6.34366Z" fill="#8F41C6"/>
<path d="M170.457 22.2669C170.457 20.2104 171.819 14.9247 173.504 14.9247C175.189 14.9247 176.552 20.2187 176.552 22.2669C176.552 24.3152 175.181 26 173.504 26C171.828 26 170.457 24.3482 170.457 22.2669Z" fill="#8F41C6"/>
<path d="M176.552 4.73294C176.552 6.78943 175.181 12.0752 173.504 12.0752C171.828 12.0752 170.457 6.78943 170.457 4.73294C170.457 2.67645 171.819 0.999874 173.504 0.999874C175.189 0.999874 176.552 2.67645 176.552 4.73294Z" fill="#8F41C6"/>
<path d="M164.733 10.4566C166.789 10.4566 172.075 11.8193 172.075 13.5042C172.075 15.189 166.789 16.5518 164.733 16.5518C162.676 16.5518 161 15.1808 161 13.5042C161 11.8276 162.676 10.4566 164.733 10.4566Z" fill="#8F41C6"/>
<path d="M182.267 16.5518C180.21 16.5518 174.925 15.1808 174.925 13.5042C174.925 11.8276 180.219 10.4566 182.267 10.4566C184.315 10.4566 186 11.8193 186 13.5042C186 15.189 184.348 16.5518 182.267 16.5518Z" fill="#8F41C6"/>
</g>
<g clip-path="url(#clip5_196_7962)">
<path d="M80.06 34.9399C79.9797 34.8771 79.9142 34.7975 79.8681 34.7066C79.822 34.6156 79.7965 34.5157 79.7934 34.4138C79.7903 34.3119 79.8096 34.2106 79.8501 34.1171C79.8905 34.0235 79.9511 33.94 80.0274 33.8724L89.8723 24.0275C89.9398 23.9478 90.0244 23.8843 90.1198 23.8419C90.2152 23.7994 90.3189 23.7789 90.4233 23.7821C90.5276 23.7852 90.63 23.8118 90.7226 23.86C90.8153 23.9081 90.8959 23.9765 90.9585 24.0601C91.042 24.1227 91.1105 24.2033 91.1586 24.296C91.2067 24.3886 91.2334 24.4909 91.2365 24.5953C91.2396 24.6997 91.2192 24.8034 91.1767 24.8988C91.1342 24.9942 91.0708 25.0788 90.9911 25.1462L81.1461 34.9725C81.0787 35.0522 80.9941 35.1157 80.8987 35.1582C80.8033 35.2006 80.6996 35.2211 80.5952 35.2179C80.4908 35.2148 80.3885 35.1882 80.2959 35.14C80.2032 35.0919 80.1226 35.0235 80.06 34.9399Z" fill="#00B8AE"/>
<path d="M80.0601 24.0602C80.1227 23.9766 80.2033 23.9082 80.296 23.86C80.3886 23.8119 80.4909 23.7853 80.5953 23.7821C80.6997 23.779 80.8034 23.7994 80.8988 23.8419C80.9942 23.8844 81.0788 23.9479 81.1462 24.0276L90.9725 33.8725C91.0522 33.94 91.1157 34.0246 91.1582 34.1199C91.2006 34.2153 91.2211 34.3191 91.2179 34.4234C91.2148 34.5278 91.1882 34.6301 91.14 34.7228C91.0919 34.8154 91.0235 34.8961 90.9399 34.9586C90.8757 35.0378 90.795 35.1018 90.7033 35.1463C90.6116 35.1907 90.5113 35.2144 90.4094 35.2158C90.3076 35.2171 90.2067 35.196 90.1139 35.154C90.0211 35.112 89.9386 35.05 89.8724 34.9726L80.0275 25.1463C79.9478 25.0788 79.8843 24.9943 79.8419 24.8989C79.7994 24.8035 79.7789 24.6998 79.7821 24.5954C79.7852 24.491 79.8118 24.3887 79.86 24.296C79.9081 24.2034 79.9765 24.1228 80.0601 24.0602Z" fill="#00B8AE"/>
<path d="M83.1833 36.1658C83.1833 34.5996 84.2228 30.5721 85.514 30.5721C86.8052 30.5721 87.8447 34.5903 87.8447 36.1658C87.8447 37.7414 86.7773 39 85.5 39C84.2228 39 83.1833 37.7321 83.1833 36.1658Z" fill="#00B8AE"/>
<path d="M87.8169 22.834C87.8169 24.4003 86.7774 28.4277 85.4862 28.4277C84.195 28.4277 83.1555 24.4096 83.1555 22.834C83.1555 21.2585 84.195 19.9999 85.4862 19.9999C86.7774 19.9999 87.8169 21.2864 87.8169 22.834Z" fill="#00B8AE"/>
<path d="M78.834 27.1833C80.4003 27.1833 84.4277 28.2181 84.4277 29.514C84.4277 30.8099 80.4096 31.8447 78.834 31.8447C77.2585 31.8447 75.9999 30.8052 75.9999 29.514C75.9999 28.2228 77.2864 27.1833 78.834 27.1833Z" fill="#00B8AE"/>
<path d="M92.1658 31.8169C90.5996 31.8169 86.5721 30.7774 86.5721 29.4862C86.5721 28.195 90.5903 27.1555 92.1658 27.1555C93.7414 27.1555 95 28.2183 95 29.5002C95 30.7821 93.7321 31.8169 92.1658 31.8169Z" fill="#00B8AE"/>
</g>
<defs>
<clipPath id="clip0_196_7962">
<rect width="42" height="42" fill="white" transform="translate(42 153) rotate(-180)"/>
</clipPath>
<clipPath id="clip1_196_7962">
<rect width="36" height="36" fill="white" transform="translate(153 88) rotate(-180)"/>
</clipPath>
<clipPath id="clip2_196_7962">
<rect width="16" height="16" fill="white" transform="translate(78 121) rotate(-180)"/>
</clipPath>
<clipPath id="clip3_196_7962">
<rect width="25" height="25" fill="white" transform="translate(229 25) rotate(-180)"/>
</clipPath>
<clipPath id="clip4_196_7962">
<rect width="25" height="25" fill="white" transform="translate(186 26) rotate(-180)"/>
</clipPath>
<clipPath id="clip5_196_7962">
<rect width="19" height="19" fill="white" transform="translate(95 39) rotate(-180)"/>
</clipPath>
</defs>
</svg>
