<svg width="1088" height="682" viewBox="0 0 1088 682" fill="none" xmlns="http://www.w3.org/2000/svg">
<path d="M81.0479 590.775L990.044 590.775L53.4873 385.296L81.0479 590.775Z" fill="#FCEA00" stroke="#FCEA00" stroke-width="2.37" stroke-miterlimit="10"/>
<path d="M61.7267 387.106L53.4873 385.296L42.9811 307.123H61.7267L61.7267 387.106Z" fill="url(#paint0_linear_22_118)"/>
<path d="M882.824 307.123H985.474V589.761L882.824 567.24V307.123Z" fill="url(#paint1_linear_22_118)"/>
<path d="M369.642 454.67V307.123H472.293V477.191L369.642 454.67Z" fill="url(#paint2_linear_22_118)"/>
<path d="M267.028 432.149V307.123H369.642V454.67L267.028 432.149Z" fill="url(#paint3_linear_22_118)"/>
<path d="M780.209 544.719V307.123H882.823V567.24L780.209 544.719Z" fill="#00B8AE"/>
<path d="M61.7268 387.106L61.7268 307.123H164.377V409.627L61.7268 387.106Z" fill="url(#paint4_linear_22_118)"/>
<path d="M677.558 522.198V307.123H780.209V544.719L677.558 522.198Z" fill="url(#paint5_linear_22_118)"/>
<path d="M472.293 477.191V307.123H574.908V499.713L472.293 477.191Z" fill="url(#paint6_linear_22_118)"/>
<path d="M574.908 499.712V307.123H677.558V522.198L574.908 499.712Z" fill="#8F41C6"/>
<path d="M164.377 409.627V307.123H267.028V432.149L164.377 409.627Z" fill="url(#paint7_linear_22_118)"/>
<path d="M985.474 589.761V307.123H1086.79V612.21L989.036 590.775H990.044L985.474 589.761Z" fill="url(#paint8_linear_22_118)"/>
<path d="M780.209 544.9V590.775H677.558V522.379L780.209 544.9Z" fill="#FCEA00"/>
<path d="M574.908 499.821V590.775H472.293V477.264L574.908 499.821Z" fill="#00B8AE"/>
<path d="M882.823 567.421V590.775H780.209V544.9L882.823 567.421Z" fill="#8F41C6"/>
<path d="M472.293 477.264V590.775H369.642V454.742L472.293 477.264Z" fill="#FCEA00"/>
<path d="M677.558 522.378V590.775H574.908V499.821L677.558 522.378Z" fill="#FCEA00"/>
<path d="M61.7267 387.106L61.7267 446.849L53.4873 385.296L61.7267 387.106Z" fill="#FCEA00"/>
<path d="M369.642 454.742V590.775H267.028V432.185L369.642 454.742Z" fill="#F753C3"/>
<path d="M164.377 409.664L164.377 590.775H81.048L61.7268 446.849L61.7268 387.106L164.377 409.664Z" fill="#FCEA00"/>
<path d="M267.028 432.185V590.775H164.377L164.377 409.664L267.028 432.185Z" fill="#0080C8"/>
<path d="M989.036 590.775H985.474V589.979L989.036 590.775Z" fill="#FCEA00"/>
<path d="M985.474 589.978V590.775H882.824V567.421L985.474 589.978Z" fill="#FCEA00"/>
<path d="M369.642 454.67V454.742L267.028 432.185V432.149L369.642 454.67Z" fill="#FCEA00"/>
<path d="M267.028 432.149V432.185L164.377 409.664V409.627L267.028 432.149Z" fill="#FCEA00"/>
<path d="M61.7267 387.106L53.4873 385.296L61.7267 387.106Z" fill="#FCEA00"/>
<path d="M780.209 544.719V544.9L677.558 522.378V522.197L780.209 544.719Z" fill="#FCEA00"/>
<path d="M985.474 589.761L990.044 590.775H989.036L985.474 589.979V589.761Z" fill="#FCEA00"/>
<path d="M985.474 589.761V589.978L882.824 567.421V567.24L985.474 589.761Z" fill="#FCEA00"/>
<path d="M882.823 567.24V567.421L780.209 544.9V544.719L882.823 567.24Z" fill="#FCEA00"/>
<path d="M472.293 477.191V477.264L369.642 454.742V454.67L472.293 477.191Z" fill="#FCEA00"/>
<path d="M574.908 499.712V499.821L472.293 477.264V477.191L574.908 499.712Z" fill="#FCEA00"/>
<path d="M677.558 522.197V522.378L574.908 499.821V499.712L677.558 522.197Z" fill="#FCEA00"/>
<path d="M53.4872 385.296L1086.79 612.21V228.914L1.99996 2L53.4872 385.296Z" stroke="#FCEA00" stroke-width="2.37" stroke-miterlimit="10"/>
<path d="M81.0479 590.775L990.044 590.775L53.4873 385.296L81.0479 590.775Z" stroke="#FCEA00" stroke-width="2.37" stroke-miterlimit="10"/>
<rect x="612.999" y="647.569" width="134" height="8" fill="#FF7E00"/>
<g clip-path="url(#clip0_22_118)">
<rect width="384" height="59" transform="translate(487.999 588.569)" fill="#FF50C8"/>
<path d="M513.343 592.857V598.425H525.119V592.857H513.343ZM521.215 607.129V613.145H538.303V607.129H521.215ZM510.207 642.969V649.177H548.927V642.969H510.207ZM523.071 592.857V593.881C520.895 602.713 514.623 610.457 507.327 613.913C508.671 615.129 510.399 617.497 511.231 618.969C519.679 614.425 526.463 605.977 529.343 594.201L525.247 592.665L524.159 592.857H523.071ZM534.143 590.105L528.383 591.577C531.775 603.033 537.855 612.633 546.751 617.689C547.775 615.961 549.759 613.401 551.359 612.121C543.039 608.089 537.023 599.577 534.143 590.105ZM512.255 603.545C514.431 605.209 517.055 607.641 518.271 609.369L522.047 604.697C520.767 603.097 518.079 600.793 515.903 599.321L512.255 603.545ZM517.375 634.521C518.911 637.401 520.191 641.241 520.511 643.737L527.039 641.497C526.591 639.001 525.247 635.289 523.583 632.537L517.375 634.521ZM540.415 590.745C538.879 592.793 535.935 595.801 533.951 597.465L537.343 600.729C539.519 599.257 542.271 597.081 545.087 594.905L540.415 590.745ZM544.959 598.041C543.359 599.961 540.287 602.777 538.303 604.377L541.759 607.641C543.999 606.233 546.943 604.121 549.695 602.009L544.959 598.041ZM535.103 632.281C534.527 635.161 533.183 639.129 532.031 641.817L538.175 643.417C539.391 641.049 540.863 637.529 542.463 633.945L535.103 632.281ZM521.983 622.233H537.343V626.905H521.983V622.233ZM515.327 616.473V632.601H544.447V616.473H515.327ZM498.687 591.065V612.953C498.687 624.089 497.791 636.057 489.663 644.953C491.263 646.105 493.567 648.665 494.591 650.201C504.319 639.897 505.407 626.073 505.407 613.017V591.065H498.687ZM492.031 603.609C492.159 609.177 491.327 615.833 489.343 619.481L494.399 621.593C496.639 617.177 497.343 610.201 497.087 604.249L492.031 603.609ZM508.287 599.449C507.199 602.649 505.215 607.193 503.551 610.073L507.903 612.121C509.759 609.561 512.127 605.465 514.431 601.881L508.287 599.449ZM503.935 625.433L499.199 628.953C501.567 632.473 506.111 639.769 508.095 643.993L513.343 638.681C511.935 636.633 505.727 627.481 503.935 625.433ZM588.159 619.481V640.281C588.159 647.705 589.951 650.137 597.183 650.137C598.527 650.137 603.455 650.137 604.863 650.137C611.263 650.137 613.183 647.065 613.951 635.865C611.967 635.353 608.575 634.009 606.975 632.729C606.655 641.497 606.335 642.905 604.223 642.905C603.071 642.905 599.295 642.905 598.335 642.905C596.223 642.905 595.903 642.585 595.903 640.281V619.481H588.159ZM570.879 619.801C570.047 630.873 568.703 639.129 553.471 643.673C555.135 645.273 557.311 648.409 558.143 650.393C575.423 644.633 578.047 633.817 579.071 619.801H570.879ZM559.743 595.545C562.559 600.601 565.439 607.257 566.335 611.481L573.823 608.473C572.735 604.185 569.599 597.785 566.655 592.985L559.743 595.545ZM601.151 592.473C599.551 597.593 596.415 604.313 593.791 608.537L600.511 611.097C603.199 607.129 606.527 600.985 609.343 595.289L601.151 592.473ZM555.135 613.721V620.953H612.991V613.721H555.135ZM579.839 590.233V616.665H587.647V590.233H579.839ZM644.351 620.121V628.313H652.159V620.121H644.351ZM643.135 626.073C638.015 630.617 627.711 634.009 617.663 635.545C619.007 636.889 620.863 639.385 621.759 640.985C632.319 639.065 642.879 634.649 649.087 628.633L643.135 626.073ZM652.991 626.201L646.527 627.545C651.327 639.961 659.583 647.385 674.047 650.521C674.879 648.601 676.799 645.785 678.335 644.313C665.087 642.073 656.767 635.929 652.991 626.201ZM669.119 629.401C666.111 631.833 660.991 634.969 657.215 636.825L661.823 640.537C665.663 638.873 670.655 636.185 674.623 633.433L669.119 629.401ZM624.639 643.225L625.599 649.561C632.959 648.601 643.135 647.257 652.671 645.913L652.415 639.897C642.367 641.177 631.679 642.521 624.639 643.225ZM618.815 624.281V630.041H677.183V624.281H618.815ZM643.967 598.169V604.569H676.735V598.169H643.967ZM645.567 612.441V618.841H675.327V612.441H645.567ZM634.815 590.233V622.105H642.047V590.233H634.815ZM656.447 590.233V616.345H664.063V590.233H656.447ZM621.695 591.001V604.185H628.159V591.001H621.695ZM624.959 597.337V603.161H638.463V597.337H624.959ZM618.751 606.681V612.505H638.399V606.681H618.751ZM623.487 608.793C623.231 613.529 622.399 616.857 617.599 618.905C619.007 619.993 620.799 622.361 621.503 623.897C628.479 620.889 630.015 615.769 630.463 608.793H623.487ZM632.575 634.905V645.593H639.871V633.177L635.455 632.025L632.575 634.905ZM722.431 597.785H729.919V601.497H722.431V597.785ZM708.159 597.785H715.455V601.497H708.159V597.785ZM694.079 597.785H701.183V601.497H694.079V597.785ZM686.719 592.729V606.681H737.663V592.729H686.719ZM683.839 609.177V614.809H740.095V609.177H683.839ZM690.303 642.265V648.153H741.439V642.265H690.303ZM687.167 618.201V650.393H694.975V618.201H687.167ZM706.367 627.417H728.063V629.657H706.367V627.417ZM706.367 633.497H728.063V635.801H706.367V633.497ZM706.367 621.401H728.063V623.577H706.367V621.401ZM699.263 617.305V639.833H735.487V617.305H699.263ZM708.735 605.401C708.351 610.073 707.647 615.833 706.943 619.609H714.367C715.071 616.025 715.903 610.521 716.415 605.913L708.735 605.401ZM775.743 597.913C780.927 606.233 791.423 615.193 801.663 620.377C803.071 618.009 804.799 615.385 806.783 613.337C796.287 609.305 786.111 600.857 779.519 590.041H771.199C766.783 598.553 756.799 608.793 745.407 614.233C747.071 615.833 749.247 618.713 750.207 620.633C760.959 614.937 770.751 606.105 775.743 597.913ZM782.847 613.657V650.329H790.847V613.657H782.847ZM760.767 613.977V621.721C760.767 629.145 759.615 638.169 748.351 644.889C750.399 646.105 753.407 648.665 754.751 650.329C767.359 642.457 768.639 631.001 768.639 621.913V613.977H760.767ZM841.471 640.729V647.513H863.551V640.729H841.471ZM837.887 623.065V650.265H844.927V629.849H859.839V650.009H867.263V623.065H837.887ZM835.647 593.241V600.281H864.959V593.241H835.647ZM861.375 593.241V594.329C861.119 606.425 860.735 611.033 859.775 612.121C859.263 612.697 858.623 612.825 857.727 612.825C856.511 612.825 853.887 612.825 851.199 612.569C852.415 614.489 853.247 617.433 853.439 619.673C856.575 619.673 859.519 619.673 861.247 619.417C863.295 619.161 864.703 618.649 866.047 616.985C867.647 614.937 868.095 609.369 868.415 595.993C868.479 595.097 868.543 593.241 868.543 593.241H861.375ZM844.799 596.121C844.095 604.377 842.623 611.417 833.023 615.577C834.623 616.857 836.671 619.545 837.567 621.337C848.895 615.961 851.391 606.937 852.351 596.121H844.799ZM819.519 590.297C818.047 594.777 815.295 600.921 812.991 604.697L818.111 606.937C820.607 603.353 823.551 597.657 826.175 592.793L819.519 590.297ZM826.879 597.849C823.551 604.761 817.663 614.169 812.927 619.993L817.343 622.489C822.207 616.921 828.479 608.025 833.087 600.665L826.879 597.849ZM809.663 605.465C812.927 608.537 816.831 613.017 818.367 616.089L822.335 610.137C820.671 607.193 816.703 603.161 813.311 600.217L809.663 605.465ZM824.959 613.145C827.391 617.561 829.567 623.385 830.271 627.097L835.711 624.665C834.943 620.953 832.511 615.321 830.015 611.033L824.959 613.145ZM809.599 618.457L810.239 625.177C816.447 624.729 824.639 624.217 832.511 623.641L832.575 617.561C824.127 617.945 815.487 618.265 809.599 618.457ZM826.367 629.081C827.775 632.857 829.439 637.785 830.079 640.985L835.711 639.001C835.007 635.801 833.343 631.001 831.743 627.353L826.367 629.081ZM812.351 627.865C811.839 633.305 810.815 639.001 808.959 642.777C810.559 643.417 813.439 644.761 814.783 645.593C816.639 641.497 818.047 635.097 818.687 628.953L812.351 627.865ZM819.519 621.849V650.393H826.239V621.849H819.519Z" fill="#111111"/>
</g>
<g clip-path="url(#clip1_22_118)">
<rect width="134" height="26" transform="translate(612.999 655.569)" fill="#00B9AF"/>
<path d="M631.632 661.295H635.3L630.436 678.569H626.991L624.905 668.467L624.296 665.127L623.686 668.467L621.6 678.569H618.249L613.35 661.295H617.182L619.468 671.186L619.96 673.94L620.464 671.245L622.409 661.295H626.218L628.268 671.186L628.796 673.94L629.323 671.292L631.632 661.295ZM648.764 671.069V678.569H645.354V670.799C645.354 670.112 645.237 669.557 645.003 669.135C644.698 668.542 644.12 668.245 643.268 668.245C642.385 668.245 641.714 668.542 641.253 669.135C640.8 669.721 640.573 670.561 640.573 671.655V678.569H637.245V661.354H640.573V667.459C641.057 666.717 641.616 666.202 642.249 665.913C642.889 665.616 643.561 665.467 644.264 665.467C645.053 665.467 645.768 665.604 646.409 665.877C647.057 666.151 647.589 666.569 648.003 667.131C648.354 667.608 648.569 668.1 648.647 668.608C648.725 669.108 648.764 669.928 648.764 671.069ZM652.374 667.178C653.257 666.053 654.772 665.491 656.921 665.491C658.319 665.491 659.561 665.768 660.647 666.323C661.733 666.877 662.276 667.924 662.276 669.463V675.323C662.276 675.729 662.284 676.221 662.3 676.799C662.323 677.237 662.389 677.534 662.499 677.69C662.608 677.846 662.772 677.975 662.991 678.077V678.569H659.358C659.257 678.311 659.186 678.069 659.147 677.842C659.108 677.616 659.077 677.358 659.053 677.069C658.593 677.569 658.061 677.995 657.46 678.346C656.741 678.76 655.928 678.967 655.022 678.967C653.866 678.967 652.909 678.639 652.151 677.983C651.401 677.319 651.026 676.381 651.026 675.17C651.026 673.6 651.632 672.463 652.843 671.76C653.507 671.377 654.483 671.104 655.772 670.94L656.909 670.799C657.526 670.721 657.968 670.624 658.233 670.506C658.71 670.303 658.948 669.987 658.948 669.557C658.948 669.034 658.764 668.674 658.397 668.479C658.038 668.276 657.507 668.174 656.803 668.174C656.014 668.174 655.456 668.37 655.128 668.76C654.893 669.049 654.737 669.44 654.659 669.932H651.436C651.507 668.815 651.819 667.897 652.374 667.178ZM654.858 676.155C655.171 676.413 655.553 676.542 656.007 676.542C656.725 676.542 657.385 676.331 657.987 675.909C658.596 675.487 658.913 674.717 658.936 673.6V672.358C658.725 672.491 658.51 672.6 658.292 672.686C658.081 672.764 657.788 672.838 657.413 672.909L656.663 673.049C655.96 673.174 655.456 673.327 655.151 673.506C654.635 673.811 654.378 674.284 654.378 674.924C654.378 675.495 654.538 675.905 654.858 676.155ZM671.1 676.19V678.686L669.518 678.745C667.94 678.799 666.862 678.526 666.284 677.924C665.909 677.542 665.721 676.952 665.721 676.155V668.292H663.94V665.913H665.721V662.35H669.026V665.913H671.1V668.292H669.026V675.042C669.026 675.565 669.093 675.893 669.225 676.026C669.358 676.151 669.764 676.213 670.444 676.213C670.546 676.213 670.651 676.213 670.76 676.213C670.878 676.206 670.991 676.198 671.1 676.19ZM676.573 663.827C676.573 665.006 676.284 665.936 675.706 666.616C675.135 667.295 674.331 667.737 673.292 667.94V666.709C674.057 666.467 674.585 666.057 674.874 665.479C675.03 665.135 675.096 664.788 675.073 664.436H673.233V661.354H676.573V663.827ZM687.835 666.381C688.835 667.022 689.409 668.124 689.557 669.686H686.218C686.171 669.256 686.05 668.917 685.854 668.667C685.487 668.213 684.862 667.987 683.979 667.987C683.253 667.987 682.733 668.1 682.421 668.327C682.116 668.553 681.964 668.819 681.964 669.124C681.964 669.506 682.128 669.784 682.456 669.956C682.784 670.135 683.944 670.444 685.936 670.881C687.264 671.194 688.26 671.667 688.925 672.299C689.581 672.94 689.909 673.741 689.909 674.702C689.909 675.967 689.436 677.002 688.491 677.807C687.553 678.604 686.1 679.002 684.132 679.002C682.124 679.002 680.639 678.581 679.678 677.737C678.725 676.885 678.249 675.803 678.249 674.491H681.635C681.706 675.084 681.858 675.506 682.093 675.756C682.507 676.202 683.272 676.424 684.389 676.424C685.046 676.424 685.565 676.327 685.948 676.131C686.339 675.936 686.534 675.643 686.534 675.252C686.534 674.877 686.378 674.592 686.065 674.397C685.753 674.202 684.593 673.866 682.585 673.389C681.139 673.03 680.12 672.581 679.526 672.042C678.932 671.51 678.635 670.745 678.635 669.745C678.635 668.565 679.096 667.553 680.018 666.709C680.948 665.858 682.253 665.432 683.932 665.432C685.526 665.432 686.827 665.749 687.835 666.381ZM713.311 678.569H709.702L702.647 666.299V678.569H699.284V661.295H703.069L709.948 673.354V661.295H713.311V678.569ZM727.35 674.819C727.264 675.577 726.87 676.346 726.167 677.127C725.073 678.37 723.542 678.991 721.573 678.991C719.948 678.991 718.514 678.467 717.272 677.42C716.03 676.374 715.409 674.67 715.409 672.311C715.409 670.1 715.968 668.405 717.085 667.225C718.21 666.045 719.667 665.456 721.456 665.456C722.518 665.456 723.475 665.655 724.327 666.053C725.178 666.452 725.882 667.081 726.436 667.94C726.936 668.698 727.26 669.577 727.409 670.577C727.495 671.163 727.53 672.006 727.514 673.108H718.772C718.819 674.389 719.221 675.288 719.979 675.803C720.44 676.124 720.995 676.284 721.643 676.284C722.331 676.284 722.889 676.088 723.319 675.698C723.553 675.487 723.76 675.194 723.94 674.819H727.35ZM724.046 670.905C723.991 670.022 723.721 669.354 723.237 668.901C722.76 668.44 722.167 668.209 721.456 668.209C720.682 668.209 720.081 668.452 719.651 668.936C719.229 669.42 718.964 670.077 718.854 670.905H724.046ZM739.468 678.569L737.464 669.264L735.436 678.569H731.968L728.382 665.795H731.968L733.96 674.959L735.8 665.795H739.186L741.132 674.995L743.124 665.795H746.604L742.901 678.569H739.468Z" fill="#111111"/>
</g>
<defs>
<linearGradient id="paint0_linear_22_118" x1="1086.8" y1="347.133" x2="2.03579" y2="347.133" gradientUnits="userSpaceOnUse">
<stop offset="0.02" stop-color="#00B8AE" stop-opacity="0"/>
<stop offset="0.14" stop-color="#00B8AE"/>
<stop offset="0.19" stop-color="#00B8AE"/>
<stop offset="0.35" stop-color="#F753C3"/>
<stop offset="0.41" stop-color="#F753C3"/>
<stop offset="0.57" stop-color="#0080C8"/>
<stop offset="0.63" stop-color="#0080C8"/>
<stop offset="0.81" stop-color="#FCEA00"/>
<stop offset="0.88" stop-color="#FCEA00" stop-opacity="0.59"/>
<stop offset="0.96" stop-color="#FCEA00" stop-opacity="0.17"/>
<stop offset="0.99" stop-color="#FCEA00" stop-opacity="0"/>
</linearGradient>
<linearGradient id="paint1_linear_22_118" x1="1086.79" y1="448.442" x2="2.03598" y2="448.442" gradientUnits="userSpaceOnUse">
<stop offset="0.02" stop-color="#00B8AE" stop-opacity="0"/>
<stop offset="0.14" stop-color="#00B8AE"/>
<stop offset="0.19" stop-color="#00B8AE"/>
<stop offset="0.35" stop-color="#F753C3"/>
<stop offset="0.41" stop-color="#F753C3"/>
<stop offset="0.57" stop-color="#0080C8"/>
<stop offset="0.63" stop-color="#0080C8"/>
<stop offset="0.81" stop-color="#FCEA00"/>
<stop offset="0.88" stop-color="#FCEA00" stop-opacity="0.59"/>
<stop offset="0.96" stop-color="#FCEA00" stop-opacity="0.17"/>
<stop offset="0.99" stop-color="#FCEA00" stop-opacity="0"/>
</linearGradient>
<linearGradient id="paint2_linear_22_118" x1="1086.79" y1="392.139" x2="2.03593" y2="392.139" gradientUnits="userSpaceOnUse">
<stop offset="0.02" stop-color="#00B8AE" stop-opacity="0"/>
<stop offset="0.14" stop-color="#00B8AE"/>
<stop offset="0.19" stop-color="#00B8AE"/>
<stop offset="0.35" stop-color="#F753C3"/>
<stop offset="0.41" stop-color="#F753C3"/>
<stop offset="0.57" stop-color="#0080C8"/>
<stop offset="0.63" stop-color="#0080C8"/>
<stop offset="0.81" stop-color="#FCEA00"/>
<stop offset="0.88" stop-color="#FCEA00" stop-opacity="0.59"/>
<stop offset="0.96" stop-color="#FCEA00" stop-opacity="0.17"/>
<stop offset="0.99" stop-color="#FCEA00" stop-opacity="0"/>
</linearGradient>
<linearGradient id="paint3_linear_22_118" x1="1086.79" y1="380.878" x2="2.03596" y2="380.878" gradientUnits="userSpaceOnUse">
<stop offset="0.02" stop-color="#00B8AE" stop-opacity="0"/>
<stop offset="0.14" stop-color="#00B8AE"/>
<stop offset="0.19" stop-color="#00B8AE"/>
<stop offset="0.35" stop-color="#F753C3"/>
<stop offset="0.41" stop-color="#F753C3"/>
<stop offset="0.57" stop-color="#0080C8"/>
<stop offset="0.63" stop-color="#0080C8"/>
<stop offset="0.81" stop-color="#FCEA00"/>
<stop offset="0.88" stop-color="#FCEA00" stop-opacity="0.59"/>
<stop offset="0.96" stop-color="#FCEA00" stop-opacity="0.17"/>
<stop offset="0.99" stop-color="#FCEA00" stop-opacity="0"/>
</linearGradient>
<linearGradient id="paint4_linear_22_118" x1="1086.79" y1="358.393" x2="2.0362" y2="358.393" gradientUnits="userSpaceOnUse">
<stop offset="0.02" stop-color="#00B8AE" stop-opacity="0"/>
<stop offset="0.14" stop-color="#00B8AE"/>
<stop offset="0.19" stop-color="#00B8AE"/>
<stop offset="0.35" stop-color="#F753C3"/>
<stop offset="0.41" stop-color="#F753C3"/>
<stop offset="0.57" stop-color="#0080C8"/>
<stop offset="0.63" stop-color="#0080C8"/>
<stop offset="0.81" stop-color="#FCEA00"/>
<stop offset="0.88" stop-color="#FCEA00" stop-opacity="0.59"/>
<stop offset="0.96" stop-color="#FCEA00" stop-opacity="0.17"/>
<stop offset="0.99" stop-color="#FCEA00" stop-opacity="0"/>
</linearGradient>
<linearGradient id="paint5_linear_22_118" x1="1086.79" y1="425.921" x2="2.0359" y2="425.921" gradientUnits="userSpaceOnUse">
<stop offset="0.02" stop-color="#00B8AE" stop-opacity="0"/>
<stop offset="0.14" stop-color="#00B8AE"/>
<stop offset="0.19" stop-color="#00B8AE"/>
<stop offset="0.35" stop-color="#F753C3"/>
<stop offset="0.41" stop-color="#F753C3"/>
<stop offset="0.57" stop-color="#0080C8"/>
<stop offset="0.63" stop-color="#0080C8"/>
<stop offset="0.81" stop-color="#FCEA00"/>
<stop offset="0.88" stop-color="#FCEA00" stop-opacity="0.59"/>
<stop offset="0.96" stop-color="#FCEA00" stop-opacity="0.17"/>
<stop offset="0.99" stop-color="#FCEA00" stop-opacity="0"/>
</linearGradient>
<linearGradient id="paint6_linear_22_118" x1="1086.79" y1="403.4" x2="2.03589" y2="403.4" gradientUnits="userSpaceOnUse">
<stop offset="0.02" stop-color="#00B8AE" stop-opacity="0"/>
<stop offset="0.14" stop-color="#00B8AE"/>
<stop offset="0.19" stop-color="#00B8AE"/>
<stop offset="0.35" stop-color="#F753C3"/>
<stop offset="0.41" stop-color="#F753C3"/>
<stop offset="0.57" stop-color="#0080C8"/>
<stop offset="0.63" stop-color="#0080C8"/>
<stop offset="0.81" stop-color="#FCEA00"/>
<stop offset="0.88" stop-color="#FCEA00" stop-opacity="0.59"/>
<stop offset="0.96" stop-color="#FCEA00" stop-opacity="0.17"/>
<stop offset="0.99" stop-color="#FCEA00" stop-opacity="0"/>
</linearGradient>
<linearGradient id="paint7_linear_22_118" x1="1086.76" y1="369.618" x2="2.03614" y2="369.618" gradientUnits="userSpaceOnUse">
<stop offset="0.02" stop-color="#00B8AE" stop-opacity="0"/>
<stop offset="0.14" stop-color="#00B8AE"/>
<stop offset="0.19" stop-color="#00B8AE"/>
<stop offset="0.35" stop-color="#F753C3"/>
<stop offset="0.41" stop-color="#F753C3"/>
<stop offset="0.57" stop-color="#0080C8"/>
<stop offset="0.63" stop-color="#0080C8"/>
<stop offset="0.81" stop-color="#FCEA00"/>
<stop offset="0.88" stop-color="#FCEA00" stop-opacity="0.59"/>
<stop offset="0.96" stop-color="#FCEA00" stop-opacity="0.17"/>
<stop offset="0.99" stop-color="#FCEA00" stop-opacity="0"/>
</linearGradient>
<linearGradient id="paint8_linear_22_118" x1="1086.79" y1="459.667" x2="2.0002" y2="459.667" gradientUnits="userSpaceOnUse">
<stop offset="0.02" stop-color="#00B8AE" stop-opacity="0"/>
<stop offset="0.14" stop-color="#00B8AE"/>
<stop offset="0.19" stop-color="#00B8AE"/>
<stop offset="0.35" stop-color="#F753C3"/>
<stop offset="0.41" stop-color="#F753C3"/>
<stop offset="0.57" stop-color="#0080C8"/>
<stop offset="0.63" stop-color="#0080C8"/>
<stop offset="0.81" stop-color="#FCEA00"/>
<stop offset="0.88" stop-color="#FCEA00" stop-opacity="0.59"/>
<stop offset="0.96" stop-color="#FCEA00" stop-opacity="0.17"/>
<stop offset="0.99" stop-color="#FCEA00" stop-opacity="0"/>
</linearGradient>
<clipPath id="clip0_22_118">
<rect width="384" height="59" fill="white" transform="translate(487.999 588.569)"/>
</clipPath>
<clipPath id="clip1_22_118">
<rect width="134" height="26" fill="white" transform="translate(612.999 655.569)"/>
</clipPath>
</defs>
</svg>
