<svg width="387" height="56" viewBox="0 0 387 56" fill="none" xmlns="http://www.w3.org/2000/svg">
<g clip-path="url(#clip0_194_1334)">
<path d="M259.381 24.4971H2.20312L58.7141 -131.517H259.381V24.4971Z" fill="url(#paint0_linear_194_1334)" stroke="#FCEA00" stroke-width="2.37" stroke-miterlimit="10"/>
<path d="M144.916 24.4971L30.4648 -53.5101L144.916 -131.517L259.381 -53.5101L144.916 24.4971Z" fill="#F753C3"/>
<path d="M202.148 -14.5065V24.4972H230.765V-34.0148L202.148 -14.5065Z" fill="#FCEA00"/>
<path d="M30.4652 -53.5101L2.20312 24.4971H30.4652V-53.5101Z" fill="#F753C3"/>
<path d="M30.4648 -53.5101V24.4971H59.0679V-34.0018L30.4648 -53.5101Z" fill="#00B8AE"/>
<path d="M116.301 24.4971H144.917L116.301 5.00183V24.4971Z" fill="#8F41C6"/>
<path d="M173.533 -53.5101V5.00181L202.149 -14.5065V-53.5101H173.533Z" fill="#00B8AE"/>
<path d="M87.6836 -14.5065L116.3 5.00181V-53.5101H87.6836V-14.5065Z" fill="#F753C3"/>
<path d="M173.532 -53.5101H144.916V24.4971L173.532 5.0018V-53.5101Z" fill="#D50400"/>
<path d="M116.301 -53.5101V5.0018L144.917 24.4971V-53.5101H116.301Z" fill="#F753C3"/>
<path d="M259.381 24.4971H2.20312L58.7141 -131.517H259.381V24.4971Z" stroke="#FCEA00" stroke-width="2.37" stroke-miterlimit="10"/>
<path d="M144.916 24.4971L30.4648 -53.5101L144.916 -131.517L259.381 -53.5101L144.916 24.4971Z" stroke="#FCEA00" stroke-width="2.37" stroke-miterlimit="10"/>
</g>
<g clip-path="url(#clip1_194_1334)">
<path d="M437.053 -21.9005L90.4785 54.0433L90.4785 -74.2384L454.322 -150.182L437.053 -21.9005Z" fill="url(#paint1_linear_194_1334)" stroke="#FCEA00" stroke-width="2.37" stroke-miterlimit="10"/>
<path d="M427.81 46.8693L122.93 46.8693L437.054 -21.9006L427.81 46.8693Z" fill="#FCEA00" stroke="#FCEA00" stroke-width="2.37" stroke-miterlimit="10"/>
<path d="M331.013 1.31758V-48.0635L296.584 -48.0635V8.85502L331.013 1.31758Z" fill="url(#paint2_linear_194_1334)"/>
<path d="M365.431 -6.21983V-48.0635L331.014 -48.0635V1.31758L365.431 -6.21983Z" fill="url(#paint3_linear_194_1334)"/>
<path d="M193.308 31.4552V-48.0635L158.891 -48.0635V38.9926L193.308 31.4552Z" fill="#00B8AE"/>
<path d="M227.738 23.9178V-48.0635L193.309 -48.0635V31.4552L227.738 23.9178Z" fill="url(#paint4_linear_194_1334)"/>
<path d="M296.585 8.85503V-48.0635L262.168 -48.0635V16.3925L296.585 8.85503Z" fill="url(#paint5_linear_194_1334)"/>
<path d="M262.168 16.3925V-48.0635L227.738 -48.0635V23.9178L262.168 16.3925Z" fill="#8F41C6"/>
<path d="M193.309 31.5158V46.8694H227.738V23.9784L193.309 31.5158Z" fill="#FCEA00"/>
<path d="M262.168 16.4288V46.8694L296.585 46.8694V8.87927L262.168 16.4288Z" fill="#00B8AE"/>
<path d="M158.891 39.0532V46.8693H193.308V31.5157L158.891 39.0532Z" fill="#8F41C6"/>
<path d="M296.584 8.87922V46.8693L331.013 46.8693V1.3418L296.584 8.87922Z" fill="#FCEA00"/>
<path d="M227.738 23.9784V46.8694H262.168V16.4288L227.738 23.9784Z" fill="#FCEA00"/>
<path d="M331.014 1.34191V46.8694L365.431 46.8694V-6.20764L331.014 1.34191Z" fill="#F753C3"/>
<path d="M365.432 -6.20769V46.8694L399.861 46.8694V-13.7451L365.432 -6.20769Z" fill="#0080C8"/>
<path d="M331.014 1.31769V1.34193L365.431 -6.20762V-6.21973L331.014 1.31769Z" fill="#FCEA00"/>
<path d="M193.309 31.4552V31.5157L227.738 23.9783V23.9177L193.309 31.4552Z" fill="#FCEA00"/>
<path d="M158.891 38.9928V39.0533L193.308 31.5159V31.4553L158.891 38.9928Z" fill="#FCEA00"/>
<path d="M296.584 8.85507V8.87929L331.013 1.34187V1.31763L296.584 8.85507Z" fill="#FCEA00"/>
<path d="M262.168 16.3924V16.4288L296.585 8.8792V8.85498L262.168 16.3924Z" fill="#FCEA00"/>
<path d="M227.738 23.9178V23.9784L262.168 16.4288V16.3925L227.738 23.9178Z" fill="#FCEA00"/>
<path d="M437.053 -21.9005L90.4785 54.0433L90.4785 -74.2384L454.322 -150.182L437.053 -21.9005Z" stroke="#FCEA00" stroke-width="2.37" stroke-miterlimit="10"/>
<path d="M427.81 46.8693L122.93 46.8693L437.054 -21.9006L427.81 46.8693Z" stroke="#FCEA00" stroke-width="2.37" stroke-miterlimit="10"/>
</g>
<defs>
<linearGradient id="paint0_linear_194_1334" x1="2.20312" y1="-53.5101" x2="259.381" y2="-53.5101" gradientUnits="userSpaceOnUse">
<stop offset="0.02" stop-color="#00B8AE" stop-opacity="0"/>
<stop offset="0.14" stop-color="#00B8AE"/>
<stop offset="0.19" stop-color="#00B8AE"/>
<stop offset="0.35" stop-color="#F753C3"/>
<stop offset="0.41" stop-color="#F753C3"/>
<stop offset="0.57" stop-color="#0080C8"/>
<stop offset="0.63" stop-color="#0080C8"/>
<stop offset="0.81" stop-color="#FCEA00"/>
<stop offset="0.88" stop-color="#FCEA00" stop-opacity="0.59"/>
<stop offset="0.96" stop-color="#FCEA00" stop-opacity="0.17"/>
<stop offset="0.99" stop-color="#FCEA00" stop-opacity="0"/>
</linearGradient>
<linearGradient id="paint1_linear_194_1334" x1="90.4785" y1="-48.0634" x2="454.31" y2="-48.0634" gradientUnits="userSpaceOnUse">
<stop offset="0.02" stop-color="#00B8AE" stop-opacity="0"/>
<stop offset="0.14" stop-color="#00B8AE"/>
<stop offset="0.19" stop-color="#00B8AE"/>
<stop offset="0.35" stop-color="#F753C3"/>
<stop offset="0.41" stop-color="#F753C3"/>
<stop offset="0.57" stop-color="#0080C8"/>
<stop offset="0.63" stop-color="#0080C8"/>
<stop offset="0.81" stop-color="#FCEA00"/>
<stop offset="0.88" stop-color="#FCEA00" stop-opacity="0.59"/>
<stop offset="0.96" stop-color="#FCEA00" stop-opacity="0.17"/>
<stop offset="0.99" stop-color="#FCEA00" stop-opacity="0"/>
</linearGradient>
<linearGradient id="paint2_linear_194_1334" x1="90.4783" y1="-19.6103" x2="454.31" y2="-19.6103" gradientUnits="userSpaceOnUse">
<stop offset="0.02" stop-color="#00B8AE" stop-opacity="0"/>
<stop offset="0.14" stop-color="#00B8AE"/>
<stop offset="0.19" stop-color="#00B8AE"/>
<stop offset="0.35" stop-color="#F753C3"/>
<stop offset="0.41" stop-color="#F753C3"/>
<stop offset="0.57" stop-color="#0080C8"/>
<stop offset="0.63" stop-color="#0080C8"/>
<stop offset="0.81" stop-color="#FCEA00"/>
<stop offset="0.88" stop-color="#FCEA00" stop-opacity="0.59"/>
<stop offset="0.96" stop-color="#FCEA00" stop-opacity="0.17"/>
<stop offset="0.99" stop-color="#FCEA00" stop-opacity="0"/>
</linearGradient>
<linearGradient id="paint3_linear_194_1334" x1="90.4785" y1="-23.379" x2="454.31" y2="-23.379" gradientUnits="userSpaceOnUse">
<stop offset="0.02" stop-color="#00B8AE" stop-opacity="0"/>
<stop offset="0.14" stop-color="#00B8AE"/>
<stop offset="0.19" stop-color="#00B8AE"/>
<stop offset="0.35" stop-color="#F753C3"/>
<stop offset="0.41" stop-color="#F753C3"/>
<stop offset="0.57" stop-color="#0080C8"/>
<stop offset="0.63" stop-color="#0080C8"/>
<stop offset="0.81" stop-color="#FCEA00"/>
<stop offset="0.88" stop-color="#FCEA00" stop-opacity="0.59"/>
<stop offset="0.96" stop-color="#FCEA00" stop-opacity="0.17"/>
<stop offset="0.99" stop-color="#FCEA00" stop-opacity="0"/>
</linearGradient>
<linearGradient id="paint4_linear_194_1334" x1="90.479" y1="-8.30414" x2="454.311" y2="-8.30414" gradientUnits="userSpaceOnUse">
<stop offset="0.02" stop-color="#00B8AE" stop-opacity="0"/>
<stop offset="0.14" stop-color="#00B8AE"/>
<stop offset="0.19" stop-color="#00B8AE"/>
<stop offset="0.35" stop-color="#F753C3"/>
<stop offset="0.41" stop-color="#F753C3"/>
<stop offset="0.57" stop-color="#0080C8"/>
<stop offset="0.63" stop-color="#0080C8"/>
<stop offset="0.81" stop-color="#FCEA00"/>
<stop offset="0.88" stop-color="#FCEA00" stop-opacity="0.59"/>
<stop offset="0.96" stop-color="#FCEA00" stop-opacity="0.17"/>
<stop offset="0.99" stop-color="#FCEA00" stop-opacity="0"/>
</linearGradient>
<linearGradient id="paint5_linear_194_1334" x1="90.4796" y1="-15.8416" x2="454.311" y2="-15.8416" gradientUnits="userSpaceOnUse">
<stop offset="0.02" stop-color="#00B8AE" stop-opacity="0"/>
<stop offset="0.14" stop-color="#00B8AE"/>
<stop offset="0.19" stop-color="#00B8AE"/>
<stop offset="0.35" stop-color="#F753C3"/>
<stop offset="0.41" stop-color="#F753C3"/>
<stop offset="0.57" stop-color="#0080C8"/>
<stop offset="0.63" stop-color="#0080C8"/>
<stop offset="0.81" stop-color="#FCEA00"/>
<stop offset="0.88" stop-color="#FCEA00" stop-opacity="0.59"/>
<stop offset="0.96" stop-color="#FCEA00" stop-opacity="0.17"/>
<stop offset="0.99" stop-color="#FCEA00" stop-opacity="0"/>
</linearGradient>
<clipPath id="clip0_194_1334">
<rect width="262.122" height="159.755" fill="white" transform="translate(0 -133.388)"/>
</clipPath>
<clipPath id="clip1_194_1334">
<rect width="293.143" height="207.837" fill="white" transform="translate(162.857 -152)"/>
</clipPath>
</defs>
</svg>
