<svg width="248" height="93" viewBox="0 0 248 93" fill="none" xmlns="http://www.w3.org/2000/svg">
<g clip-path="url(#clip0_197_9936)">
<rect width="248" height="59" fill="#FF50C8"/>
<path d="M0.648 1.864V6.6H57.544V1.864H0.648ZM1.032 52.296V57.48H57.096V52.296H1.032ZM5.768 8.712V13.128H52.296V8.712H5.768ZM8.008 33.224V37.32H49.288V33.224H8.008ZM7.304 45.704V50.248H51.464V45.704H7.304ZM1.288 26.568V36.232H8.136V31.368H49.544V36.232H56.776V26.568H1.288ZM24.84 -1.4V11.528H32.584V-1.4H24.84ZM24.84 41.736V54.856H32.584V41.736H24.84ZM15.176 18.76H42.76V21H15.176V18.76ZM8.072 14.984V24.712H50.312V14.984H8.072ZM18.312 34.184C17.288 36.168 15.432 38.856 13.832 40.904L20.168 42.184C21.896 40.52 24.328 38.088 26.376 35.336L18.312 34.184ZM5.448 39.432L5.768 43.976C16.2 43.912 31.56 43.72 46.152 43.464L46.408 39.432C31.432 39.56 15.56 39.496 5.448 39.432ZM34.632 37.768C39.368 39.88 45.128 43.528 48.136 46.088L52.68 42.376C49.544 39.88 43.784 36.488 39.048 34.44L34.632 37.768ZM64.52 13.832V21.512H83.528V13.832H64.52ZM95.816 -0.248001V45.768C95.816 54.856 97.992 57.544 105.352 57.544C106.76 57.544 112.392 57.544 113.928 57.544C121.16 57.544 123.08 52.808 123.784 40.52C121.672 40.008 118.344 38.472 116.488 37C116.04 47.368 115.592 49.992 113.16 49.992C112.008 49.992 107.592 49.992 106.504 49.992C104.2 49.992 103.816 49.48 103.816 45.896V-0.248001H95.816ZM79.752 -0.312004V58.056H87.752V-0.312004H79.752ZM117 9.288C111.88 13.64 104.392 19.144 97.416 22.728C98.504 24.392 99.976 27.08 100.552 28.808C107.784 25.16 115.912 20.68 122.504 16.2L117 9.288ZM62.28 42.888L65.672 50.76C71.304 48.456 78.28 45.576 84.68 42.696L83.272 35.72C75.592 38.472 67.464 41.352 62.28 42.888ZM143.368 13.064V46.536C143.368 55.432 145.8 57.992 154.44 57.992C156.296 57.992 163.848 57.992 165.768 57.992C173.704 57.992 175.944 54.28 176.968 42.632C174.728 42.184 171.272 40.712 169.48 39.368C168.968 48.52 168.392 50.312 165.128 50.312C163.336 50.312 156.936 50.312 155.4 50.312C152.072 50.312 151.56 49.864 151.56 46.6V13.064H143.368ZM144.136 4.168C149.192 7.624 155.784 12.68 159.432 15.816L164.488 9.48C160.84 6.664 154.312 1.864 149.128 -1.4L144.136 4.168ZM133.128 16.008C131.976 23.56 129.608 31.688 126.344 37.256L133.832 40.008C137.032 34.504 139.08 25.416 140.488 17.864L133.128 16.008ZM170.824 23.56C174.664 29.64 178.632 37.896 180.104 43.272L187.528 39.496C185.8 34.12 181.832 26.312 177.8 20.296L170.824 23.56ZM173.896 2.376C165.32 20.424 148.232 39.624 126.536 49.544C128.136 51.08 130.376 53.896 131.528 55.688C154.44 44.424 171.336 25.224 181.64 5.512L173.896 2.376ZM204.936 23.624H191.304V30.728H197.768V47.176H204.936V23.624ZM204.936 44.232H198.536C195.912 46.6 192.968 49.032 190.408 50.824L194.056 58.184C197 55.304 199.496 52.872 201.864 50.312C205.768 55.304 211.016 57.224 218.824 57.544C226.888 57.864 241.16 57.736 249.352 57.352C249.736 55.24 250.824 51.848 251.656 50.184C242.568 50.888 226.76 51.08 218.824 50.76C212.168 50.44 207.496 48.584 204.936 44.232ZM190.856 3.848C194.056 7.176 197.704 11.912 199.112 14.984L205.64 10.76C204.04 7.56 200.2 3.208 196.936 0.0719986L190.856 3.848ZM206.792 6.984V13.32H228.36V6.984H206.792ZM215.496 17.992V24.2H224.2V17.992H215.496ZM214.344 -1.336V10.376H221.448V-1.336H214.344ZM221.64 17.992V19.208C221.32 35.4 221 40.84 220.168 42.12C219.784 42.76 219.336 42.952 218.568 42.952C217.8 42.952 216.456 42.952 214.856 42.76C215.816 44.424 216.392 47.048 216.52 48.904C218.696 48.904 220.744 48.904 222.088 48.648C223.688 48.392 224.776 47.816 225.864 46.28C227.272 44.232 227.656 37.832 228.04 20.616C228.04 19.848 228.104 17.992 228.104 17.992H221.64ZM231.688 5V11.336H250.12V5H231.688ZM229.448 27.912V33.992H250.504V27.912H229.448ZM231.048 15.176V20.808H245.256V15.176H231.048ZM233.032 -1.656C231.752 3.912 229.384 9.48 226.312 13.064C227.784 14.024 230.344 16.136 231.496 17.288C234.824 13.064 237.768 6.408 239.432 -0.184002L233.032 -1.656ZM236.552 24.008V41.608C236.552 42.184 236.36 42.376 235.592 42.376C234.824 42.376 232.456 42.376 230.152 42.312C231.048 44.104 232.008 46.792 232.264 48.648C235.848 48.648 238.536 48.52 240.52 47.496C242.632 46.472 243.016 44.68 243.016 41.672V24.008H236.552ZM243.4 15.176V16.328C242.248 18.952 239.816 22.856 237.704 25.224C238.664 26.056 240.456 27.912 241.288 29.064C244.296 26.184 247.752 21.704 250.12 17.8L246.152 14.792L244.872 15.176H243.4ZM211.784 9.864V21.064C211.784 27.848 211.144 37.448 205.704 43.848C207.112 44.808 209.224 46.92 210.248 48.264C217.032 40.84 217.992 29.448 217.992 21.192V9.864H211.784Z" fill="#111111"/>
</g>
<g clip-path="url(#clip1_197_9936)">
<rect width="126" height="26" transform="translate(61 67)" fill="#FF7E00"/>
<path d="M75.3789 72.7266V75.7852H70.2109V90H66.5781V75.7852H61.3867V72.7266H75.3789ZM75.9297 78.6094C76.8125 77.4844 78.3281 76.9219 80.4766 76.9219C81.875 76.9219 83.1172 77.1992 84.2031 77.7539C85.2891 78.3086 85.832 79.3555 85.832 80.8945V86.7539C85.832 87.1602 85.8398 87.6523 85.8555 88.2305C85.8789 88.668 85.9453 88.9648 86.0547 89.1211C86.1641 89.2773 86.3281 89.4062 86.5469 89.5078V90H82.9141C82.8125 89.7422 82.7422 89.5 82.7031 89.2734C82.6641 89.0469 82.6328 88.7891 82.6094 88.5C82.1484 89 81.6172 89.4258 81.0156 89.7773C80.2969 90.1914 79.4844 90.3984 78.5781 90.3984C77.4219 90.3984 76.4648 90.0703 75.707 89.4141C74.957 88.75 74.582 87.8125 74.582 86.6016C74.582 85.0312 75.1875 83.8945 76.3984 83.1914C77.0625 82.8086 78.0391 82.5352 79.3281 82.3711L80.4648 82.2305C81.082 82.1523 81.5234 82.0547 81.7891 81.9375C82.2656 81.7344 82.5039 81.418 82.5039 80.9883C82.5039 80.4648 82.3203 80.1055 81.9531 79.9102C81.5938 79.707 81.0625 79.6055 80.3594 79.6055C79.5703 79.6055 79.0117 79.8008 78.6836 80.1914C78.4492 80.4805 78.293 80.8711 78.2148 81.3633H74.9922C75.0625 80.2461 75.375 79.3281 75.9297 78.6094ZM78.4141 87.5859C78.7266 87.8438 79.1094 87.9727 79.5625 87.9727C80.2812 87.9727 80.9414 87.7617 81.543 87.3398C82.1523 86.918 82.4688 86.1484 82.4922 85.0312V83.7891C82.2812 83.9219 82.0664 84.0312 81.8477 84.1172C81.6367 84.1953 81.3438 84.2695 80.9688 84.3398L80.2188 84.4805C79.5156 84.6055 79.0117 84.7578 78.707 84.9375C78.1914 85.2422 77.9336 85.7148 77.9336 86.3555C77.9336 86.9258 78.0938 87.3359 78.4141 87.5859ZM92.2422 77.2266V90H88.8555V77.2266H92.2422ZM92.2422 72.6211V75.7031H88.8555V72.6211H92.2422ZM106.188 78.5977C107.219 79.6992 107.734 81.3164 107.734 83.4492C107.734 85.6992 107.227 87.4141 106.211 88.5938C105.203 89.7734 103.902 90.3633 102.309 90.3633C101.293 90.3633 100.449 90.1094 99.7773 89.6016C99.4102 89.3203 99.0508 88.9102 98.6992 88.3711V95.0273H95.3945V77.2266H98.5938V79.1133C98.9531 78.5586 99.3359 78.1211 99.7422 77.8008C100.484 77.2305 101.367 76.9453 102.391 76.9453C103.883 76.9453 105.148 77.4961 106.188 78.5977ZM104.289 83.6133C104.289 82.6289 104.062 81.7578 103.609 81C103.164 80.2422 102.438 79.8633 101.43 79.8633C100.219 79.8633 99.3867 80.4375 98.9336 81.5859C98.6992 82.1953 98.582 82.9688 98.582 83.9062C98.582 85.3906 98.9766 86.4336 99.7656 87.0352C100.234 87.3867 100.789 87.5625 101.43 87.5625C102.359 87.5625 103.066 87.2031 103.551 86.4844C104.043 85.7656 104.289 84.8086 104.289 83.6133ZM121.094 86.25C121.008 87.0078 120.613 87.7773 119.91 88.5586C118.816 89.8008 117.285 90.4219 115.316 90.4219C113.691 90.4219 112.258 89.8984 111.016 88.8516C109.773 87.8047 109.152 86.1016 109.152 83.7422C109.152 81.5312 109.711 79.8359 110.828 78.6562C111.953 77.4766 113.41 76.8867 115.199 76.8867C116.262 76.8867 117.219 77.0859 118.07 77.4844C118.922 77.8828 119.625 78.5117 120.18 79.3711C120.68 80.1289 121.004 81.0078 121.152 82.0078C121.238 82.5938 121.273 83.4375 121.258 84.5391H112.516C112.562 85.8203 112.965 86.7188 113.723 87.2344C114.184 87.5547 114.738 87.7148 115.387 87.7148C116.074 87.7148 116.633 87.5195 117.062 87.1289C117.297 86.918 117.504 86.625 117.684 86.25H121.094ZM117.789 82.3359C117.734 81.4531 117.465 80.7852 116.98 80.332C116.504 79.8711 115.91 79.6406 115.199 79.6406C114.426 79.6406 113.824 79.8828 113.395 80.3672C112.973 80.8516 112.707 81.5078 112.598 82.3359H117.789ZM126.953 77.2266V90H123.566V77.2266H126.953ZM126.953 72.6211V75.7031H123.566V72.6211H126.953ZM149.699 72.7266V75.7852H144.531V90H140.898V75.7852H135.707V72.7266H149.699ZM160.422 78.8438C161.5 80.1953 162.039 81.793 162.039 83.6367C162.039 85.5117 161.5 87.1172 160.422 88.4531C159.344 89.7812 157.707 90.4453 155.512 90.4453C153.316 90.4453 151.68 89.7812 150.602 88.4531C149.523 87.1172 148.984 85.5117 148.984 83.6367C148.984 81.793 149.523 80.1953 150.602 78.8438C151.68 77.4922 153.316 76.8164 155.512 76.8164C157.707 76.8164 159.344 77.4922 160.422 78.8438ZM155.5 79.6406C154.523 79.6406 153.77 79.9883 153.238 80.6836C152.715 81.3711 152.453 82.3555 152.453 83.6367C152.453 84.918 152.715 85.9062 153.238 86.6016C153.77 87.2969 154.523 87.6445 155.5 87.6445C156.477 87.6445 157.227 87.2969 157.75 86.6016C158.273 85.9062 158.535 84.918 158.535 83.6367C158.535 82.3555 158.273 81.3711 157.75 80.6836C157.227 79.9883 156.477 79.6406 155.5 79.6406ZM172.633 88.1953C172.602 88.2344 172.523 88.3516 172.398 88.5469C172.273 88.7422 172.125 88.9141 171.953 89.0625C171.43 89.5312 170.922 89.8516 170.43 90.0234C169.945 90.1953 169.375 90.2812 168.719 90.2812C166.828 90.2812 165.555 89.6016 164.898 88.2422C164.531 87.4922 164.348 86.3867 164.348 84.9258V77.2266H167.77V84.9258C167.77 85.6523 167.855 86.1992 168.027 86.5664C168.332 87.2148 168.93 87.5391 169.82 87.5391C170.961 87.5391 171.742 87.0781 172.164 86.1562C172.383 85.6562 172.492 84.9961 172.492 84.1758V77.2266H175.879V90H172.633V88.1953ZM185.535 80.3086C184.191 80.3086 183.289 80.7461 182.828 81.6211C182.57 82.1133 182.441 82.8711 182.441 83.8945V90H179.078V77.2266H182.266V79.4531C182.781 78.6016 183.23 78.0195 183.613 77.707C184.238 77.1836 185.051 76.9219 186.051 76.9219C186.113 76.9219 186.164 76.9258 186.203 76.9336C186.25 76.9336 186.348 76.9375 186.496 76.9453V80.3672C186.285 80.3438 186.098 80.3281 185.934 80.3203C185.77 80.3125 185.637 80.3086 185.535 80.3086Z" fill="#111111"/>
</g>
<rect x="61" y="59" width="126" height="8" fill="#6B61C4"/>
<defs>
<clipPath id="clip0_197_9936">
<rect width="248" height="59" fill="white"/>
</clipPath>
<clipPath id="clip1_197_9936">
<rect width="126" height="26" fill="white" transform="translate(61 67)"/>
</clipPath>
</defs>
</svg>
