<svg width="216" height="178" viewBox="0 0 216 178" fill="none" xmlns="http://www.w3.org/2000/svg">
<g clip-path="url(#clip0_214_3393)">
<rect width="160" height="144" transform="translate(28)" fill="#FF7E00"/>
<path d="M29.64 6.12V10.56H43.72V6.12H29.64ZM30 17.56V21.96H43.28V17.56H30ZM28.68 31.44L29.88 36C34.04 34.76 39.48 33.2 44.52 31.68L43.88 27.48C38.36 29 32.56 30.56 28.68 31.44ZM49.72 15.56H60.24V18.04H49.72V15.56ZM49.72 21.72H60.24V24.16H49.72V21.72ZM49.72 9.48H60.24V11.92H49.72V9.48ZM45.28 5.56V28.12H64.92V5.56H45.28ZM55.36 26.36V36C55.36 40.04 56.16 41.4 59.88 41.4C60.56 41.4 62.2 41.4 62.92 41.4C65.84 41.4 66.96 39.88 67.36 34.4C66.16 34.12 64.24 33.36 63.32 32.64C63.24 36.64 63.08 37.28 62.4 37.28C62.04 37.28 61 37.28 60.72 37.28C60.08 37.28 59.96 37.16 59.96 35.96V26.36H55.36ZM48.28 27.52C47.76 32.6 46.72 36 39.12 37.92C40.08 38.84 41.28 40.68 41.76 41.88C50.64 39.2 52.36 34.36 52.96 27.52H48.28ZM34.48 7.88V32.08L39.12 31.4V7.88H34.48ZM81.48 20.16V24.2H106.8V20.16H81.48ZM85.84 26.12V29.88H102.28V26.12H85.84ZM87.36 21.64C85.72 25.52 82.52 28.84 78.84 30.92C79.76 31.56 81.36 33 82.04 33.8C85.84 31.32 89.44 27.32 91.48 22.68L87.36 21.64ZM101.52 26.12V26.76C101.08 33.88 100.48 36.64 99.84 37.36C99.52 37.76 99.2 37.84 98.64 37.84C98.12 37.84 97.04 37.8 95.8 37.68C96.4 38.68 96.8 40.32 96.84 41.48C98.48 41.52 100 41.48 100.92 41.36C101.96 41.24 102.84 40.92 103.6 40.04C104.68 38.84 105.32 35.6 105.88 27.76C105.96 27.2 106 26.12 106 26.12H101.52ZM89.24 13.4H99.6V15.32H89.24V13.4ZM89.24 8.36H99.6V10.28H89.24V8.36ZM85 5.04V18.64H104.04V5.04H85ZM69.76 12.44V17H82V12.44H69.76ZM73.8 4.52V29.4H78.28V4.52H73.8ZM68.88 30.24L70.64 35.08C74.16 33.4 78.48 31.24 82.48 29.16L81.48 25.04C76.84 27.04 71.96 29.08 68.88 30.24ZM96.96 26.88C95.48 31.52 92.2 36.68 88.32 39.08C89.52 39.76 90.92 40.84 91.76 41.76C95.32 39 98.68 33.44 100.2 28.64L96.96 26.88ZM90.88 26.92C88.96 30.84 84.84 35.16 80.88 37.16C82 37.84 83.28 39 84.04 40C87.84 37.56 92.04 32.92 94.04 28.8L90.88 26.92ZM131.92 18V22.6H143.04V18H131.92ZM129.6 18V34.72C129.6 39.68 131 41.08 135.44 41.08C136.36 41.08 140.08 41.08 141.04 41.08C145.24 41.08 146.48 39.04 147 32.24C145.72 31.92 143.68 31.08 142.64 30.28C142.44 35.64 142.16 36.6 140.64 36.6C139.8 36.6 136.84 36.6 136.16 36.6C134.6 36.6 134.36 36.36 134.36 34.68V18H129.6ZM129.44 5.88V10.48H140.8V25.08H145.44V5.88H129.44ZM110.4 12.96V41.36H114.08V16.92H123.4V40.8H127.2V12.96H110.4ZM112.4 29.04V32.36H125.2V29.04H112.4ZM112.4 35.12V38.84H125.2V35.12H112.4ZM109.68 5.48V9.72H128V5.48H109.68ZM115.04 6.44V16.08H118.2V6.44H115.04ZM119.8 6.44V16.08H123V6.44H119.8ZM115.84 16.04V20.04C115.84 21.92 115.64 24.12 114 25.88C114.52 26.16 115.4 26.96 115.76 27.4C117.64 25.32 118.04 22.36 118.04 20.08V16.04H115.84ZM119.4 16.04V23.44C119.4 25.8 119.92 26.32 121.68 26.32C122 26.32 122.72 26.32 123.04 26.32C124.28 26.32 124.96 25.88 125.24 24.76C124.56 24.56 123.64 24.24 123.2 23.84C123.12 23.96 123.04 24 122.64 24C122.52 24 122.08 24 121.96 24C121.68 24 121.64 23.92 121.64 23.4V16.04H119.4ZM174.52 8.76H179.2V11.08H174.52V8.76ZM165.6 8.76H170.16V11.08H165.6V8.76ZM156.8 8.76H161.24V11.08H156.8V8.76ZM152.2 5.6V14.32H184.04V5.6H152.2ZM150.4 15.88V19.4H185.56V15.88H150.4ZM154.44 36.56V40.24H186.4V36.56H154.44ZM152.48 21.52V41.64H157.36V21.52H152.48ZM164.48 27.28H178.04V28.68H164.48V27.28ZM164.48 31.08H178.04V32.52H164.48V31.08ZM164.48 23.52H178.04V24.88H164.48V23.52ZM160.04 20.96V35.04H182.68V20.96H160.04ZM165.96 13.52C165.72 16.44 165.28 20.04 164.84 22.4H169.48C169.92 20.16 170.44 16.72 170.76 13.84L165.96 13.52ZM105.012 86.7031C102.095 86.7031 99.8164 85.8438 98.1758 84.125C96.5352 82.4062 95.7148 80.4987 95.7148 78.4023C95.7148 76.6706 96.1445 75.1862 97.0039 73.9492C97.8633 72.7122 99.2695 71.4883 101.223 70.2773L101.828 69.9062C100.995 68.9688 100.35 68.0117 99.8945 67.0352C99.4388 66.0586 99.2109 65.043 99.2109 63.9883C99.2109 61.8919 99.9141 60.2578 101.32 59.0859C102.727 57.901 104.549 57.3086 106.789 57.3086C108.833 57.3086 110.52 57.9141 111.848 59.125C113.189 60.3229 113.859 61.8594 113.859 63.7344C113.859 65.4271 113.456 66.8008 112.648 67.8555C111.854 68.9102 110.682 69.8867 109.133 70.7852L113.215 75.8242C113.684 75.1471 114.042 74.4115 114.289 73.6172C114.549 72.8229 114.686 71.9831 114.699 71.0977H119.641C119.562 72.8424 119.146 74.6068 118.391 76.3906C117.974 77.3932 117.297 78.5 116.359 79.7109L121.594 86H114.836L112.844 83.5586C111.88 84.457 110.982 85.1211 110.148 85.5508C108.664 86.319 106.952 86.7031 105.012 86.7031ZM104.699 73.4609C103.306 74.3854 102.382 75.1992 101.926 75.9023C101.483 76.6055 101.262 77.3802 101.262 78.2266C101.262 79.1771 101.646 80.0495 102.414 80.8438C103.195 81.638 104.191 82.0352 105.402 82.0352C106.314 82.0352 107.173 81.8268 107.98 81.4102C108.801 80.9805 109.465 80.5052 109.973 79.9844L104.699 73.4609ZM104.328 63.793C104.328 64.3138 104.51 64.8607 104.875 65.4336C105.109 65.8112 105.617 66.4818 106.398 67.4453C107.18 66.8984 107.74 66.4362 108.078 66.0586C108.729 65.3555 109.055 64.5938 109.055 63.7734C109.055 63.1745 108.859 62.6406 108.469 62.1719C108.078 61.7031 107.486 61.4688 106.691 61.4688C106.197 61.4688 105.734 61.6055 105.305 61.8789C104.654 62.2826 104.328 62.9206 104.328 63.793ZM52.72 116.56C49.2 126 40.96 130.92 29.2 133.16C30.16 134.28 31.68 136.52 32.24 137.72C44.36 134.72 53.24 129 57.88 118L52.72 116.56ZM39.84 109.64C37.52 112.76 33.44 115.84 29.64 117.72C30.84 118.6 32.76 120.44 33.68 121.48C37.44 119.12 41.92 115.28 44.8 111.56L39.84 109.64ZM43.4 116.76L38.8 118.12C43.32 128.84 50.72 135.16 63.72 137.64C64.4 136.28 65.8 134.12 66.88 133.04C54.6 131.12 46.96 125.6 43.4 116.76ZM30.24 104.64V109.36H65.72V104.64H30.24ZM45.44 99.96V107.72H50.36V99.96H45.44ZM51.8 112.16C55.4 114.72 60 118.52 62.04 121.08L66.32 117.76C64 115.16 59.28 111.6 55.76 109.24L51.8 112.16ZM78.96 115.64H69.28V120.08H74.4V130.36H78.96V115.64ZM78.96 128.48H74.8C72.88 129.96 70.64 131.4 68.76 132.48L70.96 137.24C73.24 135.56 75.12 134 76.96 132.44C79.36 135.52 82.56 136.68 87.36 136.88C92.28 137.12 100.8 137.04 105.76 136.8C106 135.4 106.72 133.2 107.24 132.12C101.72 132.56 92.2 132.68 87.44 132.44C83.32 132.28 80.56 131.16 78.96 128.48ZM69.84 103.96C72.32 105.8 75.32 108.6 76.6 110.52L80.2 107.08C78.76 105.16 75.64 102.56 73.16 100.88L69.84 103.96ZM86.04 107.8C89.72 109.24 94.68 111.52 97.12 113.04L100.4 110.2C97.68 108.64 92.64 106.48 89.08 105.24L86.04 107.8ZM82.4 110.08V130.8H86.92V113.56H102.76V110.08H82.4ZM100.52 110.08V126.6C100.52 127.04 100.4 127.2 99.92 127.2C99.52 127.2 98.12 127.2 96.84 127.16C97.36 128.2 97.88 129.76 98.04 130.92C100.44 130.92 102.2 130.92 103.44 130.24C104.76 129.6 105.08 128.6 105.08 126.64V110.08H100.52ZM82.76 101.36V105H101.84V101.36H82.76ZM84.92 115.72V119.04H102.08V115.72H84.92ZM84.92 121.32V124.8H102.08V121.32H84.92ZM91.52 111.72V130.64H95.8V111.72H91.52ZM100.12 101.36V102.2C98.6 104.04 95.12 106.56 92.12 108C92.8 108.64 93.96 109.88 94.52 110.68C98.2 108.92 102.16 106.08 105 103.44L102.16 101.12L101.2 101.36H100.12ZM111.16 103.88C113.92 104.72 117.72 106.16 119.56 107.16L121.72 103.52C119.72 102.56 115.92 101.28 113.24 100.64L111.16 103.88ZM109.4 110.68L111.2 114.84C114.2 114 117.88 112.92 121.36 111.88L120.92 108.12C116.68 109.08 112.36 110.12 109.4 110.68ZM127.12 102.72L124.44 106.08H142.48V102.72H127.12ZM141.36 102.72V103.24C140.68 104.96 139.48 107.04 138.4 108.32L142.12 109.44C143.44 107.96 144.88 105.56 145.92 103.36L142.76 102.56L142.04 102.72H141.36ZM131.2 104.12C130.6 108.16 129.04 110.48 121.32 111.68C122.12 112.52 123.12 114.12 123.52 115.08C132.48 113.28 134.72 109.84 135.52 104.12H131.2ZM135.24 105.16L131.4 105.52C132.44 109.76 134.4 114.12 144.4 115.72C144.84 114.52 145.88 112.72 146.76 111.76C137.68 110.72 135.92 108.12 135.24 105.16ZM127 100.04C125.92 102.36 123.96 105.04 121.04 107.04C122.16 107.48 123.8 108.48 124.64 109.32C127.68 106.84 129.64 103.92 131.2 100.72L127 100.04ZM119.48 121.8H136.88V123.52H119.48V121.8ZM119.48 126.24H136.88V128H119.48V126.24ZM119.48 117.4H136.88V119.08H119.48V117.4ZM114.84 114.52V130.84H141.72V114.52H114.84ZM130.24 132.92C134.28 134.44 138.4 136.36 140.64 137.72L146.24 135.56C143.4 134.16 138.44 132.16 134.24 130.64L130.24 132.92ZM121.36 130.52C118.64 132.04 113.88 133.44 109.64 134.24C110.72 135.04 112.36 136.8 113.2 137.76C117.28 136.6 122.48 134.6 125.76 132.48L121.36 130.52ZM164.8 101.6V106.16H180.32V101.6H164.8ZM164.36 115.04V119.52H177.04V115.04H164.36ZM168.72 104.64V114.72C168.72 121.12 168.12 128.6 162.4 134.24C163.52 134.96 165.16 136.6 165.92 137.64C172.56 131.16 173.28 122.36 173.28 114.76V104.64H168.72ZM177.84 101.6C177.88 118.6 177.56 135.48 182.36 137.28C184.92 138.4 187.04 137.04 187.68 130.76C187 130.04 185.8 128.12 185.04 126.88C184.96 129.64 184.68 132.44 184.44 132.36C182.52 131.8 182.36 115.24 182.76 101.6H177.84ZM151.08 112.32V115.92H163.16V112.32H151.08ZM151.2 101.28V104.92H163.04V101.28H151.2ZM151.08 117.76V121.4H163.16V117.76H151.08ZM149.16 106.68V110.48H164.48V106.68H149.16ZM153.16 123.32V127.12H159.12V131.68H153.16V135.48H163.2V123.32H153.16ZM151 123.32V137.08H155.04V123.32H151Z" fill="#111111"/>
</g>
<g clip-path="url(#clip1_214_3393)">
<rect width="216" height="26" transform="translate(0 152)" fill="#FF50C8"/>
<path d="M1.82812 157.727H5.4375V171.895H13.9922V175H1.82812V157.727ZM16.7109 163.609C17.5938 162.484 19.1094 161.922 21.2578 161.922C22.6562 161.922 23.8984 162.199 24.9844 162.754C26.0703 163.309 26.6133 164.355 26.6133 165.895V171.754C26.6133 172.16 26.6211 172.652 26.6367 173.23C26.6602 173.668 26.7266 173.965 26.8359 174.121C26.9453 174.277 27.1094 174.406 27.3281 174.508V175H23.6953C23.5938 174.742 23.5234 174.5 23.4844 174.273C23.4453 174.047 23.4141 173.789 23.3906 173.5C22.9297 174 22.3984 174.426 21.7969 174.777C21.0781 175.191 20.2656 175.398 19.3594 175.398C18.2031 175.398 17.2461 175.07 16.4883 174.414C15.7383 173.75 15.3633 172.812 15.3633 171.602C15.3633 170.031 15.9688 168.895 17.1797 168.191C17.8438 167.809 18.8203 167.535 20.1094 167.371L21.2461 167.23C21.8633 167.152 22.3047 167.055 22.5703 166.938C23.0469 166.734 23.2852 166.418 23.2852 165.988C23.2852 165.465 23.1016 165.105 22.7344 164.91C22.375 164.707 21.8438 164.605 21.1406 164.605C20.3516 164.605 19.793 164.801 19.4648 165.191C19.2305 165.48 19.0742 165.871 18.9961 166.363H15.7734C15.8438 165.246 16.1562 164.328 16.7109 163.609ZM19.1953 172.586C19.5078 172.844 19.8906 172.973 20.3438 172.973C21.0625 172.973 21.7227 172.762 22.3242 172.34C22.9336 171.918 23.25 171.148 23.2734 170.031V168.789C23.0625 168.922 22.8477 169.031 22.6289 169.117C22.418 169.195 22.125 169.27 21.75 169.34L21 169.48C20.2969 169.605 19.793 169.758 19.4883 169.938C18.9727 170.242 18.7148 170.715 18.7148 171.355C18.7148 171.926 18.875 172.336 19.1953 172.586ZM34.7812 171.648L37.418 162.227H40.9688L36.5859 174.789C35.7422 177.211 35.0742 178.711 34.582 179.289C34.0898 179.875 33.1055 180.168 31.6289 180.168C31.332 180.168 31.0938 180.164 30.9141 180.156C30.7344 180.156 30.4648 180.145 30.1055 180.121V177.449L30.5273 177.473C30.8555 177.488 31.168 177.477 31.4648 177.438C31.7617 177.398 32.0117 177.309 32.2148 177.168C32.4102 177.035 32.5898 176.758 32.7539 176.336C32.9258 175.914 32.9961 175.656 32.9648 175.562L28.2773 162.227H31.9922L34.7812 171.648ZM53.6016 163.844C54.6797 165.195 55.2188 166.793 55.2188 168.637C55.2188 170.512 54.6797 172.117 53.6016 173.453C52.5234 174.781 50.8867 175.445 48.6914 175.445C46.4961 175.445 44.8594 174.781 43.7812 173.453C42.7031 172.117 42.1641 170.512 42.1641 168.637C42.1641 166.793 42.7031 165.195 43.7812 163.844C44.8594 162.492 46.4961 161.816 48.6914 161.816C50.8867 161.816 52.5234 162.492 53.6016 163.844ZM48.6797 164.641C47.7031 164.641 46.9492 164.988 46.418 165.684C45.8945 166.371 45.6328 167.355 45.6328 168.637C45.6328 169.918 45.8945 170.906 46.418 171.602C46.9492 172.297 47.7031 172.645 48.6797 172.645C49.6562 172.645 50.4062 172.297 50.9297 171.602C51.4531 170.906 51.7148 169.918 51.7148 168.637C51.7148 167.355 51.4531 166.371 50.9297 165.684C50.4062 164.988 49.6562 164.641 48.6797 164.641ZM65.8125 173.195C65.7812 173.234 65.7031 173.352 65.5781 173.547C65.4531 173.742 65.3047 173.914 65.1328 174.062C64.6094 174.531 64.1016 174.852 63.6094 175.023C63.125 175.195 62.5547 175.281 61.8984 175.281C60.0078 175.281 58.7344 174.602 58.0781 173.242C57.7109 172.492 57.5273 171.387 57.5273 169.926V162.227H60.9492V169.926C60.9492 170.652 61.0352 171.199 61.207 171.566C61.5117 172.215 62.1094 172.539 63 172.539C64.1406 172.539 64.9219 172.078 65.3438 171.156C65.5625 170.656 65.6719 169.996 65.6719 169.176V162.227H69.0586V175H65.8125V173.195ZM78.1406 172.621V175.117L76.5586 175.176C74.9805 175.23 73.9023 174.957 73.3242 174.355C72.9492 173.973 72.7617 173.383 72.7617 172.586V164.723H70.9805V162.344H72.7617V158.781H76.0664V162.344H78.1406V164.723H76.0664V171.473C76.0664 171.996 76.1328 172.324 76.2656 172.457C76.3984 172.582 76.8047 172.645 77.4844 172.645C77.5859 172.645 77.6914 172.645 77.8008 172.645C77.918 172.637 78.0312 172.629 78.1406 172.621ZM85.6055 175.422C83.8555 175.422 82.4883 174.906 81.5039 173.875C80.5195 172.844 80.0273 171.699 80.0273 170.441C80.0273 169.402 80.2852 168.512 80.8008 167.77C81.3164 167.027 82.1602 166.293 83.332 165.566L83.6953 165.344C83.1953 164.781 82.8086 164.207 82.5352 163.621C82.2617 163.035 82.125 162.426 82.125 161.793C82.125 160.535 82.5469 159.555 83.3906 158.852C84.2344 158.141 85.3281 157.785 86.6719 157.785C87.8984 157.785 88.9102 158.148 89.707 158.875C90.5117 159.594 90.9141 160.516 90.9141 161.641C90.9141 162.656 90.6719 163.48 90.1875 164.113C89.7109 164.746 89.0078 165.332 88.0781 165.871L90.5273 168.895C90.8086 168.488 91.0234 168.047 91.1719 167.57C91.3281 167.094 91.4102 166.59 91.418 166.059H94.3828C94.3359 167.105 94.0859 168.164 93.6328 169.234C93.3828 169.836 92.9766 170.5 92.4141 171.227L95.5547 175H91.5L90.3047 173.535C89.7266 174.074 89.1875 174.473 88.6875 174.73C87.7969 175.191 86.7695 175.422 85.6055 175.422ZM85.418 167.477C84.582 168.031 84.0273 168.52 83.7539 168.941C83.4883 169.363 83.3555 169.828 83.3555 170.336C83.3555 170.906 83.5859 171.43 84.0469 171.906C84.5156 172.383 85.1133 172.621 85.8398 172.621C86.3867 172.621 86.9023 172.496 87.3867 172.246C87.8789 171.988 88.2773 171.703 88.582 171.391L85.418 167.477ZM85.1953 161.676C85.1953 161.988 85.3047 162.316 85.5234 162.66C85.6641 162.887 85.9688 163.289 86.4375 163.867C86.9062 163.539 87.2422 163.262 87.4453 163.035C87.8359 162.613 88.0312 162.156 88.0312 161.664C88.0312 161.305 87.9141 160.984 87.6797 160.703C87.4453 160.422 87.0898 160.281 86.6133 160.281C86.3164 160.281 86.0391 160.363 85.7812 160.527C85.3906 160.77 85.1953 161.152 85.1953 161.676ZM110.449 157.727V160.785H105.281V175H101.648V160.785H96.457V157.727H110.449ZM117.41 165.309C116.066 165.309 115.164 165.746 114.703 166.621C114.445 167.113 114.316 167.871 114.316 168.895V175H110.953V162.227H114.141V164.453C114.656 163.602 115.105 163.02 115.488 162.707C116.113 162.184 116.926 161.922 117.926 161.922C117.988 161.922 118.039 161.926 118.078 161.934C118.125 161.934 118.223 161.938 118.371 161.945V165.367C118.16 165.344 117.973 165.328 117.809 165.32C117.645 165.312 117.512 165.309 117.41 165.309ZM120.82 163.609C121.703 162.484 123.219 161.922 125.367 161.922C126.766 161.922 128.008 162.199 129.094 162.754C130.18 163.309 130.723 164.355 130.723 165.895V171.754C130.723 172.16 130.73 172.652 130.746 173.23C130.77 173.668 130.836 173.965 130.945 174.121C131.055 174.277 131.219 174.406 131.438 174.508V175H127.805C127.703 174.742 127.633 174.5 127.594 174.273C127.555 174.047 127.523 173.789 127.5 173.5C127.039 174 126.508 174.426 125.906 174.777C125.188 175.191 124.375 175.398 123.469 175.398C122.312 175.398 121.355 175.07 120.598 174.414C119.848 173.75 119.473 172.812 119.473 171.602C119.473 170.031 120.078 168.895 121.289 168.191C121.953 167.809 122.93 167.535 124.219 167.371L125.355 167.23C125.973 167.152 126.414 167.055 126.68 166.938C127.156 166.734 127.395 166.418 127.395 165.988C127.395 165.465 127.211 165.105 126.844 164.91C126.484 164.707 125.953 164.605 125.25 164.605C124.461 164.605 123.902 164.801 123.574 165.191C123.34 165.48 123.184 165.871 123.105 166.363H119.883C119.953 165.246 120.266 164.328 120.82 163.609ZM123.305 172.586C123.617 172.844 124 172.973 124.453 172.973C125.172 172.973 125.832 172.762 126.434 172.34C127.043 171.918 127.359 171.148 127.383 170.031V168.789C127.172 168.922 126.957 169.031 126.738 169.117C126.527 169.195 126.234 169.27 125.859 169.34L125.109 169.48C124.406 169.605 123.902 169.758 123.598 169.938C123.082 170.242 122.824 170.715 122.824 171.355C122.824 171.926 122.984 172.336 123.305 172.586ZM132.445 162.227H136.195L138.855 171.648L141.574 162.227H145.16L140.555 175H137.027L132.445 162.227ZM157.992 171.25C157.906 172.008 157.512 172.777 156.809 173.559C155.715 174.801 154.184 175.422 152.215 175.422C150.59 175.422 149.156 174.898 147.914 173.852C146.672 172.805 146.051 171.102 146.051 168.742C146.051 166.531 146.609 164.836 147.727 163.656C148.852 162.477 150.309 161.887 152.098 161.887C153.16 161.887 154.117 162.086 154.969 162.484C155.82 162.883 156.523 163.512 157.078 164.371C157.578 165.129 157.902 166.008 158.051 167.008C158.137 167.594 158.172 168.438 158.156 169.539H149.414C149.461 170.82 149.863 171.719 150.621 172.234C151.082 172.555 151.637 172.715 152.285 172.715C152.973 172.715 153.531 172.52 153.961 172.129C154.195 171.918 154.402 171.625 154.582 171.25H157.992ZM154.688 167.336C154.633 166.453 154.363 165.785 153.879 165.332C153.402 164.871 152.809 164.641 152.098 164.641C151.324 164.641 150.723 164.883 150.293 165.367C149.871 165.852 149.605 166.508 149.496 167.336H154.688ZM160.488 157.727H163.828V175H160.488V157.727ZM173.766 157.727H177.352V175H173.766V157.727ZM186.469 164.699C185.336 164.699 184.559 165.18 184.137 166.141C183.918 166.648 183.809 167.297 183.809 168.086V175H180.48V162.25H183.703V164.113C184.133 163.457 184.539 162.984 184.922 162.695C185.609 162.18 186.48 161.922 187.535 161.922C188.855 161.922 189.934 162.27 190.77 162.965C191.613 163.652 192.035 164.797 192.035 166.398V175H188.613V167.23C188.613 166.559 188.523 166.043 188.344 165.684C188.016 165.027 187.391 164.699 186.469 164.699ZM201.117 157.621V160.34C200.93 160.316 200.613 160.301 200.168 160.293C199.73 160.277 199.426 160.375 199.254 160.586C199.09 160.789 199.008 161.016 199.008 161.266V162.344H201.199V164.699H199.008V175H195.68V164.699H193.816V162.344H195.645V161.523C195.645 160.156 195.875 159.215 196.336 158.699C196.82 157.934 197.988 157.551 199.84 157.551C200.051 157.551 200.242 157.559 200.414 157.574C200.586 157.582 200.82 157.598 201.117 157.621ZM213.773 163.844C214.852 165.195 215.391 166.793 215.391 168.637C215.391 170.512 214.852 172.117 213.773 173.453C212.695 174.781 211.059 175.445 208.863 175.445C206.668 175.445 205.031 174.781 203.953 173.453C202.875 172.117 202.336 170.512 202.336 168.637C202.336 166.793 202.875 165.195 203.953 163.844C205.031 162.492 206.668 161.816 208.863 161.816C211.059 161.816 212.695 162.492 213.773 163.844ZM208.852 164.641C207.875 164.641 207.121 164.988 206.59 165.684C206.066 166.371 205.805 167.355 205.805 168.637C205.805 169.918 206.066 170.906 206.59 171.602C207.121 172.297 207.875 172.645 208.852 172.645C209.828 172.645 210.578 172.297 211.102 171.602C211.625 170.906 211.887 169.918 211.887 168.637C211.887 167.355 211.625 166.371 211.102 165.684C210.578 164.988 209.828 164.641 208.852 164.641Z" fill="#111111"/>
</g>
<rect y="144" width="216" height="8" fill="#6B61C4"/>
<defs>
<clipPath id="clip0_214_3393">
<rect width="160" height="144" fill="white" transform="translate(28)"/>
</clipPath>
<clipPath id="clip1_214_3393">
<rect width="216" height="26" fill="white" transform="translate(0 152)"/>
</clipPath>
</defs>
</svg>
