<svg width="556" height="93" viewBox="0 0 556 93" fill="none" xmlns="http://www.w3.org/2000/svg">
<g clip-path="url(#clip0_204_2474)">
<rect width="556" height="59" fill="#FF7E00"/>
<path d="M-0.376 1.992V9.096H22.152V1.992H-0.376ZM0.2 20.296V27.336H21.448V20.296H0.2ZM-1.912 42.504L0.00800014 49.8C6.664 47.816 15.368 45.32 23.432 42.888L22.408 36.168C13.576 38.6 4.296 41.096 -1.912 42.504ZM31.752 17.096H48.584V21.064H31.752V17.096ZM31.752 26.952H48.584V30.856H31.752V26.952ZM31.752 7.368H48.584V11.272H31.752V7.368ZM24.648 1.096V37.192H56.072V1.096H24.648ZM40.776 34.376V49.8C40.776 56.264 42.056 58.44 48.008 58.44C49.096 58.44 51.72 58.44 52.872 58.44C57.544 58.44 59.336 56.008 59.976 47.24C58.056 46.792 54.984 45.576 53.512 44.424C53.384 50.824 53.128 51.848 52.04 51.848C51.464 51.848 49.8 51.848 49.352 51.848C48.328 51.848 48.136 51.656 48.136 49.736V34.376H40.776ZM29.448 36.232C28.616 44.36 26.952 49.8 14.792 52.872C16.328 54.344 18.248 57.288 19.016 59.208C33.224 54.92 35.976 47.176 36.936 36.232H29.448ZM7.368 4.808V43.528L14.792 42.44V4.808H7.368ZM82.568 24.456V30.92H123.08V24.456H82.568ZM89.544 33.992V40.008H115.848V33.992H89.544ZM91.976 26.824C89.352 33.032 84.232 38.344 78.344 41.672C79.816 42.696 82.376 45 83.464 46.28C89.544 42.312 95.304 35.912 98.568 28.488L91.976 26.824ZM114.632 33.992V35.016C113.928 46.408 112.968 50.824 111.944 51.976C111.432 52.616 110.92 52.744 110.024 52.744C109.192 52.744 107.464 52.68 105.48 52.488C106.44 54.088 107.08 56.712 107.144 58.568C109.768 58.632 112.2 58.568 113.672 58.376C115.336 58.184 116.744 57.672 117.96 56.264C119.688 54.344 120.712 49.16 121.608 36.616C121.736 35.72 121.8 33.992 121.8 33.992H114.632ZM94.984 13.64H111.56V16.712H94.984V13.64ZM94.984 5.576H111.56V8.648H94.984V5.576ZM88.2 0.263996V22.024H118.664V0.263996H88.2ZM63.816 12.104V19.4H83.4V12.104H63.816ZM70.28 -0.568001V39.24H77.448V-0.568001H70.28ZM62.408 40.584L65.224 48.328C70.856 45.64 77.768 42.184 84.168 38.856L82.568 32.264C75.144 35.464 67.336 38.728 62.408 40.584ZM107.336 35.208C104.968 42.632 99.72 50.888 93.512 54.728C95.432 55.816 97.672 57.544 99.016 59.016C104.712 54.6 110.088 45.704 112.52 38.024L107.336 35.208ZM97.608 35.272C94.536 41.544 87.944 48.456 81.608 51.656C83.4 52.744 85.448 54.6 86.664 56.2C92.744 52.296 99.464 44.872 102.664 38.28L97.608 35.272ZM163.272 21V28.36H181.064V21H163.272ZM159.56 21V47.752C159.56 55.688 161.8 57.928 168.904 57.928C170.376 57.928 176.328 57.928 177.864 57.928C184.584 57.928 186.568 54.664 187.4 43.784C185.352 43.272 182.088 41.928 180.424 40.648C180.104 49.224 179.656 50.76 177.224 50.76C175.88 50.76 171.144 50.76 170.056 50.76C167.56 50.76 167.176 50.376 167.176 47.688V21H159.56ZM159.304 1.608V8.968H177.48V32.328H184.904V1.608H159.304ZM128.84 12.936V58.376H134.728V19.272H149.64V57.48H155.72V12.936H128.84ZM132.04 38.664V43.976H152.52V38.664H132.04ZM132.04 48.392V54.344H152.52V48.392H132.04ZM127.688 0.967999V7.752H157V0.967999H127.688ZM136.264 2.504V17.928H141.32V2.504H136.264ZM143.88 2.504V17.928H149V2.504H143.88ZM137.544 17.864V24.264C137.544 27.272 137.224 30.792 134.6 33.608C135.432 34.056 136.84 35.336 137.416 36.04C140.424 32.712 141.064 27.976 141.064 24.328V17.864H137.544ZM143.24 17.864V29.704C143.24 33.48 144.072 34.312 146.888 34.312C147.4 34.312 148.552 34.312 149.064 34.312C151.048 34.312 152.136 33.608 152.584 31.816C151.496 31.496 150.024 30.984 149.32 30.344C149.192 30.536 149.064 30.6 148.424 30.6C148.232 30.6 147.528 30.6 147.336 30.6C146.888 30.6 146.824 30.472 146.824 29.64V17.864H143.24ZM231.432 6.216H238.92V9.928H231.432V6.216ZM217.16 6.216H224.456V9.928H217.16V6.216ZM203.08 6.216H210.184V9.928H203.08V6.216ZM195.72 1.16V15.112H246.664V1.16H195.72ZM192.84 17.608V23.24H249.096V17.608H192.84ZM199.304 50.696V56.584H250.44V50.696H199.304ZM196.168 26.632V58.824H203.976V26.632H196.168ZM215.368 35.848H237.064V38.088H215.368V35.848ZM215.368 41.928H237.064V44.232H215.368V41.928ZM215.368 29.832H237.064V32.008H215.368V29.832ZM208.264 25.736V48.264H244.488V25.736H208.264ZM217.736 13.832C217.352 18.504 216.648 24.264 215.944 28.04H223.368C224.072 24.456 224.904 18.952 225.416 14.344L217.736 13.832ZM271.344 54.125C266.677 54.125 263.031 52.75 260.406 50C257.781 47.25 256.469 44.1979 256.469 40.8438C256.469 38.0729 257.156 35.6979 258.531 33.7188C259.906 31.7396 262.156 29.7812 265.281 27.8438L266.25 27.25C264.917 25.75 263.885 24.2188 263.156 22.6562C262.427 21.0938 262.062 19.4688 262.062 17.7812C262.062 14.4271 263.188 11.8125 265.438 9.9375C267.688 8.04167 270.604 7.09375 274.188 7.09375C277.458 7.09375 280.156 8.0625 282.281 10C284.427 11.9167 285.5 14.375 285.5 17.375C285.5 20.0833 284.854 22.2812 283.562 23.9688C282.292 25.6562 280.417 27.2188 277.938 28.6562L284.469 36.7188C285.219 35.6354 285.792 34.4583 286.188 33.1875C286.604 31.9167 286.823 30.5729 286.844 29.1562H294.75C294.625 31.9479 293.958 34.7708 292.75 37.625C292.083 39.2292 291 41 289.5 42.9375L297.875 53H287.062L283.875 49.0938C282.333 50.5312 280.896 51.5938 279.562 52.2812C277.188 53.5104 274.448 54.125 271.344 54.125ZM270.844 32.9375C268.615 34.4167 267.135 35.7188 266.406 36.8438C265.698 37.9688 265.344 39.2083 265.344 40.5625C265.344 42.0833 265.958 43.4792 267.188 44.75C268.438 46.0208 270.031 46.6562 271.969 46.6562C273.427 46.6562 274.802 46.3229 276.094 45.6562C277.406 44.9688 278.469 44.2083 279.281 43.375L270.844 32.9375ZM270.25 17.4688C270.25 18.3021 270.542 19.1771 271.125 20.0938C271.5 20.6979 272.312 21.7708 273.562 23.3125C274.812 22.4375 275.708 21.6979 276.25 21.0938C277.292 19.9688 277.812 18.75 277.812 17.4375C277.812 16.4792 277.5 15.625 276.875 14.875C276.25 14.125 275.302 13.75 274.031 13.75C273.24 13.75 272.5 13.9688 271.812 14.4062C270.771 15.0521 270.25 16.0729 270.25 17.4688ZM338.802 25.096C333.17 40.2 319.986 48.072 301.17 51.656C302.706 53.448 305.138 57.032 306.034 58.952C325.426 54.152 339.634 45 347.058 27.4L338.802 25.096ZM318.194 14.024C314.482 19.016 307.954 23.944 301.874 26.952C303.794 28.36 306.866 31.304 308.338 32.968C314.354 29.192 321.522 23.048 326.13 17.096L318.194 14.024ZM323.89 25.416L316.53 27.592C323.762 44.744 335.602 54.856 356.402 58.824C357.49 56.648 359.73 53.192 361.458 51.464C341.81 48.392 329.586 39.56 323.89 25.416ZM302.834 6.024V13.576H359.602V6.024H302.834ZM327.154 -1.464V10.952H335.026V-1.464H327.154ZM337.33 18.056C343.09 22.152 350.45 28.232 353.714 32.328L360.562 27.016C356.85 22.856 349.298 17.16 343.666 13.384L337.33 18.056ZM380.786 23.624H365.298V30.728H373.49V47.176H380.786V23.624ZM380.786 44.168H374.13C371.058 46.536 367.474 48.84 364.466 50.568L367.986 58.184C371.634 55.496 374.642 53 377.586 50.504C381.426 55.432 386.546 57.288 394.226 57.608C402.098 57.992 415.73 57.864 423.666 57.48C424.05 55.24 425.202 51.72 426.034 49.992C417.202 50.696 401.97 50.888 394.354 50.504C387.762 50.248 383.346 48.456 380.786 44.168ZM366.194 4.936C370.162 7.88 374.962 12.36 377.01 15.432L382.77 9.928C380.466 6.856 375.474 2.696 371.506 0.00799561L366.194 4.936ZM392.114 11.08C398.002 13.384 405.938 17.032 409.842 19.464L415.09 14.92C410.738 12.424 402.674 8.968 396.978 6.984L392.114 11.08ZM386.29 14.728V47.88H393.522V20.296H418.866V14.728H386.29ZM415.282 14.728V41.16C415.282 41.864 415.09 42.12 414.322 42.12C413.682 42.12 411.442 42.12 409.394 42.056C410.226 43.72 411.058 46.216 411.314 48.072C415.154 48.072 417.97 48.072 419.954 46.984C422.066 45.96 422.578 44.36 422.578 41.224V14.728H415.282ZM386.866 0.775997V6.6H417.394V0.775997H386.866ZM390.322 23.752V29.064H417.778V23.752H390.322ZM390.322 32.712V38.28H417.778V32.712H390.322ZM400.882 17.352V47.624H407.73V17.352H400.882ZM414.642 0.775997V2.12C412.21 5.064 406.642 9.096 401.842 11.4C402.93 12.424 404.786 14.408 405.682 15.688C411.57 12.872 417.906 8.328 422.45 4.104L417.906 0.391998L416.37 0.775997H414.642ZM432.306 4.808C436.722 6.152 442.802 8.456 445.746 10.056L449.202 4.232C446.002 2.696 439.922 0.647999 435.634 -0.376003L432.306 4.808ZM429.49 15.688L432.37 22.344C437.17 21 443.058 19.272 448.626 17.608L447.922 11.592C441.138 13.128 434.226 14.792 429.49 15.688ZM457.842 2.952L453.554 8.328H482.418V2.952H457.842ZM480.626 2.952V3.784C479.538 6.536 477.618 9.864 475.89 11.912L481.842 13.704C483.954 11.336 486.258 7.496 487.922 3.976L482.866 2.696L481.714 2.952H480.626ZM464.37 5.192C463.41 11.656 460.914 15.368 448.562 17.288C449.842 18.632 451.442 21.192 452.082 22.728C466.418 19.848 470.002 14.344 471.282 5.192H464.37ZM470.834 6.856L464.69 7.432C466.354 14.216 469.49 21.192 485.49 23.752C486.194 21.832 487.858 18.952 489.266 17.416C474.738 15.752 471.922 11.592 470.834 6.856ZM457.65 -1.336C455.922 2.376 452.786 6.664 448.114 9.864C449.906 10.568 452.53 12.168 453.874 13.512C458.738 9.544 461.874 4.872 464.37 -0.248001L457.65 -1.336ZM445.618 33.48H473.458V36.232H445.618V33.48ZM445.618 40.584H473.458V43.4H445.618V40.584ZM445.618 26.44H473.458V29.128H445.618V26.44ZM438.194 21.832V47.944H481.202V21.832H438.194ZM462.834 51.272C469.298 53.704 475.89 56.776 479.474 58.952L488.434 55.496C483.89 53.256 475.954 50.056 469.234 47.624L462.834 51.272ZM448.626 47.432C444.274 49.864 436.658 52.104 429.874 53.384C431.602 54.664 434.226 57.48 435.57 59.016C442.098 57.16 450.418 53.96 455.666 50.568L448.626 47.432ZM518.13 1.16V8.456H542.962V1.16H518.13ZM517.426 22.664V29.832H537.714V22.664H517.426ZM524.402 6.024V22.152C524.402 32.392 523.442 44.36 514.29 53.384C516.082 54.536 518.706 57.16 519.922 58.824C530.546 48.456 531.698 34.376 531.698 22.216V6.024H524.402ZM538.994 1.16C539.058 28.36 538.546 55.368 546.226 58.248C550.322 60.04 553.714 57.864 554.738 47.816C553.65 46.664 551.73 43.592 550.514 41.608C550.386 46.024 549.938 50.504 549.554 50.376C546.482 49.48 546.226 22.984 546.866 1.16H538.994ZM496.178 18.312V24.072H515.506V18.312H496.178ZM496.37 0.647999V6.472H515.314V0.647999H496.37ZM496.178 27.016V32.84H515.506V27.016H496.178ZM493.106 9.288V15.368H517.618V9.288H493.106ZM499.506 35.912V41.992H509.042V49.288H499.506V55.368H515.57V35.912H499.506ZM496.05 35.912V57.928H502.514V35.912H496.05Z" fill="#111111"/>
</g>
<g clip-path="url(#clip1_204_2474)">
<rect width="216" height="26" transform="translate(170 67)" fill="#FF50C8"/>
<path d="M171.828 72.7266H175.438V86.8945H183.992V90H171.828V72.7266ZM186.711 78.6094C187.594 77.4844 189.109 76.9219 191.258 76.9219C192.656 76.9219 193.898 77.1992 194.984 77.7539C196.07 78.3086 196.613 79.3555 196.613 80.8945V86.7539C196.613 87.1602 196.621 87.6523 196.637 88.2305C196.66 88.668 196.727 88.9648 196.836 89.1211C196.945 89.2773 197.109 89.4062 197.328 89.5078V90H193.695C193.594 89.7422 193.523 89.5 193.484 89.2734C193.445 89.0469 193.414 88.7891 193.391 88.5C192.93 89 192.398 89.4258 191.797 89.7773C191.078 90.1914 190.266 90.3984 189.359 90.3984C188.203 90.3984 187.246 90.0703 186.488 89.4141C185.738 88.75 185.363 87.8125 185.363 86.6016C185.363 85.0312 185.969 83.8945 187.18 83.1914C187.844 82.8086 188.82 82.5352 190.109 82.3711L191.246 82.2305C191.863 82.1523 192.305 82.0547 192.57 81.9375C193.047 81.7344 193.285 81.418 193.285 80.9883C193.285 80.4648 193.102 80.1055 192.734 79.9102C192.375 79.707 191.844 79.6055 191.141 79.6055C190.352 79.6055 189.793 79.8008 189.465 80.1914C189.23 80.4805 189.074 80.8711 188.996 81.3633H185.773C185.844 80.2461 186.156 79.3281 186.711 78.6094ZM189.195 87.5859C189.508 87.8438 189.891 87.9727 190.344 87.9727C191.062 87.9727 191.723 87.7617 192.324 87.3398C192.934 86.918 193.25 86.1484 193.273 85.0312V83.7891C193.062 83.9219 192.848 84.0312 192.629 84.1172C192.418 84.1953 192.125 84.2695 191.75 84.3398L191 84.4805C190.297 84.6055 189.793 84.7578 189.488 84.9375C188.973 85.2422 188.715 85.7148 188.715 86.3555C188.715 86.9258 188.875 87.3359 189.195 87.5859ZM204.781 86.6484L207.418 77.2266H210.969L206.586 89.7891C205.742 92.2109 205.074 93.7109 204.582 94.2891C204.09 94.875 203.105 95.168 201.629 95.168C201.332 95.168 201.094 95.1641 200.914 95.1562C200.734 95.1562 200.465 95.1445 200.105 95.1211V92.4492L200.527 92.4727C200.855 92.4883 201.168 92.4766 201.465 92.4375C201.762 92.3984 202.012 92.3086 202.215 92.168C202.41 92.0352 202.59 91.7578 202.754 91.3359C202.926 90.9141 202.996 90.6562 202.965 90.5625L198.277 77.2266H201.992L204.781 86.6484ZM223.602 78.8438C224.68 80.1953 225.219 81.793 225.219 83.6367C225.219 85.5117 224.68 87.1172 223.602 88.4531C222.523 89.7812 220.887 90.4453 218.691 90.4453C216.496 90.4453 214.859 89.7812 213.781 88.4531C212.703 87.1172 212.164 85.5117 212.164 83.6367C212.164 81.793 212.703 80.1953 213.781 78.8438C214.859 77.4922 216.496 76.8164 218.691 76.8164C220.887 76.8164 222.523 77.4922 223.602 78.8438ZM218.68 79.6406C217.703 79.6406 216.949 79.9883 216.418 80.6836C215.895 81.3711 215.633 82.3555 215.633 83.6367C215.633 84.918 215.895 85.9062 216.418 86.6016C216.949 87.2969 217.703 87.6445 218.68 87.6445C219.656 87.6445 220.406 87.2969 220.93 86.6016C221.453 85.9062 221.715 84.918 221.715 83.6367C221.715 82.3555 221.453 81.3711 220.93 80.6836C220.406 79.9883 219.656 79.6406 218.68 79.6406ZM235.812 88.1953C235.781 88.2344 235.703 88.3516 235.578 88.5469C235.453 88.7422 235.305 88.9141 235.133 89.0625C234.609 89.5312 234.102 89.8516 233.609 90.0234C233.125 90.1953 232.555 90.2812 231.898 90.2812C230.008 90.2812 228.734 89.6016 228.078 88.2422C227.711 87.4922 227.527 86.3867 227.527 84.9258V77.2266H230.949V84.9258C230.949 85.6523 231.035 86.1992 231.207 86.5664C231.512 87.2148 232.109 87.5391 233 87.5391C234.141 87.5391 234.922 87.0781 235.344 86.1562C235.562 85.6562 235.672 84.9961 235.672 84.1758V77.2266H239.059V90H235.812V88.1953ZM248.141 87.6211V90.1172L246.559 90.1758C244.98 90.2305 243.902 89.957 243.324 89.3555C242.949 88.9727 242.762 88.3828 242.762 87.5859V79.7227H240.98V77.3438H242.762V73.7812H246.066V77.3438H248.141V79.7227H246.066V86.4727C246.066 86.9961 246.133 87.3242 246.266 87.457C246.398 87.582 246.805 87.6445 247.484 87.6445C247.586 87.6445 247.691 87.6445 247.801 87.6445C247.918 87.6367 248.031 87.6289 248.141 87.6211ZM255.605 90.4219C253.855 90.4219 252.488 89.9062 251.504 88.875C250.52 87.8438 250.027 86.6992 250.027 85.4414C250.027 84.4023 250.285 83.5117 250.801 82.7695C251.316 82.0273 252.16 81.293 253.332 80.5664L253.695 80.3438C253.195 79.7812 252.809 79.207 252.535 78.6211C252.262 78.0352 252.125 77.4258 252.125 76.793C252.125 75.5352 252.547 74.5547 253.391 73.8516C254.234 73.1406 255.328 72.7852 256.672 72.7852C257.898 72.7852 258.91 73.1484 259.707 73.875C260.512 74.5938 260.914 75.5156 260.914 76.6406C260.914 77.6562 260.672 78.4805 260.188 79.1133C259.711 79.7461 259.008 80.332 258.078 80.8711L260.527 83.8945C260.809 83.4883 261.023 83.0469 261.172 82.5703C261.328 82.0938 261.41 81.5898 261.418 81.0586H264.383C264.336 82.1055 264.086 83.1641 263.633 84.2344C263.383 84.8359 262.977 85.5 262.414 86.2266L265.555 90H261.5L260.305 88.5352C259.727 89.0742 259.188 89.4727 258.688 89.7305C257.797 90.1914 256.77 90.4219 255.605 90.4219ZM255.418 82.4766C254.582 83.0312 254.027 83.5195 253.754 83.9414C253.488 84.3633 253.355 84.8281 253.355 85.3359C253.355 85.9062 253.586 86.4297 254.047 86.9062C254.516 87.3828 255.113 87.6211 255.84 87.6211C256.387 87.6211 256.902 87.4961 257.387 87.2461C257.879 86.9883 258.277 86.7031 258.582 86.3906L255.418 82.4766ZM255.195 76.6758C255.195 76.9883 255.305 77.3164 255.523 77.6602C255.664 77.8867 255.969 78.2891 256.438 78.8672C256.906 78.5391 257.242 78.2617 257.445 78.0352C257.836 77.6133 258.031 77.1562 258.031 76.6641C258.031 76.3047 257.914 75.9844 257.68 75.7031C257.445 75.4219 257.09 75.2812 256.613 75.2812C256.316 75.2812 256.039 75.3633 255.781 75.5273C255.391 75.7695 255.195 76.1523 255.195 76.6758ZM280.449 72.7266V75.7852H275.281V90H271.648V75.7852H266.457V72.7266H280.449ZM287.41 80.3086C286.066 80.3086 285.164 80.7461 284.703 81.6211C284.445 82.1133 284.316 82.8711 284.316 83.8945V90H280.953V77.2266H284.141V79.4531C284.656 78.6016 285.105 78.0195 285.488 77.707C286.113 77.1836 286.926 76.9219 287.926 76.9219C287.988 76.9219 288.039 76.9258 288.078 76.9336C288.125 76.9336 288.223 76.9375 288.371 76.9453V80.3672C288.16 80.3438 287.973 80.3281 287.809 80.3203C287.645 80.3125 287.512 80.3086 287.41 80.3086ZM290.82 78.6094C291.703 77.4844 293.219 76.9219 295.367 76.9219C296.766 76.9219 298.008 77.1992 299.094 77.7539C300.18 78.3086 300.723 79.3555 300.723 80.8945V86.7539C300.723 87.1602 300.73 87.6523 300.746 88.2305C300.77 88.668 300.836 88.9648 300.945 89.1211C301.055 89.2773 301.219 89.4062 301.438 89.5078V90H297.805C297.703 89.7422 297.633 89.5 297.594 89.2734C297.555 89.0469 297.523 88.7891 297.5 88.5C297.039 89 296.508 89.4258 295.906 89.7773C295.188 90.1914 294.375 90.3984 293.469 90.3984C292.312 90.3984 291.355 90.0703 290.598 89.4141C289.848 88.75 289.473 87.8125 289.473 86.6016C289.473 85.0312 290.078 83.8945 291.289 83.1914C291.953 82.8086 292.93 82.5352 294.219 82.3711L295.355 82.2305C295.973 82.1523 296.414 82.0547 296.68 81.9375C297.156 81.7344 297.395 81.418 297.395 80.9883C297.395 80.4648 297.211 80.1055 296.844 79.9102C296.484 79.707 295.953 79.6055 295.25 79.6055C294.461 79.6055 293.902 79.8008 293.574 80.1914C293.34 80.4805 293.184 80.8711 293.105 81.3633H289.883C289.953 80.2461 290.266 79.3281 290.82 78.6094ZM293.305 87.5859C293.617 87.8438 294 87.9727 294.453 87.9727C295.172 87.9727 295.832 87.7617 296.434 87.3398C297.043 86.918 297.359 86.1484 297.383 85.0312V83.7891C297.172 83.9219 296.957 84.0312 296.738 84.1172C296.527 84.1953 296.234 84.2695 295.859 84.3398L295.109 84.4805C294.406 84.6055 293.902 84.7578 293.598 84.9375C293.082 85.2422 292.824 85.7148 292.824 86.3555C292.824 86.9258 292.984 87.3359 293.305 87.5859ZM302.445 77.2266H306.195L308.855 86.6484L311.574 77.2266H315.16L310.555 90H307.027L302.445 77.2266ZM327.992 86.25C327.906 87.0078 327.512 87.7773 326.809 88.5586C325.715 89.8008 324.184 90.4219 322.215 90.4219C320.59 90.4219 319.156 89.8984 317.914 88.8516C316.672 87.8047 316.051 86.1016 316.051 83.7422C316.051 81.5312 316.609 79.8359 317.727 78.6562C318.852 77.4766 320.309 76.8867 322.098 76.8867C323.16 76.8867 324.117 77.0859 324.969 77.4844C325.82 77.8828 326.523 78.5117 327.078 79.3711C327.578 80.1289 327.902 81.0078 328.051 82.0078C328.137 82.5938 328.172 83.4375 328.156 84.5391H319.414C319.461 85.8203 319.863 86.7188 320.621 87.2344C321.082 87.5547 321.637 87.7148 322.285 87.7148C322.973 87.7148 323.531 87.5195 323.961 87.1289C324.195 86.918 324.402 86.625 324.582 86.25H327.992ZM324.688 82.3359C324.633 81.4531 324.363 80.7852 323.879 80.332C323.402 79.8711 322.809 79.6406 322.098 79.6406C321.324 79.6406 320.723 79.8828 320.293 80.3672C319.871 80.8516 319.605 81.5078 319.496 82.3359H324.688ZM330.488 72.7266H333.828V90H330.488V72.7266ZM343.766 72.7266H347.352V90H343.766V72.7266ZM356.469 79.6992C355.336 79.6992 354.559 80.1797 354.137 81.1406C353.918 81.6484 353.809 82.2969 353.809 83.0859V90H350.48V77.25H353.703V79.1133C354.133 78.457 354.539 77.9844 354.922 77.6953C355.609 77.1797 356.48 76.9219 357.535 76.9219C358.855 76.9219 359.934 77.2695 360.77 77.9648C361.613 78.6523 362.035 79.7969 362.035 81.3984V90H358.613V82.2305C358.613 81.5586 358.523 81.043 358.344 80.6836C358.016 80.0273 357.391 79.6992 356.469 79.6992ZM371.117 72.6211V75.3398C370.93 75.3164 370.613 75.3008 370.168 75.293C369.73 75.2773 369.426 75.375 369.254 75.5859C369.09 75.7891 369.008 76.0156 369.008 76.2656V77.3438H371.199V79.6992H369.008V90H365.68V79.6992H363.816V77.3438H365.645V76.5234C365.645 75.1562 365.875 74.2148 366.336 73.6992C366.82 72.9336 367.988 72.5508 369.84 72.5508C370.051 72.5508 370.242 72.5586 370.414 72.5742C370.586 72.582 370.82 72.5977 371.117 72.6211ZM383.773 78.8438C384.852 80.1953 385.391 81.793 385.391 83.6367C385.391 85.5117 384.852 87.1172 383.773 88.4531C382.695 89.7812 381.059 90.4453 378.863 90.4453C376.668 90.4453 375.031 89.7812 373.953 88.4531C372.875 87.1172 372.336 85.5117 372.336 83.6367C372.336 81.793 372.875 80.1953 373.953 78.8438C375.031 77.4922 376.668 76.8164 378.863 76.8164C381.059 76.8164 382.695 77.4922 383.773 78.8438ZM378.852 79.6406C377.875 79.6406 377.121 79.9883 376.59 80.6836C376.066 81.3711 375.805 82.3555 375.805 83.6367C375.805 84.918 376.066 85.9062 376.59 86.6016C377.121 87.2969 377.875 87.6445 378.852 87.6445C379.828 87.6445 380.578 87.2969 381.102 86.6016C381.625 85.9062 381.887 84.918 381.887 83.6367C381.887 82.3555 381.625 81.3711 381.102 80.6836C380.578 79.9883 379.828 79.6406 378.852 79.6406Z" fill="#111111"/>
</g>
<rect x="170" y="59" width="216" height="8" fill="#6B61C4"/>
<defs>
<clipPath id="clip0_204_2474">
<rect width="556" height="59" fill="white"/>
</clipPath>
<clipPath id="clip1_204_2474">
<rect width="216" height="26" fill="white" transform="translate(170 67)"/>
</clipPath>
</defs>
</svg>
