<svg width="353" height="82" viewBox="0 0 353 82" fill="none" xmlns="http://www.w3.org/2000/svg">
<rect x="110" y="48" width="134" height="8" fill="#FF7E00"/>
<g clip-path="url(#clip0_214_2006)">
<rect width="353" height="48" fill="#FF50C8"/>
<path d="M51.42 5.6V9.36H69.86V5.6H51.42ZM50.78 17.12V20.88H70.58V17.12H50.78ZM50.78 22.84V26.6H70.42V22.84H50.78ZM52.7 36.2V40H68.62V36.2H52.7ZM47.62 11.32V15.2H73.38V11.32H47.62ZM50.14 28.6V41.56H54.74V32.32H66.3V41.44H71.14V28.6H50.14ZM44.66 4.12C42.5 9.84 38.78 15.52 34.98 19.12C35.78 20.28 37.06 22.92 37.46 24.04C42.02 19.52 46.42 12.36 49.14 5.56L44.66 4.12ZM40.82 15.2V41.48H45.38V10.68L45.34 10.64L40.82 15.2ZM78.42 7.8V11.36H110.62V7.8H78.42ZM80.5 12.8V16.12H108.54V12.8H80.5ZM76.54 17.6V21.24H112.46V17.6H76.54ZM76.5 26.96V30.48H112.66V26.96H76.5ZM91.94 9.84V19.44H96.9V9.84H91.94ZM100.5 3.96C100.1 5.12 99.3 6.76 98.62 7.96L102.74 9C103.58 8.04 104.7 6.6 105.78 5L100.5 3.96ZM76.34 32.64L76.74 36.28C81.66 35.92 88.46 35.44 94.98 34.88L95.02 31.64C88.14 32.08 81.02 32.44 76.34 32.64ZM84.42 22.84V37.32C84.42 37.84 84.22 38 83.62 38C83.06 38.04 80.86 38.04 79.1 37.92C79.66 38.96 80.22 40.48 80.46 41.6C83.46 41.6 85.54 41.56 87.06 41.04C88.58 40.48 89.06 39.56 89.06 37.44V22.84H84.42ZM91.82 21.12C88.34 21.96 82.34 22.6 77.18 22.84C77.58 23.64 78.06 24.92 78.18 25.76C83.54 25.56 90.02 25 94.54 23.88L91.82 21.12ZM95.3 21.76C95.94 33 100.86 41.56 108.14 41.56C111.3 41.56 112.66 40.6 113.34 36.12C112.22 35.76 110.74 35.08 109.82 34.24C109.62 36.52 109.34 37.2 108.38 37.24C104.14 37.28 100.3 30.36 99.9 21.76H95.3ZM106.02 30.28C103.06 33.96 96.94 36.48 90.78 37.76C91.54 38.68 92.7 40.6 93.14 41.56C99.74 39.68 106.42 36.48 110.1 31.64L106.02 30.28ZM101.38 23.8C103.74 24.76 106.66 26.4 108.06 27.64L110.82 24.64C109.3 23.36 106.34 21.88 103.98 21.04L101.38 23.8ZM83.94 5.4C84.9 6.6 85.86 8.32 86.22 9.44L90.62 7.8C90.18 6.68 89.18 5.12 88.14 4.04L83.94 5.4ZM133.42 14.64H139.98V17.96H133.42V14.64ZM128.94 11.52V21.12H144.74V11.52H128.94ZM128.7 26.08H131.82V30.48H128.7V26.08ZM124.82 22.84V33.68H135.9V22.84H124.82ZM141.66 26.08H144.9V30.48H141.66V26.08ZM137.7 22.84V33.68H149.06V22.84H137.7ZM117.74 5.44V41.6H122.42V9.64H151.94V5.44H117.74ZM120.78 35.68V40H153.02V35.68H120.78ZM170.34 5.68V9.16H177.7V5.68H170.34ZM175.26 14.6V18.36H185.94V14.6H175.26ZM168.38 37V40.88H192.58V37H168.38ZM176.42 5.68V6.32C175.06 11.84 171.14 16.68 166.58 18.84C167.42 19.6 168.5 21.08 169.02 22C174.3 19.16 178.54 13.88 180.34 6.52L177.78 5.56L177.1 5.68H176.42ZM183.34 3.96L179.74 4.88C181.86 12.04 185.66 18.04 191.22 21.2C191.86 20.12 193.1 18.52 194.1 17.72C188.9 15.2 185.14 9.88 183.34 3.96ZM169.66 12.36C171.02 13.4 172.66 14.92 173.42 16L175.78 13.08C174.98 12.08 173.3 10.64 171.94 9.72L169.66 12.36ZM172.86 31.72C173.82 33.52 174.62 35.92 174.82 37.48L178.9 36.08C178.62 34.52 177.78 32.2 176.74 30.48L172.86 31.72ZM187.26 4.36C186.3 5.64 184.46 7.52 183.22 8.56L185.34 10.6C186.7 9.68 188.42 8.32 190.18 6.96L187.26 4.36ZM190.1 8.92C189.1 10.12 187.18 11.88 185.94 12.88L188.1 14.92C189.5 14.04 191.34 12.72 193.06 11.4L190.1 8.92ZM183.94 30.32C183.58 32.12 182.74 34.6 182.02 36.28L185.86 37.28C186.62 35.8 187.54 33.6 188.54 31.36L183.94 30.32ZM175.74 24.04H185.34V26.96H175.74V24.04ZM171.58 20.44V30.52H189.78V20.44H171.58ZM161.18 4.56V18.24C161.18 25.2 160.62 32.68 155.54 38.24C156.54 38.96 157.98 40.56 158.62 41.52C164.7 35.08 165.38 26.44 165.38 18.28V4.56H161.18ZM157.02 12.4C157.1 15.88 156.58 20.04 155.34 22.32L158.5 23.64C159.9 20.88 160.34 16.52 160.18 12.8L157.02 12.4ZM167.18 9.8C166.5 11.8 165.26 14.64 164.22 16.44L166.94 17.72C168.1 16.12 169.58 13.56 171.02 11.32L167.18 9.8ZM164.46 26.04L161.5 28.24C162.98 30.44 165.82 35 167.06 37.64L170.34 34.32C169.46 33.04 165.58 27.32 164.46 26.04ZM217.1 22.32V35.32C217.1 39.96 218.22 41.48 222.74 41.48C223.58 41.48 226.66 41.48 227.54 41.48C231.54 41.48 232.74 39.56 233.22 32.56C231.98 32.24 229.86 31.4 228.86 30.6C228.66 36.08 228.46 36.96 227.14 36.96C226.42 36.96 224.06 36.96 223.46 36.96C222.14 36.96 221.94 36.76 221.94 35.32V22.32H217.1ZM206.3 22.52C205.78 29.44 204.94 34.6 195.42 37.44C196.46 38.44 197.82 40.4 198.34 41.64C209.14 38.04 210.78 31.28 211.42 22.52H206.3ZM199.34 7.36C201.1 10.52 202.9 14.68 203.46 17.32L208.14 15.44C207.46 12.76 205.5 8.76 203.66 5.76L199.34 7.36ZM225.22 5.44C224.22 8.64 222.26 12.84 220.62 15.48L224.82 17.08C226.5 14.6 228.58 10.76 230.34 7.2L225.22 5.44ZM196.46 18.72V23.24H232.62V18.72H196.46ZM211.9 4.04V20.56H216.78V4.04H211.9ZM252.22 22.72V27.84H257.1V22.72H252.22ZM251.46 26.44C248.26 29.28 241.82 31.4 235.54 32.36C236.38 33.2 237.54 34.76 238.1 35.76C244.7 34.56 251.3 31.8 255.18 28.04L251.46 26.44ZM257.62 26.52L253.58 27.36C256.58 35.12 261.74 39.76 270.78 41.72C271.3 40.52 272.5 38.76 273.46 37.84C265.18 36.44 259.98 32.6 257.62 26.52ZM267.7 28.52C265.82 30.04 262.62 32 260.26 33.16L263.14 35.48C265.54 34.44 268.66 32.76 271.14 31.04L267.7 28.52ZM239.9 37.16L240.5 41.12C245.1 40.52 251.46 39.68 257.42 38.84L257.26 35.08C250.98 35.88 244.3 36.72 239.9 37.16ZM236.26 25.32V28.92H272.74V25.32H236.26ZM251.98 9V13H272.46V9H251.98ZM252.98 17.92V21.92H271.58V17.92H252.98ZM246.26 4.04V23.96H250.78V4.04H246.26ZM259.78 4.04V20.36H264.54V4.04H259.78ZM238.06 4.52V12.76H242.1V4.52H238.06ZM240.1 8.48V12.12H248.54V8.48H240.1ZM236.22 14.32V17.96H248.5V14.32H236.22ZM239.18 15.64C239.02 18.6 238.5 20.68 235.5 21.96C236.38 22.64 237.5 24.12 237.94 25.08C242.3 23.2 243.26 20 243.54 15.64H239.18ZM244.86 31.96V38.64H249.42V30.88L246.66 30.16L244.86 31.96ZM301.02 8.76H305.7V11.08H301.02V8.76ZM292.1 8.76H296.66V11.08H292.1V8.76ZM283.3 8.76H287.74V11.08H283.3V8.76ZM278.7 5.6V14.32H310.54V5.6H278.7ZM276.9 15.88V19.4H312.06V15.88H276.9ZM280.94 36.56V40.24H312.9V36.56H280.94ZM278.98 21.52V41.64H283.86V21.52H278.98ZM290.98 27.28H304.54V28.68H290.98V27.28ZM290.98 31.08H304.54V32.52H290.98V31.08ZM290.98 23.52H304.54V24.88H290.98V23.52ZM286.54 20.96V35.04H309.18V20.96H286.54ZM292.46 13.52C292.22 16.44 291.78 20.04 291.34 22.4H295.98C296.42 20.16 296.94 16.72 297.26 13.84L292.46 13.52Z" fill="#111111"/>
</g>
<g clip-path="url(#clip1_214_2006)">
<rect width="134" height="26" transform="translate(110 56)" fill="#00B9AF"/>
<path d="M128.633 61.7266H132.301L127.438 79H123.992L121.906 68.8984L121.297 65.5586L120.688 68.8984L118.602 79H115.25L110.352 61.7266H114.184L116.469 71.6172L116.961 74.3711L117.465 71.6758L119.41 61.7266H123.219L125.27 71.6172L125.797 74.3711L126.324 71.7227L128.633 61.7266ZM145.766 71.5V79H142.355V71.2305C142.355 70.543 142.238 69.9883 142.004 69.5664C141.699 68.9727 141.121 68.6758 140.27 68.6758C139.387 68.6758 138.715 68.9727 138.254 69.5664C137.801 70.1523 137.574 70.9922 137.574 72.0859V79H134.246V61.7852H137.574V67.8906C138.059 67.1484 138.617 66.6328 139.25 66.3438C139.891 66.0469 140.562 65.8984 141.266 65.8984C142.055 65.8984 142.77 66.0352 143.41 66.3086C144.059 66.582 144.59 67 145.004 67.5625C145.355 68.0391 145.57 68.5312 145.648 69.0391C145.727 69.5391 145.766 70.3594 145.766 71.5ZM149.375 67.6094C150.258 66.4844 151.773 65.9219 153.922 65.9219C155.32 65.9219 156.562 66.1992 157.648 66.7539C158.734 67.3086 159.277 68.3555 159.277 69.8945V75.7539C159.277 76.1602 159.285 76.6523 159.301 77.2305C159.324 77.668 159.391 77.9648 159.5 78.1211C159.609 78.2773 159.773 78.4062 159.992 78.5078V79H156.359C156.258 78.7422 156.188 78.5 156.148 78.2734C156.109 78.0469 156.078 77.7891 156.055 77.5C155.594 78 155.062 78.4258 154.461 78.7773C153.742 79.1914 152.93 79.3984 152.023 79.3984C150.867 79.3984 149.91 79.0703 149.152 78.4141C148.402 77.75 148.027 76.8125 148.027 75.6016C148.027 74.0312 148.633 72.8945 149.844 72.1914C150.508 71.8086 151.484 71.5352 152.773 71.3711L153.91 71.2305C154.527 71.1523 154.969 71.0547 155.234 70.9375C155.711 70.7344 155.949 70.418 155.949 69.9883C155.949 69.4648 155.766 69.1055 155.398 68.9102C155.039 68.707 154.508 68.6055 153.805 68.6055C153.016 68.6055 152.457 68.8008 152.129 69.1914C151.895 69.4805 151.738 69.8711 151.66 70.3633H148.438C148.508 69.2461 148.82 68.3281 149.375 67.6094ZM151.859 76.5859C152.172 76.8438 152.555 76.9727 153.008 76.9727C153.727 76.9727 154.387 76.7617 154.988 76.3398C155.598 75.918 155.914 75.1484 155.938 74.0312V72.7891C155.727 72.9219 155.512 73.0312 155.293 73.1172C155.082 73.1953 154.789 73.2695 154.414 73.3398L153.664 73.4805C152.961 73.6055 152.457 73.7578 152.152 73.9375C151.637 74.2422 151.379 74.7148 151.379 75.3555C151.379 75.9258 151.539 76.3359 151.859 76.5859ZM168.102 76.6211V79.1172L166.52 79.1758C164.941 79.2305 163.863 78.957 163.285 78.3555C162.91 77.9727 162.723 77.3828 162.723 76.5859V68.7227H160.941V66.3438H162.723V62.7812H166.027V66.3438H168.102V68.7227H166.027V75.4727C166.027 75.9961 166.094 76.3242 166.227 76.457C166.359 76.582 166.766 76.6445 167.445 76.6445C167.547 76.6445 167.652 76.6445 167.762 76.6445C167.879 76.6367 167.992 76.6289 168.102 76.6211ZM173.574 64.2578C173.574 65.4375 173.285 66.3672 172.707 67.0469C172.137 67.7266 171.332 68.168 170.293 68.3711V67.1406C171.059 66.8984 171.586 66.4883 171.875 65.9102C172.031 65.5664 172.098 65.2188 172.074 64.8672H170.234V61.7852H173.574V64.2578ZM184.836 66.8125C185.836 67.4531 186.41 68.5547 186.559 70.1172H183.219C183.172 69.6875 183.051 69.3477 182.855 69.0977C182.488 68.6445 181.863 68.418 180.98 68.418C180.254 68.418 179.734 68.5312 179.422 68.7578C179.117 68.9844 178.965 69.25 178.965 69.5547C178.965 69.9375 179.129 70.2148 179.457 70.3867C179.785 70.5664 180.945 70.875 182.938 71.3125C184.266 71.625 185.262 72.0977 185.926 72.7305C186.582 73.3711 186.91 74.1719 186.91 75.1328C186.91 76.3984 186.438 77.4336 185.492 78.2383C184.555 79.0352 183.102 79.4336 181.133 79.4336C179.125 79.4336 177.641 79.0117 176.68 78.168C175.727 77.3164 175.25 76.2344 175.25 74.9219H178.637C178.707 75.5156 178.859 75.9375 179.094 76.1875C179.508 76.6328 180.273 76.8555 181.391 76.8555C182.047 76.8555 182.566 76.7578 182.949 76.5625C183.34 76.3672 183.535 76.0742 183.535 75.6836C183.535 75.3086 183.379 75.0234 183.066 74.8281C182.754 74.6328 181.594 74.2969 179.586 73.8203C178.141 73.4609 177.121 73.0117 176.527 72.4727C175.934 71.9414 175.637 71.1758 175.637 70.1758C175.637 68.9961 176.098 67.9844 177.02 67.1406C177.949 66.2891 179.254 65.8633 180.934 65.8633C182.527 65.8633 183.828 66.1797 184.836 66.8125ZM210.312 79H206.703L199.648 66.7305V79H196.285V61.7266H200.07L206.949 73.7852V61.7266H210.312V79ZM224.352 75.25C224.266 76.0078 223.871 76.7773 223.168 77.5586C222.074 78.8008 220.543 79.4219 218.574 79.4219C216.949 79.4219 215.516 78.8984 214.273 77.8516C213.031 76.8047 212.41 75.1016 212.41 72.7422C212.41 70.5312 212.969 68.8359 214.086 67.6562C215.211 66.4766 216.668 65.8867 218.457 65.8867C219.52 65.8867 220.477 66.0859 221.328 66.4844C222.18 66.8828 222.883 67.5117 223.438 68.3711C223.938 69.1289 224.262 70.0078 224.41 71.0078C224.496 71.5938 224.531 72.4375 224.516 73.5391H215.773C215.82 74.8203 216.223 75.7188 216.98 76.2344C217.441 76.5547 217.996 76.7148 218.645 76.7148C219.332 76.7148 219.891 76.5195 220.32 76.1289C220.555 75.918 220.762 75.625 220.941 75.25H224.352ZM221.047 71.3359C220.992 70.4531 220.723 69.7852 220.238 69.332C219.762 68.8711 219.168 68.6406 218.457 68.6406C217.684 68.6406 217.082 68.8828 216.652 69.3672C216.23 69.8516 215.965 70.5078 215.855 71.3359H221.047ZM236.469 79L234.465 69.6953L232.438 79H228.969L225.383 66.2266H228.969L230.961 75.3906L232.801 66.2266H236.188L238.133 75.4258L240.125 66.2266H243.605L239.902 79H236.469Z" fill="#111111"/>
</g>
<defs>
<clipPath id="clip0_214_2006">
<rect width="353" height="48" fill="white"/>
</clipPath>
<clipPath id="clip1_214_2006">
<rect width="134" height="26" fill="white" transform="translate(110 56)"/>
</clipPath>
</defs>
</svg>
