<svg width="175" height="135" viewBox="0 0 175 135" fill="none" xmlns="http://www.w3.org/2000/svg">
<rect x="30" y="101" width="134" height="8" fill="#FF7E00"/>
<rect width="175" height="101" fill="#FF50C8"/>
<path d="M44.42 5.6V9.36H62.86V5.6H44.42ZM43.78 17.12V20.88H63.58V17.12H43.78ZM43.78 22.84V26.6H63.42V22.84H43.78ZM45.7 36.2V40H61.62V36.2H45.7ZM40.62 11.32V15.2H66.38V11.32H40.62ZM43.14 28.6V41.56H47.74V32.32H59.3V41.44H64.14V28.6H43.14ZM37.66 4.12C35.5 9.84 31.78 15.52 27.98 19.12C28.78 20.28 30.06 22.92 30.46 24.04C35.02 19.52 39.42 12.36 42.14 5.56L37.66 4.12ZM33.82 15.2V41.48H38.38V10.68L38.34 10.64L33.82 15.2ZM71.42 7.8V11.36H103.62V7.8H71.42ZM73.5 12.8V16.12H101.54V12.8H73.5ZM69.54 17.6V21.24H105.46V17.6H69.54ZM69.5 26.96V30.48H105.66V26.96H69.5ZM84.94 9.84V19.44H89.9V9.84H84.94ZM93.5 3.96C93.1 5.12 92.3 6.76 91.62 7.96L95.74 9C96.58 8.04 97.7 6.6 98.78 5L93.5 3.96ZM69.34 32.64L69.74 36.28C74.66 35.92 81.46 35.44 87.98 34.88L88.02 31.64C81.14 32.08 74.02 32.44 69.34 32.64ZM77.42 22.84V37.32C77.42 37.84 77.22 38 76.62 38C76.06 38.04 73.86 38.04 72.1 37.92C72.66 38.96 73.22 40.48 73.46 41.6C76.46 41.6 78.54 41.56 80.06 41.04C81.58 40.48 82.06 39.56 82.06 37.44V22.84H77.42ZM84.82 21.12C81.34 21.96 75.34 22.6 70.18 22.84C70.58 23.64 71.06 24.92 71.18 25.76C76.54 25.56 83.02 25 87.54 23.88L84.82 21.12ZM88.3 21.76C88.94 33 93.86 41.56 101.14 41.56C104.3 41.56 105.66 40.6 106.34 36.12C105.22 35.76 103.74 35.08 102.82 34.24C102.62 36.52 102.34 37.2 101.38 37.24C97.14 37.28 93.3 30.36 92.9 21.76H88.3ZM99.02 30.28C96.06 33.96 89.94 36.48 83.78 37.76C84.54 38.68 85.7 40.6 86.14 41.56C92.74 39.68 99.42 36.48 103.1 31.64L99.02 30.28ZM94.38 23.8C96.74 24.76 99.66 26.4 101.06 27.64L103.82 24.64C102.3 23.36 99.34 21.88 96.98 21.04L94.38 23.8ZM76.94 5.4C77.9 6.6 78.86 8.32 79.22 9.44L83.62 7.8C83.18 6.68 82.18 5.12 81.14 4.04L76.94 5.4ZM126.42 14.64H132.98V17.96H126.42V14.64ZM121.94 11.52V21.12H137.74V11.52H121.94ZM121.7 26.08H124.82V30.48H121.7V26.08ZM117.82 22.84V33.68H128.9V22.84H117.82ZM134.66 26.08H137.9V30.48H134.66V26.08ZM130.7 22.84V33.68H142.06V22.84H130.7ZM110.74 5.44V41.6H115.42V9.64H144.94V5.44H110.74ZM113.78 35.68V40H146.02V35.68H113.78ZM23.34 53.68V57.16H30.7V53.68H23.34ZM28.26 62.6V66.36H38.94V62.6H28.26ZM21.38 85V88.88H45.58V85H21.38ZM29.42 53.68V54.32C28.06 59.84 24.14 64.68 19.58 66.84C20.42 67.6 21.5 69.08 22.02 70C27.3 67.16 31.54 61.88 33.34 54.52L30.78 53.56L30.1 53.68H29.42ZM36.34 51.96L32.74 52.88C34.86 60.04 38.66 66.04 44.22 69.2C44.86 68.12 46.1 66.52 47.1 65.72C41.9 63.2 38.14 57.88 36.34 51.96ZM22.66 60.36C24.02 61.4 25.66 62.92 26.42 64L28.78 61.08C27.98 60.08 26.3 58.64 24.94 57.72L22.66 60.36ZM25.86 79.72C26.82 81.52 27.62 83.92 27.82 85.48L31.9 84.08C31.62 82.52 30.78 80.2 29.74 78.48L25.86 79.72ZM40.26 52.36C39.3 53.64 37.46 55.52 36.22 56.56L38.34 58.6C39.7 57.68 41.42 56.32 43.18 54.96L40.26 52.36ZM43.1 56.92C42.1 58.12 40.18 59.88 38.94 60.88L41.1 62.92C42.5 62.04 44.34 60.72 46.06 59.4L43.1 56.92ZM36.94 78.32C36.58 80.12 35.74 82.6 35.02 84.28L38.86 85.28C39.62 83.8 40.54 81.6 41.54 79.36L36.94 78.32ZM28.74 72.04H38.34V74.96H28.74V72.04ZM24.58 68.44V78.52H42.78V68.44H24.58ZM14.18 52.56V66.24C14.18 73.2 13.62 80.68 8.54 86.24C9.54 86.96 10.98 88.56 11.62 89.52C17.7 83.08 18.38 74.44 18.38 66.28V52.56H14.18ZM10.02 60.4C10.1 63.88 9.58 68.04 8.34 70.32L11.5 71.64C12.9 68.88 13.34 64.52 13.18 60.8L10.02 60.4ZM20.18 57.8C19.5 59.8 18.26 62.64 17.22 64.44L19.94 65.72C21.1 64.12 22.58 61.56 24.02 59.32L20.18 57.8ZM17.46 74.04L14.5 76.24C15.98 78.44 18.82 83 20.06 85.64L23.34 82.32C22.46 81.04 18.58 75.32 17.46 74.04ZM70.1 70.32V83.32C70.1 87.96 71.22 89.48 75.74 89.48C76.58 89.48 79.66 89.48 80.54 89.48C84.54 89.48 85.74 87.56 86.22 80.56C84.98 80.24 82.86 79.4 81.86 78.6C81.66 84.08 81.46 84.96 80.14 84.96C79.42 84.96 77.06 84.96 76.46 84.96C75.14 84.96 74.94 84.76 74.94 83.32V70.32H70.1ZM59.3 70.52C58.78 77.44 57.94 82.6 48.42 85.44C49.46 86.44 50.82 88.4 51.34 89.64C62.14 86.04 63.78 79.28 64.42 70.52H59.3ZM52.34 55.36C54.1 58.52 55.9 62.68 56.46 65.32L61.14 63.44C60.46 60.76 58.5 56.76 56.66 53.76L52.34 55.36ZM78.22 53.44C77.22 56.64 75.26 60.84 73.62 63.48L77.82 65.08C79.5 62.6 81.58 58.76 83.34 55.2L78.22 53.44ZM49.46 66.72V71.24H85.62V66.72H49.46ZM64.9 52.04V68.56H69.78V52.04H64.9ZM105.22 70.72V75.84H110.1V70.72H105.22ZM104.46 74.44C101.26 77.28 94.82 79.4 88.54 80.36C89.38 81.2 90.54 82.76 91.1 83.76C97.7 82.56 104.3 79.8 108.18 76.04L104.46 74.44ZM110.62 74.52L106.58 75.36C109.58 83.12 114.74 87.76 123.78 89.72C124.3 88.52 125.5 86.76 126.46 85.84C118.18 84.44 112.98 80.6 110.62 74.52ZM120.7 76.52C118.82 78.04 115.62 80 113.26 81.16L116.14 83.48C118.54 82.44 121.66 80.76 124.14 79.04L120.7 76.52ZM92.9 85.16L93.5 89.12C98.1 88.52 104.46 87.68 110.42 86.84L110.26 83.08C103.98 83.88 97.3 84.72 92.9 85.16ZM89.26 73.32V76.92H125.74V73.32H89.26ZM104.98 57V61H125.46V57H104.98ZM105.98 65.92V69.92H124.58V65.92H105.98ZM99.26 52.04V71.96H103.78V52.04H99.26ZM112.78 52.04V68.36H117.54V52.04H112.78ZM91.06 52.52V60.76H95.1V52.52H91.06ZM93.1 56.48V60.12H101.54V56.48H93.1ZM89.22 62.32V65.96H101.5V62.32H89.22ZM92.18 63.64C92.02 66.6 91.5 68.68 88.5 69.96C89.38 70.64 90.5 72.12 90.94 73.08C95.3 71.2 96.26 68 96.54 63.64H92.18ZM97.86 79.96V86.64H102.42V78.88L99.66 78.16L97.86 79.96ZM154.02 56.76H158.7V59.08H154.02V56.76ZM145.1 56.76H149.66V59.08H145.1V56.76ZM136.3 56.76H140.74V59.08H136.3V56.76ZM131.7 53.6V62.32H163.54V53.6H131.7ZM129.9 63.88V67.4H165.06V63.88H129.9ZM133.94 84.56V88.24H165.9V84.56H133.94ZM131.98 69.52V89.64H136.86V69.52H131.98ZM143.98 75.28H157.54V76.68H143.98V75.28ZM143.98 79.08H157.54V80.52H143.98V79.08ZM143.98 71.52H157.54V72.88H143.98V71.52ZM139.54 68.96V83.04H162.18V68.96H139.54ZM145.46 61.52C145.22 64.44 144.78 68.04 144.34 70.4H148.98C149.42 68.16 149.94 64.72 150.26 61.84L145.46 61.52Z" fill="#111111"/>
<g clip-path="url(#clip0_214_3017)">
<rect width="134" height="26" transform="translate(21 109)" fill="#00B9AF"/>
<path d="M39.6328 114.727H43.3008L38.4375 132H34.9922L32.9062 121.898L32.2969 118.559L31.6875 121.898L29.6016 132H26.25L21.3516 114.727H25.1836L27.4688 124.617L27.9609 127.371L28.4648 124.676L30.4102 114.727H34.2188L36.2695 124.617L36.7969 127.371L37.3242 124.723L39.6328 114.727ZM56.7656 124.5V132H53.3555V124.23C53.3555 123.543 53.2383 122.988 53.0039 122.566C52.6992 121.973 52.1211 121.676 51.2695 121.676C50.3867 121.676 49.7148 121.973 49.2539 122.566C48.8008 123.152 48.5742 123.992 48.5742 125.086V132H45.2461V114.785H48.5742V120.891C49.0586 120.148 49.6172 119.633 50.25 119.344C50.8906 119.047 51.5625 118.898 52.2656 118.898C53.0547 118.898 53.7695 119.035 54.4102 119.309C55.0586 119.582 55.5898 120 56.0039 120.562C56.3555 121.039 56.5703 121.531 56.6484 122.039C56.7266 122.539 56.7656 123.359 56.7656 124.5ZM60.375 120.609C61.2578 119.484 62.7734 118.922 64.9219 118.922C66.3203 118.922 67.5625 119.199 68.6484 119.754C69.7344 120.309 70.2773 121.355 70.2773 122.895V128.754C70.2773 129.16 70.2852 129.652 70.3008 130.23C70.3242 130.668 70.3906 130.965 70.5 131.121C70.6094 131.277 70.7734 131.406 70.9922 131.508V132H67.3594C67.2578 131.742 67.1875 131.5 67.1484 131.273C67.1094 131.047 67.0781 130.789 67.0547 130.5C66.5938 131 66.0625 131.426 65.4609 131.777C64.7422 132.191 63.9297 132.398 63.0234 132.398C61.8672 132.398 60.9102 132.07 60.1523 131.414C59.4023 130.75 59.0273 129.812 59.0273 128.602C59.0273 127.031 59.6328 125.895 60.8438 125.191C61.5078 124.809 62.4844 124.535 63.7734 124.371L64.9102 124.23C65.5273 124.152 65.9688 124.055 66.2344 123.938C66.7109 123.734 66.9492 123.418 66.9492 122.988C66.9492 122.465 66.7656 122.105 66.3984 121.91C66.0391 121.707 65.5078 121.605 64.8047 121.605C64.0156 121.605 63.457 121.801 63.1289 122.191C62.8945 122.48 62.7383 122.871 62.6602 123.363H59.4375C59.5078 122.246 59.8203 121.328 60.375 120.609ZM62.8594 129.586C63.1719 129.844 63.5547 129.973 64.0078 129.973C64.7266 129.973 65.3867 129.762 65.9883 129.34C66.5977 128.918 66.9141 128.148 66.9375 127.031V125.789C66.7266 125.922 66.5117 126.031 66.293 126.117C66.082 126.195 65.7891 126.27 65.4141 126.34L64.6641 126.48C63.9609 126.605 63.457 126.758 63.1523 126.938C62.6367 127.242 62.3789 127.715 62.3789 128.355C62.3789 128.926 62.5391 129.336 62.8594 129.586ZM79.1016 129.621V132.117L77.5195 132.176C75.9414 132.23 74.8633 131.957 74.2852 131.355C73.9102 130.973 73.7227 130.383 73.7227 129.586V121.723H71.9414V119.344H73.7227V115.781H77.0273V119.344H79.1016V121.723H77.0273V128.473C77.0273 128.996 77.0938 129.324 77.2266 129.457C77.3594 129.582 77.7656 129.645 78.4453 129.645C78.5469 129.645 78.6523 129.645 78.7617 129.645C78.8789 129.637 78.9922 129.629 79.1016 129.621ZM84.5742 117.258C84.5742 118.438 84.2852 119.367 83.707 120.047C83.1367 120.727 82.332 121.168 81.293 121.371V120.141C82.0586 119.898 82.5859 119.488 82.875 118.91C83.0312 118.566 83.0977 118.219 83.0742 117.867H81.2344V114.785H84.5742V117.258ZM95.8359 119.812C96.8359 120.453 97.4102 121.555 97.5586 123.117H94.2188C94.1719 122.688 94.0508 122.348 93.8555 122.098C93.4883 121.645 92.8633 121.418 91.9805 121.418C91.2539 121.418 90.7344 121.531 90.4219 121.758C90.1172 121.984 89.9648 122.25 89.9648 122.555C89.9648 122.938 90.1289 123.215 90.457 123.387C90.7852 123.566 91.9453 123.875 93.9375 124.312C95.2656 124.625 96.2617 125.098 96.9258 125.73C97.582 126.371 97.9102 127.172 97.9102 128.133C97.9102 129.398 97.4375 130.434 96.4922 131.238C95.5547 132.035 94.1016 132.434 92.1328 132.434C90.125 132.434 88.6406 132.012 87.6797 131.168C86.7266 130.316 86.25 129.234 86.25 127.922H89.6367C89.707 128.516 89.8594 128.938 90.0938 129.188C90.5078 129.633 91.2734 129.855 92.3906 129.855C93.0469 129.855 93.5664 129.758 93.9492 129.562C94.3398 129.367 94.5352 129.074 94.5352 128.684C94.5352 128.309 94.3789 128.023 94.0664 127.828C93.7539 127.633 92.5938 127.297 90.5859 126.82C89.1406 126.461 88.1211 126.012 87.5273 125.473C86.9336 124.941 86.6367 124.176 86.6367 123.176C86.6367 121.996 87.0977 120.984 88.0195 120.141C88.9492 119.289 90.2539 118.863 91.9336 118.863C93.5273 118.863 94.8281 119.18 95.8359 119.812ZM121.312 132H117.703L110.648 119.73V132H107.285V114.727H111.07L117.949 126.785V114.727H121.312V132ZM135.352 128.25C135.266 129.008 134.871 129.777 134.168 130.559C133.074 131.801 131.543 132.422 129.574 132.422C127.949 132.422 126.516 131.898 125.273 130.852C124.031 129.805 123.41 128.102 123.41 125.742C123.41 123.531 123.969 121.836 125.086 120.656C126.211 119.477 127.668 118.887 129.457 118.887C130.52 118.887 131.477 119.086 132.328 119.484C133.18 119.883 133.883 120.512 134.438 121.371C134.938 122.129 135.262 123.008 135.41 124.008C135.496 124.594 135.531 125.438 135.516 126.539H126.773C126.82 127.82 127.223 128.719 127.98 129.234C128.441 129.555 128.996 129.715 129.645 129.715C130.332 129.715 130.891 129.52 131.32 129.129C131.555 128.918 131.762 128.625 131.941 128.25H135.352ZM132.047 124.336C131.992 123.453 131.723 122.785 131.238 122.332C130.762 121.871 130.168 121.641 129.457 121.641C128.684 121.641 128.082 121.883 127.652 122.367C127.23 122.852 126.965 123.508 126.855 124.336H132.047ZM147.469 132L145.465 122.695L143.438 132H139.969L136.383 119.227H139.969L141.961 128.391L143.801 119.227H147.188L149.133 128.426L151.125 119.227H154.605L150.902 132H147.469Z" fill="#111111"/>
</g>
<defs>
<clipPath id="clip0_214_3017">
<rect width="134" height="26" fill="white" transform="translate(21 109)"/>
</clipPath>
</defs>
</svg>
