<svg width="19" height="19" viewBox="0 0 19 19" fill="none" xmlns="http://www.w3.org/2000/svg">
<g clip-path="url(#clip0_51_10248)">
<path d="M14.9409 4.05909C15.0249 4.12154 15.0937 4.20223 15.1421 4.2951C15.1905 4.38797 15.2172 4.4906 15.2202 4.59528C15.2232 4.69995 15.2024 4.80394 15.1594 4.89943C15.1165 4.99492 15.0524 5.07943 14.972 5.14658L5.14649 14.9721C5.0793 15.0518 4.99499 15.1154 4.89984 15.158C4.80469 15.2005 4.70115 15.2211 4.59695 15.2181C4.49275 15.2151 4.39056 15.1886 4.29802 15.1406C4.20547 15.0927 4.12495 15.0244 4.06245 14.941C3.97818 14.8788 3.90909 14.7983 3.86041 14.7056C3.81172 14.6129 3.78469 14.5103 3.78136 14.4056C3.77802 14.3009 3.79847 14.1969 3.84116 14.1012C3.88385 14.0056 3.94767 13.9209 4.02782 13.8535L13.8534 4.02792C13.9205 3.94757 14.005 3.8835 14.1005 3.84052C14.196 3.79754 14.3 3.77676 14.4047 3.77976C14.5094 3.78276 14.612 3.80946 14.7049 3.85784C14.7977 3.90622 14.8784 3.97503 14.9409 4.05909Z" fill="#FCEA00"/>
<path d="M14.9409 14.9409C14.8784 15.025 14.7977 15.0938 14.7049 15.1422C14.612 15.1906 14.5094 15.2172 14.4047 15.2202C14.3 15.2232 14.196 15.2025 14.1005 15.1595C14.005 15.1165 13.9205 15.0524 13.8534 14.9721L4.02782 5.14654C3.94767 5.07912 3.88385 4.99441 3.84116 4.89877C3.79847 4.80314 3.77802 4.69907 3.78136 4.59439C3.78469 4.48971 3.81172 4.38715 3.86041 4.29442C3.90909 4.2017 3.97818 4.12122 4.06245 4.05904C4.12495 3.9756 4.20547 3.90735 4.29802 3.85936C4.39056 3.81138 4.49275 3.7849 4.59695 3.7819C4.70115 3.77891 4.80469 3.79947 4.89984 3.84206C4.99499 3.88465 5.0793 3.94816 5.14649 4.02787L14.972 13.8534C15.0524 13.9206 15.1165 14.0051 15.1594 14.1006C15.2024 14.1961 15.2232 14.3001 15.2202 14.4047C15.2172 14.5094 15.1905 14.612 15.1421 14.7049C15.0937 14.7978 15.0249 14.8785 14.9409 14.9409Z" fill="#FCEA00"/>
<path d="M11.8171 2.83649C11.8171 4.40193 10.7781 8.41597 9.50009 8.41597C8.22211 8.41597 7.18311 4.40193 7.18311 2.83649C7.18311 1.27105 8.22211 0 9.50009 0C10.7781 0 11.8171 1.27105 11.8171 2.83649Z" fill="#FCEA00"/>
<path d="M7.18311 16.1635C7.18311 14.5981 8.22211 10.584 9.50009 10.584C10.7781 10.584 11.8171 14.5981 11.8171 16.1635C11.8171 17.729 10.7781 19 9.50009 19C8.22211 19 7.18311 17.729 7.18311 16.1635Z" fill="#FCEA00"/>
<path d="M16.1635 11.817C14.598 11.817 10.584 10.778 10.584 9.49997C10.584 8.22199 14.598 7.18298 16.1635 7.18298C17.7289 7.18298 19 8.22199 19 9.49997C19 10.778 17.7289 11.817 16.1635 11.817Z" fill="#FCEA00"/>
<path d="M2.83649 7.18298C4.40193 7.18298 8.41597 8.22199 8.41597 9.49997C8.41597 10.778 4.40193 11.817 2.83649 11.817C1.27105 11.817 0 10.778 0 9.49997C0 8.22199 1.27105 7.18298 2.83649 7.18298Z" fill="#FCEA00"/>
</g>
<defs>
<clipPath id="clip0_51_10248">
<rect width="19" height="19" fill="white"/>
</clipPath>
</defs>
</svg>
