<svg width="15" height="13" viewBox="0 0 15 13" fill="none" xmlns="http://www.w3.org/2000/svg">
<path d="M13.4587 3.44562C14.0688 3.0125 14.5819 2.47187 15 1.84938V1.84875C14.4419 2.09313 13.8481 2.25563 13.2281 2.33438C13.8656 1.95375 14.3525 1.35562 14.5813 0.635C13.9869 0.989375 13.3306 1.23937 12.6312 1.37937C12.0669 0.778125 11.2625 0.40625 10.385 0.40625C8.6825 0.40625 7.31188 1.78813 7.31188 3.48187C7.31188 3.72563 7.3325 3.96 7.38312 4.18313C4.82687 4.05813 2.56437 2.83312 1.04437 0.96625C0.779375 1.42687 0.623125 1.95375 0.623125 2.52062C0.623125 3.58562 1.17125 4.52938 1.98938 5.07625C1.495 5.06687 1.01063 4.92313 0.6 4.6975V4.73125C0.6 6.22563 1.66562 7.46688 3.06375 7.75313C2.81312 7.82188 2.54063 7.85437 2.2575 7.85437C2.06063 7.85437 1.86188 7.84313 1.67562 7.80188C2.07375 9.01937 3.205 9.915 4.54875 9.94438C3.5025 10.7625 2.17375 11.2556 0.735625 11.2556C0.48375 11.2556 0.241875 11.2444 0 11.2137C1.3625 12.0919 2.97625 12.5938 4.7175 12.5938C10.1444 12.5938 13.6813 8.06625 13.4587 3.44562Z" fill="white"/>
</svg>
