<svg width="15" height="15" viewBox="0 0 15 15" fill="none" xmlns="http://www.w3.org/2000/svg">
<path d="M7.5 0.3125C3.36563 0.3125 0 3.06125 0 6.43938C0 9.465 2.66875 12 6.27187 12.4819C6.51625 12.5338 6.84875 12.6444 6.93313 12.8531C7.00813 13.0425 6.9825 13.335 6.95687 13.5325L6.85437 14.1737C6.82625 14.3631 6.70437 14.9194 7.51 14.5794C8.31687 14.2406 11.8325 12.0144 13.4075 10.1925C14.485 9.005 15 7.78813 15 6.43938C15 3.06125 11.6344 0.3125 7.5 0.3125ZM4.56437 8.44812H3.07312C2.8575 8.44812 2.67938 8.26875 2.67938 8.0525V5.05188C2.67938 4.835 2.8575 4.65562 3.07312 4.65562C3.29062 4.65562 3.46688 4.835 3.46688 5.05188V7.65625H4.56437C4.78188 7.65625 4.9575 7.83437 4.9575 8.0525C4.9575 8.26875 4.78125 8.44812 4.56437 8.44812ZM6.10563 8.0525C6.10563 8.26875 5.92937 8.44812 5.71125 8.44812C5.49562 8.44812 5.31938 8.26875 5.31938 8.0525V5.05188C5.31938 4.835 5.49563 4.65562 5.71312 4.65562C5.92937 4.65562 6.10563 4.835 6.10563 5.05188V8.0525ZM9.69375 8.0525C9.69375 8.2225 9.585 8.37313 9.42375 8.4275C9.38375 8.44063 9.34062 8.44688 9.29937 8.44688C9.1675 8.44688 9.055 8.39 8.98063 8.28937L7.45375 6.20312V8.05188C7.45375 8.26813 7.27938 8.4475 7.05937 8.4475C6.84312 8.4475 6.66812 8.26813 6.66812 8.05188V5.05188C6.66812 4.88188 6.77625 4.73125 6.93687 4.6775C6.97437 4.66313 7.02187 4.65688 7.05813 4.65688C7.18 4.65688 7.2925 4.7225 7.3675 4.81687L8.90625 6.91125V5.05188C8.90625 4.835 9.0825 4.65562 9.3 4.65562C9.51562 4.65562 9.69375 4.835 9.69375 5.05188V8.0525ZM12.1031 6.15562C12.3212 6.15562 12.4969 6.335 12.4969 6.5525C12.4969 6.76938 12.3212 6.94875 12.1031 6.94875H11.0063V7.65625H12.1031C12.3212 7.65625 12.4969 7.83437 12.4969 8.0525C12.4969 8.26875 12.3212 8.44812 12.1031 8.44812H10.6119C10.3962 8.44812 10.22 8.26875 10.22 8.0525V5.05188C10.22 4.835 10.3962 4.65562 10.6138 4.65562H12.105C12.3212 4.65562 12.4969 4.835 12.4969 5.05188C12.4969 5.27125 12.3212 5.44812 12.1031 5.44812H11.0063V6.15562H12.1031Z" fill="white"/>
</svg>
