<svg width="15" height="15" viewBox="0 0 15 15" fill="none" xmlns="http://www.w3.org/2000/svg">
<path fill-rule="evenodd" clip-rule="evenodd" d="M7.47557 0.227295C8.82772 0.242725 10.0493 0.575042 11.1402 1.22425C12.2181 1.86049 13.1147 2.76263 13.7444 3.8444C14.3897 4.94189 14.72 6.17082 14.7353 7.5312C14.697 9.39253 14.11 10.9823 12.9741 12.3005C11.8383 13.6187 10.3835 14.4342 8.87761 14.7468V9.52821H10.3013L10.6233 7.47742H8.46745V6.13422C8.45549 5.85576 8.54355 5.58221 8.71571 5.36303C8.88813 5.14325 9.19173 5.02774 9.62654 5.01649H10.9284V3.22005C10.9097 3.21404 10.7325 3.19027 10.3967 3.14875C10.0158 3.10419 9.63282 3.08039 9.24939 3.07746C8.38156 3.08146 7.69522 3.32626 7.19037 3.81185C6.68551 4.29731 6.42762 4.99966 6.41669 5.91891V7.47742H4.77606V9.52821H6.41669V14.7468C4.56762 14.4342 3.11288 13.6187 1.97704 12.3005C0.841197 10.9823 0.254146 9.39253 0.21582 7.5312C0.231154 6.17076 0.561463 4.94183 1.20675 3.8444C1.83642 2.76263 2.73308 1.86049 3.811 1.22425C4.90188 0.575167 6.12341 0.24285 7.47557 0.227295Z" fill="white"/>
</svg>
