<svg width="46" height="46" viewBox="0 0 46 46" fill="none" xmlns="http://www.w3.org/2000/svg">
<g clip-path="url(#clip0_214_14749)">
<path d="M39.7273 0H6.27273C2.8084 0 0 2.8084 0 6.27273V39.7273C0 43.1916 2.8084 46 6.27273 46H39.7273C43.1916 46 46 43.1916 46 39.7273V6.27273C46 2.8084 43.1916 0 39.7273 0Z" fill="#3A559F"/>
<path d="M30.2869 20.2766L29.8243 24.2833C29.8051 24.4661 29.7195 24.6355 29.5836 24.7594C29.4477 24.8832 29.2711 24.9528 29.0873 24.955H24.9055L24.8846 36.834C24.886 36.9747 24.8319 37.1104 24.7341 37.2117C24.6363 37.3129 24.5026 37.3716 24.3618 37.375H20.1251C20.0547 37.3751 19.985 37.3609 19.9201 37.3333C19.8553 37.3057 19.7967 37.2654 19.7479 37.2146C19.6991 37.1638 19.661 37.1037 19.636 37.0378C19.611 36.972 19.5996 36.9017 19.6024 36.8314V24.955H16.466C16.3675 24.954 16.2702 24.9336 16.1796 24.8949C16.089 24.8563 16.0068 24.8001 15.9379 24.7298C15.869 24.6594 15.8146 24.5761 15.7779 24.4847C15.7411 24.3933 15.7227 24.2956 15.7238 24.197L15.7081 20.1903C15.7067 20.0915 15.7248 19.9933 15.7614 19.9015C15.7979 19.8096 15.8522 19.7259 15.9211 19.655C15.9901 19.5841 16.0723 19.5275 16.1631 19.4884C16.2539 19.4493 16.3515 19.4285 16.4504 19.4272H19.6024V15.559C19.6024 11.0687 22.2683 8.625 26.1783 8.625H29.3826C29.4817 8.62602 29.5796 8.64659 29.6707 8.68554C29.7618 8.72448 29.8443 8.78102 29.9135 8.85192C29.9827 8.92283 30.0373 9.0067 30.074 9.09872C30.1107 9.19075 30.1289 9.28911 30.1275 9.38818V12.7598C30.1289 12.8588 30.1107 12.9572 30.074 13.0492C30.0373 13.1413 29.9827 13.2251 29.9135 13.296C29.8443 13.3669 29.7618 13.4235 29.6707 13.4624C29.5796 13.5014 29.4817 13.5219 29.3826 13.523H27.4172C25.2923 13.523 24.8793 14.5684 24.8793 16.0791V19.4272H29.5499C29.6561 19.4285 29.7608 19.4523 29.8572 19.497C29.9536 19.5417 30.0394 19.6063 30.109 19.6865C30.1786 19.7667 30.2305 19.8608 30.2611 19.9625C30.2918 20.0642 30.3006 20.1712 30.2869 20.2766Z" fill="white"/>
</g>
<defs>
<clipPath id="clip0_214_14749">
<rect width="46" height="46" fill="white"/>
</clipPath>
</defs>
</svg>
