<svg width="46" height="46" viewBox="0 0 46 46" fill="none" xmlns="http://www.w3.org/2000/svg">
<g clip-path="url(#clip0_214_14754)">
<path d="M39.7273 0H6.27273C2.8084 0 0 2.8084 0 6.27273V39.7273C0 43.1916 2.8084 46 6.27273 46H39.7273C43.1916 46 46 43.1916 46 39.7273V6.27273C46 2.8084 43.1916 0 39.7273 0Z" fill="#39CD00"/>
<path d="M37.375 21.4319C37.3546 21.724 37.317 22.0146 37.2626 22.3022C37.0808 23.4037 36.7084 24.465 36.1623 25.4386C35.9009 25.9038 34.6437 27.6707 34.2595 28.1359C32.1347 30.6946 28.5749 33.648 22.6262 36.5204C22.5008 36.5811 22.3614 36.6071 22.2224 36.596C22.0835 36.5848 21.9501 36.5368 21.8358 36.457C21.7216 36.3771 21.6308 36.2682 21.5726 36.1416C21.5145 36.0149 21.4911 35.875 21.505 35.7363L21.8056 33.0365C21.8283 32.8299 21.7681 32.6228 21.6383 32.4606C21.5084 32.2984 21.3195 32.1943 21.113 32.1713C19.134 31.9734 17.2063 31.4237 15.4205 30.5483C11.3432 28.5332 8.625 24.9342 8.625 20.8334C8.625 14.5188 15.0598 9.40918 23 9.40918C26.9884 9.40918 30.5952 10.716 33.1932 12.7886C35.6265 14.7358 37.1842 17.3782 37.3515 20.3107C37.3794 20.6837 37.3872 21.058 37.375 21.4319Z" fill="white"/>
<path d="M19.0377 23.3634C19.1072 23.4314 19.1623 23.5128 19.1995 23.6026C19.2368 23.6924 19.2556 23.7889 19.2546 23.8861C19.255 23.9828 19.2362 24.0786 19.1995 24.168C19.1627 24.2574 19.1087 24.3387 19.0404 24.4071C18.9722 24.4756 18.8911 24.5299 18.8018 24.567C18.7126 24.6041 18.6168 24.6232 18.5202 24.6232H15.5798C15.3846 24.6225 15.1975 24.5446 15.0594 24.4065C14.9214 24.2685 14.8435 24.0814 14.8428 23.8861V18.3321C14.8421 18.2349 14.861 18.1386 14.8983 18.0488C14.9355 17.959 14.9904 17.8776 15.0597 17.8094C15.1626 17.7062 15.2938 17.636 15.4368 17.6076C15.5797 17.5792 15.7278 17.594 15.8623 17.65C15.9968 17.706 16.1116 17.8008 16.1921 17.9223C16.2726 18.0438 16.3151 18.1864 16.3143 18.3321V23.1491H18.5202C18.6164 23.1483 18.7118 23.1669 18.8007 23.2038C18.8896 23.2406 18.9702 23.2949 19.0377 23.3634Z" fill="#00C200"/>
<path d="M21.4315 18.1727V24.0455C21.4308 24.1978 21.37 24.3437 21.2623 24.4513C21.1546 24.559 21.0088 24.6198 20.8565 24.6205H20.5271C20.3747 24.6205 20.2284 24.5599 20.1206 24.4521C20.0127 24.3443 19.9521 24.198 19.9521 24.0455V18.1727C19.9521 18.0972 19.967 18.0224 19.9959 17.9526C20.0248 17.8829 20.0672 17.8195 20.1206 17.7661C20.174 17.7127 20.2373 17.6703 20.3071 17.6414C20.3769 17.6126 20.4516 17.5977 20.5271 17.5977H20.8486C20.9247 17.597 21.0002 17.6113 21.0707 17.6399C21.1412 17.6684 21.2054 17.7107 21.2595 17.7641C21.3137 17.8175 21.3567 17.8811 21.3863 17.9512C21.4158 18.0213 21.4311 18.0966 21.4315 18.1727Z" fill="#00C200"/>
<path d="M28.2588 18.3322V23.8548C28.2589 24.0535 28.1818 24.2444 28.0438 24.3873C27.9058 24.5301 27.7177 24.6138 27.5191 24.6206C27.3331 24.6176 27.1549 24.5449 27.0199 24.4167C26.9938 24.3958 26.0058 23.1099 25.1669 22.0279C24.5396 21.2203 23.9959 20.5146 23.9959 20.5146V23.8835C23.9964 24.0263 23.9553 24.1662 23.8776 24.286C23.7998 24.4057 23.6888 24.5002 23.5582 24.5579C23.4276 24.6156 23.283 24.634 23.1421 24.6107C23.0012 24.5875 22.8701 24.5237 22.7649 24.4272C22.689 24.3584 22.6284 24.2745 22.587 24.1809C22.5456 24.0872 22.5243 23.9859 22.5245 23.8835V18.3636C22.522 18.1695 22.5942 17.9819 22.7259 17.8394C22.8577 17.697 23.0391 17.6105 23.2328 17.5978C23.3424 17.596 23.451 17.6185 23.5509 17.6637C23.6508 17.7089 23.7394 17.7756 23.8104 17.8591C23.8417 17.8957 25.3603 19.8716 26.2149 20.9955C26.5547 21.4346 26.7899 21.743 26.7899 21.743V18.3453C26.7913 18.1509 26.8691 17.9649 27.0066 17.8274C27.144 17.69 27.33 17.6122 27.5244 17.6108C27.7169 17.6108 27.9018 17.6864 28.0391 17.8213C28.1765 17.9562 28.2554 18.1397 28.2588 18.3322Z" fill="#00C200"/>
<path d="M30.8406 21.8423V23.1491H33.0439C33.1442 23.1431 33.2447 23.1577 33.3392 23.192C33.4336 23.2263 33.5201 23.2795 33.5932 23.3484C33.6664 23.4173 33.7246 23.5004 33.7645 23.5927C33.8043 23.6849 33.8249 23.7844 33.8249 23.8848C33.8249 23.9853 33.8043 24.0848 33.7645 24.177C33.7246 24.2693 33.6664 24.3524 33.5932 24.4213C33.5201 24.4902 33.4336 24.5434 33.3392 24.5777C33.2447 24.612 33.1442 24.6266 33.0439 24.6206H30.0958C29.9007 24.6199 29.7139 24.5419 29.5763 24.4038C29.4386 24.2656 29.3613 24.0786 29.3613 23.8835V18.3322C29.362 18.1376 29.4396 17.9512 29.5772 17.8136C29.7148 17.676 29.9012 17.5984 30.0958 17.5977H33.0361C33.1364 17.5918 33.2369 17.6064 33.3313 17.6406C33.4258 17.6749 33.5123 17.7281 33.5854 17.797C33.6585 17.8659 33.7168 17.9491 33.7566 18.0413C33.7965 18.1336 33.817 18.233 33.817 18.3335C33.817 18.434 33.7965 18.5334 33.7566 18.6256C33.7168 18.7179 33.6585 18.801 33.5854 18.8699C33.5123 18.9388 33.4258 18.9921 33.3313 19.0263C33.2369 19.0606 33.1364 19.0752 33.0361 19.0692H30.8406V20.376H33.0439C33.2387 20.376 33.4255 20.4534 33.5633 20.5911C33.701 20.7289 33.7784 20.9157 33.7784 21.1105C33.7784 21.3053 33.701 21.4921 33.5633 21.6298C33.4255 21.7675 33.2387 21.8449 33.0439 21.8449L30.8406 21.8423Z" fill="#00C200"/>
</g>
<defs>
<clipPath id="clip0_214_14754">
<rect width="46" height="46" fill="white"/>
</clipPath>
</defs>
</svg>
