<svg width="251" height="93" viewBox="0 0 251 93" fill="none" xmlns="http://www.w3.org/2000/svg">
<g clip-path="url(#clip0_214_12969)">
<rect width="251" height="59" fill="#FFEB00"/>
<path d="M15.24 12.872H42.44V15.56H15.24V12.872ZM15.24 5.64H42.44V8.264H15.24V5.64ZM7.88 0.711998V20.488H50.12V0.711998H7.88ZM0.328 22.792V28.936H57.544V22.792H0.328ZM29.64 31.304V37.192H50.568V31.304H29.64ZM10.12 31.496V36.808H24.712V31.496H10.12ZM10.12 39.496V44.808H24.712V39.496H10.12ZM37.512 36.616L31.368 38.344C35.72 48.328 43.336 55.496 54.408 58.696C55.368 56.904 57.352 54.088 58.952 52.744C48.648 50.312 41.096 44.424 37.512 36.616ZM48.328 31.304V32.392C45.512 42.248 37.256 49.608 27.336 52.744C28.744 54.152 30.664 56.904 31.496 58.696C42.888 54.408 51.912 46.216 55.688 32.84L50.952 31.048L49.672 31.304H48.328ZM-0.248 48.84L0.264 55.432C6.984 54.856 15.944 54.024 24.52 53.192V46.984C15.56 47.752 6.152 48.456 -0.248 48.84ZM20.744 24.776V58.76H28.104V24.776H20.744ZM5.32 24.968V51.08H12.36V24.968H5.32ZM99.08 19.848V26.952H122.952V19.848H99.08ZM64.392 5V11.272H93.192V5H64.392ZM63.752 30.472V36.936H93.128V30.472H63.752ZM63.56 19.272V25.608H93.704V19.272H63.56ZM109.448 22.92V58.44H116.872V22.92H109.448ZM75.08 -0.824001V7.816H82.568V-0.824001H75.08ZM75.08 25.224V58.696H82.568V25.224H75.08ZM95.624 3.72V26.056C95.624 34.824 94.92 45.768 87.496 53.64C89.224 54.6 92.04 57.224 93 58.888C101.704 49.864 102.92 35.72 102.92 26.184V7.368C104.072 7.176 104.52 6.856 104.584 6.216L95.624 3.72ZM116.552 -0.696003C112.008 1.736 104.456 4.04 97.608 5.576C98.504 7.048 99.592 9.736 99.976 11.4C107.464 9.992 116.168 7.816 122.696 4.872L116.552 -0.696003ZM81.992 37.192L77.896 40.52C80.264 42.632 85.128 47.432 87.24 49.992L91.656 44.488C90.12 43.208 83.976 38.408 81.992 37.192ZM67.592 12.232C68.616 14.664 69.448 17.928 69.576 20.04L75.848 18.376C75.528 16.264 74.632 13.128 73.48 10.824L67.592 12.232ZM83.528 10.696C82.952 12.936 81.864 16.2 80.968 18.376L87.048 19.656C88.008 17.672 89.096 14.92 90.312 11.976L83.528 10.696ZM75.144 34.248C72.328 39.88 67.016 46.088 61.96 49.352C63.56 50.568 65.8 53.128 67.016 54.792C72.136 50.632 77.448 43.272 80.584 36.232L75.144 34.248ZM154.056 28.424V34.888H179.4V28.424H154.056ZM153.992 39.688V46.088H179.4V39.688H153.992ZM178.76 0.135998C177.48 4.04 175.048 9.096 173.128 12.36L179.784 14.856C181.768 11.784 184.136 7.24 186.248 2.76L178.76 0.135998ZM146.952 3.464C149.448 7.176 151.944 12.104 152.776 15.368L159.688 12.104C158.728 8.84 155.976 4.104 153.416 0.583996L146.952 3.464ZM148.936 16.52V58.696H156.488V23.688H179.528V16.52H148.936ZM175.944 16.52V50.376C175.944 51.208 175.624 51.464 174.664 51.528C173.704 51.528 170.312 51.528 167.368 51.4C168.328 53.384 169.352 56.52 169.672 58.568C174.472 58.568 177.928 58.504 180.36 57.352C182.728 56.136 183.432 54.088 183.432 50.44V16.52H175.944ZM162.568 -1.4V21.32H170.312V-1.4H162.568ZM129.736 4.552C133.704 6.664 138.696 10.056 140.936 12.424L145.736 6.536C143.24 4.104 138.184 1.096 134.216 -0.824001L129.736 4.552ZM126.792 21.576C130.888 23.688 135.944 27.08 138.312 29.512L142.92 23.496C140.36 21.064 135.176 17.992 131.144 16.136L126.792 21.576ZM128.584 53.512L135.304 58.44C138.76 51.976 142.344 44.552 145.224 37.64L139.592 33.032C136.136 40.52 131.72 48.648 128.584 53.512ZM207.24 40.52V49.8C207.24 56.456 209.224 58.568 217.544 58.568C219.272 58.568 226.248 58.568 228.04 58.568C234.248 58.568 236.36 56.648 237.32 48.968C235.272 48.584 232.008 47.432 230.472 46.344C230.152 51.08 229.704 51.784 227.272 51.784C225.544 51.784 219.784 51.784 218.44 51.784C215.368 51.784 214.856 51.528 214.856 49.736V40.52H207.24ZM214.344 39.048C217.672 41.8 221.448 45.768 223.048 48.52L229.064 44.424C227.272 41.544 223.368 37.832 219.976 35.272L214.344 39.048ZM234.248 42.376C238.728 46.664 243.336 52.552 245.064 56.712L251.72 52.424C249.8 48.072 244.872 42.504 240.392 38.472L234.248 42.376ZM197.768 39.304C196.424 44.104 193.864 49.032 190.408 52.104L196.808 56.584C200.712 52.808 203.016 47.048 204.616 41.8L197.768 39.304ZM208.264 18.056H234.184V21.256H208.264V18.056ZM208.264 26.824H234.184V30.024H208.264V26.824ZM208.264 9.352H234.184V12.552H208.264V9.352ZM200.84 3.528V35.912H241.928V3.528H200.84ZM217.032 -2.04C216.648 0.135998 215.816 3.08 215.048 5.32L222.152 6.728C223.24 4.808 224.904 2.184 226.376 -0.888004L217.032 -2.04Z" fill="#111111"/>
</g>
<g clip-path="url(#clip1_214_12969)">
<rect width="134" height="26" transform="translate(0 67)" fill="#FF7E00"/>
<path d="M18.6328 72.7266H22.3008L17.4375 90H13.9922L11.9062 79.8984L11.2969 76.5586L10.6875 79.8984L8.60156 90H5.25L0.351562 72.7266H4.18359L6.46875 82.6172L6.96094 85.3711L7.46484 82.6758L9.41016 72.7266H13.2188L15.2695 82.6172L15.7969 85.3711L16.3242 82.7227L18.6328 72.7266ZM35.7656 82.5V90H32.3555V82.2305C32.3555 81.543 32.2383 80.9883 32.0039 80.5664C31.6992 79.9727 31.1211 79.6758 30.2695 79.6758C29.3867 79.6758 28.7148 79.9727 28.2539 80.5664C27.8008 81.1523 27.5742 81.9922 27.5742 83.0859V90H24.2461V72.7852H27.5742V78.8906C28.0586 78.1484 28.6172 77.6328 29.25 77.3438C29.8906 77.0469 30.5625 76.8984 31.2656 76.8984C32.0547 76.8984 32.7695 77.0352 33.4102 77.3086C34.0586 77.582 34.5898 78 35.0039 78.5625C35.3555 79.0391 35.5703 79.5312 35.6484 80.0391C35.7266 80.5391 35.7656 81.3594 35.7656 82.5ZM39.375 78.6094C40.2578 77.4844 41.7734 76.9219 43.9219 76.9219C45.3203 76.9219 46.5625 77.1992 47.6484 77.7539C48.7344 78.3086 49.2773 79.3555 49.2773 80.8945V86.7539C49.2773 87.1602 49.2852 87.6523 49.3008 88.2305C49.3242 88.668 49.3906 88.9648 49.5 89.1211C49.6094 89.2773 49.7734 89.4062 49.9922 89.5078V90H46.3594C46.2578 89.7422 46.1875 89.5 46.1484 89.2734C46.1094 89.0469 46.0781 88.7891 46.0547 88.5C45.5938 89 45.0625 89.4258 44.4609 89.7773C43.7422 90.1914 42.9297 90.3984 42.0234 90.3984C40.8672 90.3984 39.9102 90.0703 39.1523 89.4141C38.4023 88.75 38.0273 87.8125 38.0273 86.6016C38.0273 85.0312 38.6328 83.8945 39.8438 83.1914C40.5078 82.8086 41.4844 82.5352 42.7734 82.3711L43.9102 82.2305C44.5273 82.1523 44.9688 82.0547 45.2344 81.9375C45.7109 81.7344 45.9492 81.418 45.9492 80.9883C45.9492 80.4648 45.7656 80.1055 45.3984 79.9102C45.0391 79.707 44.5078 79.6055 43.8047 79.6055C43.0156 79.6055 42.457 79.8008 42.1289 80.1914C41.8945 80.4805 41.7383 80.8711 41.6602 81.3633H38.4375C38.5078 80.2461 38.8203 79.3281 39.375 78.6094ZM41.8594 87.5859C42.1719 87.8438 42.5547 87.9727 43.0078 87.9727C43.7266 87.9727 44.3867 87.7617 44.9883 87.3398C45.5977 86.918 45.9141 86.1484 45.9375 85.0312V83.7891C45.7266 83.9219 45.5117 84.0312 45.293 84.1172C45.082 84.1953 44.7891 84.2695 44.4141 84.3398L43.6641 84.4805C42.9609 84.6055 42.457 84.7578 42.1523 84.9375C41.6367 85.2422 41.3789 85.7148 41.3789 86.3555C41.3789 86.9258 41.5391 87.3359 41.8594 87.5859ZM58.1016 87.6211V90.1172L56.5195 90.1758C54.9414 90.2305 53.8633 89.957 53.2852 89.3555C52.9102 88.9727 52.7227 88.3828 52.7227 87.5859V79.7227H50.9414V77.3438H52.7227V73.7812H56.0273V77.3438H58.1016V79.7227H56.0273V86.4727C56.0273 86.9961 56.0938 87.3242 56.2266 87.457C56.3594 87.582 56.7656 87.6445 57.4453 87.6445C57.5469 87.6445 57.6523 87.6445 57.7617 87.6445C57.8789 87.6367 57.9922 87.6289 58.1016 87.6211ZM63.5742 75.2578C63.5742 76.4375 63.2852 77.3672 62.707 78.0469C62.1367 78.7266 61.332 79.168 60.293 79.3711V78.1406C61.0586 77.8984 61.5859 77.4883 61.875 76.9102C62.0312 76.5664 62.0977 76.2188 62.0742 75.8672H60.2344V72.7852H63.5742V75.2578ZM74.8359 77.8125C75.8359 78.4531 76.4102 79.5547 76.5586 81.1172H73.2188C73.1719 80.6875 73.0508 80.3477 72.8555 80.0977C72.4883 79.6445 71.8633 79.418 70.9805 79.418C70.2539 79.418 69.7344 79.5312 69.4219 79.7578C69.1172 79.9844 68.9648 80.25 68.9648 80.5547C68.9648 80.9375 69.1289 81.2148 69.457 81.3867C69.7852 81.5664 70.9453 81.875 72.9375 82.3125C74.2656 82.625 75.2617 83.0977 75.9258 83.7305C76.582 84.3711 76.9102 85.1719 76.9102 86.1328C76.9102 87.3984 76.4375 88.4336 75.4922 89.2383C74.5547 90.0352 73.1016 90.4336 71.1328 90.4336C69.125 90.4336 67.6406 90.0117 66.6797 89.168C65.7266 88.3164 65.25 87.2344 65.25 85.9219H68.6367C68.707 86.5156 68.8594 86.9375 69.0938 87.1875C69.5078 87.6328 70.2734 87.8555 71.3906 87.8555C72.0469 87.8555 72.5664 87.7578 72.9492 87.5625C73.3398 87.3672 73.5352 87.0742 73.5352 86.6836C73.5352 86.3086 73.3789 86.0234 73.0664 85.8281C72.7539 85.6328 71.5938 85.2969 69.5859 84.8203C68.1406 84.4609 67.1211 84.0117 66.5273 83.4727C65.9336 82.9414 65.6367 82.1758 65.6367 81.1758C65.6367 79.9961 66.0977 78.9844 67.0195 78.1406C67.9492 77.2891 69.2539 76.8633 70.9336 76.8633C72.5273 76.8633 73.8281 77.1797 74.8359 77.8125ZM100.312 90H96.7031L89.6484 77.7305V90H86.2852V72.7266H90.0703L96.9492 84.7852V72.7266H100.312V90ZM114.352 86.25C114.266 87.0078 113.871 87.7773 113.168 88.5586C112.074 89.8008 110.543 90.4219 108.574 90.4219C106.949 90.4219 105.516 89.8984 104.273 88.8516C103.031 87.8047 102.41 86.1016 102.41 83.7422C102.41 81.5312 102.969 79.8359 104.086 78.6562C105.211 77.4766 106.668 76.8867 108.457 76.8867C109.52 76.8867 110.477 77.0859 111.328 77.4844C112.18 77.8828 112.883 78.5117 113.438 79.3711C113.938 80.1289 114.262 81.0078 114.41 82.0078C114.496 82.5938 114.531 83.4375 114.516 84.5391H105.773C105.82 85.8203 106.223 86.7188 106.98 87.2344C107.441 87.5547 107.996 87.7148 108.645 87.7148C109.332 87.7148 109.891 87.5195 110.32 87.1289C110.555 86.918 110.762 86.625 110.941 86.25H114.352ZM111.047 82.3359C110.992 81.4531 110.723 80.7852 110.238 80.332C109.762 79.8711 109.168 79.6406 108.457 79.6406C107.684 79.6406 107.082 79.8828 106.652 80.3672C106.23 80.8516 105.965 81.5078 105.855 82.3359H111.047ZM126.469 90L124.465 80.6953L122.438 90H118.969L115.383 77.2266H118.969L120.961 86.3906L122.801 77.2266H126.188L128.133 86.4258L130.125 77.2266H133.605L129.902 90H126.469Z" fill="#111111"/>
</g>
<rect y="59" width="134" height="8" fill="#6B61C4"/>
<defs>
<clipPath id="clip0_214_12969">
<rect width="251" height="59" fill="white"/>
</clipPath>
<clipPath id="clip1_214_12969">
<rect width="134" height="26" fill="white" transform="translate(0 67)"/>
</clipPath>
</defs>
</svg>
